M48
; DRILL file {KiCad 9.0.7} date 2026-04-04T22:04:30+0200
; FORMAT={-:-/ absolute / metric / decimal}
; #@! TF.CreationDate,2026-04-04T22:04:30+02:00
; #@! TF.GenerationSoftware,Kicad,Pcbnew,9.0.7
; #@! TF.FileFunction,Plated,1,2,PTH
FMAT,2
METRIC
; #@! TA.AperFunction,Plated,PTH,ViaDrill
T1C0.600
; #@! TA.AperFunction,Plated,PTH,ComponentDrill
T2C0.800
; #@! TA.AperFunction,Plated,PTH,ComponentDrill
T3C1.000
; #@! TA.AperFunction,Plated,PTH,ComponentDrill
T4C1.200
%
G90
G05
T1
X7.366Y-20.32
X10.16Y-37.846
X10.414Y-13.97
X11.176Y-19.558
X11.43Y-32.512
X13.208Y-21.844
X13.462Y-36.83
X16.002Y-34.798
X20.32Y-35.814
X21.59Y-13.97
X22.352Y-33.782
X23.368Y-32.004
X25.654Y-44.958
X26.416Y-10.414
X26.924Y-43.18
X27.686Y-16.002
X30.226Y-10.16
X30.918Y-16.082
X31.23Y-31.738
X34.723Y-20.748
X35.687Y-34.925
X36.322Y-33.02
X36.83Y-21.336
X38.327Y-35.56
X41.402Y-8.198
X42.799Y-43.307
X43.942Y-32.004
X44.196Y-57.15
X45.212Y-44.704
X45.436Y-37.084
X48.514Y-14.986
X48.76Y-44.029
X49.167Y-33.02
X50.975Y-31.469
X51.054Y-44.958
X51.779Y-21.082
X54.61Y-31.75
X58.166Y-33.274
X58.42Y-8.452
X58.634Y-35.854
X60.706Y-43.18
X60.96Y-9.906
X67.31Y-45.72
X68.072Y-28.702
X68.58Y-10.668
X69.342Y-37.592
X78.232Y-46.496
X82.55Y-16.002
X82.804Y-32.512
X84.074Y-56.896
X84.328Y-36.068
X87.628Y-36.324
X90.471Y-44.116
X92.82Y-19.05
X94.488Y-29.21
X96.266Y-28.194
X97.028Y-42.926
X97.028Y-45.974
X97.79Y-30.734
X98.806Y-44.704
X99.568Y-25.4
X100.076Y-69.088
X100.584Y-16.336
X100.838Y-41.91
X102.362Y-40.132
X102.87Y-5.334
X108.204Y-26.162
X110.455Y-18.114
X110.49Y-15.748
X110.49Y-28.194
X113.03Y-5.334
X114.808Y-24.05
X121.158Y-19.304
X123.19Y-16.002
X125.73Y-5.334
X129.794Y-18.542
X133.096Y-15.748
X133.35Y-69.088
X135.89Y-5.334
T2
X97.536Y-33.528
X99.314Y-37.338
X107.696Y-33.528
X109.474Y-37.338
X113.03Y-27.178
X113.03Y-37.178
X116.84Y-26.924
X116.84Y-37.084
X120.65Y-24.21
X120.65Y-34.21
X124.714Y-24.13
X124.714Y-34.29
X129.478Y-23.114
X129.478Y-31.369
X129.605Y-39.116
X131.978Y-23.114
X131.978Y-31.369
X132.105Y-39.116
T4
X5.75Y-48.75
X5.75Y-53.25
X5.75Y-60.75
X5.75Y-65.25
X5.75Y-72.75
X5.75Y-77.25
X5.75Y-84.75
X5.75Y-89.25
X8.37Y-25.23
X8.37Y-27.77
X10.91Y-25.23
X10.91Y-27.77
X12.25Y-48.75
X12.25Y-53.25
X12.25Y-60.75
X12.25Y-65.25
X12.25Y-72.75
X12.25Y-77.25
X12.25Y-84.75
X12.25Y-89.25
X13.45Y-25.23
X13.45Y-27.77
X15.99Y-25.23
X15.99Y-27.77
X16.75Y-48.75
X16.75Y-53.25
X17.75Y-84.75
X17.75Y-89.25
X18.53Y-25.23
X18.53Y-27.77
X18.75Y-60.75
X18.75Y-65.25
X20.75Y-72.75
X20.75Y-77.25
X21.07Y-25.23
X21.07Y-27.77
X23.25Y-48.75
X23.25Y-53.25
X23.61Y-25.23
X23.61Y-27.77
X24.25Y-84.75
X24.25Y-89.25
X25.25Y-60.75
X25.25Y-65.25
X26.15Y-25.23
X26.15Y-27.77
X27.25Y-72.75
X27.25Y-77.25
X27.75Y-48.75
X27.75Y-53.25
X28.69Y-25.23
X28.69Y-27.77
X28.75Y-84.75
X28.75Y-89.25
X29.75Y-60.75
X29.75Y-65.25
X31.23Y-25.23
X31.23Y-27.77
X31.75Y-72.75
X31.75Y-77.25
X33.77Y-25.23
X33.77Y-27.77
X34.25Y-48.75
X34.25Y-53.25
X35.25Y-84.75
X35.25Y-89.25
X36.25Y-60.75
X36.25Y-65.25
X36.31Y-25.23
X36.31Y-27.77
X38.25Y-72.75
X38.25Y-77.25
X38.75Y-48.75
X38.75Y-53.25
X38.85Y-25.23
X38.85Y-27.77
X39.75Y-84.75
X39.75Y-89.25
X40.75Y-60.75
X40.75Y-65.25
X41.39Y-25.23
X41.39Y-27.77
X42.75Y-72.75
X42.75Y-77.25
X43.93Y-25.23
X43.93Y-27.77
X45.25Y-48.75
X45.25Y-53.25
X46.25Y-84.75
X46.25Y-89.25
X46.47Y-25.23
X46.47Y-27.77
X47.25Y-60.75
X47.25Y-65.25
X49.01Y-25.23
X49.01Y-27.77
X49.25Y-72.75
X49.25Y-77.25
X49.75Y-48.75
X49.75Y-53.25
X50.75Y-84.75
X50.75Y-89.25
X51.55Y-25.23
X51.55Y-27.77
X51.75Y-60.75
X51.75Y-65.25
X53.75Y-72.75
X53.75Y-77.25
X54.09Y-25.23
X54.09Y-27.77
X56.25Y-48.75
X56.25Y-53.25
X56.63Y-25.23
X56.63Y-27.77
X57.25Y-84.75
X57.25Y-89.25
X58.25Y-60.75
X58.25Y-65.25
X60.25Y-72.75
X60.25Y-77.25
X60.75Y-48.75
X60.75Y-53.25
X61.75Y-84.75
X61.75Y-89.25
X62.75Y-60.75
X62.75Y-65.25
X64.75Y-72.75
X64.75Y-77.25
X67.25Y-48.75
X67.25Y-53.25
X68.25Y-84.75
X68.25Y-89.25
X69.25Y-60.75
X69.25Y-65.25
X71.25Y-72.75
X71.25Y-77.25
X71.75Y-48.75
X71.75Y-53.25
X72.75Y-84.75
X72.75Y-89.25
X73.75Y-60.75
X73.75Y-65.25
X75.04Y-9.75
X75.04Y-12.29
X75.75Y-72.75
X75.75Y-77.25
X77.58Y-9.75
X77.58Y-12.29
X78.25Y-48.75
X78.25Y-53.25
X79.25Y-84.75
X79.25Y-89.25
X80.12Y-9.75
X80.12Y-12.29
X80.25Y-60.75
X80.25Y-65.25
X82.25Y-72.75
X82.25Y-77.25
X82.66Y-9.75
X82.66Y-12.29
X82.75Y-48.75
X82.75Y-53.25
X83.75Y-84.75
X83.75Y-89.25
X84.75Y-60.75
X84.75Y-65.25
X85.2Y-9.75
X85.2Y-12.29
X86.75Y-72.75
X86.75Y-77.25
X87.74Y-9.75
X87.74Y-12.29
X89.25Y-48.75
X89.25Y-53.25
X90.25Y-84.75
X90.25Y-89.25
X90.28Y-9.75
X90.28Y-12.29
X91.25Y-60.75
X91.25Y-65.25
X92.82Y-9.75
X92.82Y-12.29
X93.25Y-72.75
X93.25Y-77.25
X93.75Y-48.75
X93.75Y-53.25
X94.75Y-84.75
X94.75Y-89.25
X95.36Y-9.75
X95.36Y-12.29
X95.75Y-60.75
X95.75Y-65.25
X97.75Y-72.75
X97.75Y-77.25
X97.9Y-9.75
X97.9Y-12.29
X100.25Y-48.75
X100.25Y-53.25
X100.44Y-9.75
X100.44Y-12.29
X101.25Y-84.75
X101.25Y-89.25
X102.25Y-60.75
X102.25Y-65.25
X102.98Y-9.75
X102.98Y-12.29
X104.25Y-72.75
X104.25Y-77.25
X104.75Y-48.75
X104.75Y-53.25
X105.52Y-9.75
X105.52Y-12.29
X106.75Y-60.75
X106.75Y-65.25
X107.75Y-84.75
X107.75Y-89.25
X108.06Y-9.75
X108.06Y-12.29
X108.75Y-72.75
X108.75Y-77.25
X110.6Y-9.75
X110.6Y-12.29
X111.25Y-48.75
X111.25Y-53.25
X113.14Y-9.75
X113.14Y-12.29
X113.25Y-60.75
X113.25Y-65.25
X114.25Y-84.75
X114.25Y-89.25
X115.25Y-72.75
X115.25Y-77.25
X115.68Y-9.75
X115.68Y-12.29
X115.75Y-48.75
X115.75Y-53.25
X117.75Y-60.75
X117.75Y-65.25
X118.22Y-9.75
X118.22Y-12.29
X120.76Y-9.75
X120.76Y-12.29
X122.25Y-48.75
X122.25Y-53.25
X122.75Y-72.75
X122.75Y-77.25
X122.75Y-84.75
X122.75Y-89.25
X123.3Y-9.75
X123.3Y-12.29
X124.25Y-60.75
X124.25Y-65.25
X125.84Y-9.75
X125.84Y-12.29
X126.75Y-48.75
X126.75Y-53.25
X128.38Y-9.75
X128.38Y-12.29
X129.25Y-72.75
X129.25Y-77.25
X129.25Y-84.75
X129.25Y-89.25
X130.92Y-9.75
X130.92Y-12.29
X133.25Y-48.75
X133.25Y-53.25
X133.46Y-9.75
X133.46Y-12.29
X136.0Y-9.75
X136.0Y-12.29
X137.75Y-48.75
X137.75Y-53.25
X137.75Y-60.75
X137.75Y-65.25
X137.75Y-72.75
X137.75Y-77.25
X137.75Y-84.75
X137.75Y-89.25
X144.25Y-48.75
X144.25Y-53.25
X144.25Y-60.75
X144.25Y-65.25
X144.25Y-72.75
X144.25Y-77.25
X144.25Y-84.75
X144.25Y-89.25
T3
G00X136.9Y-20.2
M15
G01X136.9Y-21.4
M16
G05
G00X140.3Y-30.0
M15
G01X139.1Y-30.0
M16
G05
G00X142.0Y-27.5
M15
G01X140.8Y-27.5
M16
G05
G00X145.1Y-20.5
M15
G01X143.9Y-20.5
M16
G05
G00X148.0Y-25.6
M15
G01X148.0Y-24.4
M16
G05
M30
