%TF.GenerationSoftware,KiCad,Pcbnew,9.0.7*%
%TF.CreationDate,2026-03-17T17:23:27+01:00*%
%TF.ProjectId,ZeroPC,5a65726f-5043-42e6-9b69-6361645f7063,rev?*%
%TF.SameCoordinates,Original*%
%TF.FileFunction,AssemblyDrawing,Top*%
%FSLAX46Y46*%
G04 Gerber Fmt 4.6, Leading zero omitted, Abs format (unit mm)*
G04 Created by KiCad (PCBNEW 9.0.7) date 2026-03-17 17:23:27*
%MOMM*%
%LPD*%
G01*
G04 APERTURE LIST*
%ADD10C,0.150000*%
%ADD11C,0.114000*%
%ADD12C,0.100000*%
G04 APERTURE END LIST*
D10*
X107809524Y-56204819D02*
X108000000Y-56204819D01*
X108000000Y-56204819D02*
X108095238Y-56157200D01*
X108095238Y-56157200D02*
X108142857Y-56109580D01*
X108142857Y-56109580D02*
X108238095Y-55966723D01*
X108238095Y-55966723D02*
X108285714Y-55776247D01*
X108285714Y-55776247D02*
X108285714Y-55395295D01*
X108285714Y-55395295D02*
X108238095Y-55300057D01*
X108238095Y-55300057D02*
X108190476Y-55252438D01*
X108190476Y-55252438D02*
X108095238Y-55204819D01*
X108095238Y-55204819D02*
X107904762Y-55204819D01*
X107904762Y-55204819D02*
X107809524Y-55252438D01*
X107809524Y-55252438D02*
X107761905Y-55300057D01*
X107761905Y-55300057D02*
X107714286Y-55395295D01*
X107714286Y-55395295D02*
X107714286Y-55633390D01*
X107714286Y-55633390D02*
X107761905Y-55728628D01*
X107761905Y-55728628D02*
X107809524Y-55776247D01*
X107809524Y-55776247D02*
X107904762Y-55823866D01*
X107904762Y-55823866D02*
X108095238Y-55823866D01*
X108095238Y-55823866D02*
X108190476Y-55776247D01*
X108190476Y-55776247D02*
X108238095Y-55728628D01*
X108238095Y-55728628D02*
X108285714Y-55633390D01*
X106190476Y-46657200D02*
X106333333Y-46704819D01*
X106333333Y-46704819D02*
X106571428Y-46704819D01*
X106571428Y-46704819D02*
X106666666Y-46657200D01*
X106666666Y-46657200D02*
X106714285Y-46609580D01*
X106714285Y-46609580D02*
X106761904Y-46514342D01*
X106761904Y-46514342D02*
X106761904Y-46419104D01*
X106761904Y-46419104D02*
X106714285Y-46323866D01*
X106714285Y-46323866D02*
X106666666Y-46276247D01*
X106666666Y-46276247D02*
X106571428Y-46228628D01*
X106571428Y-46228628D02*
X106380952Y-46181009D01*
X106380952Y-46181009D02*
X106285714Y-46133390D01*
X106285714Y-46133390D02*
X106238095Y-46085771D01*
X106238095Y-46085771D02*
X106190476Y-45990533D01*
X106190476Y-45990533D02*
X106190476Y-45895295D01*
X106190476Y-45895295D02*
X106238095Y-45800057D01*
X106238095Y-45800057D02*
X106285714Y-45752438D01*
X106285714Y-45752438D02*
X106380952Y-45704819D01*
X106380952Y-45704819D02*
X106619047Y-45704819D01*
X106619047Y-45704819D02*
X106761904Y-45752438D01*
X107095238Y-45704819D02*
X107333333Y-46704819D01*
X107333333Y-46704819D02*
X107523809Y-45990533D01*
X107523809Y-45990533D02*
X107714285Y-46704819D01*
X107714285Y-46704819D02*
X107952381Y-45704819D01*
X108857142Y-46704819D02*
X108285714Y-46704819D01*
X108571428Y-46704819D02*
X108571428Y-45704819D01*
X108571428Y-45704819D02*
X108476190Y-45847676D01*
X108476190Y-45847676D02*
X108380952Y-45942914D01*
X108380952Y-45942914D02*
X108285714Y-45990533D01*
X109476190Y-45704819D02*
X109571428Y-45704819D01*
X109571428Y-45704819D02*
X109666666Y-45752438D01*
X109666666Y-45752438D02*
X109714285Y-45800057D01*
X109714285Y-45800057D02*
X109761904Y-45895295D01*
X109761904Y-45895295D02*
X109809523Y-46085771D01*
X109809523Y-46085771D02*
X109809523Y-46323866D01*
X109809523Y-46323866D02*
X109761904Y-46514342D01*
X109761904Y-46514342D02*
X109714285Y-46609580D01*
X109714285Y-46609580D02*
X109666666Y-46657200D01*
X109666666Y-46657200D02*
X109571428Y-46704819D01*
X109571428Y-46704819D02*
X109476190Y-46704819D01*
X109476190Y-46704819D02*
X109380952Y-46657200D01*
X109380952Y-46657200D02*
X109333333Y-46609580D01*
X109333333Y-46609580D02*
X109285714Y-46514342D01*
X109285714Y-46514342D02*
X109238095Y-46323866D01*
X109238095Y-46323866D02*
X109238095Y-46085771D01*
X109238095Y-46085771D02*
X109285714Y-45895295D01*
X109285714Y-45895295D02*
X109333333Y-45800057D01*
X109333333Y-45800057D02*
X109380952Y-45752438D01*
X109380952Y-45752438D02*
X109476190Y-45704819D01*
X123809524Y-92204819D02*
X123809524Y-91204819D01*
X123809524Y-91204819D02*
X124047619Y-91204819D01*
X124047619Y-91204819D02*
X124190476Y-91252438D01*
X124190476Y-91252438D02*
X124285714Y-91347676D01*
X124285714Y-91347676D02*
X124333333Y-91442914D01*
X124333333Y-91442914D02*
X124380952Y-91633390D01*
X124380952Y-91633390D02*
X124380952Y-91776247D01*
X124380952Y-91776247D02*
X124333333Y-91966723D01*
X124333333Y-91966723D02*
X124285714Y-92061961D01*
X124285714Y-92061961D02*
X124190476Y-92157200D01*
X124190476Y-92157200D02*
X124047619Y-92204819D01*
X124047619Y-92204819D02*
X123809524Y-92204819D01*
X124952381Y-92204819D02*
X124857143Y-92157200D01*
X124857143Y-92157200D02*
X124809524Y-92109580D01*
X124809524Y-92109580D02*
X124761905Y-92014342D01*
X124761905Y-92014342D02*
X124761905Y-91728628D01*
X124761905Y-91728628D02*
X124809524Y-91633390D01*
X124809524Y-91633390D02*
X124857143Y-91585771D01*
X124857143Y-91585771D02*
X124952381Y-91538152D01*
X124952381Y-91538152D02*
X125095238Y-91538152D01*
X125095238Y-91538152D02*
X125190476Y-91585771D01*
X125190476Y-91585771D02*
X125238095Y-91633390D01*
X125238095Y-91633390D02*
X125285714Y-91728628D01*
X125285714Y-91728628D02*
X125285714Y-92014342D01*
X125285714Y-92014342D02*
X125238095Y-92109580D01*
X125238095Y-92109580D02*
X125190476Y-92157200D01*
X125190476Y-92157200D02*
X125095238Y-92204819D01*
X125095238Y-92204819D02*
X124952381Y-92204819D01*
X125619048Y-91538152D02*
X125809524Y-92204819D01*
X125809524Y-92204819D02*
X126000000Y-91728628D01*
X126000000Y-91728628D02*
X126190476Y-92204819D01*
X126190476Y-92204819D02*
X126380952Y-91538152D01*
X126761905Y-91538152D02*
X126761905Y-92204819D01*
X126761905Y-91633390D02*
X126809524Y-91585771D01*
X126809524Y-91585771D02*
X126904762Y-91538152D01*
X126904762Y-91538152D02*
X127047619Y-91538152D01*
X127047619Y-91538152D02*
X127142857Y-91585771D01*
X127142857Y-91585771D02*
X127190476Y-91681009D01*
X127190476Y-91681009D02*
X127190476Y-92204819D01*
X124190476Y-82657200D02*
X124333333Y-82704819D01*
X124333333Y-82704819D02*
X124571428Y-82704819D01*
X124571428Y-82704819D02*
X124666666Y-82657200D01*
X124666666Y-82657200D02*
X124714285Y-82609580D01*
X124714285Y-82609580D02*
X124761904Y-82514342D01*
X124761904Y-82514342D02*
X124761904Y-82419104D01*
X124761904Y-82419104D02*
X124714285Y-82323866D01*
X124714285Y-82323866D02*
X124666666Y-82276247D01*
X124666666Y-82276247D02*
X124571428Y-82228628D01*
X124571428Y-82228628D02*
X124380952Y-82181009D01*
X124380952Y-82181009D02*
X124285714Y-82133390D01*
X124285714Y-82133390D02*
X124238095Y-82085771D01*
X124238095Y-82085771D02*
X124190476Y-81990533D01*
X124190476Y-81990533D02*
X124190476Y-81895295D01*
X124190476Y-81895295D02*
X124238095Y-81800057D01*
X124238095Y-81800057D02*
X124285714Y-81752438D01*
X124285714Y-81752438D02*
X124380952Y-81704819D01*
X124380952Y-81704819D02*
X124619047Y-81704819D01*
X124619047Y-81704819D02*
X124761904Y-81752438D01*
X125095238Y-81704819D02*
X125333333Y-82704819D01*
X125333333Y-82704819D02*
X125523809Y-81990533D01*
X125523809Y-81990533D02*
X125714285Y-82704819D01*
X125714285Y-82704819D02*
X125952381Y-81704819D01*
X126761904Y-82038152D02*
X126761904Y-82704819D01*
X126523809Y-81657200D02*
X126285714Y-82371485D01*
X126285714Y-82371485D02*
X126904761Y-82371485D01*
X127428571Y-82133390D02*
X127333333Y-82085771D01*
X127333333Y-82085771D02*
X127285714Y-82038152D01*
X127285714Y-82038152D02*
X127238095Y-81942914D01*
X127238095Y-81942914D02*
X127238095Y-81895295D01*
X127238095Y-81895295D02*
X127285714Y-81800057D01*
X127285714Y-81800057D02*
X127333333Y-81752438D01*
X127333333Y-81752438D02*
X127428571Y-81704819D01*
X127428571Y-81704819D02*
X127619047Y-81704819D01*
X127619047Y-81704819D02*
X127714285Y-81752438D01*
X127714285Y-81752438D02*
X127761904Y-81800057D01*
X127761904Y-81800057D02*
X127809523Y-81895295D01*
X127809523Y-81895295D02*
X127809523Y-81942914D01*
X127809523Y-81942914D02*
X127761904Y-82038152D01*
X127761904Y-82038152D02*
X127714285Y-82085771D01*
X127714285Y-82085771D02*
X127619047Y-82133390D01*
X127619047Y-82133390D02*
X127428571Y-82133390D01*
X127428571Y-82133390D02*
X127333333Y-82181009D01*
X127333333Y-82181009D02*
X127285714Y-82228628D01*
X127285714Y-82228628D02*
X127238095Y-82323866D01*
X127238095Y-82323866D02*
X127238095Y-82514342D01*
X127238095Y-82514342D02*
X127285714Y-82609580D01*
X127285714Y-82609580D02*
X127333333Y-82657200D01*
X127333333Y-82657200D02*
X127428571Y-82704819D01*
X127428571Y-82704819D02*
X127619047Y-82704819D01*
X127619047Y-82704819D02*
X127714285Y-82657200D01*
X127714285Y-82657200D02*
X127761904Y-82609580D01*
X127761904Y-82609580D02*
X127809523Y-82514342D01*
X127809523Y-82514342D02*
X127809523Y-82323866D01*
X127809523Y-82323866D02*
X127761904Y-82228628D01*
X127761904Y-82228628D02*
X127714285Y-82181009D01*
X127714285Y-82181009D02*
X127619047Y-82133390D01*
X138628571Y-7043009D02*
X138961904Y-7043009D01*
X139104761Y-7566819D02*
X138628571Y-7566819D01*
X138628571Y-7566819D02*
X138628571Y-6566819D01*
X138628571Y-6566819D02*
X139104761Y-6566819D01*
X139438095Y-6566819D02*
X140104761Y-7566819D01*
X140104761Y-6566819D02*
X139438095Y-7566819D01*
X140342857Y-6566819D02*
X140914285Y-6566819D01*
X140628571Y-7566819D02*
X140628571Y-6566819D01*
X139112666Y-3518819D02*
X139112666Y-4233104D01*
X139112666Y-4233104D02*
X139065047Y-4375961D01*
X139065047Y-4375961D02*
X138969809Y-4471200D01*
X138969809Y-4471200D02*
X138826952Y-4518819D01*
X138826952Y-4518819D02*
X138731714Y-4518819D01*
X140112666Y-4518819D02*
X139541238Y-4518819D01*
X139826952Y-4518819D02*
X139826952Y-3518819D01*
X139826952Y-3518819D02*
X139731714Y-3661676D01*
X139731714Y-3661676D02*
X139636476Y-3756914D01*
X139636476Y-3756914D02*
X139541238Y-3804533D01*
X112387142Y-39744819D02*
X111815714Y-39744819D01*
X112101428Y-39744819D02*
X112101428Y-38744819D01*
X112101428Y-38744819D02*
X112006190Y-38887676D01*
X112006190Y-38887676D02*
X111910952Y-38982914D01*
X111910952Y-38982914D02*
X111815714Y-39030533D01*
X113006190Y-38744819D02*
X113101428Y-38744819D01*
X113101428Y-38744819D02*
X113196666Y-38792438D01*
X113196666Y-38792438D02*
X113244285Y-38840057D01*
X113244285Y-38840057D02*
X113291904Y-38935295D01*
X113291904Y-38935295D02*
X113339523Y-39125771D01*
X113339523Y-39125771D02*
X113339523Y-39363866D01*
X113339523Y-39363866D02*
X113291904Y-39554342D01*
X113291904Y-39554342D02*
X113244285Y-39649580D01*
X113244285Y-39649580D02*
X113196666Y-39697200D01*
X113196666Y-39697200D02*
X113101428Y-39744819D01*
X113101428Y-39744819D02*
X113006190Y-39744819D01*
X113006190Y-39744819D02*
X112910952Y-39697200D01*
X112910952Y-39697200D02*
X112863333Y-39649580D01*
X112863333Y-39649580D02*
X112815714Y-39554342D01*
X112815714Y-39554342D02*
X112768095Y-39363866D01*
X112768095Y-39363866D02*
X112768095Y-39125771D01*
X112768095Y-39125771D02*
X112815714Y-38935295D01*
X112815714Y-38935295D02*
X112863333Y-38840057D01*
X112863333Y-38840057D02*
X112910952Y-38792438D01*
X112910952Y-38792438D02*
X113006190Y-38744819D01*
X113768095Y-39078152D02*
X113768095Y-39744819D01*
X113768095Y-39173390D02*
X113815714Y-39125771D01*
X113815714Y-39125771D02*
X113910952Y-39078152D01*
X113910952Y-39078152D02*
X114053809Y-39078152D01*
X114053809Y-39078152D02*
X114149047Y-39125771D01*
X114149047Y-39125771D02*
X114196666Y-39221009D01*
X114196666Y-39221009D02*
X114196666Y-39744819D01*
D11*
X112863333Y-25427452D02*
X112815714Y-25475072D01*
X112815714Y-25475072D02*
X112672857Y-25522691D01*
X112672857Y-25522691D02*
X112577619Y-25522691D01*
X112577619Y-25522691D02*
X112434762Y-25475072D01*
X112434762Y-25475072D02*
X112339524Y-25379833D01*
X112339524Y-25379833D02*
X112291905Y-25284595D01*
X112291905Y-25284595D02*
X112244286Y-25094119D01*
X112244286Y-25094119D02*
X112244286Y-24951262D01*
X112244286Y-24951262D02*
X112291905Y-24760786D01*
X112291905Y-24760786D02*
X112339524Y-24665548D01*
X112339524Y-24665548D02*
X112434762Y-24570310D01*
X112434762Y-24570310D02*
X112577619Y-24522691D01*
X112577619Y-24522691D02*
X112672857Y-24522691D01*
X112672857Y-24522691D02*
X112815714Y-24570310D01*
X112815714Y-24570310D02*
X112863333Y-24617929D01*
X113196667Y-24522691D02*
X113815714Y-24522691D01*
X113815714Y-24522691D02*
X113482381Y-24903643D01*
X113482381Y-24903643D02*
X113625238Y-24903643D01*
X113625238Y-24903643D02*
X113720476Y-24951262D01*
X113720476Y-24951262D02*
X113768095Y-24998881D01*
X113768095Y-24998881D02*
X113815714Y-25094119D01*
X113815714Y-25094119D02*
X113815714Y-25332214D01*
X113815714Y-25332214D02*
X113768095Y-25427452D01*
X113768095Y-25427452D02*
X113720476Y-25475072D01*
X113720476Y-25475072D02*
X113625238Y-25522691D01*
X113625238Y-25522691D02*
X113339524Y-25522691D01*
X113339524Y-25522691D02*
X113244286Y-25475072D01*
X113244286Y-25475072D02*
X113196667Y-25427452D01*
D10*
X68251904Y-79512438D02*
X68156666Y-79464819D01*
X68156666Y-79464819D02*
X68013809Y-79464819D01*
X68013809Y-79464819D02*
X67870952Y-79512438D01*
X67870952Y-79512438D02*
X67775714Y-79607676D01*
X67775714Y-79607676D02*
X67728095Y-79702914D01*
X67728095Y-79702914D02*
X67680476Y-79893390D01*
X67680476Y-79893390D02*
X67680476Y-80036247D01*
X67680476Y-80036247D02*
X67728095Y-80226723D01*
X67728095Y-80226723D02*
X67775714Y-80321961D01*
X67775714Y-80321961D02*
X67870952Y-80417200D01*
X67870952Y-80417200D02*
X68013809Y-80464819D01*
X68013809Y-80464819D02*
X68109047Y-80464819D01*
X68109047Y-80464819D02*
X68251904Y-80417200D01*
X68251904Y-80417200D02*
X68299523Y-80369580D01*
X68299523Y-80369580D02*
X68299523Y-80036247D01*
X68299523Y-80036247D02*
X68109047Y-80036247D01*
X66440476Y-70657200D02*
X66583333Y-70704819D01*
X66583333Y-70704819D02*
X66821428Y-70704819D01*
X66821428Y-70704819D02*
X66916666Y-70657200D01*
X66916666Y-70657200D02*
X66964285Y-70609580D01*
X66964285Y-70609580D02*
X67011904Y-70514342D01*
X67011904Y-70514342D02*
X67011904Y-70419104D01*
X67011904Y-70419104D02*
X66964285Y-70323866D01*
X66964285Y-70323866D02*
X66916666Y-70276247D01*
X66916666Y-70276247D02*
X66821428Y-70228628D01*
X66821428Y-70228628D02*
X66630952Y-70181009D01*
X66630952Y-70181009D02*
X66535714Y-70133390D01*
X66535714Y-70133390D02*
X66488095Y-70085771D01*
X66488095Y-70085771D02*
X66440476Y-69990533D01*
X66440476Y-69990533D02*
X66440476Y-69895295D01*
X66440476Y-69895295D02*
X66488095Y-69800057D01*
X66488095Y-69800057D02*
X66535714Y-69752438D01*
X66535714Y-69752438D02*
X66630952Y-69704819D01*
X66630952Y-69704819D02*
X66869047Y-69704819D01*
X66869047Y-69704819D02*
X67011904Y-69752438D01*
X67345238Y-69704819D02*
X67583333Y-70704819D01*
X67583333Y-70704819D02*
X67773809Y-69990533D01*
X67773809Y-69990533D02*
X67964285Y-70704819D01*
X67964285Y-70704819D02*
X68202381Y-69704819D01*
X68488095Y-69704819D02*
X69107142Y-69704819D01*
X69107142Y-69704819D02*
X68773809Y-70085771D01*
X68773809Y-70085771D02*
X68916666Y-70085771D01*
X68916666Y-70085771D02*
X69011904Y-70133390D01*
X69011904Y-70133390D02*
X69059523Y-70181009D01*
X69059523Y-70181009D02*
X69107142Y-70276247D01*
X69107142Y-70276247D02*
X69107142Y-70514342D01*
X69107142Y-70514342D02*
X69059523Y-70609580D01*
X69059523Y-70609580D02*
X69011904Y-70657200D01*
X69011904Y-70657200D02*
X68916666Y-70704819D01*
X68916666Y-70704819D02*
X68630952Y-70704819D01*
X68630952Y-70704819D02*
X68535714Y-70657200D01*
X68535714Y-70657200D02*
X68488095Y-70609580D01*
X70059523Y-70704819D02*
X69488095Y-70704819D01*
X69773809Y-70704819D02*
X69773809Y-69704819D01*
X69773809Y-69704819D02*
X69678571Y-69847676D01*
X69678571Y-69847676D02*
X69583333Y-69942914D01*
X69583333Y-69942914D02*
X69488095Y-69990533D01*
X78704286Y-80464819D02*
X78704286Y-79464819D01*
X78704286Y-79941009D02*
X79275714Y-79941009D01*
X79275714Y-80464819D02*
X79275714Y-79464819D01*
X77440476Y-70657200D02*
X77583333Y-70704819D01*
X77583333Y-70704819D02*
X77821428Y-70704819D01*
X77821428Y-70704819D02*
X77916666Y-70657200D01*
X77916666Y-70657200D02*
X77964285Y-70609580D01*
X77964285Y-70609580D02*
X78011904Y-70514342D01*
X78011904Y-70514342D02*
X78011904Y-70419104D01*
X78011904Y-70419104D02*
X77964285Y-70323866D01*
X77964285Y-70323866D02*
X77916666Y-70276247D01*
X77916666Y-70276247D02*
X77821428Y-70228628D01*
X77821428Y-70228628D02*
X77630952Y-70181009D01*
X77630952Y-70181009D02*
X77535714Y-70133390D01*
X77535714Y-70133390D02*
X77488095Y-70085771D01*
X77488095Y-70085771D02*
X77440476Y-69990533D01*
X77440476Y-69990533D02*
X77440476Y-69895295D01*
X77440476Y-69895295D02*
X77488095Y-69800057D01*
X77488095Y-69800057D02*
X77535714Y-69752438D01*
X77535714Y-69752438D02*
X77630952Y-69704819D01*
X77630952Y-69704819D02*
X77869047Y-69704819D01*
X77869047Y-69704819D02*
X78011904Y-69752438D01*
X78345238Y-69704819D02*
X78583333Y-70704819D01*
X78583333Y-70704819D02*
X78773809Y-69990533D01*
X78773809Y-69990533D02*
X78964285Y-70704819D01*
X78964285Y-70704819D02*
X79202381Y-69704819D01*
X79488095Y-69704819D02*
X80107142Y-69704819D01*
X80107142Y-69704819D02*
X79773809Y-70085771D01*
X79773809Y-70085771D02*
X79916666Y-70085771D01*
X79916666Y-70085771D02*
X80011904Y-70133390D01*
X80011904Y-70133390D02*
X80059523Y-70181009D01*
X80059523Y-70181009D02*
X80107142Y-70276247D01*
X80107142Y-70276247D02*
X80107142Y-70514342D01*
X80107142Y-70514342D02*
X80059523Y-70609580D01*
X80059523Y-70609580D02*
X80011904Y-70657200D01*
X80011904Y-70657200D02*
X79916666Y-70704819D01*
X79916666Y-70704819D02*
X79630952Y-70704819D01*
X79630952Y-70704819D02*
X79535714Y-70657200D01*
X79535714Y-70657200D02*
X79488095Y-70609580D01*
X80488095Y-69800057D02*
X80535714Y-69752438D01*
X80535714Y-69752438D02*
X80630952Y-69704819D01*
X80630952Y-69704819D02*
X80869047Y-69704819D01*
X80869047Y-69704819D02*
X80964285Y-69752438D01*
X80964285Y-69752438D02*
X81011904Y-69800057D01*
X81011904Y-69800057D02*
X81059523Y-69895295D01*
X81059523Y-69895295D02*
X81059523Y-69990533D01*
X81059523Y-69990533D02*
X81011904Y-70133390D01*
X81011904Y-70133390D02*
X80440476Y-70704819D01*
X80440476Y-70704819D02*
X81059523Y-70704819D01*
X130212030Y-43320819D02*
X129640602Y-43320819D01*
X129926316Y-43320819D02*
X129926316Y-42320819D01*
X129926316Y-42320819D02*
X129831078Y-42463676D01*
X129831078Y-42463676D02*
X129735840Y-42558914D01*
X129735840Y-42558914D02*
X129640602Y-42606533D01*
X130831078Y-42320819D02*
X130926316Y-42320819D01*
X130926316Y-42320819D02*
X131021554Y-42368438D01*
X131021554Y-42368438D02*
X131069173Y-42416057D01*
X131069173Y-42416057D02*
X131116792Y-42511295D01*
X131116792Y-42511295D02*
X131164411Y-42701771D01*
X131164411Y-42701771D02*
X131164411Y-42939866D01*
X131164411Y-42939866D02*
X131116792Y-43130342D01*
X131116792Y-43130342D02*
X131069173Y-43225580D01*
X131069173Y-43225580D02*
X131021554Y-43273200D01*
X131021554Y-43273200D02*
X130926316Y-43320819D01*
X130926316Y-43320819D02*
X130831078Y-43320819D01*
X130831078Y-43320819D02*
X130735840Y-43273200D01*
X130735840Y-43273200D02*
X130688221Y-43225580D01*
X130688221Y-43225580D02*
X130640602Y-43130342D01*
X130640602Y-43130342D02*
X130592983Y-42939866D01*
X130592983Y-42939866D02*
X130592983Y-42701771D01*
X130592983Y-42701771D02*
X130640602Y-42511295D01*
X130640602Y-42511295D02*
X130688221Y-42416057D01*
X130688221Y-42416057D02*
X130735840Y-42368438D01*
X130735840Y-42368438D02*
X130831078Y-42320819D01*
X132021554Y-42654152D02*
X132021554Y-43320819D01*
X131592983Y-42654152D02*
X131592983Y-43177961D01*
X131592983Y-43177961D02*
X131640602Y-43273200D01*
X131640602Y-43273200D02*
X131735840Y-43320819D01*
X131735840Y-43320819D02*
X131878697Y-43320819D01*
X131878697Y-43320819D02*
X131973935Y-43273200D01*
X131973935Y-43273200D02*
X132021554Y-43225580D01*
X131424333Y-37308580D02*
X131376714Y-37356200D01*
X131376714Y-37356200D02*
X131233857Y-37403819D01*
X131233857Y-37403819D02*
X131138619Y-37403819D01*
X131138619Y-37403819D02*
X130995762Y-37356200D01*
X130995762Y-37356200D02*
X130900524Y-37260961D01*
X130900524Y-37260961D02*
X130852905Y-37165723D01*
X130852905Y-37165723D02*
X130805286Y-36975247D01*
X130805286Y-36975247D02*
X130805286Y-36832390D01*
X130805286Y-36832390D02*
X130852905Y-36641914D01*
X130852905Y-36641914D02*
X130900524Y-36546676D01*
X130900524Y-36546676D02*
X130995762Y-36451438D01*
X130995762Y-36451438D02*
X131138619Y-36403819D01*
X131138619Y-36403819D02*
X131233857Y-36403819D01*
X131233857Y-36403819D02*
X131376714Y-36451438D01*
X131376714Y-36451438D02*
X131424333Y-36499057D01*
X132281476Y-36737152D02*
X132281476Y-37403819D01*
X132043381Y-36356200D02*
X131805286Y-37070485D01*
X131805286Y-37070485D02*
X132424333Y-37070485D01*
X21582855Y-2994819D02*
X21249522Y-2518628D01*
X21011427Y-2994819D02*
X21011427Y-1994819D01*
X21011427Y-1994819D02*
X21392379Y-1994819D01*
X21392379Y-1994819D02*
X21487617Y-2042438D01*
X21487617Y-2042438D02*
X21535236Y-2090057D01*
X21535236Y-2090057D02*
X21582855Y-2185295D01*
X21582855Y-2185295D02*
X21582855Y-2328152D01*
X21582855Y-2328152D02*
X21535236Y-2423390D01*
X21535236Y-2423390D02*
X21487617Y-2471009D01*
X21487617Y-2471009D02*
X21392379Y-2518628D01*
X21392379Y-2518628D02*
X21011427Y-2518628D01*
X22439998Y-2994819D02*
X22439998Y-2471009D01*
X22439998Y-2471009D02*
X22392379Y-2375771D01*
X22392379Y-2375771D02*
X22297141Y-2328152D01*
X22297141Y-2328152D02*
X22106665Y-2328152D01*
X22106665Y-2328152D02*
X22011427Y-2375771D01*
X22439998Y-2947200D02*
X22344760Y-2994819D01*
X22344760Y-2994819D02*
X22106665Y-2994819D01*
X22106665Y-2994819D02*
X22011427Y-2947200D01*
X22011427Y-2947200D02*
X21963808Y-2851961D01*
X21963808Y-2851961D02*
X21963808Y-2756723D01*
X21963808Y-2756723D02*
X22011427Y-2661485D01*
X22011427Y-2661485D02*
X22106665Y-2613866D01*
X22106665Y-2613866D02*
X22344760Y-2613866D01*
X22344760Y-2613866D02*
X22439998Y-2566247D01*
X22868570Y-2947200D02*
X22963808Y-2994819D01*
X22963808Y-2994819D02*
X23154284Y-2994819D01*
X23154284Y-2994819D02*
X23249522Y-2947200D01*
X23249522Y-2947200D02*
X23297141Y-2851961D01*
X23297141Y-2851961D02*
X23297141Y-2804342D01*
X23297141Y-2804342D02*
X23249522Y-2709104D01*
X23249522Y-2709104D02*
X23154284Y-2661485D01*
X23154284Y-2661485D02*
X23011427Y-2661485D01*
X23011427Y-2661485D02*
X22916189Y-2613866D01*
X22916189Y-2613866D02*
X22868570Y-2518628D01*
X22868570Y-2518628D02*
X22868570Y-2471009D01*
X22868570Y-2471009D02*
X22916189Y-2375771D01*
X22916189Y-2375771D02*
X23011427Y-2328152D01*
X23011427Y-2328152D02*
X23154284Y-2328152D01*
X23154284Y-2328152D02*
X23249522Y-2375771D01*
X23725713Y-2328152D02*
X23725713Y-3328152D01*
X23725713Y-2375771D02*
X23820951Y-2328152D01*
X23820951Y-2328152D02*
X24011427Y-2328152D01*
X24011427Y-2328152D02*
X24106665Y-2375771D01*
X24106665Y-2375771D02*
X24154284Y-2423390D01*
X24154284Y-2423390D02*
X24201903Y-2518628D01*
X24201903Y-2518628D02*
X24201903Y-2804342D01*
X24201903Y-2804342D02*
X24154284Y-2899580D01*
X24154284Y-2899580D02*
X24106665Y-2947200D01*
X24106665Y-2947200D02*
X24011427Y-2994819D01*
X24011427Y-2994819D02*
X23820951Y-2994819D01*
X23820951Y-2994819D02*
X23725713Y-2947200D01*
X24630475Y-2994819D02*
X24630475Y-1994819D01*
X24630475Y-2375771D02*
X24725713Y-2328152D01*
X24725713Y-2328152D02*
X24916189Y-2328152D01*
X24916189Y-2328152D02*
X25011427Y-2375771D01*
X25011427Y-2375771D02*
X25059046Y-2423390D01*
X25059046Y-2423390D02*
X25106665Y-2518628D01*
X25106665Y-2518628D02*
X25106665Y-2804342D01*
X25106665Y-2804342D02*
X25059046Y-2899580D01*
X25059046Y-2899580D02*
X25011427Y-2947200D01*
X25011427Y-2947200D02*
X24916189Y-2994819D01*
X24916189Y-2994819D02*
X24725713Y-2994819D01*
X24725713Y-2994819D02*
X24630475Y-2947200D01*
X25916189Y-2947200D02*
X25820951Y-2994819D01*
X25820951Y-2994819D02*
X25630475Y-2994819D01*
X25630475Y-2994819D02*
X25535237Y-2947200D01*
X25535237Y-2947200D02*
X25487618Y-2851961D01*
X25487618Y-2851961D02*
X25487618Y-2471009D01*
X25487618Y-2471009D02*
X25535237Y-2375771D01*
X25535237Y-2375771D02*
X25630475Y-2328152D01*
X25630475Y-2328152D02*
X25820951Y-2328152D01*
X25820951Y-2328152D02*
X25916189Y-2375771D01*
X25916189Y-2375771D02*
X25963808Y-2471009D01*
X25963808Y-2471009D02*
X25963808Y-2566247D01*
X25963808Y-2566247D02*
X25487618Y-2661485D01*
X26392380Y-2994819D02*
X26392380Y-2328152D01*
X26392380Y-2518628D02*
X26439999Y-2423390D01*
X26439999Y-2423390D02*
X26487618Y-2375771D01*
X26487618Y-2375771D02*
X26582856Y-2328152D01*
X26582856Y-2328152D02*
X26678094Y-2328152D01*
X27011428Y-2994819D02*
X27011428Y-2328152D01*
X27011428Y-2518628D02*
X27059047Y-2423390D01*
X27059047Y-2423390D02*
X27106666Y-2375771D01*
X27106666Y-2375771D02*
X27201904Y-2328152D01*
X27201904Y-2328152D02*
X27297142Y-2328152D01*
X27535238Y-2328152D02*
X27773333Y-2994819D01*
X28011428Y-2328152D02*
X27773333Y-2994819D01*
X27773333Y-2994819D02*
X27678095Y-3232914D01*
X27678095Y-3232914D02*
X27630476Y-3280533D01*
X27630476Y-3280533D02*
X27535238Y-3328152D01*
X28154286Y-3090057D02*
X28916190Y-3090057D01*
X29059048Y-1994819D02*
X29725714Y-1994819D01*
X29725714Y-1994819D02*
X29059048Y-2994819D01*
X29059048Y-2994819D02*
X29725714Y-2994819D01*
X30487619Y-2947200D02*
X30392381Y-2994819D01*
X30392381Y-2994819D02*
X30201905Y-2994819D01*
X30201905Y-2994819D02*
X30106667Y-2947200D01*
X30106667Y-2947200D02*
X30059048Y-2851961D01*
X30059048Y-2851961D02*
X30059048Y-2471009D01*
X30059048Y-2471009D02*
X30106667Y-2375771D01*
X30106667Y-2375771D02*
X30201905Y-2328152D01*
X30201905Y-2328152D02*
X30392381Y-2328152D01*
X30392381Y-2328152D02*
X30487619Y-2375771D01*
X30487619Y-2375771D02*
X30535238Y-2471009D01*
X30535238Y-2471009D02*
X30535238Y-2566247D01*
X30535238Y-2566247D02*
X30059048Y-2661485D01*
X30963810Y-2994819D02*
X30963810Y-2328152D01*
X30963810Y-2518628D02*
X31011429Y-2423390D01*
X31011429Y-2423390D02*
X31059048Y-2375771D01*
X31059048Y-2375771D02*
X31154286Y-2328152D01*
X31154286Y-2328152D02*
X31249524Y-2328152D01*
X31725715Y-2994819D02*
X31630477Y-2947200D01*
X31630477Y-2947200D02*
X31582858Y-2899580D01*
X31582858Y-2899580D02*
X31535239Y-2804342D01*
X31535239Y-2804342D02*
X31535239Y-2518628D01*
X31535239Y-2518628D02*
X31582858Y-2423390D01*
X31582858Y-2423390D02*
X31630477Y-2375771D01*
X31630477Y-2375771D02*
X31725715Y-2328152D01*
X31725715Y-2328152D02*
X31868572Y-2328152D01*
X31868572Y-2328152D02*
X31963810Y-2375771D01*
X31963810Y-2375771D02*
X32011429Y-2423390D01*
X32011429Y-2423390D02*
X32059048Y-2518628D01*
X32059048Y-2518628D02*
X32059048Y-2804342D01*
X32059048Y-2804342D02*
X32011429Y-2899580D01*
X32011429Y-2899580D02*
X31963810Y-2947200D01*
X31963810Y-2947200D02*
X31868572Y-2994819D01*
X31868572Y-2994819D02*
X31725715Y-2994819D01*
X32249525Y-3090057D02*
X33011429Y-3090057D01*
X33201906Y-2090057D02*
X33249525Y-2042438D01*
X33249525Y-2042438D02*
X33344763Y-1994819D01*
X33344763Y-1994819D02*
X33582858Y-1994819D01*
X33582858Y-1994819D02*
X33678096Y-2042438D01*
X33678096Y-2042438D02*
X33725715Y-2090057D01*
X33725715Y-2090057D02*
X33773334Y-2185295D01*
X33773334Y-2185295D02*
X33773334Y-2280533D01*
X33773334Y-2280533D02*
X33725715Y-2423390D01*
X33725715Y-2423390D02*
X33154287Y-2994819D01*
X33154287Y-2994819D02*
X33773334Y-2994819D01*
X34106668Y-1994819D02*
X34344763Y-2994819D01*
X34344763Y-2994819D02*
X34535239Y-2280533D01*
X34535239Y-2280533D02*
X34725715Y-2994819D01*
X34725715Y-2994819D02*
X34963811Y-1994819D01*
X26709810Y-10106819D02*
X26709810Y-9106819D01*
X27757428Y-10011580D02*
X27709809Y-10059200D01*
X27709809Y-10059200D02*
X27566952Y-10106819D01*
X27566952Y-10106819D02*
X27471714Y-10106819D01*
X27471714Y-10106819D02*
X27328857Y-10059200D01*
X27328857Y-10059200D02*
X27233619Y-9963961D01*
X27233619Y-9963961D02*
X27186000Y-9868723D01*
X27186000Y-9868723D02*
X27138381Y-9678247D01*
X27138381Y-9678247D02*
X27138381Y-9535390D01*
X27138381Y-9535390D02*
X27186000Y-9344914D01*
X27186000Y-9344914D02*
X27233619Y-9249676D01*
X27233619Y-9249676D02*
X27328857Y-9154438D01*
X27328857Y-9154438D02*
X27471714Y-9106819D01*
X27471714Y-9106819D02*
X27566952Y-9106819D01*
X27566952Y-9106819D02*
X27709809Y-9154438D01*
X27709809Y-9154438D02*
X27757428Y-9202057D01*
X28709809Y-10106819D02*
X28138381Y-10106819D01*
X28424095Y-10106819D02*
X28424095Y-9106819D01*
X28424095Y-9106819D02*
X28328857Y-9249676D01*
X28328857Y-9249676D02*
X28233619Y-9344914D01*
X28233619Y-9344914D02*
X28138381Y-9392533D01*
X97166667Y-92204819D02*
X97166667Y-91204819D01*
X97166667Y-91204819D02*
X97500000Y-91919104D01*
X97500000Y-91919104D02*
X97833333Y-91204819D01*
X97833333Y-91204819D02*
X97833333Y-92204819D01*
X96190476Y-82657200D02*
X96333333Y-82704819D01*
X96333333Y-82704819D02*
X96571428Y-82704819D01*
X96571428Y-82704819D02*
X96666666Y-82657200D01*
X96666666Y-82657200D02*
X96714285Y-82609580D01*
X96714285Y-82609580D02*
X96761904Y-82514342D01*
X96761904Y-82514342D02*
X96761904Y-82419104D01*
X96761904Y-82419104D02*
X96714285Y-82323866D01*
X96714285Y-82323866D02*
X96666666Y-82276247D01*
X96666666Y-82276247D02*
X96571428Y-82228628D01*
X96571428Y-82228628D02*
X96380952Y-82181009D01*
X96380952Y-82181009D02*
X96285714Y-82133390D01*
X96285714Y-82133390D02*
X96238095Y-82085771D01*
X96238095Y-82085771D02*
X96190476Y-81990533D01*
X96190476Y-81990533D02*
X96190476Y-81895295D01*
X96190476Y-81895295D02*
X96238095Y-81800057D01*
X96238095Y-81800057D02*
X96285714Y-81752438D01*
X96285714Y-81752438D02*
X96380952Y-81704819D01*
X96380952Y-81704819D02*
X96619047Y-81704819D01*
X96619047Y-81704819D02*
X96761904Y-81752438D01*
X97095238Y-81704819D02*
X97333333Y-82704819D01*
X97333333Y-82704819D02*
X97523809Y-81990533D01*
X97523809Y-81990533D02*
X97714285Y-82704819D01*
X97714285Y-82704819D02*
X97952381Y-81704819D01*
X98761904Y-82038152D02*
X98761904Y-82704819D01*
X98523809Y-81657200D02*
X98285714Y-82371485D01*
X98285714Y-82371485D02*
X98904761Y-82371485D01*
X99714285Y-81704819D02*
X99523809Y-81704819D01*
X99523809Y-81704819D02*
X99428571Y-81752438D01*
X99428571Y-81752438D02*
X99380952Y-81800057D01*
X99380952Y-81800057D02*
X99285714Y-81942914D01*
X99285714Y-81942914D02*
X99238095Y-82133390D01*
X99238095Y-82133390D02*
X99238095Y-82514342D01*
X99238095Y-82514342D02*
X99285714Y-82609580D01*
X99285714Y-82609580D02*
X99333333Y-82657200D01*
X99333333Y-82657200D02*
X99428571Y-82704819D01*
X99428571Y-82704819D02*
X99619047Y-82704819D01*
X99619047Y-82704819D02*
X99714285Y-82657200D01*
X99714285Y-82657200D02*
X99761904Y-82609580D01*
X99761904Y-82609580D02*
X99809523Y-82514342D01*
X99809523Y-82514342D02*
X99809523Y-82276247D01*
X99809523Y-82276247D02*
X99761904Y-82181009D01*
X99761904Y-82181009D02*
X99714285Y-82133390D01*
X99714285Y-82133390D02*
X99619047Y-82085771D01*
X99619047Y-82085771D02*
X99428571Y-82085771D01*
X99428571Y-82085771D02*
X99333333Y-82133390D01*
X99333333Y-82133390D02*
X99285714Y-82181009D01*
X99285714Y-82181009D02*
X99238095Y-82276247D01*
X34704286Y-80417200D02*
X34847143Y-80464819D01*
X34847143Y-80464819D02*
X35085238Y-80464819D01*
X35085238Y-80464819D02*
X35180476Y-80417200D01*
X35180476Y-80417200D02*
X35228095Y-80369580D01*
X35228095Y-80369580D02*
X35275714Y-80274342D01*
X35275714Y-80274342D02*
X35275714Y-80179104D01*
X35275714Y-80179104D02*
X35228095Y-80083866D01*
X35228095Y-80083866D02*
X35180476Y-80036247D01*
X35180476Y-80036247D02*
X35085238Y-79988628D01*
X35085238Y-79988628D02*
X34894762Y-79941009D01*
X34894762Y-79941009D02*
X34799524Y-79893390D01*
X34799524Y-79893390D02*
X34751905Y-79845771D01*
X34751905Y-79845771D02*
X34704286Y-79750533D01*
X34704286Y-79750533D02*
X34704286Y-79655295D01*
X34704286Y-79655295D02*
X34751905Y-79560057D01*
X34751905Y-79560057D02*
X34799524Y-79512438D01*
X34799524Y-79512438D02*
X34894762Y-79464819D01*
X34894762Y-79464819D02*
X35132857Y-79464819D01*
X35132857Y-79464819D02*
X35275714Y-79512438D01*
X33440476Y-70657200D02*
X33583333Y-70704819D01*
X33583333Y-70704819D02*
X33821428Y-70704819D01*
X33821428Y-70704819D02*
X33916666Y-70657200D01*
X33916666Y-70657200D02*
X33964285Y-70609580D01*
X33964285Y-70609580D02*
X34011904Y-70514342D01*
X34011904Y-70514342D02*
X34011904Y-70419104D01*
X34011904Y-70419104D02*
X33964285Y-70323866D01*
X33964285Y-70323866D02*
X33916666Y-70276247D01*
X33916666Y-70276247D02*
X33821428Y-70228628D01*
X33821428Y-70228628D02*
X33630952Y-70181009D01*
X33630952Y-70181009D02*
X33535714Y-70133390D01*
X33535714Y-70133390D02*
X33488095Y-70085771D01*
X33488095Y-70085771D02*
X33440476Y-69990533D01*
X33440476Y-69990533D02*
X33440476Y-69895295D01*
X33440476Y-69895295D02*
X33488095Y-69800057D01*
X33488095Y-69800057D02*
X33535714Y-69752438D01*
X33535714Y-69752438D02*
X33630952Y-69704819D01*
X33630952Y-69704819D02*
X33869047Y-69704819D01*
X33869047Y-69704819D02*
X34011904Y-69752438D01*
X34345238Y-69704819D02*
X34583333Y-70704819D01*
X34583333Y-70704819D02*
X34773809Y-69990533D01*
X34773809Y-69990533D02*
X34964285Y-70704819D01*
X34964285Y-70704819D02*
X35202381Y-69704819D01*
X35535714Y-69800057D02*
X35583333Y-69752438D01*
X35583333Y-69752438D02*
X35678571Y-69704819D01*
X35678571Y-69704819D02*
X35916666Y-69704819D01*
X35916666Y-69704819D02*
X36011904Y-69752438D01*
X36011904Y-69752438D02*
X36059523Y-69800057D01*
X36059523Y-69800057D02*
X36107142Y-69895295D01*
X36107142Y-69895295D02*
X36107142Y-69990533D01*
X36107142Y-69990533D02*
X36059523Y-70133390D01*
X36059523Y-70133390D02*
X35488095Y-70704819D01*
X35488095Y-70704819D02*
X36107142Y-70704819D01*
X36678571Y-70133390D02*
X36583333Y-70085771D01*
X36583333Y-70085771D02*
X36535714Y-70038152D01*
X36535714Y-70038152D02*
X36488095Y-69942914D01*
X36488095Y-69942914D02*
X36488095Y-69895295D01*
X36488095Y-69895295D02*
X36535714Y-69800057D01*
X36535714Y-69800057D02*
X36583333Y-69752438D01*
X36583333Y-69752438D02*
X36678571Y-69704819D01*
X36678571Y-69704819D02*
X36869047Y-69704819D01*
X36869047Y-69704819D02*
X36964285Y-69752438D01*
X36964285Y-69752438D02*
X37011904Y-69800057D01*
X37011904Y-69800057D02*
X37059523Y-69895295D01*
X37059523Y-69895295D02*
X37059523Y-69942914D01*
X37059523Y-69942914D02*
X37011904Y-70038152D01*
X37011904Y-70038152D02*
X36964285Y-70085771D01*
X36964285Y-70085771D02*
X36869047Y-70133390D01*
X36869047Y-70133390D02*
X36678571Y-70133390D01*
X36678571Y-70133390D02*
X36583333Y-70181009D01*
X36583333Y-70181009D02*
X36535714Y-70228628D01*
X36535714Y-70228628D02*
X36488095Y-70323866D01*
X36488095Y-70323866D02*
X36488095Y-70514342D01*
X36488095Y-70514342D02*
X36535714Y-70609580D01*
X36535714Y-70609580D02*
X36583333Y-70657200D01*
X36583333Y-70657200D02*
X36678571Y-70704819D01*
X36678571Y-70704819D02*
X36869047Y-70704819D01*
X36869047Y-70704819D02*
X36964285Y-70657200D01*
X36964285Y-70657200D02*
X37011904Y-70609580D01*
X37011904Y-70609580D02*
X37059523Y-70514342D01*
X37059523Y-70514342D02*
X37059523Y-70323866D01*
X37059523Y-70323866D02*
X37011904Y-70228628D01*
X37011904Y-70228628D02*
X36964285Y-70181009D01*
X36964285Y-70181009D02*
X36869047Y-70133390D01*
X7442381Y-80417200D02*
X7585238Y-80464819D01*
X7585238Y-80464819D02*
X7823333Y-80464819D01*
X7823333Y-80464819D02*
X7918571Y-80417200D01*
X7918571Y-80417200D02*
X7966190Y-80369580D01*
X7966190Y-80369580D02*
X8013809Y-80274342D01*
X8013809Y-80274342D02*
X8013809Y-80179104D01*
X8013809Y-80179104D02*
X7966190Y-80083866D01*
X7966190Y-80083866D02*
X7918571Y-80036247D01*
X7918571Y-80036247D02*
X7823333Y-79988628D01*
X7823333Y-79988628D02*
X7632857Y-79941009D01*
X7632857Y-79941009D02*
X7537619Y-79893390D01*
X7537619Y-79893390D02*
X7490000Y-79845771D01*
X7490000Y-79845771D02*
X7442381Y-79750533D01*
X7442381Y-79750533D02*
X7442381Y-79655295D01*
X7442381Y-79655295D02*
X7490000Y-79560057D01*
X7490000Y-79560057D02*
X7537619Y-79512438D01*
X7537619Y-79512438D02*
X7632857Y-79464819D01*
X7632857Y-79464819D02*
X7870952Y-79464819D01*
X7870952Y-79464819D02*
X8013809Y-79512438D01*
X8442381Y-80464819D02*
X8442381Y-79464819D01*
X8870952Y-80464819D02*
X8870952Y-79941009D01*
X8870952Y-79941009D02*
X8823333Y-79845771D01*
X8823333Y-79845771D02*
X8728095Y-79798152D01*
X8728095Y-79798152D02*
X8585238Y-79798152D01*
X8585238Y-79798152D02*
X8490000Y-79845771D01*
X8490000Y-79845771D02*
X8442381Y-79893390D01*
X9347143Y-80464819D02*
X9347143Y-79798152D01*
X9347143Y-79464819D02*
X9299524Y-79512438D01*
X9299524Y-79512438D02*
X9347143Y-79560057D01*
X9347143Y-79560057D02*
X9394762Y-79512438D01*
X9394762Y-79512438D02*
X9347143Y-79464819D01*
X9347143Y-79464819D02*
X9347143Y-79560057D01*
X9680476Y-79798152D02*
X10061428Y-79798152D01*
X9823333Y-80464819D02*
X9823333Y-79607676D01*
X9823333Y-79607676D02*
X9870952Y-79512438D01*
X9870952Y-79512438D02*
X9966190Y-79464819D01*
X9966190Y-79464819D02*
X10061428Y-79464819D01*
X10251905Y-79798152D02*
X10632857Y-79798152D01*
X10394762Y-79464819D02*
X10394762Y-80321961D01*
X10394762Y-80321961D02*
X10442381Y-80417200D01*
X10442381Y-80417200D02*
X10537619Y-80464819D01*
X10537619Y-80464819D02*
X10632857Y-80464819D01*
X7440476Y-70657200D02*
X7583333Y-70704819D01*
X7583333Y-70704819D02*
X7821428Y-70704819D01*
X7821428Y-70704819D02*
X7916666Y-70657200D01*
X7916666Y-70657200D02*
X7964285Y-70609580D01*
X7964285Y-70609580D02*
X8011904Y-70514342D01*
X8011904Y-70514342D02*
X8011904Y-70419104D01*
X8011904Y-70419104D02*
X7964285Y-70323866D01*
X7964285Y-70323866D02*
X7916666Y-70276247D01*
X7916666Y-70276247D02*
X7821428Y-70228628D01*
X7821428Y-70228628D02*
X7630952Y-70181009D01*
X7630952Y-70181009D02*
X7535714Y-70133390D01*
X7535714Y-70133390D02*
X7488095Y-70085771D01*
X7488095Y-70085771D02*
X7440476Y-69990533D01*
X7440476Y-69990533D02*
X7440476Y-69895295D01*
X7440476Y-69895295D02*
X7488095Y-69800057D01*
X7488095Y-69800057D02*
X7535714Y-69752438D01*
X7535714Y-69752438D02*
X7630952Y-69704819D01*
X7630952Y-69704819D02*
X7869047Y-69704819D01*
X7869047Y-69704819D02*
X8011904Y-69752438D01*
X8345238Y-69704819D02*
X8583333Y-70704819D01*
X8583333Y-70704819D02*
X8773809Y-69990533D01*
X8773809Y-69990533D02*
X8964285Y-70704819D01*
X8964285Y-70704819D02*
X9202381Y-69704819D01*
X9535714Y-69800057D02*
X9583333Y-69752438D01*
X9583333Y-69752438D02*
X9678571Y-69704819D01*
X9678571Y-69704819D02*
X9916666Y-69704819D01*
X9916666Y-69704819D02*
X10011904Y-69752438D01*
X10011904Y-69752438D02*
X10059523Y-69800057D01*
X10059523Y-69800057D02*
X10107142Y-69895295D01*
X10107142Y-69895295D02*
X10107142Y-69990533D01*
X10107142Y-69990533D02*
X10059523Y-70133390D01*
X10059523Y-70133390D02*
X9488095Y-70704819D01*
X9488095Y-70704819D02*
X10107142Y-70704819D01*
X10964285Y-69704819D02*
X10773809Y-69704819D01*
X10773809Y-69704819D02*
X10678571Y-69752438D01*
X10678571Y-69752438D02*
X10630952Y-69800057D01*
X10630952Y-69800057D02*
X10535714Y-69942914D01*
X10535714Y-69942914D02*
X10488095Y-70133390D01*
X10488095Y-70133390D02*
X10488095Y-70514342D01*
X10488095Y-70514342D02*
X10535714Y-70609580D01*
X10535714Y-70609580D02*
X10583333Y-70657200D01*
X10583333Y-70657200D02*
X10678571Y-70704819D01*
X10678571Y-70704819D02*
X10869047Y-70704819D01*
X10869047Y-70704819D02*
X10964285Y-70657200D01*
X10964285Y-70657200D02*
X11011904Y-70609580D01*
X11011904Y-70609580D02*
X11059523Y-70514342D01*
X11059523Y-70514342D02*
X11059523Y-70276247D01*
X11059523Y-70276247D02*
X11011904Y-70181009D01*
X11011904Y-70181009D02*
X10964285Y-70133390D01*
X10964285Y-70133390D02*
X10869047Y-70085771D01*
X10869047Y-70085771D02*
X10678571Y-70085771D01*
X10678571Y-70085771D02*
X10583333Y-70133390D01*
X10583333Y-70133390D02*
X10535714Y-70181009D01*
X10535714Y-70181009D02*
X10488095Y-70276247D01*
X75571428Y-91681009D02*
X75714285Y-91728628D01*
X75714285Y-91728628D02*
X75761904Y-91776247D01*
X75761904Y-91776247D02*
X75809523Y-91871485D01*
X75809523Y-91871485D02*
X75809523Y-92014342D01*
X75809523Y-92014342D02*
X75761904Y-92109580D01*
X75761904Y-92109580D02*
X75714285Y-92157200D01*
X75714285Y-92157200D02*
X75619047Y-92204819D01*
X75619047Y-92204819D02*
X75238095Y-92204819D01*
X75238095Y-92204819D02*
X75238095Y-91204819D01*
X75238095Y-91204819D02*
X75571428Y-91204819D01*
X75571428Y-91204819D02*
X75666666Y-91252438D01*
X75666666Y-91252438D02*
X75714285Y-91300057D01*
X75714285Y-91300057D02*
X75761904Y-91395295D01*
X75761904Y-91395295D02*
X75761904Y-91490533D01*
X75761904Y-91490533D02*
X75714285Y-91585771D01*
X75714285Y-91585771D02*
X75666666Y-91633390D01*
X75666666Y-91633390D02*
X75571428Y-91681009D01*
X75571428Y-91681009D02*
X75238095Y-91681009D01*
X74190476Y-82657200D02*
X74333333Y-82704819D01*
X74333333Y-82704819D02*
X74571428Y-82704819D01*
X74571428Y-82704819D02*
X74666666Y-82657200D01*
X74666666Y-82657200D02*
X74714285Y-82609580D01*
X74714285Y-82609580D02*
X74761904Y-82514342D01*
X74761904Y-82514342D02*
X74761904Y-82419104D01*
X74761904Y-82419104D02*
X74714285Y-82323866D01*
X74714285Y-82323866D02*
X74666666Y-82276247D01*
X74666666Y-82276247D02*
X74571428Y-82228628D01*
X74571428Y-82228628D02*
X74380952Y-82181009D01*
X74380952Y-82181009D02*
X74285714Y-82133390D01*
X74285714Y-82133390D02*
X74238095Y-82085771D01*
X74238095Y-82085771D02*
X74190476Y-81990533D01*
X74190476Y-81990533D02*
X74190476Y-81895295D01*
X74190476Y-81895295D02*
X74238095Y-81800057D01*
X74238095Y-81800057D02*
X74285714Y-81752438D01*
X74285714Y-81752438D02*
X74380952Y-81704819D01*
X74380952Y-81704819D02*
X74619047Y-81704819D01*
X74619047Y-81704819D02*
X74761904Y-81752438D01*
X75095238Y-81704819D02*
X75333333Y-82704819D01*
X75333333Y-82704819D02*
X75523809Y-81990533D01*
X75523809Y-81990533D02*
X75714285Y-82704819D01*
X75714285Y-82704819D02*
X75952381Y-81704819D01*
X76761904Y-82038152D02*
X76761904Y-82704819D01*
X76523809Y-81657200D02*
X76285714Y-82371485D01*
X76285714Y-82371485D02*
X76904761Y-82371485D01*
X77714285Y-82038152D02*
X77714285Y-82704819D01*
X77476190Y-81657200D02*
X77238095Y-82371485D01*
X77238095Y-82371485D02*
X77857142Y-82371485D01*
X30714286Y-55300057D02*
X30761905Y-55252438D01*
X30761905Y-55252438D02*
X30857143Y-55204819D01*
X30857143Y-55204819D02*
X31095238Y-55204819D01*
X31095238Y-55204819D02*
X31190476Y-55252438D01*
X31190476Y-55252438D02*
X31238095Y-55300057D01*
X31238095Y-55300057D02*
X31285714Y-55395295D01*
X31285714Y-55395295D02*
X31285714Y-55490533D01*
X31285714Y-55490533D02*
X31238095Y-55633390D01*
X31238095Y-55633390D02*
X30666667Y-56204819D01*
X30666667Y-56204819D02*
X31285714Y-56204819D01*
X29591667Y-46582200D02*
X29734524Y-46629819D01*
X29734524Y-46629819D02*
X29972619Y-46629819D01*
X29972619Y-46629819D02*
X30067857Y-46582200D01*
X30067857Y-46582200D02*
X30115476Y-46534580D01*
X30115476Y-46534580D02*
X30163095Y-46439342D01*
X30163095Y-46439342D02*
X30163095Y-46344104D01*
X30163095Y-46344104D02*
X30115476Y-46248866D01*
X30115476Y-46248866D02*
X30067857Y-46201247D01*
X30067857Y-46201247D02*
X29972619Y-46153628D01*
X29972619Y-46153628D02*
X29782143Y-46106009D01*
X29782143Y-46106009D02*
X29686905Y-46058390D01*
X29686905Y-46058390D02*
X29639286Y-46010771D01*
X29639286Y-46010771D02*
X29591667Y-45915533D01*
X29591667Y-45915533D02*
X29591667Y-45820295D01*
X29591667Y-45820295D02*
X29639286Y-45725057D01*
X29639286Y-45725057D02*
X29686905Y-45677438D01*
X29686905Y-45677438D02*
X29782143Y-45629819D01*
X29782143Y-45629819D02*
X30020238Y-45629819D01*
X30020238Y-45629819D02*
X30163095Y-45677438D01*
X30496429Y-45629819D02*
X30734524Y-46629819D01*
X30734524Y-46629819D02*
X30925000Y-45915533D01*
X30925000Y-45915533D02*
X31115476Y-46629819D01*
X31115476Y-46629819D02*
X31353572Y-45629819D01*
X31639286Y-45629819D02*
X32258333Y-45629819D01*
X32258333Y-45629819D02*
X31925000Y-46010771D01*
X31925000Y-46010771D02*
X32067857Y-46010771D01*
X32067857Y-46010771D02*
X32163095Y-46058390D01*
X32163095Y-46058390D02*
X32210714Y-46106009D01*
X32210714Y-46106009D02*
X32258333Y-46201247D01*
X32258333Y-46201247D02*
X32258333Y-46439342D01*
X32258333Y-46439342D02*
X32210714Y-46534580D01*
X32210714Y-46534580D02*
X32163095Y-46582200D01*
X32163095Y-46582200D02*
X32067857Y-46629819D01*
X32067857Y-46629819D02*
X31782143Y-46629819D01*
X31782143Y-46629819D02*
X31686905Y-46582200D01*
X31686905Y-46582200D02*
X31639286Y-46534580D01*
X120007142Y-37030819D02*
X119435714Y-37030819D01*
X119721428Y-37030819D02*
X119721428Y-36030819D01*
X119721428Y-36030819D02*
X119626190Y-36173676D01*
X119626190Y-36173676D02*
X119530952Y-36268914D01*
X119530952Y-36268914D02*
X119435714Y-36316533D01*
X120626190Y-36030819D02*
X120721428Y-36030819D01*
X120721428Y-36030819D02*
X120816666Y-36078438D01*
X120816666Y-36078438D02*
X120864285Y-36126057D01*
X120864285Y-36126057D02*
X120911904Y-36221295D01*
X120911904Y-36221295D02*
X120959523Y-36411771D01*
X120959523Y-36411771D02*
X120959523Y-36649866D01*
X120959523Y-36649866D02*
X120911904Y-36840342D01*
X120911904Y-36840342D02*
X120864285Y-36935580D01*
X120864285Y-36935580D02*
X120816666Y-36983200D01*
X120816666Y-36983200D02*
X120721428Y-37030819D01*
X120721428Y-37030819D02*
X120626190Y-37030819D01*
X120626190Y-37030819D02*
X120530952Y-36983200D01*
X120530952Y-36983200D02*
X120483333Y-36935580D01*
X120483333Y-36935580D02*
X120435714Y-36840342D01*
X120435714Y-36840342D02*
X120388095Y-36649866D01*
X120388095Y-36649866D02*
X120388095Y-36411771D01*
X120388095Y-36411771D02*
X120435714Y-36221295D01*
X120435714Y-36221295D02*
X120483333Y-36126057D01*
X120483333Y-36126057D02*
X120530952Y-36078438D01*
X120530952Y-36078438D02*
X120626190Y-36030819D01*
X121388095Y-36364152D02*
X121388095Y-37030819D01*
X121388095Y-36459390D02*
X121435714Y-36411771D01*
X121435714Y-36411771D02*
X121530952Y-36364152D01*
X121530952Y-36364152D02*
X121673809Y-36364152D01*
X121673809Y-36364152D02*
X121769047Y-36411771D01*
X121769047Y-36411771D02*
X121816666Y-36507009D01*
X121816666Y-36507009D02*
X121816666Y-37030819D01*
D11*
X120483333Y-22459452D02*
X120435714Y-22507072D01*
X120435714Y-22507072D02*
X120292857Y-22554691D01*
X120292857Y-22554691D02*
X120197619Y-22554691D01*
X120197619Y-22554691D02*
X120054762Y-22507072D01*
X120054762Y-22507072D02*
X119959524Y-22411833D01*
X119959524Y-22411833D02*
X119911905Y-22316595D01*
X119911905Y-22316595D02*
X119864286Y-22126119D01*
X119864286Y-22126119D02*
X119864286Y-21983262D01*
X119864286Y-21983262D02*
X119911905Y-21792786D01*
X119911905Y-21792786D02*
X119959524Y-21697548D01*
X119959524Y-21697548D02*
X120054762Y-21602310D01*
X120054762Y-21602310D02*
X120197619Y-21554691D01*
X120197619Y-21554691D02*
X120292857Y-21554691D01*
X120292857Y-21554691D02*
X120435714Y-21602310D01*
X120435714Y-21602310D02*
X120483333Y-21649929D01*
X121435714Y-22554691D02*
X120864286Y-22554691D01*
X121150000Y-22554691D02*
X121150000Y-21554691D01*
X121150000Y-21554691D02*
X121054762Y-21697548D01*
X121054762Y-21697548D02*
X120959524Y-21792786D01*
X120959524Y-21792786D02*
X120864286Y-21840405D01*
D10*
X53809523Y-92109580D02*
X53761904Y-92157200D01*
X53761904Y-92157200D02*
X53619047Y-92204819D01*
X53619047Y-92204819D02*
X53523809Y-92204819D01*
X53523809Y-92204819D02*
X53380952Y-92157200D01*
X53380952Y-92157200D02*
X53285714Y-92061961D01*
X53285714Y-92061961D02*
X53238095Y-91966723D01*
X53238095Y-91966723D02*
X53190476Y-91776247D01*
X53190476Y-91776247D02*
X53190476Y-91633390D01*
X53190476Y-91633390D02*
X53238095Y-91442914D01*
X53238095Y-91442914D02*
X53285714Y-91347676D01*
X53285714Y-91347676D02*
X53380952Y-91252438D01*
X53380952Y-91252438D02*
X53523809Y-91204819D01*
X53523809Y-91204819D02*
X53619047Y-91204819D01*
X53619047Y-91204819D02*
X53761904Y-91252438D01*
X53761904Y-91252438D02*
X53809523Y-91300057D01*
X52190476Y-82657200D02*
X52333333Y-82704819D01*
X52333333Y-82704819D02*
X52571428Y-82704819D01*
X52571428Y-82704819D02*
X52666666Y-82657200D01*
X52666666Y-82657200D02*
X52714285Y-82609580D01*
X52714285Y-82609580D02*
X52761904Y-82514342D01*
X52761904Y-82514342D02*
X52761904Y-82419104D01*
X52761904Y-82419104D02*
X52714285Y-82323866D01*
X52714285Y-82323866D02*
X52666666Y-82276247D01*
X52666666Y-82276247D02*
X52571428Y-82228628D01*
X52571428Y-82228628D02*
X52380952Y-82181009D01*
X52380952Y-82181009D02*
X52285714Y-82133390D01*
X52285714Y-82133390D02*
X52238095Y-82085771D01*
X52238095Y-82085771D02*
X52190476Y-81990533D01*
X52190476Y-81990533D02*
X52190476Y-81895295D01*
X52190476Y-81895295D02*
X52238095Y-81800057D01*
X52238095Y-81800057D02*
X52285714Y-81752438D01*
X52285714Y-81752438D02*
X52380952Y-81704819D01*
X52380952Y-81704819D02*
X52619047Y-81704819D01*
X52619047Y-81704819D02*
X52761904Y-81752438D01*
X53095238Y-81704819D02*
X53333333Y-82704819D01*
X53333333Y-82704819D02*
X53523809Y-81990533D01*
X53523809Y-81990533D02*
X53714285Y-82704819D01*
X53714285Y-82704819D02*
X53952381Y-81704819D01*
X54761904Y-82038152D02*
X54761904Y-82704819D01*
X54523809Y-81657200D02*
X54285714Y-82371485D01*
X54285714Y-82371485D02*
X54904761Y-82371485D01*
X55238095Y-81800057D02*
X55285714Y-81752438D01*
X55285714Y-81752438D02*
X55380952Y-81704819D01*
X55380952Y-81704819D02*
X55619047Y-81704819D01*
X55619047Y-81704819D02*
X55714285Y-81752438D01*
X55714285Y-81752438D02*
X55761904Y-81800057D01*
X55761904Y-81800057D02*
X55809523Y-81895295D01*
X55809523Y-81895295D02*
X55809523Y-81990533D01*
X55809523Y-81990533D02*
X55761904Y-82133390D01*
X55761904Y-82133390D02*
X55190476Y-82704819D01*
X55190476Y-82704819D02*
X55809523Y-82704819D01*
X31166667Y-91204819D02*
X31833333Y-91204819D01*
X31833333Y-91204819D02*
X31166667Y-92204819D01*
X31166667Y-92204819D02*
X31833333Y-92204819D01*
X30190476Y-82657200D02*
X30333333Y-82704819D01*
X30333333Y-82704819D02*
X30571428Y-82704819D01*
X30571428Y-82704819D02*
X30666666Y-82657200D01*
X30666666Y-82657200D02*
X30714285Y-82609580D01*
X30714285Y-82609580D02*
X30761904Y-82514342D01*
X30761904Y-82514342D02*
X30761904Y-82419104D01*
X30761904Y-82419104D02*
X30714285Y-82323866D01*
X30714285Y-82323866D02*
X30666666Y-82276247D01*
X30666666Y-82276247D02*
X30571428Y-82228628D01*
X30571428Y-82228628D02*
X30380952Y-82181009D01*
X30380952Y-82181009D02*
X30285714Y-82133390D01*
X30285714Y-82133390D02*
X30238095Y-82085771D01*
X30238095Y-82085771D02*
X30190476Y-81990533D01*
X30190476Y-81990533D02*
X30190476Y-81895295D01*
X30190476Y-81895295D02*
X30238095Y-81800057D01*
X30238095Y-81800057D02*
X30285714Y-81752438D01*
X30285714Y-81752438D02*
X30380952Y-81704819D01*
X30380952Y-81704819D02*
X30619047Y-81704819D01*
X30619047Y-81704819D02*
X30761904Y-81752438D01*
X31095238Y-81704819D02*
X31333333Y-82704819D01*
X31333333Y-82704819D02*
X31523809Y-81990533D01*
X31523809Y-81990533D02*
X31714285Y-82704819D01*
X31714285Y-82704819D02*
X31952381Y-81704819D01*
X32761904Y-82038152D02*
X32761904Y-82704819D01*
X32523809Y-81657200D02*
X32285714Y-82371485D01*
X32285714Y-82371485D02*
X32904761Y-82371485D01*
X33476190Y-81704819D02*
X33571428Y-81704819D01*
X33571428Y-81704819D02*
X33666666Y-81752438D01*
X33666666Y-81752438D02*
X33714285Y-81800057D01*
X33714285Y-81800057D02*
X33761904Y-81895295D01*
X33761904Y-81895295D02*
X33809523Y-82085771D01*
X33809523Y-82085771D02*
X33809523Y-82323866D01*
X33809523Y-82323866D02*
X33761904Y-82514342D01*
X33761904Y-82514342D02*
X33714285Y-82609580D01*
X33714285Y-82609580D02*
X33666666Y-82657200D01*
X33666666Y-82657200D02*
X33571428Y-82704819D01*
X33571428Y-82704819D02*
X33476190Y-82704819D01*
X33476190Y-82704819D02*
X33380952Y-82657200D01*
X33380952Y-82657200D02*
X33333333Y-82609580D01*
X33333333Y-82609580D02*
X33285714Y-82514342D01*
X33285714Y-82514342D02*
X33238095Y-82323866D01*
X33238095Y-82323866D02*
X33238095Y-82085771D01*
X33238095Y-82085771D02*
X33285714Y-81895295D01*
X33285714Y-81895295D02*
X33333333Y-81800057D01*
X33333333Y-81800057D02*
X33380952Y-81752438D01*
X33380952Y-81752438D02*
X33476190Y-81704819D01*
X99000000Y-68204819D02*
X99000000Y-67204819D01*
X97440476Y-58657200D02*
X97583333Y-58704819D01*
X97583333Y-58704819D02*
X97821428Y-58704819D01*
X97821428Y-58704819D02*
X97916666Y-58657200D01*
X97916666Y-58657200D02*
X97964285Y-58609580D01*
X97964285Y-58609580D02*
X98011904Y-58514342D01*
X98011904Y-58514342D02*
X98011904Y-58419104D01*
X98011904Y-58419104D02*
X97964285Y-58323866D01*
X97964285Y-58323866D02*
X97916666Y-58276247D01*
X97916666Y-58276247D02*
X97821428Y-58228628D01*
X97821428Y-58228628D02*
X97630952Y-58181009D01*
X97630952Y-58181009D02*
X97535714Y-58133390D01*
X97535714Y-58133390D02*
X97488095Y-58085771D01*
X97488095Y-58085771D02*
X97440476Y-57990533D01*
X97440476Y-57990533D02*
X97440476Y-57895295D01*
X97440476Y-57895295D02*
X97488095Y-57800057D01*
X97488095Y-57800057D02*
X97535714Y-57752438D01*
X97535714Y-57752438D02*
X97630952Y-57704819D01*
X97630952Y-57704819D02*
X97869047Y-57704819D01*
X97869047Y-57704819D02*
X98011904Y-57752438D01*
X98345238Y-57704819D02*
X98583333Y-58704819D01*
X98583333Y-58704819D02*
X98773809Y-57990533D01*
X98773809Y-57990533D02*
X98964285Y-58704819D01*
X98964285Y-58704819D02*
X99202381Y-57704819D01*
X99535714Y-57800057D02*
X99583333Y-57752438D01*
X99583333Y-57752438D02*
X99678571Y-57704819D01*
X99678571Y-57704819D02*
X99916666Y-57704819D01*
X99916666Y-57704819D02*
X100011904Y-57752438D01*
X100011904Y-57752438D02*
X100059523Y-57800057D01*
X100059523Y-57800057D02*
X100107142Y-57895295D01*
X100107142Y-57895295D02*
X100107142Y-57990533D01*
X100107142Y-57990533D02*
X100059523Y-58133390D01*
X100059523Y-58133390D02*
X99488095Y-58704819D01*
X99488095Y-58704819D02*
X100107142Y-58704819D01*
X100488095Y-57800057D02*
X100535714Y-57752438D01*
X100535714Y-57752438D02*
X100630952Y-57704819D01*
X100630952Y-57704819D02*
X100869047Y-57704819D01*
X100869047Y-57704819D02*
X100964285Y-57752438D01*
X100964285Y-57752438D02*
X101011904Y-57800057D01*
X101011904Y-57800057D02*
X101059523Y-57895295D01*
X101059523Y-57895295D02*
X101059523Y-57990533D01*
X101059523Y-57990533D02*
X101011904Y-58133390D01*
X101011904Y-58133390D02*
X100440476Y-58704819D01*
X100440476Y-58704819D02*
X101059523Y-58704819D01*
X45728095Y-80464819D02*
X45728095Y-79464819D01*
X45728095Y-79464819D02*
X45966190Y-79464819D01*
X45966190Y-79464819D02*
X46109047Y-79512438D01*
X46109047Y-79512438D02*
X46204285Y-79607676D01*
X46204285Y-79607676D02*
X46251904Y-79702914D01*
X46251904Y-79702914D02*
X46299523Y-79893390D01*
X46299523Y-79893390D02*
X46299523Y-80036247D01*
X46299523Y-80036247D02*
X46251904Y-80226723D01*
X46251904Y-80226723D02*
X46204285Y-80321961D01*
X46204285Y-80321961D02*
X46109047Y-80417200D01*
X46109047Y-80417200D02*
X45966190Y-80464819D01*
X45966190Y-80464819D02*
X45728095Y-80464819D01*
X44440476Y-70657200D02*
X44583333Y-70704819D01*
X44583333Y-70704819D02*
X44821428Y-70704819D01*
X44821428Y-70704819D02*
X44916666Y-70657200D01*
X44916666Y-70657200D02*
X44964285Y-70609580D01*
X44964285Y-70609580D02*
X45011904Y-70514342D01*
X45011904Y-70514342D02*
X45011904Y-70419104D01*
X45011904Y-70419104D02*
X44964285Y-70323866D01*
X44964285Y-70323866D02*
X44916666Y-70276247D01*
X44916666Y-70276247D02*
X44821428Y-70228628D01*
X44821428Y-70228628D02*
X44630952Y-70181009D01*
X44630952Y-70181009D02*
X44535714Y-70133390D01*
X44535714Y-70133390D02*
X44488095Y-70085771D01*
X44488095Y-70085771D02*
X44440476Y-69990533D01*
X44440476Y-69990533D02*
X44440476Y-69895295D01*
X44440476Y-69895295D02*
X44488095Y-69800057D01*
X44488095Y-69800057D02*
X44535714Y-69752438D01*
X44535714Y-69752438D02*
X44630952Y-69704819D01*
X44630952Y-69704819D02*
X44869047Y-69704819D01*
X44869047Y-69704819D02*
X45011904Y-69752438D01*
X45345238Y-69704819D02*
X45583333Y-70704819D01*
X45583333Y-70704819D02*
X45773809Y-69990533D01*
X45773809Y-69990533D02*
X45964285Y-70704819D01*
X45964285Y-70704819D02*
X46202381Y-69704819D01*
X46535714Y-69800057D02*
X46583333Y-69752438D01*
X46583333Y-69752438D02*
X46678571Y-69704819D01*
X46678571Y-69704819D02*
X46916666Y-69704819D01*
X46916666Y-69704819D02*
X47011904Y-69752438D01*
X47011904Y-69752438D02*
X47059523Y-69800057D01*
X47059523Y-69800057D02*
X47107142Y-69895295D01*
X47107142Y-69895295D02*
X47107142Y-69990533D01*
X47107142Y-69990533D02*
X47059523Y-70133390D01*
X47059523Y-70133390D02*
X46488095Y-70704819D01*
X46488095Y-70704819D02*
X47107142Y-70704819D01*
X47583333Y-70704819D02*
X47773809Y-70704819D01*
X47773809Y-70704819D02*
X47869047Y-70657200D01*
X47869047Y-70657200D02*
X47916666Y-70609580D01*
X47916666Y-70609580D02*
X48011904Y-70466723D01*
X48011904Y-70466723D02*
X48059523Y-70276247D01*
X48059523Y-70276247D02*
X48059523Y-69895295D01*
X48059523Y-69895295D02*
X48011904Y-69800057D01*
X48011904Y-69800057D02*
X47964285Y-69752438D01*
X47964285Y-69752438D02*
X47869047Y-69704819D01*
X47869047Y-69704819D02*
X47678571Y-69704819D01*
X47678571Y-69704819D02*
X47583333Y-69752438D01*
X47583333Y-69752438D02*
X47535714Y-69800057D01*
X47535714Y-69800057D02*
X47488095Y-69895295D01*
X47488095Y-69895295D02*
X47488095Y-70133390D01*
X47488095Y-70133390D02*
X47535714Y-70228628D01*
X47535714Y-70228628D02*
X47583333Y-70276247D01*
X47583333Y-70276247D02*
X47678571Y-70323866D01*
X47678571Y-70323866D02*
X47869047Y-70323866D01*
X47869047Y-70323866D02*
X47964285Y-70276247D01*
X47964285Y-70276247D02*
X48011904Y-70228628D01*
X48011904Y-70228628D02*
X48059523Y-70133390D01*
X20285714Y-56204819D02*
X19714286Y-56204819D01*
X20000000Y-56204819D02*
X20000000Y-55204819D01*
X20000000Y-55204819D02*
X19904762Y-55347676D01*
X19904762Y-55347676D02*
X19809524Y-55442914D01*
X19809524Y-55442914D02*
X19714286Y-55490533D01*
X18666667Y-46657200D02*
X18809524Y-46704819D01*
X18809524Y-46704819D02*
X19047619Y-46704819D01*
X19047619Y-46704819D02*
X19142857Y-46657200D01*
X19142857Y-46657200D02*
X19190476Y-46609580D01*
X19190476Y-46609580D02*
X19238095Y-46514342D01*
X19238095Y-46514342D02*
X19238095Y-46419104D01*
X19238095Y-46419104D02*
X19190476Y-46323866D01*
X19190476Y-46323866D02*
X19142857Y-46276247D01*
X19142857Y-46276247D02*
X19047619Y-46228628D01*
X19047619Y-46228628D02*
X18857143Y-46181009D01*
X18857143Y-46181009D02*
X18761905Y-46133390D01*
X18761905Y-46133390D02*
X18714286Y-46085771D01*
X18714286Y-46085771D02*
X18666667Y-45990533D01*
X18666667Y-45990533D02*
X18666667Y-45895295D01*
X18666667Y-45895295D02*
X18714286Y-45800057D01*
X18714286Y-45800057D02*
X18761905Y-45752438D01*
X18761905Y-45752438D02*
X18857143Y-45704819D01*
X18857143Y-45704819D02*
X19095238Y-45704819D01*
X19095238Y-45704819D02*
X19238095Y-45752438D01*
X19571429Y-45704819D02*
X19809524Y-46704819D01*
X19809524Y-46704819D02*
X20000000Y-45990533D01*
X20000000Y-45990533D02*
X20190476Y-46704819D01*
X20190476Y-46704819D02*
X20428572Y-45704819D01*
X20761905Y-45800057D02*
X20809524Y-45752438D01*
X20809524Y-45752438D02*
X20904762Y-45704819D01*
X20904762Y-45704819D02*
X21142857Y-45704819D01*
X21142857Y-45704819D02*
X21238095Y-45752438D01*
X21238095Y-45752438D02*
X21285714Y-45800057D01*
X21285714Y-45800057D02*
X21333333Y-45895295D01*
X21333333Y-45895295D02*
X21333333Y-45990533D01*
X21333333Y-45990533D02*
X21285714Y-46133390D01*
X21285714Y-46133390D02*
X20714286Y-46704819D01*
X20714286Y-46704819D02*
X21333333Y-46704819D01*
X18452381Y-92157200D02*
X18595238Y-92204819D01*
X18595238Y-92204819D02*
X18833333Y-92204819D01*
X18833333Y-92204819D02*
X18928571Y-92157200D01*
X18928571Y-92157200D02*
X18976190Y-92109580D01*
X18976190Y-92109580D02*
X19023809Y-92014342D01*
X19023809Y-92014342D02*
X19023809Y-91919104D01*
X19023809Y-91919104D02*
X18976190Y-91823866D01*
X18976190Y-91823866D02*
X18928571Y-91776247D01*
X18928571Y-91776247D02*
X18833333Y-91728628D01*
X18833333Y-91728628D02*
X18642857Y-91681009D01*
X18642857Y-91681009D02*
X18547619Y-91633390D01*
X18547619Y-91633390D02*
X18500000Y-91585771D01*
X18500000Y-91585771D02*
X18452381Y-91490533D01*
X18452381Y-91490533D02*
X18452381Y-91395295D01*
X18452381Y-91395295D02*
X18500000Y-91300057D01*
X18500000Y-91300057D02*
X18547619Y-91252438D01*
X18547619Y-91252438D02*
X18642857Y-91204819D01*
X18642857Y-91204819D02*
X18880952Y-91204819D01*
X18880952Y-91204819D02*
X19023809Y-91252438D01*
X19452381Y-91538152D02*
X19452381Y-92538152D01*
X19452381Y-91585771D02*
X19547619Y-91538152D01*
X19547619Y-91538152D02*
X19738095Y-91538152D01*
X19738095Y-91538152D02*
X19833333Y-91585771D01*
X19833333Y-91585771D02*
X19880952Y-91633390D01*
X19880952Y-91633390D02*
X19928571Y-91728628D01*
X19928571Y-91728628D02*
X19928571Y-92014342D01*
X19928571Y-92014342D02*
X19880952Y-92109580D01*
X19880952Y-92109580D02*
X19833333Y-92157200D01*
X19833333Y-92157200D02*
X19738095Y-92204819D01*
X19738095Y-92204819D02*
X19547619Y-92204819D01*
X19547619Y-92204819D02*
X19452381Y-92157200D01*
X20785714Y-92204819D02*
X20785714Y-91681009D01*
X20785714Y-91681009D02*
X20738095Y-91585771D01*
X20738095Y-91585771D02*
X20642857Y-91538152D01*
X20642857Y-91538152D02*
X20452381Y-91538152D01*
X20452381Y-91538152D02*
X20357143Y-91585771D01*
X20785714Y-92157200D02*
X20690476Y-92204819D01*
X20690476Y-92204819D02*
X20452381Y-92204819D01*
X20452381Y-92204819D02*
X20357143Y-92157200D01*
X20357143Y-92157200D02*
X20309524Y-92061961D01*
X20309524Y-92061961D02*
X20309524Y-91966723D01*
X20309524Y-91966723D02*
X20357143Y-91871485D01*
X20357143Y-91871485D02*
X20452381Y-91823866D01*
X20452381Y-91823866D02*
X20690476Y-91823866D01*
X20690476Y-91823866D02*
X20785714Y-91776247D01*
X21690476Y-92157200D02*
X21595238Y-92204819D01*
X21595238Y-92204819D02*
X21404762Y-92204819D01*
X21404762Y-92204819D02*
X21309524Y-92157200D01*
X21309524Y-92157200D02*
X21261905Y-92109580D01*
X21261905Y-92109580D02*
X21214286Y-92014342D01*
X21214286Y-92014342D02*
X21214286Y-91728628D01*
X21214286Y-91728628D02*
X21261905Y-91633390D01*
X21261905Y-91633390D02*
X21309524Y-91585771D01*
X21309524Y-91585771D02*
X21404762Y-91538152D01*
X21404762Y-91538152D02*
X21595238Y-91538152D01*
X21595238Y-91538152D02*
X21690476Y-91585771D01*
X22500000Y-92157200D02*
X22404762Y-92204819D01*
X22404762Y-92204819D02*
X22214286Y-92204819D01*
X22214286Y-92204819D02*
X22119048Y-92157200D01*
X22119048Y-92157200D02*
X22071429Y-92061961D01*
X22071429Y-92061961D02*
X22071429Y-91681009D01*
X22071429Y-91681009D02*
X22119048Y-91585771D01*
X22119048Y-91585771D02*
X22214286Y-91538152D01*
X22214286Y-91538152D02*
X22404762Y-91538152D01*
X22404762Y-91538152D02*
X22500000Y-91585771D01*
X22500000Y-91585771D02*
X22547619Y-91681009D01*
X22547619Y-91681009D02*
X22547619Y-91776247D01*
X22547619Y-91776247D02*
X22071429Y-91871485D01*
X19190476Y-82657200D02*
X19333333Y-82704819D01*
X19333333Y-82704819D02*
X19571428Y-82704819D01*
X19571428Y-82704819D02*
X19666666Y-82657200D01*
X19666666Y-82657200D02*
X19714285Y-82609580D01*
X19714285Y-82609580D02*
X19761904Y-82514342D01*
X19761904Y-82514342D02*
X19761904Y-82419104D01*
X19761904Y-82419104D02*
X19714285Y-82323866D01*
X19714285Y-82323866D02*
X19666666Y-82276247D01*
X19666666Y-82276247D02*
X19571428Y-82228628D01*
X19571428Y-82228628D02*
X19380952Y-82181009D01*
X19380952Y-82181009D02*
X19285714Y-82133390D01*
X19285714Y-82133390D02*
X19238095Y-82085771D01*
X19238095Y-82085771D02*
X19190476Y-81990533D01*
X19190476Y-81990533D02*
X19190476Y-81895295D01*
X19190476Y-81895295D02*
X19238095Y-81800057D01*
X19238095Y-81800057D02*
X19285714Y-81752438D01*
X19285714Y-81752438D02*
X19380952Y-81704819D01*
X19380952Y-81704819D02*
X19619047Y-81704819D01*
X19619047Y-81704819D02*
X19761904Y-81752438D01*
X20095238Y-81704819D02*
X20333333Y-82704819D01*
X20333333Y-82704819D02*
X20523809Y-81990533D01*
X20523809Y-81990533D02*
X20714285Y-82704819D01*
X20714285Y-82704819D02*
X20952381Y-81704819D01*
X21238095Y-81704819D02*
X21857142Y-81704819D01*
X21857142Y-81704819D02*
X21523809Y-82085771D01*
X21523809Y-82085771D02*
X21666666Y-82085771D01*
X21666666Y-82085771D02*
X21761904Y-82133390D01*
X21761904Y-82133390D02*
X21809523Y-82181009D01*
X21809523Y-82181009D02*
X21857142Y-82276247D01*
X21857142Y-82276247D02*
X21857142Y-82514342D01*
X21857142Y-82514342D02*
X21809523Y-82609580D01*
X21809523Y-82609580D02*
X21761904Y-82657200D01*
X21761904Y-82657200D02*
X21666666Y-82704819D01*
X21666666Y-82704819D02*
X21380952Y-82704819D01*
X21380952Y-82704819D02*
X21285714Y-82657200D01*
X21285714Y-82657200D02*
X21238095Y-82609580D01*
X22333333Y-82704819D02*
X22523809Y-82704819D01*
X22523809Y-82704819D02*
X22619047Y-82657200D01*
X22619047Y-82657200D02*
X22666666Y-82609580D01*
X22666666Y-82609580D02*
X22761904Y-82466723D01*
X22761904Y-82466723D02*
X22809523Y-82276247D01*
X22809523Y-82276247D02*
X22809523Y-81895295D01*
X22809523Y-81895295D02*
X22761904Y-81800057D01*
X22761904Y-81800057D02*
X22714285Y-81752438D01*
X22714285Y-81752438D02*
X22619047Y-81704819D01*
X22619047Y-81704819D02*
X22428571Y-81704819D01*
X22428571Y-81704819D02*
X22333333Y-81752438D01*
X22333333Y-81752438D02*
X22285714Y-81800057D01*
X22285714Y-81800057D02*
X22238095Y-81895295D01*
X22238095Y-81895295D02*
X22238095Y-82133390D01*
X22238095Y-82133390D02*
X22285714Y-82228628D01*
X22285714Y-82228628D02*
X22333333Y-82276247D01*
X22333333Y-82276247D02*
X22428571Y-82323866D01*
X22428571Y-82323866D02*
X22619047Y-82323866D01*
X22619047Y-82323866D02*
X22714285Y-82276247D01*
X22714285Y-82276247D02*
X22761904Y-82228628D01*
X22761904Y-82228628D02*
X22809523Y-82133390D01*
X75190476Y-55204819D02*
X75000000Y-55204819D01*
X75000000Y-55204819D02*
X74904762Y-55252438D01*
X74904762Y-55252438D02*
X74857143Y-55300057D01*
X74857143Y-55300057D02*
X74761905Y-55442914D01*
X74761905Y-55442914D02*
X74714286Y-55633390D01*
X74714286Y-55633390D02*
X74714286Y-56014342D01*
X74714286Y-56014342D02*
X74761905Y-56109580D01*
X74761905Y-56109580D02*
X74809524Y-56157200D01*
X74809524Y-56157200D02*
X74904762Y-56204819D01*
X74904762Y-56204819D02*
X75095238Y-56204819D01*
X75095238Y-56204819D02*
X75190476Y-56157200D01*
X75190476Y-56157200D02*
X75238095Y-56109580D01*
X75238095Y-56109580D02*
X75285714Y-56014342D01*
X75285714Y-56014342D02*
X75285714Y-55776247D01*
X75285714Y-55776247D02*
X75238095Y-55681009D01*
X75238095Y-55681009D02*
X75190476Y-55633390D01*
X75190476Y-55633390D02*
X75095238Y-55585771D01*
X75095238Y-55585771D02*
X74904762Y-55585771D01*
X74904762Y-55585771D02*
X74809524Y-55633390D01*
X74809524Y-55633390D02*
X74761905Y-55681009D01*
X74761905Y-55681009D02*
X74714286Y-55776247D01*
X73666667Y-46657200D02*
X73809524Y-46704819D01*
X73809524Y-46704819D02*
X74047619Y-46704819D01*
X74047619Y-46704819D02*
X74142857Y-46657200D01*
X74142857Y-46657200D02*
X74190476Y-46609580D01*
X74190476Y-46609580D02*
X74238095Y-46514342D01*
X74238095Y-46514342D02*
X74238095Y-46419104D01*
X74238095Y-46419104D02*
X74190476Y-46323866D01*
X74190476Y-46323866D02*
X74142857Y-46276247D01*
X74142857Y-46276247D02*
X74047619Y-46228628D01*
X74047619Y-46228628D02*
X73857143Y-46181009D01*
X73857143Y-46181009D02*
X73761905Y-46133390D01*
X73761905Y-46133390D02*
X73714286Y-46085771D01*
X73714286Y-46085771D02*
X73666667Y-45990533D01*
X73666667Y-45990533D02*
X73666667Y-45895295D01*
X73666667Y-45895295D02*
X73714286Y-45800057D01*
X73714286Y-45800057D02*
X73761905Y-45752438D01*
X73761905Y-45752438D02*
X73857143Y-45704819D01*
X73857143Y-45704819D02*
X74095238Y-45704819D01*
X74095238Y-45704819D02*
X74238095Y-45752438D01*
X74571429Y-45704819D02*
X74809524Y-46704819D01*
X74809524Y-46704819D02*
X75000000Y-45990533D01*
X75000000Y-45990533D02*
X75190476Y-46704819D01*
X75190476Y-46704819D02*
X75428572Y-45704819D01*
X75714286Y-45704819D02*
X76380952Y-45704819D01*
X76380952Y-45704819D02*
X75952381Y-46704819D01*
X55309523Y-68204819D02*
X54976190Y-67728628D01*
X54738095Y-68204819D02*
X54738095Y-67204819D01*
X54738095Y-67204819D02*
X55119047Y-67204819D01*
X55119047Y-67204819D02*
X55214285Y-67252438D01*
X55214285Y-67252438D02*
X55261904Y-67300057D01*
X55261904Y-67300057D02*
X55309523Y-67395295D01*
X55309523Y-67395295D02*
X55309523Y-67538152D01*
X55309523Y-67538152D02*
X55261904Y-67633390D01*
X55261904Y-67633390D02*
X55214285Y-67681009D01*
X55214285Y-67681009D02*
X55119047Y-67728628D01*
X55119047Y-67728628D02*
X54738095Y-67728628D01*
X53440476Y-58657200D02*
X53583333Y-58704819D01*
X53583333Y-58704819D02*
X53821428Y-58704819D01*
X53821428Y-58704819D02*
X53916666Y-58657200D01*
X53916666Y-58657200D02*
X53964285Y-58609580D01*
X53964285Y-58609580D02*
X54011904Y-58514342D01*
X54011904Y-58514342D02*
X54011904Y-58419104D01*
X54011904Y-58419104D02*
X53964285Y-58323866D01*
X53964285Y-58323866D02*
X53916666Y-58276247D01*
X53916666Y-58276247D02*
X53821428Y-58228628D01*
X53821428Y-58228628D02*
X53630952Y-58181009D01*
X53630952Y-58181009D02*
X53535714Y-58133390D01*
X53535714Y-58133390D02*
X53488095Y-58085771D01*
X53488095Y-58085771D02*
X53440476Y-57990533D01*
X53440476Y-57990533D02*
X53440476Y-57895295D01*
X53440476Y-57895295D02*
X53488095Y-57800057D01*
X53488095Y-57800057D02*
X53535714Y-57752438D01*
X53535714Y-57752438D02*
X53630952Y-57704819D01*
X53630952Y-57704819D02*
X53869047Y-57704819D01*
X53869047Y-57704819D02*
X54011904Y-57752438D01*
X54345238Y-57704819D02*
X54583333Y-58704819D01*
X54583333Y-58704819D02*
X54773809Y-57990533D01*
X54773809Y-57990533D02*
X54964285Y-58704819D01*
X54964285Y-58704819D02*
X55202381Y-57704819D01*
X56107142Y-58704819D02*
X55535714Y-58704819D01*
X55821428Y-58704819D02*
X55821428Y-57704819D01*
X55821428Y-57704819D02*
X55726190Y-57847676D01*
X55726190Y-57847676D02*
X55630952Y-57942914D01*
X55630952Y-57942914D02*
X55535714Y-57990533D01*
X56678571Y-58133390D02*
X56583333Y-58085771D01*
X56583333Y-58085771D02*
X56535714Y-58038152D01*
X56535714Y-58038152D02*
X56488095Y-57942914D01*
X56488095Y-57942914D02*
X56488095Y-57895295D01*
X56488095Y-57895295D02*
X56535714Y-57800057D01*
X56535714Y-57800057D02*
X56583333Y-57752438D01*
X56583333Y-57752438D02*
X56678571Y-57704819D01*
X56678571Y-57704819D02*
X56869047Y-57704819D01*
X56869047Y-57704819D02*
X56964285Y-57752438D01*
X56964285Y-57752438D02*
X57011904Y-57800057D01*
X57011904Y-57800057D02*
X57059523Y-57895295D01*
X57059523Y-57895295D02*
X57059523Y-57942914D01*
X57059523Y-57942914D02*
X57011904Y-58038152D01*
X57011904Y-58038152D02*
X56964285Y-58085771D01*
X56964285Y-58085771D02*
X56869047Y-58133390D01*
X56869047Y-58133390D02*
X56678571Y-58133390D01*
X56678571Y-58133390D02*
X56583333Y-58181009D01*
X56583333Y-58181009D02*
X56535714Y-58228628D01*
X56535714Y-58228628D02*
X56488095Y-58323866D01*
X56488095Y-58323866D02*
X56488095Y-58514342D01*
X56488095Y-58514342D02*
X56535714Y-58609580D01*
X56535714Y-58609580D02*
X56583333Y-58657200D01*
X56583333Y-58657200D02*
X56678571Y-58704819D01*
X56678571Y-58704819D02*
X56869047Y-58704819D01*
X56869047Y-58704819D02*
X56964285Y-58657200D01*
X56964285Y-58657200D02*
X57011904Y-58609580D01*
X57011904Y-58609580D02*
X57059523Y-58514342D01*
X57059523Y-58514342D02*
X57059523Y-58323866D01*
X57059523Y-58323866D02*
X57011904Y-58228628D01*
X57011904Y-58228628D02*
X56964285Y-58181009D01*
X56964285Y-58181009D02*
X56869047Y-58133390D01*
X32571429Y-67204819D02*
X32809524Y-68204819D01*
X32809524Y-68204819D02*
X33000000Y-67490533D01*
X33000000Y-67490533D02*
X33190476Y-68204819D01*
X33190476Y-68204819D02*
X33428572Y-67204819D01*
X31440476Y-58657200D02*
X31583333Y-58704819D01*
X31583333Y-58704819D02*
X31821428Y-58704819D01*
X31821428Y-58704819D02*
X31916666Y-58657200D01*
X31916666Y-58657200D02*
X31964285Y-58609580D01*
X31964285Y-58609580D02*
X32011904Y-58514342D01*
X32011904Y-58514342D02*
X32011904Y-58419104D01*
X32011904Y-58419104D02*
X31964285Y-58323866D01*
X31964285Y-58323866D02*
X31916666Y-58276247D01*
X31916666Y-58276247D02*
X31821428Y-58228628D01*
X31821428Y-58228628D02*
X31630952Y-58181009D01*
X31630952Y-58181009D02*
X31535714Y-58133390D01*
X31535714Y-58133390D02*
X31488095Y-58085771D01*
X31488095Y-58085771D02*
X31440476Y-57990533D01*
X31440476Y-57990533D02*
X31440476Y-57895295D01*
X31440476Y-57895295D02*
X31488095Y-57800057D01*
X31488095Y-57800057D02*
X31535714Y-57752438D01*
X31535714Y-57752438D02*
X31630952Y-57704819D01*
X31630952Y-57704819D02*
X31869047Y-57704819D01*
X31869047Y-57704819D02*
X32011904Y-57752438D01*
X32345238Y-57704819D02*
X32583333Y-58704819D01*
X32583333Y-58704819D02*
X32773809Y-57990533D01*
X32773809Y-57990533D02*
X32964285Y-58704819D01*
X32964285Y-58704819D02*
X33202381Y-57704819D01*
X34107142Y-58704819D02*
X33535714Y-58704819D01*
X33821428Y-58704819D02*
X33821428Y-57704819D01*
X33821428Y-57704819D02*
X33726190Y-57847676D01*
X33726190Y-57847676D02*
X33630952Y-57942914D01*
X33630952Y-57942914D02*
X33535714Y-57990533D01*
X34964285Y-57704819D02*
X34773809Y-57704819D01*
X34773809Y-57704819D02*
X34678571Y-57752438D01*
X34678571Y-57752438D02*
X34630952Y-57800057D01*
X34630952Y-57800057D02*
X34535714Y-57942914D01*
X34535714Y-57942914D02*
X34488095Y-58133390D01*
X34488095Y-58133390D02*
X34488095Y-58514342D01*
X34488095Y-58514342D02*
X34535714Y-58609580D01*
X34535714Y-58609580D02*
X34583333Y-58657200D01*
X34583333Y-58657200D02*
X34678571Y-58704819D01*
X34678571Y-58704819D02*
X34869047Y-58704819D01*
X34869047Y-58704819D02*
X34964285Y-58657200D01*
X34964285Y-58657200D02*
X35011904Y-58609580D01*
X35011904Y-58609580D02*
X35059523Y-58514342D01*
X35059523Y-58514342D02*
X35059523Y-58276247D01*
X35059523Y-58276247D02*
X35011904Y-58181009D01*
X35011904Y-58181009D02*
X34964285Y-58133390D01*
X34964285Y-58133390D02*
X34869047Y-58085771D01*
X34869047Y-58085771D02*
X34678571Y-58085771D01*
X34678571Y-58085771D02*
X34583333Y-58133390D01*
X34583333Y-58133390D02*
X34535714Y-58181009D01*
X34535714Y-58181009D02*
X34488095Y-58276247D01*
X123698095Y-36364152D02*
X123698095Y-37030819D01*
X123460000Y-35983200D02*
X123221905Y-36697485D01*
X123221905Y-36697485D02*
X123840952Y-36697485D01*
X124126667Y-36030819D02*
X124793333Y-36030819D01*
X124793333Y-36030819D02*
X124364762Y-37030819D01*
X125364762Y-36030819D02*
X125460000Y-36030819D01*
X125460000Y-36030819D02*
X125555238Y-36078438D01*
X125555238Y-36078438D02*
X125602857Y-36126057D01*
X125602857Y-36126057D02*
X125650476Y-36221295D01*
X125650476Y-36221295D02*
X125698095Y-36411771D01*
X125698095Y-36411771D02*
X125698095Y-36649866D01*
X125698095Y-36649866D02*
X125650476Y-36840342D01*
X125650476Y-36840342D02*
X125602857Y-36935580D01*
X125602857Y-36935580D02*
X125555238Y-36983200D01*
X125555238Y-36983200D02*
X125460000Y-37030819D01*
X125460000Y-37030819D02*
X125364762Y-37030819D01*
X125364762Y-37030819D02*
X125269524Y-36983200D01*
X125269524Y-36983200D02*
X125221905Y-36935580D01*
X125221905Y-36935580D02*
X125174286Y-36840342D01*
X125174286Y-36840342D02*
X125126667Y-36649866D01*
X125126667Y-36649866D02*
X125126667Y-36411771D01*
X125126667Y-36411771D02*
X125174286Y-36221295D01*
X125174286Y-36221295D02*
X125221905Y-36126057D01*
X125221905Y-36126057D02*
X125269524Y-36078438D01*
X125269524Y-36078438D02*
X125364762Y-36030819D01*
X124293333Y-22552819D02*
X123960000Y-22076628D01*
X123721905Y-22552819D02*
X123721905Y-21552819D01*
X123721905Y-21552819D02*
X124102857Y-21552819D01*
X124102857Y-21552819D02*
X124198095Y-21600438D01*
X124198095Y-21600438D02*
X124245714Y-21648057D01*
X124245714Y-21648057D02*
X124293333Y-21743295D01*
X124293333Y-21743295D02*
X124293333Y-21886152D01*
X124293333Y-21886152D02*
X124245714Y-21981390D01*
X124245714Y-21981390D02*
X124198095Y-22029009D01*
X124198095Y-22029009D02*
X124102857Y-22076628D01*
X124102857Y-22076628D02*
X123721905Y-22076628D01*
X124674286Y-21648057D02*
X124721905Y-21600438D01*
X124721905Y-21600438D02*
X124817143Y-21552819D01*
X124817143Y-21552819D02*
X125055238Y-21552819D01*
X125055238Y-21552819D02*
X125150476Y-21600438D01*
X125150476Y-21600438D02*
X125198095Y-21648057D01*
X125198095Y-21648057D02*
X125245714Y-21743295D01*
X125245714Y-21743295D02*
X125245714Y-21838533D01*
X125245714Y-21838533D02*
X125198095Y-21981390D01*
X125198095Y-21981390D02*
X124626667Y-22552819D01*
X124626667Y-22552819D02*
X125245714Y-22552819D01*
X118952381Y-55204819D02*
X119047619Y-55204819D01*
X119047619Y-55204819D02*
X119142857Y-55252438D01*
X119142857Y-55252438D02*
X119190476Y-55300057D01*
X119190476Y-55300057D02*
X119238095Y-55395295D01*
X119238095Y-55395295D02*
X119285714Y-55585771D01*
X119285714Y-55585771D02*
X119285714Y-55823866D01*
X119285714Y-55823866D02*
X119238095Y-56014342D01*
X119238095Y-56014342D02*
X119190476Y-56109580D01*
X119190476Y-56109580D02*
X119142857Y-56157200D01*
X119142857Y-56157200D02*
X119047619Y-56204819D01*
X119047619Y-56204819D02*
X118952381Y-56204819D01*
X118952381Y-56204819D02*
X118857143Y-56157200D01*
X118857143Y-56157200D02*
X118809524Y-56109580D01*
X118809524Y-56109580D02*
X118761905Y-56014342D01*
X118761905Y-56014342D02*
X118714286Y-55823866D01*
X118714286Y-55823866D02*
X118714286Y-55585771D01*
X118714286Y-55585771D02*
X118761905Y-55395295D01*
X118761905Y-55395295D02*
X118809524Y-55300057D01*
X118809524Y-55300057D02*
X118857143Y-55252438D01*
X118857143Y-55252438D02*
X118952381Y-55204819D01*
X117190476Y-46657200D02*
X117333333Y-46704819D01*
X117333333Y-46704819D02*
X117571428Y-46704819D01*
X117571428Y-46704819D02*
X117666666Y-46657200D01*
X117666666Y-46657200D02*
X117714285Y-46609580D01*
X117714285Y-46609580D02*
X117761904Y-46514342D01*
X117761904Y-46514342D02*
X117761904Y-46419104D01*
X117761904Y-46419104D02*
X117714285Y-46323866D01*
X117714285Y-46323866D02*
X117666666Y-46276247D01*
X117666666Y-46276247D02*
X117571428Y-46228628D01*
X117571428Y-46228628D02*
X117380952Y-46181009D01*
X117380952Y-46181009D02*
X117285714Y-46133390D01*
X117285714Y-46133390D02*
X117238095Y-46085771D01*
X117238095Y-46085771D02*
X117190476Y-45990533D01*
X117190476Y-45990533D02*
X117190476Y-45895295D01*
X117190476Y-45895295D02*
X117238095Y-45800057D01*
X117238095Y-45800057D02*
X117285714Y-45752438D01*
X117285714Y-45752438D02*
X117380952Y-45704819D01*
X117380952Y-45704819D02*
X117619047Y-45704819D01*
X117619047Y-45704819D02*
X117761904Y-45752438D01*
X118095238Y-45704819D02*
X118333333Y-46704819D01*
X118333333Y-46704819D02*
X118523809Y-45990533D01*
X118523809Y-45990533D02*
X118714285Y-46704819D01*
X118714285Y-46704819D02*
X118952381Y-45704819D01*
X119857142Y-46704819D02*
X119285714Y-46704819D01*
X119571428Y-46704819D02*
X119571428Y-45704819D01*
X119571428Y-45704819D02*
X119476190Y-45847676D01*
X119476190Y-45847676D02*
X119380952Y-45942914D01*
X119380952Y-45942914D02*
X119285714Y-45990533D01*
X120809523Y-46704819D02*
X120238095Y-46704819D01*
X120523809Y-46704819D02*
X120523809Y-45704819D01*
X120523809Y-45704819D02*
X120428571Y-45847676D01*
X120428571Y-45847676D02*
X120333333Y-45942914D01*
X120333333Y-45942914D02*
X120238095Y-45990533D01*
X103632095Y-30522152D02*
X103632095Y-31188819D01*
X103394000Y-30141200D02*
X103155905Y-30855485D01*
X103155905Y-30855485D02*
X103774952Y-30855485D01*
X104060667Y-30188819D02*
X104727333Y-30188819D01*
X104727333Y-30188819D02*
X104298762Y-31188819D01*
X105298762Y-30188819D02*
X105394000Y-30188819D01*
X105394000Y-30188819D02*
X105489238Y-30236438D01*
X105489238Y-30236438D02*
X105536857Y-30284057D01*
X105536857Y-30284057D02*
X105584476Y-30379295D01*
X105584476Y-30379295D02*
X105632095Y-30569771D01*
X105632095Y-30569771D02*
X105632095Y-30807866D01*
X105632095Y-30807866D02*
X105584476Y-30998342D01*
X105584476Y-30998342D02*
X105536857Y-31093580D01*
X105536857Y-31093580D02*
X105489238Y-31141200D01*
X105489238Y-31141200D02*
X105394000Y-31188819D01*
X105394000Y-31188819D02*
X105298762Y-31188819D01*
X105298762Y-31188819D02*
X105203524Y-31141200D01*
X105203524Y-31141200D02*
X105155905Y-31093580D01*
X105155905Y-31093580D02*
X105108286Y-30998342D01*
X105108286Y-30998342D02*
X105060667Y-30807866D01*
X105060667Y-30807866D02*
X105060667Y-30569771D01*
X105060667Y-30569771D02*
X105108286Y-30379295D01*
X105108286Y-30379295D02*
X105155905Y-30284057D01*
X105155905Y-30284057D02*
X105203524Y-30236438D01*
X105203524Y-30236438D02*
X105298762Y-30188819D01*
X100671333Y-31188819D02*
X100338000Y-30712628D01*
X100099905Y-31188819D02*
X100099905Y-30188819D01*
X100099905Y-30188819D02*
X100480857Y-30188819D01*
X100480857Y-30188819D02*
X100576095Y-30236438D01*
X100576095Y-30236438D02*
X100623714Y-30284057D01*
X100623714Y-30284057D02*
X100671333Y-30379295D01*
X100671333Y-30379295D02*
X100671333Y-30522152D01*
X100671333Y-30522152D02*
X100623714Y-30617390D01*
X100623714Y-30617390D02*
X100576095Y-30665009D01*
X100576095Y-30665009D02*
X100480857Y-30712628D01*
X100480857Y-30712628D02*
X100099905Y-30712628D01*
X101623714Y-31188819D02*
X101052286Y-31188819D01*
X101338000Y-31188819D02*
X101338000Y-30188819D01*
X101338000Y-30188819D02*
X101242762Y-30331676D01*
X101242762Y-30331676D02*
X101147524Y-30426914D01*
X101147524Y-30426914D02*
X101052286Y-30474533D01*
X112299523Y-80464819D02*
X111823333Y-80464819D01*
X111823333Y-80464819D02*
X111823333Y-79464819D01*
X110440476Y-70657200D02*
X110583333Y-70704819D01*
X110583333Y-70704819D02*
X110821428Y-70704819D01*
X110821428Y-70704819D02*
X110916666Y-70657200D01*
X110916666Y-70657200D02*
X110964285Y-70609580D01*
X110964285Y-70609580D02*
X111011904Y-70514342D01*
X111011904Y-70514342D02*
X111011904Y-70419104D01*
X111011904Y-70419104D02*
X110964285Y-70323866D01*
X110964285Y-70323866D02*
X110916666Y-70276247D01*
X110916666Y-70276247D02*
X110821428Y-70228628D01*
X110821428Y-70228628D02*
X110630952Y-70181009D01*
X110630952Y-70181009D02*
X110535714Y-70133390D01*
X110535714Y-70133390D02*
X110488095Y-70085771D01*
X110488095Y-70085771D02*
X110440476Y-69990533D01*
X110440476Y-69990533D02*
X110440476Y-69895295D01*
X110440476Y-69895295D02*
X110488095Y-69800057D01*
X110488095Y-69800057D02*
X110535714Y-69752438D01*
X110535714Y-69752438D02*
X110630952Y-69704819D01*
X110630952Y-69704819D02*
X110869047Y-69704819D01*
X110869047Y-69704819D02*
X111011904Y-69752438D01*
X111345238Y-69704819D02*
X111583333Y-70704819D01*
X111583333Y-70704819D02*
X111773809Y-69990533D01*
X111773809Y-69990533D02*
X111964285Y-70704819D01*
X111964285Y-70704819D02*
X112202381Y-69704819D01*
X112488095Y-69704819D02*
X113107142Y-69704819D01*
X113107142Y-69704819D02*
X112773809Y-70085771D01*
X112773809Y-70085771D02*
X112916666Y-70085771D01*
X112916666Y-70085771D02*
X113011904Y-70133390D01*
X113011904Y-70133390D02*
X113059523Y-70181009D01*
X113059523Y-70181009D02*
X113107142Y-70276247D01*
X113107142Y-70276247D02*
X113107142Y-70514342D01*
X113107142Y-70514342D02*
X113059523Y-70609580D01*
X113059523Y-70609580D02*
X113011904Y-70657200D01*
X113011904Y-70657200D02*
X112916666Y-70704819D01*
X112916666Y-70704819D02*
X112630952Y-70704819D01*
X112630952Y-70704819D02*
X112535714Y-70657200D01*
X112535714Y-70657200D02*
X112488095Y-70609580D01*
X114011904Y-69704819D02*
X113535714Y-69704819D01*
X113535714Y-69704819D02*
X113488095Y-70181009D01*
X113488095Y-70181009D02*
X113535714Y-70133390D01*
X113535714Y-70133390D02*
X113630952Y-70085771D01*
X113630952Y-70085771D02*
X113869047Y-70085771D01*
X113869047Y-70085771D02*
X113964285Y-70133390D01*
X113964285Y-70133390D02*
X114011904Y-70181009D01*
X114011904Y-70181009D02*
X114059523Y-70276247D01*
X114059523Y-70276247D02*
X114059523Y-70514342D01*
X114059523Y-70514342D02*
X114011904Y-70609580D01*
X114011904Y-70609580D02*
X113964285Y-70657200D01*
X113964285Y-70657200D02*
X113869047Y-70704819D01*
X113869047Y-70704819D02*
X113630952Y-70704819D01*
X113630952Y-70704819D02*
X113535714Y-70657200D01*
X113535714Y-70657200D02*
X113488095Y-70609580D01*
X65714286Y-67204819D02*
X66285714Y-67204819D01*
X66000000Y-68204819D02*
X66000000Y-67204819D01*
X64440476Y-58657200D02*
X64583333Y-58704819D01*
X64583333Y-58704819D02*
X64821428Y-58704819D01*
X64821428Y-58704819D02*
X64916666Y-58657200D01*
X64916666Y-58657200D02*
X64964285Y-58609580D01*
X64964285Y-58609580D02*
X65011904Y-58514342D01*
X65011904Y-58514342D02*
X65011904Y-58419104D01*
X65011904Y-58419104D02*
X64964285Y-58323866D01*
X64964285Y-58323866D02*
X64916666Y-58276247D01*
X64916666Y-58276247D02*
X64821428Y-58228628D01*
X64821428Y-58228628D02*
X64630952Y-58181009D01*
X64630952Y-58181009D02*
X64535714Y-58133390D01*
X64535714Y-58133390D02*
X64488095Y-58085771D01*
X64488095Y-58085771D02*
X64440476Y-57990533D01*
X64440476Y-57990533D02*
X64440476Y-57895295D01*
X64440476Y-57895295D02*
X64488095Y-57800057D01*
X64488095Y-57800057D02*
X64535714Y-57752438D01*
X64535714Y-57752438D02*
X64630952Y-57704819D01*
X64630952Y-57704819D02*
X64869047Y-57704819D01*
X64869047Y-57704819D02*
X65011904Y-57752438D01*
X65345238Y-57704819D02*
X65583333Y-58704819D01*
X65583333Y-58704819D02*
X65773809Y-57990533D01*
X65773809Y-57990533D02*
X65964285Y-58704819D01*
X65964285Y-58704819D02*
X66202381Y-57704819D01*
X67107142Y-58704819D02*
X66535714Y-58704819D01*
X66821428Y-58704819D02*
X66821428Y-57704819D01*
X66821428Y-57704819D02*
X66726190Y-57847676D01*
X66726190Y-57847676D02*
X66630952Y-57942914D01*
X66630952Y-57942914D02*
X66535714Y-57990533D01*
X67583333Y-58704819D02*
X67773809Y-58704819D01*
X67773809Y-58704819D02*
X67869047Y-58657200D01*
X67869047Y-58657200D02*
X67916666Y-58609580D01*
X67916666Y-58609580D02*
X68011904Y-58466723D01*
X68011904Y-58466723D02*
X68059523Y-58276247D01*
X68059523Y-58276247D02*
X68059523Y-57895295D01*
X68059523Y-57895295D02*
X68011904Y-57800057D01*
X68011904Y-57800057D02*
X67964285Y-57752438D01*
X67964285Y-57752438D02*
X67869047Y-57704819D01*
X67869047Y-57704819D02*
X67678571Y-57704819D01*
X67678571Y-57704819D02*
X67583333Y-57752438D01*
X67583333Y-57752438D02*
X67535714Y-57800057D01*
X67535714Y-57800057D02*
X67488095Y-57895295D01*
X67488095Y-57895295D02*
X67488095Y-58133390D01*
X67488095Y-58133390D02*
X67535714Y-58228628D01*
X67535714Y-58228628D02*
X67583333Y-58276247D01*
X67583333Y-58276247D02*
X67678571Y-58323866D01*
X67678571Y-58323866D02*
X67869047Y-58323866D01*
X67869047Y-58323866D02*
X67964285Y-58276247D01*
X67964285Y-58276247D02*
X68011904Y-58228628D01*
X68011904Y-58228628D02*
X68059523Y-58133390D01*
X109904762Y-67204819D02*
X110095238Y-67204819D01*
X110095238Y-67204819D02*
X110190476Y-67252438D01*
X110190476Y-67252438D02*
X110285714Y-67347676D01*
X110285714Y-67347676D02*
X110333333Y-67538152D01*
X110333333Y-67538152D02*
X110333333Y-67871485D01*
X110333333Y-67871485D02*
X110285714Y-68061961D01*
X110285714Y-68061961D02*
X110190476Y-68157200D01*
X110190476Y-68157200D02*
X110095238Y-68204819D01*
X110095238Y-68204819D02*
X109904762Y-68204819D01*
X109904762Y-68204819D02*
X109809524Y-68157200D01*
X109809524Y-68157200D02*
X109714286Y-68061961D01*
X109714286Y-68061961D02*
X109666667Y-67871485D01*
X109666667Y-67871485D02*
X109666667Y-67538152D01*
X109666667Y-67538152D02*
X109714286Y-67347676D01*
X109714286Y-67347676D02*
X109809524Y-67252438D01*
X109809524Y-67252438D02*
X109904762Y-67204819D01*
X108440476Y-58657200D02*
X108583333Y-58704819D01*
X108583333Y-58704819D02*
X108821428Y-58704819D01*
X108821428Y-58704819D02*
X108916666Y-58657200D01*
X108916666Y-58657200D02*
X108964285Y-58609580D01*
X108964285Y-58609580D02*
X109011904Y-58514342D01*
X109011904Y-58514342D02*
X109011904Y-58419104D01*
X109011904Y-58419104D02*
X108964285Y-58323866D01*
X108964285Y-58323866D02*
X108916666Y-58276247D01*
X108916666Y-58276247D02*
X108821428Y-58228628D01*
X108821428Y-58228628D02*
X108630952Y-58181009D01*
X108630952Y-58181009D02*
X108535714Y-58133390D01*
X108535714Y-58133390D02*
X108488095Y-58085771D01*
X108488095Y-58085771D02*
X108440476Y-57990533D01*
X108440476Y-57990533D02*
X108440476Y-57895295D01*
X108440476Y-57895295D02*
X108488095Y-57800057D01*
X108488095Y-57800057D02*
X108535714Y-57752438D01*
X108535714Y-57752438D02*
X108630952Y-57704819D01*
X108630952Y-57704819D02*
X108869047Y-57704819D01*
X108869047Y-57704819D02*
X109011904Y-57752438D01*
X109345238Y-57704819D02*
X109583333Y-58704819D01*
X109583333Y-58704819D02*
X109773809Y-57990533D01*
X109773809Y-57990533D02*
X109964285Y-58704819D01*
X109964285Y-58704819D02*
X110202381Y-57704819D01*
X110535714Y-57800057D02*
X110583333Y-57752438D01*
X110583333Y-57752438D02*
X110678571Y-57704819D01*
X110678571Y-57704819D02*
X110916666Y-57704819D01*
X110916666Y-57704819D02*
X111011904Y-57752438D01*
X111011904Y-57752438D02*
X111059523Y-57800057D01*
X111059523Y-57800057D02*
X111107142Y-57895295D01*
X111107142Y-57895295D02*
X111107142Y-57990533D01*
X111107142Y-57990533D02*
X111059523Y-58133390D01*
X111059523Y-58133390D02*
X110488095Y-58704819D01*
X110488095Y-58704819D02*
X111107142Y-58704819D01*
X111440476Y-57704819D02*
X112059523Y-57704819D01*
X112059523Y-57704819D02*
X111726190Y-58085771D01*
X111726190Y-58085771D02*
X111869047Y-58085771D01*
X111869047Y-58085771D02*
X111964285Y-58133390D01*
X111964285Y-58133390D02*
X112011904Y-58181009D01*
X112011904Y-58181009D02*
X112059523Y-58276247D01*
X112059523Y-58276247D02*
X112059523Y-58514342D01*
X112059523Y-58514342D02*
X112011904Y-58609580D01*
X112011904Y-58609580D02*
X111964285Y-58657200D01*
X111964285Y-58657200D02*
X111869047Y-58704819D01*
X111869047Y-58704819D02*
X111583333Y-58704819D01*
X111583333Y-58704819D02*
X111488095Y-58657200D01*
X111488095Y-58657200D02*
X111440476Y-58609580D01*
X125251905Y-79464819D02*
X125251905Y-80274342D01*
X125251905Y-80274342D02*
X125299524Y-80369580D01*
X125299524Y-80369580D02*
X125347143Y-80417200D01*
X125347143Y-80417200D02*
X125442381Y-80464819D01*
X125442381Y-80464819D02*
X125632857Y-80464819D01*
X125632857Y-80464819D02*
X125728095Y-80417200D01*
X125728095Y-80417200D02*
X125775714Y-80369580D01*
X125775714Y-80369580D02*
X125823333Y-80274342D01*
X125823333Y-80274342D02*
X125823333Y-79464819D01*
X126299524Y-79798152D02*
X126299524Y-80798152D01*
X126299524Y-79845771D02*
X126394762Y-79798152D01*
X126394762Y-79798152D02*
X126585238Y-79798152D01*
X126585238Y-79798152D02*
X126680476Y-79845771D01*
X126680476Y-79845771D02*
X126728095Y-79893390D01*
X126728095Y-79893390D02*
X126775714Y-79988628D01*
X126775714Y-79988628D02*
X126775714Y-80274342D01*
X126775714Y-80274342D02*
X126728095Y-80369580D01*
X126728095Y-80369580D02*
X126680476Y-80417200D01*
X126680476Y-80417200D02*
X126585238Y-80464819D01*
X126585238Y-80464819D02*
X126394762Y-80464819D01*
X126394762Y-80464819D02*
X126299524Y-80417200D01*
X124440476Y-70657200D02*
X124583333Y-70704819D01*
X124583333Y-70704819D02*
X124821428Y-70704819D01*
X124821428Y-70704819D02*
X124916666Y-70657200D01*
X124916666Y-70657200D02*
X124964285Y-70609580D01*
X124964285Y-70609580D02*
X125011904Y-70514342D01*
X125011904Y-70514342D02*
X125011904Y-70419104D01*
X125011904Y-70419104D02*
X124964285Y-70323866D01*
X124964285Y-70323866D02*
X124916666Y-70276247D01*
X124916666Y-70276247D02*
X124821428Y-70228628D01*
X124821428Y-70228628D02*
X124630952Y-70181009D01*
X124630952Y-70181009D02*
X124535714Y-70133390D01*
X124535714Y-70133390D02*
X124488095Y-70085771D01*
X124488095Y-70085771D02*
X124440476Y-69990533D01*
X124440476Y-69990533D02*
X124440476Y-69895295D01*
X124440476Y-69895295D02*
X124488095Y-69800057D01*
X124488095Y-69800057D02*
X124535714Y-69752438D01*
X124535714Y-69752438D02*
X124630952Y-69704819D01*
X124630952Y-69704819D02*
X124869047Y-69704819D01*
X124869047Y-69704819D02*
X125011904Y-69752438D01*
X125345238Y-69704819D02*
X125583333Y-70704819D01*
X125583333Y-70704819D02*
X125773809Y-69990533D01*
X125773809Y-69990533D02*
X125964285Y-70704819D01*
X125964285Y-70704819D02*
X126202381Y-69704819D01*
X126488095Y-69704819D02*
X127107142Y-69704819D01*
X127107142Y-69704819D02*
X126773809Y-70085771D01*
X126773809Y-70085771D02*
X126916666Y-70085771D01*
X126916666Y-70085771D02*
X127011904Y-70133390D01*
X127011904Y-70133390D02*
X127059523Y-70181009D01*
X127059523Y-70181009D02*
X127107142Y-70276247D01*
X127107142Y-70276247D02*
X127107142Y-70514342D01*
X127107142Y-70514342D02*
X127059523Y-70609580D01*
X127059523Y-70609580D02*
X127011904Y-70657200D01*
X127011904Y-70657200D02*
X126916666Y-70704819D01*
X126916666Y-70704819D02*
X126630952Y-70704819D01*
X126630952Y-70704819D02*
X126535714Y-70657200D01*
X126535714Y-70657200D02*
X126488095Y-70609580D01*
X127964285Y-69704819D02*
X127773809Y-69704819D01*
X127773809Y-69704819D02*
X127678571Y-69752438D01*
X127678571Y-69752438D02*
X127630952Y-69800057D01*
X127630952Y-69800057D02*
X127535714Y-69942914D01*
X127535714Y-69942914D02*
X127488095Y-70133390D01*
X127488095Y-70133390D02*
X127488095Y-70514342D01*
X127488095Y-70514342D02*
X127535714Y-70609580D01*
X127535714Y-70609580D02*
X127583333Y-70657200D01*
X127583333Y-70657200D02*
X127678571Y-70704819D01*
X127678571Y-70704819D02*
X127869047Y-70704819D01*
X127869047Y-70704819D02*
X127964285Y-70657200D01*
X127964285Y-70657200D02*
X128011904Y-70609580D01*
X128011904Y-70609580D02*
X128059523Y-70514342D01*
X128059523Y-70514342D02*
X128059523Y-70276247D01*
X128059523Y-70276247D02*
X128011904Y-70181009D01*
X128011904Y-70181009D02*
X127964285Y-70133390D01*
X127964285Y-70133390D02*
X127869047Y-70085771D01*
X127869047Y-70085771D02*
X127678571Y-70085771D01*
X127678571Y-70085771D02*
X127583333Y-70133390D01*
X127583333Y-70133390D02*
X127535714Y-70181009D01*
X127535714Y-70181009D02*
X127488095Y-70276247D01*
X90132857Y-79464819D02*
X90132857Y-80179104D01*
X90132857Y-80179104D02*
X90085238Y-80321961D01*
X90085238Y-80321961D02*
X89990000Y-80417200D01*
X89990000Y-80417200D02*
X89847143Y-80464819D01*
X89847143Y-80464819D02*
X89751905Y-80464819D01*
X88440476Y-70657200D02*
X88583333Y-70704819D01*
X88583333Y-70704819D02*
X88821428Y-70704819D01*
X88821428Y-70704819D02*
X88916666Y-70657200D01*
X88916666Y-70657200D02*
X88964285Y-70609580D01*
X88964285Y-70609580D02*
X89011904Y-70514342D01*
X89011904Y-70514342D02*
X89011904Y-70419104D01*
X89011904Y-70419104D02*
X88964285Y-70323866D01*
X88964285Y-70323866D02*
X88916666Y-70276247D01*
X88916666Y-70276247D02*
X88821428Y-70228628D01*
X88821428Y-70228628D02*
X88630952Y-70181009D01*
X88630952Y-70181009D02*
X88535714Y-70133390D01*
X88535714Y-70133390D02*
X88488095Y-70085771D01*
X88488095Y-70085771D02*
X88440476Y-69990533D01*
X88440476Y-69990533D02*
X88440476Y-69895295D01*
X88440476Y-69895295D02*
X88488095Y-69800057D01*
X88488095Y-69800057D02*
X88535714Y-69752438D01*
X88535714Y-69752438D02*
X88630952Y-69704819D01*
X88630952Y-69704819D02*
X88869047Y-69704819D01*
X88869047Y-69704819D02*
X89011904Y-69752438D01*
X89345238Y-69704819D02*
X89583333Y-70704819D01*
X89583333Y-70704819D02*
X89773809Y-69990533D01*
X89773809Y-69990533D02*
X89964285Y-70704819D01*
X89964285Y-70704819D02*
X90202381Y-69704819D01*
X90488095Y-69704819D02*
X91107142Y-69704819D01*
X91107142Y-69704819D02*
X90773809Y-70085771D01*
X90773809Y-70085771D02*
X90916666Y-70085771D01*
X90916666Y-70085771D02*
X91011904Y-70133390D01*
X91011904Y-70133390D02*
X91059523Y-70181009D01*
X91059523Y-70181009D02*
X91107142Y-70276247D01*
X91107142Y-70276247D02*
X91107142Y-70514342D01*
X91107142Y-70514342D02*
X91059523Y-70609580D01*
X91059523Y-70609580D02*
X91011904Y-70657200D01*
X91011904Y-70657200D02*
X90916666Y-70704819D01*
X90916666Y-70704819D02*
X90630952Y-70704819D01*
X90630952Y-70704819D02*
X90535714Y-70657200D01*
X90535714Y-70657200D02*
X90488095Y-70609580D01*
X91440476Y-69704819D02*
X92059523Y-69704819D01*
X92059523Y-69704819D02*
X91726190Y-70085771D01*
X91726190Y-70085771D02*
X91869047Y-70085771D01*
X91869047Y-70085771D02*
X91964285Y-70133390D01*
X91964285Y-70133390D02*
X92011904Y-70181009D01*
X92011904Y-70181009D02*
X92059523Y-70276247D01*
X92059523Y-70276247D02*
X92059523Y-70514342D01*
X92059523Y-70514342D02*
X92011904Y-70609580D01*
X92011904Y-70609580D02*
X91964285Y-70657200D01*
X91964285Y-70657200D02*
X91869047Y-70704819D01*
X91869047Y-70704819D02*
X91583333Y-70704819D01*
X91583333Y-70704819D02*
X91488095Y-70657200D01*
X91488095Y-70657200D02*
X91440476Y-70609580D01*
X42166667Y-91204819D02*
X42833333Y-92204819D01*
X42833333Y-91204819D02*
X42166667Y-92204819D01*
X41190476Y-82657200D02*
X41333333Y-82704819D01*
X41333333Y-82704819D02*
X41571428Y-82704819D01*
X41571428Y-82704819D02*
X41666666Y-82657200D01*
X41666666Y-82657200D02*
X41714285Y-82609580D01*
X41714285Y-82609580D02*
X41761904Y-82514342D01*
X41761904Y-82514342D02*
X41761904Y-82419104D01*
X41761904Y-82419104D02*
X41714285Y-82323866D01*
X41714285Y-82323866D02*
X41666666Y-82276247D01*
X41666666Y-82276247D02*
X41571428Y-82228628D01*
X41571428Y-82228628D02*
X41380952Y-82181009D01*
X41380952Y-82181009D02*
X41285714Y-82133390D01*
X41285714Y-82133390D02*
X41238095Y-82085771D01*
X41238095Y-82085771D02*
X41190476Y-81990533D01*
X41190476Y-81990533D02*
X41190476Y-81895295D01*
X41190476Y-81895295D02*
X41238095Y-81800057D01*
X41238095Y-81800057D02*
X41285714Y-81752438D01*
X41285714Y-81752438D02*
X41380952Y-81704819D01*
X41380952Y-81704819D02*
X41619047Y-81704819D01*
X41619047Y-81704819D02*
X41761904Y-81752438D01*
X42095238Y-81704819D02*
X42333333Y-82704819D01*
X42333333Y-82704819D02*
X42523809Y-81990533D01*
X42523809Y-81990533D02*
X42714285Y-82704819D01*
X42714285Y-82704819D02*
X42952381Y-81704819D01*
X43761904Y-82038152D02*
X43761904Y-82704819D01*
X43523809Y-81657200D02*
X43285714Y-82371485D01*
X43285714Y-82371485D02*
X43904761Y-82371485D01*
X44809523Y-82704819D02*
X44238095Y-82704819D01*
X44523809Y-82704819D02*
X44523809Y-81704819D01*
X44523809Y-81704819D02*
X44428571Y-81847676D01*
X44428571Y-81847676D02*
X44333333Y-81942914D01*
X44333333Y-81942914D02*
X44238095Y-81990533D01*
X120738095Y-68204819D02*
X120738095Y-67204819D01*
X120738095Y-67204819D02*
X121119047Y-67204819D01*
X121119047Y-67204819D02*
X121214285Y-67252438D01*
X121214285Y-67252438D02*
X121261904Y-67300057D01*
X121261904Y-67300057D02*
X121309523Y-67395295D01*
X121309523Y-67395295D02*
X121309523Y-67538152D01*
X121309523Y-67538152D02*
X121261904Y-67633390D01*
X121261904Y-67633390D02*
X121214285Y-67681009D01*
X121214285Y-67681009D02*
X121119047Y-67728628D01*
X121119047Y-67728628D02*
X120738095Y-67728628D01*
X119440476Y-58657200D02*
X119583333Y-58704819D01*
X119583333Y-58704819D02*
X119821428Y-58704819D01*
X119821428Y-58704819D02*
X119916666Y-58657200D01*
X119916666Y-58657200D02*
X119964285Y-58609580D01*
X119964285Y-58609580D02*
X120011904Y-58514342D01*
X120011904Y-58514342D02*
X120011904Y-58419104D01*
X120011904Y-58419104D02*
X119964285Y-58323866D01*
X119964285Y-58323866D02*
X119916666Y-58276247D01*
X119916666Y-58276247D02*
X119821428Y-58228628D01*
X119821428Y-58228628D02*
X119630952Y-58181009D01*
X119630952Y-58181009D02*
X119535714Y-58133390D01*
X119535714Y-58133390D02*
X119488095Y-58085771D01*
X119488095Y-58085771D02*
X119440476Y-57990533D01*
X119440476Y-57990533D02*
X119440476Y-57895295D01*
X119440476Y-57895295D02*
X119488095Y-57800057D01*
X119488095Y-57800057D02*
X119535714Y-57752438D01*
X119535714Y-57752438D02*
X119630952Y-57704819D01*
X119630952Y-57704819D02*
X119869047Y-57704819D01*
X119869047Y-57704819D02*
X120011904Y-57752438D01*
X120345238Y-57704819D02*
X120583333Y-58704819D01*
X120583333Y-58704819D02*
X120773809Y-57990533D01*
X120773809Y-57990533D02*
X120964285Y-58704819D01*
X120964285Y-58704819D02*
X121202381Y-57704819D01*
X121535714Y-57800057D02*
X121583333Y-57752438D01*
X121583333Y-57752438D02*
X121678571Y-57704819D01*
X121678571Y-57704819D02*
X121916666Y-57704819D01*
X121916666Y-57704819D02*
X122011904Y-57752438D01*
X122011904Y-57752438D02*
X122059523Y-57800057D01*
X122059523Y-57800057D02*
X122107142Y-57895295D01*
X122107142Y-57895295D02*
X122107142Y-57990533D01*
X122107142Y-57990533D02*
X122059523Y-58133390D01*
X122059523Y-58133390D02*
X121488095Y-58704819D01*
X121488095Y-58704819D02*
X122107142Y-58704819D01*
X122964285Y-58038152D02*
X122964285Y-58704819D01*
X122726190Y-57657200D02*
X122488095Y-58371485D01*
X122488095Y-58371485D02*
X123107142Y-58371485D01*
X100728095Y-80464819D02*
X100728095Y-79464819D01*
X101299523Y-80464819D02*
X100870952Y-79893390D01*
X101299523Y-79464819D02*
X100728095Y-80036247D01*
X99440476Y-70657200D02*
X99583333Y-70704819D01*
X99583333Y-70704819D02*
X99821428Y-70704819D01*
X99821428Y-70704819D02*
X99916666Y-70657200D01*
X99916666Y-70657200D02*
X99964285Y-70609580D01*
X99964285Y-70609580D02*
X100011904Y-70514342D01*
X100011904Y-70514342D02*
X100011904Y-70419104D01*
X100011904Y-70419104D02*
X99964285Y-70323866D01*
X99964285Y-70323866D02*
X99916666Y-70276247D01*
X99916666Y-70276247D02*
X99821428Y-70228628D01*
X99821428Y-70228628D02*
X99630952Y-70181009D01*
X99630952Y-70181009D02*
X99535714Y-70133390D01*
X99535714Y-70133390D02*
X99488095Y-70085771D01*
X99488095Y-70085771D02*
X99440476Y-69990533D01*
X99440476Y-69990533D02*
X99440476Y-69895295D01*
X99440476Y-69895295D02*
X99488095Y-69800057D01*
X99488095Y-69800057D02*
X99535714Y-69752438D01*
X99535714Y-69752438D02*
X99630952Y-69704819D01*
X99630952Y-69704819D02*
X99869047Y-69704819D01*
X99869047Y-69704819D02*
X100011904Y-69752438D01*
X100345238Y-69704819D02*
X100583333Y-70704819D01*
X100583333Y-70704819D02*
X100773809Y-69990533D01*
X100773809Y-69990533D02*
X100964285Y-70704819D01*
X100964285Y-70704819D02*
X101202381Y-69704819D01*
X101488095Y-69704819D02*
X102107142Y-69704819D01*
X102107142Y-69704819D02*
X101773809Y-70085771D01*
X101773809Y-70085771D02*
X101916666Y-70085771D01*
X101916666Y-70085771D02*
X102011904Y-70133390D01*
X102011904Y-70133390D02*
X102059523Y-70181009D01*
X102059523Y-70181009D02*
X102107142Y-70276247D01*
X102107142Y-70276247D02*
X102107142Y-70514342D01*
X102107142Y-70514342D02*
X102059523Y-70609580D01*
X102059523Y-70609580D02*
X102011904Y-70657200D01*
X102011904Y-70657200D02*
X101916666Y-70704819D01*
X101916666Y-70704819D02*
X101630952Y-70704819D01*
X101630952Y-70704819D02*
X101535714Y-70657200D01*
X101535714Y-70657200D02*
X101488095Y-70609580D01*
X102964285Y-70038152D02*
X102964285Y-70704819D01*
X102726190Y-69657200D02*
X102488095Y-70371485D01*
X102488095Y-70371485D02*
X103107142Y-70371485D01*
X64166667Y-91204819D02*
X64500000Y-92204819D01*
X64500000Y-92204819D02*
X64833333Y-91204819D01*
X63190476Y-82657200D02*
X63333333Y-82704819D01*
X63333333Y-82704819D02*
X63571428Y-82704819D01*
X63571428Y-82704819D02*
X63666666Y-82657200D01*
X63666666Y-82657200D02*
X63714285Y-82609580D01*
X63714285Y-82609580D02*
X63761904Y-82514342D01*
X63761904Y-82514342D02*
X63761904Y-82419104D01*
X63761904Y-82419104D02*
X63714285Y-82323866D01*
X63714285Y-82323866D02*
X63666666Y-82276247D01*
X63666666Y-82276247D02*
X63571428Y-82228628D01*
X63571428Y-82228628D02*
X63380952Y-82181009D01*
X63380952Y-82181009D02*
X63285714Y-82133390D01*
X63285714Y-82133390D02*
X63238095Y-82085771D01*
X63238095Y-82085771D02*
X63190476Y-81990533D01*
X63190476Y-81990533D02*
X63190476Y-81895295D01*
X63190476Y-81895295D02*
X63238095Y-81800057D01*
X63238095Y-81800057D02*
X63285714Y-81752438D01*
X63285714Y-81752438D02*
X63380952Y-81704819D01*
X63380952Y-81704819D02*
X63619047Y-81704819D01*
X63619047Y-81704819D02*
X63761904Y-81752438D01*
X64095238Y-81704819D02*
X64333333Y-82704819D01*
X64333333Y-82704819D02*
X64523809Y-81990533D01*
X64523809Y-81990533D02*
X64714285Y-82704819D01*
X64714285Y-82704819D02*
X64952381Y-81704819D01*
X65761904Y-82038152D02*
X65761904Y-82704819D01*
X65523809Y-81657200D02*
X65285714Y-82371485D01*
X65285714Y-82371485D02*
X65904761Y-82371485D01*
X66190476Y-81704819D02*
X66809523Y-81704819D01*
X66809523Y-81704819D02*
X66476190Y-82085771D01*
X66476190Y-82085771D02*
X66619047Y-82085771D01*
X66619047Y-82085771D02*
X66714285Y-82133390D01*
X66714285Y-82133390D02*
X66761904Y-82181009D01*
X66761904Y-82181009D02*
X66809523Y-82276247D01*
X66809523Y-82276247D02*
X66809523Y-82514342D01*
X66809523Y-82514342D02*
X66761904Y-82609580D01*
X66761904Y-82609580D02*
X66714285Y-82657200D01*
X66714285Y-82657200D02*
X66619047Y-82704819D01*
X66619047Y-82704819D02*
X66333333Y-82704819D01*
X66333333Y-82704819D02*
X66238095Y-82657200D01*
X66238095Y-82657200D02*
X66190476Y-82609580D01*
X85666667Y-55204819D02*
X86333333Y-55204819D01*
X86333333Y-55204819D02*
X85904762Y-56204819D01*
X84666667Y-46657200D02*
X84809524Y-46704819D01*
X84809524Y-46704819D02*
X85047619Y-46704819D01*
X85047619Y-46704819D02*
X85142857Y-46657200D01*
X85142857Y-46657200D02*
X85190476Y-46609580D01*
X85190476Y-46609580D02*
X85238095Y-46514342D01*
X85238095Y-46514342D02*
X85238095Y-46419104D01*
X85238095Y-46419104D02*
X85190476Y-46323866D01*
X85190476Y-46323866D02*
X85142857Y-46276247D01*
X85142857Y-46276247D02*
X85047619Y-46228628D01*
X85047619Y-46228628D02*
X84857143Y-46181009D01*
X84857143Y-46181009D02*
X84761905Y-46133390D01*
X84761905Y-46133390D02*
X84714286Y-46085771D01*
X84714286Y-46085771D02*
X84666667Y-45990533D01*
X84666667Y-45990533D02*
X84666667Y-45895295D01*
X84666667Y-45895295D02*
X84714286Y-45800057D01*
X84714286Y-45800057D02*
X84761905Y-45752438D01*
X84761905Y-45752438D02*
X84857143Y-45704819D01*
X84857143Y-45704819D02*
X85095238Y-45704819D01*
X85095238Y-45704819D02*
X85238095Y-45752438D01*
X85571429Y-45704819D02*
X85809524Y-46704819D01*
X85809524Y-46704819D02*
X86000000Y-45990533D01*
X86000000Y-45990533D02*
X86190476Y-46704819D01*
X86190476Y-46704819D02*
X86428572Y-45704819D01*
X86952381Y-46133390D02*
X86857143Y-46085771D01*
X86857143Y-46085771D02*
X86809524Y-46038152D01*
X86809524Y-46038152D02*
X86761905Y-45942914D01*
X86761905Y-45942914D02*
X86761905Y-45895295D01*
X86761905Y-45895295D02*
X86809524Y-45800057D01*
X86809524Y-45800057D02*
X86857143Y-45752438D01*
X86857143Y-45752438D02*
X86952381Y-45704819D01*
X86952381Y-45704819D02*
X87142857Y-45704819D01*
X87142857Y-45704819D02*
X87238095Y-45752438D01*
X87238095Y-45752438D02*
X87285714Y-45800057D01*
X87285714Y-45800057D02*
X87333333Y-45895295D01*
X87333333Y-45895295D02*
X87333333Y-45942914D01*
X87333333Y-45942914D02*
X87285714Y-46038152D01*
X87285714Y-46038152D02*
X87238095Y-46085771D01*
X87238095Y-46085771D02*
X87142857Y-46133390D01*
X87142857Y-46133390D02*
X86952381Y-46133390D01*
X86952381Y-46133390D02*
X86857143Y-46181009D01*
X86857143Y-46181009D02*
X86809524Y-46228628D01*
X86809524Y-46228628D02*
X86761905Y-46323866D01*
X86761905Y-46323866D02*
X86761905Y-46514342D01*
X86761905Y-46514342D02*
X86809524Y-46609580D01*
X86809524Y-46609580D02*
X86857143Y-46657200D01*
X86857143Y-46657200D02*
X86952381Y-46704819D01*
X86952381Y-46704819D02*
X87142857Y-46704819D01*
X87142857Y-46704819D02*
X87238095Y-46657200D01*
X87238095Y-46657200D02*
X87285714Y-46609580D01*
X87285714Y-46609580D02*
X87333333Y-46514342D01*
X87333333Y-46514342D02*
X87333333Y-46323866D01*
X87333333Y-46323866D02*
X87285714Y-46228628D01*
X87285714Y-46228628D02*
X87238095Y-46181009D01*
X87238095Y-46181009D02*
X87142857Y-46133390D01*
X53190476Y-55538152D02*
X53190476Y-56204819D01*
X52952381Y-55157200D02*
X52714286Y-55871485D01*
X52714286Y-55871485D02*
X53333333Y-55871485D01*
X51666667Y-46657200D02*
X51809524Y-46704819D01*
X51809524Y-46704819D02*
X52047619Y-46704819D01*
X52047619Y-46704819D02*
X52142857Y-46657200D01*
X52142857Y-46657200D02*
X52190476Y-46609580D01*
X52190476Y-46609580D02*
X52238095Y-46514342D01*
X52238095Y-46514342D02*
X52238095Y-46419104D01*
X52238095Y-46419104D02*
X52190476Y-46323866D01*
X52190476Y-46323866D02*
X52142857Y-46276247D01*
X52142857Y-46276247D02*
X52047619Y-46228628D01*
X52047619Y-46228628D02*
X51857143Y-46181009D01*
X51857143Y-46181009D02*
X51761905Y-46133390D01*
X51761905Y-46133390D02*
X51714286Y-46085771D01*
X51714286Y-46085771D02*
X51666667Y-45990533D01*
X51666667Y-45990533D02*
X51666667Y-45895295D01*
X51666667Y-45895295D02*
X51714286Y-45800057D01*
X51714286Y-45800057D02*
X51761905Y-45752438D01*
X51761905Y-45752438D02*
X51857143Y-45704819D01*
X51857143Y-45704819D02*
X52095238Y-45704819D01*
X52095238Y-45704819D02*
X52238095Y-45752438D01*
X52571429Y-45704819D02*
X52809524Y-46704819D01*
X52809524Y-46704819D02*
X53000000Y-45990533D01*
X53000000Y-45990533D02*
X53190476Y-46704819D01*
X53190476Y-46704819D02*
X53428572Y-45704819D01*
X54285714Y-45704819D02*
X53809524Y-45704819D01*
X53809524Y-45704819D02*
X53761905Y-46181009D01*
X53761905Y-46181009D02*
X53809524Y-46133390D01*
X53809524Y-46133390D02*
X53904762Y-46085771D01*
X53904762Y-46085771D02*
X54142857Y-46085771D01*
X54142857Y-46085771D02*
X54238095Y-46133390D01*
X54238095Y-46133390D02*
X54285714Y-46181009D01*
X54285714Y-46181009D02*
X54333333Y-46276247D01*
X54333333Y-46276247D02*
X54333333Y-46514342D01*
X54333333Y-46514342D02*
X54285714Y-46609580D01*
X54285714Y-46609580D02*
X54238095Y-46657200D01*
X54238095Y-46657200D02*
X54142857Y-46704819D01*
X54142857Y-46704819D02*
X53904762Y-46704819D01*
X53904762Y-46704819D02*
X53809524Y-46657200D01*
X53809524Y-46657200D02*
X53761905Y-46609580D01*
X129958030Y-34176819D02*
X129386602Y-34176819D01*
X129672316Y-34176819D02*
X129672316Y-33176819D01*
X129672316Y-33176819D02*
X129577078Y-33319676D01*
X129577078Y-33319676D02*
X129481840Y-33414914D01*
X129481840Y-33414914D02*
X129386602Y-33462533D01*
X130577078Y-33176819D02*
X130672316Y-33176819D01*
X130672316Y-33176819D02*
X130767554Y-33224438D01*
X130767554Y-33224438D02*
X130815173Y-33272057D01*
X130815173Y-33272057D02*
X130862792Y-33367295D01*
X130862792Y-33367295D02*
X130910411Y-33557771D01*
X130910411Y-33557771D02*
X130910411Y-33795866D01*
X130910411Y-33795866D02*
X130862792Y-33986342D01*
X130862792Y-33986342D02*
X130815173Y-34081580D01*
X130815173Y-34081580D02*
X130767554Y-34129200D01*
X130767554Y-34129200D02*
X130672316Y-34176819D01*
X130672316Y-34176819D02*
X130577078Y-34176819D01*
X130577078Y-34176819D02*
X130481840Y-34129200D01*
X130481840Y-34129200D02*
X130434221Y-34081580D01*
X130434221Y-34081580D02*
X130386602Y-33986342D01*
X130386602Y-33986342D02*
X130338983Y-33795866D01*
X130338983Y-33795866D02*
X130338983Y-33557771D01*
X130338983Y-33557771D02*
X130386602Y-33367295D01*
X130386602Y-33367295D02*
X130434221Y-33272057D01*
X130434221Y-33272057D02*
X130481840Y-33224438D01*
X130481840Y-33224438D02*
X130577078Y-33176819D01*
X131767554Y-33510152D02*
X131767554Y-34176819D01*
X131338983Y-33510152D02*
X131338983Y-34033961D01*
X131338983Y-34033961D02*
X131386602Y-34129200D01*
X131386602Y-34129200D02*
X131481840Y-34176819D01*
X131481840Y-34176819D02*
X131624697Y-34176819D01*
X131624697Y-34176819D02*
X131719935Y-34129200D01*
X131719935Y-34129200D02*
X131767554Y-34081580D01*
X130389333Y-26521580D02*
X130341714Y-26569200D01*
X130341714Y-26569200D02*
X130198857Y-26616819D01*
X130198857Y-26616819D02*
X130103619Y-26616819D01*
X130103619Y-26616819D02*
X129960762Y-26569200D01*
X129960762Y-26569200D02*
X129865524Y-26473961D01*
X129865524Y-26473961D02*
X129817905Y-26378723D01*
X129817905Y-26378723D02*
X129770286Y-26188247D01*
X129770286Y-26188247D02*
X129770286Y-26045390D01*
X129770286Y-26045390D02*
X129817905Y-25854914D01*
X129817905Y-25854914D02*
X129865524Y-25759676D01*
X129865524Y-25759676D02*
X129960762Y-25664438D01*
X129960762Y-25664438D02*
X130103619Y-25616819D01*
X130103619Y-25616819D02*
X130198857Y-25616819D01*
X130198857Y-25616819D02*
X130341714Y-25664438D01*
X130341714Y-25664438D02*
X130389333Y-25712057D01*
X130770286Y-25712057D02*
X130817905Y-25664438D01*
X130817905Y-25664438D02*
X130913143Y-25616819D01*
X130913143Y-25616819D02*
X131151238Y-25616819D01*
X131151238Y-25616819D02*
X131246476Y-25664438D01*
X131246476Y-25664438D02*
X131294095Y-25712057D01*
X131294095Y-25712057D02*
X131341714Y-25807295D01*
X131341714Y-25807295D02*
X131341714Y-25902533D01*
X131341714Y-25902533D02*
X131294095Y-26045390D01*
X131294095Y-26045390D02*
X130722667Y-26616819D01*
X130722667Y-26616819D02*
X131341714Y-26616819D01*
X139299523Y-79941009D02*
X139632856Y-79941009D01*
X139775713Y-80464819D02*
X139299523Y-80464819D01*
X139299523Y-80464819D02*
X139299523Y-79464819D01*
X139299523Y-79464819D02*
X139775713Y-79464819D01*
X140204285Y-79798152D02*
X140204285Y-80464819D01*
X140204285Y-79893390D02*
X140251904Y-79845771D01*
X140251904Y-79845771D02*
X140347142Y-79798152D01*
X140347142Y-79798152D02*
X140489999Y-79798152D01*
X140489999Y-79798152D02*
X140585237Y-79845771D01*
X140585237Y-79845771D02*
X140632856Y-79941009D01*
X140632856Y-79941009D02*
X140632856Y-80464819D01*
X140966190Y-79798152D02*
X141347142Y-79798152D01*
X141109047Y-79464819D02*
X141109047Y-80321961D01*
X141109047Y-80321961D02*
X141156666Y-80417200D01*
X141156666Y-80417200D02*
X141251904Y-80464819D01*
X141251904Y-80464819D02*
X141347142Y-80464819D01*
X142061428Y-80417200D02*
X141966190Y-80464819D01*
X141966190Y-80464819D02*
X141775714Y-80464819D01*
X141775714Y-80464819D02*
X141680476Y-80417200D01*
X141680476Y-80417200D02*
X141632857Y-80321961D01*
X141632857Y-80321961D02*
X141632857Y-79941009D01*
X141632857Y-79941009D02*
X141680476Y-79845771D01*
X141680476Y-79845771D02*
X141775714Y-79798152D01*
X141775714Y-79798152D02*
X141966190Y-79798152D01*
X141966190Y-79798152D02*
X142061428Y-79845771D01*
X142061428Y-79845771D02*
X142109047Y-79941009D01*
X142109047Y-79941009D02*
X142109047Y-80036247D01*
X142109047Y-80036247D02*
X141632857Y-80131485D01*
X142537619Y-80464819D02*
X142537619Y-79798152D01*
X142537619Y-79988628D02*
X142585238Y-79893390D01*
X142585238Y-79893390D02*
X142632857Y-79845771D01*
X142632857Y-79845771D02*
X142728095Y-79798152D01*
X142728095Y-79798152D02*
X142823333Y-79798152D01*
X139440476Y-70657200D02*
X139583333Y-70704819D01*
X139583333Y-70704819D02*
X139821428Y-70704819D01*
X139821428Y-70704819D02*
X139916666Y-70657200D01*
X139916666Y-70657200D02*
X139964285Y-70609580D01*
X139964285Y-70609580D02*
X140011904Y-70514342D01*
X140011904Y-70514342D02*
X140011904Y-70419104D01*
X140011904Y-70419104D02*
X139964285Y-70323866D01*
X139964285Y-70323866D02*
X139916666Y-70276247D01*
X139916666Y-70276247D02*
X139821428Y-70228628D01*
X139821428Y-70228628D02*
X139630952Y-70181009D01*
X139630952Y-70181009D02*
X139535714Y-70133390D01*
X139535714Y-70133390D02*
X139488095Y-70085771D01*
X139488095Y-70085771D02*
X139440476Y-69990533D01*
X139440476Y-69990533D02*
X139440476Y-69895295D01*
X139440476Y-69895295D02*
X139488095Y-69800057D01*
X139488095Y-69800057D02*
X139535714Y-69752438D01*
X139535714Y-69752438D02*
X139630952Y-69704819D01*
X139630952Y-69704819D02*
X139869047Y-69704819D01*
X139869047Y-69704819D02*
X140011904Y-69752438D01*
X140345238Y-69704819D02*
X140583333Y-70704819D01*
X140583333Y-70704819D02*
X140773809Y-69990533D01*
X140773809Y-69990533D02*
X140964285Y-70704819D01*
X140964285Y-70704819D02*
X141202381Y-69704819D01*
X141488095Y-69704819D02*
X142107142Y-69704819D01*
X142107142Y-69704819D02*
X141773809Y-70085771D01*
X141773809Y-70085771D02*
X141916666Y-70085771D01*
X141916666Y-70085771D02*
X142011904Y-70133390D01*
X142011904Y-70133390D02*
X142059523Y-70181009D01*
X142059523Y-70181009D02*
X142107142Y-70276247D01*
X142107142Y-70276247D02*
X142107142Y-70514342D01*
X142107142Y-70514342D02*
X142059523Y-70609580D01*
X142059523Y-70609580D02*
X142011904Y-70657200D01*
X142011904Y-70657200D02*
X141916666Y-70704819D01*
X141916666Y-70704819D02*
X141630952Y-70704819D01*
X141630952Y-70704819D02*
X141535714Y-70657200D01*
X141535714Y-70657200D02*
X141488095Y-70609580D01*
X142440476Y-69704819D02*
X143107142Y-69704819D01*
X143107142Y-69704819D02*
X142678571Y-70704819D01*
X129000000Y-56204819D02*
X129000000Y-55204819D01*
X129000000Y-55204819D02*
X129238095Y-55204819D01*
X129238095Y-55204819D02*
X129380952Y-55252438D01*
X129380952Y-55252438D02*
X129476190Y-55347676D01*
X129476190Y-55347676D02*
X129523809Y-55442914D01*
X129523809Y-55442914D02*
X129571428Y-55633390D01*
X129571428Y-55633390D02*
X129571428Y-55776247D01*
X129571428Y-55776247D02*
X129523809Y-55966723D01*
X129523809Y-55966723D02*
X129476190Y-56061961D01*
X129476190Y-56061961D02*
X129380952Y-56157200D01*
X129380952Y-56157200D02*
X129238095Y-56204819D01*
X129238095Y-56204819D02*
X129000000Y-56204819D01*
X130142857Y-56204819D02*
X130047619Y-56157200D01*
X130047619Y-56157200D02*
X130000000Y-56109580D01*
X130000000Y-56109580D02*
X129952381Y-56014342D01*
X129952381Y-56014342D02*
X129952381Y-55728628D01*
X129952381Y-55728628D02*
X130000000Y-55633390D01*
X130000000Y-55633390D02*
X130047619Y-55585771D01*
X130047619Y-55585771D02*
X130142857Y-55538152D01*
X130142857Y-55538152D02*
X130285714Y-55538152D01*
X130285714Y-55538152D02*
X130380952Y-55585771D01*
X130380952Y-55585771D02*
X130428571Y-55633390D01*
X130428571Y-55633390D02*
X130476190Y-55728628D01*
X130476190Y-55728628D02*
X130476190Y-56014342D01*
X130476190Y-56014342D02*
X130428571Y-56109580D01*
X130428571Y-56109580D02*
X130380952Y-56157200D01*
X130380952Y-56157200D02*
X130285714Y-56204819D01*
X130285714Y-56204819D02*
X130142857Y-56204819D01*
X130761905Y-55538152D02*
X131142857Y-55538152D01*
X130904762Y-55204819D02*
X130904762Y-56061961D01*
X130904762Y-56061961D02*
X130952381Y-56157200D01*
X130952381Y-56157200D02*
X131047619Y-56204819D01*
X131047619Y-56204819D02*
X131142857Y-56204819D01*
X128190476Y-46657200D02*
X128333333Y-46704819D01*
X128333333Y-46704819D02*
X128571428Y-46704819D01*
X128571428Y-46704819D02*
X128666666Y-46657200D01*
X128666666Y-46657200D02*
X128714285Y-46609580D01*
X128714285Y-46609580D02*
X128761904Y-46514342D01*
X128761904Y-46514342D02*
X128761904Y-46419104D01*
X128761904Y-46419104D02*
X128714285Y-46323866D01*
X128714285Y-46323866D02*
X128666666Y-46276247D01*
X128666666Y-46276247D02*
X128571428Y-46228628D01*
X128571428Y-46228628D02*
X128380952Y-46181009D01*
X128380952Y-46181009D02*
X128285714Y-46133390D01*
X128285714Y-46133390D02*
X128238095Y-46085771D01*
X128238095Y-46085771D02*
X128190476Y-45990533D01*
X128190476Y-45990533D02*
X128190476Y-45895295D01*
X128190476Y-45895295D02*
X128238095Y-45800057D01*
X128238095Y-45800057D02*
X128285714Y-45752438D01*
X128285714Y-45752438D02*
X128380952Y-45704819D01*
X128380952Y-45704819D02*
X128619047Y-45704819D01*
X128619047Y-45704819D02*
X128761904Y-45752438D01*
X129095238Y-45704819D02*
X129333333Y-46704819D01*
X129333333Y-46704819D02*
X129523809Y-45990533D01*
X129523809Y-45990533D02*
X129714285Y-46704819D01*
X129714285Y-46704819D02*
X129952381Y-45704819D01*
X130857142Y-46704819D02*
X130285714Y-46704819D01*
X130571428Y-46704819D02*
X130571428Y-45704819D01*
X130571428Y-45704819D02*
X130476190Y-45847676D01*
X130476190Y-45847676D02*
X130380952Y-45942914D01*
X130380952Y-45942914D02*
X130285714Y-45990533D01*
X131238095Y-45800057D02*
X131285714Y-45752438D01*
X131285714Y-45752438D02*
X131380952Y-45704819D01*
X131380952Y-45704819D02*
X131619047Y-45704819D01*
X131619047Y-45704819D02*
X131714285Y-45752438D01*
X131714285Y-45752438D02*
X131761904Y-45800057D01*
X131761904Y-45800057D02*
X131809523Y-45895295D01*
X131809523Y-45895295D02*
X131809523Y-45990533D01*
X131809523Y-45990533D02*
X131761904Y-46133390D01*
X131761904Y-46133390D02*
X131190476Y-46704819D01*
X131190476Y-46704819D02*
X131809523Y-46704819D01*
X64238095Y-55204819D02*
X63761905Y-55204819D01*
X63761905Y-55204819D02*
X63714286Y-55681009D01*
X63714286Y-55681009D02*
X63761905Y-55633390D01*
X63761905Y-55633390D02*
X63857143Y-55585771D01*
X63857143Y-55585771D02*
X64095238Y-55585771D01*
X64095238Y-55585771D02*
X64190476Y-55633390D01*
X64190476Y-55633390D02*
X64238095Y-55681009D01*
X64238095Y-55681009D02*
X64285714Y-55776247D01*
X64285714Y-55776247D02*
X64285714Y-56014342D01*
X64285714Y-56014342D02*
X64238095Y-56109580D01*
X64238095Y-56109580D02*
X64190476Y-56157200D01*
X64190476Y-56157200D02*
X64095238Y-56204819D01*
X64095238Y-56204819D02*
X63857143Y-56204819D01*
X63857143Y-56204819D02*
X63761905Y-56157200D01*
X63761905Y-56157200D02*
X63714286Y-56109580D01*
X62666667Y-46657200D02*
X62809524Y-46704819D01*
X62809524Y-46704819D02*
X63047619Y-46704819D01*
X63047619Y-46704819D02*
X63142857Y-46657200D01*
X63142857Y-46657200D02*
X63190476Y-46609580D01*
X63190476Y-46609580D02*
X63238095Y-46514342D01*
X63238095Y-46514342D02*
X63238095Y-46419104D01*
X63238095Y-46419104D02*
X63190476Y-46323866D01*
X63190476Y-46323866D02*
X63142857Y-46276247D01*
X63142857Y-46276247D02*
X63047619Y-46228628D01*
X63047619Y-46228628D02*
X62857143Y-46181009D01*
X62857143Y-46181009D02*
X62761905Y-46133390D01*
X62761905Y-46133390D02*
X62714286Y-46085771D01*
X62714286Y-46085771D02*
X62666667Y-45990533D01*
X62666667Y-45990533D02*
X62666667Y-45895295D01*
X62666667Y-45895295D02*
X62714286Y-45800057D01*
X62714286Y-45800057D02*
X62761905Y-45752438D01*
X62761905Y-45752438D02*
X62857143Y-45704819D01*
X62857143Y-45704819D02*
X63095238Y-45704819D01*
X63095238Y-45704819D02*
X63238095Y-45752438D01*
X63571429Y-45704819D02*
X63809524Y-46704819D01*
X63809524Y-46704819D02*
X64000000Y-45990533D01*
X64000000Y-45990533D02*
X64190476Y-46704819D01*
X64190476Y-46704819D02*
X64428572Y-45704819D01*
X65238095Y-45704819D02*
X65047619Y-45704819D01*
X65047619Y-45704819D02*
X64952381Y-45752438D01*
X64952381Y-45752438D02*
X64904762Y-45800057D01*
X64904762Y-45800057D02*
X64809524Y-45942914D01*
X64809524Y-45942914D02*
X64761905Y-46133390D01*
X64761905Y-46133390D02*
X64761905Y-46514342D01*
X64761905Y-46514342D02*
X64809524Y-46609580D01*
X64809524Y-46609580D02*
X64857143Y-46657200D01*
X64857143Y-46657200D02*
X64952381Y-46704819D01*
X64952381Y-46704819D02*
X65142857Y-46704819D01*
X65142857Y-46704819D02*
X65238095Y-46657200D01*
X65238095Y-46657200D02*
X65285714Y-46609580D01*
X65285714Y-46609580D02*
X65333333Y-46514342D01*
X65333333Y-46514342D02*
X65333333Y-46276247D01*
X65333333Y-46276247D02*
X65285714Y-46181009D01*
X65285714Y-46181009D02*
X65238095Y-46133390D01*
X65238095Y-46133390D02*
X65142857Y-46085771D01*
X65142857Y-46085771D02*
X64952381Y-46085771D01*
X64952381Y-46085771D02*
X64857143Y-46133390D01*
X64857143Y-46133390D02*
X64809524Y-46181009D01*
X64809524Y-46181009D02*
X64761905Y-46276247D01*
X7952381Y-55681009D02*
X8285714Y-55681009D01*
X8428571Y-56204819D02*
X7952381Y-56204819D01*
X7952381Y-56204819D02*
X7952381Y-55204819D01*
X7952381Y-55204819D02*
X8428571Y-55204819D01*
X8809524Y-56157200D02*
X8904762Y-56204819D01*
X8904762Y-56204819D02*
X9095238Y-56204819D01*
X9095238Y-56204819D02*
X9190476Y-56157200D01*
X9190476Y-56157200D02*
X9238095Y-56061961D01*
X9238095Y-56061961D02*
X9238095Y-56014342D01*
X9238095Y-56014342D02*
X9190476Y-55919104D01*
X9190476Y-55919104D02*
X9095238Y-55871485D01*
X9095238Y-55871485D02*
X8952381Y-55871485D01*
X8952381Y-55871485D02*
X8857143Y-55823866D01*
X8857143Y-55823866D02*
X8809524Y-55728628D01*
X8809524Y-55728628D02*
X8809524Y-55681009D01*
X8809524Y-55681009D02*
X8857143Y-55585771D01*
X8857143Y-55585771D02*
X8952381Y-55538152D01*
X8952381Y-55538152D02*
X9095238Y-55538152D01*
X9095238Y-55538152D02*
X9190476Y-55585771D01*
X10095238Y-56157200D02*
X10000000Y-56204819D01*
X10000000Y-56204819D02*
X9809524Y-56204819D01*
X9809524Y-56204819D02*
X9714286Y-56157200D01*
X9714286Y-56157200D02*
X9666667Y-56109580D01*
X9666667Y-56109580D02*
X9619048Y-56014342D01*
X9619048Y-56014342D02*
X9619048Y-55728628D01*
X9619048Y-55728628D02*
X9666667Y-55633390D01*
X9666667Y-55633390D02*
X9714286Y-55585771D01*
X9714286Y-55585771D02*
X9809524Y-55538152D01*
X9809524Y-55538152D02*
X10000000Y-55538152D01*
X10000000Y-55538152D02*
X10095238Y-55585771D01*
X7666667Y-46657200D02*
X7809524Y-46704819D01*
X7809524Y-46704819D02*
X8047619Y-46704819D01*
X8047619Y-46704819D02*
X8142857Y-46657200D01*
X8142857Y-46657200D02*
X8190476Y-46609580D01*
X8190476Y-46609580D02*
X8238095Y-46514342D01*
X8238095Y-46514342D02*
X8238095Y-46419104D01*
X8238095Y-46419104D02*
X8190476Y-46323866D01*
X8190476Y-46323866D02*
X8142857Y-46276247D01*
X8142857Y-46276247D02*
X8047619Y-46228628D01*
X8047619Y-46228628D02*
X7857143Y-46181009D01*
X7857143Y-46181009D02*
X7761905Y-46133390D01*
X7761905Y-46133390D02*
X7714286Y-46085771D01*
X7714286Y-46085771D02*
X7666667Y-45990533D01*
X7666667Y-45990533D02*
X7666667Y-45895295D01*
X7666667Y-45895295D02*
X7714286Y-45800057D01*
X7714286Y-45800057D02*
X7761905Y-45752438D01*
X7761905Y-45752438D02*
X7857143Y-45704819D01*
X7857143Y-45704819D02*
X8095238Y-45704819D01*
X8095238Y-45704819D02*
X8238095Y-45752438D01*
X8571429Y-45704819D02*
X8809524Y-46704819D01*
X8809524Y-46704819D02*
X9000000Y-45990533D01*
X9000000Y-45990533D02*
X9190476Y-46704819D01*
X9190476Y-46704819D02*
X9428572Y-45704819D01*
X10333333Y-46704819D02*
X9761905Y-46704819D01*
X10047619Y-46704819D02*
X10047619Y-45704819D01*
X10047619Y-45704819D02*
X9952381Y-45847676D01*
X9952381Y-45847676D02*
X9857143Y-45942914D01*
X9857143Y-45942914D02*
X9761905Y-45990533D01*
X116078095Y-38904152D02*
X116078095Y-39570819D01*
X115840000Y-38523200D02*
X115601905Y-39237485D01*
X115601905Y-39237485D02*
X116220952Y-39237485D01*
X116506667Y-38570819D02*
X117173333Y-38570819D01*
X117173333Y-38570819D02*
X116744762Y-39570819D01*
X117744762Y-38570819D02*
X117840000Y-38570819D01*
X117840000Y-38570819D02*
X117935238Y-38618438D01*
X117935238Y-38618438D02*
X117982857Y-38666057D01*
X117982857Y-38666057D02*
X118030476Y-38761295D01*
X118030476Y-38761295D02*
X118078095Y-38951771D01*
X118078095Y-38951771D02*
X118078095Y-39189866D01*
X118078095Y-39189866D02*
X118030476Y-39380342D01*
X118030476Y-39380342D02*
X117982857Y-39475580D01*
X117982857Y-39475580D02*
X117935238Y-39523200D01*
X117935238Y-39523200D02*
X117840000Y-39570819D01*
X117840000Y-39570819D02*
X117744762Y-39570819D01*
X117744762Y-39570819D02*
X117649524Y-39523200D01*
X117649524Y-39523200D02*
X117601905Y-39475580D01*
X117601905Y-39475580D02*
X117554286Y-39380342D01*
X117554286Y-39380342D02*
X117506667Y-39189866D01*
X117506667Y-39189866D02*
X117506667Y-38951771D01*
X117506667Y-38951771D02*
X117554286Y-38761295D01*
X117554286Y-38761295D02*
X117601905Y-38666057D01*
X117601905Y-38666057D02*
X117649524Y-38618438D01*
X117649524Y-38618438D02*
X117744762Y-38570819D01*
X116673333Y-25346819D02*
X116340000Y-24870628D01*
X116101905Y-25346819D02*
X116101905Y-24346819D01*
X116101905Y-24346819D02*
X116482857Y-24346819D01*
X116482857Y-24346819D02*
X116578095Y-24394438D01*
X116578095Y-24394438D02*
X116625714Y-24442057D01*
X116625714Y-24442057D02*
X116673333Y-24537295D01*
X116673333Y-24537295D02*
X116673333Y-24680152D01*
X116673333Y-24680152D02*
X116625714Y-24775390D01*
X116625714Y-24775390D02*
X116578095Y-24823009D01*
X116578095Y-24823009D02*
X116482857Y-24870628D01*
X116482857Y-24870628D02*
X116101905Y-24870628D01*
X117530476Y-24680152D02*
X117530476Y-25346819D01*
X117292381Y-24299200D02*
X117054286Y-25013485D01*
X117054286Y-25013485D02*
X117673333Y-25013485D01*
X23751905Y-80179104D02*
X24228095Y-80179104D01*
X23656667Y-80464819D02*
X23990000Y-79464819D01*
X23990000Y-79464819D02*
X24323333Y-80464819D01*
X22440476Y-70657200D02*
X22583333Y-70704819D01*
X22583333Y-70704819D02*
X22821428Y-70704819D01*
X22821428Y-70704819D02*
X22916666Y-70657200D01*
X22916666Y-70657200D02*
X22964285Y-70609580D01*
X22964285Y-70609580D02*
X23011904Y-70514342D01*
X23011904Y-70514342D02*
X23011904Y-70419104D01*
X23011904Y-70419104D02*
X22964285Y-70323866D01*
X22964285Y-70323866D02*
X22916666Y-70276247D01*
X22916666Y-70276247D02*
X22821428Y-70228628D01*
X22821428Y-70228628D02*
X22630952Y-70181009D01*
X22630952Y-70181009D02*
X22535714Y-70133390D01*
X22535714Y-70133390D02*
X22488095Y-70085771D01*
X22488095Y-70085771D02*
X22440476Y-69990533D01*
X22440476Y-69990533D02*
X22440476Y-69895295D01*
X22440476Y-69895295D02*
X22488095Y-69800057D01*
X22488095Y-69800057D02*
X22535714Y-69752438D01*
X22535714Y-69752438D02*
X22630952Y-69704819D01*
X22630952Y-69704819D02*
X22869047Y-69704819D01*
X22869047Y-69704819D02*
X23011904Y-69752438D01*
X23345238Y-69704819D02*
X23583333Y-70704819D01*
X23583333Y-70704819D02*
X23773809Y-69990533D01*
X23773809Y-69990533D02*
X23964285Y-70704819D01*
X23964285Y-70704819D02*
X24202381Y-69704819D01*
X24535714Y-69800057D02*
X24583333Y-69752438D01*
X24583333Y-69752438D02*
X24678571Y-69704819D01*
X24678571Y-69704819D02*
X24916666Y-69704819D01*
X24916666Y-69704819D02*
X25011904Y-69752438D01*
X25011904Y-69752438D02*
X25059523Y-69800057D01*
X25059523Y-69800057D02*
X25107142Y-69895295D01*
X25107142Y-69895295D02*
X25107142Y-69990533D01*
X25107142Y-69990533D02*
X25059523Y-70133390D01*
X25059523Y-70133390D02*
X24488095Y-70704819D01*
X24488095Y-70704819D02*
X25107142Y-70704819D01*
X25440476Y-69704819D02*
X26107142Y-69704819D01*
X26107142Y-69704819D02*
X25678571Y-70704819D01*
X140595238Y-55681009D02*
X140738095Y-55728628D01*
X140738095Y-55728628D02*
X140785714Y-55776247D01*
X140785714Y-55776247D02*
X140833333Y-55871485D01*
X140833333Y-55871485D02*
X140833333Y-56014342D01*
X140833333Y-56014342D02*
X140785714Y-56109580D01*
X140785714Y-56109580D02*
X140738095Y-56157200D01*
X140738095Y-56157200D02*
X140642857Y-56204819D01*
X140642857Y-56204819D02*
X140261905Y-56204819D01*
X140261905Y-56204819D02*
X140261905Y-55204819D01*
X140261905Y-55204819D02*
X140595238Y-55204819D01*
X140595238Y-55204819D02*
X140690476Y-55252438D01*
X140690476Y-55252438D02*
X140738095Y-55300057D01*
X140738095Y-55300057D02*
X140785714Y-55395295D01*
X140785714Y-55395295D02*
X140785714Y-55490533D01*
X140785714Y-55490533D02*
X140738095Y-55585771D01*
X140738095Y-55585771D02*
X140690476Y-55633390D01*
X140690476Y-55633390D02*
X140595238Y-55681009D01*
X140595238Y-55681009D02*
X140261905Y-55681009D01*
X141214286Y-56157200D02*
X141357143Y-56204819D01*
X141357143Y-56204819D02*
X141595238Y-56204819D01*
X141595238Y-56204819D02*
X141690476Y-56157200D01*
X141690476Y-56157200D02*
X141738095Y-56109580D01*
X141738095Y-56109580D02*
X141785714Y-56014342D01*
X141785714Y-56014342D02*
X141785714Y-55919104D01*
X141785714Y-55919104D02*
X141738095Y-55823866D01*
X141738095Y-55823866D02*
X141690476Y-55776247D01*
X141690476Y-55776247D02*
X141595238Y-55728628D01*
X141595238Y-55728628D02*
X141404762Y-55681009D01*
X141404762Y-55681009D02*
X141309524Y-55633390D01*
X141309524Y-55633390D02*
X141261905Y-55585771D01*
X141261905Y-55585771D02*
X141214286Y-55490533D01*
X141214286Y-55490533D02*
X141214286Y-55395295D01*
X141214286Y-55395295D02*
X141261905Y-55300057D01*
X141261905Y-55300057D02*
X141309524Y-55252438D01*
X141309524Y-55252438D02*
X141404762Y-55204819D01*
X141404762Y-55204819D02*
X141642857Y-55204819D01*
X141642857Y-55204819D02*
X141785714Y-55252438D01*
X139190476Y-46657200D02*
X139333333Y-46704819D01*
X139333333Y-46704819D02*
X139571428Y-46704819D01*
X139571428Y-46704819D02*
X139666666Y-46657200D01*
X139666666Y-46657200D02*
X139714285Y-46609580D01*
X139714285Y-46609580D02*
X139761904Y-46514342D01*
X139761904Y-46514342D02*
X139761904Y-46419104D01*
X139761904Y-46419104D02*
X139714285Y-46323866D01*
X139714285Y-46323866D02*
X139666666Y-46276247D01*
X139666666Y-46276247D02*
X139571428Y-46228628D01*
X139571428Y-46228628D02*
X139380952Y-46181009D01*
X139380952Y-46181009D02*
X139285714Y-46133390D01*
X139285714Y-46133390D02*
X139238095Y-46085771D01*
X139238095Y-46085771D02*
X139190476Y-45990533D01*
X139190476Y-45990533D02*
X139190476Y-45895295D01*
X139190476Y-45895295D02*
X139238095Y-45800057D01*
X139238095Y-45800057D02*
X139285714Y-45752438D01*
X139285714Y-45752438D02*
X139380952Y-45704819D01*
X139380952Y-45704819D02*
X139619047Y-45704819D01*
X139619047Y-45704819D02*
X139761904Y-45752438D01*
X140095238Y-45704819D02*
X140333333Y-46704819D01*
X140333333Y-46704819D02*
X140523809Y-45990533D01*
X140523809Y-45990533D02*
X140714285Y-46704819D01*
X140714285Y-46704819D02*
X140952381Y-45704819D01*
X141857142Y-46704819D02*
X141285714Y-46704819D01*
X141571428Y-46704819D02*
X141571428Y-45704819D01*
X141571428Y-45704819D02*
X141476190Y-45847676D01*
X141476190Y-45847676D02*
X141380952Y-45942914D01*
X141380952Y-45942914D02*
X141285714Y-45990533D01*
X142190476Y-45704819D02*
X142809523Y-45704819D01*
X142809523Y-45704819D02*
X142476190Y-46085771D01*
X142476190Y-46085771D02*
X142619047Y-46085771D01*
X142619047Y-46085771D02*
X142714285Y-46133390D01*
X142714285Y-46133390D02*
X142761904Y-46181009D01*
X142761904Y-46181009D02*
X142809523Y-46276247D01*
X142809523Y-46276247D02*
X142809523Y-46514342D01*
X142809523Y-46514342D02*
X142761904Y-46609580D01*
X142761904Y-46609580D02*
X142714285Y-46657200D01*
X142714285Y-46657200D02*
X142619047Y-46704819D01*
X142619047Y-46704819D02*
X142333333Y-46704819D01*
X142333333Y-46704819D02*
X142238095Y-46657200D01*
X142238095Y-46657200D02*
X142190476Y-46609580D01*
X22380952Y-68300057D02*
X22285714Y-68252438D01*
X22285714Y-68252438D02*
X22190476Y-68157200D01*
X22190476Y-68157200D02*
X22047619Y-68014342D01*
X22047619Y-68014342D02*
X21952381Y-67966723D01*
X21952381Y-67966723D02*
X21857143Y-67966723D01*
X21904762Y-68204819D02*
X21809524Y-68157200D01*
X21809524Y-68157200D02*
X21714286Y-68061961D01*
X21714286Y-68061961D02*
X21666667Y-67871485D01*
X21666667Y-67871485D02*
X21666667Y-67538152D01*
X21666667Y-67538152D02*
X21714286Y-67347676D01*
X21714286Y-67347676D02*
X21809524Y-67252438D01*
X21809524Y-67252438D02*
X21904762Y-67204819D01*
X21904762Y-67204819D02*
X22095238Y-67204819D01*
X22095238Y-67204819D02*
X22190476Y-67252438D01*
X22190476Y-67252438D02*
X22285714Y-67347676D01*
X22285714Y-67347676D02*
X22333333Y-67538152D01*
X22333333Y-67538152D02*
X22333333Y-67871485D01*
X22333333Y-67871485D02*
X22285714Y-68061961D01*
X22285714Y-68061961D02*
X22190476Y-68157200D01*
X22190476Y-68157200D02*
X22095238Y-68204819D01*
X22095238Y-68204819D02*
X21904762Y-68204819D01*
X20440476Y-58657200D02*
X20583333Y-58704819D01*
X20583333Y-58704819D02*
X20821428Y-58704819D01*
X20821428Y-58704819D02*
X20916666Y-58657200D01*
X20916666Y-58657200D02*
X20964285Y-58609580D01*
X20964285Y-58609580D02*
X21011904Y-58514342D01*
X21011904Y-58514342D02*
X21011904Y-58419104D01*
X21011904Y-58419104D02*
X20964285Y-58323866D01*
X20964285Y-58323866D02*
X20916666Y-58276247D01*
X20916666Y-58276247D02*
X20821428Y-58228628D01*
X20821428Y-58228628D02*
X20630952Y-58181009D01*
X20630952Y-58181009D02*
X20535714Y-58133390D01*
X20535714Y-58133390D02*
X20488095Y-58085771D01*
X20488095Y-58085771D02*
X20440476Y-57990533D01*
X20440476Y-57990533D02*
X20440476Y-57895295D01*
X20440476Y-57895295D02*
X20488095Y-57800057D01*
X20488095Y-57800057D02*
X20535714Y-57752438D01*
X20535714Y-57752438D02*
X20630952Y-57704819D01*
X20630952Y-57704819D02*
X20869047Y-57704819D01*
X20869047Y-57704819D02*
X21011904Y-57752438D01*
X21345238Y-57704819D02*
X21583333Y-58704819D01*
X21583333Y-58704819D02*
X21773809Y-57990533D01*
X21773809Y-57990533D02*
X21964285Y-58704819D01*
X21964285Y-58704819D02*
X22202381Y-57704819D01*
X23107142Y-58704819D02*
X22535714Y-58704819D01*
X22821428Y-58704819D02*
X22821428Y-57704819D01*
X22821428Y-57704819D02*
X22726190Y-57847676D01*
X22726190Y-57847676D02*
X22630952Y-57942914D01*
X22630952Y-57942914D02*
X22535714Y-57990533D01*
X24011904Y-57704819D02*
X23535714Y-57704819D01*
X23535714Y-57704819D02*
X23488095Y-58181009D01*
X23488095Y-58181009D02*
X23535714Y-58133390D01*
X23535714Y-58133390D02*
X23630952Y-58085771D01*
X23630952Y-58085771D02*
X23869047Y-58085771D01*
X23869047Y-58085771D02*
X23964285Y-58133390D01*
X23964285Y-58133390D02*
X24011904Y-58181009D01*
X24011904Y-58181009D02*
X24059523Y-58276247D01*
X24059523Y-58276247D02*
X24059523Y-58514342D01*
X24059523Y-58514342D02*
X24011904Y-58609580D01*
X24011904Y-58609580D02*
X23964285Y-58657200D01*
X23964285Y-58657200D02*
X23869047Y-58704819D01*
X23869047Y-58704819D02*
X23630952Y-58704819D01*
X23630952Y-58704819D02*
X23535714Y-58657200D01*
X23535714Y-58657200D02*
X23488095Y-58609580D01*
X8214285Y-67919104D02*
X8690475Y-67919104D01*
X8119047Y-68204819D02*
X8452380Y-67204819D01*
X8452380Y-67204819D02*
X8785713Y-68204819D01*
X9261904Y-68204819D02*
X9166666Y-68157200D01*
X9166666Y-68157200D02*
X9119047Y-68061961D01*
X9119047Y-68061961D02*
X9119047Y-67204819D01*
X9500000Y-67538152D02*
X9880952Y-67538152D01*
X9642857Y-67204819D02*
X9642857Y-68061961D01*
X9642857Y-68061961D02*
X9690476Y-68157200D01*
X9690476Y-68157200D02*
X9785714Y-68204819D01*
X9785714Y-68204819D02*
X9880952Y-68204819D01*
X7440476Y-58657200D02*
X7583333Y-58704819D01*
X7583333Y-58704819D02*
X7821428Y-58704819D01*
X7821428Y-58704819D02*
X7916666Y-58657200D01*
X7916666Y-58657200D02*
X7964285Y-58609580D01*
X7964285Y-58609580D02*
X8011904Y-58514342D01*
X8011904Y-58514342D02*
X8011904Y-58419104D01*
X8011904Y-58419104D02*
X7964285Y-58323866D01*
X7964285Y-58323866D02*
X7916666Y-58276247D01*
X7916666Y-58276247D02*
X7821428Y-58228628D01*
X7821428Y-58228628D02*
X7630952Y-58181009D01*
X7630952Y-58181009D02*
X7535714Y-58133390D01*
X7535714Y-58133390D02*
X7488095Y-58085771D01*
X7488095Y-58085771D02*
X7440476Y-57990533D01*
X7440476Y-57990533D02*
X7440476Y-57895295D01*
X7440476Y-57895295D02*
X7488095Y-57800057D01*
X7488095Y-57800057D02*
X7535714Y-57752438D01*
X7535714Y-57752438D02*
X7630952Y-57704819D01*
X7630952Y-57704819D02*
X7869047Y-57704819D01*
X7869047Y-57704819D02*
X8011904Y-57752438D01*
X8345238Y-57704819D02*
X8583333Y-58704819D01*
X8583333Y-58704819D02*
X8773809Y-57990533D01*
X8773809Y-57990533D02*
X8964285Y-58704819D01*
X8964285Y-58704819D02*
X9202381Y-57704819D01*
X10107142Y-58704819D02*
X9535714Y-58704819D01*
X9821428Y-58704819D02*
X9821428Y-57704819D01*
X9821428Y-57704819D02*
X9726190Y-57847676D01*
X9726190Y-57847676D02*
X9630952Y-57942914D01*
X9630952Y-57942914D02*
X9535714Y-57990533D01*
X10964285Y-58038152D02*
X10964285Y-58704819D01*
X10726190Y-57657200D02*
X10488095Y-58371485D01*
X10488095Y-58371485D02*
X11107142Y-58371485D01*
X7952380Y-92109580D02*
X7904761Y-92157200D01*
X7904761Y-92157200D02*
X7761904Y-92204819D01*
X7761904Y-92204819D02*
X7666666Y-92204819D01*
X7666666Y-92204819D02*
X7523809Y-92157200D01*
X7523809Y-92157200D02*
X7428571Y-92061961D01*
X7428571Y-92061961D02*
X7380952Y-91966723D01*
X7380952Y-91966723D02*
X7333333Y-91776247D01*
X7333333Y-91776247D02*
X7333333Y-91633390D01*
X7333333Y-91633390D02*
X7380952Y-91442914D01*
X7380952Y-91442914D02*
X7428571Y-91347676D01*
X7428571Y-91347676D02*
X7523809Y-91252438D01*
X7523809Y-91252438D02*
X7666666Y-91204819D01*
X7666666Y-91204819D02*
X7761904Y-91204819D01*
X7761904Y-91204819D02*
X7904761Y-91252438D01*
X7904761Y-91252438D02*
X7952380Y-91300057D01*
X8238095Y-91538152D02*
X8619047Y-91538152D01*
X8380952Y-91204819D02*
X8380952Y-92061961D01*
X8380952Y-92061961D02*
X8428571Y-92157200D01*
X8428571Y-92157200D02*
X8523809Y-92204819D01*
X8523809Y-92204819D02*
X8619047Y-92204819D01*
X8952381Y-92204819D02*
X8952381Y-91538152D01*
X8952381Y-91728628D02*
X9000000Y-91633390D01*
X9000000Y-91633390D02*
X9047619Y-91585771D01*
X9047619Y-91585771D02*
X9142857Y-91538152D01*
X9142857Y-91538152D02*
X9238095Y-91538152D01*
X9714286Y-92204819D02*
X9619048Y-92157200D01*
X9619048Y-92157200D02*
X9571429Y-92061961D01*
X9571429Y-92061961D02*
X9571429Y-91204819D01*
X7190476Y-82657200D02*
X7333333Y-82704819D01*
X7333333Y-82704819D02*
X7571428Y-82704819D01*
X7571428Y-82704819D02*
X7666666Y-82657200D01*
X7666666Y-82657200D02*
X7714285Y-82609580D01*
X7714285Y-82609580D02*
X7761904Y-82514342D01*
X7761904Y-82514342D02*
X7761904Y-82419104D01*
X7761904Y-82419104D02*
X7714285Y-82323866D01*
X7714285Y-82323866D02*
X7666666Y-82276247D01*
X7666666Y-82276247D02*
X7571428Y-82228628D01*
X7571428Y-82228628D02*
X7380952Y-82181009D01*
X7380952Y-82181009D02*
X7285714Y-82133390D01*
X7285714Y-82133390D02*
X7238095Y-82085771D01*
X7238095Y-82085771D02*
X7190476Y-81990533D01*
X7190476Y-81990533D02*
X7190476Y-81895295D01*
X7190476Y-81895295D02*
X7238095Y-81800057D01*
X7238095Y-81800057D02*
X7285714Y-81752438D01*
X7285714Y-81752438D02*
X7380952Y-81704819D01*
X7380952Y-81704819D02*
X7619047Y-81704819D01*
X7619047Y-81704819D02*
X7761904Y-81752438D01*
X8095238Y-81704819D02*
X8333333Y-82704819D01*
X8333333Y-82704819D02*
X8523809Y-81990533D01*
X8523809Y-81990533D02*
X8714285Y-82704819D01*
X8714285Y-82704819D02*
X8952381Y-81704819D01*
X9238095Y-81704819D02*
X9857142Y-81704819D01*
X9857142Y-81704819D02*
X9523809Y-82085771D01*
X9523809Y-82085771D02*
X9666666Y-82085771D01*
X9666666Y-82085771D02*
X9761904Y-82133390D01*
X9761904Y-82133390D02*
X9809523Y-82181009D01*
X9809523Y-82181009D02*
X9857142Y-82276247D01*
X9857142Y-82276247D02*
X9857142Y-82514342D01*
X9857142Y-82514342D02*
X9809523Y-82609580D01*
X9809523Y-82609580D02*
X9761904Y-82657200D01*
X9761904Y-82657200D02*
X9666666Y-82704819D01*
X9666666Y-82704819D02*
X9380952Y-82704819D01*
X9380952Y-82704819D02*
X9285714Y-82657200D01*
X9285714Y-82657200D02*
X9238095Y-82609580D01*
X10428571Y-82133390D02*
X10333333Y-82085771D01*
X10333333Y-82085771D02*
X10285714Y-82038152D01*
X10285714Y-82038152D02*
X10238095Y-81942914D01*
X10238095Y-81942914D02*
X10238095Y-81895295D01*
X10238095Y-81895295D02*
X10285714Y-81800057D01*
X10285714Y-81800057D02*
X10333333Y-81752438D01*
X10333333Y-81752438D02*
X10428571Y-81704819D01*
X10428571Y-81704819D02*
X10619047Y-81704819D01*
X10619047Y-81704819D02*
X10714285Y-81752438D01*
X10714285Y-81752438D02*
X10761904Y-81800057D01*
X10761904Y-81800057D02*
X10809523Y-81895295D01*
X10809523Y-81895295D02*
X10809523Y-81942914D01*
X10809523Y-81942914D02*
X10761904Y-82038152D01*
X10761904Y-82038152D02*
X10714285Y-82085771D01*
X10714285Y-82085771D02*
X10619047Y-82133390D01*
X10619047Y-82133390D02*
X10428571Y-82133390D01*
X10428571Y-82133390D02*
X10333333Y-82181009D01*
X10333333Y-82181009D02*
X10285714Y-82228628D01*
X10285714Y-82228628D02*
X10238095Y-82323866D01*
X10238095Y-82323866D02*
X10238095Y-82514342D01*
X10238095Y-82514342D02*
X10285714Y-82609580D01*
X10285714Y-82609580D02*
X10333333Y-82657200D01*
X10333333Y-82657200D02*
X10428571Y-82704819D01*
X10428571Y-82704819D02*
X10619047Y-82704819D01*
X10619047Y-82704819D02*
X10714285Y-82657200D01*
X10714285Y-82657200D02*
X10761904Y-82609580D01*
X10761904Y-82609580D02*
X10809523Y-82514342D01*
X10809523Y-82514342D02*
X10809523Y-82323866D01*
X10809523Y-82323866D02*
X10761904Y-82228628D01*
X10761904Y-82228628D02*
X10714285Y-82181009D01*
X10714285Y-82181009D02*
X10619047Y-82133390D01*
X41666667Y-55204819D02*
X42285714Y-55204819D01*
X42285714Y-55204819D02*
X41952381Y-55585771D01*
X41952381Y-55585771D02*
X42095238Y-55585771D01*
X42095238Y-55585771D02*
X42190476Y-55633390D01*
X42190476Y-55633390D02*
X42238095Y-55681009D01*
X42238095Y-55681009D02*
X42285714Y-55776247D01*
X42285714Y-55776247D02*
X42285714Y-56014342D01*
X42285714Y-56014342D02*
X42238095Y-56109580D01*
X42238095Y-56109580D02*
X42190476Y-56157200D01*
X42190476Y-56157200D02*
X42095238Y-56204819D01*
X42095238Y-56204819D02*
X41809524Y-56204819D01*
X41809524Y-56204819D02*
X41714286Y-56157200D01*
X41714286Y-56157200D02*
X41666667Y-56109580D01*
X40666667Y-46657200D02*
X40809524Y-46704819D01*
X40809524Y-46704819D02*
X41047619Y-46704819D01*
X41047619Y-46704819D02*
X41142857Y-46657200D01*
X41142857Y-46657200D02*
X41190476Y-46609580D01*
X41190476Y-46609580D02*
X41238095Y-46514342D01*
X41238095Y-46514342D02*
X41238095Y-46419104D01*
X41238095Y-46419104D02*
X41190476Y-46323866D01*
X41190476Y-46323866D02*
X41142857Y-46276247D01*
X41142857Y-46276247D02*
X41047619Y-46228628D01*
X41047619Y-46228628D02*
X40857143Y-46181009D01*
X40857143Y-46181009D02*
X40761905Y-46133390D01*
X40761905Y-46133390D02*
X40714286Y-46085771D01*
X40714286Y-46085771D02*
X40666667Y-45990533D01*
X40666667Y-45990533D02*
X40666667Y-45895295D01*
X40666667Y-45895295D02*
X40714286Y-45800057D01*
X40714286Y-45800057D02*
X40761905Y-45752438D01*
X40761905Y-45752438D02*
X40857143Y-45704819D01*
X40857143Y-45704819D02*
X41095238Y-45704819D01*
X41095238Y-45704819D02*
X41238095Y-45752438D01*
X41571429Y-45704819D02*
X41809524Y-46704819D01*
X41809524Y-46704819D02*
X42000000Y-45990533D01*
X42000000Y-45990533D02*
X42190476Y-46704819D01*
X42190476Y-46704819D02*
X42428572Y-45704819D01*
X43238095Y-46038152D02*
X43238095Y-46704819D01*
X43000000Y-45657200D02*
X42761905Y-46371485D01*
X42761905Y-46371485D02*
X43380952Y-46371485D01*
X86214286Y-92204819D02*
X86214286Y-91204819D01*
X86214286Y-91204819D02*
X86785714Y-92204819D01*
X86785714Y-92204819D02*
X86785714Y-91204819D01*
X85190476Y-82657200D02*
X85333333Y-82704819D01*
X85333333Y-82704819D02*
X85571428Y-82704819D01*
X85571428Y-82704819D02*
X85666666Y-82657200D01*
X85666666Y-82657200D02*
X85714285Y-82609580D01*
X85714285Y-82609580D02*
X85761904Y-82514342D01*
X85761904Y-82514342D02*
X85761904Y-82419104D01*
X85761904Y-82419104D02*
X85714285Y-82323866D01*
X85714285Y-82323866D02*
X85666666Y-82276247D01*
X85666666Y-82276247D02*
X85571428Y-82228628D01*
X85571428Y-82228628D02*
X85380952Y-82181009D01*
X85380952Y-82181009D02*
X85285714Y-82133390D01*
X85285714Y-82133390D02*
X85238095Y-82085771D01*
X85238095Y-82085771D02*
X85190476Y-81990533D01*
X85190476Y-81990533D02*
X85190476Y-81895295D01*
X85190476Y-81895295D02*
X85238095Y-81800057D01*
X85238095Y-81800057D02*
X85285714Y-81752438D01*
X85285714Y-81752438D02*
X85380952Y-81704819D01*
X85380952Y-81704819D02*
X85619047Y-81704819D01*
X85619047Y-81704819D02*
X85761904Y-81752438D01*
X86095238Y-81704819D02*
X86333333Y-82704819D01*
X86333333Y-82704819D02*
X86523809Y-81990533D01*
X86523809Y-81990533D02*
X86714285Y-82704819D01*
X86714285Y-82704819D02*
X86952381Y-81704819D01*
X87761904Y-82038152D02*
X87761904Y-82704819D01*
X87523809Y-81657200D02*
X87285714Y-82371485D01*
X87285714Y-82371485D02*
X87904761Y-82371485D01*
X88761904Y-81704819D02*
X88285714Y-81704819D01*
X88285714Y-81704819D02*
X88238095Y-82181009D01*
X88238095Y-82181009D02*
X88285714Y-82133390D01*
X88285714Y-82133390D02*
X88380952Y-82085771D01*
X88380952Y-82085771D02*
X88619047Y-82085771D01*
X88619047Y-82085771D02*
X88714285Y-82133390D01*
X88714285Y-82133390D02*
X88761904Y-82181009D01*
X88761904Y-82181009D02*
X88809523Y-82276247D01*
X88809523Y-82276247D02*
X88809523Y-82514342D01*
X88809523Y-82514342D02*
X88761904Y-82609580D01*
X88761904Y-82609580D02*
X88714285Y-82657200D01*
X88714285Y-82657200D02*
X88619047Y-82704819D01*
X88619047Y-82704819D02*
X88380952Y-82704819D01*
X88380952Y-82704819D02*
X88285714Y-82657200D01*
X88285714Y-82657200D02*
X88238095Y-82609580D01*
X139050000Y-18069104D02*
X139526190Y-18069104D01*
X138954762Y-18354819D02*
X139288095Y-17354819D01*
X139288095Y-17354819D02*
X139621428Y-18354819D01*
X140383333Y-17688152D02*
X140383333Y-18354819D01*
X139954762Y-17688152D02*
X139954762Y-18211961D01*
X139954762Y-18211961D02*
X140002381Y-18307200D01*
X140002381Y-18307200D02*
X140097619Y-18354819D01*
X140097619Y-18354819D02*
X140240476Y-18354819D01*
X140240476Y-18354819D02*
X140335714Y-18307200D01*
X140335714Y-18307200D02*
X140383333Y-18259580D01*
X141288095Y-18354819D02*
X141288095Y-17354819D01*
X141288095Y-18307200D02*
X141192857Y-18354819D01*
X141192857Y-18354819D02*
X141002381Y-18354819D01*
X141002381Y-18354819D02*
X140907143Y-18307200D01*
X140907143Y-18307200D02*
X140859524Y-18259580D01*
X140859524Y-18259580D02*
X140811905Y-18164342D01*
X140811905Y-18164342D02*
X140811905Y-17878628D01*
X140811905Y-17878628D02*
X140859524Y-17783390D01*
X140859524Y-17783390D02*
X140907143Y-17735771D01*
X140907143Y-17735771D02*
X141002381Y-17688152D01*
X141002381Y-17688152D02*
X141192857Y-17688152D01*
X141192857Y-17688152D02*
X141288095Y-17735771D01*
X141764286Y-18354819D02*
X141764286Y-17688152D01*
X141764286Y-17354819D02*
X141716667Y-17402438D01*
X141716667Y-17402438D02*
X141764286Y-17450057D01*
X141764286Y-17450057D02*
X141811905Y-17402438D01*
X141811905Y-17402438D02*
X141764286Y-17354819D01*
X141764286Y-17354819D02*
X141764286Y-17450057D01*
X142383333Y-18354819D02*
X142288095Y-18307200D01*
X142288095Y-18307200D02*
X142240476Y-18259580D01*
X142240476Y-18259580D02*
X142192857Y-18164342D01*
X142192857Y-18164342D02*
X142192857Y-17878628D01*
X142192857Y-17878628D02*
X142240476Y-17783390D01*
X142240476Y-17783390D02*
X142288095Y-17735771D01*
X142288095Y-17735771D02*
X142383333Y-17688152D01*
X142383333Y-17688152D02*
X142526190Y-17688152D01*
X142526190Y-17688152D02*
X142621428Y-17735771D01*
X142621428Y-17735771D02*
X142669047Y-17783390D01*
X142669047Y-17783390D02*
X142716666Y-17878628D01*
X142716666Y-17878628D02*
X142716666Y-18164342D01*
X142716666Y-18164342D02*
X142669047Y-18259580D01*
X142669047Y-18259580D02*
X142621428Y-18307200D01*
X142621428Y-18307200D02*
X142526190Y-18354819D01*
X142526190Y-18354819D02*
X142383333Y-18354819D01*
X143430952Y-17354819D02*
X143430952Y-18069104D01*
X143430952Y-18069104D02*
X143383333Y-18211961D01*
X143383333Y-18211961D02*
X143288095Y-18307200D01*
X143288095Y-18307200D02*
X143145238Y-18354819D01*
X143145238Y-18354819D02*
X143050000Y-18354819D01*
X144335714Y-18354819D02*
X144335714Y-17831009D01*
X144335714Y-17831009D02*
X144288095Y-17735771D01*
X144288095Y-17735771D02*
X144192857Y-17688152D01*
X144192857Y-17688152D02*
X144002381Y-17688152D01*
X144002381Y-17688152D02*
X143907143Y-17735771D01*
X144335714Y-18307200D02*
X144240476Y-18354819D01*
X144240476Y-18354819D02*
X144002381Y-18354819D01*
X144002381Y-18354819D02*
X143907143Y-18307200D01*
X143907143Y-18307200D02*
X143859524Y-18211961D01*
X143859524Y-18211961D02*
X143859524Y-18116723D01*
X143859524Y-18116723D02*
X143907143Y-18021485D01*
X143907143Y-18021485D02*
X144002381Y-17973866D01*
X144002381Y-17973866D02*
X144240476Y-17973866D01*
X144240476Y-17973866D02*
X144335714Y-17926247D01*
X145240476Y-18307200D02*
X145145238Y-18354819D01*
X145145238Y-18354819D02*
X144954762Y-18354819D01*
X144954762Y-18354819D02*
X144859524Y-18307200D01*
X144859524Y-18307200D02*
X144811905Y-18259580D01*
X144811905Y-18259580D02*
X144764286Y-18164342D01*
X144764286Y-18164342D02*
X144764286Y-17878628D01*
X144764286Y-17878628D02*
X144811905Y-17783390D01*
X144811905Y-17783390D02*
X144859524Y-17735771D01*
X144859524Y-17735771D02*
X144954762Y-17688152D01*
X144954762Y-17688152D02*
X145145238Y-17688152D01*
X145145238Y-17688152D02*
X145240476Y-17735771D01*
X145669048Y-18354819D02*
X145669048Y-17354819D01*
X145764286Y-17973866D02*
X146050000Y-18354819D01*
X146050000Y-17688152D02*
X145669048Y-18069104D01*
X141570666Y-32328819D02*
X141570666Y-33043104D01*
X141570666Y-33043104D02*
X141523047Y-33185961D01*
X141523047Y-33185961D02*
X141427809Y-33281200D01*
X141427809Y-33281200D02*
X141284952Y-33328819D01*
X141284952Y-33328819D02*
X141189714Y-33328819D01*
X141999238Y-32424057D02*
X142046857Y-32376438D01*
X142046857Y-32376438D02*
X142142095Y-32328819D01*
X142142095Y-32328819D02*
X142380190Y-32328819D01*
X142380190Y-32328819D02*
X142475428Y-32376438D01*
X142475428Y-32376438D02*
X142523047Y-32424057D01*
X142523047Y-32424057D02*
X142570666Y-32519295D01*
X142570666Y-32519295D02*
X142570666Y-32614533D01*
X142570666Y-32614533D02*
X142523047Y-32757390D01*
X142523047Y-32757390D02*
X141951619Y-33328819D01*
X141951619Y-33328819D02*
X142570666Y-33328819D01*
X139809524Y-67204819D02*
X140380952Y-67204819D01*
X140095238Y-68204819D02*
X140095238Y-67204819D01*
X141142857Y-68204819D02*
X141142857Y-67681009D01*
X141142857Y-67681009D02*
X141095238Y-67585771D01*
X141095238Y-67585771D02*
X141000000Y-67538152D01*
X141000000Y-67538152D02*
X140809524Y-67538152D01*
X140809524Y-67538152D02*
X140714286Y-67585771D01*
X141142857Y-68157200D02*
X141047619Y-68204819D01*
X141047619Y-68204819D02*
X140809524Y-68204819D01*
X140809524Y-68204819D02*
X140714286Y-68157200D01*
X140714286Y-68157200D02*
X140666667Y-68061961D01*
X140666667Y-68061961D02*
X140666667Y-67966723D01*
X140666667Y-67966723D02*
X140714286Y-67871485D01*
X140714286Y-67871485D02*
X140809524Y-67823866D01*
X140809524Y-67823866D02*
X141047619Y-67823866D01*
X141047619Y-67823866D02*
X141142857Y-67776247D01*
X141619048Y-68204819D02*
X141619048Y-67204819D01*
X141619048Y-67585771D02*
X141714286Y-67538152D01*
X141714286Y-67538152D02*
X141904762Y-67538152D01*
X141904762Y-67538152D02*
X142000000Y-67585771D01*
X142000000Y-67585771D02*
X142047619Y-67633390D01*
X142047619Y-67633390D02*
X142095238Y-67728628D01*
X142095238Y-67728628D02*
X142095238Y-68014342D01*
X142095238Y-68014342D02*
X142047619Y-68109580D01*
X142047619Y-68109580D02*
X142000000Y-68157200D01*
X142000000Y-68157200D02*
X141904762Y-68204819D01*
X141904762Y-68204819D02*
X141714286Y-68204819D01*
X141714286Y-68204819D02*
X141619048Y-68157200D01*
X139440476Y-58657200D02*
X139583333Y-58704819D01*
X139583333Y-58704819D02*
X139821428Y-58704819D01*
X139821428Y-58704819D02*
X139916666Y-58657200D01*
X139916666Y-58657200D02*
X139964285Y-58609580D01*
X139964285Y-58609580D02*
X140011904Y-58514342D01*
X140011904Y-58514342D02*
X140011904Y-58419104D01*
X140011904Y-58419104D02*
X139964285Y-58323866D01*
X139964285Y-58323866D02*
X139916666Y-58276247D01*
X139916666Y-58276247D02*
X139821428Y-58228628D01*
X139821428Y-58228628D02*
X139630952Y-58181009D01*
X139630952Y-58181009D02*
X139535714Y-58133390D01*
X139535714Y-58133390D02*
X139488095Y-58085771D01*
X139488095Y-58085771D02*
X139440476Y-57990533D01*
X139440476Y-57990533D02*
X139440476Y-57895295D01*
X139440476Y-57895295D02*
X139488095Y-57800057D01*
X139488095Y-57800057D02*
X139535714Y-57752438D01*
X139535714Y-57752438D02*
X139630952Y-57704819D01*
X139630952Y-57704819D02*
X139869047Y-57704819D01*
X139869047Y-57704819D02*
X140011904Y-57752438D01*
X140345238Y-57704819D02*
X140583333Y-58704819D01*
X140583333Y-58704819D02*
X140773809Y-57990533D01*
X140773809Y-57990533D02*
X140964285Y-58704819D01*
X140964285Y-58704819D02*
X141202381Y-57704819D01*
X141535714Y-57800057D02*
X141583333Y-57752438D01*
X141583333Y-57752438D02*
X141678571Y-57704819D01*
X141678571Y-57704819D02*
X141916666Y-57704819D01*
X141916666Y-57704819D02*
X142011904Y-57752438D01*
X142011904Y-57752438D02*
X142059523Y-57800057D01*
X142059523Y-57800057D02*
X142107142Y-57895295D01*
X142107142Y-57895295D02*
X142107142Y-57990533D01*
X142107142Y-57990533D02*
X142059523Y-58133390D01*
X142059523Y-58133390D02*
X141488095Y-58704819D01*
X141488095Y-58704819D02*
X142107142Y-58704819D01*
X143011904Y-57704819D02*
X142535714Y-57704819D01*
X142535714Y-57704819D02*
X142488095Y-58181009D01*
X142488095Y-58181009D02*
X142535714Y-58133390D01*
X142535714Y-58133390D02*
X142630952Y-58085771D01*
X142630952Y-58085771D02*
X142869047Y-58085771D01*
X142869047Y-58085771D02*
X142964285Y-58133390D01*
X142964285Y-58133390D02*
X143011904Y-58181009D01*
X143011904Y-58181009D02*
X143059523Y-58276247D01*
X143059523Y-58276247D02*
X143059523Y-58514342D01*
X143059523Y-58514342D02*
X143011904Y-58609580D01*
X143011904Y-58609580D02*
X142964285Y-58657200D01*
X142964285Y-58657200D02*
X142869047Y-58704819D01*
X142869047Y-58704819D02*
X142630952Y-58704819D01*
X142630952Y-58704819D02*
X142535714Y-58657200D01*
X142535714Y-58657200D02*
X142488095Y-58609580D01*
X105410095Y-39666152D02*
X105410095Y-40332819D01*
X105172000Y-39285200D02*
X104933905Y-39999485D01*
X104933905Y-39999485D02*
X105552952Y-39999485D01*
X105838667Y-39332819D02*
X106505333Y-39332819D01*
X106505333Y-39332819D02*
X106076762Y-40332819D01*
X107076762Y-39332819D02*
X107172000Y-39332819D01*
X107172000Y-39332819D02*
X107267238Y-39380438D01*
X107267238Y-39380438D02*
X107314857Y-39428057D01*
X107314857Y-39428057D02*
X107362476Y-39523295D01*
X107362476Y-39523295D02*
X107410095Y-39713771D01*
X107410095Y-39713771D02*
X107410095Y-39951866D01*
X107410095Y-39951866D02*
X107362476Y-40142342D01*
X107362476Y-40142342D02*
X107314857Y-40237580D01*
X107314857Y-40237580D02*
X107267238Y-40285200D01*
X107267238Y-40285200D02*
X107172000Y-40332819D01*
X107172000Y-40332819D02*
X107076762Y-40332819D01*
X107076762Y-40332819D02*
X106981524Y-40285200D01*
X106981524Y-40285200D02*
X106933905Y-40237580D01*
X106933905Y-40237580D02*
X106886286Y-40142342D01*
X106886286Y-40142342D02*
X106838667Y-39951866D01*
X106838667Y-39951866D02*
X106838667Y-39713771D01*
X106838667Y-39713771D02*
X106886286Y-39523295D01*
X106886286Y-39523295D02*
X106933905Y-39428057D01*
X106933905Y-39428057D02*
X106981524Y-39380438D01*
X106981524Y-39380438D02*
X107076762Y-39332819D01*
X102195333Y-40332819D02*
X101862000Y-39856628D01*
X101623905Y-40332819D02*
X101623905Y-39332819D01*
X101623905Y-39332819D02*
X102004857Y-39332819D01*
X102004857Y-39332819D02*
X102100095Y-39380438D01*
X102100095Y-39380438D02*
X102147714Y-39428057D01*
X102147714Y-39428057D02*
X102195333Y-39523295D01*
X102195333Y-39523295D02*
X102195333Y-39666152D01*
X102195333Y-39666152D02*
X102147714Y-39761390D01*
X102147714Y-39761390D02*
X102100095Y-39809009D01*
X102100095Y-39809009D02*
X102004857Y-39856628D01*
X102004857Y-39856628D02*
X101623905Y-39856628D01*
X102528667Y-39332819D02*
X103147714Y-39332819D01*
X103147714Y-39332819D02*
X102814381Y-39713771D01*
X102814381Y-39713771D02*
X102957238Y-39713771D01*
X102957238Y-39713771D02*
X103052476Y-39761390D01*
X103052476Y-39761390D02*
X103100095Y-39809009D01*
X103100095Y-39809009D02*
X103147714Y-39904247D01*
X103147714Y-39904247D02*
X103147714Y-40142342D01*
X103147714Y-40142342D02*
X103100095Y-40237580D01*
X103100095Y-40237580D02*
X103052476Y-40285200D01*
X103052476Y-40285200D02*
X102957238Y-40332819D01*
X102957238Y-40332819D02*
X102671524Y-40332819D01*
X102671524Y-40332819D02*
X102576286Y-40285200D01*
X102576286Y-40285200D02*
X102528667Y-40237580D01*
X96904762Y-55633390D02*
X96809524Y-55585771D01*
X96809524Y-55585771D02*
X96761905Y-55538152D01*
X96761905Y-55538152D02*
X96714286Y-55442914D01*
X96714286Y-55442914D02*
X96714286Y-55395295D01*
X96714286Y-55395295D02*
X96761905Y-55300057D01*
X96761905Y-55300057D02*
X96809524Y-55252438D01*
X96809524Y-55252438D02*
X96904762Y-55204819D01*
X96904762Y-55204819D02*
X97095238Y-55204819D01*
X97095238Y-55204819D02*
X97190476Y-55252438D01*
X97190476Y-55252438D02*
X97238095Y-55300057D01*
X97238095Y-55300057D02*
X97285714Y-55395295D01*
X97285714Y-55395295D02*
X97285714Y-55442914D01*
X97285714Y-55442914D02*
X97238095Y-55538152D01*
X97238095Y-55538152D02*
X97190476Y-55585771D01*
X97190476Y-55585771D02*
X97095238Y-55633390D01*
X97095238Y-55633390D02*
X96904762Y-55633390D01*
X96904762Y-55633390D02*
X96809524Y-55681009D01*
X96809524Y-55681009D02*
X96761905Y-55728628D01*
X96761905Y-55728628D02*
X96714286Y-55823866D01*
X96714286Y-55823866D02*
X96714286Y-56014342D01*
X96714286Y-56014342D02*
X96761905Y-56109580D01*
X96761905Y-56109580D02*
X96809524Y-56157200D01*
X96809524Y-56157200D02*
X96904762Y-56204819D01*
X96904762Y-56204819D02*
X97095238Y-56204819D01*
X97095238Y-56204819D02*
X97190476Y-56157200D01*
X97190476Y-56157200D02*
X97238095Y-56109580D01*
X97238095Y-56109580D02*
X97285714Y-56014342D01*
X97285714Y-56014342D02*
X97285714Y-55823866D01*
X97285714Y-55823866D02*
X97238095Y-55728628D01*
X97238095Y-55728628D02*
X97190476Y-55681009D01*
X97190476Y-55681009D02*
X97095238Y-55633390D01*
X95666667Y-46657200D02*
X95809524Y-46704819D01*
X95809524Y-46704819D02*
X96047619Y-46704819D01*
X96047619Y-46704819D02*
X96142857Y-46657200D01*
X96142857Y-46657200D02*
X96190476Y-46609580D01*
X96190476Y-46609580D02*
X96238095Y-46514342D01*
X96238095Y-46514342D02*
X96238095Y-46419104D01*
X96238095Y-46419104D02*
X96190476Y-46323866D01*
X96190476Y-46323866D02*
X96142857Y-46276247D01*
X96142857Y-46276247D02*
X96047619Y-46228628D01*
X96047619Y-46228628D02*
X95857143Y-46181009D01*
X95857143Y-46181009D02*
X95761905Y-46133390D01*
X95761905Y-46133390D02*
X95714286Y-46085771D01*
X95714286Y-46085771D02*
X95666667Y-45990533D01*
X95666667Y-45990533D02*
X95666667Y-45895295D01*
X95666667Y-45895295D02*
X95714286Y-45800057D01*
X95714286Y-45800057D02*
X95761905Y-45752438D01*
X95761905Y-45752438D02*
X95857143Y-45704819D01*
X95857143Y-45704819D02*
X96095238Y-45704819D01*
X96095238Y-45704819D02*
X96238095Y-45752438D01*
X96571429Y-45704819D02*
X96809524Y-46704819D01*
X96809524Y-46704819D02*
X97000000Y-45990533D01*
X97000000Y-45990533D02*
X97190476Y-46704819D01*
X97190476Y-46704819D02*
X97428572Y-45704819D01*
X97857143Y-46704819D02*
X98047619Y-46704819D01*
X98047619Y-46704819D02*
X98142857Y-46657200D01*
X98142857Y-46657200D02*
X98190476Y-46609580D01*
X98190476Y-46609580D02*
X98285714Y-46466723D01*
X98285714Y-46466723D02*
X98333333Y-46276247D01*
X98333333Y-46276247D02*
X98333333Y-45895295D01*
X98333333Y-45895295D02*
X98285714Y-45800057D01*
X98285714Y-45800057D02*
X98238095Y-45752438D01*
X98238095Y-45752438D02*
X98142857Y-45704819D01*
X98142857Y-45704819D02*
X97952381Y-45704819D01*
X97952381Y-45704819D02*
X97857143Y-45752438D01*
X97857143Y-45752438D02*
X97809524Y-45800057D01*
X97809524Y-45800057D02*
X97761905Y-45895295D01*
X97761905Y-45895295D02*
X97761905Y-46133390D01*
X97761905Y-46133390D02*
X97809524Y-46228628D01*
X97809524Y-46228628D02*
X97857143Y-46276247D01*
X97857143Y-46276247D02*
X97952381Y-46323866D01*
X97952381Y-46323866D02*
X98142857Y-46323866D01*
X98142857Y-46323866D02*
X98238095Y-46276247D01*
X98238095Y-46276247D02*
X98285714Y-46228628D01*
X98285714Y-46228628D02*
X98333333Y-46133390D01*
X77000000Y-67728628D02*
X77000000Y-68204819D01*
X76666667Y-67204819D02*
X77000000Y-67728628D01*
X77000000Y-67728628D02*
X77333333Y-67204819D01*
X75440476Y-58657200D02*
X75583333Y-58704819D01*
X75583333Y-58704819D02*
X75821428Y-58704819D01*
X75821428Y-58704819D02*
X75916666Y-58657200D01*
X75916666Y-58657200D02*
X75964285Y-58609580D01*
X75964285Y-58609580D02*
X76011904Y-58514342D01*
X76011904Y-58514342D02*
X76011904Y-58419104D01*
X76011904Y-58419104D02*
X75964285Y-58323866D01*
X75964285Y-58323866D02*
X75916666Y-58276247D01*
X75916666Y-58276247D02*
X75821428Y-58228628D01*
X75821428Y-58228628D02*
X75630952Y-58181009D01*
X75630952Y-58181009D02*
X75535714Y-58133390D01*
X75535714Y-58133390D02*
X75488095Y-58085771D01*
X75488095Y-58085771D02*
X75440476Y-57990533D01*
X75440476Y-57990533D02*
X75440476Y-57895295D01*
X75440476Y-57895295D02*
X75488095Y-57800057D01*
X75488095Y-57800057D02*
X75535714Y-57752438D01*
X75535714Y-57752438D02*
X75630952Y-57704819D01*
X75630952Y-57704819D02*
X75869047Y-57704819D01*
X75869047Y-57704819D02*
X76011904Y-57752438D01*
X76345238Y-57704819D02*
X76583333Y-58704819D01*
X76583333Y-58704819D02*
X76773809Y-57990533D01*
X76773809Y-57990533D02*
X76964285Y-58704819D01*
X76964285Y-58704819D02*
X77202381Y-57704819D01*
X77535714Y-57800057D02*
X77583333Y-57752438D01*
X77583333Y-57752438D02*
X77678571Y-57704819D01*
X77678571Y-57704819D02*
X77916666Y-57704819D01*
X77916666Y-57704819D02*
X78011904Y-57752438D01*
X78011904Y-57752438D02*
X78059523Y-57800057D01*
X78059523Y-57800057D02*
X78107142Y-57895295D01*
X78107142Y-57895295D02*
X78107142Y-57990533D01*
X78107142Y-57990533D02*
X78059523Y-58133390D01*
X78059523Y-58133390D02*
X77488095Y-58704819D01*
X77488095Y-58704819D02*
X78107142Y-58704819D01*
X78726190Y-57704819D02*
X78821428Y-57704819D01*
X78821428Y-57704819D02*
X78916666Y-57752438D01*
X78916666Y-57752438D02*
X78964285Y-57800057D01*
X78964285Y-57800057D02*
X79011904Y-57895295D01*
X79011904Y-57895295D02*
X79059523Y-58085771D01*
X79059523Y-58085771D02*
X79059523Y-58323866D01*
X79059523Y-58323866D02*
X79011904Y-58514342D01*
X79011904Y-58514342D02*
X78964285Y-58609580D01*
X78964285Y-58609580D02*
X78916666Y-58657200D01*
X78916666Y-58657200D02*
X78821428Y-58704819D01*
X78821428Y-58704819D02*
X78726190Y-58704819D01*
X78726190Y-58704819D02*
X78630952Y-58657200D01*
X78630952Y-58657200D02*
X78583333Y-58609580D01*
X78583333Y-58609580D02*
X78535714Y-58514342D01*
X78535714Y-58514342D02*
X78488095Y-58323866D01*
X78488095Y-58323866D02*
X78488095Y-58085771D01*
X78488095Y-58085771D02*
X78535714Y-57895295D01*
X78535714Y-57895295D02*
X78583333Y-57800057D01*
X78583333Y-57800057D02*
X78630952Y-57752438D01*
X78630952Y-57752438D02*
X78726190Y-57704819D01*
X139380952Y-92204819D02*
X139047619Y-91728628D01*
X138809524Y-92204819D02*
X138809524Y-91204819D01*
X138809524Y-91204819D02*
X139190476Y-91204819D01*
X139190476Y-91204819D02*
X139285714Y-91252438D01*
X139285714Y-91252438D02*
X139333333Y-91300057D01*
X139333333Y-91300057D02*
X139380952Y-91395295D01*
X139380952Y-91395295D02*
X139380952Y-91538152D01*
X139380952Y-91538152D02*
X139333333Y-91633390D01*
X139333333Y-91633390D02*
X139285714Y-91681009D01*
X139285714Y-91681009D02*
X139190476Y-91728628D01*
X139190476Y-91728628D02*
X138809524Y-91728628D01*
X139809524Y-92204819D02*
X139809524Y-91538152D01*
X139809524Y-91204819D02*
X139761905Y-91252438D01*
X139761905Y-91252438D02*
X139809524Y-91300057D01*
X139809524Y-91300057D02*
X139857143Y-91252438D01*
X139857143Y-91252438D02*
X139809524Y-91204819D01*
X139809524Y-91204819D02*
X139809524Y-91300057D01*
X140714285Y-91538152D02*
X140714285Y-92347676D01*
X140714285Y-92347676D02*
X140666666Y-92442914D01*
X140666666Y-92442914D02*
X140619047Y-92490533D01*
X140619047Y-92490533D02*
X140523809Y-92538152D01*
X140523809Y-92538152D02*
X140380952Y-92538152D01*
X140380952Y-92538152D02*
X140285714Y-92490533D01*
X140714285Y-92157200D02*
X140619047Y-92204819D01*
X140619047Y-92204819D02*
X140428571Y-92204819D01*
X140428571Y-92204819D02*
X140333333Y-92157200D01*
X140333333Y-92157200D02*
X140285714Y-92109580D01*
X140285714Y-92109580D02*
X140238095Y-92014342D01*
X140238095Y-92014342D02*
X140238095Y-91728628D01*
X140238095Y-91728628D02*
X140285714Y-91633390D01*
X140285714Y-91633390D02*
X140333333Y-91585771D01*
X140333333Y-91585771D02*
X140428571Y-91538152D01*
X140428571Y-91538152D02*
X140619047Y-91538152D01*
X140619047Y-91538152D02*
X140714285Y-91585771D01*
X141190476Y-92204819D02*
X141190476Y-91204819D01*
X141619047Y-92204819D02*
X141619047Y-91681009D01*
X141619047Y-91681009D02*
X141571428Y-91585771D01*
X141571428Y-91585771D02*
X141476190Y-91538152D01*
X141476190Y-91538152D02*
X141333333Y-91538152D01*
X141333333Y-91538152D02*
X141238095Y-91585771D01*
X141238095Y-91585771D02*
X141190476Y-91633390D01*
X141952381Y-91538152D02*
X142333333Y-91538152D01*
X142095238Y-91204819D02*
X142095238Y-92061961D01*
X142095238Y-92061961D02*
X142142857Y-92157200D01*
X142142857Y-92157200D02*
X142238095Y-92204819D01*
X142238095Y-92204819D02*
X142333333Y-92204819D01*
X139190476Y-82657200D02*
X139333333Y-82704819D01*
X139333333Y-82704819D02*
X139571428Y-82704819D01*
X139571428Y-82704819D02*
X139666666Y-82657200D01*
X139666666Y-82657200D02*
X139714285Y-82609580D01*
X139714285Y-82609580D02*
X139761904Y-82514342D01*
X139761904Y-82514342D02*
X139761904Y-82419104D01*
X139761904Y-82419104D02*
X139714285Y-82323866D01*
X139714285Y-82323866D02*
X139666666Y-82276247D01*
X139666666Y-82276247D02*
X139571428Y-82228628D01*
X139571428Y-82228628D02*
X139380952Y-82181009D01*
X139380952Y-82181009D02*
X139285714Y-82133390D01*
X139285714Y-82133390D02*
X139238095Y-82085771D01*
X139238095Y-82085771D02*
X139190476Y-81990533D01*
X139190476Y-81990533D02*
X139190476Y-81895295D01*
X139190476Y-81895295D02*
X139238095Y-81800057D01*
X139238095Y-81800057D02*
X139285714Y-81752438D01*
X139285714Y-81752438D02*
X139380952Y-81704819D01*
X139380952Y-81704819D02*
X139619047Y-81704819D01*
X139619047Y-81704819D02*
X139761904Y-81752438D01*
X140095238Y-81704819D02*
X140333333Y-82704819D01*
X140333333Y-82704819D02*
X140523809Y-81990533D01*
X140523809Y-81990533D02*
X140714285Y-82704819D01*
X140714285Y-82704819D02*
X140952381Y-81704819D01*
X141761904Y-82038152D02*
X141761904Y-82704819D01*
X141523809Y-81657200D02*
X141285714Y-82371485D01*
X141285714Y-82371485D02*
X141904761Y-82371485D01*
X142333333Y-82704819D02*
X142523809Y-82704819D01*
X142523809Y-82704819D02*
X142619047Y-82657200D01*
X142619047Y-82657200D02*
X142666666Y-82609580D01*
X142666666Y-82609580D02*
X142761904Y-82466723D01*
X142761904Y-82466723D02*
X142809523Y-82276247D01*
X142809523Y-82276247D02*
X142809523Y-81895295D01*
X142809523Y-81895295D02*
X142761904Y-81800057D01*
X142761904Y-81800057D02*
X142714285Y-81752438D01*
X142714285Y-81752438D02*
X142619047Y-81704819D01*
X142619047Y-81704819D02*
X142428571Y-81704819D01*
X142428571Y-81704819D02*
X142333333Y-81752438D01*
X142333333Y-81752438D02*
X142285714Y-81800057D01*
X142285714Y-81800057D02*
X142238095Y-81895295D01*
X142238095Y-81895295D02*
X142238095Y-82133390D01*
X142238095Y-82133390D02*
X142285714Y-82228628D01*
X142285714Y-82228628D02*
X142333333Y-82276247D01*
X142333333Y-82276247D02*
X142428571Y-82323866D01*
X142428571Y-82323866D02*
X142619047Y-82323866D01*
X142619047Y-82323866D02*
X142714285Y-82276247D01*
X142714285Y-82276247D02*
X142761904Y-82228628D01*
X142761904Y-82228628D02*
X142809523Y-82133390D01*
X57132857Y-79941009D02*
X56799524Y-79941009D01*
X56799524Y-80464819D02*
X56799524Y-79464819D01*
X56799524Y-79464819D02*
X57275714Y-79464819D01*
X55440476Y-70657200D02*
X55583333Y-70704819D01*
X55583333Y-70704819D02*
X55821428Y-70704819D01*
X55821428Y-70704819D02*
X55916666Y-70657200D01*
X55916666Y-70657200D02*
X55964285Y-70609580D01*
X55964285Y-70609580D02*
X56011904Y-70514342D01*
X56011904Y-70514342D02*
X56011904Y-70419104D01*
X56011904Y-70419104D02*
X55964285Y-70323866D01*
X55964285Y-70323866D02*
X55916666Y-70276247D01*
X55916666Y-70276247D02*
X55821428Y-70228628D01*
X55821428Y-70228628D02*
X55630952Y-70181009D01*
X55630952Y-70181009D02*
X55535714Y-70133390D01*
X55535714Y-70133390D02*
X55488095Y-70085771D01*
X55488095Y-70085771D02*
X55440476Y-69990533D01*
X55440476Y-69990533D02*
X55440476Y-69895295D01*
X55440476Y-69895295D02*
X55488095Y-69800057D01*
X55488095Y-69800057D02*
X55535714Y-69752438D01*
X55535714Y-69752438D02*
X55630952Y-69704819D01*
X55630952Y-69704819D02*
X55869047Y-69704819D01*
X55869047Y-69704819D02*
X56011904Y-69752438D01*
X56345238Y-69704819D02*
X56583333Y-70704819D01*
X56583333Y-70704819D02*
X56773809Y-69990533D01*
X56773809Y-69990533D02*
X56964285Y-70704819D01*
X56964285Y-70704819D02*
X57202381Y-69704819D01*
X57488095Y-69704819D02*
X58107142Y-69704819D01*
X58107142Y-69704819D02*
X57773809Y-70085771D01*
X57773809Y-70085771D02*
X57916666Y-70085771D01*
X57916666Y-70085771D02*
X58011904Y-70133390D01*
X58011904Y-70133390D02*
X58059523Y-70181009D01*
X58059523Y-70181009D02*
X58107142Y-70276247D01*
X58107142Y-70276247D02*
X58107142Y-70514342D01*
X58107142Y-70514342D02*
X58059523Y-70609580D01*
X58059523Y-70609580D02*
X58011904Y-70657200D01*
X58011904Y-70657200D02*
X57916666Y-70704819D01*
X57916666Y-70704819D02*
X57630952Y-70704819D01*
X57630952Y-70704819D02*
X57535714Y-70657200D01*
X57535714Y-70657200D02*
X57488095Y-70609580D01*
X58726190Y-69704819D02*
X58821428Y-69704819D01*
X58821428Y-69704819D02*
X58916666Y-69752438D01*
X58916666Y-69752438D02*
X58964285Y-69800057D01*
X58964285Y-69800057D02*
X59011904Y-69895295D01*
X59011904Y-69895295D02*
X59059523Y-70085771D01*
X59059523Y-70085771D02*
X59059523Y-70323866D01*
X59059523Y-70323866D02*
X59011904Y-70514342D01*
X59011904Y-70514342D02*
X58964285Y-70609580D01*
X58964285Y-70609580D02*
X58916666Y-70657200D01*
X58916666Y-70657200D02*
X58821428Y-70704819D01*
X58821428Y-70704819D02*
X58726190Y-70704819D01*
X58726190Y-70704819D02*
X58630952Y-70657200D01*
X58630952Y-70657200D02*
X58583333Y-70609580D01*
X58583333Y-70609580D02*
X58535714Y-70514342D01*
X58535714Y-70514342D02*
X58488095Y-70323866D01*
X58488095Y-70323866D02*
X58488095Y-70085771D01*
X58488095Y-70085771D02*
X58535714Y-69895295D01*
X58535714Y-69895295D02*
X58583333Y-69800057D01*
X58583333Y-69800057D02*
X58630952Y-69752438D01*
X58630952Y-69752438D02*
X58726190Y-69704819D01*
X109809523Y-92204819D02*
X109333333Y-92204819D01*
X109333333Y-92204819D02*
X109333333Y-91204819D01*
X110523809Y-92157200D02*
X110428571Y-92204819D01*
X110428571Y-92204819D02*
X110238095Y-92204819D01*
X110238095Y-92204819D02*
X110142857Y-92157200D01*
X110142857Y-92157200D02*
X110095238Y-92061961D01*
X110095238Y-92061961D02*
X110095238Y-91681009D01*
X110095238Y-91681009D02*
X110142857Y-91585771D01*
X110142857Y-91585771D02*
X110238095Y-91538152D01*
X110238095Y-91538152D02*
X110428571Y-91538152D01*
X110428571Y-91538152D02*
X110523809Y-91585771D01*
X110523809Y-91585771D02*
X110571428Y-91681009D01*
X110571428Y-91681009D02*
X110571428Y-91776247D01*
X110571428Y-91776247D02*
X110095238Y-91871485D01*
X110857143Y-91538152D02*
X111238095Y-91538152D01*
X111000000Y-92204819D02*
X111000000Y-91347676D01*
X111000000Y-91347676D02*
X111047619Y-91252438D01*
X111047619Y-91252438D02*
X111142857Y-91204819D01*
X111142857Y-91204819D02*
X111238095Y-91204819D01*
X111428572Y-91538152D02*
X111809524Y-91538152D01*
X111571429Y-91204819D02*
X111571429Y-92061961D01*
X111571429Y-92061961D02*
X111619048Y-92157200D01*
X111619048Y-92157200D02*
X111714286Y-92204819D01*
X111714286Y-92204819D02*
X111809524Y-92204819D01*
X109190476Y-82657200D02*
X109333333Y-82704819D01*
X109333333Y-82704819D02*
X109571428Y-82704819D01*
X109571428Y-82704819D02*
X109666666Y-82657200D01*
X109666666Y-82657200D02*
X109714285Y-82609580D01*
X109714285Y-82609580D02*
X109761904Y-82514342D01*
X109761904Y-82514342D02*
X109761904Y-82419104D01*
X109761904Y-82419104D02*
X109714285Y-82323866D01*
X109714285Y-82323866D02*
X109666666Y-82276247D01*
X109666666Y-82276247D02*
X109571428Y-82228628D01*
X109571428Y-82228628D02*
X109380952Y-82181009D01*
X109380952Y-82181009D02*
X109285714Y-82133390D01*
X109285714Y-82133390D02*
X109238095Y-82085771D01*
X109238095Y-82085771D02*
X109190476Y-81990533D01*
X109190476Y-81990533D02*
X109190476Y-81895295D01*
X109190476Y-81895295D02*
X109238095Y-81800057D01*
X109238095Y-81800057D02*
X109285714Y-81752438D01*
X109285714Y-81752438D02*
X109380952Y-81704819D01*
X109380952Y-81704819D02*
X109619047Y-81704819D01*
X109619047Y-81704819D02*
X109761904Y-81752438D01*
X110095238Y-81704819D02*
X110333333Y-82704819D01*
X110333333Y-82704819D02*
X110523809Y-81990533D01*
X110523809Y-81990533D02*
X110714285Y-82704819D01*
X110714285Y-82704819D02*
X110952381Y-81704819D01*
X111761904Y-82038152D02*
X111761904Y-82704819D01*
X111523809Y-81657200D02*
X111285714Y-82371485D01*
X111285714Y-82371485D02*
X111904761Y-82371485D01*
X112190476Y-81704819D02*
X112857142Y-81704819D01*
X112857142Y-81704819D02*
X112428571Y-82704819D01*
X43785714Y-67681009D02*
X44119047Y-67681009D01*
X44261904Y-68204819D02*
X43785714Y-68204819D01*
X43785714Y-68204819D02*
X43785714Y-67204819D01*
X43785714Y-67204819D02*
X44261904Y-67204819D01*
X42440476Y-58657200D02*
X42583333Y-58704819D01*
X42583333Y-58704819D02*
X42821428Y-58704819D01*
X42821428Y-58704819D02*
X42916666Y-58657200D01*
X42916666Y-58657200D02*
X42964285Y-58609580D01*
X42964285Y-58609580D02*
X43011904Y-58514342D01*
X43011904Y-58514342D02*
X43011904Y-58419104D01*
X43011904Y-58419104D02*
X42964285Y-58323866D01*
X42964285Y-58323866D02*
X42916666Y-58276247D01*
X42916666Y-58276247D02*
X42821428Y-58228628D01*
X42821428Y-58228628D02*
X42630952Y-58181009D01*
X42630952Y-58181009D02*
X42535714Y-58133390D01*
X42535714Y-58133390D02*
X42488095Y-58085771D01*
X42488095Y-58085771D02*
X42440476Y-57990533D01*
X42440476Y-57990533D02*
X42440476Y-57895295D01*
X42440476Y-57895295D02*
X42488095Y-57800057D01*
X42488095Y-57800057D02*
X42535714Y-57752438D01*
X42535714Y-57752438D02*
X42630952Y-57704819D01*
X42630952Y-57704819D02*
X42869047Y-57704819D01*
X42869047Y-57704819D02*
X43011904Y-57752438D01*
X43345238Y-57704819D02*
X43583333Y-58704819D01*
X43583333Y-58704819D02*
X43773809Y-57990533D01*
X43773809Y-57990533D02*
X43964285Y-58704819D01*
X43964285Y-58704819D02*
X44202381Y-57704819D01*
X45107142Y-58704819D02*
X44535714Y-58704819D01*
X44821428Y-58704819D02*
X44821428Y-57704819D01*
X44821428Y-57704819D02*
X44726190Y-57847676D01*
X44726190Y-57847676D02*
X44630952Y-57942914D01*
X44630952Y-57942914D02*
X44535714Y-57990533D01*
X45440476Y-57704819D02*
X46107142Y-57704819D01*
X46107142Y-57704819D02*
X45678571Y-58704819D01*
X87714286Y-67204819D02*
X87714286Y-68014342D01*
X87714286Y-68014342D02*
X87761905Y-68109580D01*
X87761905Y-68109580D02*
X87809524Y-68157200D01*
X87809524Y-68157200D02*
X87904762Y-68204819D01*
X87904762Y-68204819D02*
X88095238Y-68204819D01*
X88095238Y-68204819D02*
X88190476Y-68157200D01*
X88190476Y-68157200D02*
X88238095Y-68109580D01*
X88238095Y-68109580D02*
X88285714Y-68014342D01*
X88285714Y-68014342D02*
X88285714Y-67204819D01*
X86440476Y-58657200D02*
X86583333Y-58704819D01*
X86583333Y-58704819D02*
X86821428Y-58704819D01*
X86821428Y-58704819D02*
X86916666Y-58657200D01*
X86916666Y-58657200D02*
X86964285Y-58609580D01*
X86964285Y-58609580D02*
X87011904Y-58514342D01*
X87011904Y-58514342D02*
X87011904Y-58419104D01*
X87011904Y-58419104D02*
X86964285Y-58323866D01*
X86964285Y-58323866D02*
X86916666Y-58276247D01*
X86916666Y-58276247D02*
X86821428Y-58228628D01*
X86821428Y-58228628D02*
X86630952Y-58181009D01*
X86630952Y-58181009D02*
X86535714Y-58133390D01*
X86535714Y-58133390D02*
X86488095Y-58085771D01*
X86488095Y-58085771D02*
X86440476Y-57990533D01*
X86440476Y-57990533D02*
X86440476Y-57895295D01*
X86440476Y-57895295D02*
X86488095Y-57800057D01*
X86488095Y-57800057D02*
X86535714Y-57752438D01*
X86535714Y-57752438D02*
X86630952Y-57704819D01*
X86630952Y-57704819D02*
X86869047Y-57704819D01*
X86869047Y-57704819D02*
X87011904Y-57752438D01*
X87345238Y-57704819D02*
X87583333Y-58704819D01*
X87583333Y-58704819D02*
X87773809Y-57990533D01*
X87773809Y-57990533D02*
X87964285Y-58704819D01*
X87964285Y-58704819D02*
X88202381Y-57704819D01*
X88535714Y-57800057D02*
X88583333Y-57752438D01*
X88583333Y-57752438D02*
X88678571Y-57704819D01*
X88678571Y-57704819D02*
X88916666Y-57704819D01*
X88916666Y-57704819D02*
X89011904Y-57752438D01*
X89011904Y-57752438D02*
X89059523Y-57800057D01*
X89059523Y-57800057D02*
X89107142Y-57895295D01*
X89107142Y-57895295D02*
X89107142Y-57990533D01*
X89107142Y-57990533D02*
X89059523Y-58133390D01*
X89059523Y-58133390D02*
X88488095Y-58704819D01*
X88488095Y-58704819D02*
X89107142Y-58704819D01*
X90059523Y-58704819D02*
X89488095Y-58704819D01*
X89773809Y-58704819D02*
X89773809Y-57704819D01*
X89773809Y-57704819D02*
X89678571Y-57847676D01*
X89678571Y-57847676D02*
X89583333Y-57942914D01*
X89583333Y-57942914D02*
X89488095Y-57990533D01*
D12*
%TO.C,SW10*%
X105000000Y-48000000D02*
X108000000Y-48000000D01*
X105000000Y-54000000D02*
X105000000Y-48000000D01*
X108000000Y-48000000D02*
X111000000Y-48000000D01*
X111000000Y-48000000D02*
X111000000Y-54000000D01*
X111000000Y-54000000D02*
X105000000Y-54000000D01*
X110015564Y-51000000D02*
G75*
G02*
X105984436Y-51000000I-2015564J0D01*
G01*
X105984436Y-51000000D02*
G75*
G02*
X110015564Y-51000000I2015564J0D01*
G01*
%TO.C,SW48*%
X123000000Y-84000000D02*
X126000000Y-84000000D01*
X123000000Y-90000000D02*
X123000000Y-84000000D01*
X126000000Y-84000000D02*
X129000000Y-84000000D01*
X129000000Y-84000000D02*
X129000000Y-90000000D01*
X129000000Y-90000000D02*
X123000000Y-90000000D01*
X128015564Y-87000000D02*
G75*
G02*
X123984436Y-87000000I-2015564J0D01*
G01*
X123984436Y-87000000D02*
G75*
G02*
X128015564Y-87000000I2015564J0D01*
G01*
%TO.C,J1*%
X73640000Y-7750000D02*
X73640000Y0D01*
X73640000Y-7750000D02*
X137720000Y-7750000D01*
X75360000Y-9430000D02*
X74720000Y-9430000D01*
X77900000Y-9430000D02*
X77260000Y-9430000D01*
X80440000Y-9430000D02*
X79800000Y-9430000D01*
X82980000Y-9430000D02*
X82340000Y-9430000D01*
X85520000Y-9430000D02*
X84880000Y-9430000D01*
X88060000Y-9430000D02*
X87420000Y-9430000D01*
X90600000Y-9430000D02*
X89960000Y-9430000D01*
X93140000Y-9430000D02*
X92500000Y-9430000D01*
X95680000Y-9430000D02*
X95040000Y-9430000D01*
X98220000Y-9430000D02*
X97580000Y-9430000D01*
X100760000Y-9430000D02*
X100120000Y-9430000D01*
X103300000Y-9430000D02*
X102660000Y-9430000D01*
X105840000Y-9430000D02*
X105200000Y-9430000D01*
X108380000Y-9430000D02*
X107740000Y-9430000D01*
X110920000Y-9430000D02*
X110280000Y-9430000D01*
X113460000Y-9430000D02*
X112820000Y-9430000D01*
X116000000Y-9430000D02*
X115360000Y-9430000D01*
X118540000Y-9430000D02*
X117900000Y-9430000D01*
X121080000Y-9430000D02*
X120440000Y-9430000D01*
X123620000Y-9430000D02*
X122980000Y-9430000D01*
X126160000Y-9430000D02*
X125520000Y-9430000D01*
X128700000Y-9430000D02*
X128060000Y-9430000D01*
X131240000Y-9430000D02*
X130600000Y-9430000D01*
X133780000Y-9430000D02*
X133140000Y-9430000D01*
X136320000Y-9430000D02*
X135680000Y-9430000D01*
X137720000Y0D02*
X73640000Y0D01*
X137720000Y-7750000D02*
X137720000Y0D01*
%TO.C,C3*%
X113030000Y-27178000D02*
X113030000Y-30278000D01*
X113030000Y-37178000D02*
X113030000Y-34078000D01*
X114330000Y-30278000D02*
X111730000Y-30278000D01*
X111730000Y-34078000D01*
X114330000Y-34078000D01*
X114330000Y-30278000D01*
%TO.C,SW31*%
X65000000Y-72000000D02*
X68000000Y-72000000D01*
X65000000Y-78000000D02*
X65000000Y-72000000D01*
X68000000Y-72000000D02*
X71000000Y-72000000D01*
X71000000Y-72000000D02*
X71000000Y-78000000D01*
X71000000Y-78000000D02*
X65000000Y-78000000D01*
X70015564Y-75000000D02*
G75*
G02*
X65984436Y-75000000I-2015564J0D01*
G01*
X65984436Y-75000000D02*
G75*
G02*
X70015564Y-75000000I2015564J0D01*
G01*
%TO.C,SW32*%
X76000000Y-72000000D02*
X79000000Y-72000000D01*
X76000000Y-78000000D02*
X76000000Y-72000000D01*
X79000000Y-72000000D02*
X82000000Y-72000000D01*
X82000000Y-72000000D02*
X82000000Y-78000000D01*
X82000000Y-78000000D02*
X76000000Y-78000000D01*
X81015564Y-75000000D02*
G75*
G02*
X76984436Y-75000000I-2015564J0D01*
G01*
X76984436Y-75000000D02*
G75*
G02*
X81015564Y-75000000I2015564J0D01*
G01*
%TO.C,C4*%
X128721283Y-38028500D02*
X129221283Y-38028500D01*
X128971283Y-37778500D02*
X128971283Y-38278500D01*
X133354888Y-39116000D02*
G75*
G02*
X128354888Y-39116000I-2500000J0D01*
G01*
X128354888Y-39116000D02*
G75*
G02*
X133354888Y-39116000I2500000J0D01*
G01*
%TO.C,IC1*%
X0Y-27000000D02*
X0Y-3000000D01*
X6750000Y0D02*
X3000000Y0D01*
X6750000Y0D02*
X6750000Y700000D01*
X7070000Y-24230000D02*
X8070000Y-23230000D01*
X7070000Y-29730000D02*
X7070000Y-24230000D01*
X8070000Y-23230000D02*
X57970000Y-23230000D01*
X18050000Y700000D02*
X6750000Y700000D01*
X18050000Y0D02*
X18050000Y700000D01*
X37400000Y2000000D02*
X37400000Y0D01*
X37400000Y0D02*
X18050000Y0D01*
X45400000Y2000000D02*
X37400000Y2000000D01*
X45400000Y0D02*
X45400000Y2000000D01*
X50000000Y2000000D02*
X50000000Y0D01*
X50000000Y0D02*
X45400000Y0D01*
X57970000Y-23230000D02*
X57970000Y-29730000D01*
X57970000Y-29730000D02*
X7070000Y-29730000D01*
X58000000Y2000000D02*
X50000000Y2000000D01*
X58000000Y0D02*
X58000000Y2000000D01*
X58000000Y0D02*
X62000000Y0D01*
X62000000Y-30000000D02*
X3000000Y-30000000D01*
X65000000Y-3000000D02*
X65000000Y-6500000D01*
X65000000Y-6500000D02*
X66200000Y-6500000D01*
X65000000Y-23500000D02*
X66200000Y-23500000D01*
X65000000Y-27000000D02*
X65000000Y-23500000D01*
X66200000Y-23500000D02*
X66200000Y-6500000D01*
X0Y-3000000D02*
G75*
G02*
X3000000Y0I3000000J0D01*
G01*
X3000000Y-30000000D02*
G75*
G02*
X0Y-27000000I1J3000001D01*
G01*
X62000000Y0D02*
G75*
G02*
X65000000Y-3000000I-1J-3000001D01*
G01*
X65000000Y-27000000D02*
G75*
G02*
X62000000Y-30000000I-3000001J1D01*
G01*
%TO.C,SW46*%
X95000000Y-84000000D02*
X98000000Y-84000000D01*
X95000000Y-90000000D02*
X95000000Y-84000000D01*
X98000000Y-84000000D02*
X101000000Y-84000000D01*
X101000000Y-84000000D02*
X101000000Y-90000000D01*
X101000000Y-90000000D02*
X95000000Y-90000000D01*
X100015564Y-87000000D02*
G75*
G02*
X95984436Y-87000000I-2015564J0D01*
G01*
X95984436Y-87000000D02*
G75*
G02*
X100015564Y-87000000I2015564J0D01*
G01*
%TO.C,SW28*%
X32000000Y-72000000D02*
X35000000Y-72000000D01*
X32000000Y-78000000D02*
X32000000Y-72000000D01*
X35000000Y-72000000D02*
X38000000Y-72000000D01*
X38000000Y-72000000D02*
X38000000Y-78000000D01*
X38000000Y-78000000D02*
X32000000Y-78000000D01*
X37015564Y-75000000D02*
G75*
G02*
X32984436Y-75000000I-2015564J0D01*
G01*
X32984436Y-75000000D02*
G75*
G02*
X37015564Y-75000000I2015564J0D01*
G01*
%TO.C,SW26*%
X6000000Y-72000000D02*
X9000000Y-72000000D01*
X6000000Y-78000000D02*
X6000000Y-72000000D01*
X9000000Y-72000000D02*
X12000000Y-72000000D01*
X12000000Y-72000000D02*
X12000000Y-78000000D01*
X12000000Y-78000000D02*
X6000000Y-78000000D01*
X11015564Y-75000000D02*
G75*
G02*
X6984436Y-75000000I-2015564J0D01*
G01*
X6984436Y-75000000D02*
G75*
G02*
X11015564Y-75000000I2015564J0D01*
G01*
%TO.C,SW44*%
X73000000Y-84000000D02*
X76000000Y-84000000D01*
X73000000Y-90000000D02*
X73000000Y-84000000D01*
X76000000Y-84000000D02*
X79000000Y-84000000D01*
X79000000Y-84000000D02*
X79000000Y-90000000D01*
X79000000Y-90000000D02*
X73000000Y-90000000D01*
X78015564Y-87000000D02*
G75*
G02*
X73984436Y-87000000I-2015564J0D01*
G01*
X73984436Y-87000000D02*
G75*
G02*
X78015564Y-87000000I2015564J0D01*
G01*
%TO.C,SW3*%
X28000000Y-48000000D02*
X31000000Y-48000000D01*
X28000000Y-54000000D02*
X28000000Y-48000000D01*
X31000000Y-48000000D02*
X34000000Y-48000000D01*
X34000000Y-48000000D02*
X34000000Y-54000000D01*
X34000000Y-54000000D02*
X28000000Y-54000000D01*
X33015564Y-51000000D02*
G75*
G02*
X28984436Y-51000000I-2015564J0D01*
G01*
X28984436Y-51000000D02*
G75*
G02*
X33015564Y-51000000I2015564J0D01*
G01*
%TO.C,C1*%
X120650000Y-24210000D02*
X120650000Y-27310000D01*
X120650000Y-34210000D02*
X120650000Y-31110000D01*
X119350000Y-31110000D02*
X121950000Y-31110000D01*
X121950000Y-27310000D01*
X119350000Y-27310000D01*
X119350000Y-31110000D01*
%TO.C,SW42*%
X51000000Y-84000000D02*
X54000000Y-84000000D01*
X51000000Y-90000000D02*
X51000000Y-84000000D01*
X54000000Y-84000000D02*
X57000000Y-84000000D01*
X57000000Y-84000000D02*
X57000000Y-90000000D01*
X57000000Y-90000000D02*
X51000000Y-90000000D01*
X56015564Y-87000000D02*
G75*
G02*
X51984436Y-87000000I-2015564J0D01*
G01*
X51984436Y-87000000D02*
G75*
G02*
X56015564Y-87000000I2015564J0D01*
G01*
%TO.C,SW40*%
X29000000Y-84000000D02*
X32000000Y-84000000D01*
X29000000Y-90000000D02*
X29000000Y-84000000D01*
X32000000Y-84000000D02*
X35000000Y-84000000D01*
X35000000Y-84000000D02*
X35000000Y-90000000D01*
X35000000Y-90000000D02*
X29000000Y-90000000D01*
X34015564Y-87000000D02*
G75*
G02*
X29984436Y-87000000I-2015564J0D01*
G01*
X29984436Y-87000000D02*
G75*
G02*
X34015564Y-87000000I2015564J0D01*
G01*
%TO.C,SW22*%
X96000000Y-60000000D02*
X99000000Y-60000000D01*
X96000000Y-66000000D02*
X96000000Y-60000000D01*
X99000000Y-60000000D02*
X102000000Y-60000000D01*
X102000000Y-60000000D02*
X102000000Y-66000000D01*
X102000000Y-66000000D02*
X96000000Y-66000000D01*
X101015564Y-63000000D02*
G75*
G02*
X96984436Y-63000000I-2015564J0D01*
G01*
X96984436Y-63000000D02*
G75*
G02*
X101015564Y-63000000I2015564J0D01*
G01*
%TO.C,SW29*%
X43000000Y-72000000D02*
X46000000Y-72000000D01*
X43000000Y-78000000D02*
X43000000Y-72000000D01*
X46000000Y-72000000D02*
X49000000Y-72000000D01*
X49000000Y-72000000D02*
X49000000Y-78000000D01*
X49000000Y-78000000D02*
X43000000Y-78000000D01*
X48015564Y-75000000D02*
G75*
G02*
X43984436Y-75000000I-2015564J0D01*
G01*
X43984436Y-75000000D02*
G75*
G02*
X48015564Y-75000000I2015564J0D01*
G01*
%TO.C,SW2*%
X17000000Y-48000000D02*
X20000000Y-48000000D01*
X17000000Y-54000000D02*
X17000000Y-48000000D01*
X20000000Y-48000000D02*
X23000000Y-48000000D01*
X23000000Y-48000000D02*
X23000000Y-54000000D01*
X23000000Y-54000000D02*
X17000000Y-54000000D01*
X22015564Y-51000000D02*
G75*
G02*
X17984436Y-51000000I-2015564J0D01*
G01*
X17984436Y-51000000D02*
G75*
G02*
X22015564Y-51000000I2015564J0D01*
G01*
%TO.C,SW39*%
X18000000Y-84000000D02*
X21000000Y-84000000D01*
X18000000Y-90000000D02*
X18000000Y-84000000D01*
X21000000Y-84000000D02*
X24000000Y-84000000D01*
X24000000Y-84000000D02*
X24000000Y-90000000D01*
X24000000Y-90000000D02*
X18000000Y-90000000D01*
X23015564Y-87000000D02*
G75*
G02*
X18984436Y-87000000I-2015564J0D01*
G01*
X18984436Y-87000000D02*
G75*
G02*
X23015564Y-87000000I2015564J0D01*
G01*
%TO.C,SW7*%
X72000000Y-48000000D02*
X75000000Y-48000000D01*
X72000000Y-54000000D02*
X72000000Y-48000000D01*
X75000000Y-48000000D02*
X78000000Y-48000000D01*
X78000000Y-48000000D02*
X78000000Y-54000000D01*
X78000000Y-54000000D02*
X72000000Y-54000000D01*
X77015564Y-51000000D02*
G75*
G02*
X72984436Y-51000000I-2015564J0D01*
G01*
X72984436Y-51000000D02*
G75*
G02*
X77015564Y-51000000I2015564J0D01*
G01*
%TO.C,SW18*%
X52000000Y-60000000D02*
X55000000Y-60000000D01*
X52000000Y-66000000D02*
X52000000Y-60000000D01*
X55000000Y-60000000D02*
X58000000Y-60000000D01*
X58000000Y-60000000D02*
X58000000Y-66000000D01*
X58000000Y-66000000D02*
X52000000Y-66000000D01*
X57015564Y-63000000D02*
G75*
G02*
X52984436Y-63000000I-2015564J0D01*
G01*
X52984436Y-63000000D02*
G75*
G02*
X57015564Y-63000000I2015564J0D01*
G01*
%TO.C,SW16*%
X30000000Y-60000000D02*
X33000000Y-60000000D01*
X30000000Y-66000000D02*
X30000000Y-60000000D01*
X33000000Y-60000000D02*
X36000000Y-60000000D01*
X36000000Y-60000000D02*
X36000000Y-66000000D01*
X36000000Y-66000000D02*
X30000000Y-66000000D01*
X35015564Y-63000000D02*
G75*
G02*
X30984436Y-63000000I-2015564J0D01*
G01*
X30984436Y-63000000D02*
G75*
G02*
X35015564Y-63000000I2015564J0D01*
G01*
%TO.C,R2*%
X124714000Y-24130000D02*
X124714000Y-26060000D01*
X124714000Y-34290000D02*
X124714000Y-32360000D01*
X125964000Y-26060000D02*
X123464000Y-26060000D01*
X123464000Y-32360000D01*
X125964000Y-32360000D01*
X125964000Y-26060000D01*
%TO.C,SW11*%
X116000000Y-48000000D02*
X119000000Y-48000000D01*
X116000000Y-54000000D02*
X116000000Y-48000000D01*
X119000000Y-48000000D02*
X122000000Y-48000000D01*
X122000000Y-48000000D02*
X122000000Y-54000000D01*
X122000000Y-54000000D02*
X116000000Y-54000000D01*
X121015564Y-51000000D02*
G75*
G02*
X116984436Y-51000000I-2015564J0D01*
G01*
X116984436Y-51000000D02*
G75*
G02*
X121015564Y-51000000I2015564J0D01*
G01*
%TO.C,R1*%
X97536000Y-33528000D02*
X99466000Y-33528000D01*
X107696000Y-33528000D02*
X105766000Y-33528000D01*
X99466000Y-32278000D02*
X105766000Y-32278000D01*
X105766000Y-34778000D01*
X99466000Y-34778000D01*
X99466000Y-32278000D01*
%TO.C,SW35*%
X109000000Y-72000000D02*
X112000000Y-72000000D01*
X109000000Y-78000000D02*
X109000000Y-72000000D01*
X112000000Y-72000000D02*
X115000000Y-72000000D01*
X115000000Y-72000000D02*
X115000000Y-78000000D01*
X115000000Y-78000000D02*
X109000000Y-78000000D01*
X114015564Y-75000000D02*
G75*
G02*
X109984436Y-75000000I-2015564J0D01*
G01*
X109984436Y-75000000D02*
G75*
G02*
X114015564Y-75000000I2015564J0D01*
G01*
%TO.C,SW19*%
X63000000Y-60000000D02*
X66000000Y-60000000D01*
X63000000Y-66000000D02*
X63000000Y-60000000D01*
X66000000Y-60000000D02*
X69000000Y-60000000D01*
X69000000Y-60000000D02*
X69000000Y-66000000D01*
X69000000Y-66000000D02*
X63000000Y-66000000D01*
X68015564Y-63000000D02*
G75*
G02*
X63984436Y-63000000I-2015564J0D01*
G01*
X63984436Y-63000000D02*
G75*
G02*
X68015564Y-63000000I2015564J0D01*
G01*
%TO.C,SW23*%
X107000000Y-60000000D02*
X110000000Y-60000000D01*
X107000000Y-66000000D02*
X107000000Y-60000000D01*
X110000000Y-60000000D02*
X113000000Y-60000000D01*
X113000000Y-60000000D02*
X113000000Y-66000000D01*
X113000000Y-66000000D02*
X107000000Y-66000000D01*
X112015564Y-63000000D02*
G75*
G02*
X107984436Y-63000000I-2015564J0D01*
G01*
X107984436Y-63000000D02*
G75*
G02*
X112015564Y-63000000I2015564J0D01*
G01*
%TO.C,SW36*%
X123000000Y-72000000D02*
X126000000Y-72000000D01*
X123000000Y-78000000D02*
X123000000Y-72000000D01*
X126000000Y-72000000D02*
X129000000Y-72000000D01*
X129000000Y-72000000D02*
X129000000Y-78000000D01*
X129000000Y-78000000D02*
X123000000Y-78000000D01*
X128015564Y-75000000D02*
G75*
G02*
X123984436Y-75000000I-2015564J0D01*
G01*
X123984436Y-75000000D02*
G75*
G02*
X128015564Y-75000000I2015564J0D01*
G01*
%TO.C,SW33*%
X87000000Y-72000000D02*
X90000000Y-72000000D01*
X87000000Y-78000000D02*
X87000000Y-72000000D01*
X90000000Y-72000000D02*
X93000000Y-72000000D01*
X93000000Y-72000000D02*
X93000000Y-78000000D01*
X93000000Y-78000000D02*
X87000000Y-78000000D01*
X92015564Y-75000000D02*
G75*
G02*
X87984436Y-75000000I-2015564J0D01*
G01*
X87984436Y-75000000D02*
G75*
G02*
X92015564Y-75000000I2015564J0D01*
G01*
%TO.C,SW41*%
X40000000Y-84000000D02*
X43000000Y-84000000D01*
X40000000Y-90000000D02*
X40000000Y-84000000D01*
X43000000Y-84000000D02*
X46000000Y-84000000D01*
X46000000Y-84000000D02*
X46000000Y-90000000D01*
X46000000Y-90000000D02*
X40000000Y-90000000D01*
X45015564Y-87000000D02*
G75*
G02*
X40984436Y-87000000I-2015564J0D01*
G01*
X40984436Y-87000000D02*
G75*
G02*
X45015564Y-87000000I2015564J0D01*
G01*
%TO.C,SW24*%
X118000000Y-60000000D02*
X121000000Y-60000000D01*
X118000000Y-66000000D02*
X118000000Y-60000000D01*
X121000000Y-60000000D02*
X124000000Y-60000000D01*
X124000000Y-60000000D02*
X124000000Y-66000000D01*
X124000000Y-66000000D02*
X118000000Y-66000000D01*
X123015564Y-63000000D02*
G75*
G02*
X118984436Y-63000000I-2015564J0D01*
G01*
X118984436Y-63000000D02*
G75*
G02*
X123015564Y-63000000I2015564J0D01*
G01*
%TO.C,SW34*%
X98000000Y-72000000D02*
X101000000Y-72000000D01*
X98000000Y-78000000D02*
X98000000Y-72000000D01*
X101000000Y-72000000D02*
X104000000Y-72000000D01*
X104000000Y-72000000D02*
X104000000Y-78000000D01*
X104000000Y-78000000D02*
X98000000Y-78000000D01*
X103015564Y-75000000D02*
G75*
G02*
X98984436Y-75000000I-2015564J0D01*
G01*
X98984436Y-75000000D02*
G75*
G02*
X103015564Y-75000000I2015564J0D01*
G01*
%TO.C,SW43*%
X62000000Y-84000000D02*
X65000000Y-84000000D01*
X62000000Y-90000000D02*
X62000000Y-84000000D01*
X65000000Y-84000000D02*
X68000000Y-84000000D01*
X68000000Y-84000000D02*
X68000000Y-90000000D01*
X68000000Y-90000000D02*
X62000000Y-90000000D01*
X67015564Y-87000000D02*
G75*
G02*
X62984436Y-87000000I-2015564J0D01*
G01*
X62984436Y-87000000D02*
G75*
G02*
X67015564Y-87000000I2015564J0D01*
G01*
%TO.C,SW8*%
X83000000Y-48000000D02*
X86000000Y-48000000D01*
X83000000Y-54000000D02*
X83000000Y-48000000D01*
X86000000Y-48000000D02*
X89000000Y-48000000D01*
X89000000Y-48000000D02*
X89000000Y-54000000D01*
X89000000Y-54000000D02*
X83000000Y-54000000D01*
X88015564Y-51000000D02*
G75*
G02*
X83984436Y-51000000I-2015564J0D01*
G01*
X83984436Y-51000000D02*
G75*
G02*
X88015564Y-51000000I2015564J0D01*
G01*
%TO.C,SW5*%
X50000000Y-48000000D02*
X53000000Y-48000000D01*
X50000000Y-54000000D02*
X50000000Y-48000000D01*
X53000000Y-48000000D02*
X56000000Y-48000000D01*
X56000000Y-48000000D02*
X56000000Y-54000000D01*
X56000000Y-54000000D02*
X50000000Y-54000000D01*
X55015564Y-51000000D02*
G75*
G02*
X50984436Y-51000000I-2015564J0D01*
G01*
X50984436Y-51000000D02*
G75*
G02*
X55015564Y-51000000I2015564J0D01*
G01*
%TO.C,C2*%
X128467283Y-28884500D02*
X128967283Y-28884500D01*
X128717283Y-28634500D02*
X128717283Y-29134500D01*
X133100888Y-29972000D02*
G75*
G02*
X128100888Y-29972000I-2500000J0D01*
G01*
X128100888Y-29972000D02*
G75*
G02*
X133100888Y-29972000I2500000J0D01*
G01*
%TO.C,SW37*%
X138000000Y-72000000D02*
X141000000Y-72000000D01*
X138000000Y-78000000D02*
X138000000Y-72000000D01*
X141000000Y-72000000D02*
X144000000Y-72000000D01*
X144000000Y-72000000D02*
X144000000Y-78000000D01*
X144000000Y-78000000D02*
X138000000Y-78000000D01*
X143015564Y-75000000D02*
G75*
G02*
X138984436Y-75000000I-2015564J0D01*
G01*
X138984436Y-75000000D02*
G75*
G02*
X143015564Y-75000000I2015564J0D01*
G01*
%TO.C,SW12*%
X127000000Y-48000000D02*
X130000000Y-48000000D01*
X127000000Y-54000000D02*
X127000000Y-48000000D01*
X130000000Y-48000000D02*
X133000000Y-48000000D01*
X133000000Y-48000000D02*
X133000000Y-54000000D01*
X133000000Y-54000000D02*
X127000000Y-54000000D01*
X132015564Y-51000000D02*
G75*
G02*
X127984436Y-51000000I-2015564J0D01*
G01*
X127984436Y-51000000D02*
G75*
G02*
X132015564Y-51000000I2015564J0D01*
G01*
%TO.C,SW6*%
X61000000Y-48000000D02*
X64000000Y-48000000D01*
X61000000Y-54000000D02*
X61000000Y-48000000D01*
X64000000Y-48000000D02*
X67000000Y-48000000D01*
X67000000Y-48000000D02*
X67000000Y-54000000D01*
X67000000Y-54000000D02*
X61000000Y-54000000D01*
X66015564Y-51000000D02*
G75*
G02*
X61984436Y-51000000I-2015564J0D01*
G01*
X61984436Y-51000000D02*
G75*
G02*
X66015564Y-51000000I2015564J0D01*
G01*
%TO.C,SW1*%
X6000000Y-48000000D02*
X9000000Y-48000000D01*
X6000000Y-54000000D02*
X6000000Y-48000000D01*
X9000000Y-48000000D02*
X12000000Y-48000000D01*
X12000000Y-48000000D02*
X12000000Y-54000000D01*
X12000000Y-54000000D02*
X6000000Y-54000000D01*
X11015564Y-51000000D02*
G75*
G02*
X6984436Y-51000000I-2015564J0D01*
G01*
X6984436Y-51000000D02*
G75*
G02*
X11015564Y-51000000I2015564J0D01*
G01*
%TO.C,R4*%
X116840000Y-26924000D02*
X116840000Y-28854000D01*
X116840000Y-37084000D02*
X116840000Y-35154000D01*
X118090000Y-28854000D02*
X115590000Y-28854000D01*
X115590000Y-35154000D01*
X118090000Y-35154000D01*
X118090000Y-28854000D01*
%TO.C,SW27*%
X21000000Y-72000000D02*
X24000000Y-72000000D01*
X21000000Y-78000000D02*
X21000000Y-72000000D01*
X24000000Y-72000000D02*
X27000000Y-72000000D01*
X27000000Y-72000000D02*
X27000000Y-78000000D01*
X27000000Y-78000000D02*
X21000000Y-78000000D01*
X26015564Y-75000000D02*
G75*
G02*
X21984436Y-75000000I-2015564J0D01*
G01*
X21984436Y-75000000D02*
G75*
G02*
X26015564Y-75000000I2015564J0D01*
G01*
%TO.C,SW13*%
X138000000Y-48000000D02*
X141000000Y-48000000D01*
X138000000Y-54000000D02*
X138000000Y-48000000D01*
X141000000Y-48000000D02*
X144000000Y-48000000D01*
X144000000Y-48000000D02*
X144000000Y-54000000D01*
X144000000Y-54000000D02*
X138000000Y-54000000D01*
X143015564Y-51000000D02*
G75*
G02*
X138984436Y-51000000I-2015564J0D01*
G01*
X138984436Y-51000000D02*
G75*
G02*
X143015564Y-51000000I2015564J0D01*
G01*
%TO.C,SW15*%
X19000000Y-60000000D02*
X22000000Y-60000000D01*
X19000000Y-66000000D02*
X19000000Y-60000000D01*
X22000000Y-60000000D02*
X25000000Y-60000000D01*
X25000000Y-60000000D02*
X25000000Y-66000000D01*
X25000000Y-66000000D02*
X19000000Y-66000000D01*
X24015564Y-63000000D02*
G75*
G02*
X19984436Y-63000000I-2015564J0D01*
G01*
X19984436Y-63000000D02*
G75*
G02*
X24015564Y-63000000I2015564J0D01*
G01*
%TO.C,SW14*%
X6000000Y-60000000D02*
X9000000Y-60000000D01*
X6000000Y-66000000D02*
X6000000Y-60000000D01*
X9000000Y-60000000D02*
X12000000Y-60000000D01*
X12000000Y-60000000D02*
X12000000Y-66000000D01*
X12000000Y-66000000D02*
X6000000Y-66000000D01*
X11015564Y-63000000D02*
G75*
G02*
X6984436Y-63000000I-2015564J0D01*
G01*
X6984436Y-63000000D02*
G75*
G02*
X11015564Y-63000000I2015564J0D01*
G01*
%TO.C,SW38*%
X6000000Y-84000000D02*
X9000000Y-84000000D01*
X6000000Y-90000000D02*
X6000000Y-84000000D01*
X9000000Y-84000000D02*
X12000000Y-84000000D01*
X12000000Y-84000000D02*
X12000000Y-90000000D01*
X12000000Y-90000000D02*
X6000000Y-90000000D01*
X11015564Y-87000000D02*
G75*
G02*
X6984436Y-87000000I-2015564J0D01*
G01*
X6984436Y-87000000D02*
G75*
G02*
X11015564Y-87000000I2015564J0D01*
G01*
%TO.C,SW4*%
X39000000Y-48000000D02*
X42000000Y-48000000D01*
X39000000Y-54000000D02*
X39000000Y-48000000D01*
X42000000Y-48000000D02*
X45000000Y-48000000D01*
X45000000Y-48000000D02*
X45000000Y-54000000D01*
X45000000Y-54000000D02*
X39000000Y-54000000D01*
X44015564Y-51000000D02*
G75*
G02*
X39984436Y-51000000I-2015564J0D01*
G01*
X39984436Y-51000000D02*
G75*
G02*
X44015564Y-51000000I2015564J0D01*
G01*
%TO.C,SW45*%
X84000000Y-84000000D02*
X87000000Y-84000000D01*
X84000000Y-90000000D02*
X84000000Y-84000000D01*
X87000000Y-84000000D02*
X90000000Y-84000000D01*
X90000000Y-84000000D02*
X90000000Y-90000000D01*
X90000000Y-90000000D02*
X84000000Y-90000000D01*
X89015564Y-87000000D02*
G75*
G02*
X84984436Y-87000000I-2015564J0D01*
G01*
X84984436Y-87000000D02*
G75*
G02*
X89015564Y-87000000I2015564J0D01*
G01*
%TO.C,J2*%
X135800000Y-19250000D02*
X149800000Y-19250000D01*
X135800000Y-30750000D02*
X135800000Y-19250000D01*
X135800000Y-30750000D02*
X149800000Y-30750000D01*
X149800000Y-19250000D02*
X149800000Y-22000000D01*
X149800000Y-22000000D02*
X153300000Y-22000000D01*
X149800000Y-28000000D02*
X153300000Y-28000000D01*
X149800000Y-30750000D02*
X149800000Y-28000000D01*
X153300000Y-28000000D02*
X153300000Y-22000000D01*
%TO.C,SW25*%
X138000000Y-60000000D02*
X141000000Y-60000000D01*
X138000000Y-66000000D02*
X138000000Y-60000000D01*
X141000000Y-60000000D02*
X144000000Y-60000000D01*
X144000000Y-60000000D02*
X144000000Y-66000000D01*
X144000000Y-66000000D02*
X138000000Y-66000000D01*
X143015564Y-63000000D02*
G75*
G02*
X138984436Y-63000000I-2015564J0D01*
G01*
X138984436Y-63000000D02*
G75*
G02*
X143015564Y-63000000I2015564J0D01*
G01*
%TO.C,R3*%
X99314000Y-37338000D02*
X101244000Y-37338000D01*
X109474000Y-37338000D02*
X107544000Y-37338000D01*
X101244000Y-36088000D02*
X107544000Y-36088000D01*
X107544000Y-38588000D01*
X101244000Y-38588000D01*
X101244000Y-36088000D01*
%TO.C,SW9*%
X94000000Y-48000000D02*
X97000000Y-48000000D01*
X94000000Y-54000000D02*
X94000000Y-48000000D01*
X97000000Y-48000000D02*
X100000000Y-48000000D01*
X100000000Y-48000000D02*
X100000000Y-54000000D01*
X100000000Y-54000000D02*
X94000000Y-54000000D01*
X99015564Y-51000000D02*
G75*
G02*
X94984436Y-51000000I-2015564J0D01*
G01*
X94984436Y-51000000D02*
G75*
G02*
X99015564Y-51000000I2015564J0D01*
G01*
%TO.C,SW20*%
X74000000Y-60000000D02*
X77000000Y-60000000D01*
X74000000Y-66000000D02*
X74000000Y-60000000D01*
X77000000Y-60000000D02*
X80000000Y-60000000D01*
X80000000Y-60000000D02*
X80000000Y-66000000D01*
X80000000Y-66000000D02*
X74000000Y-66000000D01*
X79015564Y-63000000D02*
G75*
G02*
X74984436Y-63000000I-2015564J0D01*
G01*
X74984436Y-63000000D02*
G75*
G02*
X79015564Y-63000000I2015564J0D01*
G01*
%TO.C,SW49*%
X138000000Y-84000000D02*
X141000000Y-84000000D01*
X138000000Y-90000000D02*
X138000000Y-84000000D01*
X141000000Y-84000000D02*
X144000000Y-84000000D01*
X144000000Y-84000000D02*
X144000000Y-90000000D01*
X144000000Y-90000000D02*
X138000000Y-90000000D01*
X143015564Y-87000000D02*
G75*
G02*
X138984436Y-87000000I-2015564J0D01*
G01*
X138984436Y-87000000D02*
G75*
G02*
X143015564Y-87000000I2015564J0D01*
G01*
%TO.C,SW30*%
X54000000Y-72000000D02*
X57000000Y-72000000D01*
X54000000Y-78000000D02*
X54000000Y-72000000D01*
X57000000Y-72000000D02*
X60000000Y-72000000D01*
X60000000Y-72000000D02*
X60000000Y-78000000D01*
X60000000Y-78000000D02*
X54000000Y-78000000D01*
X59015564Y-75000000D02*
G75*
G02*
X54984436Y-75000000I-2015564J0D01*
G01*
X54984436Y-75000000D02*
G75*
G02*
X59015564Y-75000000I2015564J0D01*
G01*
%TO.C,SW47*%
X108000000Y-84000000D02*
X111000000Y-84000000D01*
X108000000Y-90000000D02*
X108000000Y-84000000D01*
X111000000Y-84000000D02*
X114000000Y-84000000D01*
X114000000Y-84000000D02*
X114000000Y-90000000D01*
X114000000Y-90000000D02*
X108000000Y-90000000D01*
X113015564Y-87000000D02*
G75*
G02*
X108984436Y-87000000I-2015564J0D01*
G01*
X108984436Y-87000000D02*
G75*
G02*
X113015564Y-87000000I2015564J0D01*
G01*
%TO.C,SW17*%
X41000000Y-60000000D02*
X44000000Y-60000000D01*
X41000000Y-66000000D02*
X41000000Y-60000000D01*
X44000000Y-60000000D02*
X47000000Y-60000000D01*
X47000000Y-60000000D02*
X47000000Y-66000000D01*
X47000000Y-66000000D02*
X41000000Y-66000000D01*
X46015564Y-63000000D02*
G75*
G02*
X41984436Y-63000000I-2015564J0D01*
G01*
X41984436Y-63000000D02*
G75*
G02*
X46015564Y-63000000I2015564J0D01*
G01*
%TO.C,SW21*%
X85000000Y-60000000D02*
X88000000Y-60000000D01*
X85000000Y-66000000D02*
X85000000Y-60000000D01*
X88000000Y-60000000D02*
X91000000Y-60000000D01*
X91000000Y-60000000D02*
X91000000Y-66000000D01*
X91000000Y-66000000D02*
X85000000Y-66000000D01*
X90015564Y-63000000D02*
G75*
G02*
X85984436Y-63000000I-2015564J0D01*
G01*
X85984436Y-63000000D02*
G75*
G02*
X90015564Y-63000000I2015564J0D01*
G01*
%TD*%
M02*
