M48
; DRILL file {KiCad 9.0.7} date 2026-04-09T16:03:14+0200
; FORMAT={-:-/ absolute / metric / decimal}
; #@! TF.CreationDate,2026-04-09T16:03:14+02:00
; #@! TF.GenerationSoftware,Kicad,Pcbnew,9.0.7
; #@! TF.FileFunction,Plated,1,2,PTH
FMAT,2
METRIC
; #@! TA.AperFunction,Plated,PTH,ViaDrill
T1C0.600
; #@! TA.AperFunction,Plated,PTH,ComponentDrill
T2C1.000
; #@! TA.AperFunction,Plated,PTH,ComponentDrill
T3C1.200
%
G90
G05
T1
X19.812Y-22.606
X22.733Y-22.86
X26.797Y-15.367
X28.067Y-5.08
X31.623Y-22.225
X36.83Y-22.86
X39.878Y-15.875
X43.434Y-4.572
X55.496Y-22.792
T3
X5.126Y-10.824
X8.672Y-8.054
X9.128Y-15.946
X9.87Y-25.73
X9.87Y-28.27
X11.054Y-6.128
X11.054Y-18.328
X12.41Y-25.73
X12.41Y-28.27
X12.674Y-13.176
X13.824Y-9.674
X13.824Y-21.874
X14.95Y-25.73
X14.95Y-28.27
X16.176Y-2.126
X16.176Y-14.326
X17.326Y-10.824
X17.49Y-25.73
X17.49Y-28.27
X18.946Y-5.672
X18.946Y-17.872
X20.03Y-25.73
X20.03Y-28.27
X20.872Y-8.054
X21.328Y-15.946
X22.57Y-25.73
X22.57Y-28.27
X24.874Y-13.176
X25.11Y-25.73
X25.11Y-28.27
X27.65Y-25.73
X27.65Y-28.27
X30.19Y-25.73
X30.19Y-28.27
X32.73Y-25.73
X32.73Y-28.27
X35.27Y-25.73
X35.27Y-28.27
X37.81Y-25.73
X37.81Y-28.27
X40.35Y-25.73
X40.35Y-28.27
X42.89Y-25.73
X42.89Y-28.27
X45.43Y-25.73
X45.43Y-28.27
X46.75Y-8.75
X46.75Y-13.25
X46.75Y-16.75
X46.75Y-21.25
X47.97Y-25.73
X47.97Y-28.27
X50.51Y-25.73
X50.51Y-28.27
X53.05Y-25.73
X53.05Y-28.27
X53.25Y-8.75
X53.25Y-13.25
X53.25Y-16.75
X53.25Y-21.25
X55.59Y-25.73
X55.59Y-28.27
X57.75Y-8.75
X57.75Y-13.25
X57.75Y-16.75
X57.75Y-21.25
X58.13Y-25.73
X58.13Y-28.27
X64.25Y-8.75
X64.25Y-13.25
X64.25Y-16.75
X64.25Y-21.25
T2
G00X31.5Y-5.15
M15
G01X31.5Y-6.35
M16
G05
G00X31.2Y-13.35
M15
G01X32.4Y-13.35
M16
G05
G00X36.6Y-2.25
M15
G01X35.4Y-2.25
M16
G05
G00X38.5Y-8.25
M15
G01X38.5Y-9.45
M16
G05
G00X41.0Y-9.95
M15
G01X41.0Y-11.15
M16
G05
M30
