%TF.GenerationSoftware,KiCad,Pcbnew,9.0.7*%
%TF.CreationDate,2026-04-09T16:03:05+02:00*%
%TF.ProjectId,ZeroTiny,5a65726f-5469-46e7-992e-6b696361645f,rev?*%
%TF.SameCoordinates,Original*%
%TF.FileFunction,Copper,L1,Top*%
%TF.FilePolarity,Positive*%
%FSLAX46Y46*%
G04 Gerber Fmt 4.6, Leading zero omitted, Abs format (unit mm)*
G04 Created by KiCad (PCBNEW 9.0.7) date 2026-04-09 16:03:05*
%MOMM*%
%LPD*%
G01*
G04 APERTURE LIST*
G04 Aperture macros list*
%AMRoundRect*
0 Rectangle with rounded corners*
0 $1 Rounding radius*
0 $2 $3 $4 $5 $6 $7 $8 $9 X,Y pos of 4 corners*
0 Add a 4 corners polygon primitive as box body*
4,1,4,$2,$3,$4,$5,$6,$7,$8,$9,$2,$3,0*
0 Add four circle primitives for the rounded corners*
1,1,$1+$1,$2,$3*
1,1,$1+$1,$4,$5*
1,1,$1+$1,$6,$7*
1,1,$1+$1,$8,$9*
0 Add four rect primitives between the rounded corners*
20,1,$1+$1,$2,$3,$4,$5,0*
20,1,$1+$1,$4,$5,$6,$7,0*
20,1,$1+$1,$6,$7,$8,$9,0*
20,1,$1+$1,$8,$9,$2,$3,0*%
G04 Aperture macros list end*
%ADD10C,0.375000*%
%TA.AperFunction,ComponentPad*%
%ADD11RoundRect,0.700000X0.772020X-0.094792X0.094792X0.772020X-0.772020X0.094792X-0.094792X-0.772020X0*%
%TD*%
%TA.AperFunction,ComponentPad*%
%ADD12O,2.500000X4.500000*%
%TD*%
%TA.AperFunction,ComponentPad*%
%ADD13O,4.500000X3.000000*%
%TD*%
%TA.AperFunction,ComponentPad*%
%ADD14O,3.000000X4.500000*%
%TD*%
%TA.AperFunction,SMDPad,CuDef*%
%ADD15RoundRect,0.250000X0.412500X1.100000X-0.412500X1.100000X-0.412500X-1.100000X0.412500X-1.100000X0*%
%TD*%
%TA.AperFunction,SMDPad,CuDef*%
%ADD16RoundRect,0.250000X1.250000X0.550000X-1.250000X0.550000X-1.250000X-0.550000X1.250000X-0.550000X0*%
%TD*%
%TA.AperFunction,ComponentPad*%
%ADD17RoundRect,0.700000X-0.550000X0.550000X-0.550000X-0.550000X0.550000X-0.550000X0.550000X0.550000X0*%
%TD*%
%TA.AperFunction,SMDPad,CuDef*%
%ADD18RoundRect,0.250000X0.625000X-0.400000X0.625000X0.400000X-0.625000X0.400000X-0.625000X-0.400000X0*%
%TD*%
%TA.AperFunction,SMDPad,CuDef*%
%ADD19RoundRect,0.250000X-0.400000X-0.625000X0.400000X-0.625000X0.400000X0.625000X-0.400000X0.625000X0*%
%TD*%
%TA.AperFunction,SMDPad,CuDef*%
%ADD20RoundRect,0.250000X-1.250000X-0.550000X1.250000X-0.550000X1.250000X0.550000X-1.250000X0.550000X0*%
%TD*%
%TA.AperFunction,ComponentPad*%
%ADD21RoundRect,0.700000X0.550000X-0.550000X0.550000X0.550000X-0.550000X0.550000X-0.550000X-0.550000X0*%
%TD*%
%TA.AperFunction,SMDPad,CuDef*%
%ADD22RoundRect,0.250000X0.400000X0.625000X-0.400000X0.625000X-0.400000X-0.625000X0.400000X-0.625000X0*%
%TD*%
%TA.AperFunction,ComponentPad*%
%ADD23RoundRect,0.700000X-0.094792X-0.772020X0.772020X-0.094792X0.094792X0.772020X-0.772020X0.094792X0*%
%TD*%
%TA.AperFunction,ComponentPad*%
%ADD24O,1.600000X3.000000*%
%TD*%
%TA.AperFunction,ViaPad*%
%ADD25C,1.600000*%
%TD*%
%TA.AperFunction,Conductor*%
%ADD26C,0.800000*%
%TD*%
%TA.AperFunction,Conductor*%
%ADD27C,0.600000*%
%TD*%
%TA.AperFunction,Conductor*%
%ADD28C,0.400000*%
%TD*%
G04 APERTURE END LIST*
D10*
G36*
X4317000Y-23131163D02*
G01*
X3062568Y-23131163D01*
X3062568Y-23576937D01*
X2810510Y-23576937D01*
X2810510Y-22383139D01*
X3062568Y-22383139D01*
X3062568Y-22827905D01*
X4317000Y-22827905D01*
X4317000Y-23131163D01*
G37*
G36*
X3716752Y-20838504D02*
G01*
X3845355Y-20863883D01*
X3957302Y-20904155D01*
X4054954Y-20958590D01*
X4140137Y-21027316D01*
X4213222Y-21110203D01*
X4270126Y-21202889D01*
X4311562Y-21306755D01*
X4337328Y-21423705D01*
X4346309Y-21556071D01*
X4337320Y-21690311D01*
X4311578Y-21808528D01*
X4270267Y-21913131D01*
X4213667Y-22006093D01*
X4141145Y-22088857D01*
X4056265Y-22157745D01*
X3959311Y-22212202D01*
X3848529Y-22252413D01*
X3721639Y-22277710D01*
X3575936Y-22286602D01*
X3423294Y-22278132D01*
X3295686Y-22254528D01*
X3189239Y-22217908D01*
X3080072Y-22157450D01*
X2982518Y-22078140D01*
X2925755Y-22015950D01*
X2880799Y-21951324D01*
X2846688Y-21883876D01*
X2814349Y-21788570D01*
X2794125Y-21681274D01*
X2787062Y-21560101D01*
X2787267Y-21557079D01*
X3044983Y-21557079D01*
X3053529Y-21648544D01*
X3078083Y-21727954D01*
X3118135Y-21797675D01*
X3174676Y-21859329D01*
X3241847Y-21906371D01*
X3326645Y-21942182D01*
X3432987Y-21965569D01*
X3565678Y-21974093D01*
X3695665Y-21965482D01*
X3801232Y-21941696D01*
X3886726Y-21904971D01*
X3955673Y-21856307D01*
X4014089Y-21792925D01*
X4055023Y-21722980D01*
X4079835Y-21645064D01*
X4088388Y-21557079D01*
X4079866Y-21469025D01*
X4055189Y-21391372D01*
X4014560Y-21321979D01*
X3956680Y-21259408D01*
X3888417Y-21211662D01*
X3802543Y-21175369D01*
X3695175Y-21151702D01*
X3561556Y-21143087D01*
X3429249Y-21151524D01*
X3323503Y-21174640D01*
X3239451Y-21209971D01*
X3173119Y-21256294D01*
X3117380Y-21317106D01*
X3077799Y-21386271D01*
X3053470Y-21465454D01*
X3044983Y-21557079D01*
X2787267Y-21557079D01*
X2796057Y-21427398D01*
X2821873Y-21310016D01*
X2863412Y-21205642D01*
X2920476Y-21112385D01*
X2993783Y-21028873D01*
X3079178Y-20959647D01*
X3177240Y-20904794D01*
X3289834Y-20864191D01*
X3419370Y-20838588D01*
X3568700Y-20829571D01*
X3716752Y-20838504D01*
G37*
G36*
X3365144Y-19447982D02*
G01*
X3442084Y-19465124D01*
X3506968Y-19492067D01*
X3566708Y-19529456D01*
X3615806Y-19571935D01*
X3655437Y-19619653D01*
X3700875Y-19699078D01*
X3726787Y-19777006D01*
X3742119Y-19897802D01*
X3748402Y-20091622D01*
X3748402Y-20289367D01*
X4317000Y-20289367D01*
X4317000Y-20592625D01*
X2810510Y-20592625D01*
X2810510Y-20142821D01*
X3062568Y-20142821D01*
X3062568Y-20289367D01*
X3496344Y-20289367D01*
X3496344Y-20123404D01*
X3488703Y-19958871D01*
X3472347Y-19883618D01*
X3441333Y-19829364D01*
X3397334Y-19788822D01*
X3342771Y-19763269D01*
X3278448Y-19754475D01*
X3224655Y-19760141D01*
X3179374Y-19776295D01*
X3140787Y-19802652D01*
X3109198Y-19837552D01*
X3086738Y-19877830D01*
X3073010Y-19924560D01*
X3065908Y-19992445D01*
X3062568Y-20142821D01*
X2810510Y-20142821D01*
X2810510Y-20105910D01*
X2817872Y-19852935D01*
X2833133Y-19745224D01*
X2864271Y-19664388D01*
X2912826Y-19592775D01*
X2980594Y-19528978D01*
X3060465Y-19481949D01*
X3156830Y-19452403D01*
X3273777Y-19441875D01*
X3365144Y-19447982D01*
G37*
D11*
%TO.P,SW8,1,1*%
%TO.N,/GND*%
X11053727Y-18327876D03*
X16175797Y-14326076D03*
%TO.P,SW8,2,2*%
%TO.N,/GPIO6*%
X13824203Y-21873924D03*
X18946273Y-17872124D03*
%TD*%
D12*
%TO.P,J1,R*%
%TO.N,Net-(C4-Pad2)*%
X41250000Y-10550000D03*
%TO.P,J1,RN*%
X38250000Y-8850000D03*
D13*
%TO.P,J1,S*%
%TO.N,/GND*%
X36000000Y-2250000D03*
D14*
%TO.P,J1,T*%
%TO.N,Net-(C2-Pad2)*%
X31500000Y-5750000D03*
D13*
%TO.P,J1,TN*%
X31800000Y-13350000D03*
%TD*%
D15*
%TO.P,C3,1*%
%TO.N,/GND*%
X57569500Y-2794000D03*
%TO.P,C3,2*%
%TO.N,Net-(C3-Pad2)*%
X54444500Y-2794000D03*
%TD*%
D16*
%TO.P,C4,1*%
%TO.N,Net-(C3-Pad2)*%
X51095000Y-3302000D03*
%TO.P,C4,2*%
%TO.N,Net-(C4-Pad2)*%
X46695000Y-3302000D03*
%TD*%
D17*
%TO.P,SW2,1,1*%
%TO.N,/GND*%
X64250000Y-21250000D03*
X57750000Y-21250000D03*
%TO.P,SW2,2,2*%
%TO.N,/GPIO27*%
X64250000Y-16750000D03*
X57750000Y-16750000D03*
%TD*%
D15*
%TO.P,C1,1*%
%TO.N,Net-(C1-Pad1)*%
X28486500Y-8382000D03*
%TO.P,C1,2*%
%TO.N,/GND*%
X25361500Y-8382000D03*
%TD*%
D18*
%TO.P,R2,1*%
%TO.N,/GND*%
X31242000Y-19711000D03*
%TO.P,R2,2*%
%TO.N,Net-(C1-Pad1)*%
X31242000Y-16611000D03*
%TD*%
D19*
%TO.P,R1,1*%
%TO.N,/GPIO12*%
X23469000Y-20447000D03*
%TO.P,R1,2*%
%TO.N,Net-(C1-Pad1)*%
X26569000Y-20447000D03*
%TD*%
D11*
%TO.P,SW6,1,1*%
%TO.N,/GND*%
X11053727Y-6127876D03*
X16175797Y-2126076D03*
%TO.P,SW6,2,2*%
%TO.N,/GPIO25*%
X13824203Y-9673924D03*
X18946273Y-5672124D03*
%TD*%
D16*
%TO.P,C5,1*%
%TO.N,/3V3*%
X38776000Y-18923000D03*
%TO.P,C5,2*%
%TO.N,/GND*%
X34376000Y-18923000D03*
%TD*%
D20*
%TO.P,C2,1*%
%TO.N,Net-(C1-Pad1)*%
X22438000Y-2921000D03*
%TO.P,C2,2*%
%TO.N,Net-(C2-Pad2)*%
X26838000Y-2921000D03*
%TD*%
D21*
%TO.P,SW4,1,1*%
%TO.N,/GND*%
X57750000Y-8750000D03*
X64250000Y-8750000D03*
%TO.P,SW4,2,2*%
%TO.N,/GPIO24*%
X57750000Y-13250000D03*
X64250000Y-13250000D03*
%TD*%
D22*
%TO.P,R4,1*%
%TO.N,/GND*%
X57430000Y-5715000D03*
%TO.P,R4,2*%
%TO.N,Net-(C3-Pad2)*%
X54330000Y-5715000D03*
%TD*%
D21*
%TO.P,SW3,1,1*%
%TO.N,/GND*%
X46750000Y-8750000D03*
X53250000Y-8750000D03*
%TO.P,SW3,2,2*%
%TO.N,/GPIO22*%
X46750000Y-13250000D03*
X53250000Y-13250000D03*
%TD*%
D17*
%TO.P,SW1,1,1*%
%TO.N,/GND*%
X53250000Y-21250000D03*
X46750000Y-21250000D03*
%TO.P,SW1,2,2*%
%TO.N,/GPIO23*%
X53250000Y-16750000D03*
X46750000Y-16750000D03*
%TD*%
D19*
%TO.P,R3,1*%
%TO.N,/GPIO13*%
X23977000Y-17780000D03*
%TO.P,R3,2*%
%TO.N,Net-(C3-Pad2)*%
X27077000Y-17780000D03*
%TD*%
D23*
%TO.P,SW5,1,1*%
%TO.N,/GND*%
X20872124Y-8053727D03*
X24873924Y-13175797D03*
%TO.P,SW5,2,2*%
%TO.N,/GPIO5*%
X17326076Y-10824203D03*
X21327876Y-15946273D03*
%TD*%
%TO.P,SW7,1,1*%
%TO.N,/GND*%
X8672124Y-8053727D03*
X12673924Y-13175797D03*
%TO.P,SW7,2,2*%
%TO.N,/GPIO26*%
X5126076Y-10824203D03*
X9127876Y-15946273D03*
%TD*%
D24*
%TO.P,IC1,1,3V3*%
%TO.N,/3V3*%
X58130000Y-25330000D03*
%TO.P,IC1,2,5V*%
%TO.N,/5V*%
X58130000Y-28670000D03*
%TO.P,IC1,3,SDA/GPIO2*%
%TO.N,unconnected-(IC1-SDA{slash}GPIO2-Pad3)*%
X55590000Y-25330000D03*
%TO.P,IC1,4,5V*%
%TO.N,/5V*%
X55590000Y-28670000D03*
%TO.P,IC1,5,SCL/GPIO3*%
%TO.N,unconnected-(IC1-SCL{slash}GPIO3-Pad5)*%
X53050000Y-25330000D03*
%TO.P,IC1,6,GND*%
%TO.N,/GND*%
X53050000Y-28670000D03*
%TO.P,IC1,7,GCLK0/GPIO4*%
%TO.N,unconnected-(IC1-GCLK0{slash}GPIO4-Pad7)*%
X50510000Y-25330000D03*
%TO.P,IC1,8,GPIO14/TXD*%
%TO.N,unconnected-(IC1-GPIO14{slash}TXD-Pad8)*%
X50510000Y-28670000D03*
%TO.P,IC1,9,GND*%
%TO.N,/GND*%
X47970000Y-25330000D03*
%TO.P,IC1,10,GPIO15/RXD*%
%TO.N,unconnected-(IC1-GPIO15{slash}RXD-Pad10)*%
X47970000Y-28670000D03*
%TO.P,IC1,11,GPIO17*%
%TO.N,unconnected-(IC1-GPIO17-Pad11)*%
X45430000Y-25330000D03*
%TO.P,IC1,12,GPIO18/PWM0*%
%TO.N,unconnected-(IC1-GPIO18{slash}PWM0-Pad12)*%
X45430000Y-28670000D03*
%TO.P,IC1,13,GPIO27*%
%TO.N,/GPIO27*%
X42890000Y-25330000D03*
%TO.P,IC1,14,GND*%
%TO.N,/GND*%
X42890000Y-28670000D03*
%TO.P,IC1,15,GPIO22*%
%TO.N,/GPIO22*%
X40350000Y-25330000D03*
%TO.P,IC1,16,GPIO23*%
%TO.N,/GPIO23*%
X40350000Y-28670000D03*
%TO.P,IC1,17,3V3*%
%TO.N,/3V3*%
X37810000Y-25330000D03*
%TO.P,IC1,18,GPIO24*%
%TO.N,/GPIO24*%
X37810000Y-28670000D03*
%TO.P,IC1,19,MOSI0/GPIO10*%
%TO.N,unconnected-(IC1-MOSI0{slash}GPIO10-Pad19)*%
X35270000Y-25330000D03*
%TO.P,IC1,20,GND*%
%TO.N,/GND*%
X35270000Y-28670000D03*
%TO.P,IC1,21,MISO0/GPIO9*%
%TO.N,unconnected-(IC1-MISO0{slash}GPIO9-Pad21)*%
X32730000Y-25330000D03*
%TO.P,IC1,22,GPIO25*%
%TO.N,/GPIO25*%
X32730000Y-28670000D03*
%TO.P,IC1,23,SCLK0/GPIO11*%
%TO.N,unconnected-(IC1-SCLK0{slash}GPIO11-Pad23)*%
X30190000Y-25330000D03*
%TO.P,IC1,24,~{CE0}/GPIO8*%
%TO.N,unconnected-(IC1-~{CE0}{slash}GPIO8-Pad24)*%
X30190000Y-28670000D03*
%TO.P,IC1,25,GND*%
%TO.N,/GND*%
X27650000Y-25330000D03*
%TO.P,IC1,26,~{CE1}/GPIO7*%
%TO.N,unconnected-(IC1-~{CE1}{slash}GPIO7-Pad26)*%
X27650000Y-28670000D03*
%TO.P,IC1,27,ID_SD/GPIO0*%
%TO.N,unconnected-(IC1-ID_SD{slash}GPIO0-Pad27)*%
X25110000Y-25330000D03*
%TO.P,IC1,28,ID_SC/GPIO1*%
%TO.N,unconnected-(IC1-ID_SC{slash}GPIO1-Pad28)*%
X25110000Y-28670000D03*
%TO.P,IC1,29,GCLK1/GPIO5*%
%TO.N,/GPIO5*%
X22570000Y-25330000D03*
%TO.P,IC1,30,GND*%
%TO.N,/GND*%
X22570000Y-28670000D03*
%TO.P,IC1,31,GCLK2/GPIO6*%
%TO.N,/GPIO6*%
X20030000Y-25330000D03*
%TO.P,IC1,32,PWM0/GPIO12*%
%TO.N,/GPIO12*%
X20030000Y-28670000D03*
%TO.P,IC1,33,PWM1/GPIO13*%
%TO.N,/GPIO13*%
X17490000Y-25330000D03*
%TO.P,IC1,34,GND*%
%TO.N,/GND*%
X17490000Y-28670000D03*
%TO.P,IC1,35,GPIO19/MISO1*%
%TO.N,unconnected-(IC1-GPIO19{slash}MISO1-Pad35)*%
X14950000Y-25330000D03*
%TO.P,IC1,36,GPIO16*%
%TO.N,unconnected-(IC1-GPIO16-Pad36)*%
X14950000Y-28670000D03*
%TO.P,IC1,37,GPIO26*%
%TO.N,/GPIO26*%
X12410000Y-25330000D03*
%TO.P,IC1,38,GPIO20/MOSI1*%
%TO.N,unconnected-(IC1-GPIO20{slash}MOSI1-Pad38)*%
X12410000Y-28670000D03*
%TO.P,IC1,39,GND*%
%TO.N,/GND*%
X9870000Y-25330000D03*
%TO.P,IC1,40,GPIO21/SCLK1*%
%TO.N,unconnected-(IC1-GPIO21{slash}SCLK1-Pad40)*%
X9870000Y-28670000D03*
%TD*%
D25*
%TO.N,/3V3*%
X36830000Y-22860000D03*
X55495526Y-22792426D03*
%TO.N,Net-(C2-Pad2)*%
X28067000Y-5080000D03*
%TO.N,Net-(C3-Pad2)*%
X26797000Y-15367000D03*
X39878000Y-15875000D03*
%TO.N,Net-(C4-Pad2)*%
X43434000Y-4572000D03*
%TO.N,/GPIO25*%
X31623000Y-22225000D03*
%TO.N,/GPIO5*%
X22733000Y-22860000D03*
%TO.N,/GPIO6*%
X19812000Y-22606000D03*
%TD*%
D26*
%TO.N,/GND*%
X1397000Y-18034000D02*
X1143000Y-18288000D01*
X1397000Y-16764000D02*
X1397000Y-18034000D01*
D27*
X5080000Y-18288000D02*
X1143000Y-18288000D01*
X9870000Y-25730000D02*
X9870000Y-23078000D01*
X9870000Y-23078000D02*
X5080000Y-18288000D01*
D26*
X1143000Y-17018000D02*
X1397000Y-16764000D01*
X1143000Y-31199000D02*
X1143000Y-17018000D01*
X17737000Y-31199000D02*
X1143000Y-31199000D01*
X1397000Y-9398000D02*
X1397000Y-16764000D01*
X2741273Y-8053727D02*
X1397000Y-9398000D01*
X8672124Y-8053727D02*
X2741273Y-8053727D01*
X57430000Y-8430000D02*
X57750000Y-8750000D01*
X57430000Y-5715000D02*
X57430000Y-8430000D01*
D27*
%TO.N,/3V3*%
X37719000Y-20361000D02*
X37719000Y-21971000D01*
X37719000Y-21971000D02*
X36830000Y-22860000D01*
X39060323Y-19019677D02*
X37719000Y-20361000D01*
X39665000Y-19019677D02*
X39060323Y-19019677D01*
%TO.N,/GND*%
X31242000Y-19711000D02*
X33588000Y-19711000D01*
X33588000Y-19711000D02*
X34376000Y-18923000D01*
%TO.N,Net-(C3-Pad2)*%
X26797000Y-17500000D02*
X26797000Y-15367000D01*
X26950000Y-17653000D02*
X26797000Y-17500000D01*
%TO.N,/GND*%
X27650000Y-23303000D02*
X31242000Y-19711000D01*
X27650000Y-25730000D02*
X27650000Y-23303000D01*
D26*
X34918000Y-31199000D02*
X35306000Y-30811000D01*
X66040000Y-31115000D02*
X66040000Y-23040000D01*
X26416000Y-31199000D02*
X34918000Y-31199000D01*
D28*
X46729000Y-26971000D02*
X46729000Y-31192000D01*
D26*
X17490000Y-30952000D02*
X17737000Y-31199000D01*
X22570000Y-30775000D02*
X22606000Y-30811000D01*
D28*
X27650000Y-25730000D02*
X26409000Y-26971000D01*
D26*
X42890000Y-28270000D02*
X42890000Y-30775000D01*
X22606000Y-30811000D02*
X22994000Y-31199000D01*
X53050000Y-30897000D02*
X53050000Y-28270000D01*
X23082563Y-10660937D02*
X22359063Y-10660937D01*
X17737000Y-31199000D02*
X22218000Y-31199000D01*
X25361500Y-8382000D02*
X23082563Y-10660937D01*
D27*
X57569500Y-2794000D02*
X57569500Y-5575500D01*
D26*
X22570000Y-28270000D02*
X22570000Y-30775000D01*
X52832000Y-31115000D02*
X66040000Y-31115000D01*
D27*
X17066318Y-1235555D02*
X16175797Y-2126076D01*
X36000000Y-2250000D02*
X34985555Y-1235555D01*
D26*
X42926000Y-30811000D02*
X43314000Y-31199000D01*
D28*
X26409000Y-26971000D02*
X26409000Y-31192000D01*
D27*
X57569500Y-5575500D02*
X57430000Y-5715000D01*
D28*
X46729000Y-31192000D02*
X46736000Y-31199000D01*
D26*
X43314000Y-31199000D02*
X46736000Y-31199000D01*
X22359063Y-10660937D02*
X24873924Y-13175797D01*
X17490000Y-28270000D02*
X17490000Y-30952000D01*
X47970000Y-22470000D02*
X46750000Y-21250000D01*
D28*
X47970000Y-25730000D02*
X46729000Y-26971000D01*
D26*
X52748000Y-31199000D02*
X52832000Y-31115000D01*
X35306000Y-30811000D02*
X35694000Y-31199000D01*
D27*
X34985555Y-1235555D02*
X17066318Y-1235555D01*
D26*
X35270000Y-30775000D02*
X35306000Y-30811000D01*
X35270000Y-28270000D02*
X35270000Y-30775000D01*
X20872124Y-8053727D02*
X20872124Y-9173997D01*
X52748000Y-31199000D02*
X53050000Y-30897000D01*
X11553727Y-6127876D02*
X11097975Y-6127876D01*
X47970000Y-25730000D02*
X47970000Y-22470000D01*
X46736000Y-31199000D02*
X52748000Y-31199000D01*
X42538000Y-31199000D02*
X42926000Y-30811000D01*
X22218000Y-31199000D02*
X22606000Y-30811000D01*
X66040000Y-23040000D02*
X64250000Y-21250000D01*
X35694000Y-31199000D02*
X42538000Y-31199000D01*
X22994000Y-31199000D02*
X26416000Y-31199000D01*
D28*
X26409000Y-31192000D02*
X26416000Y-31199000D01*
D26*
X20872124Y-9173997D02*
X22359063Y-10660937D01*
X42890000Y-30775000D02*
X42926000Y-30811000D01*
D28*
%TO.N,/GPIO12*%
X22707000Y-20447000D02*
X21271000Y-21883000D01*
X23469000Y-20447000D02*
X22707000Y-20447000D01*
X21271000Y-27029000D02*
X20030000Y-28270000D01*
X21271000Y-21883000D02*
X21271000Y-27029000D01*
D27*
%TO.N,Net-(C1-Pad1)*%
X26950000Y-20447000D02*
X28829000Y-18568000D01*
X28486500Y-8382000D02*
X23025500Y-2921000D01*
X28486500Y-15887500D02*
X28486500Y-8382000D01*
X26569000Y-20447000D02*
X26950000Y-20447000D01*
X31242000Y-16230000D02*
X28829000Y-16230000D01*
X28829000Y-16230000D02*
X28486500Y-15887500D01*
X23025500Y-2921000D02*
X22438000Y-2921000D01*
X28829000Y-18568000D02*
X28829000Y-16230000D01*
%TO.N,/3V3*%
X58130000Y-25730000D02*
X58130000Y-24485040D01*
X37810000Y-25730000D02*
X37810000Y-23840000D01*
X58130000Y-24485040D02*
X56437386Y-22792426D01*
X37810000Y-23840000D02*
X36830000Y-22860000D01*
X56437386Y-22792426D02*
X55495526Y-22792426D01*
%TO.N,Net-(C2-Pad2)*%
X28067000Y-5080000D02*
X28067000Y-4150000D01*
X28067000Y-4150000D02*
X26838000Y-2921000D01*
%TO.N,/GPIO13*%
X20895779Y-19050000D02*
X22326000Y-19050000D01*
X23596000Y-17780000D02*
X23977000Y-17780000D01*
X18415000Y-21463000D02*
X18482779Y-21463000D01*
X17490000Y-25730000D02*
X17490000Y-22388000D01*
X18482779Y-21463000D02*
X20895779Y-19050000D01*
X22326000Y-19050000D02*
X23596000Y-17780000D01*
X17490000Y-22388000D02*
X18415000Y-21463000D01*
D26*
%TO.N,/5V*%
X55590000Y-28270000D02*
X58130000Y-28270000D01*
D27*
%TO.N,Net-(C3-Pad2)*%
X54444500Y-5600500D02*
X54330000Y-5715000D01*
D26*
X51095000Y-3302000D02*
X54698500Y-3302000D01*
D27*
X51095000Y-3302000D02*
X48936000Y-5461000D01*
X54444500Y-2794000D02*
X54444500Y-5600500D01*
X48936000Y-5461000D02*
X46609000Y-5461000D01*
X43561000Y-12192000D02*
X39878000Y-15875000D01*
X46609000Y-5461000D02*
X43561000Y-8509000D01*
X43561000Y-8509000D02*
X43561000Y-12192000D01*
D26*
%TO.N,Net-(C4-Pad2)*%
X44704000Y-3302000D02*
X43434000Y-4572000D01*
X46695000Y-3302000D02*
X44704000Y-3302000D01*
D28*
%TO.N,/GPIO25*%
X31489000Y-22359000D02*
X31623000Y-22225000D01*
X32730000Y-28270000D02*
X31489000Y-27029000D01*
X31489000Y-27029000D02*
X31489000Y-22359000D01*
D27*
%TO.N,/GPIO5*%
X22570000Y-25730000D02*
X22570000Y-23023000D01*
X22570000Y-23023000D02*
X22733000Y-22860000D01*
%TO.N,/GPIO23*%
X46750000Y-17004000D02*
X46750000Y-16750000D01*
D28*
X41649000Y-26971000D02*
X41649000Y-23629000D01*
X40350000Y-28270000D02*
X41649000Y-26971000D01*
D27*
X41656000Y-22098000D02*
X46750000Y-17004000D01*
X41656000Y-23622000D02*
X41656000Y-22098000D01*
D28*
X41649000Y-23629000D02*
X41656000Y-23622000D01*
D27*
%TO.N,/GPIO6*%
X20030000Y-25730000D02*
X20030000Y-22824000D01*
X19812000Y-22606000D02*
X20030000Y-22824000D01*
%TO.N,/GPIO24*%
X42164000Y-15875000D02*
X44577000Y-13462000D01*
X39109000Y-22015120D02*
X42164000Y-18960120D01*
X44577000Y-12192000D02*
X45847000Y-10922000D01*
X42164000Y-18960120D02*
X42164000Y-15875000D01*
X55422000Y-10922000D02*
X57750000Y-13250000D01*
X45847000Y-10922000D02*
X55422000Y-10922000D01*
X39109000Y-22232000D02*
X39109000Y-22015120D01*
D28*
X39109000Y-26971000D02*
X39109000Y-22232000D01*
D27*
X44577000Y-13462000D02*
X44577000Y-12192000D01*
D28*
X37810000Y-28270000D02*
X39109000Y-26971000D01*
D27*
%TO.N,/GPIO26*%
X9127876Y-15946273D02*
X7874000Y-17200149D01*
X7874000Y-17200149D02*
X7874000Y-19050000D01*
X12410000Y-23586000D02*
X12410000Y-25730000D01*
X7874000Y-19050000D02*
X12410000Y-23586000D01*
%TO.N,/GPIO22*%
X43561000Y-18923000D02*
X43561000Y-16439000D01*
X43561000Y-16439000D02*
X46750000Y-13250000D01*
X40350000Y-22134000D02*
X43561000Y-18923000D01*
X40350000Y-25730000D02*
X40350000Y-22134000D01*
%TO.N,/GPIO27*%
X46101000Y-18923000D02*
X56826999Y-18923000D01*
X42890000Y-25730000D02*
X42890000Y-22134000D01*
X42890000Y-22134000D02*
X46101000Y-18923000D01*
X57750000Y-17999999D02*
X57750000Y-16750000D01*
X56826999Y-18923000D02*
X57750000Y-17999999D01*
%TD*%
%TA.AperFunction,Conductor*%
%TO.N,/GND*%
G36*
X26451725Y-26573316D02*
G01*
X26490765Y-26618370D01*
X26538140Y-26711349D01*
X26658417Y-26876894D01*
X26658417Y-26876895D01*
X26693486Y-26911964D01*
X26726971Y-26973287D01*
X26721987Y-27042979D01*
X26693488Y-27087324D01*
X26658039Y-27122774D01*
X26658033Y-27122781D01*
X26537715Y-27288386D01*
X26490485Y-27381080D01*
X26442510Y-27431876D01*
X26374689Y-27448671D01*
X26308554Y-27426134D01*
X26269515Y-27381080D01*
X26254999Y-27352591D01*
X26222287Y-27288390D01*
X26183657Y-27235220D01*
X26101971Y-27122786D01*
X26066866Y-27087681D01*
X26033381Y-27026358D01*
X26038365Y-26956666D01*
X26066866Y-26912319D01*
X26067223Y-26911962D01*
X26101966Y-26877219D01*
X26101968Y-26877215D01*
X26101971Y-26877213D01*
X26222284Y-26711614D01*
X26222286Y-26711611D01*
X26222287Y-26711610D01*
X26269795Y-26618369D01*
X26317770Y-26567574D01*
X26385591Y-26550779D01*
X26451725Y-26573316D01*
G37*
%TD.AperFunction*%
%TA.AperFunction,Conductor*%
G36*
X46771725Y-26573316D02*
G01*
X46810765Y-26618370D01*
X46858140Y-26711349D01*
X46978417Y-26876894D01*
X46978417Y-26876895D01*
X47013486Y-26911964D01*
X47046971Y-26973287D01*
X47041987Y-27042979D01*
X47013488Y-27087324D01*
X46978039Y-27122774D01*
X46978033Y-27122781D01*
X46857715Y-27288386D01*
X46810485Y-27381080D01*
X46762510Y-27431876D01*
X46694689Y-27448671D01*
X46628554Y-27426134D01*
X46589515Y-27381080D01*
X46574999Y-27352591D01*
X46542287Y-27288390D01*
X46503657Y-27235220D01*
X46421971Y-27122786D01*
X46386866Y-27087681D01*
X46353381Y-27026358D01*
X46358365Y-26956666D01*
X46386866Y-26912319D01*
X46387223Y-26911962D01*
X46421966Y-26877219D01*
X46421968Y-26877215D01*
X46421971Y-26877213D01*
X46542284Y-26711614D01*
X46542286Y-26711611D01*
X46542287Y-26711610D01*
X46589795Y-26618369D01*
X46637770Y-26567574D01*
X46705591Y-26550779D01*
X46771725Y-26573316D01*
G37*
%TD.AperFunction*%
%TA.AperFunction,Conductor*%
G36*
X51747295Y-19743185D02*
G01*
X51793050Y-19795989D01*
X51802994Y-19865147D01*
X51775649Y-19926723D01*
X51772841Y-19930103D01*
X51647160Y-20113575D01*
X51557336Y-20317008D01*
X51557330Y-20317024D01*
X51506417Y-20533491D01*
X51506415Y-20533507D01*
X51500000Y-20625931D01*
X51500000Y-21000000D01*
X52701518Y-21000000D01*
X52690889Y-21018409D01*
X52650000Y-21171009D01*
X52650000Y-21328991D01*
X52690889Y-21481591D01*
X52701518Y-21500000D01*
X51500001Y-21500000D01*
X51500001Y-21874067D01*
X51506415Y-21966491D01*
X51506417Y-21966507D01*
X51557330Y-22182975D01*
X51557336Y-22182991D01*
X51647160Y-22386424D01*
X51772843Y-22569899D01*
X51930100Y-22727156D01*
X52113575Y-22852839D01*
X52317008Y-22942663D01*
X52317024Y-22942669D01*
X52533491Y-22993582D01*
X52533507Y-22993584D01*
X52625931Y-22999999D01*
X52999999Y-22999999D01*
X53000000Y-22999998D01*
X53000000Y-21798482D01*
X53018409Y-21809111D01*
X53171009Y-21850000D01*
X53328991Y-21850000D01*
X53481591Y-21809111D01*
X53500000Y-21798482D01*
X53500000Y-22999999D01*
X53874068Y-22999999D01*
X53966491Y-22993584D01*
X53966503Y-22993582D01*
X54071929Y-22968786D01*
X54141695Y-22972598D01*
X54198324Y-23013523D01*
X54222793Y-23070091D01*
X54227049Y-23096963D01*
X54290307Y-23291649D01*
X54383241Y-23474039D01*
X54503554Y-23639639D01*
X54543624Y-23679709D01*
X54577109Y-23741032D01*
X54572125Y-23810724D01*
X54556262Y-23840275D01*
X54477712Y-23948390D01*
X54430485Y-24041080D01*
X54382510Y-24091876D01*
X54314689Y-24108671D01*
X54248554Y-24086134D01*
X54209515Y-24041080D01*
X54162419Y-23948650D01*
X54162287Y-23948390D01*
X54154556Y-23937749D01*
X54041971Y-23782786D01*
X53897213Y-23638028D01*
X53731613Y-23517715D01*
X53731612Y-23517714D01*
X53731610Y-23517713D01*
X53674653Y-23488691D01*
X53549223Y-23424781D01*
X53354534Y-23361522D01*
X53179995Y-23333878D01*
X53152352Y-23329500D01*
X52947648Y-23329500D01*
X52923329Y-23333351D01*
X52745465Y-23361522D01*
X52550776Y-23424781D01*
X52368386Y-23517715D01*
X52202786Y-23638028D01*
X52058028Y-23782786D01*
X51937715Y-23948386D01*
X51890485Y-24041080D01*
X51842510Y-24091876D01*
X51774689Y-24108671D01*
X51708554Y-24086134D01*
X51669515Y-24041080D01*
X51622419Y-23948650D01*
X51622287Y-23948390D01*
X51614556Y-23937749D01*
X51501971Y-23782786D01*
X51357213Y-23638028D01*
X51191613Y-23517715D01*
X51191612Y-23517714D01*
X51191610Y-23517713D01*
X51134653Y-23488691D01*
X51009223Y-23424781D01*
X50814534Y-23361522D01*
X50639995Y-23333878D01*
X50612352Y-23329500D01*
X50407648Y-23329500D01*
X50383329Y-23333351D01*
X50205465Y-23361522D01*
X50010776Y-23424781D01*
X49828386Y-23517715D01*
X49662786Y-23638028D01*
X49518028Y-23782786D01*
X49397713Y-23948388D01*
X49350203Y-24041630D01*
X49302228Y-24092426D01*
X49234407Y-24109220D01*
X49168272Y-24086682D01*
X49129234Y-24041628D01*
X49081861Y-23948652D01*
X48961582Y-23783105D01*
X48961582Y-23783104D01*
X48816895Y-23638417D01*
X48651349Y-23518140D01*
X48469029Y-23425244D01*
X48274413Y-23362009D01*
X48220000Y-23353390D01*
X48220000Y-25181517D01*
X48201591Y-25170889D01*
X48048991Y-25130000D01*
X47891009Y-25130000D01*
X47738409Y-25170889D01*
X47720000Y-25181517D01*
X47720000Y-23353390D01*
X47665586Y-23362009D01*
X47470970Y-23425244D01*
X47288650Y-23518140D01*
X47123105Y-23638417D01*
X47123104Y-23638417D01*
X46978417Y-23783104D01*
X46978417Y-23783105D01*
X46858140Y-23948650D01*
X46810765Y-24041629D01*
X46762790Y-24092425D01*
X46694969Y-24109220D01*
X46628834Y-24086682D01*
X46589795Y-24041629D01*
X46542419Y-23948650D01*
X46542287Y-23948390D01*
X46534556Y-23937749D01*
X46421971Y-23782786D01*
X46277213Y-23638028D01*
X46111613Y-23517715D01*
X46111612Y-23517714D01*
X46111610Y-23517713D01*
X46054653Y-23488691D01*
X45929223Y-23424781D01*
X45734534Y-23361522D01*
X45559995Y-23333878D01*
X45532352Y-23329500D01*
X45327648Y-23329500D01*
X45303329Y-23333351D01*
X45125465Y-23361522D01*
X44930776Y-23424781D01*
X44748386Y-23517715D01*
X44582786Y-23638028D01*
X44438028Y-23782786D01*
X44317715Y-23948386D01*
X44270485Y-24041080D01*
X44222510Y-24091876D01*
X44154689Y-24108671D01*
X44088554Y-24086134D01*
X44049515Y-24041080D01*
X44002419Y-23948650D01*
X44002287Y-23948390D01*
X43994556Y-23937749D01*
X43881971Y-23782786D01*
X43737215Y-23638030D01*
X43733954Y-23635244D01*
X43695770Y-23576731D01*
X43690500Y-23540966D01*
X43690500Y-22516939D01*
X43710185Y-22449900D01*
X43726814Y-22429263D01*
X44788323Y-21367754D01*
X44849642Y-21334272D01*
X44919334Y-21339256D01*
X44975267Y-21381128D01*
X44999684Y-21446592D01*
X45000000Y-21455438D01*
X45000000Y-21874067D01*
X45006415Y-21966491D01*
X45006417Y-21966507D01*
X45057330Y-22182975D01*
X45057336Y-22182991D01*
X45147160Y-22386424D01*
X45272843Y-22569899D01*
X45430100Y-22727156D01*
X45613575Y-22852839D01*
X45817008Y-22942663D01*
X45817024Y-22942669D01*
X46033491Y-22993582D01*
X46033507Y-22993584D01*
X46125931Y-22999999D01*
X46499999Y-22999999D01*
X46500000Y-22999998D01*
X46500000Y-21798482D01*
X46518409Y-21809111D01*
X46671009Y-21850000D01*
X46828991Y-21850000D01*
X46981591Y-21809111D01*
X47000000Y-21798482D01*
X47000000Y-22999999D01*
X47374068Y-22999999D01*
X47466491Y-22993584D01*
X47466507Y-22993582D01*
X47682975Y-22942669D01*
X47682991Y-22942663D01*
X47886424Y-22852839D01*
X48069899Y-22727156D01*
X48227156Y-22569899D01*
X48352839Y-22386424D01*
X48442663Y-22182991D01*
X48442669Y-22182975D01*
X48493582Y-21966508D01*
X48493584Y-21966492D01*
X48500000Y-21874068D01*
X48500000Y-21500000D01*
X47298482Y-21500000D01*
X47309111Y-21481591D01*
X47350000Y-21328991D01*
X47350000Y-21171009D01*
X47309111Y-21018409D01*
X47298482Y-21000000D01*
X48499999Y-21000000D01*
X48499999Y-20625932D01*
X48493584Y-20533508D01*
X48493582Y-20533492D01*
X48442669Y-20317024D01*
X48442663Y-20317008D01*
X48352839Y-20113575D01*
X48227158Y-19930103D01*
X48224351Y-19926723D01*
X48196664Y-19862573D01*
X48208053Y-19793638D01*
X48254904Y-19741804D01*
X48319744Y-19723500D01*
X51680256Y-19723500D01*
X51747295Y-19743185D01*
G37*
%TD.AperFunction*%
%TA.AperFunction,Conductor*%
G36*
X56247295Y-19743185D02*
G01*
X56293050Y-19795989D01*
X56302994Y-19865147D01*
X56275649Y-19926723D01*
X56272841Y-19930103D01*
X56147160Y-20113575D01*
X56057336Y-20317008D01*
X56057330Y-20317024D01*
X56006417Y-20533491D01*
X56006415Y-20533507D01*
X56000000Y-20625931D01*
X56000000Y-21000000D01*
X57201518Y-21000000D01*
X57190889Y-21018409D01*
X57150000Y-21171009D01*
X57150000Y-21328991D01*
X57190889Y-21481591D01*
X57201518Y-21500000D01*
X56000000Y-21500000D01*
X55986622Y-21513378D01*
X55925299Y-21546862D01*
X55860624Y-21543627D01*
X55800062Y-21523949D01*
X55648854Y-21500000D01*
X55597878Y-21491926D01*
X55393174Y-21491926D01*
X55365530Y-21496304D01*
X55190992Y-21523948D01*
X55137179Y-21541433D01*
X55067338Y-21543427D01*
X55011181Y-21511181D01*
X55000000Y-21500000D01*
X53798482Y-21500000D01*
X53809111Y-21481591D01*
X53850000Y-21328991D01*
X53850000Y-21171009D01*
X53809111Y-21018409D01*
X53798482Y-21000000D01*
X54999999Y-21000000D01*
X54999999Y-20625932D01*
X54993584Y-20533508D01*
X54993582Y-20533492D01*
X54942669Y-20317024D01*
X54942663Y-20317008D01*
X54852839Y-20113575D01*
X54727158Y-19930103D01*
X54724351Y-19926723D01*
X54696664Y-19862573D01*
X54708053Y-19793638D01*
X54754904Y-19741804D01*
X54819744Y-19723500D01*
X56180256Y-19723500D01*
X56247295Y-19743185D01*
G37*
%TD.AperFunction*%
%TA.AperFunction,Conductor*%
G36*
X44919334Y-8385257D02*
G01*
X44975267Y-8427129D01*
X44999684Y-8492593D01*
X44999946Y-8499946D01*
X45000000Y-8500000D01*
X46201518Y-8500000D01*
X46190889Y-8518409D01*
X46150000Y-8671009D01*
X46150000Y-8828991D01*
X46190889Y-8981591D01*
X46201518Y-9000000D01*
X45000001Y-9000000D01*
X45000001Y-9374067D01*
X45006415Y-9466491D01*
X45006417Y-9466507D01*
X45057330Y-9682975D01*
X45057336Y-9682991D01*
X45147160Y-9886424D01*
X45272843Y-10069899D01*
X45332251Y-10129307D01*
X45365736Y-10190630D01*
X45360752Y-10260322D01*
X45332251Y-10304669D01*
X44573181Y-11063740D01*
X44511858Y-11097225D01*
X44442167Y-11092241D01*
X44386233Y-11050369D01*
X44361816Y-10984905D01*
X44361500Y-10976059D01*
X44361500Y-8891939D01*
X44381185Y-8824900D01*
X44397814Y-8804263D01*
X44788321Y-8413756D01*
X44849642Y-8380273D01*
X44919334Y-8385257D01*
G37*
%TD.AperFunction*%
%TA.AperFunction,Conductor*%
G36*
X53338336Y-4222185D02*
G01*
X53376835Y-4261403D01*
X53401977Y-4302165D01*
X53439288Y-4362656D01*
X53440028Y-4363592D01*
X53440335Y-4364354D01*
X53443080Y-4368804D01*
X53442319Y-4369272D01*
X53466170Y-4428387D01*
X53453132Y-4497029D01*
X53430446Y-4528186D01*
X53337287Y-4621345D01*
X53245187Y-4770663D01*
X53245185Y-4770668D01*
X53243595Y-4775466D01*
X53190001Y-4937203D01*
X53190001Y-4937204D01*
X53190000Y-4937204D01*
X53179500Y-5039983D01*
X53179500Y-6390001D01*
X53179501Y-6390018D01*
X53190000Y-6492796D01*
X53190001Y-6492799D01*
X53227286Y-6605316D01*
X53245186Y-6659334D01*
X53337096Y-6808345D01*
X53337289Y-6808657D01*
X53463681Y-6935049D01*
X53497166Y-6996372D01*
X53500000Y-7022730D01*
X53500000Y-8201517D01*
X53481591Y-8190889D01*
X53328991Y-8150000D01*
X53171009Y-8150000D01*
X53018409Y-8190889D01*
X53000000Y-8201517D01*
X53000000Y-7000000D01*
X52625932Y-7000000D01*
X52533508Y-7006415D01*
X52533492Y-7006417D01*
X52317024Y-7057330D01*
X52317008Y-7057336D01*
X52113575Y-7147160D01*
X51930100Y-7272843D01*
X51772843Y-7430100D01*
X51647160Y-7613575D01*
X51557336Y-7817008D01*
X51557330Y-7817024D01*
X51506417Y-8033491D01*
X51506415Y-8033507D01*
X51500000Y-8125931D01*
X51500000Y-8500000D01*
X52701518Y-8500000D01*
X52690889Y-8518409D01*
X52650000Y-8671009D01*
X52650000Y-8828991D01*
X52690889Y-8981591D01*
X52701518Y-9000000D01*
X51500001Y-9000000D01*
X51500001Y-9374067D01*
X51506415Y-9466491D01*
X51506417Y-9466507D01*
X51557330Y-9682975D01*
X51557336Y-9682991D01*
X51647160Y-9886424D01*
X51675245Y-9927423D01*
X51696891Y-9993855D01*
X51679186Y-10061444D01*
X51627750Y-10108731D01*
X51572945Y-10121500D01*
X48427055Y-10121500D01*
X48360016Y-10101815D01*
X48314261Y-10049011D01*
X48304317Y-9979853D01*
X48324755Y-9927423D01*
X48352839Y-9886424D01*
X48442663Y-9682991D01*
X48442669Y-9682975D01*
X48493582Y-9466508D01*
X48493584Y-9466492D01*
X48500000Y-9374068D01*
X48500000Y-9000000D01*
X47298482Y-9000000D01*
X47309111Y-8981591D01*
X47350000Y-8828991D01*
X47350000Y-8671009D01*
X47309111Y-8518409D01*
X47298482Y-8500000D01*
X48499999Y-8500000D01*
X48499999Y-8125932D01*
X48493584Y-8033508D01*
X48493582Y-8033492D01*
X48442669Y-7817024D01*
X48442663Y-7817008D01*
X48352839Y-7613575D01*
X48227156Y-7430100D01*
X48069899Y-7272843D01*
X47886424Y-7147160D01*
X47682991Y-7057336D01*
X47682975Y-7057330D01*
X47466508Y-7006417D01*
X47466492Y-7006415D01*
X47374069Y-7000000D01*
X47000000Y-7000000D01*
X47000000Y-8201517D01*
X46981591Y-8190889D01*
X46828991Y-8150000D01*
X46671009Y-8150000D01*
X46518409Y-8190889D01*
X46500000Y-8201517D01*
X46500000Y-7019289D01*
X46438218Y-6982673D01*
X46436630Y-6980970D01*
X46434400Y-6980315D01*
X46412946Y-6955556D01*
X46390582Y-6931559D01*
X46390167Y-6929268D01*
X46388645Y-6927511D01*
X46383980Y-6895070D01*
X46378143Y-6862805D01*
X46379032Y-6860655D01*
X46378701Y-6858353D01*
X46392323Y-6828524D01*
X46404850Y-6798241D01*
X46406759Y-6796914D01*
X46407726Y-6794797D01*
X46413744Y-6788333D01*
X46904259Y-6297819D01*
X46965582Y-6264334D01*
X46991940Y-6261500D01*
X49014844Y-6261500D01*
X49014845Y-6261499D01*
X49169497Y-6230737D01*
X49289023Y-6181228D01*
X49315172Y-6170397D01*
X49315172Y-6170396D01*
X49315179Y-6170394D01*
X49446289Y-6082789D01*
X50890259Y-4638817D01*
X50951582Y-4605333D01*
X50977940Y-4602499D01*
X52395002Y-4602499D01*
X52395008Y-4602499D01*
X52497797Y-4591999D01*
X52664334Y-4536814D01*
X52813656Y-4444712D01*
X52937712Y-4320656D01*
X52974259Y-4261402D01*
X52981846Y-4254578D01*
X52986085Y-4245297D01*
X53007384Y-4231608D01*
X53026207Y-4214679D01*
X53037842Y-4212034D01*
X53044863Y-4207523D01*
X53079798Y-4202500D01*
X53271297Y-4202500D01*
X53338336Y-4222185D01*
G37*
%TD.AperFunction*%
%TA.AperFunction,Conductor*%
G36*
X15299510Y-10834691D02*
G01*
X15349924Y-10883067D01*
X15362565Y-10914357D01*
X15417361Y-11131280D01*
X15510557Y-11333301D01*
X15510561Y-11333307D01*
X15562436Y-11410130D01*
X16153322Y-12166430D01*
X16179084Y-12231377D01*
X16165644Y-12299942D01*
X16117268Y-12350355D01*
X16085979Y-12362995D01*
X15868894Y-12417832D01*
X15666949Y-12510992D01*
X15590149Y-12562851D01*
X15590142Y-12562856D01*
X15295392Y-12793140D01*
X15295392Y-12793141D01*
X16036835Y-13742145D01*
X15944206Y-13766965D01*
X15807389Y-13845957D01*
X15695678Y-13957668D01*
X15642572Y-14049648D01*
X14901387Y-13100972D01*
X14901385Y-13100972D01*
X14833703Y-13153852D01*
X14768756Y-13179614D01*
X14700191Y-13166174D01*
X14649778Y-13117798D01*
X14637137Y-13086508D01*
X14582165Y-12868890D01*
X14489007Y-12666949D01*
X14437148Y-12590149D01*
X14437143Y-12590142D01*
X14206858Y-12295392D01*
X14206857Y-12295392D01*
X13257854Y-13036833D01*
X13233035Y-12944206D01*
X13154043Y-12807389D01*
X13042332Y-12695678D01*
X12950350Y-12642572D01*
X13899026Y-11901387D01*
X13899026Y-11901386D01*
X13846483Y-11834134D01*
X13820721Y-11769187D01*
X13834161Y-11700623D01*
X13882537Y-11650209D01*
X13913827Y-11637568D01*
X13915568Y-11637128D01*
X13915570Y-11637128D01*
X14131279Y-11582639D01*
X14333304Y-11489441D01*
X14410127Y-11437566D01*
X15166000Y-10847012D01*
X15230946Y-10821251D01*
X15299510Y-10834691D01*
G37*
%TD.AperFunction*%
%TA.AperFunction,Conductor*%
G36*
X10494616Y-6359467D02*
G01*
X10573608Y-6496284D01*
X10685319Y-6607995D01*
X10777297Y-6661099D01*
X10275896Y-7052836D01*
X10273309Y-7073909D01*
X10245601Y-7138050D01*
X10226575Y-7156510D01*
X9256054Y-7914763D01*
X9231235Y-7822136D01*
X9152243Y-7685319D01*
X9040532Y-7573608D01*
X8948550Y-7520502D01*
X9449952Y-7128765D01*
X9452539Y-7107695D01*
X9480246Y-7043554D01*
X9499273Y-7025093D01*
X10469795Y-6266837D01*
X10494616Y-6359467D01*
G37*
%TD.AperFunction*%
%TA.AperFunction,Conductor*%
G36*
X15248878Y-420185D02*
G01*
X15294633Y-472989D01*
X15304577Y-542147D01*
X15300578Y-550901D01*
X15295392Y-593141D01*
X16036835Y-1542145D01*
X15944206Y-1566965D01*
X15807389Y-1645957D01*
X15695678Y-1757668D01*
X15642572Y-1849648D01*
X14901386Y-900972D01*
X14606622Y-1131268D01*
X14537729Y-1193234D01*
X14398487Y-1366638D01*
X14293474Y-1562678D01*
X14226274Y-1774667D01*
X14199171Y-1995413D01*
X14213089Y-2217366D01*
X14267555Y-2432982D01*
X14360713Y-2634923D01*
X14412572Y-2711723D01*
X14412577Y-2711730D01*
X14642861Y-3006479D01*
X14642862Y-3006479D01*
X15591865Y-2265036D01*
X15616686Y-2357667D01*
X15695678Y-2494484D01*
X15807389Y-2606195D01*
X15899367Y-2659299D01*
X14950693Y-3400484D01*
X14950693Y-3400485D01*
X15180978Y-3695236D01*
X15180987Y-3695248D01*
X15242955Y-3764144D01*
X15416359Y-3903385D01*
X15612399Y-4008398D01*
X15824388Y-4075598D01*
X16045134Y-4102701D01*
X16267087Y-4088783D01*
X16482703Y-4034317D01*
X16684647Y-3941157D01*
X16761435Y-3889308D01*
X17056200Y-3659010D01*
X17056200Y-3659009D01*
X16314758Y-2710006D01*
X16407388Y-2685187D01*
X16544205Y-2606195D01*
X16655916Y-2494484D01*
X16709020Y-2402504D01*
X17450205Y-3351178D01*
X17450206Y-3351178D01*
X17744957Y-3120894D01*
X17744969Y-3120885D01*
X17813865Y-3058917D01*
X17953106Y-2885513D01*
X18058119Y-2689473D01*
X18125319Y-2477484D01*
X18144535Y-2320983D01*
X20437500Y-2320983D01*
X20437500Y-3521001D01*
X20437501Y-3521018D01*
X20448000Y-3623796D01*
X20448001Y-3623799D01*
X20489113Y-3747864D01*
X20503186Y-3790334D01*
X20595288Y-3939656D01*
X20719344Y-4063712D01*
X20868666Y-4155814D01*
X21035203Y-4210999D01*
X21137991Y-4221500D01*
X23142559Y-4221499D01*
X23209598Y-4241184D01*
X23230240Y-4257818D01*
X25292741Y-6320319D01*
X25326226Y-6381642D01*
X25321242Y-6451334D01*
X25279370Y-6507267D01*
X25213906Y-6531684D01*
X25205060Y-6532000D01*
X24899029Y-6532000D01*
X24899012Y-6532001D01*
X24796302Y-6542494D01*
X24629880Y-6597641D01*
X24629875Y-6597643D01*
X24480654Y-6689684D01*
X24356684Y-6813654D01*
X24264643Y-6962875D01*
X24264641Y-6962880D01*
X24209494Y-7129302D01*
X24209493Y-7129309D01*
X24199000Y-7232013D01*
X24199000Y-8132000D01*
X26523999Y-8132000D01*
X26523999Y-7850939D01*
X26543684Y-7783900D01*
X26596488Y-7738145D01*
X26665646Y-7728201D01*
X26729202Y-7757226D01*
X26735680Y-7763258D01*
X27287181Y-8314759D01*
X27320666Y-8376082D01*
X27323500Y-8402440D01*
X27323500Y-9532001D01*
X27323501Y-9532018D01*
X27334000Y-9634796D01*
X27334001Y-9634799D01*
X27389185Y-9801331D01*
X27389187Y-9801336D01*
X27407506Y-9831036D01*
X27481288Y-9950656D01*
X27605344Y-10074712D01*
X27627094Y-10088127D01*
X27673820Y-10140073D01*
X27686000Y-10193667D01*
X27686000Y-14162026D01*
X27666315Y-14229065D01*
X27613511Y-14274820D01*
X27544353Y-14284764D01*
X27489118Y-14262346D01*
X27478615Y-14254715D01*
X27296223Y-14161781D01*
X27101534Y-14098522D01*
X26926995Y-14070878D01*
X26899352Y-14066500D01*
X26788013Y-14066500D01*
X26720974Y-14046815D01*
X26675219Y-13994011D01*
X26665275Y-13924853D01*
X26678707Y-13883949D01*
X26756245Y-13739197D01*
X26756245Y-13739196D01*
X26823446Y-13527205D01*
X26850549Y-13306459D01*
X26836631Y-13084506D01*
X26782165Y-12868890D01*
X26689007Y-12666949D01*
X26637148Y-12590149D01*
X26637143Y-12590142D01*
X26406858Y-12295392D01*
X26406857Y-12295392D01*
X25457854Y-13036834D01*
X25433035Y-12944206D01*
X25354043Y-12807389D01*
X25242332Y-12695678D01*
X25150350Y-12642572D01*
X26099026Y-11901387D01*
X26099026Y-11901386D01*
X25868742Y-11606636D01*
X25868733Y-11606624D01*
X25806765Y-11537728D01*
X25633361Y-11398487D01*
X25437321Y-11293474D01*
X25225332Y-11226274D01*
X25004586Y-11199171D01*
X24782633Y-11213089D01*
X24567017Y-11267555D01*
X24365076Y-11360713D01*
X24288276Y-11412572D01*
X24288269Y-11412577D01*
X23993519Y-11642861D01*
X23993519Y-11642862D01*
X24734962Y-12591866D01*
X24642333Y-12616686D01*
X24505516Y-12695678D01*
X24393805Y-12807389D01*
X24340699Y-12899369D01*
X23599513Y-11950693D01*
X23304749Y-12180989D01*
X23235856Y-12242955D01*
X23096614Y-12416359D01*
X22991601Y-12612399D01*
X22924401Y-12824388D01*
X22897298Y-13045134D01*
X22911216Y-13267087D01*
X22965682Y-13482703D01*
X23058840Y-13684644D01*
X23110699Y-13761444D01*
X23110704Y-13761451D01*
X23340988Y-14056200D01*
X23340989Y-14056200D01*
X24289992Y-13314757D01*
X24314813Y-13407388D01*
X24393805Y-13544205D01*
X24505516Y-13655916D01*
X24597495Y-13709020D01*
X23648820Y-14450205D01*
X23648820Y-14450206D01*
X23879105Y-14744957D01*
X23879114Y-14744969D01*
X23941082Y-14813865D01*
X24114486Y-14953106D01*
X24310526Y-15058119D01*
X24522515Y-15125319D01*
X24743261Y-15152422D01*
X24965214Y-15138504D01*
X25180834Y-15084037D01*
X25341525Y-15009908D01*
X25410645Y-14999699D01*
X25474311Y-15028481D01*
X25512311Y-15087114D01*
X25515941Y-15141902D01*
X25496500Y-15264648D01*
X25496500Y-15469351D01*
X25528522Y-15671534D01*
X25591781Y-15866223D01*
X25641301Y-15963409D01*
X25679123Y-16037640D01*
X25684715Y-16048613D01*
X25805028Y-16214213D01*
X25949779Y-16358964D01*
X25953038Y-16361748D01*
X25991227Y-16420258D01*
X25996500Y-16456033D01*
X25996500Y-16802636D01*
X25990206Y-16841639D01*
X25937001Y-17002200D01*
X25937000Y-17002204D01*
X25926500Y-17104983D01*
X25926500Y-18455001D01*
X25926501Y-18455018D01*
X25937000Y-18557796D01*
X25937001Y-18557799D01*
X25977258Y-18679284D01*
X25992186Y-18724334D01*
X26084288Y-18873656D01*
X26084289Y-18873657D01*
X26084290Y-18873658D01*
X26088766Y-18879319D01*
X26087288Y-18880487D01*
X26116166Y-18933372D01*
X26111182Y-19003064D01*
X26069310Y-19058997D01*
X26020958Y-19080982D01*
X26016209Y-19081998D01*
X25849668Y-19137185D01*
X25849663Y-19137187D01*
X25700342Y-19229289D01*
X25576289Y-19353342D01*
X25484187Y-19502663D01*
X25484185Y-19502668D01*
X25456349Y-19586670D01*
X25429001Y-19669203D01*
X25429001Y-19669204D01*
X25429000Y-19669204D01*
X25418500Y-19771983D01*
X25418500Y-21122001D01*
X25418501Y-21122018D01*
X25429000Y-21224796D01*
X25429001Y-21224799D01*
X25465277Y-21334272D01*
X25484186Y-21391334D01*
X25576288Y-21540656D01*
X25700344Y-21664712D01*
X25849666Y-21756814D01*
X26016203Y-21811999D01*
X26118991Y-21822500D01*
X27019008Y-21822499D01*
X27019016Y-21822498D01*
X27019019Y-21822498D01*
X27075302Y-21816748D01*
X27121797Y-21811999D01*
X27288334Y-21756814D01*
X27437656Y-21664712D01*
X27561712Y-21540656D01*
X27653814Y-21391334D01*
X27708999Y-21224797D01*
X27719500Y-21122009D01*
X27719499Y-20860938D01*
X27739183Y-20793900D01*
X27755813Y-20773263D01*
X29268063Y-19261013D01*
X29867000Y-19261013D01*
X29867000Y-19461000D01*
X30992000Y-19461000D01*
X30992000Y-18561000D01*
X30567028Y-18561000D01*
X30567012Y-18561001D01*
X30464302Y-18571494D01*
X30297880Y-18626641D01*
X30297875Y-18626643D01*
X30148654Y-18718684D01*
X30024684Y-18842654D01*
X29932643Y-18991875D01*
X29932641Y-18991880D01*
X29877494Y-19158302D01*
X29877493Y-19158309D01*
X29867000Y-19261013D01*
X29268063Y-19261013D01*
X29339286Y-19189790D01*
X29339289Y-19189789D01*
X29450789Y-19078289D01*
X29538394Y-18947179D01*
X29598737Y-18801497D01*
X29605055Y-18769736D01*
X29625479Y-18667060D01*
X29629500Y-18646845D01*
X29629500Y-17174998D01*
X29649185Y-17107959D01*
X29701989Y-17062204D01*
X29771147Y-17052260D01*
X29834703Y-17081285D01*
X29872477Y-17140063D01*
X29876858Y-17162397D01*
X29877000Y-17163796D01*
X29877001Y-17163799D01*
X29932185Y-17330331D01*
X29932186Y-17330334D01*
X30024288Y-17479656D01*
X30148344Y-17603712D01*
X30297666Y-17695814D01*
X30464203Y-17750999D01*
X30566991Y-17761500D01*
X31917008Y-17761499D01*
X32019797Y-17750999D01*
X32186334Y-17695814D01*
X32335656Y-17603712D01*
X32459712Y-17479656D01*
X32551814Y-17330334D01*
X32606999Y-17163797D01*
X32617500Y-17061009D01*
X32617499Y-16160992D01*
X32614596Y-16132578D01*
X32606999Y-16058203D01*
X32606998Y-16058200D01*
X32598787Y-16033422D01*
X32551814Y-15891666D01*
X32459712Y-15742344D01*
X32335656Y-15618288D01*
X32335655Y-15618287D01*
X32273644Y-15580039D01*
X32226919Y-15528091D01*
X32215696Y-15459129D01*
X32243539Y-15395047D01*
X32301608Y-15356190D01*
X32338740Y-15350500D01*
X32681113Y-15350500D01*
X32681120Y-15350500D01*
X32941116Y-15316270D01*
X33194419Y-15248398D01*
X33436697Y-15148043D01*
X33663803Y-15016924D01*
X33871851Y-14857282D01*
X33871855Y-14857277D01*
X33871860Y-14857274D01*
X34057274Y-14671860D01*
X34057279Y-14671854D01*
X34057282Y-14671851D01*
X34216924Y-14463803D01*
X34348043Y-14236697D01*
X34448398Y-13994419D01*
X34516270Y-13741116D01*
X34550500Y-13481120D01*
X34550500Y-13218880D01*
X34516270Y-12958884D01*
X34448398Y-12705581D01*
X34421118Y-12639721D01*
X34348046Y-12463309D01*
X34348041Y-12463299D01*
X34216924Y-12236196D01*
X34057281Y-12028148D01*
X34057274Y-12028140D01*
X33871860Y-11842726D01*
X33871851Y-11842718D01*
X33663803Y-11683075D01*
X33436700Y-11551958D01*
X33436690Y-11551953D01*
X33194428Y-11451605D01*
X33194421Y-11451603D01*
X33194419Y-11451602D01*
X32941116Y-11383730D01*
X32883339Y-11376123D01*
X32681127Y-11349500D01*
X32681120Y-11349500D01*
X30918880Y-11349500D01*
X30918872Y-11349500D01*
X30687772Y-11379926D01*
X30658884Y-11383730D01*
X30405581Y-11451602D01*
X30405571Y-11451605D01*
X30163309Y-11551953D01*
X30163299Y-11551958D01*
X29936196Y-11683075D01*
X29728148Y-11842718D01*
X29542718Y-12028148D01*
X29509375Y-12071602D01*
X29452947Y-12112805D01*
X29383201Y-12116959D01*
X29322281Y-12082746D01*
X29289529Y-12021028D01*
X29287000Y-11996115D01*
X29287000Y-10193667D01*
X29306685Y-10126628D01*
X29345905Y-10088127D01*
X29367656Y-10074712D01*
X29491712Y-9950656D01*
X29583814Y-9801334D01*
X29638999Y-9634797D01*
X29649500Y-9532009D01*
X29649499Y-7739851D01*
X29669184Y-7672813D01*
X29721987Y-7627058D01*
X29791146Y-7617114D01*
X29854702Y-7646139D01*
X29871868Y-7664358D01*
X29992718Y-7821851D01*
X29992722Y-7821855D01*
X29992726Y-7821860D01*
X30178140Y-8007274D01*
X30178148Y-8007281D01*
X30386196Y-8166924D01*
X30613299Y-8298041D01*
X30613309Y-8298046D01*
X30847865Y-8395202D01*
X30855581Y-8398398D01*
X31108884Y-8466270D01*
X31368880Y-8500500D01*
X31368887Y-8500500D01*
X31631113Y-8500500D01*
X31631120Y-8500500D01*
X31891116Y-8466270D01*
X32144419Y-8398398D01*
X32321340Y-8325114D01*
X32386690Y-8298046D01*
X32386691Y-8298045D01*
X32386697Y-8298043D01*
X32613803Y-8166924D01*
X32821851Y-8007282D01*
X32821855Y-8007277D01*
X32821860Y-8007274D01*
X33007274Y-7821860D01*
X33007277Y-7821855D01*
X33007282Y-7821851D01*
X33166924Y-7613803D01*
X33298043Y-7386697D01*
X33398398Y-7144419D01*
X33466270Y-6891116D01*
X33500500Y-6631120D01*
X33500500Y-4868880D01*
X33466270Y-4608884D01*
X33398398Y-4355581D01*
X33380674Y-4312792D01*
X33298046Y-4113309D01*
X33298041Y-4113299D01*
X33166924Y-3886196D01*
X33030894Y-3708920D01*
X33007282Y-3678149D01*
X33007281Y-3678148D01*
X33007274Y-3678140D01*
X32821860Y-3492726D01*
X32821851Y-3492718D01*
X32613803Y-3333075D01*
X32386700Y-3201958D01*
X32386690Y-3201953D01*
X32144428Y-3101605D01*
X32144421Y-3101603D01*
X32144419Y-3101602D01*
X31891116Y-3033730D01*
X31833339Y-3026123D01*
X31631127Y-2999500D01*
X31631120Y-2999500D01*
X31368880Y-2999500D01*
X31368872Y-2999500D01*
X31137772Y-3029926D01*
X31108884Y-3033730D01*
X30855581Y-3101602D01*
X30855571Y-3101605D01*
X30613309Y-3201953D01*
X30613299Y-3201958D01*
X30386196Y-3333075D01*
X30178148Y-3492718D01*
X29992718Y-3678148D01*
X29833075Y-3886196D01*
X29701958Y-4113299D01*
X29701953Y-4113309D01*
X29601605Y-4355571D01*
X29601602Y-4355581D01*
X29533730Y-4608884D01*
X29532485Y-4618342D01*
X29504217Y-4682238D01*
X29445892Y-4720709D01*
X29376028Y-4721539D01*
X29316805Y-4684466D01*
X29291615Y-4640473D01*
X29291049Y-4638731D01*
X29272220Y-4580781D01*
X29179287Y-4398390D01*
X29154778Y-4364656D01*
X29058971Y-4232786D01*
X28914221Y-4088036D01*
X28914215Y-4088031D01*
X28902795Y-4079734D01*
X28889379Y-4062336D01*
X28872533Y-4048239D01*
X28865611Y-4031513D01*
X28860129Y-4024404D01*
X28857321Y-4016391D01*
X28855353Y-4010092D01*
X28846924Y-3967713D01*
X28836737Y-3916502D01*
X28793525Y-3812180D01*
X28791862Y-3806856D01*
X28791353Y-3777278D01*
X28788191Y-3747864D01*
X28790679Y-3738086D01*
X28790661Y-3736997D01*
X28791163Y-3736184D01*
X28792511Y-3730889D01*
X28827999Y-3623797D01*
X28838500Y-3521009D01*
X28838499Y-2320992D01*
X28834943Y-2286185D01*
X28827999Y-2218203D01*
X28827998Y-2218200D01*
X28783193Y-2082988D01*
X28772814Y-2051666D01*
X28680712Y-1902344D01*
X28556656Y-1778288D01*
X28407334Y-1686186D01*
X28240797Y-1631001D01*
X28240795Y-1631000D01*
X28138010Y-1620500D01*
X25537998Y-1620500D01*
X25537981Y-1620501D01*
X25435203Y-1631000D01*
X25435200Y-1631001D01*
X25268668Y-1686185D01*
X25268663Y-1686187D01*
X25119342Y-1778289D01*
X24995289Y-1902342D01*
X24903187Y-2051663D01*
X24903185Y-2051668D01*
X24898043Y-2067186D01*
X24848001Y-2218203D01*
X24848001Y-2218204D01*
X24848000Y-2218204D01*
X24837500Y-2320983D01*
X24837500Y-3301560D01*
X24831261Y-3322805D01*
X24829682Y-3344894D01*
X24821609Y-3355677D01*
X24817815Y-3368599D01*
X24801081Y-3383098D01*
X24787810Y-3400827D01*
X24775189Y-3405534D01*
X24765011Y-3414354D01*
X24743093Y-3417505D01*
X24722346Y-3425244D01*
X24709185Y-3422381D01*
X24695853Y-3424298D01*
X24675709Y-3415098D01*
X24654073Y-3410392D01*
X24636347Y-3397123D01*
X24632297Y-3395273D01*
X24625819Y-3389241D01*
X24474818Y-3238240D01*
X24441333Y-3176917D01*
X24438499Y-3150559D01*
X24438499Y-2320998D01*
X24438498Y-2320981D01*
X24427999Y-2218203D01*
X24427998Y-2218200D01*
X24383193Y-2082988D01*
X24372814Y-2051666D01*
X24280712Y-1902344D01*
X24156656Y-1778288D01*
X24007334Y-1686186D01*
X23840797Y-1631001D01*
X23840795Y-1631000D01*
X23738010Y-1620500D01*
X21137998Y-1620500D01*
X21137981Y-1620501D01*
X21035203Y-1631000D01*
X21035200Y-1631001D01*
X20868668Y-1686185D01*
X20868663Y-1686187D01*
X20719342Y-1778289D01*
X20595289Y-1902342D01*
X20503187Y-2051663D01*
X20503185Y-2051668D01*
X20498043Y-2067186D01*
X20448001Y-2218203D01*
X20448001Y-2218204D01*
X20448000Y-2218204D01*
X20437500Y-2320983D01*
X18144535Y-2320983D01*
X18146777Y-2302722D01*
X18146777Y-2302721D01*
X18152422Y-2256739D01*
X18152422Y-2256738D01*
X18138504Y-2034785D01*
X18084038Y-1819169D01*
X17990880Y-1617228D01*
X17939021Y-1540428D01*
X17939016Y-1540421D01*
X17708731Y-1245671D01*
X17708730Y-1245671D01*
X16759727Y-1987112D01*
X16734908Y-1894485D01*
X16655916Y-1757668D01*
X16544205Y-1645957D01*
X16452223Y-1592851D01*
X17400899Y-851666D01*
X17400899Y-851665D01*
X17204935Y-600842D01*
X17179173Y-535895D01*
X17192613Y-467330D01*
X17240989Y-416917D01*
X17302648Y-400500D01*
X34009664Y-400500D01*
X34076703Y-420185D01*
X34122458Y-472989D01*
X34132402Y-542147D01*
X34103377Y-605703D01*
X34085150Y-622876D01*
X33928480Y-743092D01*
X33928473Y-743098D01*
X33743098Y-928473D01*
X33743092Y-928480D01*
X33583496Y-1136471D01*
X33452409Y-1363517D01*
X33452404Y-1363528D01*
X33352075Y-1605744D01*
X33284221Y-1858983D01*
X33265654Y-1999999D01*
X33265655Y-2000000D01*
X34966988Y-2000000D01*
X34934075Y-2057007D01*
X34900000Y-2184174D01*
X34900000Y-2315826D01*
X34934075Y-2442993D01*
X34966988Y-2500000D01*
X33265655Y-2500000D01*
X33284221Y-2641016D01*
X33352075Y-2894255D01*
X33452404Y-3136471D01*
X33452409Y-3136482D01*
X33583496Y-3363528D01*
X33743092Y-3571519D01*
X33743098Y-3571526D01*
X33928473Y-3756901D01*
X33928480Y-3756907D01*
X34136471Y-3916503D01*
X34363517Y-4047590D01*
X34363528Y-4047595D01*
X34605744Y-4147924D01*
X34858979Y-4215777D01*
X34858990Y-4215779D01*
X35118905Y-4249999D01*
X35118920Y-4250000D01*
X35750000Y-4250000D01*
X35750000Y-2750000D01*
X36250000Y-2750000D01*
X36250000Y-4250000D01*
X36881080Y-4250000D01*
X36881094Y-4249999D01*
X37141009Y-4215779D01*
X37141020Y-4215777D01*
X37394255Y-4147924D01*
X37636471Y-4047595D01*
X37636482Y-4047590D01*
X37863528Y-3916503D01*
X38071519Y-3756907D01*
X38071526Y-3756901D01*
X38256901Y-3571526D01*
X38256907Y-3571519D01*
X38416503Y-3363528D01*
X38547590Y-3136482D01*
X38547595Y-3136471D01*
X38647924Y-2894255D01*
X38715778Y-2641016D01*
X38734345Y-2500000D01*
X37033012Y-2500000D01*
X37065925Y-2442993D01*
X37100000Y-2315826D01*
X37100000Y-2184174D01*
X37065925Y-2057007D01*
X37033012Y-2000000D01*
X38734345Y-2000000D01*
X38734345Y-1999999D01*
X38715778Y-1858983D01*
X38647924Y-1605744D01*
X38547595Y-1363528D01*
X38547590Y-1363517D01*
X38416503Y-1136471D01*
X38256907Y-928480D01*
X38256901Y-928473D01*
X38071526Y-743098D01*
X38071519Y-743092D01*
X37914850Y-622876D01*
X37873647Y-566448D01*
X37869492Y-496702D01*
X37903704Y-435782D01*
X37965421Y-403029D01*
X37990336Y-400500D01*
X66475500Y-400500D01*
X66542539Y-420185D01*
X66588294Y-472989D01*
X66599500Y-524500D01*
X66599500Y-31475500D01*
X66579815Y-31542539D01*
X66527011Y-31588294D01*
X66475500Y-31599500D01*
X524500Y-31599500D01*
X457461Y-31579815D01*
X411706Y-31527011D01*
X400500Y-31475500D01*
X400500Y-26872857D01*
X3384500Y-26872857D01*
X3384500Y-27127142D01*
X3422885Y-27369500D01*
X3424279Y-27378297D01*
X3502858Y-27620137D01*
X3618301Y-27846706D01*
X3767766Y-28052427D01*
X3947573Y-28232234D01*
X4153294Y-28381699D01*
X4379863Y-28497142D01*
X4621703Y-28575721D01*
X4872857Y-28615500D01*
X4872858Y-28615500D01*
X5127142Y-28615500D01*
X5127143Y-28615500D01*
X5378297Y-28575721D01*
X5620137Y-28497142D01*
X5846706Y-28381699D01*
X6052427Y-28232234D01*
X6232234Y-28052427D01*
X6381699Y-27846706D01*
X6497142Y-27620137D01*
X6575721Y-27378297D01*
X6615500Y-27127143D01*
X6615500Y-26872857D01*
X6575721Y-26621703D01*
X6497142Y-26379863D01*
X6381699Y-26153294D01*
X6232234Y-25947573D01*
X6052427Y-25767766D01*
X5846706Y-25618301D01*
X5620137Y-25502858D01*
X5378297Y-25424279D01*
X5378295Y-25424278D01*
X5378294Y-25424278D01*
X5185363Y-25393721D01*
X5127143Y-25384500D01*
X4872857Y-25384500D01*
X4814636Y-25393721D01*
X4621706Y-25424278D01*
X4379860Y-25502859D01*
X4153293Y-25618301D01*
X3947570Y-25767768D01*
X3767768Y-25947570D01*
X3618301Y-26153293D01*
X3502859Y-26379860D01*
X3424278Y-26621706D01*
X3384500Y-26872857D01*
X400500Y-26872857D01*
X400500Y-24527682D01*
X8570000Y-24527682D01*
X8570000Y-25080000D01*
X9620000Y-25080000D01*
X9620000Y-23353390D01*
X9565586Y-23362009D01*
X9370970Y-23425244D01*
X9188650Y-23518140D01*
X9023105Y-23638417D01*
X9023104Y-23638417D01*
X8878417Y-23783104D01*
X8878417Y-23783105D01*
X8758140Y-23948650D01*
X8665244Y-24130968D01*
X8602009Y-24325582D01*
X8570000Y-24527682D01*
X400500Y-24527682D01*
X400500Y-24082437D01*
X2281570Y-24082437D01*
X4851798Y-24082437D01*
X4851798Y-18936386D01*
X2281570Y-18936386D01*
X2281570Y-24082437D01*
X400500Y-24082437D01*
X400500Y-17121302D01*
X7073500Y-17121302D01*
X7073500Y-19128846D01*
X7104261Y-19283489D01*
X7104264Y-19283501D01*
X7164602Y-19429172D01*
X7164609Y-19429185D01*
X7252210Y-19560288D01*
X7252213Y-19560292D01*
X11366994Y-23675072D01*
X11400479Y-23736395D01*
X11395495Y-23806087D01*
X11379631Y-23835638D01*
X11297713Y-23948388D01*
X11250203Y-24041630D01*
X11202228Y-24092426D01*
X11134407Y-24109220D01*
X11068272Y-24086682D01*
X11029234Y-24041628D01*
X10981861Y-23948652D01*
X10861582Y-23783105D01*
X10861582Y-23783104D01*
X10716895Y-23638417D01*
X10551349Y-23518140D01*
X10369029Y-23425244D01*
X10174413Y-23362009D01*
X10120000Y-23353390D01*
X10120000Y-25181517D01*
X10101591Y-25170889D01*
X9948991Y-25130000D01*
X9791009Y-25130000D01*
X9638409Y-25170889D01*
X9501592Y-25249881D01*
X9389881Y-25361592D01*
X9310889Y-25498409D01*
X9289027Y-25580000D01*
X8570000Y-25580000D01*
X8570000Y-26132317D01*
X8602009Y-26334417D01*
X8665244Y-26529031D01*
X8758140Y-26711349D01*
X8878417Y-26876894D01*
X8878417Y-26876895D01*
X8913486Y-26911964D01*
X8946971Y-26973287D01*
X8941987Y-27042979D01*
X8913488Y-27087324D01*
X8878039Y-27122774D01*
X8878033Y-27122781D01*
X8757715Y-27288386D01*
X8664781Y-27470776D01*
X8601522Y-27665465D01*
X8569500Y-27867648D01*
X8569500Y-29472351D01*
X8601522Y-29674534D01*
X8664781Y-29869223D01*
X8757715Y-30051613D01*
X8878028Y-30217213D01*
X9022786Y-30361971D01*
X9177749Y-30474556D01*
X9188390Y-30482287D01*
X9304607Y-30541503D01*
X9370776Y-30575218D01*
X9370778Y-30575218D01*
X9370781Y-30575220D01*
X9475137Y-30609127D01*
X9565465Y-30638477D01*
X9666557Y-30654488D01*
X9767648Y-30670500D01*
X9767649Y-30670500D01*
X9972351Y-30670500D01*
X9972352Y-30670500D01*
X10174534Y-30638477D01*
X10369219Y-30575220D01*
X10551610Y-30482287D01*
X10644590Y-30414732D01*
X10717213Y-30361971D01*
X10717215Y-30361968D01*
X10717219Y-30361966D01*
X10861966Y-30217219D01*
X10861968Y-30217215D01*
X10861971Y-30217213D01*
X10982284Y-30051614D01*
X10982286Y-30051611D01*
X10982287Y-30051610D01*
X11029516Y-29958917D01*
X11077489Y-29908123D01*
X11145310Y-29891328D01*
X11211445Y-29913865D01*
X11250485Y-29958919D01*
X11297715Y-30051614D01*
X11418028Y-30217213D01*
X11562786Y-30361971D01*
X11717749Y-30474556D01*
X11728390Y-30482287D01*
X11844607Y-30541503D01*
X11910776Y-30575218D01*
X11910778Y-30575218D01*
X11910781Y-30575220D01*
X12015137Y-30609127D01*
X12105465Y-30638477D01*
X12206557Y-30654488D01*
X12307648Y-30670500D01*
X12307649Y-30670500D01*
X12512351Y-30670500D01*
X12512352Y-30670500D01*
X12714534Y-30638477D01*
X12909219Y-30575220D01*
X13091610Y-30482287D01*
X13184590Y-30414732D01*
X13257213Y-30361971D01*
X13257215Y-30361968D01*
X13257219Y-30361966D01*
X13401966Y-30217219D01*
X13401968Y-30217215D01*
X13401971Y-30217213D01*
X13522284Y-30051614D01*
X13522286Y-30051611D01*
X13522287Y-30051610D01*
X13569516Y-29958917D01*
X13617489Y-29908123D01*
X13685310Y-29891328D01*
X13751445Y-29913865D01*
X13790485Y-29958919D01*
X13837715Y-30051614D01*
X13958028Y-30217213D01*
X14102786Y-30361971D01*
X14257749Y-30474556D01*
X14268390Y-30482287D01*
X14384607Y-30541503D01*
X14450776Y-30575218D01*
X14450778Y-30575218D01*
X14450781Y-30575220D01*
X14555137Y-30609127D01*
X14645465Y-30638477D01*
X14746557Y-30654488D01*
X14847648Y-30670500D01*
X14847649Y-30670500D01*
X15052351Y-30670500D01*
X15052352Y-30670500D01*
X15254534Y-30638477D01*
X15449219Y-30575220D01*
X15631610Y-30482287D01*
X15724590Y-30414732D01*
X15797213Y-30361971D01*
X15797215Y-30361968D01*
X15797219Y-30361966D01*
X15941966Y-30217219D01*
X15941968Y-30217215D01*
X15941971Y-30217213D01*
X16062284Y-30051614D01*
X16062286Y-30051611D01*
X16062287Y-30051610D01*
X16109795Y-29958369D01*
X16157770Y-29907574D01*
X16225591Y-29890779D01*
X16291725Y-29913316D01*
X16330765Y-29958370D01*
X16378140Y-30051349D01*
X16498417Y-30216894D01*
X16498417Y-30216895D01*
X16643104Y-30361582D01*
X16808650Y-30481859D01*
X16990968Y-30574754D01*
X17185578Y-30637988D01*
X17240000Y-30646607D01*
X17240000Y-28818482D01*
X17258409Y-28829111D01*
X17411009Y-28870000D01*
X17568991Y-28870000D01*
X17721591Y-28829111D01*
X17740000Y-28818482D01*
X17740000Y-30646606D01*
X17794421Y-30637988D01*
X17989031Y-30574754D01*
X18171349Y-30481859D01*
X18336894Y-30361582D01*
X18336895Y-30361582D01*
X18481582Y-30216895D01*
X18481582Y-30216894D01*
X18601861Y-30051347D01*
X18649234Y-29958371D01*
X18697208Y-29907575D01*
X18765028Y-29890779D01*
X18831164Y-29913316D01*
X18870203Y-29958369D01*
X18917713Y-30051611D01*
X19038028Y-30217213D01*
X19182786Y-30361971D01*
X19337749Y-30474556D01*
X19348390Y-30482287D01*
X19464607Y-30541503D01*
X19530776Y-30575218D01*
X19530778Y-30575218D01*
X19530781Y-30575220D01*
X19635137Y-30609127D01*
X19725465Y-30638477D01*
X19826557Y-30654488D01*
X19927648Y-30670500D01*
X19927649Y-30670500D01*
X20132351Y-30670500D01*
X20132352Y-30670500D01*
X20334534Y-30638477D01*
X20529219Y-30575220D01*
X20711610Y-30482287D01*
X20804590Y-30414732D01*
X20877213Y-30361971D01*
X20877215Y-30361968D01*
X20877219Y-30361966D01*
X21021966Y-30217219D01*
X21021968Y-30217215D01*
X21021971Y-30217213D01*
X21142284Y-30051614D01*
X21142286Y-30051611D01*
X21142287Y-30051610D01*
X21189795Y-29958369D01*
X21237770Y-29907574D01*
X21305591Y-29890779D01*
X21371725Y-29913316D01*
X21410765Y-29958370D01*
X21458140Y-30051349D01*
X21578417Y-30216894D01*
X21578417Y-30216895D01*
X21723104Y-30361582D01*
X21888650Y-30481859D01*
X22070968Y-30574754D01*
X22265578Y-30637988D01*
X22320000Y-30646607D01*
X22320000Y-28818482D01*
X22338409Y-28829111D01*
X22491009Y-28870000D01*
X22648991Y-28870000D01*
X22801591Y-28829111D01*
X22820000Y-28818482D01*
X22820000Y-30646606D01*
X22874421Y-30637988D01*
X23069031Y-30574754D01*
X23251349Y-30481859D01*
X23416894Y-30361582D01*
X23416895Y-30361582D01*
X23561582Y-30216895D01*
X23561582Y-30216894D01*
X23681861Y-30051347D01*
X23729234Y-29958371D01*
X23777208Y-29907575D01*
X23845028Y-29890779D01*
X23911164Y-29913316D01*
X23950203Y-29958369D01*
X23997713Y-30051611D01*
X24118028Y-30217213D01*
X24262786Y-30361971D01*
X24417749Y-30474556D01*
X24428390Y-30482287D01*
X24544607Y-30541503D01*
X24610776Y-30575218D01*
X24610778Y-30575218D01*
X24610781Y-30575220D01*
X24715137Y-30609127D01*
X24805465Y-30638477D01*
X24906557Y-30654488D01*
X25007648Y-30670500D01*
X25007649Y-30670500D01*
X25212351Y-30670500D01*
X25212352Y-30670500D01*
X25414534Y-30638477D01*
X25609219Y-30575220D01*
X25791610Y-30482287D01*
X25884590Y-30414732D01*
X25957213Y-30361971D01*
X25957215Y-30361968D01*
X25957219Y-30361966D01*
X26101966Y-30217219D01*
X26101968Y-30217215D01*
X26101971Y-30217213D01*
X26222284Y-30051614D01*
X26222286Y-30051611D01*
X26222287Y-30051610D01*
X26269516Y-29958917D01*
X26317489Y-29908123D01*
X26385310Y-29891328D01*
X26451445Y-29913865D01*
X26490485Y-29958919D01*
X26537715Y-30051614D01*
X26658028Y-30217213D01*
X26802786Y-30361971D01*
X26957749Y-30474556D01*
X26968390Y-30482287D01*
X27084607Y-30541503D01*
X27150776Y-30575218D01*
X27150778Y-30575218D01*
X27150781Y-30575220D01*
X27255137Y-30609127D01*
X27345465Y-30638477D01*
X27446557Y-30654488D01*
X27547648Y-30670500D01*
X27547649Y-30670500D01*
X27752351Y-30670500D01*
X27752352Y-30670500D01*
X27954534Y-30638477D01*
X28149219Y-30575220D01*
X28331610Y-30482287D01*
X28424590Y-30414732D01*
X28497213Y-30361971D01*
X28497215Y-30361968D01*
X28497219Y-30361966D01*
X28641966Y-30217219D01*
X28641968Y-30217215D01*
X28641971Y-30217213D01*
X28762284Y-30051614D01*
X28762286Y-30051611D01*
X28762287Y-30051610D01*
X28809516Y-29958917D01*
X28857489Y-29908123D01*
X28925310Y-29891328D01*
X28991445Y-29913865D01*
X29030485Y-29958919D01*
X29077715Y-30051614D01*
X29198028Y-30217213D01*
X29342786Y-30361971D01*
X29497749Y-30474556D01*
X29508390Y-30482287D01*
X29624607Y-30541503D01*
X29690776Y-30575218D01*
X29690778Y-30575218D01*
X29690781Y-30575220D01*
X29795137Y-30609127D01*
X29885465Y-30638477D01*
X29986557Y-30654488D01*
X30087648Y-30670500D01*
X30087649Y-30670500D01*
X30292351Y-30670500D01*
X30292352Y-30670500D01*
X30494534Y-30638477D01*
X30689219Y-30575220D01*
X30871610Y-30482287D01*
X30964590Y-30414732D01*
X31037213Y-30361971D01*
X31037215Y-30361968D01*
X31037219Y-30361966D01*
X31181966Y-30217219D01*
X31181968Y-30217215D01*
X31181971Y-30217213D01*
X31302284Y-30051614D01*
X31302286Y-30051611D01*
X31302287Y-30051610D01*
X31349516Y-29958917D01*
X31397489Y-29908123D01*
X31465310Y-29891328D01*
X31531445Y-29913865D01*
X31570485Y-29958919D01*
X31617715Y-30051614D01*
X31738028Y-30217213D01*
X31882786Y-30361971D01*
X32037749Y-30474556D01*
X32048390Y-30482287D01*
X32164607Y-30541503D01*
X32230776Y-30575218D01*
X32230778Y-30575218D01*
X32230781Y-30575220D01*
X32335137Y-30609127D01*
X32425465Y-30638477D01*
X32526557Y-30654488D01*
X32627648Y-30670500D01*
X32627649Y-30670500D01*
X32832351Y-30670500D01*
X32832352Y-30670500D01*
X33034534Y-30638477D01*
X33229219Y-30575220D01*
X33411610Y-30482287D01*
X33504590Y-30414732D01*
X33577213Y-30361971D01*
X33577215Y-30361968D01*
X33577219Y-30361966D01*
X33721966Y-30217219D01*
X33721968Y-30217215D01*
X33721971Y-30217213D01*
X33842284Y-30051614D01*
X33842286Y-30051611D01*
X33842287Y-30051610D01*
X33889795Y-29958369D01*
X33937770Y-29907574D01*
X34005591Y-29890779D01*
X34071725Y-29913316D01*
X34110765Y-29958370D01*
X34158140Y-30051349D01*
X34278417Y-30216894D01*
X34278417Y-30216895D01*
X34423104Y-30361582D01*
X34588650Y-30481859D01*
X34770968Y-30574754D01*
X34965578Y-30637988D01*
X35020000Y-30646607D01*
X35020000Y-28818482D01*
X35038409Y-28829111D01*
X35191009Y-28870000D01*
X35348991Y-28870000D01*
X35501591Y-28829111D01*
X35520000Y-28818482D01*
X35520000Y-30646606D01*
X35574421Y-30637988D01*
X35769031Y-30574754D01*
X35951349Y-30481859D01*
X36116894Y-30361582D01*
X36116895Y-30361582D01*
X36261582Y-30216895D01*
X36261582Y-30216894D01*
X36381861Y-30051347D01*
X36429234Y-29958371D01*
X36477208Y-29907575D01*
X36545028Y-29890779D01*
X36611164Y-29913316D01*
X36650203Y-29958369D01*
X36697713Y-30051611D01*
X36818028Y-30217213D01*
X36962786Y-30361971D01*
X37117749Y-30474556D01*
X37128390Y-30482287D01*
X37244607Y-30541503D01*
X37310776Y-30575218D01*
X37310778Y-30575218D01*
X37310781Y-30575220D01*
X37415137Y-30609127D01*
X37505465Y-30638477D01*
X37606557Y-30654488D01*
X37707648Y-30670500D01*
X37707649Y-30670500D01*
X37912351Y-30670500D01*
X37912352Y-30670500D01*
X38114534Y-30638477D01*
X38309219Y-30575220D01*
X38491610Y-30482287D01*
X38584590Y-30414732D01*
X38657213Y-30361971D01*
X38657215Y-30361968D01*
X38657219Y-30361966D01*
X38801966Y-30217219D01*
X38801968Y-30217215D01*
X38801971Y-30217213D01*
X38922284Y-30051614D01*
X38922286Y-30051611D01*
X38922287Y-30051610D01*
X38969516Y-29958917D01*
X39017489Y-29908123D01*
X39085310Y-29891328D01*
X39151445Y-29913865D01*
X39190485Y-29958919D01*
X39237715Y-30051614D01*
X39358028Y-30217213D01*
X39502786Y-30361971D01*
X39657749Y-30474556D01*
X39668390Y-30482287D01*
X39784607Y-30541503D01*
X39850776Y-30575218D01*
X39850778Y-30575218D01*
X39850781Y-30575220D01*
X39955137Y-30609127D01*
X40045465Y-30638477D01*
X40146557Y-30654488D01*
X40247648Y-30670500D01*
X40247649Y-30670500D01*
X40452351Y-30670500D01*
X40452352Y-30670500D01*
X40654534Y-30638477D01*
X40849219Y-30575220D01*
X41031610Y-30482287D01*
X41124590Y-30414732D01*
X41197213Y-30361971D01*
X41197215Y-30361968D01*
X41197219Y-30361966D01*
X41341966Y-30217219D01*
X41341968Y-30217215D01*
X41341971Y-30217213D01*
X41462284Y-30051614D01*
X41462286Y-30051611D01*
X41462287Y-30051610D01*
X41509795Y-29958369D01*
X41557770Y-29907574D01*
X41625591Y-29890779D01*
X41691725Y-29913316D01*
X41730765Y-29958370D01*
X41778140Y-30051349D01*
X41898417Y-30216894D01*
X41898417Y-30216895D01*
X42043104Y-30361582D01*
X42208650Y-30481859D01*
X42390968Y-30574754D01*
X42585578Y-30637988D01*
X42640000Y-30646607D01*
X42640000Y-28818482D01*
X42658409Y-28829111D01*
X42811009Y-28870000D01*
X42968991Y-28870000D01*
X43121591Y-28829111D01*
X43140000Y-28818482D01*
X43140000Y-30646606D01*
X43194421Y-30637988D01*
X43389031Y-30574754D01*
X43571349Y-30481859D01*
X43736894Y-30361582D01*
X43736895Y-30361582D01*
X43881582Y-30216895D01*
X43881582Y-30216894D01*
X44001861Y-30051347D01*
X44049234Y-29958371D01*
X44097208Y-29907575D01*
X44165028Y-29890779D01*
X44231164Y-29913316D01*
X44270203Y-29958369D01*
X44317713Y-30051611D01*
X44438028Y-30217213D01*
X44582786Y-30361971D01*
X44737749Y-30474556D01*
X44748390Y-30482287D01*
X44864607Y-30541503D01*
X44930776Y-30575218D01*
X44930778Y-30575218D01*
X44930781Y-30575220D01*
X45035137Y-30609127D01*
X45125465Y-30638477D01*
X45226557Y-30654488D01*
X45327648Y-30670500D01*
X45327649Y-30670500D01*
X45532351Y-30670500D01*
X45532352Y-30670500D01*
X45734534Y-30638477D01*
X45929219Y-30575220D01*
X46111610Y-30482287D01*
X46204590Y-30414732D01*
X46277213Y-30361971D01*
X46277215Y-30361968D01*
X46277219Y-30361966D01*
X46421966Y-30217219D01*
X46421968Y-30217215D01*
X46421971Y-30217213D01*
X46542284Y-30051614D01*
X46542286Y-30051611D01*
X46542287Y-30051610D01*
X46589516Y-29958917D01*
X46637489Y-29908123D01*
X46705310Y-29891328D01*
X46771445Y-29913865D01*
X46810485Y-29958919D01*
X46857715Y-30051614D01*
X46978028Y-30217213D01*
X47122786Y-30361971D01*
X47277749Y-30474556D01*
X47288390Y-30482287D01*
X47404607Y-30541503D01*
X47470776Y-30575218D01*
X47470778Y-30575218D01*
X47470781Y-30575220D01*
X47575137Y-30609127D01*
X47665465Y-30638477D01*
X47766557Y-30654488D01*
X47867648Y-30670500D01*
X47867649Y-30670500D01*
X48072351Y-30670500D01*
X48072352Y-30670500D01*
X48274534Y-30638477D01*
X48469219Y-30575220D01*
X48651610Y-30482287D01*
X48744590Y-30414732D01*
X48817213Y-30361971D01*
X48817215Y-30361968D01*
X48817219Y-30361966D01*
X48961966Y-30217219D01*
X48961968Y-30217215D01*
X48961971Y-30217213D01*
X49082284Y-30051614D01*
X49082286Y-30051611D01*
X49082287Y-30051610D01*
X49129516Y-29958917D01*
X49177489Y-29908123D01*
X49245310Y-29891328D01*
X49311445Y-29913865D01*
X49350485Y-29958919D01*
X49397715Y-30051614D01*
X49518028Y-30217213D01*
X49662786Y-30361971D01*
X49817749Y-30474556D01*
X49828390Y-30482287D01*
X49944607Y-30541503D01*
X50010776Y-30575218D01*
X50010778Y-30575218D01*
X50010781Y-30575220D01*
X50115137Y-30609127D01*
X50205465Y-30638477D01*
X50306557Y-30654488D01*
X50407648Y-30670500D01*
X50407649Y-30670500D01*
X50612351Y-30670500D01*
X50612352Y-30670500D01*
X50814534Y-30638477D01*
X51009219Y-30575220D01*
X51191610Y-30482287D01*
X51284590Y-30414732D01*
X51357213Y-30361971D01*
X51357215Y-30361968D01*
X51357219Y-30361966D01*
X51501966Y-30217219D01*
X51501968Y-30217215D01*
X51501971Y-30217213D01*
X51622284Y-30051614D01*
X51622286Y-30051611D01*
X51622287Y-30051610D01*
X51669795Y-29958369D01*
X51717770Y-29907574D01*
X51785591Y-29890779D01*
X51851725Y-29913316D01*
X51890765Y-29958370D01*
X51938140Y-30051349D01*
X52058417Y-30216894D01*
X52058417Y-30216895D01*
X52203104Y-30361582D01*
X52368650Y-30481859D01*
X52550968Y-30574754D01*
X52745578Y-30637988D01*
X52800000Y-30646607D01*
X52800000Y-28818482D01*
X52818409Y-28829111D01*
X52971009Y-28870000D01*
X53128991Y-28870000D01*
X53281591Y-28829111D01*
X53300000Y-28818482D01*
X53300000Y-30646606D01*
X53354421Y-30637988D01*
X53549031Y-30574754D01*
X53731349Y-30481859D01*
X53896894Y-30361582D01*
X53896895Y-30361582D01*
X54041582Y-30216895D01*
X54041582Y-30216894D01*
X54161861Y-30051347D01*
X54209234Y-29958371D01*
X54257208Y-29907575D01*
X54325028Y-29890779D01*
X54391164Y-29913316D01*
X54430203Y-29958369D01*
X54477713Y-30051611D01*
X54598028Y-30217213D01*
X54742786Y-30361971D01*
X54897749Y-30474556D01*
X54908390Y-30482287D01*
X55024607Y-30541503D01*
X55090776Y-30575218D01*
X55090778Y-30575218D01*
X55090781Y-30575220D01*
X55195137Y-30609127D01*
X55285465Y-30638477D01*
X55386557Y-30654488D01*
X55487648Y-30670500D01*
X55487649Y-30670500D01*
X55692351Y-30670500D01*
X55692352Y-30670500D01*
X55894534Y-30638477D01*
X56089219Y-30575220D01*
X56271610Y-30482287D01*
X56364590Y-30414732D01*
X56437213Y-30361971D01*
X56437215Y-30361968D01*
X56437219Y-30361966D01*
X56581966Y-30217219D01*
X56581968Y-30217215D01*
X56581971Y-30217213D01*
X56702284Y-30051614D01*
X56702286Y-30051611D01*
X56702287Y-30051610D01*
X56749516Y-29958917D01*
X56797489Y-29908123D01*
X56865310Y-29891328D01*
X56931445Y-29913865D01*
X56970485Y-29958919D01*
X57017715Y-30051614D01*
X57138028Y-30217213D01*
X57282786Y-30361971D01*
X57437749Y-30474556D01*
X57448390Y-30482287D01*
X57564607Y-30541503D01*
X57630776Y-30575218D01*
X57630778Y-30575218D01*
X57630781Y-30575220D01*
X57735137Y-30609127D01*
X57825465Y-30638477D01*
X57926557Y-30654488D01*
X58027648Y-30670500D01*
X58027649Y-30670500D01*
X58232351Y-30670500D01*
X58232352Y-30670500D01*
X58434534Y-30638477D01*
X58629219Y-30575220D01*
X58811610Y-30482287D01*
X58904590Y-30414732D01*
X58977213Y-30361971D01*
X58977215Y-30361968D01*
X58977219Y-30361966D01*
X59121966Y-30217219D01*
X59121968Y-30217215D01*
X59121971Y-30217213D01*
X59174732Y-30144590D01*
X59242287Y-30051610D01*
X59335220Y-29869219D01*
X59398477Y-29674534D01*
X59430500Y-29472352D01*
X59430500Y-27867648D01*
X59418183Y-27789881D01*
X59398477Y-27665465D01*
X59335218Y-27470776D01*
X59288095Y-27378293D01*
X59242287Y-27288390D01*
X59203657Y-27235220D01*
X59121971Y-27122786D01*
X59086866Y-27087681D01*
X59085624Y-27085406D01*
X59083400Y-27084073D01*
X59068967Y-27054902D01*
X59053381Y-27026358D01*
X59053565Y-27023773D01*
X59052416Y-27021449D01*
X59056044Y-26989118D01*
X59058365Y-26956666D01*
X59060008Y-26953796D01*
X59060208Y-26952015D01*
X59065768Y-26943734D01*
X59078358Y-26921746D01*
X59082367Y-26916817D01*
X59121966Y-26877219D01*
X59125135Y-26872857D01*
X61384500Y-26872857D01*
X61384500Y-27127142D01*
X61422885Y-27369500D01*
X61424279Y-27378297D01*
X61502858Y-27620137D01*
X61618301Y-27846706D01*
X61767766Y-28052427D01*
X61947573Y-28232234D01*
X62153294Y-28381699D01*
X62379863Y-28497142D01*
X62621703Y-28575721D01*
X62872857Y-28615500D01*
X62872858Y-28615500D01*
X63127142Y-28615500D01*
X63127143Y-28615500D01*
X63378297Y-28575721D01*
X63620137Y-28497142D01*
X63846706Y-28381699D01*
X64052427Y-28232234D01*
X64232234Y-28052427D01*
X64381699Y-27846706D01*
X64497142Y-27620137D01*
X64575721Y-27378297D01*
X64615500Y-27127143D01*
X64615500Y-26872857D01*
X64575721Y-26621703D01*
X64497142Y-26379863D01*
X64381699Y-26153294D01*
X64232234Y-25947573D01*
X64052427Y-25767766D01*
X63846706Y-25618301D01*
X63620137Y-25502858D01*
X63378297Y-25424279D01*
X63378295Y-25424278D01*
X63378294Y-25424278D01*
X63185363Y-25393721D01*
X63127143Y-25384500D01*
X62872857Y-25384500D01*
X62814636Y-25393721D01*
X62621706Y-25424278D01*
X62379860Y-25502859D01*
X62153293Y-25618301D01*
X61947570Y-25767768D01*
X61767768Y-25947570D01*
X61618301Y-26153293D01*
X61502859Y-26379860D01*
X61424278Y-26621706D01*
X61384500Y-26872857D01*
X59125135Y-26872857D01*
X59242287Y-26711610D01*
X59335220Y-26529219D01*
X59398477Y-26334534D01*
X59430500Y-26132352D01*
X59430500Y-24527648D01*
X59400000Y-24335081D01*
X59398477Y-24325465D01*
X59338390Y-24140537D01*
X59335220Y-24130781D01*
X59335218Y-24130778D01*
X59335218Y-24130776D01*
X59242419Y-23948650D01*
X59242287Y-23948390D01*
X59234556Y-23937749D01*
X59121971Y-23782786D01*
X58977213Y-23638028D01*
X58811613Y-23517715D01*
X58811612Y-23517714D01*
X58811610Y-23517713D01*
X58754653Y-23488691D01*
X58629223Y-23424781D01*
X58434534Y-23361522D01*
X58259995Y-23333878D01*
X58232352Y-23329500D01*
X58232351Y-23329500D01*
X58157900Y-23329500D01*
X58128459Y-23320855D01*
X58098473Y-23314332D01*
X58093457Y-23310577D01*
X58090861Y-23309815D01*
X58070219Y-23293181D01*
X57988718Y-23211680D01*
X57955233Y-23150357D01*
X57960217Y-23080665D01*
X58002089Y-23024732D01*
X58067553Y-23000315D01*
X58076399Y-22999999D01*
X58374068Y-22999999D01*
X58466491Y-22993584D01*
X58466507Y-22993582D01*
X58682975Y-22942669D01*
X58682991Y-22942663D01*
X58886424Y-22852839D01*
X59069899Y-22727156D01*
X59227156Y-22569899D01*
X59352839Y-22386424D01*
X59442663Y-22182991D01*
X59442669Y-22182975D01*
X59493582Y-21966508D01*
X59493584Y-21966492D01*
X59500000Y-21874068D01*
X59500000Y-21500000D01*
X58298482Y-21500000D01*
X58309111Y-21481591D01*
X58350000Y-21328991D01*
X58350000Y-21171009D01*
X58309111Y-21018409D01*
X58298482Y-21000000D01*
X59499999Y-21000000D01*
X59499999Y-20625932D01*
X59499999Y-20625931D01*
X62500000Y-20625931D01*
X62500000Y-21000000D01*
X63701518Y-21000000D01*
X63690889Y-21018409D01*
X63650000Y-21171009D01*
X63650000Y-21328991D01*
X63690889Y-21481591D01*
X63701518Y-21500000D01*
X62500001Y-21500000D01*
X62500001Y-21874067D01*
X62506415Y-21966491D01*
X62506417Y-21966507D01*
X62557330Y-22182975D01*
X62557336Y-22182991D01*
X62647160Y-22386424D01*
X62772843Y-22569899D01*
X62930100Y-22727156D01*
X63113575Y-22852839D01*
X63317008Y-22942663D01*
X63317024Y-22942669D01*
X63533491Y-22993582D01*
X63533507Y-22993584D01*
X63625931Y-22999999D01*
X63999999Y-22999999D01*
X64000000Y-22999998D01*
X64000000Y-21798482D01*
X64018409Y-21809111D01*
X64171009Y-21850000D01*
X64328991Y-21850000D01*
X64481591Y-21809111D01*
X64500000Y-21798482D01*
X64500000Y-22999999D01*
X64874068Y-22999999D01*
X64966491Y-22993584D01*
X64966507Y-22993582D01*
X65182975Y-22942669D01*
X65182991Y-22942663D01*
X65386424Y-22852839D01*
X65569899Y-22727156D01*
X65727156Y-22569899D01*
X65852839Y-22386424D01*
X65942663Y-22182991D01*
X65942669Y-22182975D01*
X65993582Y-21966508D01*
X65993584Y-21966492D01*
X66000000Y-21874068D01*
X66000000Y-21500000D01*
X64798482Y-21500000D01*
X64809111Y-21481591D01*
X64850000Y-21328991D01*
X64850000Y-21171009D01*
X64809111Y-21018409D01*
X64798482Y-21000000D01*
X65999999Y-21000000D01*
X65999999Y-20625932D01*
X65993584Y-20533508D01*
X65993582Y-20533492D01*
X65942669Y-20317024D01*
X65942663Y-20317008D01*
X65852839Y-20113575D01*
X65727156Y-19930100D01*
X65569899Y-19772843D01*
X65386424Y-19647160D01*
X65182991Y-19557336D01*
X65182975Y-19557330D01*
X64966508Y-19506417D01*
X64966492Y-19506415D01*
X64874069Y-19500000D01*
X64500000Y-19500000D01*
X64500000Y-20701517D01*
X64481591Y-20690889D01*
X64328991Y-20650000D01*
X64171009Y-20650000D01*
X64018409Y-20690889D01*
X64000000Y-20701517D01*
X64000000Y-19500000D01*
X63625932Y-19500000D01*
X63533508Y-19506415D01*
X63533492Y-19506417D01*
X63317024Y-19557330D01*
X63317008Y-19557336D01*
X63113575Y-19647160D01*
X62930100Y-19772843D01*
X62772843Y-19930100D01*
X62647160Y-20113575D01*
X62557336Y-20317008D01*
X62557330Y-20317024D01*
X62506417Y-20533491D01*
X62506415Y-20533507D01*
X62500000Y-20625931D01*
X59499999Y-20625931D01*
X59493584Y-20533508D01*
X59493582Y-20533492D01*
X59442669Y-20317024D01*
X59442663Y-20317008D01*
X59352839Y-20113575D01*
X59227156Y-19930100D01*
X59069899Y-19772843D01*
X58886424Y-19647160D01*
X58682991Y-19557336D01*
X58682975Y-19557330D01*
X58466508Y-19506417D01*
X58466492Y-19506415D01*
X58374069Y-19500000D01*
X58000000Y-19500000D01*
X58000000Y-20701517D01*
X57981591Y-20690889D01*
X57828991Y-20650000D01*
X57671009Y-20650000D01*
X57518409Y-20690889D01*
X57500000Y-20701517D01*
X57500000Y-19476124D01*
X57495234Y-19467396D01*
X57500218Y-19397704D01*
X57528717Y-19353359D01*
X58349328Y-18532749D01*
X58410651Y-18499264D01*
X58428407Y-18496729D01*
X58466567Y-18494081D01*
X58466576Y-18494079D01*
X58683135Y-18443145D01*
X58683135Y-18443144D01*
X58683143Y-18443143D01*
X58886671Y-18353277D01*
X59070221Y-18227542D01*
X59227542Y-18070221D01*
X59353277Y-17886671D01*
X59443143Y-17683143D01*
X59454936Y-17633001D01*
X59494079Y-17466577D01*
X59494079Y-17466573D01*
X59494081Y-17466567D01*
X59500500Y-17374092D01*
X59500500Y-16125908D01*
X59499290Y-16108482D01*
X59495690Y-16056609D01*
X59494081Y-16033433D01*
X59494079Y-16033427D01*
X59494079Y-16033422D01*
X59443145Y-15816864D01*
X59443144Y-15816861D01*
X59443143Y-15816857D01*
X59353277Y-15613329D01*
X59227542Y-15429779D01*
X59227537Y-15429773D01*
X59070226Y-15272462D01*
X59070220Y-15272457D01*
X58886672Y-15146724D01*
X58886673Y-15146724D01*
X58886671Y-15146723D01*
X58811277Y-15113433D01*
X58757903Y-15068349D01*
X58737375Y-15001563D01*
X58756213Y-14934280D01*
X58808436Y-14887864D01*
X58811235Y-14886585D01*
X58886671Y-14853277D01*
X59070221Y-14727542D01*
X59227542Y-14570221D01*
X59353277Y-14386671D01*
X59443143Y-14183143D01*
X59443263Y-14182633D01*
X59494079Y-13966577D01*
X59494079Y-13966573D01*
X59494081Y-13966567D01*
X59500500Y-13874092D01*
X59500500Y-12625908D01*
X59500500Y-12625904D01*
X62499500Y-12625904D01*
X62499500Y-13874095D01*
X62505918Y-13966561D01*
X62505920Y-13966577D01*
X62556854Y-14183135D01*
X62556860Y-14183151D01*
X62646721Y-14386668D01*
X62772457Y-14570220D01*
X62772462Y-14570226D01*
X62929773Y-14727537D01*
X62929779Y-14727542D01*
X63113329Y-14853277D01*
X63113330Y-14853277D01*
X63113331Y-14853278D01*
X63188720Y-14886566D01*
X63242097Y-14931652D01*
X63262624Y-14998438D01*
X63243786Y-15065720D01*
X63191562Y-15112136D01*
X63188720Y-15113434D01*
X63113331Y-15146721D01*
X62929779Y-15272457D01*
X62929773Y-15272462D01*
X62772462Y-15429773D01*
X62772457Y-15429779D01*
X62646721Y-15613331D01*
X62556860Y-15816848D01*
X62556854Y-15816864D01*
X62505920Y-16033422D01*
X62505918Y-16033438D01*
X62499500Y-16125904D01*
X62499500Y-17374095D01*
X62505918Y-17466561D01*
X62505920Y-17466577D01*
X62556854Y-17683135D01*
X62556860Y-17683151D01*
X62646721Y-17886668D01*
X62772457Y-18070220D01*
X62772462Y-18070226D01*
X62929773Y-18227537D01*
X62929779Y-18227542D01*
X63113329Y-18353277D01*
X63316857Y-18443143D01*
X63316861Y-18443144D01*
X63316864Y-18443145D01*
X63533422Y-18494079D01*
X63533427Y-18494079D01*
X63533433Y-18494081D01*
X63584808Y-18497647D01*
X63625904Y-18500500D01*
X63625908Y-18500500D01*
X64874096Y-18500500D01*
X64911082Y-18497932D01*
X64966567Y-18494081D01*
X64966573Y-18494079D01*
X64966577Y-18494079D01*
X65183135Y-18443145D01*
X65183135Y-18443144D01*
X65183143Y-18443143D01*
X65386671Y-18353277D01*
X65570221Y-18227542D01*
X65727542Y-18070221D01*
X65853277Y-17886671D01*
X65943143Y-17683143D01*
X65954936Y-17633001D01*
X65994079Y-17466577D01*
X65994079Y-17466573D01*
X65994081Y-17466567D01*
X66000500Y-17374092D01*
X66000500Y-16125908D01*
X65999290Y-16108482D01*
X65995690Y-16056609D01*
X65994081Y-16033433D01*
X65994079Y-16033427D01*
X65994079Y-16033422D01*
X65943145Y-15816864D01*
X65943144Y-15816861D01*
X65943143Y-15816857D01*
X65853277Y-15613329D01*
X65727542Y-15429779D01*
X65727537Y-15429773D01*
X65570226Y-15272462D01*
X65570220Y-15272457D01*
X65386672Y-15146724D01*
X65386673Y-15146724D01*
X65386671Y-15146723D01*
X65311277Y-15113433D01*
X65257903Y-15068349D01*
X65237375Y-15001563D01*
X65256213Y-14934280D01*
X65308436Y-14887864D01*
X65311235Y-14886585D01*
X65386671Y-14853277D01*
X65570221Y-14727542D01*
X65727542Y-14570221D01*
X65853277Y-14386671D01*
X65943143Y-14183143D01*
X65943263Y-14182633D01*
X65994079Y-13966577D01*
X65994079Y-13966573D01*
X65994081Y-13966567D01*
X66000500Y-13874092D01*
X66000500Y-12625908D01*
X65994081Y-12533433D01*
X65994079Y-12533427D01*
X65994079Y-12533422D01*
X65943145Y-12316864D01*
X65943144Y-12316861D01*
X65943143Y-12316857D01*
X65853277Y-12113329D01*
X65727542Y-11929779D01*
X65727537Y-11929773D01*
X65570226Y-11772462D01*
X65570220Y-11772457D01*
X65412964Y-11664734D01*
X65386671Y-11646723D01*
X65386670Y-11646722D01*
X65386668Y-11646721D01*
X65183151Y-11556860D01*
X65183135Y-11556854D01*
X64966577Y-11505920D01*
X64966561Y-11505918D01*
X64874096Y-11499500D01*
X64874092Y-11499500D01*
X63625908Y-11499500D01*
X63625904Y-11499500D01*
X63533438Y-11505918D01*
X63533422Y-11505920D01*
X63316864Y-11556854D01*
X63316848Y-11556860D01*
X63113331Y-11646721D01*
X62929779Y-11772457D01*
X62929773Y-11772462D01*
X62772462Y-11929773D01*
X62772457Y-11929779D01*
X62646721Y-12113331D01*
X62556860Y-12316848D01*
X62556854Y-12316864D01*
X62505920Y-12533422D01*
X62505918Y-12533438D01*
X62499500Y-12625904D01*
X59500500Y-12625904D01*
X59494081Y-12533433D01*
X59494079Y-12533427D01*
X59494079Y-12533422D01*
X59443145Y-12316864D01*
X59443144Y-12316861D01*
X59443143Y-12316857D01*
X59353277Y-12113329D01*
X59227542Y-11929779D01*
X59227537Y-11929773D01*
X59070226Y-11772462D01*
X59070220Y-11772457D01*
X58912964Y-11664734D01*
X58886671Y-11646723D01*
X58886670Y-11646722D01*
X58886668Y-11646721D01*
X58683151Y-11556860D01*
X58683135Y-11556854D01*
X58466577Y-11505920D01*
X58466561Y-11505918D01*
X58374096Y-11499500D01*
X58374092Y-11499500D01*
X57182940Y-11499500D01*
X57115901Y-11479815D01*
X57095259Y-11463181D01*
X55932292Y-10300213D01*
X55932288Y-10300210D01*
X55801185Y-10212609D01*
X55801172Y-10212602D01*
X55655501Y-10152264D01*
X55655489Y-10152261D01*
X55500845Y-10121500D01*
X55500842Y-10121500D01*
X54927055Y-10121500D01*
X54860016Y-10101815D01*
X54814261Y-10049011D01*
X54804317Y-9979853D01*
X54824755Y-9927423D01*
X54852839Y-9886424D01*
X54942663Y-9682991D01*
X54942669Y-9682975D01*
X54993582Y-9466508D01*
X54993584Y-9466492D01*
X55000000Y-9374068D01*
X55000000Y-9000000D01*
X53798482Y-9000000D01*
X53809111Y-8981591D01*
X53850000Y-8828991D01*
X53850000Y-8671009D01*
X53809111Y-8518409D01*
X53798482Y-8500000D01*
X54999999Y-8500000D01*
X54999999Y-8125932D01*
X54999999Y-8125931D01*
X56000000Y-8125931D01*
X56000000Y-8500000D01*
X57201518Y-8500000D01*
X57190889Y-8518409D01*
X57150000Y-8671009D01*
X57150000Y-8828991D01*
X57190889Y-8981591D01*
X57201518Y-9000000D01*
X56000001Y-9000000D01*
X56000001Y-9374067D01*
X56006415Y-9466491D01*
X56006417Y-9466507D01*
X56057330Y-9682975D01*
X56057336Y-9682991D01*
X56147160Y-9886424D01*
X56272843Y-10069899D01*
X56430100Y-10227156D01*
X56613575Y-10352839D01*
X56817008Y-10442663D01*
X56817024Y-10442669D01*
X57033491Y-10493582D01*
X57033507Y-10493584D01*
X57125931Y-10499999D01*
X57499999Y-10499999D01*
X57500000Y-10499998D01*
X57500000Y-9298482D01*
X57518409Y-9309111D01*
X57671009Y-9350000D01*
X57828991Y-9350000D01*
X57981591Y-9309111D01*
X58000000Y-9298482D01*
X58000000Y-10499999D01*
X58374068Y-10499999D01*
X58466491Y-10493584D01*
X58466507Y-10493582D01*
X58682975Y-10442669D01*
X58682991Y-10442663D01*
X58886424Y-10352839D01*
X59069899Y-10227156D01*
X59227156Y-10069899D01*
X59352839Y-9886424D01*
X59442663Y-9682991D01*
X59442669Y-9682975D01*
X59493582Y-9466508D01*
X59493584Y-9466492D01*
X59500000Y-9374068D01*
X59500000Y-9000000D01*
X58298482Y-9000000D01*
X58309111Y-8981591D01*
X58350000Y-8828991D01*
X58350000Y-8671009D01*
X58309111Y-8518409D01*
X58298482Y-8500000D01*
X59499999Y-8500000D01*
X59499999Y-8125932D01*
X59499999Y-8125931D01*
X62500000Y-8125931D01*
X62500000Y-8500000D01*
X63701518Y-8500000D01*
X63690889Y-8518409D01*
X63650000Y-8671009D01*
X63650000Y-8828991D01*
X63690889Y-8981591D01*
X63701518Y-9000000D01*
X62500001Y-9000000D01*
X62500001Y-9374067D01*
X62506415Y-9466491D01*
X62506417Y-9466507D01*
X62557330Y-9682975D01*
X62557336Y-9682991D01*
X62647160Y-9886424D01*
X62772843Y-10069899D01*
X62930100Y-10227156D01*
X63113575Y-10352839D01*
X63317008Y-10442663D01*
X63317024Y-10442669D01*
X63533491Y-10493582D01*
X63533507Y-10493584D01*
X63625931Y-10499999D01*
X63999999Y-10499999D01*
X64000000Y-10499998D01*
X64000000Y-9298482D01*
X64018409Y-9309111D01*
X64171009Y-9350000D01*
X64328991Y-9350000D01*
X64481591Y-9309111D01*
X64500000Y-9298482D01*
X64500000Y-10499999D01*
X64874068Y-10499999D01*
X64966491Y-10493584D01*
X64966507Y-10493582D01*
X65182975Y-10442669D01*
X65182991Y-10442663D01*
X65386424Y-10352839D01*
X65569899Y-10227156D01*
X65727156Y-10069899D01*
X65852839Y-9886424D01*
X65942663Y-9682991D01*
X65942669Y-9682975D01*
X65993582Y-9466508D01*
X65993584Y-9466492D01*
X66000000Y-9374068D01*
X66000000Y-9000000D01*
X64798482Y-9000000D01*
X64809111Y-8981591D01*
X64850000Y-8828991D01*
X64850000Y-8671009D01*
X64809111Y-8518409D01*
X64798482Y-8500000D01*
X65999999Y-8500000D01*
X65999999Y-8125932D01*
X65993584Y-8033508D01*
X65993582Y-8033492D01*
X65942669Y-7817024D01*
X65942663Y-7817008D01*
X65852839Y-7613575D01*
X65727156Y-7430100D01*
X65569899Y-7272843D01*
X65386424Y-7147160D01*
X65182991Y-7057336D01*
X65182975Y-7057330D01*
X64966508Y-7006417D01*
X64966492Y-7006415D01*
X64874069Y-7000000D01*
X64500000Y-7000000D01*
X64500000Y-8201517D01*
X64481591Y-8190889D01*
X64328991Y-8150000D01*
X64171009Y-8150000D01*
X64018409Y-8190889D01*
X64000000Y-8201517D01*
X64000000Y-7000000D01*
X63625932Y-7000000D01*
X63533508Y-7006415D01*
X63533492Y-7006417D01*
X63317024Y-7057330D01*
X63317008Y-7057336D01*
X63113575Y-7147160D01*
X62930100Y-7272843D01*
X62772843Y-7430100D01*
X62647160Y-7613575D01*
X62557336Y-7817008D01*
X62557330Y-7817024D01*
X62506417Y-8033491D01*
X62506415Y-8033507D01*
X62500000Y-8125931D01*
X59499999Y-8125931D01*
X59493584Y-8033508D01*
X59493582Y-8033492D01*
X59442669Y-7817024D01*
X59442663Y-7817008D01*
X59352839Y-7613575D01*
X59227156Y-7430100D01*
X59069899Y-7272843D01*
X58886424Y-7147160D01*
X58682991Y-7057336D01*
X58682975Y-7057330D01*
X58487017Y-7011241D01*
X58426265Y-6976731D01*
X58393815Y-6914853D01*
X58399970Y-6845255D01*
X58418145Y-6813619D01*
X58422316Y-6808344D01*
X58514356Y-6659124D01*
X58514358Y-6659119D01*
X58569505Y-6492697D01*
X58569506Y-6492690D01*
X58579999Y-6389986D01*
X58580000Y-6389973D01*
X58580000Y-5965000D01*
X56280001Y-5965000D01*
X56280001Y-6389986D01*
X56290494Y-6492697D01*
X56345641Y-6659119D01*
X56345643Y-6659124D01*
X56437684Y-6808345D01*
X56561654Y-6932315D01*
X56591736Y-6950870D01*
X56638460Y-7002818D01*
X56649683Y-7071781D01*
X56621839Y-7135863D01*
X56596716Y-7158709D01*
X56430100Y-7272843D01*
X56272843Y-7430100D01*
X56147160Y-7613575D01*
X56057336Y-7817008D01*
X56057330Y-7817024D01*
X56006417Y-8033491D01*
X56006415Y-8033507D01*
X56000000Y-8125931D01*
X54999999Y-8125931D01*
X54993584Y-8033508D01*
X54993582Y-8033492D01*
X54942669Y-7817024D01*
X54942663Y-7817008D01*
X54852839Y-7613575D01*
X54727156Y-7430100D01*
X54599236Y-7302180D01*
X54565751Y-7240857D01*
X54570735Y-7171165D01*
X54612607Y-7115232D01*
X54678071Y-7090815D01*
X54686914Y-7090499D01*
X54780008Y-7090499D01*
X54882797Y-7079999D01*
X55049334Y-7024814D01*
X55198656Y-6932712D01*
X55322712Y-6808656D01*
X55414814Y-6659334D01*
X55469999Y-6492797D01*
X55480500Y-6390009D01*
X55480499Y-5040013D01*
X56280000Y-5040013D01*
X56280000Y-5465000D01*
X57180000Y-5465000D01*
X57180000Y-4797874D01*
X57680000Y-4797874D01*
X57680000Y-5465000D01*
X58579999Y-5465000D01*
X58579999Y-5040028D01*
X58579998Y-5040013D01*
X58569505Y-4937302D01*
X58514358Y-4770880D01*
X58514356Y-4770875D01*
X58432849Y-4638731D01*
X58414409Y-4571338D01*
X58435332Y-4504675D01*
X58450707Y-4485952D01*
X58574317Y-4362342D01*
X58666356Y-4213124D01*
X58666358Y-4213119D01*
X58721505Y-4046697D01*
X58721506Y-4046690D01*
X58731999Y-3943986D01*
X58732000Y-3943965D01*
X58732000Y-3872857D01*
X61384500Y-3872857D01*
X61384500Y-4127143D01*
X61388318Y-4151250D01*
X61422849Y-4369272D01*
X61424279Y-4378297D01*
X61497127Y-4602500D01*
X61502859Y-4620139D01*
X61503632Y-4621657D01*
X61618301Y-4846706D01*
X61767766Y-5052427D01*
X61947573Y-5232234D01*
X62153294Y-5381699D01*
X62379863Y-5497142D01*
X62621703Y-5575721D01*
X62872857Y-5615500D01*
X62872858Y-5615500D01*
X63127142Y-5615500D01*
X63127143Y-5615500D01*
X63378297Y-5575721D01*
X63620137Y-5497142D01*
X63846706Y-5381699D01*
X64052427Y-5232234D01*
X64232234Y-5052427D01*
X64381699Y-4846706D01*
X64497142Y-4620137D01*
X64575721Y-4378297D01*
X64615500Y-4127143D01*
X64615500Y-3872857D01*
X64575721Y-3621703D01*
X64497142Y-3379863D01*
X64381699Y-3153294D01*
X64232234Y-2947573D01*
X64052427Y-2767766D01*
X63846706Y-2618301D01*
X63815769Y-2602538D01*
X63620139Y-2502859D01*
X63620138Y-2502858D01*
X63620137Y-2502858D01*
X63378297Y-2424279D01*
X63378295Y-2424278D01*
X63378294Y-2424278D01*
X63178164Y-2392581D01*
X63127143Y-2384500D01*
X62872857Y-2384500D01*
X62821836Y-2392581D01*
X62621706Y-2424278D01*
X62500783Y-2463568D01*
X62480851Y-2470045D01*
X62379860Y-2502859D01*
X62153293Y-2618301D01*
X61947570Y-2767768D01*
X61767768Y-2947570D01*
X61618301Y-3153293D01*
X61502859Y-3379860D01*
X61424278Y-3621706D01*
X61394214Y-3811523D01*
X61384500Y-3872857D01*
X58732000Y-3872857D01*
X58732000Y-3044000D01*
X57819500Y-3044000D01*
X57819500Y-4650000D01*
X57815364Y-4664082D01*
X57816123Y-4678743D01*
X57805717Y-4696935D01*
X57799815Y-4717039D01*
X57788723Y-4726649D01*
X57781435Y-4739394D01*
X57752769Y-4759983D01*
X57680000Y-4797874D01*
X57180000Y-4797874D01*
X57180000Y-4334000D01*
X57199685Y-4266961D01*
X57252489Y-4221206D01*
X57304000Y-4210000D01*
X57319500Y-4210000D01*
X57319500Y-3044000D01*
X56407001Y-3044000D01*
X56407001Y-3943986D01*
X56417494Y-4046697D01*
X56472641Y-4213119D01*
X56472643Y-4213124D01*
X56563688Y-4360730D01*
X56582128Y-4428123D01*
X56561206Y-4494786D01*
X56545831Y-4513508D01*
X56437682Y-4621657D01*
X56345643Y-4770875D01*
X56345641Y-4770880D01*
X56290494Y-4937302D01*
X56290493Y-4937309D01*
X56280000Y-5040013D01*
X55480499Y-5040013D01*
X55480499Y-5039992D01*
X55474130Y-4977648D01*
X55469999Y-4937203D01*
X55469998Y-4937200D01*
X55437528Y-4839213D01*
X55414814Y-4770666D01*
X55323943Y-4623340D01*
X55305504Y-4555950D01*
X55326427Y-4489287D01*
X55341792Y-4470575D01*
X55449712Y-4362656D01*
X55541814Y-4213334D01*
X55596999Y-4046797D01*
X55607500Y-3944009D01*
X55607499Y-1644013D01*
X56407000Y-1644013D01*
X56407000Y-2544000D01*
X57319500Y-2544000D01*
X57819500Y-2544000D01*
X58731999Y-2544000D01*
X58731999Y-1644028D01*
X58731998Y-1644013D01*
X58721505Y-1541302D01*
X58666358Y-1374880D01*
X58666356Y-1374875D01*
X58574315Y-1225654D01*
X58450345Y-1101684D01*
X58301124Y-1009643D01*
X58301119Y-1009641D01*
X58134697Y-954494D01*
X58134690Y-954493D01*
X58031986Y-944000D01*
X57819500Y-944000D01*
X57819500Y-2544000D01*
X57319500Y-2544000D01*
X57319500Y-944000D01*
X57107029Y-944000D01*
X57107012Y-944001D01*
X57004302Y-954494D01*
X56837880Y-1009641D01*
X56837875Y-1009643D01*
X56688654Y-1101684D01*
X56564684Y-1225654D01*
X56472643Y-1374875D01*
X56472641Y-1374880D01*
X56417494Y-1541302D01*
X56417493Y-1541309D01*
X56407000Y-1644013D01*
X55607499Y-1644013D01*
X55607499Y-1643992D01*
X55596999Y-1541203D01*
X55541814Y-1374666D01*
X55449712Y-1225344D01*
X55325656Y-1101288D01*
X55176334Y-1009186D01*
X55009797Y-954001D01*
X55009795Y-954000D01*
X54907010Y-943500D01*
X53981998Y-943500D01*
X53981980Y-943501D01*
X53879203Y-954000D01*
X53879200Y-954001D01*
X53712668Y-1009185D01*
X53712663Y-1009187D01*
X53563342Y-1101289D01*
X53439289Y-1225342D01*
X53347187Y-1374663D01*
X53347185Y-1374668D01*
X53347115Y-1374880D01*
X53292001Y-1541203D01*
X53292001Y-1541204D01*
X53292000Y-1541204D01*
X53281500Y-1643983D01*
X53281500Y-2277500D01*
X53278949Y-2286185D01*
X53280238Y-2295147D01*
X53269259Y-2319187D01*
X53261815Y-2344539D01*
X53254974Y-2350466D01*
X53251213Y-2358703D01*
X53228978Y-2372992D01*
X53209011Y-2390294D01*
X53198496Y-2392581D01*
X53192435Y-2396477D01*
X53157500Y-2401500D01*
X53079798Y-2401500D01*
X53012759Y-2381815D01*
X52974259Y-2342597D01*
X52960933Y-2320992D01*
X52937712Y-2283344D01*
X52813656Y-2159288D01*
X52664334Y-2067186D01*
X52497797Y-2012001D01*
X52497795Y-2012000D01*
X52395010Y-2001500D01*
X49794998Y-2001500D01*
X49794981Y-2001501D01*
X49692203Y-2012000D01*
X49692200Y-2012001D01*
X49525668Y-2067185D01*
X49525663Y-2067187D01*
X49376342Y-2159289D01*
X49252289Y-2283342D01*
X49160187Y-2432663D01*
X49160185Y-2432668D01*
X49132349Y-2516670D01*
X49105001Y-2599203D01*
X49105001Y-2599204D01*
X49105000Y-2599204D01*
X49094500Y-2701983D01*
X49094500Y-3902001D01*
X49094501Y-3902018D01*
X49105000Y-4004796D01*
X49105003Y-4004806D01*
X49119551Y-4048711D01*
X49121952Y-4118539D01*
X49089526Y-4175394D01*
X48640741Y-4624181D01*
X48613813Y-4638884D01*
X48587995Y-4655477D01*
X48581794Y-4656368D01*
X48579418Y-4657666D01*
X48553060Y-4660500D01*
X48497230Y-4660500D01*
X48430191Y-4640815D01*
X48384436Y-4588011D01*
X48374492Y-4518853D01*
X48403517Y-4455297D01*
X48409549Y-4448819D01*
X48459982Y-4398386D01*
X48537712Y-4320656D01*
X48629814Y-4171334D01*
X48684999Y-4004797D01*
X48695500Y-3902009D01*
X48695499Y-2701992D01*
X48684999Y-2599203D01*
X48629814Y-2432666D01*
X48537712Y-2283344D01*
X48413656Y-2159288D01*
X48264334Y-2067186D01*
X48097797Y-2012001D01*
X48097795Y-2012000D01*
X47995010Y-2001500D01*
X45394998Y-2001500D01*
X45394981Y-2001501D01*
X45292203Y-2012000D01*
X45292200Y-2012001D01*
X45125668Y-2067185D01*
X45125663Y-2067187D01*
X44976342Y-2159289D01*
X44852289Y-2283342D01*
X44845008Y-2295147D01*
X44829074Y-2320981D01*
X44815741Y-2342597D01*
X44763793Y-2389321D01*
X44710202Y-2401500D01*
X44615303Y-2401500D01*
X44441341Y-2436103D01*
X44441329Y-2436106D01*
X44359392Y-2470045D01*
X44359393Y-2470046D01*
X44277455Y-2503985D01*
X44220831Y-2541821D01*
X44220830Y-2541822D01*
X44129961Y-2602537D01*
X44129960Y-2602538D01*
X43497319Y-3235181D01*
X43435996Y-3268666D01*
X43409638Y-3271500D01*
X43331648Y-3271500D01*
X43307329Y-3275351D01*
X43129465Y-3303522D01*
X42934776Y-3366781D01*
X42752386Y-3459715D01*
X42586786Y-3580028D01*
X42442028Y-3724786D01*
X42321715Y-3890386D01*
X42228781Y-4072776D01*
X42165522Y-4267465D01*
X42136799Y-4448819D01*
X42133500Y-4469648D01*
X42133500Y-4674352D01*
X42137077Y-4696935D01*
X42165522Y-4876534D01*
X42228781Y-5071223D01*
X42285405Y-5182352D01*
X42310821Y-5232234D01*
X42321715Y-5253613D01*
X42442028Y-5419213D01*
X42586786Y-5563971D01*
X42702110Y-5647757D01*
X42752390Y-5684287D01*
X42868607Y-5743503D01*
X42934776Y-5777218D01*
X42934778Y-5777218D01*
X42934781Y-5777220D01*
X43013530Y-5802807D01*
X43129465Y-5840477D01*
X43230557Y-5856488D01*
X43331648Y-5872500D01*
X43331649Y-5872500D01*
X43536351Y-5872500D01*
X43536352Y-5872500D01*
X43738534Y-5840477D01*
X43933219Y-5777220D01*
X44115610Y-5684287D01*
X44213905Y-5612872D01*
X44281213Y-5563971D01*
X44281215Y-5563968D01*
X44281219Y-5563966D01*
X44425966Y-5419219D01*
X44425968Y-5419215D01*
X44425971Y-5419213D01*
X44497606Y-5320614D01*
X44546287Y-5253610D01*
X44639220Y-5071219D01*
X44702477Y-4876534D01*
X44734500Y-4674352D01*
X44734500Y-4596362D01*
X44743143Y-4566925D01*
X44749667Y-4536936D01*
X44753422Y-4531919D01*
X44754185Y-4529323D01*
X44770818Y-4508682D01*
X44793548Y-4485952D01*
X44819462Y-4460037D01*
X44880783Y-4426553D01*
X44950474Y-4431537D01*
X44972238Y-4442180D01*
X45125659Y-4536810D01*
X45125660Y-4536810D01*
X45125666Y-4536814D01*
X45292203Y-4591999D01*
X45394991Y-4602500D01*
X46044202Y-4602499D01*
X46111239Y-4622183D01*
X46156994Y-4674987D01*
X46166938Y-4744146D01*
X46137913Y-4807702D01*
X46113095Y-4829598D01*
X46098715Y-4839207D01*
X46098707Y-4839213D01*
X43809157Y-7128765D01*
X43050711Y-7887211D01*
X43014858Y-7923064D01*
X42939209Y-7998712D01*
X42851609Y-8129814D01*
X42851602Y-8129827D01*
X42791264Y-8275498D01*
X42791261Y-8275507D01*
X42780081Y-8331714D01*
X42747695Y-8393624D01*
X42686979Y-8428198D01*
X42617210Y-8424457D01*
X42570783Y-8395202D01*
X42406670Y-8231089D01*
X42406661Y-8231081D01*
X42224617Y-8091392D01*
X42025890Y-7976657D01*
X42025876Y-7976650D01*
X41813887Y-7888842D01*
X41807800Y-7887211D01*
X41592238Y-7829452D01*
X41554215Y-7824446D01*
X41364741Y-7799500D01*
X41364734Y-7799500D01*
X41135266Y-7799500D01*
X41135258Y-7799500D01*
X40918715Y-7828009D01*
X40907762Y-7829452D01*
X40827571Y-7850939D01*
X40686112Y-7888842D01*
X40474123Y-7976650D01*
X40474109Y-7976657D01*
X40275387Y-8091389D01*
X40258399Y-8104425D01*
X40199985Y-8149247D01*
X40134817Y-8174441D01*
X40066373Y-8160403D01*
X40016383Y-8111589D01*
X40000500Y-8050871D01*
X40000500Y-7735272D01*
X40000499Y-7735258D01*
X39992278Y-7672813D01*
X39970548Y-7507762D01*
X39911158Y-7286113D01*
X39858385Y-7158709D01*
X39823349Y-7074123D01*
X39823346Y-7074117D01*
X39823344Y-7074112D01*
X39708611Y-6875388D01*
X39708608Y-6875385D01*
X39708607Y-6875382D01*
X39568918Y-6693338D01*
X39568911Y-6693330D01*
X39406670Y-6531089D01*
X39406661Y-6531081D01*
X39224617Y-6391392D01*
X39221951Y-6389853D01*
X39049870Y-6290502D01*
X39025890Y-6276657D01*
X39025876Y-6276650D01*
X38813887Y-6188842D01*
X38785471Y-6181228D01*
X38592238Y-6129452D01*
X38554215Y-6124446D01*
X38364741Y-6099500D01*
X38364734Y-6099500D01*
X38135266Y-6099500D01*
X38135258Y-6099500D01*
X37918715Y-6128009D01*
X37907762Y-6129452D01*
X37814076Y-6154554D01*
X37686112Y-6188842D01*
X37474123Y-6276650D01*
X37474109Y-6276657D01*
X37275382Y-6391392D01*
X37093338Y-6531081D01*
X36931081Y-6693338D01*
X36791392Y-6875382D01*
X36676657Y-7074109D01*
X36676650Y-7074123D01*
X36588842Y-7286112D01*
X36582294Y-7310550D01*
X36532975Y-7494616D01*
X36529453Y-7507759D01*
X36529451Y-7507770D01*
X36499500Y-7735258D01*
X36499500Y-9964741D01*
X36513979Y-10074712D01*
X36529452Y-10192238D01*
X36588842Y-10413887D01*
X36676650Y-10625876D01*
X36676657Y-10625890D01*
X36791392Y-10824617D01*
X36931081Y-11006661D01*
X36931089Y-11006670D01*
X37093330Y-11168911D01*
X37093338Y-11168918D01*
X37275382Y-11308607D01*
X37275385Y-11308608D01*
X37275388Y-11308611D01*
X37474112Y-11423344D01*
X37474117Y-11423346D01*
X37474123Y-11423349D01*
X37542340Y-11451605D01*
X37686113Y-11511158D01*
X37907762Y-11570548D01*
X38135266Y-11600500D01*
X38135273Y-11600500D01*
X38364727Y-11600500D01*
X38364734Y-11600500D01*
X38592238Y-11570548D01*
X38813887Y-11511158D01*
X39025888Y-11423344D01*
X39224612Y-11308611D01*
X39300014Y-11250752D01*
X39365182Y-11225558D01*
X39433627Y-11239596D01*
X39483617Y-11288409D01*
X39499500Y-11349128D01*
X39499500Y-11664741D01*
X39523264Y-11845236D01*
X39529452Y-11892238D01*
X39565869Y-12028148D01*
X39588842Y-12113887D01*
X39676650Y-12325876D01*
X39676657Y-12325890D01*
X39791392Y-12524617D01*
X39931081Y-12706661D01*
X39931089Y-12706670D01*
X40093330Y-12868911D01*
X40093338Y-12868918D01*
X40275382Y-13008607D01*
X40275385Y-13008608D01*
X40275388Y-13008611D01*
X40474112Y-13123344D01*
X40474117Y-13123346D01*
X40474123Y-13123349D01*
X40555459Y-13157039D01*
X40686113Y-13211158D01*
X40907762Y-13270548D01*
X41049587Y-13289219D01*
X41113482Y-13317485D01*
X41151953Y-13375810D01*
X41152784Y-13445674D01*
X41121081Y-13499839D01*
X40082022Y-14538898D01*
X40020699Y-14572383D01*
X39984619Y-14574835D01*
X39980359Y-14574500D01*
X39980352Y-14574500D01*
X39775648Y-14574500D01*
X39751329Y-14578351D01*
X39573465Y-14606522D01*
X39378776Y-14669781D01*
X39196386Y-14762715D01*
X39030786Y-14883028D01*
X38886028Y-15027786D01*
X38765715Y-15193386D01*
X38672781Y-15375776D01*
X38609522Y-15570465D01*
X38577500Y-15772648D01*
X38577500Y-15977351D01*
X38609522Y-16179534D01*
X38672781Y-16374223D01*
X38735126Y-16496580D01*
X38762633Y-16550566D01*
X38765715Y-16556613D01*
X38886028Y-16722213D01*
X39030786Y-16866971D01*
X39167981Y-16966647D01*
X39196390Y-16987287D01*
X39312607Y-17046503D01*
X39378776Y-17080218D01*
X39378778Y-17080218D01*
X39378781Y-17080220D01*
X39455040Y-17104998D01*
X39573465Y-17143477D01*
X39635857Y-17153359D01*
X39775648Y-17175500D01*
X39775649Y-17175500D01*
X39980351Y-17175500D01*
X39980352Y-17175500D01*
X40182534Y-17143477D01*
X40377219Y-17080220D01*
X40559610Y-16987287D01*
X40652590Y-16919732D01*
X40725213Y-16866971D01*
X40725215Y-16866968D01*
X40725219Y-16866966D01*
X40869966Y-16722219D01*
X40869968Y-16722215D01*
X40869971Y-16722213D01*
X40922732Y-16649590D01*
X40990287Y-16556610D01*
X41083220Y-16374219D01*
X41121569Y-16256193D01*
X41161007Y-16198517D01*
X41225365Y-16171319D01*
X41294212Y-16183234D01*
X41345687Y-16230478D01*
X41363500Y-16294511D01*
X41363500Y-18577179D01*
X41343815Y-18644218D01*
X41327181Y-18664860D01*
X40988180Y-19003861D01*
X40926857Y-19037346D01*
X40857165Y-19032362D01*
X40801232Y-18990490D01*
X40776815Y-18925026D01*
X40776499Y-18916180D01*
X40776499Y-18322998D01*
X40776498Y-18322981D01*
X40765999Y-18220203D01*
X40765998Y-18220200D01*
X40752412Y-18179200D01*
X40710814Y-18053666D01*
X40618712Y-17904344D01*
X40494656Y-17780288D01*
X40345334Y-17688186D01*
X40178797Y-17633001D01*
X40178795Y-17633000D01*
X40076010Y-17622500D01*
X37475998Y-17622500D01*
X37475981Y-17622501D01*
X37373203Y-17633000D01*
X37373200Y-17633001D01*
X37206668Y-17688185D01*
X37206663Y-17688187D01*
X37057342Y-17780289D01*
X36933289Y-17904342D01*
X36841187Y-18053663D01*
X36841185Y-18053668D01*
X36822608Y-18109731D01*
X36786001Y-18220203D01*
X36786001Y-18220204D01*
X36786000Y-18220204D01*
X36775500Y-18322983D01*
X36775500Y-19523001D01*
X36775501Y-19523018D01*
X36786000Y-19625796D01*
X36786001Y-19625799D01*
X36841185Y-19792331D01*
X36841187Y-19792336D01*
X36859569Y-19822138D01*
X36933096Y-19941345D01*
X36933289Y-19941657D01*
X36940430Y-19948798D01*
X36973915Y-20010121D01*
X36968931Y-20079813D01*
X36967311Y-20083929D01*
X36949263Y-20127502D01*
X36949260Y-20127511D01*
X36918500Y-20282153D01*
X36918500Y-21435500D01*
X36898815Y-21502539D01*
X36846011Y-21548294D01*
X36794500Y-21559500D01*
X36727648Y-21559500D01*
X36703329Y-21563351D01*
X36525465Y-21591522D01*
X36330776Y-21654781D01*
X36148386Y-21747715D01*
X35982786Y-21868028D01*
X35838028Y-22012786D01*
X35717715Y-22178386D01*
X35624781Y-22360776D01*
X35561522Y-22555465D01*
X35530315Y-22752501D01*
X35529500Y-22757648D01*
X35529500Y-22962352D01*
X35534447Y-22993584D01*
X35561523Y-23164535D01*
X35561524Y-23164542D01*
X35565765Y-23177593D01*
X35567760Y-23247434D01*
X35531679Y-23307267D01*
X35468978Y-23338094D01*
X35428436Y-23338383D01*
X35372352Y-23329500D01*
X35167648Y-23329500D01*
X35143329Y-23333351D01*
X34965465Y-23361522D01*
X34770776Y-23424781D01*
X34588386Y-23517715D01*
X34422786Y-23638028D01*
X34278028Y-23782786D01*
X34157715Y-23948386D01*
X34110485Y-24041080D01*
X34062510Y-24091876D01*
X33994689Y-24108671D01*
X33928554Y-24086134D01*
X33889515Y-24041080D01*
X33842419Y-23948650D01*
X33842287Y-23948390D01*
X33834556Y-23937749D01*
X33721971Y-23782786D01*
X33577213Y-23638028D01*
X33411613Y-23517715D01*
X33411612Y-23517714D01*
X33411610Y-23517713D01*
X33354653Y-23488691D01*
X33229223Y-23424781D01*
X33034534Y-23361522D01*
X32859995Y-23333878D01*
X32832352Y-23329500D01*
X32657047Y-23329500D01*
X32590008Y-23309815D01*
X32544253Y-23257011D01*
X32534309Y-23187853D01*
X32563334Y-23124297D01*
X32569366Y-23117819D01*
X32590225Y-23096960D01*
X32614966Y-23072219D01*
X32614968Y-23072215D01*
X32614971Y-23072213D01*
X32694793Y-22962345D01*
X32735287Y-22906610D01*
X32828220Y-22724219D01*
X32891477Y-22529534D01*
X32923500Y-22327352D01*
X32923500Y-22122648D01*
X32906099Y-22012786D01*
X32891477Y-21920465D01*
X32856234Y-21811998D01*
X32828220Y-21725781D01*
X32828218Y-21725778D01*
X32828218Y-21725776D01*
X32775594Y-21622497D01*
X32735287Y-21543390D01*
X32711886Y-21511181D01*
X32614971Y-21377786D01*
X32470213Y-21233028D01*
X32304613Y-21112715D01*
X32304612Y-21112714D01*
X32304610Y-21112713D01*
X32238979Y-21079272D01*
X32145069Y-21031422D01*
X32094273Y-20983447D01*
X32077478Y-20915626D01*
X32100016Y-20849491D01*
X32154731Y-20806040D01*
X32162362Y-20803230D01*
X32186122Y-20795356D01*
X32186124Y-20795356D01*
X32335345Y-20703315D01*
X32459315Y-20579345D01*
X32551356Y-20430124D01*
X32551358Y-20430119D01*
X32606505Y-20263697D01*
X32606506Y-20263688D01*
X32608500Y-20244176D01*
X32634894Y-20179484D01*
X32692074Y-20139331D01*
X32761885Y-20136467D01*
X32796955Y-20151237D01*
X32806875Y-20157356D01*
X32806880Y-20157358D01*
X32973302Y-20212505D01*
X32973309Y-20212506D01*
X33076019Y-20222999D01*
X34125999Y-20222999D01*
X34626000Y-20222999D01*
X35675972Y-20222999D01*
X35675986Y-20222998D01*
X35778697Y-20212505D01*
X35945119Y-20157358D01*
X35945124Y-20157356D01*
X36094345Y-20065315D01*
X36218315Y-19941345D01*
X36310356Y-19792124D01*
X36310358Y-19792119D01*
X36365505Y-19625697D01*
X36365506Y-19625690D01*
X36375999Y-19522986D01*
X36376000Y-19522973D01*
X36376000Y-19173000D01*
X34626000Y-19173000D01*
X34626000Y-20222999D01*
X34125999Y-20222999D01*
X34126000Y-20222998D01*
X34126000Y-18673000D01*
X34626000Y-18673000D01*
X36375999Y-18673000D01*
X36375999Y-18323028D01*
X36375998Y-18323013D01*
X36365505Y-18220302D01*
X36310358Y-18053880D01*
X36310356Y-18053875D01*
X36218315Y-17904654D01*
X36094345Y-17780684D01*
X35945124Y-17688643D01*
X35945119Y-17688641D01*
X35778697Y-17633494D01*
X35778690Y-17633493D01*
X35675986Y-17623000D01*
X34626000Y-17623000D01*
X34626000Y-18673000D01*
X34126000Y-18673000D01*
X34126000Y-17623000D01*
X33076028Y-17623000D01*
X33076012Y-17623001D01*
X32973302Y-17633494D01*
X32806880Y-17688641D01*
X32806875Y-17688643D01*
X32657654Y-17780684D01*
X32533684Y-17904654D01*
X32441643Y-18053875D01*
X32441641Y-18053880D01*
X32386494Y-18220302D01*
X32386493Y-18220309D01*
X32376000Y-18323013D01*
X32376000Y-18521585D01*
X32356315Y-18588624D01*
X32303511Y-18634379D01*
X32234353Y-18644323D01*
X32192862Y-18629283D01*
X32192670Y-18629696D01*
X32188029Y-18627532D01*
X32186906Y-18627125D01*
X32186131Y-18626647D01*
X32186119Y-18626641D01*
X32019697Y-18571494D01*
X32019690Y-18571493D01*
X31916986Y-18561000D01*
X31492000Y-18561000D01*
X31492000Y-19587000D01*
X31472315Y-19654039D01*
X31419511Y-19699794D01*
X31368000Y-19711000D01*
X31242000Y-19711000D01*
X31242000Y-19837000D01*
X31222315Y-19904039D01*
X31169511Y-19949794D01*
X31118000Y-19961000D01*
X29867001Y-19961000D01*
X29867001Y-20160986D01*
X29877494Y-20263697D01*
X29932641Y-20430119D01*
X29932643Y-20430124D01*
X30024684Y-20579345D01*
X30148654Y-20703315D01*
X30297875Y-20795356D01*
X30297880Y-20795358D01*
X30464302Y-20850505D01*
X30464309Y-20850506D01*
X30567019Y-20860999D01*
X30918907Y-20860999D01*
X30985946Y-20880683D01*
X31031701Y-20933487D01*
X31041645Y-21002646D01*
X31012620Y-21066201D01*
X30975204Y-21095483D01*
X30941386Y-21112714D01*
X30775786Y-21233028D01*
X30631028Y-21377786D01*
X30510715Y-21543386D01*
X30417781Y-21725776D01*
X30354522Y-21920465D01*
X30322500Y-22122648D01*
X30322500Y-22327351D01*
X30354522Y-22529534D01*
X30417781Y-22724223D01*
X30453776Y-22794865D01*
X30504684Y-22894778D01*
X30510715Y-22906613D01*
X30631028Y-23072213D01*
X30752181Y-23193366D01*
X30766884Y-23220293D01*
X30783477Y-23246112D01*
X30784368Y-23252312D01*
X30785666Y-23254689D01*
X30788500Y-23281047D01*
X30788500Y-23286367D01*
X30768815Y-23353406D01*
X30716011Y-23399161D01*
X30646853Y-23409105D01*
X30626184Y-23404298D01*
X30596530Y-23394663D01*
X30494534Y-23361522D01*
X30319995Y-23333878D01*
X30292352Y-23329500D01*
X30087648Y-23329500D01*
X30063329Y-23333351D01*
X29885465Y-23361522D01*
X29690776Y-23424781D01*
X29508386Y-23517715D01*
X29342786Y-23638028D01*
X29198028Y-23782786D01*
X29077713Y-23948388D01*
X29030203Y-24041630D01*
X28982228Y-24092426D01*
X28914407Y-24109220D01*
X28848272Y-24086682D01*
X28809234Y-24041628D01*
X28761861Y-23948652D01*
X28641582Y-23783105D01*
X28641582Y-23783104D01*
X28496895Y-23638417D01*
X28331349Y-23518140D01*
X28149029Y-23425244D01*
X27954413Y-23362009D01*
X27900000Y-23353390D01*
X27900000Y-25181517D01*
X27881591Y-25170889D01*
X27728991Y-25130000D01*
X27571009Y-25130000D01*
X27418409Y-25170889D01*
X27400000Y-25181517D01*
X27400000Y-23353390D01*
X27345586Y-23362009D01*
X27150970Y-23425244D01*
X26968650Y-23518140D01*
X26803105Y-23638417D01*
X26803104Y-23638417D01*
X26658417Y-23783104D01*
X26658417Y-23783105D01*
X26538140Y-23948650D01*
X26490765Y-24041629D01*
X26442790Y-24092425D01*
X26374969Y-24109220D01*
X26308834Y-24086682D01*
X26269795Y-24041629D01*
X26222419Y-23948650D01*
X26222287Y-23948390D01*
X26214556Y-23937749D01*
X26101971Y-23782786D01*
X25957213Y-23638028D01*
X25791613Y-23517715D01*
X25791612Y-23517714D01*
X25791610Y-23517713D01*
X25734653Y-23488691D01*
X25609223Y-23424781D01*
X25414534Y-23361522D01*
X25239995Y-23333878D01*
X25212352Y-23329500D01*
X25007648Y-23329500D01*
X24983329Y-23333351D01*
X24805465Y-23361522D01*
X24610776Y-23424781D01*
X24428386Y-23517715D01*
X24262786Y-23638028D01*
X24118028Y-23782786D01*
X23997715Y-23948386D01*
X23950485Y-24041080D01*
X23943756Y-24048204D01*
X23940485Y-24057440D01*
X23920162Y-24073185D01*
X23902510Y-24091876D01*
X23892999Y-24094231D01*
X23885253Y-24100233D01*
X23859642Y-24102491D01*
X23834689Y-24108671D01*
X23825413Y-24105510D01*
X23815654Y-24106371D01*
X23792893Y-24094428D01*
X23768554Y-24086134D01*
X23760809Y-24077593D01*
X23753784Y-24073907D01*
X23737525Y-24051915D01*
X23732168Y-24046007D01*
X23730777Y-24043558D01*
X23682287Y-23948390D01*
X23656931Y-23913490D01*
X23653496Y-23907440D01*
X23647030Y-23879923D01*
X23637530Y-23853296D01*
X23639143Y-23846357D01*
X23637514Y-23839423D01*
X23646952Y-23812775D01*
X23653356Y-23785242D01*
X23659631Y-23776982D01*
X23660843Y-23773563D01*
X23664215Y-23770950D01*
X23673646Y-23758538D01*
X23724966Y-23707219D01*
X23724968Y-23707215D01*
X23724971Y-23707213D01*
X23785599Y-23623764D01*
X23845287Y-23541610D01*
X23938220Y-23359219D01*
X24001477Y-23164534D01*
X24033500Y-22962352D01*
X24033500Y-22757648D01*
X24008017Y-22596758D01*
X24001477Y-22555465D01*
X23972127Y-22465137D01*
X23938220Y-22360781D01*
X23938218Y-22360778D01*
X23938218Y-22360776D01*
X23903789Y-22293207D01*
X23845287Y-22178390D01*
X23827929Y-22154498D01*
X23729764Y-22019384D01*
X23706284Y-21953578D01*
X23722110Y-21885524D01*
X23772216Y-21836829D01*
X23830082Y-21822499D01*
X23919002Y-21822499D01*
X23919008Y-21822499D01*
X24021797Y-21811999D01*
X24188334Y-21756814D01*
X24337656Y-21664712D01*
X24461712Y-21540656D01*
X24553814Y-21391334D01*
X24608999Y-21224797D01*
X24619500Y-21122009D01*
X24619499Y-19771992D01*
X24614545Y-19723500D01*
X24608999Y-19669203D01*
X24608998Y-19669200D01*
X24594616Y-19625799D01*
X24553814Y-19502666D01*
X24461712Y-19353344D01*
X24461709Y-19353341D01*
X24457234Y-19347681D01*
X24458711Y-19346513D01*
X24429833Y-19293627D01*
X24434817Y-19223935D01*
X24476689Y-19168002D01*
X24525053Y-19146014D01*
X24529793Y-19144999D01*
X24529797Y-19144999D01*
X24696334Y-19089814D01*
X24845656Y-18997712D01*
X24969712Y-18873656D01*
X25061814Y-18724334D01*
X25116999Y-18557797D01*
X25127500Y-18455009D01*
X25127499Y-17104992D01*
X25122235Y-17053465D01*
X25116999Y-17002203D01*
X25116998Y-17002200D01*
X25105221Y-16966659D01*
X25061814Y-16835666D01*
X24969712Y-16686344D01*
X24845656Y-16562288D01*
X24739126Y-16496580D01*
X24696336Y-16470187D01*
X24696331Y-16470185D01*
X24651625Y-16455371D01*
X24529797Y-16415001D01*
X24529795Y-16415000D01*
X24427010Y-16404500D01*
X23526998Y-16404500D01*
X23526980Y-16404501D01*
X23417468Y-16415689D01*
X23417191Y-16412981D01*
X23359680Y-16408650D01*
X23303906Y-16366567D01*
X23279736Y-16301011D01*
X23280376Y-16277529D01*
X23305004Y-16076956D01*
X23291080Y-15854906D01*
X23236591Y-15639197D01*
X23143393Y-15437172D01*
X23091518Y-15360349D01*
X23083822Y-15350499D01*
X22323066Y-14376774D01*
X22323055Y-14376761D01*
X22261072Y-14307851D01*
X22261070Y-14307849D01*
X22261068Y-14307847D01*
X22087591Y-14168543D01*
X22087587Y-14168541D01*
X22087585Y-14168539D01*
X21891472Y-14063488D01*
X21679391Y-13996259D01*
X21568972Y-13982702D01*
X21458559Y-13969145D01*
X21458555Y-13969145D01*
X21458554Y-13969145D01*
X21236507Y-13983069D01*
X21020798Y-14037558D01*
X20818777Y-14130754D01*
X20818771Y-14130758D01*
X20741948Y-14182633D01*
X19758377Y-14951082D01*
X19758364Y-14951093D01*
X19689454Y-15013076D01*
X19550142Y-15186563D01*
X19445091Y-15382676D01*
X19445091Y-15382677D01*
X19377862Y-15594758D01*
X19352188Y-15803859D01*
X19324480Y-15868000D01*
X19266493Y-15906978D01*
X19214001Y-15911822D01*
X19076956Y-15894996D01*
X19076953Y-15894996D01*
X19076952Y-15894996D01*
X18854904Y-15908920D01*
X18639195Y-15963409D01*
X18437174Y-16056605D01*
X18437168Y-16056609D01*
X18360345Y-16108484D01*
X17376774Y-16876933D01*
X17376761Y-16876944D01*
X17307851Y-16938927D01*
X17168539Y-17112414D01*
X17063488Y-17308527D01*
X17063488Y-17308528D01*
X16996259Y-17520608D01*
X16982460Y-17633000D01*
X16973017Y-17709912D01*
X16969145Y-17741445D01*
X16983069Y-17963492D01*
X17037558Y-18179201D01*
X17130754Y-18381222D01*
X17130758Y-18381228D01*
X17182633Y-18458051D01*
X17951082Y-19441622D01*
X17951093Y-19441635D01*
X18013076Y-19510545D01*
X18013077Y-19510546D01*
X18013081Y-19510550D01*
X18186558Y-19649854D01*
X18186561Y-19649856D01*
X18186563Y-19649857D01*
X18358213Y-19741804D01*
X18382678Y-19754909D01*
X18436588Y-19771998D01*
X18594758Y-19822137D01*
X18594761Y-19822137D01*
X18594763Y-19822138D01*
X18695830Y-19834547D01*
X18759968Y-19862254D01*
X18798947Y-19920240D01*
X18800389Y-19990095D01*
X18768397Y-20045303D01*
X18094699Y-20719000D01*
X18054476Y-20745878D01*
X18035819Y-20753606D01*
X18035818Y-20753607D01*
X17904715Y-20841207D01*
X17904707Y-20841213D01*
X17210546Y-21535376D01*
X16979711Y-21766211D01*
X16945462Y-21800460D01*
X16868209Y-21877712D01*
X16780609Y-22008814D01*
X16780602Y-22008827D01*
X16720264Y-22154498D01*
X16720261Y-22154510D01*
X16689500Y-22309153D01*
X16689500Y-23540966D01*
X16669815Y-23608005D01*
X16646046Y-23635244D01*
X16642784Y-23638030D01*
X16498028Y-23782786D01*
X16377715Y-23948386D01*
X16330485Y-24041080D01*
X16282510Y-24091876D01*
X16214689Y-24108671D01*
X16148554Y-24086134D01*
X16109515Y-24041080D01*
X16062419Y-23948650D01*
X16062287Y-23948390D01*
X16054556Y-23937749D01*
X15941971Y-23782786D01*
X15797213Y-23638028D01*
X15631613Y-23517715D01*
X15631612Y-23517714D01*
X15631610Y-23517713D01*
X15574653Y-23488691D01*
X15449223Y-23424781D01*
X15254534Y-23361522D01*
X15127889Y-23341464D01*
X15064754Y-23311535D01*
X15027823Y-23252223D01*
X15028821Y-23182361D01*
X15067431Y-23124128D01*
X15070915Y-23121301D01*
X15393710Y-22869107D01*
X15462629Y-22807116D01*
X15601933Y-22633639D01*
X15706988Y-22437519D01*
X15752734Y-22293207D01*
X15774216Y-22225439D01*
X15779993Y-22178390D01*
X15801331Y-22004607D01*
X15787407Y-21782557D01*
X15732918Y-21566848D01*
X15639720Y-21364823D01*
X15587845Y-21288000D01*
X15538467Y-21224799D01*
X14819393Y-20304425D01*
X14819382Y-20304412D01*
X14757399Y-20235502D01*
X14757397Y-20235500D01*
X14757395Y-20235498D01*
X14583918Y-20096194D01*
X14583914Y-20096192D01*
X14583912Y-20096190D01*
X14387799Y-19991139D01*
X14175718Y-19923910D01*
X14065299Y-19910353D01*
X13954886Y-19896796D01*
X13954882Y-19896796D01*
X13954881Y-19896796D01*
X13732834Y-19910720D01*
X13517125Y-19965209D01*
X13315104Y-20058405D01*
X13315098Y-20058409D01*
X13238275Y-20110284D01*
X12254704Y-20878733D01*
X12254691Y-20878744D01*
X12185781Y-20940727D01*
X12046469Y-21114214D01*
X11941418Y-21310327D01*
X11941418Y-21310328D01*
X11874190Y-21522408D01*
X11874189Y-21522412D01*
X11874189Y-21522414D01*
X11871187Y-21546862D01*
X11861900Y-21622497D01*
X11834191Y-21686637D01*
X11776204Y-21725616D01*
X11706350Y-21727056D01*
X11651143Y-21695065D01*
X10375401Y-20419323D01*
X10341916Y-20358000D01*
X10346900Y-20288308D01*
X10388772Y-20232375D01*
X10454236Y-20207958D01*
X10500552Y-20213439D01*
X10702318Y-20277398D01*
X10923064Y-20304501D01*
X11145017Y-20290583D01*
X11360633Y-20236117D01*
X11562577Y-20142957D01*
X11639365Y-20091108D01*
X11934130Y-19860810D01*
X11934130Y-19860809D01*
X11192689Y-18911806D01*
X11285318Y-18886987D01*
X11422135Y-18807995D01*
X11533846Y-18696284D01*
X11586950Y-18604304D01*
X12328135Y-19552978D01*
X12328136Y-19552978D01*
X12622887Y-19322694D01*
X12622899Y-19322685D01*
X12691795Y-19260717D01*
X12831036Y-19087313D01*
X12936049Y-18891273D01*
X13003249Y-18679284D01*
X13030352Y-18458538D01*
X13016434Y-18236585D01*
X12961968Y-18020969D01*
X12868810Y-17819028D01*
X12816951Y-17742228D01*
X12816946Y-17742221D01*
X12586661Y-17447471D01*
X12586660Y-17447471D01*
X11637657Y-18188912D01*
X11612838Y-18096285D01*
X11533846Y-17959468D01*
X11422135Y-17847757D01*
X11330154Y-17794651D01*
X12278829Y-17053466D01*
X12278829Y-17053465D01*
X12048545Y-16758715D01*
X12048536Y-16758703D01*
X11986568Y-16689807D01*
X11813164Y-16550566D01*
X11617124Y-16445553D01*
X11405135Y-16378353D01*
X11196079Y-16352685D01*
X11131938Y-16324977D01*
X11092960Y-16266990D01*
X11088115Y-16214502D01*
X11105004Y-16076956D01*
X11091080Y-15854906D01*
X11049384Y-15689845D01*
X11043544Y-15666722D01*
X11042689Y-15663339D01*
X11036591Y-15639197D01*
X10943393Y-15437172D01*
X10891518Y-15360349D01*
X10883822Y-15350499D01*
X10268105Y-14562416D01*
X10123066Y-14376774D01*
X10123055Y-14376761D01*
X10061072Y-14307851D01*
X10061070Y-14307849D01*
X10061068Y-14307847D01*
X9887591Y-14168543D01*
X9887587Y-14168541D01*
X9887585Y-14168539D01*
X9691472Y-14063488D01*
X9479391Y-13996259D01*
X9368972Y-13982702D01*
X9258559Y-13969145D01*
X9258555Y-13969145D01*
X9258554Y-13969145D01*
X9036507Y-13983069D01*
X8820798Y-14037558D01*
X8618777Y-14130754D01*
X8618771Y-14130758D01*
X8541948Y-14182633D01*
X7558377Y-14951082D01*
X7558364Y-14951093D01*
X7489454Y-15013076D01*
X7350142Y-15186563D01*
X7245091Y-15382676D01*
X7245091Y-15382677D01*
X7177862Y-15594757D01*
X7163024Y-15715611D01*
X7152189Y-15803859D01*
X7150748Y-15815594D01*
X7164672Y-16037641D01*
X7219161Y-16253350D01*
X7312357Y-16455371D01*
X7312361Y-16455377D01*
X7325397Y-16474682D01*
X7346600Y-16541257D01*
X7328444Y-16608726D01*
X7310314Y-16631756D01*
X7252210Y-16689860D01*
X7164609Y-16820963D01*
X7164602Y-16820976D01*
X7104264Y-16966647D01*
X7104261Y-16966659D01*
X7073500Y-17121302D01*
X400500Y-17121302D01*
X400500Y-13045134D01*
X10697298Y-13045134D01*
X10711216Y-13267087D01*
X10765682Y-13482703D01*
X10858840Y-13684644D01*
X10910699Y-13761444D01*
X10910704Y-13761451D01*
X11140988Y-14056200D01*
X11140989Y-14056200D01*
X12089992Y-13314757D01*
X12114813Y-13407388D01*
X12193805Y-13544205D01*
X12305516Y-13655916D01*
X12397494Y-13709020D01*
X11448820Y-14450205D01*
X11448820Y-14450206D01*
X11679105Y-14744957D01*
X11679114Y-14744969D01*
X11741082Y-14813865D01*
X11914486Y-14953106D01*
X12110526Y-15058119D01*
X12322515Y-15125319D01*
X12543261Y-15152422D01*
X12765214Y-15138504D01*
X12980830Y-15084038D01*
X13182774Y-14990878D01*
X13259562Y-14939029D01*
X13554327Y-14708731D01*
X13554327Y-14708730D01*
X12812885Y-13759727D01*
X12905515Y-13734908D01*
X13042332Y-13655916D01*
X13154043Y-13544205D01*
X13207148Y-13452225D01*
X13948333Y-14400898D01*
X14016017Y-14348018D01*
X14080963Y-14322256D01*
X14149528Y-14335696D01*
X14199942Y-14384072D01*
X14212583Y-14415362D01*
X14267555Y-14632982D01*
X14360713Y-14834923D01*
X14412572Y-14911723D01*
X14412577Y-14911730D01*
X14642861Y-15206479D01*
X14642862Y-15206479D01*
X15591865Y-14465036D01*
X15616686Y-14557667D01*
X15695678Y-14694484D01*
X15807389Y-14806195D01*
X15899367Y-14859299D01*
X14950693Y-15600484D01*
X14950693Y-15600485D01*
X15180978Y-15895236D01*
X15180987Y-15895248D01*
X15242955Y-15964144D01*
X15416359Y-16103385D01*
X15612399Y-16208398D01*
X15824388Y-16275598D01*
X16045134Y-16302701D01*
X16267087Y-16288783D01*
X16482703Y-16234317D01*
X16684647Y-16141157D01*
X16761435Y-16089308D01*
X17056200Y-15859010D01*
X17056200Y-15859009D01*
X16314758Y-14910006D01*
X16407388Y-14885187D01*
X16544205Y-14806195D01*
X16655916Y-14694484D01*
X16709020Y-14602504D01*
X17450205Y-15551178D01*
X17450206Y-15551178D01*
X17744957Y-15320894D01*
X17744969Y-15320885D01*
X17813865Y-15258917D01*
X17953106Y-15085513D01*
X18058119Y-14889473D01*
X18125319Y-14677484D01*
X18152422Y-14456738D01*
X18138504Y-14234785D01*
X18084038Y-14019169D01*
X17990880Y-13817228D01*
X17939021Y-13740428D01*
X17939016Y-13740421D01*
X17708731Y-13445671D01*
X17708730Y-13445671D01*
X16759727Y-14187112D01*
X16734908Y-14094485D01*
X16655916Y-13957668D01*
X16544205Y-13845957D01*
X16452223Y-13792851D01*
X17390490Y-13059798D01*
X17338684Y-12970074D01*
X17332407Y-12944205D01*
X17322594Y-12919466D01*
X17324296Y-12910779D01*
X17322209Y-12902175D01*
X17330914Y-12877019D01*
X17336034Y-12850902D01*
X17342163Y-12844514D01*
X17345059Y-12836147D01*
X17365983Y-12819691D01*
X17384410Y-12800488D01*
X17396728Y-12795511D01*
X17399979Y-12792955D01*
X17404009Y-12792570D01*
X17415700Y-12787847D01*
X17417441Y-12787407D01*
X17417443Y-12787407D01*
X17633152Y-12732918D01*
X17835177Y-12639720D01*
X17912000Y-12587845D01*
X18895583Y-11819386D01*
X18964502Y-11757395D01*
X19103806Y-11583918D01*
X19208861Y-11387798D01*
X19264242Y-11213089D01*
X19276089Y-11175718D01*
X19276925Y-11168911D01*
X19303204Y-10954886D01*
X19289280Y-10732836D01*
X19234791Y-10517127D01*
X19141593Y-10315102D01*
X19089718Y-10238279D01*
X19076613Y-10221505D01*
X18466305Y-9440346D01*
X18321266Y-9254704D01*
X18321255Y-9254691D01*
X18259272Y-9185781D01*
X18259270Y-9185779D01*
X18259268Y-9185777D01*
X18085791Y-9046473D01*
X18085787Y-9046471D01*
X18085785Y-9046469D01*
X17889672Y-8941418D01*
X17677591Y-8874189D01*
X17567172Y-8860632D01*
X17456759Y-8847075D01*
X17456755Y-8847075D01*
X17456754Y-8847075D01*
X17234707Y-8860999D01*
X17018998Y-8915488D01*
X16816977Y-9008684D01*
X16816971Y-9008688D01*
X16740148Y-9060563D01*
X15984278Y-9651112D01*
X15919331Y-9676874D01*
X15850766Y-9663434D01*
X15800353Y-9615058D01*
X15787712Y-9583768D01*
X15787407Y-9582561D01*
X15787407Y-9582557D01*
X15732918Y-9366848D01*
X15649388Y-9185781D01*
X15639721Y-9164825D01*
X15639717Y-9164819D01*
X15602923Y-9110329D01*
X15587845Y-9088000D01*
X15566407Y-9060561D01*
X14819393Y-8104425D01*
X14819382Y-8104412D01*
X14757399Y-8035502D01*
X14757397Y-8035500D01*
X14757395Y-8035498D01*
X14583918Y-7896194D01*
X14583914Y-7896192D01*
X14583912Y-7896190D01*
X14387799Y-7791139D01*
X14175718Y-7723910D01*
X14065299Y-7710353D01*
X13954886Y-7696796D01*
X13954882Y-7696796D01*
X13954881Y-7696796D01*
X13732834Y-7710720D01*
X13517125Y-7765209D01*
X13315104Y-7858405D01*
X13315098Y-7858409D01*
X13238275Y-7910284D01*
X12254704Y-8678733D01*
X12254691Y-8678744D01*
X12185781Y-8740727D01*
X12046469Y-8914214D01*
X11941418Y-9110327D01*
X11941418Y-9110328D01*
X11874189Y-9322408D01*
X11859709Y-9440346D01*
X11848454Y-9532016D01*
X11847075Y-9543245D01*
X11860999Y-9765292D01*
X11915488Y-9981001D01*
X12008684Y-10183022D01*
X12008688Y-10183028D01*
X12060563Y-10259851D01*
X12651449Y-11016151D01*
X12677211Y-11081098D01*
X12663771Y-11149663D01*
X12615395Y-11200076D01*
X12584106Y-11212716D01*
X12367021Y-11267553D01*
X12165076Y-11360713D01*
X12088276Y-11412572D01*
X12088269Y-11412577D01*
X11793519Y-11642861D01*
X11793519Y-11642862D01*
X12534962Y-12591866D01*
X12442333Y-12616686D01*
X12305516Y-12695678D01*
X12193805Y-12807389D01*
X12140699Y-12899369D01*
X11399513Y-11950693D01*
X11104749Y-12180989D01*
X11035856Y-12242955D01*
X10896614Y-12416359D01*
X10791601Y-12612399D01*
X10724401Y-12824388D01*
X10697298Y-13045134D01*
X400500Y-13045134D01*
X400500Y-10693524D01*
X3148948Y-10693524D01*
X3162872Y-10915571D01*
X3217361Y-11131280D01*
X3310557Y-11333301D01*
X3310561Y-11333307D01*
X3362436Y-11410130D01*
X4130885Y-12393701D01*
X4130896Y-12393714D01*
X4192879Y-12462624D01*
X4192880Y-12462625D01*
X4192884Y-12462629D01*
X4366361Y-12601933D01*
X4366364Y-12601935D01*
X4366366Y-12601936D01*
X4561887Y-12706670D01*
X4562481Y-12706988D01*
X4623699Y-12726393D01*
X4774560Y-12774216D01*
X4774564Y-12774216D01*
X4774566Y-12774217D01*
X4995393Y-12801331D01*
X5217443Y-12787407D01*
X5433152Y-12732918D01*
X5635177Y-12639720D01*
X5712000Y-12587845D01*
X6695583Y-11819386D01*
X6764502Y-11757395D01*
X6903806Y-11583918D01*
X7008861Y-11387798D01*
X7064242Y-11213089D01*
X7076089Y-11175718D01*
X7076925Y-11168911D01*
X7103204Y-10954886D01*
X7089280Y-10732836D01*
X7034791Y-10517127D01*
X6941593Y-10315102D01*
X6889718Y-10238279D01*
X6876613Y-10221505D01*
X6266305Y-9440346D01*
X6121266Y-9254704D01*
X6121255Y-9254691D01*
X6059272Y-9185781D01*
X6059270Y-9185779D01*
X6059268Y-9185777D01*
X5885791Y-9046473D01*
X5885787Y-9046471D01*
X5885785Y-9046469D01*
X5689672Y-8941418D01*
X5477591Y-8874189D01*
X5367172Y-8860632D01*
X5256759Y-8847075D01*
X5256755Y-8847075D01*
X5256754Y-8847075D01*
X5034707Y-8860999D01*
X4818998Y-8915488D01*
X4616977Y-9008684D01*
X4616971Y-9008688D01*
X4540148Y-9060563D01*
X3556577Y-9829012D01*
X3556564Y-9829023D01*
X3487654Y-9891006D01*
X3348342Y-10064493D01*
X3243291Y-10260606D01*
X3243291Y-10260607D01*
X3176062Y-10472687D01*
X3148948Y-10693524D01*
X400500Y-10693524D01*
X400500Y-7923064D01*
X6695498Y-7923064D01*
X6709416Y-8145017D01*
X6763882Y-8360633D01*
X6857040Y-8562574D01*
X6908899Y-8639374D01*
X6908904Y-8639381D01*
X7139188Y-8934130D01*
X7139189Y-8934130D01*
X8088192Y-8192687D01*
X8113013Y-8285318D01*
X8192005Y-8422135D01*
X8303716Y-8533846D01*
X8395694Y-8586950D01*
X7447020Y-9328135D01*
X7447020Y-9328136D01*
X7677305Y-9622887D01*
X7677314Y-9622899D01*
X7739282Y-9691795D01*
X7912686Y-9831036D01*
X8108726Y-9936049D01*
X8320715Y-10003249D01*
X8541461Y-10030352D01*
X8763414Y-10016434D01*
X8979030Y-9961968D01*
X9180974Y-9868808D01*
X9257762Y-9816959D01*
X9552527Y-9586661D01*
X9552527Y-9586660D01*
X8811085Y-8637657D01*
X8903715Y-8612838D01*
X9040532Y-8533846D01*
X9152243Y-8422135D01*
X9205347Y-8330155D01*
X9946532Y-9278829D01*
X9946533Y-9278829D01*
X10241284Y-9048545D01*
X10241296Y-9048536D01*
X10310192Y-8986568D01*
X10449433Y-8813164D01*
X10554446Y-8617124D01*
X10621646Y-8405134D01*
X10647375Y-8195584D01*
X10675083Y-8131443D01*
X10733069Y-8092464D01*
X10785563Y-8087619D01*
X10923064Y-8104501D01*
X11145017Y-8090583D01*
X11360633Y-8036117D01*
X11562577Y-7942957D01*
X11639365Y-7891108D01*
X11934130Y-7660810D01*
X11934130Y-7660809D01*
X11192688Y-6711806D01*
X11285318Y-6686987D01*
X11422135Y-6607995D01*
X11533846Y-6496284D01*
X11586950Y-6404304D01*
X12328135Y-7352978D01*
X12328136Y-7352978D01*
X12622887Y-7122694D01*
X12622899Y-7122685D01*
X12691795Y-7060717D01*
X12831036Y-6887313D01*
X12936049Y-6691273D01*
X13003249Y-6479284D01*
X13030352Y-6258538D01*
X13016434Y-6036585D01*
X12961968Y-5820969D01*
X12868808Y-5619025D01*
X12864654Y-5612873D01*
X12864653Y-5612872D01*
X12816951Y-5542228D01*
X12816946Y-5542221D01*
X12816340Y-5541445D01*
X16969145Y-5541445D01*
X16983069Y-5763492D01*
X17037558Y-5979201D01*
X17130754Y-6181222D01*
X17130758Y-6181228D01*
X17182633Y-6258051D01*
X17951082Y-7241622D01*
X17951093Y-7241635D01*
X18013076Y-7310545D01*
X18013077Y-7310546D01*
X18013081Y-7310550D01*
X18186558Y-7449854D01*
X18186561Y-7449856D01*
X18186563Y-7449857D01*
X18257100Y-7487641D01*
X18382678Y-7554909D01*
X18441667Y-7573608D01*
X18594757Y-7622137D01*
X18594761Y-7622137D01*
X18594763Y-7622138D01*
X18804358Y-7647872D01*
X18868496Y-7675580D01*
X18907475Y-7733566D01*
X18912320Y-7786060D01*
X18895498Y-7923064D01*
X18909416Y-8145017D01*
X18963882Y-8360633D01*
X19057040Y-8562574D01*
X19108899Y-8639374D01*
X19108904Y-8639381D01*
X19339188Y-8934130D01*
X19339189Y-8934130D01*
X20288193Y-8192688D01*
X20313013Y-8285318D01*
X20392005Y-8422135D01*
X20503716Y-8533846D01*
X20595694Y-8586950D01*
X19647020Y-9328135D01*
X19647020Y-9328136D01*
X19877305Y-9622887D01*
X19877314Y-9622899D01*
X19939282Y-9691795D01*
X20112686Y-9831036D01*
X20308726Y-9936049D01*
X20520715Y-10003249D01*
X20741461Y-10030352D01*
X20963414Y-10016434D01*
X21179030Y-9961968D01*
X21380974Y-9868808D01*
X21457762Y-9816959D01*
X21752527Y-9586661D01*
X21752527Y-9586660D01*
X21709811Y-9531986D01*
X24199001Y-9531986D01*
X24209494Y-9634697D01*
X24264641Y-9801119D01*
X24264643Y-9801124D01*
X24356684Y-9950345D01*
X24480654Y-10074315D01*
X24629875Y-10166356D01*
X24629880Y-10166358D01*
X24796302Y-10221505D01*
X24796309Y-10221506D01*
X24899019Y-10231999D01*
X25111499Y-10231999D01*
X25611500Y-10231999D01*
X25823972Y-10231999D01*
X25823986Y-10231998D01*
X25926697Y-10221505D01*
X26093119Y-10166358D01*
X26093124Y-10166356D01*
X26242345Y-10074315D01*
X26366315Y-9950345D01*
X26458356Y-9801124D01*
X26458358Y-9801119D01*
X26513505Y-9634697D01*
X26513506Y-9634690D01*
X26523999Y-9531986D01*
X26524000Y-9531973D01*
X26524000Y-8632000D01*
X25611500Y-8632000D01*
X25611500Y-10231999D01*
X25111499Y-10231999D01*
X25111500Y-10231998D01*
X25111500Y-8632000D01*
X24199001Y-8632000D01*
X24199001Y-9531986D01*
X21709811Y-9531986D01*
X21011085Y-8637657D01*
X21103715Y-8612838D01*
X21240532Y-8533846D01*
X21352243Y-8422135D01*
X21405347Y-8330155D01*
X22146532Y-9278829D01*
X22146533Y-9278829D01*
X22441284Y-9048545D01*
X22441296Y-9048536D01*
X22510192Y-8986568D01*
X22649433Y-8813164D01*
X22754447Y-8617123D01*
X22777890Y-8543169D01*
X22777890Y-8543168D01*
X22821646Y-8405135D01*
X22848749Y-8184389D01*
X22834831Y-7962436D01*
X22780365Y-7746820D01*
X22687207Y-7544879D01*
X22635348Y-7468079D01*
X22635343Y-7468072D01*
X22405058Y-7173322D01*
X22405057Y-7173322D01*
X21456054Y-7914763D01*
X21431235Y-7822136D01*
X21352243Y-7685319D01*
X21240532Y-7573608D01*
X21148552Y-7520502D01*
X22097226Y-6779317D01*
X22097226Y-6779316D01*
X21866942Y-6484566D01*
X21866933Y-6484554D01*
X21804965Y-6415658D01*
X21631561Y-6276417D01*
X21435521Y-6171404D01*
X21223532Y-6104204D01*
X21014476Y-6078536D01*
X20950335Y-6050828D01*
X20911357Y-5992841D01*
X20906512Y-5940353D01*
X20923401Y-5802807D01*
X20909477Y-5580757D01*
X20854988Y-5365048D01*
X20761790Y-5163023D01*
X20709915Y-5086200D01*
X20683529Y-5052427D01*
X19941463Y-4102625D01*
X19941452Y-4102612D01*
X19879469Y-4033702D01*
X19879467Y-4033700D01*
X19879465Y-4033698D01*
X19705988Y-3894394D01*
X19705984Y-3894392D01*
X19705982Y-3894390D01*
X19509869Y-3789339D01*
X19297788Y-3722110D01*
X19187369Y-3708553D01*
X19076956Y-3694996D01*
X19076952Y-3694996D01*
X19076951Y-3694996D01*
X18854904Y-3708920D01*
X18639195Y-3763409D01*
X18437174Y-3856605D01*
X18437168Y-3856609D01*
X18360345Y-3908484D01*
X17376774Y-4676933D01*
X17376761Y-4676944D01*
X17307851Y-4738927D01*
X17168539Y-4912414D01*
X17063488Y-5108527D01*
X17063488Y-5108528D01*
X16996259Y-5320608D01*
X16984152Y-5419219D01*
X16971070Y-5525768D01*
X16969145Y-5541445D01*
X12816340Y-5541445D01*
X12586661Y-5247471D01*
X12586660Y-5247471D01*
X11637657Y-5988912D01*
X11612838Y-5896285D01*
X11533846Y-5759468D01*
X11422135Y-5647757D01*
X11330153Y-5594651D01*
X12278829Y-4853466D01*
X12278829Y-4853465D01*
X12048545Y-4558715D01*
X12048536Y-4558703D01*
X11986568Y-4489807D01*
X11813164Y-4350566D01*
X11617124Y-4245553D01*
X11405135Y-4178353D01*
X11184389Y-4151250D01*
X10962436Y-4165168D01*
X10746820Y-4219634D01*
X10544879Y-4312792D01*
X10468079Y-4364651D01*
X10468072Y-4364656D01*
X10173322Y-4594940D01*
X10173322Y-4594941D01*
X10914765Y-5543945D01*
X10822136Y-5568765D01*
X10685319Y-5647757D01*
X10573608Y-5759468D01*
X10520502Y-5851448D01*
X9779316Y-4902772D01*
X9484552Y-5133068D01*
X9415659Y-5195034D01*
X9276417Y-5368438D01*
X9171404Y-5564478D01*
X9104204Y-5776467D01*
X9078475Y-5986019D01*
X9050767Y-6050160D01*
X8992780Y-6089138D01*
X8940288Y-6093983D01*
X8802787Y-6077101D01*
X8580833Y-6091019D01*
X8365217Y-6145485D01*
X8163276Y-6238643D01*
X8086476Y-6290502D01*
X8086469Y-6290507D01*
X7791719Y-6520791D01*
X7791719Y-6520792D01*
X8533162Y-7469796D01*
X8440533Y-7494616D01*
X8303716Y-7573608D01*
X8192005Y-7685319D01*
X8138899Y-7777299D01*
X7397713Y-6828623D01*
X7102949Y-7058919D01*
X7034056Y-7120885D01*
X6894814Y-7294289D01*
X6789801Y-7490329D01*
X6722601Y-7702318D01*
X6695498Y-7923064D01*
X400500Y-7923064D01*
X400500Y-3872857D01*
X3384500Y-3872857D01*
X3384500Y-4127143D01*
X3388318Y-4151250D01*
X3422849Y-4369272D01*
X3424279Y-4378297D01*
X3497127Y-4602500D01*
X3502859Y-4620139D01*
X3503632Y-4621657D01*
X3618301Y-4846706D01*
X3767766Y-5052427D01*
X3947573Y-5232234D01*
X4153294Y-5381699D01*
X4379863Y-5497142D01*
X4621703Y-5575721D01*
X4872857Y-5615500D01*
X4872858Y-5615500D01*
X5127142Y-5615500D01*
X5127143Y-5615500D01*
X5378297Y-5575721D01*
X5620137Y-5497142D01*
X5846706Y-5381699D01*
X6052427Y-5232234D01*
X6232234Y-5052427D01*
X6381699Y-4846706D01*
X6497142Y-4620137D01*
X6575721Y-4378297D01*
X6615500Y-4127143D01*
X6615500Y-3872857D01*
X6575721Y-3621703D01*
X6497142Y-3379863D01*
X6381699Y-3153294D01*
X6232234Y-2947573D01*
X6052427Y-2767766D01*
X5846706Y-2618301D01*
X5815769Y-2602538D01*
X5620139Y-2502859D01*
X5620138Y-2502858D01*
X5620137Y-2502858D01*
X5378297Y-2424279D01*
X5378295Y-2424278D01*
X5378294Y-2424278D01*
X5178164Y-2392581D01*
X5127143Y-2384500D01*
X4872857Y-2384500D01*
X4821836Y-2392581D01*
X4621706Y-2424278D01*
X4500783Y-2463568D01*
X4480851Y-2470045D01*
X4379860Y-2502859D01*
X4153293Y-2618301D01*
X3947570Y-2767768D01*
X3767768Y-2947570D01*
X3618301Y-3153293D01*
X3502859Y-3379860D01*
X3424278Y-3621706D01*
X3394214Y-3811523D01*
X3384500Y-3872857D01*
X400500Y-3872857D01*
X400500Y-524500D01*
X420185Y-457461D01*
X472989Y-411706D01*
X524500Y-400500D01*
X15181839Y-400500D01*
X15248878Y-420185D01*
G37*
%TD.AperFunction*%
%TD*%
%TA.AperFunction,NonConductor*%
G36*
X26909532Y-4241184D02*
G01*
X26955287Y-4293988D01*
X26965231Y-4363146D01*
X26952978Y-4401794D01*
X26861782Y-4580776D01*
X26861781Y-4580778D01*
X26861780Y-4580781D01*
X26849576Y-4618342D01*
X26798522Y-4775465D01*
X26766500Y-4977648D01*
X26766500Y-5182352D01*
X26766499Y-5182352D01*
X26772209Y-5218399D01*
X26763254Y-5287692D01*
X26718258Y-5341144D01*
X26651506Y-5361783D01*
X26584192Y-5343058D01*
X26562055Y-5325477D01*
X25669758Y-4433180D01*
X25636273Y-4371857D01*
X25641257Y-4302165D01*
X25683129Y-4246232D01*
X25748593Y-4221815D01*
X25757415Y-4221499D01*
X26842493Y-4221499D01*
X26909532Y-4241184D01*
G37*
%TD.AperFunction*%
%TA.AperFunction,NonConductor*%
G36*
X29446945Y-5548305D02*
G01*
X29490397Y-5603020D01*
X29499500Y-5649654D01*
X29499500Y-6548435D01*
X29479815Y-6615474D01*
X29427011Y-6661229D01*
X29357853Y-6671173D01*
X29310404Y-6653974D01*
X29218340Y-6597189D01*
X29218335Y-6597187D01*
X29218334Y-6597186D01*
X29051797Y-6542001D01*
X29051795Y-6542000D01*
X28949016Y-6531500D01*
X28591150Y-6531500D01*
X28524111Y-6511815D01*
X28478356Y-6459011D01*
X28468412Y-6389853D01*
X28497437Y-6326297D01*
X28552830Y-6289570D01*
X28566219Y-6285220D01*
X28748610Y-6192287D01*
X28841590Y-6124732D01*
X28914213Y-6071971D01*
X28914215Y-6071968D01*
X28914219Y-6071966D01*
X29058966Y-5927219D01*
X29058968Y-5927215D01*
X29058971Y-5927213D01*
X29179284Y-5761614D01*
X29179283Y-5761614D01*
X29179287Y-5761610D01*
X29265015Y-5593358D01*
X29312990Y-5542563D01*
X29380811Y-5525768D01*
X29446945Y-5548305D01*
G37*
%TD.AperFunction*%
%TA.AperFunction,NonConductor*%
G36*
X29492203Y-14610171D02*
G01*
X29509371Y-14628392D01*
X29512893Y-14632982D01*
X29542720Y-14671854D01*
X29728140Y-14857274D01*
X29728148Y-14857281D01*
X29728149Y-14857282D01*
X29764515Y-14885187D01*
X29936196Y-15016924D01*
X30163299Y-15148041D01*
X30163309Y-15148046D01*
X30266862Y-15190939D01*
X30321265Y-15234780D01*
X30343330Y-15301074D01*
X30326051Y-15368774D01*
X30274913Y-15416384D01*
X30219409Y-15429500D01*
X29411000Y-15429500D01*
X29343961Y-15409815D01*
X29298206Y-15357011D01*
X29287000Y-15305500D01*
X29287000Y-14703884D01*
X29306685Y-14636845D01*
X29359489Y-14591090D01*
X29428647Y-14581146D01*
X29492203Y-14610171D01*
G37*
%TD.AperFunction*%
%TA.AperFunction,NonConductor*%
G36*
X44918834Y-16315758D02*
G01*
X44974767Y-16357630D01*
X44999184Y-16423094D01*
X44999500Y-16431940D01*
X44999500Y-17374095D01*
X45005918Y-17466568D01*
X45018560Y-17520315D01*
X45014747Y-17590080D01*
X44985535Y-17636386D01*
X44573181Y-18048740D01*
X44511858Y-18082225D01*
X44442166Y-18077241D01*
X44386233Y-18035369D01*
X44361816Y-17969905D01*
X44361500Y-17961059D01*
X44361500Y-16821940D01*
X44381185Y-16754901D01*
X44397819Y-16734259D01*
X44787819Y-16344259D01*
X44849142Y-16310774D01*
X44918834Y-16315758D01*
G37*
%TD.AperFunction*%
%TA.AperFunction,NonConductor*%
G36*
X55106099Y-11742185D02*
G01*
X55126741Y-11758819D01*
X55963181Y-12595259D01*
X55996666Y-12656582D01*
X55999500Y-12682940D01*
X55999500Y-13874095D01*
X56005918Y-13966561D01*
X56005920Y-13966577D01*
X56056854Y-14183135D01*
X56056860Y-14183151D01*
X56146721Y-14386668D01*
X56272457Y-14570220D01*
X56272462Y-14570226D01*
X56429773Y-14727537D01*
X56429779Y-14727542D01*
X56613329Y-14853277D01*
X56613330Y-14853277D01*
X56613331Y-14853278D01*
X56688720Y-14886566D01*
X56742097Y-14931652D01*
X56762624Y-14998438D01*
X56743786Y-15065720D01*
X56691562Y-15112136D01*
X56688720Y-15113434D01*
X56613331Y-15146721D01*
X56429779Y-15272457D01*
X56429773Y-15272462D01*
X56272462Y-15429773D01*
X56272457Y-15429779D01*
X56146721Y-15613331D01*
X56056860Y-15816848D01*
X56056854Y-15816864D01*
X56005920Y-16033422D01*
X56005918Y-16033438D01*
X55999500Y-16125904D01*
X55999500Y-17374095D01*
X56005918Y-17466561D01*
X56005920Y-17466577D01*
X56056854Y-17683135D01*
X56056860Y-17683151D01*
X56146721Y-17886668D01*
X56146722Y-17886670D01*
X56146723Y-17886671D01*
X56170938Y-17922021D01*
X56175324Y-17928423D01*
X56196970Y-17994855D01*
X56179265Y-18062444D01*
X56127829Y-18109731D01*
X56073024Y-18122500D01*
X54926976Y-18122500D01*
X54859937Y-18102815D01*
X54814182Y-18050011D01*
X54804238Y-17980853D01*
X54824676Y-17928423D01*
X54828117Y-17923400D01*
X54853277Y-17886671D01*
X54943143Y-17683143D01*
X54954936Y-17633001D01*
X54994079Y-17466577D01*
X54994079Y-17466573D01*
X54994081Y-17466567D01*
X55000500Y-17374092D01*
X55000500Y-16125908D01*
X54999290Y-16108482D01*
X54995690Y-16056609D01*
X54994081Y-16033433D01*
X54994079Y-16033427D01*
X54994079Y-16033422D01*
X54943145Y-15816864D01*
X54943144Y-15816861D01*
X54943143Y-15816857D01*
X54853277Y-15613329D01*
X54727542Y-15429779D01*
X54727537Y-15429773D01*
X54570226Y-15272462D01*
X54570220Y-15272457D01*
X54386672Y-15146724D01*
X54386673Y-15146724D01*
X54386671Y-15146723D01*
X54311277Y-15113433D01*
X54257903Y-15068349D01*
X54237375Y-15001563D01*
X54256213Y-14934280D01*
X54308436Y-14887864D01*
X54311235Y-14886585D01*
X54386671Y-14853277D01*
X54570221Y-14727542D01*
X54727542Y-14570221D01*
X54853277Y-14386671D01*
X54943143Y-14183143D01*
X54943263Y-14182633D01*
X54994079Y-13966577D01*
X54994079Y-13966573D01*
X54994081Y-13966567D01*
X55000500Y-13874092D01*
X55000500Y-12625908D01*
X54994081Y-12533433D01*
X54994079Y-12533427D01*
X54994079Y-12533422D01*
X54943145Y-12316864D01*
X54943144Y-12316861D01*
X54943143Y-12316857D01*
X54853277Y-12113329D01*
X54727542Y-11929779D01*
X54724169Y-11925717D01*
X54717610Y-11910517D01*
X54706773Y-11898011D01*
X54704054Y-11879103D01*
X54696486Y-11861565D01*
X54699184Y-11845236D01*
X54696829Y-11828853D01*
X54704764Y-11811477D01*
X54707879Y-11792631D01*
X54718978Y-11780352D01*
X54725854Y-11765297D01*
X54741924Y-11754969D01*
X54754733Y-11740800D01*
X54771208Y-11736149D01*
X54784632Y-11727523D01*
X54819567Y-11722500D01*
X55039060Y-11722500D01*
X55106099Y-11742185D01*
G37*
%TD.AperFunction*%
%TA.AperFunction,NonConductor*%
G36*
X51747472Y-11742185D02*
G01*
X51793227Y-11794989D01*
X51803171Y-11864147D01*
X51775831Y-11925717D01*
X51772457Y-11929779D01*
X51646721Y-12113331D01*
X51556860Y-12316848D01*
X51556854Y-12316864D01*
X51505920Y-12533422D01*
X51505918Y-12533438D01*
X51499500Y-12625904D01*
X51499500Y-13874095D01*
X51505918Y-13966561D01*
X51505920Y-13966577D01*
X51556854Y-14183135D01*
X51556860Y-14183151D01*
X51646721Y-14386668D01*
X51772457Y-14570220D01*
X51772462Y-14570226D01*
X51929773Y-14727537D01*
X51929779Y-14727542D01*
X52113329Y-14853277D01*
X52113330Y-14853277D01*
X52113331Y-14853278D01*
X52188720Y-14886566D01*
X52242097Y-14931652D01*
X52262624Y-14998438D01*
X52243786Y-15065720D01*
X52191562Y-15112136D01*
X52188720Y-15113434D01*
X52113331Y-15146721D01*
X51929779Y-15272457D01*
X51929773Y-15272462D01*
X51772462Y-15429773D01*
X51772457Y-15429779D01*
X51646721Y-15613331D01*
X51556860Y-15816848D01*
X51556854Y-15816864D01*
X51505920Y-16033422D01*
X51505918Y-16033438D01*
X51499500Y-16125904D01*
X51499500Y-17374095D01*
X51505918Y-17466561D01*
X51505920Y-17466577D01*
X51556854Y-17683135D01*
X51556860Y-17683151D01*
X51646721Y-17886668D01*
X51646722Y-17886670D01*
X51646723Y-17886671D01*
X51670938Y-17922021D01*
X51675324Y-17928423D01*
X51696970Y-17994855D01*
X51679265Y-18062444D01*
X51627829Y-18109731D01*
X51573024Y-18122500D01*
X48426976Y-18122500D01*
X48359937Y-18102815D01*
X48314182Y-18050011D01*
X48304238Y-17980853D01*
X48324676Y-17928423D01*
X48328117Y-17923400D01*
X48353277Y-17886671D01*
X48443143Y-17683143D01*
X48454936Y-17633001D01*
X48494079Y-17466577D01*
X48494079Y-17466573D01*
X48494081Y-17466567D01*
X48500500Y-17374092D01*
X48500500Y-16125908D01*
X48499290Y-16108482D01*
X48495690Y-16056609D01*
X48494081Y-16033433D01*
X48494079Y-16033427D01*
X48494079Y-16033422D01*
X48443145Y-15816864D01*
X48443144Y-15816861D01*
X48443143Y-15816857D01*
X48353277Y-15613329D01*
X48227542Y-15429779D01*
X48227537Y-15429773D01*
X48070226Y-15272462D01*
X48070220Y-15272457D01*
X47886672Y-15146724D01*
X47886673Y-15146724D01*
X47886671Y-15146723D01*
X47811277Y-15113433D01*
X47757903Y-15068349D01*
X47737375Y-15001563D01*
X47756213Y-14934280D01*
X47808436Y-14887864D01*
X47811235Y-14886585D01*
X47886671Y-14853277D01*
X48070221Y-14727542D01*
X48227542Y-14570221D01*
X48353277Y-14386671D01*
X48443143Y-14183143D01*
X48443263Y-14182633D01*
X48494079Y-13966577D01*
X48494079Y-13966573D01*
X48494081Y-13966567D01*
X48500500Y-13874092D01*
X48500500Y-12625908D01*
X48494081Y-12533433D01*
X48494079Y-12533427D01*
X48494079Y-12533422D01*
X48443145Y-12316864D01*
X48443144Y-12316861D01*
X48443143Y-12316857D01*
X48353277Y-12113329D01*
X48227542Y-11929779D01*
X48224169Y-11925717D01*
X48196486Y-11861565D01*
X48207879Y-11792631D01*
X48254733Y-11740800D01*
X48319567Y-11722500D01*
X51680433Y-11722500D01*
X51747472Y-11742185D01*
G37*
%TD.AperFunction*%
%TA.AperFunction,NonConductor*%
G36*
X22759669Y-17141037D02*
G01*
X22810083Y-17189413D01*
X22826500Y-17251072D01*
X22826500Y-17366059D01*
X22806815Y-17433098D01*
X22790181Y-17453740D01*
X22030741Y-18213181D01*
X21969418Y-18246666D01*
X21943060Y-18249500D01*
X21033267Y-18249500D01*
X20966228Y-18229815D01*
X20920473Y-18177011D01*
X20910191Y-18110391D01*
X20921961Y-18014532D01*
X20949666Y-17950397D01*
X21007652Y-17911418D01*
X21060142Y-17906573D01*
X21197193Y-17923401D01*
X21419243Y-17909477D01*
X21634952Y-17854988D01*
X21836977Y-17761790D01*
X21913800Y-17709915D01*
X22626159Y-17153358D01*
X22691105Y-17127597D01*
X22759669Y-17141037D01*
G37*
%TD.AperFunction*%
%TA.AperFunction,NonConductor*%
G36*
X8985961Y-17922021D02*
G01*
X9050100Y-17949729D01*
X9089078Y-18007716D01*
X9093923Y-18060209D01*
X9077101Y-18197213D01*
X9091019Y-18419166D01*
X9145485Y-18634782D01*
X9238643Y-18836723D01*
X9290502Y-18913523D01*
X9290507Y-18913530D01*
X9545856Y-19240361D01*
X9571618Y-19305308D01*
X9558178Y-19373872D01*
X9509802Y-19424286D01*
X9441850Y-19440543D01*
X9375896Y-19417482D01*
X9360462Y-19404384D01*
X8710819Y-18754741D01*
X8677334Y-18693418D01*
X8674500Y-18667060D01*
X8674500Y-18023935D01*
X8694185Y-17956896D01*
X8746989Y-17911141D01*
X8813607Y-17900859D01*
X8985961Y-17922021D01*
G37*
%TD.AperFunction*%
%TA.AperFunction,NonConductor*%
G36*
X39536219Y-20243184D02*
G01*
X39581974Y-20295988D01*
X39591918Y-20365146D01*
X39562893Y-20428702D01*
X39556861Y-20435180D01*
X38731181Y-21260860D01*
X38669858Y-21294345D01*
X38600166Y-21289361D01*
X38544233Y-21247489D01*
X38519816Y-21182025D01*
X38519500Y-21173179D01*
X38519500Y-20743939D01*
X38539185Y-20676900D01*
X38555815Y-20656262D01*
X38952259Y-20259817D01*
X39013582Y-20226333D01*
X39039940Y-20223499D01*
X39469180Y-20223499D01*
X39536219Y-20243184D01*
G37*
%TD.AperFunction*%
%TA.AperFunction,NonConductor*%
G36*
X22080519Y-19870185D02*
G01*
X22126274Y-19922989D01*
X22136218Y-19992147D01*
X22107193Y-20055703D01*
X22101161Y-20062181D01*
X20726888Y-21436453D01*
X20696545Y-21481865D01*
X20642932Y-21526669D01*
X20573607Y-21535376D01*
X20520560Y-21513292D01*
X20493616Y-21493717D01*
X20493608Y-21493712D01*
X20311223Y-21400781D01*
X20116535Y-21337523D01*
X20032137Y-21324155D01*
X19969003Y-21294225D01*
X19932072Y-21234913D01*
X19933070Y-21165051D01*
X19963853Y-21114003D01*
X21191037Y-19886818D01*
X21252360Y-19853334D01*
X21278718Y-19850500D01*
X22013480Y-19850500D01*
X22080519Y-19870185D01*
G37*
%TD.AperFunction*%
%TA.AperFunction,NonConductor*%
G36*
X38327835Y-22596758D02*
G01*
X38383768Y-22638630D01*
X38408184Y-22704095D01*
X38408500Y-22712939D01*
X38408500Y-23007060D01*
X38402261Y-23028305D01*
X38400682Y-23050392D01*
X38392609Y-23061175D01*
X38388815Y-23074099D01*
X38372082Y-23088597D01*
X38358812Y-23106326D01*
X38346189Y-23111034D01*
X38336011Y-23119854D01*
X38314095Y-23123005D01*
X38293348Y-23130744D01*
X38280185Y-23127880D01*
X38266853Y-23129798D01*
X38246710Y-23120599D01*
X38225075Y-23115893D01*
X38207345Y-23102622D01*
X38203297Y-23100773D01*
X38196828Y-23094751D01*
X38166098Y-23064021D01*
X38132615Y-23002702D01*
X38130165Y-22966594D01*
X38130498Y-22962358D01*
X38130500Y-22962352D01*
X38130500Y-22757648D01*
X38130499Y-22757644D01*
X38130165Y-22753404D01*
X38130261Y-22752942D01*
X38130097Y-22752501D01*
X38137433Y-22718780D01*
X38144519Y-22685024D01*
X38144883Y-22684533D01*
X38144950Y-22684228D01*
X38166094Y-22655982D01*
X38196822Y-22625254D01*
X38258144Y-22591772D01*
X38327835Y-22596758D01*
G37*
%TD.AperFunction*%
%TA.AperFunction,NonConductor*%
G36*
X18495703Y-22794865D02*
G01*
X18533477Y-22853643D01*
X18536973Y-22869180D01*
X18543522Y-22910534D01*
X18606781Y-23105223D01*
X18648884Y-23187853D01*
X18681682Y-23252223D01*
X18699715Y-23287613D01*
X18820028Y-23453213D01*
X18820034Y-23453219D01*
X18964781Y-23597966D01*
X18964782Y-23597967D01*
X18964781Y-23597967D01*
X18987660Y-23614588D01*
X19000290Y-23623765D01*
X19042957Y-23679093D01*
X19048938Y-23748707D01*
X19027725Y-23796969D01*
X18917715Y-23948386D01*
X18870485Y-24041080D01*
X18822510Y-24091876D01*
X18754689Y-24108671D01*
X18688554Y-24086134D01*
X18649515Y-24041080D01*
X18602419Y-23948650D01*
X18602287Y-23948390D01*
X18594556Y-23937749D01*
X18481971Y-23782786D01*
X18337215Y-23638030D01*
X18333954Y-23635244D01*
X18295770Y-23576731D01*
X18290500Y-23540966D01*
X18290500Y-22888578D01*
X18310185Y-22821539D01*
X18362989Y-22775784D01*
X18432147Y-22765840D01*
X18495703Y-22794865D01*
G37*
%TD.AperFunction*%
%TA.AperFunction,NonConductor*%
G36*
X56931445Y-26573865D02*
G01*
X56970483Y-26618917D01*
X56971905Y-26621706D01*
X57017715Y-26711614D01*
X57138028Y-26877213D01*
X57173134Y-26912319D01*
X57206619Y-26973642D01*
X57201635Y-27043334D01*
X57173134Y-27087681D01*
X57138032Y-27122782D01*
X57138028Y-27122786D01*
X57017715Y-27288385D01*
X57010883Y-27301795D01*
X57000433Y-27312859D01*
X56994111Y-27326703D01*
X56976931Y-27337743D01*
X56962909Y-27352591D01*
X56947227Y-27356832D01*
X56935333Y-27364477D01*
X56900398Y-27369500D01*
X56819602Y-27369500D01*
X56752563Y-27349815D01*
X56709117Y-27301795D01*
X56702287Y-27288390D01*
X56702285Y-27288387D01*
X56702284Y-27288385D01*
X56581971Y-27122786D01*
X56546866Y-27087681D01*
X56513381Y-27026358D01*
X56518365Y-26956666D01*
X56546866Y-26912319D01*
X56547223Y-26911962D01*
X56581966Y-26877219D01*
X56581968Y-26877215D01*
X56581971Y-26877213D01*
X56702284Y-26711614D01*
X56702286Y-26711611D01*
X56702287Y-26711610D01*
X56749516Y-26618917D01*
X56797489Y-26568123D01*
X56865310Y-26551328D01*
X56931445Y-26573865D01*
G37*
%TD.AperFunction*%
%TA.AperFunction,NonConductor*%
G36*
X49311164Y-26573316D02*
G01*
X49350203Y-26618369D01*
X49397713Y-26711611D01*
X49518028Y-26877213D01*
X49553134Y-26912319D01*
X49586619Y-26973642D01*
X49581635Y-27043334D01*
X49553134Y-27087681D01*
X49518032Y-27122782D01*
X49518028Y-27122786D01*
X49397715Y-27288386D01*
X49350485Y-27381080D01*
X49302510Y-27431876D01*
X49234689Y-27448671D01*
X49168554Y-27426134D01*
X49129515Y-27381080D01*
X49114999Y-27352591D01*
X49082287Y-27288390D01*
X49043657Y-27235220D01*
X48961971Y-27122786D01*
X48926512Y-27087327D01*
X48893027Y-27026004D01*
X48898011Y-26956312D01*
X48926514Y-26911962D01*
X48961583Y-26876894D01*
X49081861Y-26711347D01*
X49129234Y-26618371D01*
X49177208Y-26567575D01*
X49245028Y-26550779D01*
X49311164Y-26573316D01*
G37*
%TD.AperFunction*%
%TA.AperFunction,NonConductor*%
G36*
X28991164Y-26573316D02*
G01*
X29030203Y-26618369D01*
X29077713Y-26711611D01*
X29198028Y-26877213D01*
X29233134Y-26912319D01*
X29266619Y-26973642D01*
X29261635Y-27043334D01*
X29233134Y-27087681D01*
X29198032Y-27122782D01*
X29198028Y-27122786D01*
X29077715Y-27288386D01*
X29030485Y-27381080D01*
X28982510Y-27431876D01*
X28914689Y-27448671D01*
X28848554Y-27426134D01*
X28809515Y-27381080D01*
X28794999Y-27352591D01*
X28762287Y-27288390D01*
X28723657Y-27235220D01*
X28641971Y-27122786D01*
X28606512Y-27087327D01*
X28573027Y-27026004D01*
X28578011Y-26956312D01*
X28606514Y-26911962D01*
X28641583Y-26876894D01*
X28761861Y-26711347D01*
X28809234Y-26618371D01*
X28857208Y-26567575D01*
X28925028Y-26550779D01*
X28991164Y-26573316D01*
G37*
%TD.AperFunction*%
%TA.AperFunction,NonConductor*%
G36*
X13751445Y-26573865D02*
G01*
X13790483Y-26618917D01*
X13791905Y-26621706D01*
X13837715Y-26711614D01*
X13958028Y-26877213D01*
X13993134Y-26912319D01*
X14026619Y-26973642D01*
X14021635Y-27043334D01*
X13993134Y-27087681D01*
X13958032Y-27122782D01*
X13958028Y-27122786D01*
X13837715Y-27288386D01*
X13790485Y-27381080D01*
X13742510Y-27431876D01*
X13674689Y-27448671D01*
X13608554Y-27426134D01*
X13569515Y-27381080D01*
X13554999Y-27352591D01*
X13522287Y-27288390D01*
X13483657Y-27235220D01*
X13401971Y-27122786D01*
X13366866Y-27087681D01*
X13333381Y-27026358D01*
X13338365Y-26956666D01*
X13366866Y-26912319D01*
X13367223Y-26911962D01*
X13401966Y-26877219D01*
X13401968Y-26877215D01*
X13401971Y-26877213D01*
X13522284Y-26711614D01*
X13522286Y-26711611D01*
X13522287Y-26711610D01*
X13569516Y-26618917D01*
X13617489Y-26568123D01*
X13685310Y-26551328D01*
X13751445Y-26573865D01*
G37*
%TD.AperFunction*%
%TA.AperFunction,NonConductor*%
G36*
X11211164Y-26573316D02*
G01*
X11250203Y-26618369D01*
X11297713Y-26711611D01*
X11418028Y-26877213D01*
X11453134Y-26912319D01*
X11486619Y-26973642D01*
X11481635Y-27043334D01*
X11453134Y-27087681D01*
X11418032Y-27122782D01*
X11418028Y-27122786D01*
X11297715Y-27288386D01*
X11250485Y-27381080D01*
X11202510Y-27431876D01*
X11134689Y-27448671D01*
X11068554Y-27426134D01*
X11029515Y-27381080D01*
X11014999Y-27352591D01*
X10982287Y-27288390D01*
X10943657Y-27235220D01*
X10861971Y-27122786D01*
X10826512Y-27087327D01*
X10793027Y-27026004D01*
X10798011Y-26956312D01*
X10826514Y-26911962D01*
X10861583Y-26876894D01*
X10981861Y-26711347D01*
X11029234Y-26618371D01*
X11077208Y-26567575D01*
X11145028Y-26550779D01*
X11211164Y-26573316D01*
G37*
%TD.AperFunction*%
%TA.AperFunction,NonConductor*%
G36*
X54391445Y-26573865D02*
G01*
X54430483Y-26618917D01*
X54431905Y-26621706D01*
X54477715Y-26711614D01*
X54598028Y-26877213D01*
X54633134Y-26912319D01*
X54666619Y-26973642D01*
X54661635Y-27043334D01*
X54633134Y-27087681D01*
X54598032Y-27122782D01*
X54598028Y-27122786D01*
X54477713Y-27288388D01*
X54430203Y-27381630D01*
X54382228Y-27432426D01*
X54314407Y-27449220D01*
X54248272Y-27426682D01*
X54209234Y-27381628D01*
X54161861Y-27288652D01*
X54041582Y-27123105D01*
X54041582Y-27123104D01*
X54006512Y-27088034D01*
X53973027Y-27026711D01*
X53978011Y-26957019D01*
X54006511Y-26912673D01*
X54041966Y-26877219D01*
X54041968Y-26877215D01*
X54041971Y-26877213D01*
X54162284Y-26711614D01*
X54162286Y-26711611D01*
X54162287Y-26711610D01*
X54209516Y-26618917D01*
X54257489Y-26568123D01*
X54325310Y-26551328D01*
X54391445Y-26573865D01*
G37*
%TD.AperFunction*%
%TA.AperFunction,NonConductor*%
G36*
X51851445Y-26573865D02*
G01*
X51890483Y-26618917D01*
X51891905Y-26621706D01*
X51937715Y-26711614D01*
X52058028Y-26877213D01*
X52093487Y-26912672D01*
X52126972Y-26973995D01*
X52121988Y-27043687D01*
X52093488Y-27088033D01*
X52058418Y-27123103D01*
X52058417Y-27123105D01*
X51938140Y-27288650D01*
X51890765Y-27381629D01*
X51842790Y-27432425D01*
X51774969Y-27449220D01*
X51708834Y-27426682D01*
X51669795Y-27381629D01*
X51653585Y-27349815D01*
X51622287Y-27288390D01*
X51583657Y-27235220D01*
X51501971Y-27122786D01*
X51466866Y-27087681D01*
X51433381Y-27026358D01*
X51438365Y-26956666D01*
X51466866Y-26912319D01*
X51467223Y-26911962D01*
X51501966Y-26877219D01*
X51501968Y-26877215D01*
X51501971Y-26877213D01*
X51622284Y-26711614D01*
X51622286Y-26711611D01*
X51622287Y-26711610D01*
X51669516Y-26618917D01*
X51717489Y-26568123D01*
X51785310Y-26551328D01*
X51851445Y-26573865D01*
G37*
%TD.AperFunction*%
%TA.AperFunction,NonConductor*%
G36*
X44231445Y-26573865D02*
G01*
X44270483Y-26618917D01*
X44271905Y-26621706D01*
X44317715Y-26711614D01*
X44438028Y-26877213D01*
X44473134Y-26912319D01*
X44506619Y-26973642D01*
X44501635Y-27043334D01*
X44473134Y-27087681D01*
X44438032Y-27122782D01*
X44438028Y-27122786D01*
X44317713Y-27288388D01*
X44270203Y-27381630D01*
X44222228Y-27432426D01*
X44154407Y-27449220D01*
X44088272Y-27426682D01*
X44049234Y-27381628D01*
X44001861Y-27288652D01*
X43881582Y-27123105D01*
X43881582Y-27123104D01*
X43846512Y-27088034D01*
X43813027Y-27026711D01*
X43818011Y-26957019D01*
X43846511Y-26912673D01*
X43881966Y-26877219D01*
X43881968Y-26877215D01*
X43881971Y-26877213D01*
X44002284Y-26711614D01*
X44002286Y-26711611D01*
X44002287Y-26711610D01*
X44049516Y-26618917D01*
X44097489Y-26568123D01*
X44165310Y-26551328D01*
X44231445Y-26573865D01*
G37*
%TD.AperFunction*%
%TA.AperFunction,NonConductor*%
G36*
X36611445Y-26573865D02*
G01*
X36650483Y-26618917D01*
X36651905Y-26621706D01*
X36697715Y-26711614D01*
X36818028Y-26877213D01*
X36853134Y-26912319D01*
X36886619Y-26973642D01*
X36881635Y-27043334D01*
X36853134Y-27087681D01*
X36818032Y-27122782D01*
X36818028Y-27122786D01*
X36697713Y-27288388D01*
X36650203Y-27381630D01*
X36602228Y-27432426D01*
X36534407Y-27449220D01*
X36468272Y-27426682D01*
X36429234Y-27381628D01*
X36381861Y-27288652D01*
X36261582Y-27123105D01*
X36261582Y-27123104D01*
X36226512Y-27088034D01*
X36193027Y-27026711D01*
X36198011Y-26957019D01*
X36226511Y-26912673D01*
X36261966Y-26877219D01*
X36261968Y-26877215D01*
X36261971Y-26877213D01*
X36382284Y-26711614D01*
X36382286Y-26711611D01*
X36382287Y-26711610D01*
X36429516Y-26618917D01*
X36477489Y-26568123D01*
X36545310Y-26551328D01*
X36611445Y-26573865D01*
G37*
%TD.AperFunction*%
%TA.AperFunction,NonConductor*%
G36*
X34071445Y-26573865D02*
G01*
X34110483Y-26618917D01*
X34111905Y-26621706D01*
X34157715Y-26711614D01*
X34278028Y-26877213D01*
X34313487Y-26912672D01*
X34346972Y-26973995D01*
X34341988Y-27043687D01*
X34313488Y-27088033D01*
X34278418Y-27123103D01*
X34278417Y-27123105D01*
X34158140Y-27288650D01*
X34110765Y-27381629D01*
X34062790Y-27432425D01*
X33994969Y-27449220D01*
X33928834Y-27426682D01*
X33889795Y-27381629D01*
X33873585Y-27349815D01*
X33842287Y-27288390D01*
X33803657Y-27235220D01*
X33721971Y-27122786D01*
X33686866Y-27087681D01*
X33653381Y-27026358D01*
X33658365Y-26956666D01*
X33686866Y-26912319D01*
X33687223Y-26911962D01*
X33721966Y-26877219D01*
X33721968Y-26877215D01*
X33721971Y-26877213D01*
X33842284Y-26711614D01*
X33842286Y-26711611D01*
X33842287Y-26711610D01*
X33889516Y-26618917D01*
X33937489Y-26568123D01*
X34005310Y-26551328D01*
X34071445Y-26573865D01*
G37*
%TD.AperFunction*%
%TA.AperFunction,NonConductor*%
G36*
X23911445Y-26573865D02*
G01*
X23950483Y-26618917D01*
X23951905Y-26621706D01*
X23997715Y-26711614D01*
X24118028Y-26877213D01*
X24153134Y-26912319D01*
X24186619Y-26973642D01*
X24181635Y-27043334D01*
X24153134Y-27087681D01*
X24118032Y-27122782D01*
X24118028Y-27122786D01*
X23997713Y-27288388D01*
X23950203Y-27381630D01*
X23902228Y-27432426D01*
X23834407Y-27449220D01*
X23768272Y-27426682D01*
X23729234Y-27381628D01*
X23681861Y-27288652D01*
X23561582Y-27123105D01*
X23561582Y-27123104D01*
X23526512Y-27088034D01*
X23493027Y-27026711D01*
X23498011Y-26957019D01*
X23526511Y-26912673D01*
X23561966Y-26877219D01*
X23561968Y-26877215D01*
X23561971Y-26877213D01*
X23682284Y-26711614D01*
X23682286Y-26711611D01*
X23682287Y-26711610D01*
X23729516Y-26618917D01*
X23777489Y-26568123D01*
X23845310Y-26551328D01*
X23911445Y-26573865D01*
G37*
%TD.AperFunction*%
%TA.AperFunction,NonConductor*%
G36*
X18831445Y-26573865D02*
G01*
X18870483Y-26618917D01*
X18871905Y-26621706D01*
X18917715Y-26711614D01*
X19038028Y-26877213D01*
X19073134Y-26912319D01*
X19106619Y-26973642D01*
X19101635Y-27043334D01*
X19073134Y-27087681D01*
X19038032Y-27122782D01*
X19038028Y-27122786D01*
X18917713Y-27288388D01*
X18870203Y-27381630D01*
X18822228Y-27432426D01*
X18754407Y-27449220D01*
X18688272Y-27426682D01*
X18649234Y-27381628D01*
X18601861Y-27288652D01*
X18481582Y-27123105D01*
X18481582Y-27123104D01*
X18446512Y-27088034D01*
X18413027Y-27026711D01*
X18418011Y-26957019D01*
X18446511Y-26912673D01*
X18481966Y-26877219D01*
X18481968Y-26877215D01*
X18481971Y-26877213D01*
X18602284Y-26711614D01*
X18602286Y-26711611D01*
X18602287Y-26711610D01*
X18649516Y-26618917D01*
X18697489Y-26568123D01*
X18765310Y-26551328D01*
X18831445Y-26573865D01*
G37*
%TD.AperFunction*%
%TA.AperFunction,NonConductor*%
G36*
X16291445Y-26573865D02*
G01*
X16330483Y-26618917D01*
X16331905Y-26621706D01*
X16377715Y-26711614D01*
X16498028Y-26877213D01*
X16533487Y-26912672D01*
X16566972Y-26973995D01*
X16561988Y-27043687D01*
X16533488Y-27088033D01*
X16498418Y-27123103D01*
X16498417Y-27123105D01*
X16378140Y-27288650D01*
X16330765Y-27381629D01*
X16282790Y-27432425D01*
X16214969Y-27449220D01*
X16148834Y-27426682D01*
X16109795Y-27381629D01*
X16093585Y-27349815D01*
X16062287Y-27288390D01*
X16023657Y-27235220D01*
X15941971Y-27122786D01*
X15906866Y-27087681D01*
X15873381Y-27026358D01*
X15878365Y-26956666D01*
X15906866Y-26912319D01*
X15907223Y-26911962D01*
X15941966Y-26877219D01*
X15941968Y-26877215D01*
X15941971Y-26877213D01*
X16062284Y-26711614D01*
X16062286Y-26711611D01*
X16062287Y-26711610D01*
X16109516Y-26618917D01*
X16157489Y-26568123D01*
X16225310Y-26551328D01*
X16291445Y-26573865D01*
G37*
%TD.AperFunction*%
M02*
