%TF.GenerationSoftware,KiCad,Pcbnew,9.0.7*%
%TF.CreationDate,2026-04-09T16:03:05+02:00*%
%TF.ProjectId,ZeroTiny,5a65726f-5469-46e7-992e-6b696361645f,rev?*%
%TF.SameCoordinates,Original*%
%TF.FileFunction,Copper,L2,Bot*%
%TF.FilePolarity,Positive*%
%FSLAX46Y46*%
G04 Gerber Fmt 4.6, Leading zero omitted, Abs format (unit mm)*
G04 Created by KiCad (PCBNEW 9.0.7) date 2026-04-09 16:03:05*
%MOMM*%
%LPD*%
G01*
G04 APERTURE LIST*
G04 Aperture macros list*
%AMRoundRect*
0 Rectangle with rounded corners*
0 $1 Rounding radius*
0 $2 $3 $4 $5 $6 $7 $8 $9 X,Y pos of 4 corners*
0 Add a 4 corners polygon primitive as box body*
4,1,4,$2,$3,$4,$5,$6,$7,$8,$9,$2,$3,0*
0 Add four circle primitives for the rounded corners*
1,1,$1+$1,$2,$3*
1,1,$1+$1,$4,$5*
1,1,$1+$1,$6,$7*
1,1,$1+$1,$8,$9*
0 Add four rect primitives between the rounded corners*
20,1,$1+$1,$2,$3,$4,$5,0*
20,1,$1+$1,$4,$5,$6,$7,0*
20,1,$1+$1,$6,$7,$8,$9,0*
20,1,$1+$1,$8,$9,$2,$3,0*%
G04 Aperture macros list end*
%ADD10C,0.250000*%
%TA.AperFunction,ComponentPad*%
%ADD11RoundRect,0.700000X0.772020X-0.094792X0.094792X0.772020X-0.772020X0.094792X-0.094792X-0.772020X0*%
%TD*%
%TA.AperFunction,ComponentPad*%
%ADD12O,2.500000X4.500000*%
%TD*%
%TA.AperFunction,ComponentPad*%
%ADD13O,4.500000X3.000000*%
%TD*%
%TA.AperFunction,ComponentPad*%
%ADD14O,3.000000X4.500000*%
%TD*%
%TA.AperFunction,ComponentPad*%
%ADD15RoundRect,0.700000X-0.550000X0.550000X-0.550000X-0.550000X0.550000X-0.550000X0.550000X0.550000X0*%
%TD*%
%TA.AperFunction,ComponentPad*%
%ADD16RoundRect,0.700000X0.550000X-0.550000X0.550000X0.550000X-0.550000X0.550000X-0.550000X-0.550000X0*%
%TD*%
%TA.AperFunction,ComponentPad*%
%ADD17RoundRect,0.700000X-0.094792X-0.772020X0.772020X-0.094792X0.094792X0.772020X-0.772020X0.094792X0*%
%TD*%
%TA.AperFunction,ComponentPad*%
%ADD18O,1.600000X3.000000*%
%TD*%
%TA.AperFunction,ViaPad*%
%ADD19C,1.600000*%
%TD*%
%TA.AperFunction,Conductor*%
%ADD20C,0.800000*%
%TD*%
%TA.AperFunction,Conductor*%
%ADD21C,0.600000*%
%TD*%
%TA.AperFunction,Conductor*%
%ADD22C,1.000000*%
%TD*%
G04 APERTURE END LIST*
D10*
G36*
X4021000Y-17969300D02*
G01*
X4018051Y-18145320D01*
X4014161Y-18213177D01*
X4004480Y-18265682D01*
X3988473Y-18310495D01*
X3966533Y-18348793D01*
X3938082Y-18382597D01*
X3903785Y-18411447D01*
X3862974Y-18435560D01*
X3818916Y-18453343D01*
X3774623Y-18463829D01*
X3729618Y-18467311D01*
X3673245Y-18461668D01*
X3623202Y-18445261D01*
X3578126Y-18418096D01*
X3540151Y-18381612D01*
X3509744Y-18335326D01*
X3486901Y-18277413D01*
X3463856Y-18317905D01*
X3434581Y-18351959D01*
X3398608Y-18380239D01*
X3357996Y-18401335D01*
X3315126Y-18413909D01*
X3269220Y-18418158D01*
X3226715Y-18414643D01*
X3187828Y-18404360D01*
X3151861Y-18387383D01*
X3104273Y-18352424D01*
X3068025Y-18310569D01*
X3042072Y-18261764D01*
X3026626Y-18206033D01*
X3019609Y-18140064D01*
X3016673Y-18028773D01*
X3016673Y-17946830D01*
X3184712Y-17946830D01*
X3188131Y-18119632D01*
X3195231Y-18152045D01*
X3207036Y-18176906D01*
X3223180Y-18195774D01*
X3255531Y-18214709D01*
X3298285Y-18221420D01*
X3329249Y-18217914D01*
X3354818Y-18207959D01*
X3376198Y-18191683D01*
X3399379Y-18157606D01*
X3411858Y-18110106D01*
X3414561Y-17993969D01*
X3583316Y-17993969D01*
X3588035Y-18120003D01*
X3597788Y-18173243D01*
X3616893Y-18210223D01*
X3643889Y-18236441D01*
X3678149Y-18252605D01*
X3720886Y-18258301D01*
X3755619Y-18254862D01*
X3783703Y-18245248D01*
X3806554Y-18229907D01*
X3832401Y-18197720D01*
X3846793Y-18156512D01*
X3850906Y-18117384D01*
X3852960Y-18017844D01*
X3852960Y-17830692D01*
X3583316Y-17830692D01*
X3583316Y-17993969D01*
X3414561Y-17993969D01*
X3415277Y-17963194D01*
X3415277Y-17830692D01*
X3184712Y-17830692D01*
X3184712Y-17946830D01*
X3016673Y-17946830D01*
X3016673Y-17628459D01*
X4021000Y-17628459D01*
X4021000Y-17969300D01*
G37*
G36*
X3624092Y-18602932D02*
G01*
X3708686Y-18619797D01*
X3782541Y-18646604D01*
X3847176Y-18682909D01*
X3903763Y-18728834D01*
X3952111Y-18784010D01*
X3989844Y-18845985D01*
X4017385Y-18915720D01*
X4034547Y-18994532D01*
X4040539Y-19084025D01*
X4034552Y-19172269D01*
X4017375Y-19250236D01*
X3989750Y-19319480D01*
X3951814Y-19381271D01*
X3903091Y-19436528D01*
X3846302Y-19482345D01*
X3781201Y-19518635D01*
X3706570Y-19545484D01*
X3620835Y-19562403D01*
X3522133Y-19568358D01*
X3422580Y-19562347D01*
X3336223Y-19545278D01*
X3261160Y-19518209D01*
X3195785Y-19481641D01*
X3138855Y-19435490D01*
X3089984Y-19379816D01*
X3051941Y-19317644D01*
X3024249Y-19248062D01*
X3007038Y-19169807D01*
X3001178Y-19083353D01*
X3172988Y-19083353D01*
X3178646Y-19144436D01*
X3194866Y-19197225D01*
X3221253Y-19243335D01*
X3258412Y-19283876D01*
X3302634Y-19314758D01*
X3358668Y-19338312D01*
X3429166Y-19353723D01*
X3517371Y-19359347D01*
X3606450Y-19353604D01*
X3678028Y-19337826D01*
X3735278Y-19313631D01*
X3780787Y-19281800D01*
X3819373Y-19240086D01*
X3846459Y-19193824D01*
X3862910Y-19142056D01*
X3868592Y-19083353D01*
X3862890Y-19024696D01*
X3846349Y-18972752D01*
X3819059Y-18926122D01*
X3780115Y-18883868D01*
X3734151Y-18851425D01*
X3677154Y-18826941D01*
X3606777Y-18811084D01*
X3520118Y-18805344D01*
X3431658Y-18811026D01*
X3360763Y-18826618D01*
X3304231Y-18850491D01*
X3259450Y-18881853D01*
X3221756Y-18922955D01*
X3195055Y-18969437D01*
X3178686Y-19022376D01*
X3172988Y-19083353D01*
X3001178Y-19083353D01*
X3001041Y-19081338D01*
X3005750Y-19000556D01*
X3019232Y-18929026D01*
X3040792Y-18865488D01*
X3063533Y-18820523D01*
X3093503Y-18777439D01*
X3131345Y-18735979D01*
X3196381Y-18683105D01*
X3269159Y-18642800D01*
X3340124Y-18618387D01*
X3425196Y-18602651D01*
X3526957Y-18597004D01*
X3624092Y-18602932D01*
G37*
G36*
X4021000Y-19951758D02*
G01*
X3184712Y-19951758D01*
X3184712Y-19654576D01*
X3016673Y-19654576D01*
X3016673Y-20450441D01*
X3184712Y-20450441D01*
X3184712Y-20153930D01*
X4021000Y-20153930D01*
X4021000Y-19951758D01*
G37*
G36*
X4021000Y-20806608D02*
G01*
X3184712Y-20806608D01*
X3184712Y-20509426D01*
X3016673Y-20509426D01*
X3016673Y-21305291D01*
X3184712Y-21305291D01*
X3184712Y-21008780D01*
X4021000Y-21008780D01*
X4021000Y-20806608D01*
G37*
G36*
X3624092Y-21375577D02*
G01*
X3708686Y-21392441D01*
X3782541Y-21419249D01*
X3847176Y-21455554D01*
X3903763Y-21501479D01*
X3952111Y-21556655D01*
X3989844Y-21618630D01*
X4017385Y-21688365D01*
X4034547Y-21767177D01*
X4040539Y-21856669D01*
X4034552Y-21944914D01*
X4017375Y-22022881D01*
X3989750Y-22092124D01*
X3951814Y-22153915D01*
X3903091Y-22209173D01*
X3846302Y-22254990D01*
X3781201Y-22291280D01*
X3706570Y-22318128D01*
X3620835Y-22335048D01*
X3522133Y-22341003D01*
X3422580Y-22334991D01*
X3336223Y-22317923D01*
X3261160Y-22290854D01*
X3195785Y-22254286D01*
X3138855Y-22208135D01*
X3089984Y-22152461D01*
X3051941Y-22090289D01*
X3024249Y-22020706D01*
X3007038Y-21942452D01*
X3001178Y-21855998D01*
X3172988Y-21855998D01*
X3178646Y-21917081D01*
X3194866Y-21969870D01*
X3221253Y-22015980D01*
X3258412Y-22056521D01*
X3302634Y-22087403D01*
X3358668Y-22110957D01*
X3429166Y-22126368D01*
X3517371Y-22131992D01*
X3606450Y-22126249D01*
X3678028Y-22110471D01*
X3735278Y-22086276D01*
X3780787Y-22054445D01*
X3819373Y-22012731D01*
X3846459Y-21966469D01*
X3862910Y-21914700D01*
X3868592Y-21855998D01*
X3862890Y-21797341D01*
X3846349Y-21745397D01*
X3819059Y-21698767D01*
X3780115Y-21656512D01*
X3734151Y-21624069D01*
X3677154Y-21599586D01*
X3606777Y-21583729D01*
X3520118Y-21577988D01*
X3431658Y-21583671D01*
X3360763Y-21599263D01*
X3304231Y-21623136D01*
X3259450Y-21654497D01*
X3221756Y-21695600D01*
X3195055Y-21742081D01*
X3178686Y-21795021D01*
X3172988Y-21855998D01*
X3001178Y-21855998D01*
X3001041Y-21853983D01*
X3005750Y-21773201D01*
X3019232Y-21701670D01*
X3040792Y-21638133D01*
X3063533Y-21593168D01*
X3093503Y-21550084D01*
X3131345Y-21508623D01*
X3196381Y-21455750D01*
X3269159Y-21415445D01*
X3340124Y-21391032D01*
X3425196Y-21375295D01*
X3526957Y-21369649D01*
X3624092Y-21375577D01*
G37*
G36*
X4021000Y-22496219D02*
G01*
X3016673Y-22496219D01*
X3016673Y-22798836D01*
X3701774Y-22980553D01*
X3016673Y-23160193D01*
X3016673Y-23463543D01*
X4021000Y-23463543D01*
X4021000Y-23275659D01*
X3230446Y-23275659D01*
X4021000Y-23076907D01*
X4021000Y-22882184D01*
X3230446Y-22684103D01*
X4021000Y-22684103D01*
X4021000Y-22496219D01*
G37*
D11*
%TO.P,SW8,1,1*%
%TO.N,/GND*%
X11053727Y-18327876D03*
X16175797Y-14326076D03*
%TO.P,SW8,2,2*%
%TO.N,/GPIO6*%
X13824203Y-21873924D03*
X18946273Y-17872124D03*
%TD*%
D12*
%TO.P,J1,R*%
%TO.N,Net-(C4-Pad2)*%
X41250000Y-10550000D03*
%TO.P,J1,RN*%
X38250000Y-8850000D03*
D13*
%TO.P,J1,S*%
%TO.N,/GND*%
X36000000Y-2250000D03*
D14*
%TO.P,J1,T*%
%TO.N,Net-(C2-Pad2)*%
X31500000Y-5750000D03*
D13*
%TO.P,J1,TN*%
X31800000Y-13350000D03*
%TD*%
D15*
%TO.P,SW2,1,1*%
%TO.N,/GND*%
X64250000Y-21250000D03*
X57750000Y-21250000D03*
%TO.P,SW2,2,2*%
%TO.N,/GPIO27*%
X64250000Y-16750000D03*
X57750000Y-16750000D03*
%TD*%
D11*
%TO.P,SW6,1,1*%
%TO.N,/GND*%
X11053727Y-6127876D03*
X16175797Y-2126076D03*
%TO.P,SW6,2,2*%
%TO.N,/GPIO25*%
X13824203Y-9673924D03*
X18946273Y-5672124D03*
%TD*%
D16*
%TO.P,SW4,1,1*%
%TO.N,/GND*%
X57750000Y-8750000D03*
X64250000Y-8750000D03*
%TO.P,SW4,2,2*%
%TO.N,/GPIO24*%
X57750000Y-13250000D03*
X64250000Y-13250000D03*
%TD*%
%TO.P,SW3,1,1*%
%TO.N,/GND*%
X46750000Y-8750000D03*
X53250000Y-8750000D03*
%TO.P,SW3,2,2*%
%TO.N,/GPIO22*%
X46750000Y-13250000D03*
X53250000Y-13250000D03*
%TD*%
D15*
%TO.P,SW1,1,1*%
%TO.N,/GND*%
X53250000Y-21250000D03*
X46750000Y-21250000D03*
%TO.P,SW1,2,2*%
%TO.N,/GPIO23*%
X53250000Y-16750000D03*
X46750000Y-16750000D03*
%TD*%
D17*
%TO.P,SW5,1,1*%
%TO.N,/GND*%
X20872124Y-8053727D03*
X24873924Y-13175797D03*
%TO.P,SW5,2,2*%
%TO.N,/GPIO5*%
X17326076Y-10824203D03*
X21327876Y-15946273D03*
%TD*%
%TO.P,SW7,1,1*%
%TO.N,/GND*%
X8672124Y-8053727D03*
X12673924Y-13175797D03*
%TO.P,SW7,2,2*%
%TO.N,/GPIO26*%
X5126076Y-10824203D03*
X9127876Y-15946273D03*
%TD*%
D18*
%TO.P,IC1,1,3V3*%
%TO.N,/3V3*%
X58130000Y-25330000D03*
%TO.P,IC1,2,5V*%
%TO.N,/5V*%
X58130000Y-28670000D03*
%TO.P,IC1,3,SDA/GPIO2*%
%TO.N,unconnected-(IC1-SDA{slash}GPIO2-Pad3)*%
X55590000Y-25330000D03*
%TO.P,IC1,4,5V*%
%TO.N,/5V*%
X55590000Y-28670000D03*
%TO.P,IC1,5,SCL/GPIO3*%
%TO.N,unconnected-(IC1-SCL{slash}GPIO3-Pad5)*%
X53050000Y-25330000D03*
%TO.P,IC1,6,GND*%
%TO.N,/GND*%
X53050000Y-28670000D03*
%TO.P,IC1,7,GCLK0/GPIO4*%
%TO.N,unconnected-(IC1-GCLK0{slash}GPIO4-Pad7)*%
X50510000Y-25330000D03*
%TO.P,IC1,8,GPIO14/TXD*%
%TO.N,unconnected-(IC1-GPIO14{slash}TXD-Pad8)*%
X50510000Y-28670000D03*
%TO.P,IC1,9,GND*%
%TO.N,/GND*%
X47970000Y-25330000D03*
%TO.P,IC1,10,GPIO15/RXD*%
%TO.N,unconnected-(IC1-GPIO15{slash}RXD-Pad10)*%
X47970000Y-28670000D03*
%TO.P,IC1,11,GPIO17*%
%TO.N,unconnected-(IC1-GPIO17-Pad11)*%
X45430000Y-25330000D03*
%TO.P,IC1,12,GPIO18/PWM0*%
%TO.N,unconnected-(IC1-GPIO18{slash}PWM0-Pad12)*%
X45430000Y-28670000D03*
%TO.P,IC1,13,GPIO27*%
%TO.N,/GPIO27*%
X42890000Y-25330000D03*
%TO.P,IC1,14,GND*%
%TO.N,/GND*%
X42890000Y-28670000D03*
%TO.P,IC1,15,GPIO22*%
%TO.N,/GPIO22*%
X40350000Y-25330000D03*
%TO.P,IC1,16,GPIO23*%
%TO.N,/GPIO23*%
X40350000Y-28670000D03*
%TO.P,IC1,17,3V3*%
%TO.N,/3V3*%
X37810000Y-25330000D03*
%TO.P,IC1,18,GPIO24*%
%TO.N,/GPIO24*%
X37810000Y-28670000D03*
%TO.P,IC1,19,MOSI0/GPIO10*%
%TO.N,unconnected-(IC1-MOSI0{slash}GPIO10-Pad19)*%
X35270000Y-25330000D03*
%TO.P,IC1,20,GND*%
%TO.N,/GND*%
X35270000Y-28670000D03*
%TO.P,IC1,21,MISO0/GPIO9*%
%TO.N,unconnected-(IC1-MISO0{slash}GPIO9-Pad21)*%
X32730000Y-25330000D03*
%TO.P,IC1,22,GPIO25*%
%TO.N,/GPIO25*%
X32730000Y-28670000D03*
%TO.P,IC1,23,SCLK0/GPIO11*%
%TO.N,unconnected-(IC1-SCLK0{slash}GPIO11-Pad23)*%
X30190000Y-25330000D03*
%TO.P,IC1,24,~{CE0}/GPIO8*%
%TO.N,unconnected-(IC1-~{CE0}{slash}GPIO8-Pad24)*%
X30190000Y-28670000D03*
%TO.P,IC1,25,GND*%
%TO.N,/GND*%
X27650000Y-25330000D03*
%TO.P,IC1,26,~{CE1}/GPIO7*%
%TO.N,unconnected-(IC1-~{CE1}{slash}GPIO7-Pad26)*%
X27650000Y-28670000D03*
%TO.P,IC1,27,ID_SD/GPIO0*%
%TO.N,unconnected-(IC1-ID_SD{slash}GPIO0-Pad27)*%
X25110000Y-25330000D03*
%TO.P,IC1,28,ID_SC/GPIO1*%
%TO.N,unconnected-(IC1-ID_SC{slash}GPIO1-Pad28)*%
X25110000Y-28670000D03*
%TO.P,IC1,29,GCLK1/GPIO5*%
%TO.N,/GPIO5*%
X22570000Y-25330000D03*
%TO.P,IC1,30,GND*%
%TO.N,/GND*%
X22570000Y-28670000D03*
%TO.P,IC1,31,GCLK2/GPIO6*%
%TO.N,/GPIO6*%
X20030000Y-25330000D03*
%TO.P,IC1,32,PWM0/GPIO12*%
%TO.N,/GPIO12*%
X20030000Y-28670000D03*
%TO.P,IC1,33,PWM1/GPIO13*%
%TO.N,/GPIO13*%
X17490000Y-25330000D03*
%TO.P,IC1,34,GND*%
%TO.N,/GND*%
X17490000Y-28670000D03*
%TO.P,IC1,35,GPIO19/MISO1*%
%TO.N,unconnected-(IC1-GPIO19{slash}MISO1-Pad35)*%
X14950000Y-25330000D03*
%TO.P,IC1,36,GPIO16*%
%TO.N,unconnected-(IC1-GPIO16-Pad36)*%
X14950000Y-28670000D03*
%TO.P,IC1,37,GPIO26*%
%TO.N,/GPIO26*%
X12410000Y-25330000D03*
%TO.P,IC1,38,GPIO20/MOSI1*%
%TO.N,unconnected-(IC1-GPIO20{slash}MOSI1-Pad38)*%
X12410000Y-28670000D03*
%TO.P,IC1,39,GND*%
%TO.N,/GND*%
X9870000Y-25330000D03*
%TO.P,IC1,40,GPIO21/SCLK1*%
%TO.N,unconnected-(IC1-GPIO21{slash}SCLK1-Pad40)*%
X9870000Y-28670000D03*
%TD*%
D19*
%TO.N,/3V3*%
X36830000Y-22860000D03*
X55495526Y-22792426D03*
%TO.N,Net-(C2-Pad2)*%
X28067000Y-5080000D03*
%TO.N,Net-(C3-Pad2)*%
X26797000Y-15367000D03*
X39878000Y-15875000D03*
%TO.N,Net-(C4-Pad2)*%
X43434000Y-4572000D03*
%TO.N,/GPIO25*%
X31623000Y-22225000D03*
%TO.N,/GPIO5*%
X22733000Y-22860000D03*
%TO.N,/GPIO6*%
X19812000Y-22606000D03*
%TD*%
D20*
%TO.N,/GND*%
X52959000Y-28361000D02*
X53050000Y-28270000D01*
X52959000Y-30818000D02*
X52959000Y-28361000D01*
X53340000Y-31199000D02*
X52959000Y-30818000D01*
D21*
%TO.N,Net-(C3-Pad2)*%
X27559000Y-16129000D02*
X26797000Y-15367000D01*
X39624000Y-16129000D02*
X27559000Y-16129000D01*
X39878000Y-15875000D02*
X39624000Y-16129000D01*
D20*
%TO.N,/GPIO6*%
X17826003Y-17872124D02*
X13824203Y-21873924D01*
X18946273Y-17872124D02*
X17826003Y-17872124D01*
%TO.N,/GPIO5*%
X21327876Y-14826003D02*
X17326076Y-10824203D01*
X21327876Y-15946273D02*
X21327876Y-14826003D01*
%TO.N,/GPIO25*%
X17826003Y-5672124D02*
X13824203Y-9673924D01*
X18946273Y-5672124D02*
X17826003Y-5672124D01*
%TO.N,/GND*%
X14834076Y-14326076D02*
X13683797Y-13175797D01*
X13683797Y-13175797D02*
X12673924Y-13175797D01*
X16175797Y-14326076D02*
X14834076Y-14326076D01*
X66199000Y-31115000D02*
X65532000Y-31115000D01*
X57750000Y-21250000D02*
X64250000Y-21250000D01*
X46750000Y-21250000D02*
X53250000Y-21250000D01*
X22570000Y-31108000D02*
X22479000Y-31199000D01*
X21762645Y-5719692D02*
X18169029Y-2126076D01*
X42890000Y-31036000D02*
X43053000Y-31199000D01*
X9172124Y-8053727D02*
X9627876Y-8053727D01*
X18169029Y-2126076D02*
X16175797Y-2126076D01*
X12673924Y-13175797D02*
X12673924Y-12055527D01*
X64250000Y-21250000D02*
X66199000Y-23199000D01*
X64250000Y-8750000D02*
X66141000Y-10641000D01*
X20872124Y-8053727D02*
X20872124Y-9173997D01*
X21762645Y-7163206D02*
X21762645Y-5719692D01*
X16175797Y-14326076D02*
X15055527Y-14326076D01*
X53250000Y-21250000D02*
X57750000Y-21250000D01*
X35270000Y-31163000D02*
X35306000Y-31199000D01*
X46750000Y-8750000D02*
X53250000Y-8750000D01*
X22570000Y-28270000D02*
X22570000Y-31108000D01*
X1270000Y-9525000D02*
X2741273Y-8053727D01*
X53340000Y-31199000D02*
X43053000Y-31199000D01*
X20872124Y-9173997D02*
X24873924Y-13175797D01*
X12673924Y-12055527D02*
X8672124Y-8053727D01*
X35270000Y-28270000D02*
X35270000Y-31163000D01*
X35306000Y-31199000D02*
X22479000Y-31199000D01*
X17490000Y-31163000D02*
X17526000Y-31199000D01*
X11053727Y-6127876D02*
X12173997Y-6127876D01*
X1354000Y-31199000D02*
X1270000Y-31115000D01*
X9127876Y-8053727D02*
X11053727Y-6127876D01*
X66141000Y-10641000D02*
X66141000Y-19359000D01*
X64250000Y-8750000D02*
X57750000Y-8750000D01*
X12173997Y-6127876D02*
X16175797Y-2126076D01*
X15055527Y-14326076D02*
X11053727Y-18327876D01*
X1270000Y-31115000D02*
X1270000Y-9525000D01*
X43053000Y-31199000D02*
X35306000Y-31199000D01*
X2741273Y-8053727D02*
X8672124Y-8053727D01*
X66141000Y-19359000D02*
X64250000Y-21250000D01*
X57750000Y-8750000D02*
X53250000Y-8750000D01*
X42890000Y-28270000D02*
X42890000Y-31036000D01*
X20872124Y-8053727D02*
X21762645Y-7163206D01*
X65532000Y-31115000D02*
X65448000Y-31199000D01*
X65448000Y-31199000D02*
X53340000Y-31199000D01*
X17526000Y-31199000D02*
X1354000Y-31199000D01*
X22479000Y-31199000D02*
X17526000Y-31199000D01*
X66199000Y-23199000D02*
X66199000Y-31115000D01*
X8672124Y-8053727D02*
X9127876Y-8053727D01*
X17490000Y-28270000D02*
X17490000Y-31163000D01*
D21*
%TO.N,/3V3*%
X55495526Y-22792426D02*
X55173952Y-23114000D01*
X55173952Y-23114000D02*
X37084000Y-23114000D01*
X37084000Y-23114000D02*
X36830000Y-22860000D01*
D20*
%TO.N,Net-(C2-Pad2)*%
X31800000Y-6050000D02*
X31500000Y-5750000D01*
D22*
X31800000Y-13350000D02*
X31800000Y-6050000D01*
D21*
X31500000Y-5750000D02*
X28737000Y-5750000D01*
X28737000Y-5750000D02*
X28067000Y-5080000D01*
D22*
%TO.N,Net-(C4-Pad2)*%
X39300000Y-8850000D02*
X41000000Y-10550000D01*
D20*
X41000000Y-9165000D02*
X41000000Y-10550000D01*
D22*
X38500000Y-8850000D02*
X39300000Y-8850000D01*
D20*
X43434000Y-4572000D02*
X43434000Y-6731000D01*
X43434000Y-6731000D02*
X41000000Y-9165000D01*
D21*
%TO.N,/GPIO25*%
X20193000Y-11684000D02*
X30734000Y-22225000D01*
X20193000Y-10414000D02*
X20193000Y-11684000D01*
X30734000Y-22225000D02*
X31623000Y-22225000D01*
X16786241Y-7007241D02*
X20193000Y-10414000D01*
%TO.N,/GPIO5*%
X21327876Y-21454876D02*
X21327876Y-15946273D01*
X22733000Y-22860000D02*
X21327876Y-21454876D01*
D20*
%TO.N,/GPIO23*%
X53250000Y-16750000D02*
X46750000Y-16750000D01*
D21*
%TO.N,/GPIO6*%
X19812000Y-18737851D02*
X18946273Y-17872124D01*
X19812000Y-22606000D02*
X19812000Y-18737851D01*
D20*
%TO.N,/GPIO24*%
X64250000Y-13250000D02*
X57750000Y-13250000D01*
%TO.N,/GPIO26*%
X5126076Y-10824203D02*
X5126076Y-11944473D01*
X5126076Y-11944473D02*
X9127876Y-15946273D01*
%TO.N,/GPIO22*%
X46750000Y-13250000D02*
X53250000Y-13250000D01*
D21*
X46750000Y-13250000D02*
X45805000Y-13250000D01*
%TO.N,/GPIO27*%
X57291000Y-16750000D02*
X57750000Y-16750000D01*
D20*
X64250000Y-16750000D02*
X57750000Y-16750000D01*
%TD*%
%TA.AperFunction,Conductor*%
%TO.N,/GND*%
G36*
X23501057Y-16124135D02*
G01*
X30112211Y-22735289D01*
X30184038Y-22807116D01*
X30223712Y-22846790D01*
X30354814Y-22934390D01*
X30354821Y-22934394D01*
X30477428Y-22985179D01*
X30500503Y-22994737D01*
X30544656Y-23003519D01*
X30549521Y-23004908D01*
X30574934Y-23020969D01*
X30601589Y-23034911D01*
X30607196Y-23041358D01*
X30608584Y-23042236D01*
X30609305Y-23043784D01*
X30615809Y-23051263D01*
X30631032Y-23072217D01*
X30760061Y-23201246D01*
X30793546Y-23262569D01*
X30788562Y-23332261D01*
X30746690Y-23388194D01*
X30681226Y-23412611D01*
X30634062Y-23406858D01*
X30494536Y-23361523D01*
X30348436Y-23338383D01*
X30292352Y-23329500D01*
X30087648Y-23329500D01*
X30070216Y-23332261D01*
X29885465Y-23361522D01*
X29690776Y-23424781D01*
X29508386Y-23517715D01*
X29342786Y-23638028D01*
X29198028Y-23782786D01*
X29077713Y-23948388D01*
X29030203Y-24041630D01*
X28982228Y-24092426D01*
X28914407Y-24109220D01*
X28848272Y-24086682D01*
X28809234Y-24041628D01*
X28761861Y-23948652D01*
X28641582Y-23783105D01*
X28641582Y-23783104D01*
X28496895Y-23638417D01*
X28331349Y-23518140D01*
X28149029Y-23425244D01*
X27954413Y-23362009D01*
X27900000Y-23353390D01*
X27900000Y-25181517D01*
X27881591Y-25170889D01*
X27728991Y-25130000D01*
X27571009Y-25130000D01*
X27418409Y-25170889D01*
X27400000Y-25181517D01*
X27400000Y-23353390D01*
X27345586Y-23362009D01*
X27150970Y-23425244D01*
X26968650Y-23518140D01*
X26803105Y-23638417D01*
X26803104Y-23638417D01*
X26658417Y-23783104D01*
X26658417Y-23783105D01*
X26538140Y-23948650D01*
X26490765Y-24041629D01*
X26442790Y-24092425D01*
X26374969Y-24109220D01*
X26308834Y-24086682D01*
X26269795Y-24041629D01*
X26222419Y-23948650D01*
X26222287Y-23948390D01*
X26197665Y-23914500D01*
X26101971Y-23782786D01*
X25957213Y-23638028D01*
X25791613Y-23517715D01*
X25791612Y-23517714D01*
X25791610Y-23517713D01*
X25731902Y-23487290D01*
X25609223Y-23424781D01*
X25414534Y-23361522D01*
X25229784Y-23332261D01*
X25212352Y-23329500D01*
X25007648Y-23329500D01*
X24990216Y-23332261D01*
X24805465Y-23361522D01*
X24610776Y-23424781D01*
X24428386Y-23517715D01*
X24262786Y-23638028D01*
X24118028Y-23782786D01*
X23997715Y-23948386D01*
X23950485Y-24041080D01*
X23943756Y-24048204D01*
X23940485Y-24057440D01*
X23920162Y-24073185D01*
X23902510Y-24091876D01*
X23892999Y-24094231D01*
X23885253Y-24100233D01*
X23859642Y-24102491D01*
X23834689Y-24108671D01*
X23825413Y-24105510D01*
X23815654Y-24106371D01*
X23792893Y-24094428D01*
X23768554Y-24086134D01*
X23760809Y-24077593D01*
X23753784Y-24073907D01*
X23737525Y-24051915D01*
X23732168Y-24046007D01*
X23730777Y-24043558D01*
X23682287Y-23948390D01*
X23656931Y-23913490D01*
X23653496Y-23907440D01*
X23647030Y-23879923D01*
X23637530Y-23853296D01*
X23639143Y-23846357D01*
X23637514Y-23839423D01*
X23646952Y-23812775D01*
X23653356Y-23785242D01*
X23659631Y-23776982D01*
X23660843Y-23773563D01*
X23664215Y-23770950D01*
X23673646Y-23758538D01*
X23724966Y-23707219D01*
X23724968Y-23707215D01*
X23724971Y-23707213D01*
X23794363Y-23611701D01*
X23845287Y-23541610D01*
X23938220Y-23359219D01*
X24001477Y-23164534D01*
X24033500Y-22962352D01*
X24033500Y-22757648D01*
X24019767Y-22670940D01*
X24001477Y-22555465D01*
X23945448Y-22383028D01*
X23938220Y-22360781D01*
X23938218Y-22360778D01*
X23938218Y-22360776D01*
X23877194Y-22241011D01*
X23845287Y-22178390D01*
X23837556Y-22167749D01*
X23724971Y-22012786D01*
X23580213Y-21868028D01*
X23414613Y-21747715D01*
X23414612Y-21747714D01*
X23414610Y-21747713D01*
X23357653Y-21718691D01*
X23232223Y-21654781D01*
X23037534Y-21591522D01*
X22862995Y-21563878D01*
X22835352Y-21559500D01*
X22630648Y-21559500D01*
X22630638Y-21559500D01*
X22626377Y-21559835D01*
X22558001Y-21545466D01*
X22528976Y-21523898D01*
X22164695Y-21159617D01*
X22131210Y-21098294D01*
X22128376Y-21071936D01*
X22128376Y-17602747D01*
X22148061Y-17535708D01*
X22176032Y-17505035D01*
X22897383Y-16941456D01*
X22966302Y-16879465D01*
X23105606Y-16705988D01*
X23210661Y-16509868D01*
X23277890Y-16297783D01*
X23290301Y-16196702D01*
X23318008Y-16132564D01*
X23375994Y-16093585D01*
X23445849Y-16092143D01*
X23501057Y-16124135D01*
G37*
%TD.AperFunction*%
%TA.AperFunction,Conductor*%
G36*
X15299510Y-10834691D02*
G01*
X15349924Y-10883067D01*
X15362565Y-10914357D01*
X15417361Y-11131280D01*
X15510557Y-11333301D01*
X15510561Y-11333307D01*
X15562436Y-11410130D01*
X16153322Y-12166430D01*
X16179084Y-12231377D01*
X16165644Y-12299942D01*
X16117268Y-12350355D01*
X16085979Y-12362995D01*
X15868894Y-12417832D01*
X15666949Y-12510992D01*
X15590149Y-12562851D01*
X15590142Y-12562856D01*
X15295392Y-12793140D01*
X15295392Y-12793141D01*
X16036835Y-13742145D01*
X15944206Y-13766965D01*
X15807389Y-13845957D01*
X15695678Y-13957668D01*
X15642572Y-14049648D01*
X14901387Y-13100972D01*
X14901385Y-13100972D01*
X14833703Y-13153852D01*
X14768756Y-13179614D01*
X14700191Y-13166174D01*
X14649778Y-13117798D01*
X14637137Y-13086508D01*
X14582165Y-12868890D01*
X14489007Y-12666949D01*
X14437148Y-12590149D01*
X14437143Y-12590142D01*
X14206858Y-12295392D01*
X14206857Y-12295392D01*
X13257854Y-13036833D01*
X13233035Y-12944206D01*
X13154043Y-12807389D01*
X13042332Y-12695678D01*
X12950350Y-12642572D01*
X13899026Y-11901387D01*
X13899026Y-11901386D01*
X13846483Y-11834134D01*
X13820721Y-11769187D01*
X13834161Y-11700623D01*
X13882537Y-11650209D01*
X13913827Y-11637568D01*
X13915568Y-11637128D01*
X13915570Y-11637128D01*
X14131279Y-11582639D01*
X14333304Y-11489441D01*
X14410127Y-11437566D01*
X15166000Y-10847012D01*
X15230946Y-10821251D01*
X15299510Y-10834691D01*
G37*
%TD.AperFunction*%
%TA.AperFunction,Conductor*%
G36*
X10494616Y-6359467D02*
G01*
X10573608Y-6496284D01*
X10685319Y-6607995D01*
X10777297Y-6661099D01*
X10275896Y-7052836D01*
X10273309Y-7073909D01*
X10245601Y-7138050D01*
X10226575Y-7156510D01*
X9256054Y-7914763D01*
X9231235Y-7822136D01*
X9152243Y-7685319D01*
X9040532Y-7573608D01*
X8948550Y-7520502D01*
X9449952Y-7128765D01*
X9452539Y-7107695D01*
X9480246Y-7043554D01*
X9499273Y-7025093D01*
X10469795Y-6266837D01*
X10494616Y-6359467D01*
G37*
%TD.AperFunction*%
%TA.AperFunction,Conductor*%
G36*
X15248878Y-420185D02*
G01*
X15294633Y-472989D01*
X15304577Y-542147D01*
X15300578Y-550901D01*
X15295392Y-593141D01*
X16036835Y-1542145D01*
X15944206Y-1566965D01*
X15807389Y-1645957D01*
X15695678Y-1757668D01*
X15642572Y-1849648D01*
X14901386Y-900972D01*
X14606622Y-1131268D01*
X14537729Y-1193234D01*
X14398487Y-1366638D01*
X14293474Y-1562678D01*
X14226274Y-1774667D01*
X14199171Y-1995413D01*
X14213089Y-2217366D01*
X14267555Y-2432982D01*
X14360713Y-2634923D01*
X14412572Y-2711723D01*
X14412577Y-2711730D01*
X14642861Y-3006479D01*
X14642862Y-3006479D01*
X15591865Y-2265036D01*
X15616686Y-2357667D01*
X15695678Y-2494484D01*
X15807389Y-2606195D01*
X15899367Y-2659299D01*
X14950693Y-3400484D01*
X14950693Y-3400485D01*
X15180978Y-3695236D01*
X15180987Y-3695248D01*
X15242955Y-3764144D01*
X15416359Y-3903385D01*
X15612399Y-4008398D01*
X15824388Y-4075598D01*
X16045134Y-4102701D01*
X16267087Y-4088783D01*
X16482703Y-4034317D01*
X16684647Y-3941157D01*
X16761435Y-3889308D01*
X17056200Y-3659010D01*
X17056200Y-3659009D01*
X16314758Y-2710006D01*
X16407388Y-2685187D01*
X16544205Y-2606195D01*
X16655916Y-2494484D01*
X16709020Y-2402504D01*
X17450205Y-3351178D01*
X17450206Y-3351178D01*
X17744957Y-3120894D01*
X17744969Y-3120885D01*
X17813865Y-3058917D01*
X17953106Y-2885513D01*
X18058119Y-2689473D01*
X18125319Y-2477484D01*
X18129262Y-2445371D01*
X18152422Y-2256738D01*
X18138504Y-2034785D01*
X18084038Y-1819169D01*
X17990880Y-1617228D01*
X17939021Y-1540428D01*
X17939016Y-1540421D01*
X17708731Y-1245671D01*
X17708730Y-1245671D01*
X16759727Y-1987112D01*
X16734908Y-1894485D01*
X16655916Y-1757668D01*
X16544205Y-1645957D01*
X16452223Y-1592851D01*
X17400899Y-851666D01*
X17400899Y-851665D01*
X17204935Y-600842D01*
X17179173Y-535895D01*
X17192613Y-467330D01*
X17240989Y-416917D01*
X17302648Y-400500D01*
X34009664Y-400500D01*
X34076703Y-420185D01*
X34122458Y-472989D01*
X34132402Y-542147D01*
X34103377Y-605703D01*
X34085150Y-622876D01*
X33928480Y-743092D01*
X33928473Y-743098D01*
X33743098Y-928473D01*
X33743092Y-928480D01*
X33583496Y-1136471D01*
X33452409Y-1363517D01*
X33452404Y-1363528D01*
X33352075Y-1605744D01*
X33284221Y-1858983D01*
X33265654Y-1999999D01*
X33265655Y-2000000D01*
X34966988Y-2000000D01*
X34934075Y-2057007D01*
X34900000Y-2184174D01*
X34900000Y-2315826D01*
X34934075Y-2442993D01*
X34966988Y-2500000D01*
X33265655Y-2500000D01*
X33284221Y-2641016D01*
X33352075Y-2894255D01*
X33452404Y-3136471D01*
X33452409Y-3136482D01*
X33583496Y-3363528D01*
X33743092Y-3571519D01*
X33743098Y-3571526D01*
X33928473Y-3756901D01*
X33928480Y-3756907D01*
X34136471Y-3916503D01*
X34363517Y-4047590D01*
X34363528Y-4047595D01*
X34605744Y-4147924D01*
X34858979Y-4215777D01*
X34858990Y-4215779D01*
X35118905Y-4249999D01*
X35118920Y-4250000D01*
X35750000Y-4250000D01*
X35750000Y-2750000D01*
X36250000Y-2750000D01*
X36250000Y-4250000D01*
X36881080Y-4250000D01*
X36881094Y-4249999D01*
X37141009Y-4215779D01*
X37141020Y-4215777D01*
X37394255Y-4147924D01*
X37636471Y-4047595D01*
X37636482Y-4047590D01*
X37863528Y-3916503D01*
X38071519Y-3756907D01*
X38071526Y-3756901D01*
X38256901Y-3571526D01*
X38256907Y-3571519D01*
X38416503Y-3363528D01*
X38547590Y-3136482D01*
X38547595Y-3136471D01*
X38647924Y-2894255D01*
X38715778Y-2641016D01*
X38734345Y-2500000D01*
X37033012Y-2500000D01*
X37065925Y-2442993D01*
X37100000Y-2315826D01*
X37100000Y-2184174D01*
X37065925Y-2057007D01*
X37033012Y-2000000D01*
X38734345Y-2000000D01*
X38734345Y-1999999D01*
X38715778Y-1858983D01*
X38647924Y-1605744D01*
X38547595Y-1363528D01*
X38547590Y-1363517D01*
X38416503Y-1136471D01*
X38256907Y-928480D01*
X38256901Y-928473D01*
X38071526Y-743098D01*
X38071519Y-743092D01*
X37914850Y-622876D01*
X37873647Y-566448D01*
X37869492Y-496702D01*
X37903704Y-435782D01*
X37965421Y-403029D01*
X37990336Y-400500D01*
X66475500Y-400500D01*
X66542539Y-420185D01*
X66588294Y-472989D01*
X66599500Y-524500D01*
X66599500Y-31475500D01*
X66579815Y-31542539D01*
X66527011Y-31588294D01*
X66475500Y-31599500D01*
X524500Y-31599500D01*
X457461Y-31579815D01*
X411706Y-31527011D01*
X400500Y-31475500D01*
X400500Y-26872857D01*
X3384500Y-26872857D01*
X3384500Y-27127142D01*
X3416708Y-27330500D01*
X3424279Y-27378297D01*
X3502858Y-27620137D01*
X3618301Y-27846706D01*
X3767766Y-28052427D01*
X3947573Y-28232234D01*
X4153294Y-28381699D01*
X4379863Y-28497142D01*
X4621703Y-28575721D01*
X4872857Y-28615500D01*
X4872858Y-28615500D01*
X5127142Y-28615500D01*
X5127143Y-28615500D01*
X5378297Y-28575721D01*
X5620137Y-28497142D01*
X5846706Y-28381699D01*
X6052427Y-28232234D01*
X6232234Y-28052427D01*
X6366484Y-27867648D01*
X8569500Y-27867648D01*
X8569500Y-29472351D01*
X8601522Y-29674534D01*
X8664781Y-29869223D01*
X8757715Y-30051613D01*
X8878028Y-30217213D01*
X9022786Y-30361971D01*
X9177749Y-30474556D01*
X9188390Y-30482287D01*
X9304607Y-30541503D01*
X9370776Y-30575218D01*
X9370778Y-30575218D01*
X9370781Y-30575220D01*
X9475137Y-30609127D01*
X9565465Y-30638477D01*
X9666557Y-30654488D01*
X9767648Y-30670500D01*
X9767649Y-30670500D01*
X9972351Y-30670500D01*
X9972352Y-30670500D01*
X10174534Y-30638477D01*
X10369219Y-30575220D01*
X10551610Y-30482287D01*
X10644590Y-30414732D01*
X10717213Y-30361971D01*
X10717215Y-30361968D01*
X10717219Y-30361966D01*
X10861966Y-30217219D01*
X10861968Y-30217215D01*
X10861971Y-30217213D01*
X10982284Y-30051614D01*
X10982286Y-30051611D01*
X10982287Y-30051610D01*
X11029516Y-29958917D01*
X11077489Y-29908123D01*
X11145310Y-29891328D01*
X11211445Y-29913865D01*
X11250485Y-29958919D01*
X11297715Y-30051614D01*
X11418028Y-30217213D01*
X11562786Y-30361971D01*
X11717749Y-30474556D01*
X11728390Y-30482287D01*
X11844607Y-30541503D01*
X11910776Y-30575218D01*
X11910778Y-30575218D01*
X11910781Y-30575220D01*
X12015137Y-30609127D01*
X12105465Y-30638477D01*
X12206557Y-30654488D01*
X12307648Y-30670500D01*
X12307649Y-30670500D01*
X12512351Y-30670500D01*
X12512352Y-30670500D01*
X12714534Y-30638477D01*
X12909219Y-30575220D01*
X13091610Y-30482287D01*
X13184590Y-30414732D01*
X13257213Y-30361971D01*
X13257215Y-30361968D01*
X13257219Y-30361966D01*
X13401966Y-30217219D01*
X13401968Y-30217215D01*
X13401971Y-30217213D01*
X13522284Y-30051614D01*
X13522286Y-30051611D01*
X13522287Y-30051610D01*
X13569516Y-29958917D01*
X13617489Y-29908123D01*
X13685310Y-29891328D01*
X13751445Y-29913865D01*
X13790485Y-29958919D01*
X13837715Y-30051614D01*
X13958028Y-30217213D01*
X14102786Y-30361971D01*
X14257749Y-30474556D01*
X14268390Y-30482287D01*
X14384607Y-30541503D01*
X14450776Y-30575218D01*
X14450778Y-30575218D01*
X14450781Y-30575220D01*
X14555137Y-30609127D01*
X14645465Y-30638477D01*
X14746557Y-30654488D01*
X14847648Y-30670500D01*
X14847649Y-30670500D01*
X15052351Y-30670500D01*
X15052352Y-30670500D01*
X15254534Y-30638477D01*
X15449219Y-30575220D01*
X15631610Y-30482287D01*
X15724590Y-30414732D01*
X15797213Y-30361971D01*
X15797215Y-30361968D01*
X15797219Y-30361966D01*
X15941966Y-30217219D01*
X15941968Y-30217215D01*
X15941971Y-30217213D01*
X16062284Y-30051614D01*
X16062286Y-30051611D01*
X16062287Y-30051610D01*
X16109795Y-29958369D01*
X16157770Y-29907574D01*
X16225591Y-29890779D01*
X16291725Y-29913316D01*
X16330765Y-29958370D01*
X16378140Y-30051349D01*
X16498417Y-30216894D01*
X16498417Y-30216895D01*
X16643104Y-30361582D01*
X16808650Y-30481859D01*
X16990968Y-30574754D01*
X17185578Y-30637988D01*
X17240000Y-30646607D01*
X17240000Y-28818482D01*
X17258409Y-28829111D01*
X17411009Y-28870000D01*
X17568991Y-28870000D01*
X17721591Y-28829111D01*
X17740000Y-28818482D01*
X17740000Y-30646606D01*
X17794421Y-30637988D01*
X17989031Y-30574754D01*
X18171349Y-30481859D01*
X18336894Y-30361582D01*
X18336895Y-30361582D01*
X18481582Y-30216895D01*
X18481582Y-30216894D01*
X18601861Y-30051347D01*
X18649234Y-29958371D01*
X18697208Y-29907575D01*
X18765028Y-29890779D01*
X18831164Y-29913316D01*
X18870203Y-29958369D01*
X18917713Y-30051611D01*
X19038028Y-30217213D01*
X19182786Y-30361971D01*
X19337749Y-30474556D01*
X19348390Y-30482287D01*
X19464607Y-30541503D01*
X19530776Y-30575218D01*
X19530778Y-30575218D01*
X19530781Y-30575220D01*
X19635137Y-30609127D01*
X19725465Y-30638477D01*
X19826557Y-30654488D01*
X19927648Y-30670500D01*
X19927649Y-30670500D01*
X20132351Y-30670500D01*
X20132352Y-30670500D01*
X20334534Y-30638477D01*
X20529219Y-30575220D01*
X20711610Y-30482287D01*
X20804590Y-30414732D01*
X20877213Y-30361971D01*
X20877215Y-30361968D01*
X20877219Y-30361966D01*
X21021966Y-30217219D01*
X21021968Y-30217215D01*
X21021971Y-30217213D01*
X21142284Y-30051614D01*
X21142286Y-30051611D01*
X21142287Y-30051610D01*
X21189795Y-29958369D01*
X21237770Y-29907574D01*
X21305591Y-29890779D01*
X21371725Y-29913316D01*
X21410765Y-29958370D01*
X21458140Y-30051349D01*
X21578417Y-30216894D01*
X21578417Y-30216895D01*
X21723104Y-30361582D01*
X21888650Y-30481859D01*
X22070968Y-30574754D01*
X22265578Y-30637988D01*
X22320000Y-30646607D01*
X22320000Y-28818482D01*
X22338409Y-28829111D01*
X22491009Y-28870000D01*
X22648991Y-28870000D01*
X22801591Y-28829111D01*
X22820000Y-28818482D01*
X22820000Y-30646606D01*
X22874421Y-30637988D01*
X23069031Y-30574754D01*
X23251349Y-30481859D01*
X23416894Y-30361582D01*
X23416895Y-30361582D01*
X23561582Y-30216895D01*
X23561582Y-30216894D01*
X23681861Y-30051347D01*
X23729234Y-29958371D01*
X23777208Y-29907575D01*
X23845028Y-29890779D01*
X23911164Y-29913316D01*
X23950203Y-29958369D01*
X23997713Y-30051611D01*
X24118028Y-30217213D01*
X24262786Y-30361971D01*
X24417749Y-30474556D01*
X24428390Y-30482287D01*
X24544607Y-30541503D01*
X24610776Y-30575218D01*
X24610778Y-30575218D01*
X24610781Y-30575220D01*
X24715137Y-30609127D01*
X24805465Y-30638477D01*
X24906557Y-30654488D01*
X25007648Y-30670500D01*
X25007649Y-30670500D01*
X25212351Y-30670500D01*
X25212352Y-30670500D01*
X25414534Y-30638477D01*
X25609219Y-30575220D01*
X25791610Y-30482287D01*
X25884590Y-30414732D01*
X25957213Y-30361971D01*
X25957215Y-30361968D01*
X25957219Y-30361966D01*
X26101966Y-30217219D01*
X26101968Y-30217215D01*
X26101971Y-30217213D01*
X26222284Y-30051614D01*
X26222286Y-30051611D01*
X26222287Y-30051610D01*
X26269516Y-29958917D01*
X26317489Y-29908123D01*
X26385310Y-29891328D01*
X26451445Y-29913865D01*
X26490485Y-29958919D01*
X26537715Y-30051614D01*
X26658028Y-30217213D01*
X26802786Y-30361971D01*
X26957749Y-30474556D01*
X26968390Y-30482287D01*
X27084607Y-30541503D01*
X27150776Y-30575218D01*
X27150778Y-30575218D01*
X27150781Y-30575220D01*
X27255137Y-30609127D01*
X27345465Y-30638477D01*
X27446557Y-30654488D01*
X27547648Y-30670500D01*
X27547649Y-30670500D01*
X27752351Y-30670500D01*
X27752352Y-30670500D01*
X27954534Y-30638477D01*
X28149219Y-30575220D01*
X28331610Y-30482287D01*
X28424590Y-30414732D01*
X28497213Y-30361971D01*
X28497215Y-30361968D01*
X28497219Y-30361966D01*
X28641966Y-30217219D01*
X28641968Y-30217215D01*
X28641971Y-30217213D01*
X28762284Y-30051614D01*
X28762286Y-30051611D01*
X28762287Y-30051610D01*
X28809516Y-29958917D01*
X28857489Y-29908123D01*
X28925310Y-29891328D01*
X28991445Y-29913865D01*
X29030485Y-29958919D01*
X29077715Y-30051614D01*
X29198028Y-30217213D01*
X29342786Y-30361971D01*
X29497749Y-30474556D01*
X29508390Y-30482287D01*
X29624607Y-30541503D01*
X29690776Y-30575218D01*
X29690778Y-30575218D01*
X29690781Y-30575220D01*
X29795137Y-30609127D01*
X29885465Y-30638477D01*
X29986557Y-30654488D01*
X30087648Y-30670500D01*
X30087649Y-30670500D01*
X30292351Y-30670500D01*
X30292352Y-30670500D01*
X30494534Y-30638477D01*
X30689219Y-30575220D01*
X30871610Y-30482287D01*
X30964590Y-30414732D01*
X31037213Y-30361971D01*
X31037215Y-30361968D01*
X31037219Y-30361966D01*
X31181966Y-30217219D01*
X31181968Y-30217215D01*
X31181971Y-30217213D01*
X31302284Y-30051614D01*
X31302286Y-30051611D01*
X31302287Y-30051610D01*
X31349516Y-29958917D01*
X31397489Y-29908123D01*
X31465310Y-29891328D01*
X31531445Y-29913865D01*
X31570485Y-29958919D01*
X31617715Y-30051614D01*
X31738028Y-30217213D01*
X31882786Y-30361971D01*
X32037749Y-30474556D01*
X32048390Y-30482287D01*
X32164607Y-30541503D01*
X32230776Y-30575218D01*
X32230778Y-30575218D01*
X32230781Y-30575220D01*
X32335137Y-30609127D01*
X32425465Y-30638477D01*
X32526557Y-30654488D01*
X32627648Y-30670500D01*
X32627649Y-30670500D01*
X32832351Y-30670500D01*
X32832352Y-30670500D01*
X33034534Y-30638477D01*
X33229219Y-30575220D01*
X33411610Y-30482287D01*
X33504590Y-30414732D01*
X33577213Y-30361971D01*
X33577215Y-30361968D01*
X33577219Y-30361966D01*
X33721966Y-30217219D01*
X33721968Y-30217215D01*
X33721971Y-30217213D01*
X33842284Y-30051614D01*
X33842286Y-30051611D01*
X33842287Y-30051610D01*
X33889795Y-29958369D01*
X33937770Y-29907574D01*
X34005591Y-29890779D01*
X34071725Y-29913316D01*
X34110765Y-29958370D01*
X34158140Y-30051349D01*
X34278417Y-30216894D01*
X34278417Y-30216895D01*
X34423104Y-30361582D01*
X34588650Y-30481859D01*
X34770968Y-30574754D01*
X34965578Y-30637988D01*
X35020000Y-30646607D01*
X35020000Y-28818482D01*
X35038409Y-28829111D01*
X35191009Y-28870000D01*
X35348991Y-28870000D01*
X35501591Y-28829111D01*
X35520000Y-28818482D01*
X35520000Y-30646606D01*
X35574421Y-30637988D01*
X35769031Y-30574754D01*
X35951349Y-30481859D01*
X36116894Y-30361582D01*
X36116895Y-30361582D01*
X36261582Y-30216895D01*
X36261582Y-30216894D01*
X36381861Y-30051347D01*
X36429234Y-29958371D01*
X36477208Y-29907575D01*
X36545028Y-29890779D01*
X36611164Y-29913316D01*
X36650203Y-29958369D01*
X36697713Y-30051611D01*
X36818028Y-30217213D01*
X36962786Y-30361971D01*
X37117749Y-30474556D01*
X37128390Y-30482287D01*
X37244607Y-30541503D01*
X37310776Y-30575218D01*
X37310778Y-30575218D01*
X37310781Y-30575220D01*
X37415137Y-30609127D01*
X37505465Y-30638477D01*
X37606557Y-30654488D01*
X37707648Y-30670500D01*
X37707649Y-30670500D01*
X37912351Y-30670500D01*
X37912352Y-30670500D01*
X38114534Y-30638477D01*
X38309219Y-30575220D01*
X38491610Y-30482287D01*
X38584590Y-30414732D01*
X38657213Y-30361971D01*
X38657215Y-30361968D01*
X38657219Y-30361966D01*
X38801966Y-30217219D01*
X38801968Y-30217215D01*
X38801971Y-30217213D01*
X38922284Y-30051614D01*
X38922286Y-30051611D01*
X38922287Y-30051610D01*
X38969516Y-29958917D01*
X39017489Y-29908123D01*
X39085310Y-29891328D01*
X39151445Y-29913865D01*
X39190485Y-29958919D01*
X39237715Y-30051614D01*
X39358028Y-30217213D01*
X39502786Y-30361971D01*
X39657749Y-30474556D01*
X39668390Y-30482287D01*
X39784607Y-30541503D01*
X39850776Y-30575218D01*
X39850778Y-30575218D01*
X39850781Y-30575220D01*
X39955137Y-30609127D01*
X40045465Y-30638477D01*
X40146557Y-30654488D01*
X40247648Y-30670500D01*
X40247649Y-30670500D01*
X40452351Y-30670500D01*
X40452352Y-30670500D01*
X40654534Y-30638477D01*
X40849219Y-30575220D01*
X41031610Y-30482287D01*
X41124590Y-30414732D01*
X41197213Y-30361971D01*
X41197215Y-30361968D01*
X41197219Y-30361966D01*
X41341966Y-30217219D01*
X41341968Y-30217215D01*
X41341971Y-30217213D01*
X41462284Y-30051614D01*
X41462286Y-30051611D01*
X41462287Y-30051610D01*
X41509795Y-29958369D01*
X41557770Y-29907574D01*
X41625591Y-29890779D01*
X41691725Y-29913316D01*
X41730765Y-29958370D01*
X41778140Y-30051349D01*
X41898417Y-30216894D01*
X41898417Y-30216895D01*
X42043104Y-30361582D01*
X42208650Y-30481859D01*
X42390968Y-30574754D01*
X42585578Y-30637988D01*
X42640000Y-30646607D01*
X42640000Y-28818482D01*
X42658409Y-28829111D01*
X42811009Y-28870000D01*
X42968991Y-28870000D01*
X43121591Y-28829111D01*
X43140000Y-28818482D01*
X43140000Y-30646606D01*
X43194421Y-30637988D01*
X43389031Y-30574754D01*
X43571349Y-30481859D01*
X43736894Y-30361582D01*
X43736895Y-30361582D01*
X43881582Y-30216895D01*
X43881582Y-30216894D01*
X44001861Y-30051347D01*
X44049234Y-29958371D01*
X44097208Y-29907575D01*
X44165028Y-29890779D01*
X44231164Y-29913316D01*
X44270203Y-29958369D01*
X44317713Y-30051611D01*
X44438028Y-30217213D01*
X44582786Y-30361971D01*
X44737749Y-30474556D01*
X44748390Y-30482287D01*
X44864607Y-30541503D01*
X44930776Y-30575218D01*
X44930778Y-30575218D01*
X44930781Y-30575220D01*
X45035137Y-30609127D01*
X45125465Y-30638477D01*
X45226557Y-30654488D01*
X45327648Y-30670500D01*
X45327649Y-30670500D01*
X45532351Y-30670500D01*
X45532352Y-30670500D01*
X45734534Y-30638477D01*
X45929219Y-30575220D01*
X46111610Y-30482287D01*
X46204590Y-30414732D01*
X46277213Y-30361971D01*
X46277215Y-30361968D01*
X46277219Y-30361966D01*
X46421966Y-30217219D01*
X46421968Y-30217215D01*
X46421971Y-30217213D01*
X46542284Y-30051614D01*
X46542286Y-30051611D01*
X46542287Y-30051610D01*
X46589516Y-29958917D01*
X46637489Y-29908123D01*
X46705310Y-29891328D01*
X46771445Y-29913865D01*
X46810485Y-29958919D01*
X46857715Y-30051614D01*
X46978028Y-30217213D01*
X47122786Y-30361971D01*
X47277749Y-30474556D01*
X47288390Y-30482287D01*
X47404607Y-30541503D01*
X47470776Y-30575218D01*
X47470778Y-30575218D01*
X47470781Y-30575220D01*
X47575137Y-30609127D01*
X47665465Y-30638477D01*
X47766557Y-30654488D01*
X47867648Y-30670500D01*
X47867649Y-30670500D01*
X48072351Y-30670500D01*
X48072352Y-30670500D01*
X48274534Y-30638477D01*
X48469219Y-30575220D01*
X48651610Y-30482287D01*
X48744590Y-30414732D01*
X48817213Y-30361971D01*
X48817215Y-30361968D01*
X48817219Y-30361966D01*
X48961966Y-30217219D01*
X48961968Y-30217215D01*
X48961971Y-30217213D01*
X49082284Y-30051614D01*
X49082286Y-30051611D01*
X49082287Y-30051610D01*
X49129516Y-29958917D01*
X49177489Y-29908123D01*
X49245310Y-29891328D01*
X49311445Y-29913865D01*
X49350485Y-29958919D01*
X49397715Y-30051614D01*
X49518028Y-30217213D01*
X49662786Y-30361971D01*
X49817749Y-30474556D01*
X49828390Y-30482287D01*
X49944607Y-30541503D01*
X50010776Y-30575218D01*
X50010778Y-30575218D01*
X50010781Y-30575220D01*
X50115137Y-30609127D01*
X50205465Y-30638477D01*
X50306557Y-30654488D01*
X50407648Y-30670500D01*
X50407649Y-30670500D01*
X50612351Y-30670500D01*
X50612352Y-30670500D01*
X50814534Y-30638477D01*
X51009219Y-30575220D01*
X51191610Y-30482287D01*
X51284590Y-30414732D01*
X51357213Y-30361971D01*
X51357215Y-30361968D01*
X51357219Y-30361966D01*
X51501966Y-30217219D01*
X51501968Y-30217215D01*
X51501971Y-30217213D01*
X51622284Y-30051614D01*
X51622286Y-30051611D01*
X51622287Y-30051610D01*
X51669795Y-29958369D01*
X51717770Y-29907574D01*
X51785591Y-29890779D01*
X51851725Y-29913316D01*
X51890765Y-29958370D01*
X51938140Y-30051349D01*
X52058417Y-30216894D01*
X52058417Y-30216895D01*
X52203104Y-30361582D01*
X52368650Y-30481859D01*
X52550968Y-30574754D01*
X52745578Y-30637988D01*
X52800000Y-30646607D01*
X52800000Y-28818482D01*
X52818409Y-28829111D01*
X52971009Y-28870000D01*
X53128991Y-28870000D01*
X53281591Y-28829111D01*
X53300000Y-28818482D01*
X53300000Y-30646606D01*
X53354421Y-30637988D01*
X53549031Y-30574754D01*
X53731349Y-30481859D01*
X53896894Y-30361582D01*
X53896895Y-30361582D01*
X54041582Y-30216895D01*
X54041582Y-30216894D01*
X54161861Y-30051347D01*
X54209234Y-29958371D01*
X54257208Y-29907575D01*
X54325028Y-29890779D01*
X54391164Y-29913316D01*
X54430203Y-29958369D01*
X54477713Y-30051611D01*
X54598028Y-30217213D01*
X54742786Y-30361971D01*
X54897749Y-30474556D01*
X54908390Y-30482287D01*
X55024607Y-30541503D01*
X55090776Y-30575218D01*
X55090778Y-30575218D01*
X55090781Y-30575220D01*
X55195137Y-30609127D01*
X55285465Y-30638477D01*
X55386557Y-30654488D01*
X55487648Y-30670500D01*
X55487649Y-30670500D01*
X55692351Y-30670500D01*
X55692352Y-30670500D01*
X55894534Y-30638477D01*
X56089219Y-30575220D01*
X56271610Y-30482287D01*
X56364590Y-30414732D01*
X56437213Y-30361971D01*
X56437215Y-30361968D01*
X56437219Y-30361966D01*
X56581966Y-30217219D01*
X56581968Y-30217215D01*
X56581971Y-30217213D01*
X56702284Y-30051614D01*
X56702286Y-30051611D01*
X56702287Y-30051610D01*
X56749516Y-29958917D01*
X56797489Y-29908123D01*
X56865310Y-29891328D01*
X56931445Y-29913865D01*
X56970485Y-29958919D01*
X57017715Y-30051614D01*
X57138028Y-30217213D01*
X57282786Y-30361971D01*
X57437749Y-30474556D01*
X57448390Y-30482287D01*
X57564607Y-30541503D01*
X57630776Y-30575218D01*
X57630778Y-30575218D01*
X57630781Y-30575220D01*
X57735137Y-30609127D01*
X57825465Y-30638477D01*
X57926557Y-30654488D01*
X58027648Y-30670500D01*
X58027649Y-30670500D01*
X58232351Y-30670500D01*
X58232352Y-30670500D01*
X58434534Y-30638477D01*
X58629219Y-30575220D01*
X58811610Y-30482287D01*
X58904590Y-30414732D01*
X58977213Y-30361971D01*
X58977215Y-30361968D01*
X58977219Y-30361966D01*
X59121966Y-30217219D01*
X59121968Y-30217215D01*
X59121971Y-30217213D01*
X59174732Y-30144590D01*
X59242287Y-30051610D01*
X59335220Y-29869219D01*
X59398477Y-29674534D01*
X59430500Y-29472352D01*
X59430500Y-27867648D01*
X59418183Y-27789881D01*
X59398477Y-27665465D01*
X59335218Y-27470776D01*
X59263743Y-27330500D01*
X59242287Y-27288390D01*
X59203657Y-27235220D01*
X59121971Y-27122786D01*
X59086866Y-27087681D01*
X59085624Y-27085406D01*
X59083400Y-27084073D01*
X59068967Y-27054902D01*
X59053381Y-27026358D01*
X59053565Y-27023773D01*
X59052416Y-27021449D01*
X59056044Y-26989118D01*
X59058365Y-26956666D01*
X59060008Y-26953796D01*
X59060208Y-26952015D01*
X59065768Y-26943734D01*
X59078358Y-26921746D01*
X59082367Y-26916817D01*
X59121966Y-26877219D01*
X59125135Y-26872857D01*
X61384500Y-26872857D01*
X61384500Y-27127142D01*
X61416708Y-27330500D01*
X61424279Y-27378297D01*
X61502858Y-27620137D01*
X61618301Y-27846706D01*
X61767766Y-28052427D01*
X61947573Y-28232234D01*
X62153294Y-28381699D01*
X62379863Y-28497142D01*
X62621703Y-28575721D01*
X62872857Y-28615500D01*
X62872858Y-28615500D01*
X63127142Y-28615500D01*
X63127143Y-28615500D01*
X63378297Y-28575721D01*
X63620137Y-28497142D01*
X63846706Y-28381699D01*
X64052427Y-28232234D01*
X64232234Y-28052427D01*
X64381699Y-27846706D01*
X64497142Y-27620137D01*
X64575721Y-27378297D01*
X64615500Y-27127143D01*
X64615500Y-26872857D01*
X64575721Y-26621703D01*
X64497142Y-26379863D01*
X64381699Y-26153294D01*
X64232234Y-25947573D01*
X64052427Y-25767766D01*
X63846706Y-25618301D01*
X63620137Y-25502858D01*
X63378297Y-25424279D01*
X63378295Y-25424278D01*
X63378294Y-25424278D01*
X63185363Y-25393721D01*
X63127143Y-25384500D01*
X62872857Y-25384500D01*
X62814636Y-25393721D01*
X62621706Y-25424278D01*
X62379860Y-25502859D01*
X62153293Y-25618301D01*
X61947570Y-25767768D01*
X61767768Y-25947570D01*
X61618301Y-26153293D01*
X61502859Y-26379860D01*
X61424278Y-26621706D01*
X61384500Y-26872857D01*
X59125135Y-26872857D01*
X59242287Y-26711610D01*
X59335220Y-26529219D01*
X59398477Y-26334534D01*
X59430500Y-26132352D01*
X59430500Y-24527648D01*
X59400000Y-24335081D01*
X59398477Y-24325465D01*
X59338390Y-24140537D01*
X59335220Y-24130781D01*
X59335218Y-24130778D01*
X59335218Y-24130776D01*
X59289515Y-24041080D01*
X59242287Y-23948390D01*
X59217665Y-23914500D01*
X59121971Y-23782786D01*
X58977213Y-23638028D01*
X58811613Y-23517715D01*
X58811612Y-23517714D01*
X58811610Y-23517713D01*
X58751902Y-23487290D01*
X58629223Y-23424781D01*
X58434534Y-23361522D01*
X58249784Y-23332261D01*
X58232352Y-23329500D01*
X58027648Y-23329500D01*
X58010216Y-23332261D01*
X57825465Y-23361522D01*
X57630776Y-23424781D01*
X57448386Y-23517715D01*
X57282786Y-23638028D01*
X57138028Y-23782786D01*
X57017715Y-23948386D01*
X56970485Y-24041080D01*
X56922510Y-24091876D01*
X56854689Y-24108671D01*
X56788554Y-24086134D01*
X56749515Y-24041080D01*
X56702419Y-23948650D01*
X56702287Y-23948390D01*
X56677665Y-23914500D01*
X56581971Y-23782786D01*
X56541901Y-23742716D01*
X56508416Y-23681393D01*
X56513400Y-23611701D01*
X56529261Y-23582153D01*
X56607813Y-23474036D01*
X56700746Y-23291645D01*
X56764003Y-23096960D01*
X56768579Y-23068062D01*
X56798507Y-23004932D01*
X56857817Y-22968000D01*
X56919443Y-22966757D01*
X57033495Y-22993582D01*
X57033507Y-22993584D01*
X57125931Y-22999999D01*
X57499999Y-22999999D01*
X57500000Y-22999998D01*
X57500000Y-21798482D01*
X57518409Y-21809111D01*
X57671009Y-21850000D01*
X57828991Y-21850000D01*
X57981591Y-21809111D01*
X58000000Y-21798482D01*
X58000000Y-22999999D01*
X58374068Y-22999999D01*
X58466491Y-22993584D01*
X58466507Y-22993582D01*
X58682975Y-22942669D01*
X58682991Y-22942663D01*
X58886424Y-22852839D01*
X59069899Y-22727156D01*
X59227156Y-22569899D01*
X59352839Y-22386424D01*
X59442663Y-22182991D01*
X59442669Y-22182975D01*
X59493582Y-21966508D01*
X59493584Y-21966492D01*
X59500000Y-21874068D01*
X59500000Y-21500000D01*
X58298482Y-21500000D01*
X58309111Y-21481591D01*
X58350000Y-21328991D01*
X58350000Y-21171009D01*
X58309111Y-21018409D01*
X58298482Y-21000000D01*
X59499999Y-21000000D01*
X59499999Y-20625932D01*
X59499999Y-20625931D01*
X62500000Y-20625931D01*
X62500000Y-21000000D01*
X63701518Y-21000000D01*
X63690889Y-21018409D01*
X63650000Y-21171009D01*
X63650000Y-21328991D01*
X63690889Y-21481591D01*
X63701518Y-21500000D01*
X62500001Y-21500000D01*
X62500001Y-21874067D01*
X62506415Y-21966491D01*
X62506417Y-21966507D01*
X62557330Y-22182975D01*
X62557336Y-22182991D01*
X62647160Y-22386424D01*
X62772843Y-22569899D01*
X62930100Y-22727156D01*
X63113575Y-22852839D01*
X63317008Y-22942663D01*
X63317024Y-22942669D01*
X63533491Y-22993582D01*
X63533507Y-22993584D01*
X63625931Y-22999999D01*
X63999999Y-22999999D01*
X64000000Y-22999998D01*
X64000000Y-21798482D01*
X64018409Y-21809111D01*
X64171009Y-21850000D01*
X64328991Y-21850000D01*
X64481591Y-21809111D01*
X64500000Y-21798482D01*
X64500000Y-22999999D01*
X64874068Y-22999999D01*
X64966491Y-22993584D01*
X64966507Y-22993582D01*
X65182975Y-22942669D01*
X65182991Y-22942663D01*
X65386424Y-22852839D01*
X65569899Y-22727156D01*
X65727156Y-22569899D01*
X65852839Y-22386424D01*
X65942663Y-22182991D01*
X65942669Y-22182975D01*
X65993582Y-21966508D01*
X65993584Y-21966492D01*
X66000000Y-21874068D01*
X66000000Y-21500000D01*
X64798482Y-21500000D01*
X64809111Y-21481591D01*
X64850000Y-21328991D01*
X64850000Y-21171009D01*
X64809111Y-21018409D01*
X64798482Y-21000000D01*
X65999999Y-21000000D01*
X65999999Y-20625932D01*
X65993584Y-20533508D01*
X65993582Y-20533492D01*
X65942669Y-20317024D01*
X65942663Y-20317008D01*
X65852839Y-20113575D01*
X65727156Y-19930100D01*
X65569899Y-19772843D01*
X65386424Y-19647160D01*
X65182991Y-19557336D01*
X65182975Y-19557330D01*
X64966508Y-19506417D01*
X64966492Y-19506415D01*
X64874069Y-19500000D01*
X64500000Y-19500000D01*
X64500000Y-20701517D01*
X64481591Y-20690889D01*
X64328991Y-20650000D01*
X64171009Y-20650000D01*
X64018409Y-20690889D01*
X64000000Y-20701517D01*
X64000000Y-19500000D01*
X63625932Y-19500000D01*
X63533508Y-19506415D01*
X63533492Y-19506417D01*
X63317024Y-19557330D01*
X63317008Y-19557336D01*
X63113575Y-19647160D01*
X62930100Y-19772843D01*
X62772843Y-19930100D01*
X62647160Y-20113575D01*
X62557336Y-20317008D01*
X62557330Y-20317024D01*
X62506417Y-20533491D01*
X62506415Y-20533507D01*
X62500000Y-20625931D01*
X59499999Y-20625931D01*
X59493584Y-20533508D01*
X59493582Y-20533492D01*
X59442669Y-20317024D01*
X59442663Y-20317008D01*
X59352839Y-20113575D01*
X59227156Y-19930100D01*
X59069899Y-19772843D01*
X58886424Y-19647160D01*
X58682991Y-19557336D01*
X58682975Y-19557330D01*
X58466508Y-19506417D01*
X58466492Y-19506415D01*
X58374069Y-19500000D01*
X58000000Y-19500000D01*
X58000000Y-20701517D01*
X57981591Y-20690889D01*
X57828991Y-20650000D01*
X57671009Y-20650000D01*
X57518409Y-20690889D01*
X57500000Y-20701517D01*
X57500000Y-19500000D01*
X57125932Y-19500000D01*
X57033508Y-19506415D01*
X57033492Y-19506417D01*
X56817024Y-19557330D01*
X56817008Y-19557336D01*
X56613575Y-19647160D01*
X56430100Y-19772843D01*
X56272843Y-19930100D01*
X56147160Y-20113575D01*
X56057336Y-20317008D01*
X56057330Y-20317024D01*
X56006417Y-20533491D01*
X56006415Y-20533507D01*
X56000000Y-20625931D01*
X56000000Y-21000000D01*
X57201518Y-21000000D01*
X57190889Y-21018409D01*
X57150000Y-21171009D01*
X57150000Y-21328991D01*
X57190889Y-21481591D01*
X57201518Y-21500000D01*
X56000000Y-21500000D01*
X55986622Y-21513378D01*
X55925299Y-21546862D01*
X55860624Y-21543627D01*
X55800062Y-21523949D01*
X55648854Y-21500000D01*
X55597878Y-21491926D01*
X55393174Y-21491926D01*
X55365530Y-21496304D01*
X55190992Y-21523948D01*
X55137179Y-21541433D01*
X55067338Y-21543427D01*
X55011181Y-21511181D01*
X55000000Y-21500000D01*
X53798482Y-21500000D01*
X53809111Y-21481591D01*
X53850000Y-21328991D01*
X53850000Y-21171009D01*
X53809111Y-21018409D01*
X53798482Y-21000000D01*
X54999999Y-21000000D01*
X54999999Y-20625932D01*
X54993584Y-20533508D01*
X54993582Y-20533492D01*
X54942669Y-20317024D01*
X54942663Y-20317008D01*
X54852839Y-20113575D01*
X54727156Y-19930100D01*
X54569899Y-19772843D01*
X54386424Y-19647160D01*
X54182991Y-19557336D01*
X54182975Y-19557330D01*
X53966508Y-19506417D01*
X53966492Y-19506415D01*
X53874069Y-19500000D01*
X53500000Y-19500000D01*
X53500000Y-20701517D01*
X53481591Y-20690889D01*
X53328991Y-20650000D01*
X53171009Y-20650000D01*
X53018409Y-20690889D01*
X53000000Y-20701517D01*
X53000000Y-19500000D01*
X52625932Y-19500000D01*
X52533508Y-19506415D01*
X52533492Y-19506417D01*
X52317024Y-19557330D01*
X52317008Y-19557336D01*
X52113575Y-19647160D01*
X51930100Y-19772843D01*
X51772843Y-19930100D01*
X51647160Y-20113575D01*
X51557336Y-20317008D01*
X51557330Y-20317024D01*
X51506417Y-20533491D01*
X51506415Y-20533507D01*
X51500000Y-20625931D01*
X51500000Y-21000000D01*
X52701518Y-21000000D01*
X52690889Y-21018409D01*
X52650000Y-21171009D01*
X52650000Y-21328991D01*
X52690889Y-21481591D01*
X52701518Y-21500000D01*
X51500001Y-21500000D01*
X51500001Y-21874067D01*
X51506415Y-21966491D01*
X51506417Y-21966507D01*
X51552188Y-22161110D01*
X51548375Y-22230876D01*
X51507450Y-22287505D01*
X51442405Y-22313018D01*
X51431482Y-22313500D01*
X48568518Y-22313500D01*
X48501479Y-22293815D01*
X48455724Y-22241011D01*
X48445780Y-22171853D01*
X48447812Y-22161110D01*
X48493582Y-21966508D01*
X48493584Y-21966492D01*
X48500000Y-21874068D01*
X48500000Y-21500000D01*
X47298482Y-21500000D01*
X47309111Y-21481591D01*
X47350000Y-21328991D01*
X47350000Y-21171009D01*
X47309111Y-21018409D01*
X47298482Y-21000000D01*
X48499999Y-21000000D01*
X48499999Y-20625932D01*
X48493584Y-20533508D01*
X48493582Y-20533492D01*
X48442669Y-20317024D01*
X48442663Y-20317008D01*
X48352839Y-20113575D01*
X48227156Y-19930100D01*
X48069899Y-19772843D01*
X47886424Y-19647160D01*
X47682991Y-19557336D01*
X47682975Y-19557330D01*
X47466508Y-19506417D01*
X47466492Y-19506415D01*
X47374069Y-19500000D01*
X47000000Y-19500000D01*
X47000000Y-20701517D01*
X46981591Y-20690889D01*
X46828991Y-20650000D01*
X46671009Y-20650000D01*
X46518409Y-20690889D01*
X46500000Y-20701517D01*
X46500000Y-19500000D01*
X46125932Y-19500000D01*
X46033508Y-19506415D01*
X46033492Y-19506417D01*
X45817024Y-19557330D01*
X45817008Y-19557336D01*
X45613575Y-19647160D01*
X45430100Y-19772843D01*
X45272843Y-19930100D01*
X45147160Y-20113575D01*
X45057336Y-20317008D01*
X45057330Y-20317024D01*
X45006417Y-20533491D01*
X45006415Y-20533507D01*
X45000000Y-20625931D01*
X45000000Y-21000000D01*
X46201518Y-21000000D01*
X46190889Y-21018409D01*
X46150000Y-21171009D01*
X46150000Y-21328991D01*
X46190889Y-21481591D01*
X46201518Y-21500000D01*
X45000001Y-21500000D01*
X45000001Y-21874067D01*
X45006415Y-21966491D01*
X45006417Y-21966507D01*
X45052188Y-22161110D01*
X45048375Y-22230876D01*
X45007450Y-22287505D01*
X44942405Y-22313018D01*
X44931482Y-22313500D01*
X38087116Y-22313500D01*
X38020077Y-22293815D01*
X37976631Y-22245794D01*
X37942286Y-22178388D01*
X37821971Y-22012786D01*
X37677213Y-21868028D01*
X37511613Y-21747715D01*
X37511612Y-21747714D01*
X37511610Y-21747713D01*
X37454653Y-21718691D01*
X37329223Y-21654781D01*
X37134534Y-21591522D01*
X36959995Y-21563878D01*
X36932352Y-21559500D01*
X36727648Y-21559500D01*
X36703329Y-21563351D01*
X36525465Y-21591522D01*
X36330776Y-21654781D01*
X36148386Y-21747715D01*
X35982786Y-21868028D01*
X35838028Y-22012786D01*
X35717715Y-22178386D01*
X35624781Y-22360776D01*
X35561522Y-22555465D01*
X35533041Y-22735289D01*
X35529500Y-22757648D01*
X35529500Y-22962352D01*
X35534447Y-22993584D01*
X35561523Y-23164535D01*
X35561524Y-23164542D01*
X35565765Y-23177593D01*
X35567760Y-23247434D01*
X35531679Y-23307267D01*
X35468978Y-23338094D01*
X35428436Y-23338383D01*
X35372352Y-23329500D01*
X35167648Y-23329500D01*
X35150216Y-23332261D01*
X34965465Y-23361522D01*
X34770776Y-23424781D01*
X34588386Y-23517715D01*
X34422786Y-23638028D01*
X34278028Y-23782786D01*
X34157715Y-23948386D01*
X34110485Y-24041080D01*
X34062510Y-24091876D01*
X33994689Y-24108671D01*
X33928554Y-24086134D01*
X33889515Y-24041080D01*
X33842419Y-23948650D01*
X33842287Y-23948390D01*
X33817665Y-23914500D01*
X33721971Y-23782786D01*
X33577213Y-23638028D01*
X33411613Y-23517715D01*
X33411612Y-23517714D01*
X33411610Y-23517713D01*
X33351902Y-23487290D01*
X33229223Y-23424781D01*
X33034534Y-23361522D01*
X32849784Y-23332261D01*
X32832352Y-23329500D01*
X32657047Y-23329500D01*
X32590008Y-23309815D01*
X32544253Y-23257011D01*
X32534309Y-23187853D01*
X32563334Y-23124297D01*
X32569366Y-23117819D01*
X32590225Y-23096960D01*
X32614966Y-23072219D01*
X32614968Y-23072215D01*
X32614971Y-23072213D01*
X32667732Y-22999590D01*
X32735287Y-22906610D01*
X32828220Y-22724219D01*
X32891477Y-22529534D01*
X32923500Y-22327352D01*
X32923500Y-22122648D01*
X32906099Y-22012786D01*
X32891477Y-21920465D01*
X32862127Y-21830137D01*
X32828220Y-21725781D01*
X32828218Y-21725778D01*
X32828218Y-21725776D01*
X32792043Y-21654780D01*
X32735287Y-21543390D01*
X32690388Y-21481591D01*
X32614971Y-21377786D01*
X32470213Y-21233028D01*
X32304613Y-21112715D01*
X32304612Y-21112714D01*
X32304610Y-21112713D01*
X32224581Y-21071936D01*
X32122223Y-21019781D01*
X31927534Y-20956522D01*
X31752995Y-20928878D01*
X31725352Y-20924500D01*
X31520648Y-20924500D01*
X31496329Y-20928351D01*
X31318465Y-20956522D01*
X31123776Y-21019781D01*
X30941391Y-21112712D01*
X30918411Y-21129408D01*
X30852605Y-21152886D01*
X30784551Y-21137059D01*
X30757847Y-21116769D01*
X26505777Y-16864699D01*
X26472292Y-16803376D01*
X26477276Y-16733684D01*
X26519148Y-16677751D01*
X26584612Y-16653334D01*
X26612854Y-16654544D01*
X26694648Y-16667500D01*
X26694649Y-16667500D01*
X26899344Y-16667500D01*
X26899352Y-16667500D01*
X26899359Y-16667498D01*
X26903592Y-16667165D01*
X26971972Y-16681518D01*
X27001023Y-16703101D01*
X27048707Y-16750786D01*
X27048711Y-16750789D01*
X27179814Y-16838390D01*
X27179818Y-16838392D01*
X27179821Y-16838394D01*
X27325503Y-16898738D01*
X27480153Y-16929499D01*
X27480157Y-16929500D01*
X27480158Y-16929500D01*
X39076562Y-16929500D01*
X39143601Y-16949185D01*
X39149446Y-16953181D01*
X39176620Y-16972923D01*
X39196390Y-16987287D01*
X39284296Y-17032077D01*
X39378776Y-17080218D01*
X39378778Y-17080218D01*
X39378781Y-17080220D01*
X39477849Y-17112409D01*
X39573465Y-17143477D01*
X39674557Y-17159488D01*
X39775648Y-17175500D01*
X39775649Y-17175500D01*
X39980351Y-17175500D01*
X39980352Y-17175500D01*
X40182534Y-17143477D01*
X40377219Y-17080220D01*
X40559610Y-16987287D01*
X40681487Y-16898739D01*
X40725213Y-16866971D01*
X40725215Y-16866968D01*
X40725219Y-16866966D01*
X40869966Y-16722219D01*
X40869968Y-16722215D01*
X40869971Y-16722213D01*
X40932987Y-16635477D01*
X40990287Y-16556610D01*
X41083220Y-16374219D01*
X41146477Y-16179534D01*
X41178500Y-15977352D01*
X41178500Y-15772648D01*
X41151232Y-15600485D01*
X41146477Y-15570465D01*
X41085461Y-15382678D01*
X41083220Y-15375781D01*
X41083218Y-15375778D01*
X41083218Y-15375776D01*
X41041900Y-15294686D01*
X40990287Y-15193390D01*
X40982556Y-15182749D01*
X40869971Y-15027786D01*
X40725213Y-14883028D01*
X40559613Y-14762715D01*
X40559612Y-14762714D01*
X40559610Y-14762713D01*
X40490583Y-14727542D01*
X40377223Y-14669781D01*
X40182534Y-14606522D01*
X40007995Y-14578878D01*
X39980352Y-14574500D01*
X39775648Y-14574500D01*
X39751329Y-14578351D01*
X39573465Y-14606522D01*
X39378776Y-14669781D01*
X39196386Y-14762715D01*
X39030786Y-14883028D01*
X38886028Y-15027786D01*
X38765713Y-15193388D01*
X38731369Y-15260794D01*
X38683395Y-15311591D01*
X38620884Y-15328500D01*
X33586911Y-15328500D01*
X33519872Y-15308815D01*
X33474117Y-15256011D01*
X33464173Y-15186853D01*
X33493198Y-15123297D01*
X33524911Y-15097113D01*
X33663803Y-15016924D01*
X33683822Y-15001563D01*
X33871851Y-14857282D01*
X33871855Y-14857277D01*
X33871860Y-14857274D01*
X34057274Y-14671860D01*
X34057277Y-14671855D01*
X34057282Y-14671851D01*
X34216924Y-14463803D01*
X34348043Y-14236697D01*
X34448398Y-13994419D01*
X34516270Y-13741116D01*
X34550500Y-13481120D01*
X34550500Y-13218880D01*
X34516270Y-12958884D01*
X34448398Y-12705581D01*
X34427584Y-12655332D01*
X34348046Y-12463309D01*
X34348041Y-12463299D01*
X34216924Y-12236196D01*
X34057281Y-12028148D01*
X34057274Y-12028140D01*
X33871860Y-11842726D01*
X33871851Y-11842718D01*
X33663803Y-11683075D01*
X33436700Y-11551958D01*
X33436690Y-11551953D01*
X33194428Y-11451605D01*
X33194421Y-11451603D01*
X33194419Y-11451602D01*
X32941116Y-11383730D01*
X32908312Y-11379411D01*
X32844416Y-11351143D01*
X32805946Y-11292818D01*
X32800500Y-11256472D01*
X32800500Y-8079996D01*
X32820185Y-8012957D01*
X32836819Y-7992315D01*
X33007274Y-7821860D01*
X33007277Y-7821855D01*
X33007282Y-7821851D01*
X33073728Y-7735258D01*
X36499500Y-7735258D01*
X36499500Y-9964741D01*
X36520114Y-10121311D01*
X36529452Y-10192238D01*
X36588842Y-10413887D01*
X36676650Y-10625876D01*
X36676657Y-10625890D01*
X36791392Y-10824617D01*
X36931081Y-11006661D01*
X36931089Y-11006670D01*
X37093330Y-11168911D01*
X37093338Y-11168918D01*
X37275382Y-11308607D01*
X37275385Y-11308608D01*
X37275388Y-11308611D01*
X37474112Y-11423344D01*
X37474117Y-11423346D01*
X37474123Y-11423349D01*
X37542340Y-11451605D01*
X37686113Y-11511158D01*
X37907762Y-11570548D01*
X38135266Y-11600500D01*
X38135273Y-11600500D01*
X38364727Y-11600500D01*
X38364734Y-11600500D01*
X38592238Y-11570548D01*
X38813887Y-11511158D01*
X39025888Y-11423344D01*
X39224612Y-11308611D01*
X39300014Y-11250752D01*
X39365182Y-11225558D01*
X39433627Y-11239596D01*
X39483617Y-11288409D01*
X39499500Y-11349128D01*
X39499500Y-11664741D01*
X39524446Y-11854215D01*
X39529452Y-11892238D01*
X39585975Y-12103186D01*
X39588842Y-12113887D01*
X39676650Y-12325876D01*
X39676657Y-12325890D01*
X39791392Y-12524617D01*
X39931081Y-12706661D01*
X39931089Y-12706670D01*
X40093330Y-12868911D01*
X40093338Y-12868918D01*
X40275382Y-13008607D01*
X40275385Y-13008608D01*
X40275388Y-13008611D01*
X40474112Y-13123344D01*
X40474117Y-13123346D01*
X40474123Y-13123349D01*
X40555459Y-13157039D01*
X40686113Y-13211158D01*
X40907762Y-13270548D01*
X41135266Y-13300500D01*
X41135273Y-13300500D01*
X41364727Y-13300500D01*
X41364734Y-13300500D01*
X41592238Y-13270548D01*
X41813887Y-13211158D01*
X42025888Y-13123344D01*
X42224612Y-13008611D01*
X42406661Y-12868919D01*
X42406665Y-12868914D01*
X42406670Y-12868911D01*
X42568910Y-12706670D01*
X42568919Y-12706661D01*
X42630886Y-12625904D01*
X44999500Y-12625904D01*
X44999500Y-13874095D01*
X45005918Y-13966561D01*
X45005920Y-13966577D01*
X45056854Y-14183135D01*
X45056860Y-14183151D01*
X45146721Y-14386668D01*
X45272457Y-14570220D01*
X45272462Y-14570226D01*
X45429773Y-14727537D01*
X45429779Y-14727542D01*
X45613329Y-14853277D01*
X45613330Y-14853277D01*
X45613331Y-14853278D01*
X45688720Y-14886566D01*
X45742097Y-14931652D01*
X45762624Y-14998438D01*
X45743786Y-15065720D01*
X45691562Y-15112136D01*
X45688720Y-15113434D01*
X45613331Y-15146721D01*
X45429779Y-15272457D01*
X45429773Y-15272462D01*
X45272462Y-15429773D01*
X45272457Y-15429779D01*
X45146721Y-15613331D01*
X45056860Y-15816848D01*
X45056854Y-15816864D01*
X45005920Y-16033422D01*
X45005918Y-16033438D01*
X44999500Y-16125904D01*
X44999500Y-17374095D01*
X45005918Y-17466561D01*
X45005920Y-17466577D01*
X45056854Y-17683135D01*
X45056860Y-17683151D01*
X45146721Y-17886668D01*
X45272457Y-18070220D01*
X45272462Y-18070226D01*
X45429773Y-18227537D01*
X45429779Y-18227542D01*
X45613329Y-18353277D01*
X45816857Y-18443143D01*
X45816861Y-18443144D01*
X45816864Y-18443145D01*
X46033422Y-18494079D01*
X46033427Y-18494079D01*
X46033433Y-18494081D01*
X46084808Y-18497647D01*
X46125904Y-18500500D01*
X46125908Y-18500500D01*
X47374096Y-18500500D01*
X47411082Y-18497932D01*
X47466567Y-18494081D01*
X47466573Y-18494079D01*
X47466577Y-18494079D01*
X47683135Y-18443145D01*
X47683135Y-18443144D01*
X47683143Y-18443143D01*
X47886671Y-18353277D01*
X48070221Y-18227542D01*
X48227542Y-18070221D01*
X48353277Y-17886671D01*
X48383144Y-17819028D01*
X48424921Y-17724414D01*
X48470007Y-17671037D01*
X48536793Y-17650510D01*
X48538355Y-17650500D01*
X51461645Y-17650500D01*
X51528684Y-17670185D01*
X51574439Y-17722989D01*
X51575079Y-17724414D01*
X51646721Y-17886668D01*
X51772457Y-18070220D01*
X51772462Y-18070226D01*
X51929773Y-18227537D01*
X51929779Y-18227542D01*
X52113329Y-18353277D01*
X52316857Y-18443143D01*
X52316861Y-18443144D01*
X52316864Y-18443145D01*
X52533422Y-18494079D01*
X52533427Y-18494079D01*
X52533433Y-18494081D01*
X52584808Y-18497647D01*
X52625904Y-18500500D01*
X52625908Y-18500500D01*
X53874096Y-18500500D01*
X53911082Y-18497932D01*
X53966567Y-18494081D01*
X53966573Y-18494079D01*
X53966577Y-18494079D01*
X54183135Y-18443145D01*
X54183135Y-18443144D01*
X54183143Y-18443143D01*
X54386671Y-18353277D01*
X54570221Y-18227542D01*
X54727542Y-18070221D01*
X54853277Y-17886671D01*
X54943143Y-17683143D01*
X54976276Y-17542269D01*
X54994079Y-17466577D01*
X54994079Y-17466573D01*
X54994081Y-17466567D01*
X55000500Y-17374092D01*
X55000500Y-16125908D01*
X54999290Y-16108482D01*
X54995690Y-16056609D01*
X54994081Y-16033433D01*
X54994079Y-16033427D01*
X54994079Y-16033422D01*
X54943145Y-15816864D01*
X54943144Y-15816861D01*
X54943143Y-15816857D01*
X54864698Y-15639195D01*
X54853278Y-15613331D01*
X54844478Y-15600485D01*
X54727542Y-15429779D01*
X54727537Y-15429773D01*
X54570226Y-15272462D01*
X54570220Y-15272457D01*
X54388598Y-15148043D01*
X54386671Y-15146723D01*
X54311277Y-15113433D01*
X54257903Y-15068349D01*
X54237375Y-15001563D01*
X54256213Y-14934280D01*
X54308436Y-14887864D01*
X54311235Y-14886585D01*
X54386671Y-14853277D01*
X54570221Y-14727542D01*
X54727542Y-14570221D01*
X54853277Y-14386671D01*
X54943143Y-14183143D01*
X54961537Y-14104935D01*
X54994079Y-13966577D01*
X54994079Y-13966573D01*
X54994081Y-13966567D01*
X55000500Y-13874092D01*
X55000500Y-12625908D01*
X55000500Y-12625904D01*
X55999500Y-12625904D01*
X55999500Y-13874095D01*
X56005918Y-13966561D01*
X56005920Y-13966577D01*
X56056854Y-14183135D01*
X56056860Y-14183151D01*
X56146721Y-14386668D01*
X56272457Y-14570220D01*
X56272462Y-14570226D01*
X56429773Y-14727537D01*
X56429779Y-14727542D01*
X56613329Y-14853277D01*
X56613330Y-14853277D01*
X56613331Y-14853278D01*
X56688720Y-14886566D01*
X56742097Y-14931652D01*
X56762624Y-14998438D01*
X56743786Y-15065720D01*
X56691562Y-15112136D01*
X56688720Y-15113434D01*
X56613331Y-15146721D01*
X56429779Y-15272457D01*
X56429773Y-15272462D01*
X56272462Y-15429773D01*
X56272457Y-15429779D01*
X56146721Y-15613331D01*
X56056860Y-15816848D01*
X56056854Y-15816864D01*
X56005920Y-16033422D01*
X56005918Y-16033438D01*
X55999500Y-16125904D01*
X55999500Y-17374095D01*
X56005918Y-17466561D01*
X56005920Y-17466577D01*
X56056854Y-17683135D01*
X56056860Y-17683151D01*
X56146721Y-17886668D01*
X56272457Y-18070220D01*
X56272462Y-18070226D01*
X56429773Y-18227537D01*
X56429779Y-18227542D01*
X56613329Y-18353277D01*
X56816857Y-18443143D01*
X56816861Y-18443144D01*
X56816864Y-18443145D01*
X57033422Y-18494079D01*
X57033427Y-18494079D01*
X57033433Y-18494081D01*
X57084808Y-18497647D01*
X57125904Y-18500500D01*
X57125908Y-18500500D01*
X58374096Y-18500500D01*
X58411082Y-18497932D01*
X58466567Y-18494081D01*
X58466573Y-18494079D01*
X58466577Y-18494079D01*
X58683135Y-18443145D01*
X58683135Y-18443144D01*
X58683143Y-18443143D01*
X58886671Y-18353277D01*
X59070221Y-18227542D01*
X59227542Y-18070221D01*
X59353277Y-17886671D01*
X59383144Y-17819028D01*
X59424921Y-17724414D01*
X59470007Y-17671037D01*
X59536793Y-17650510D01*
X59538355Y-17650500D01*
X62461645Y-17650500D01*
X62528684Y-17670185D01*
X62574439Y-17722989D01*
X62575079Y-17724414D01*
X62646721Y-17886668D01*
X62772457Y-18070220D01*
X62772462Y-18070226D01*
X62929773Y-18227537D01*
X62929779Y-18227542D01*
X63113329Y-18353277D01*
X63316857Y-18443143D01*
X63316861Y-18443144D01*
X63316864Y-18443145D01*
X63533422Y-18494079D01*
X63533427Y-18494079D01*
X63533433Y-18494081D01*
X63584808Y-18497647D01*
X63625904Y-18500500D01*
X63625908Y-18500500D01*
X64874096Y-18500500D01*
X64911082Y-18497932D01*
X64966567Y-18494081D01*
X64966573Y-18494079D01*
X64966577Y-18494079D01*
X65183135Y-18443145D01*
X65183135Y-18443144D01*
X65183143Y-18443143D01*
X65386671Y-18353277D01*
X65570221Y-18227542D01*
X65727542Y-18070221D01*
X65853277Y-17886671D01*
X65943143Y-17683143D01*
X65976276Y-17542269D01*
X65994079Y-17466577D01*
X65994079Y-17466573D01*
X65994081Y-17466567D01*
X66000500Y-17374092D01*
X66000500Y-16125908D01*
X65999290Y-16108482D01*
X65995690Y-16056609D01*
X65994081Y-16033433D01*
X65994079Y-16033427D01*
X65994079Y-16033422D01*
X65943145Y-15816864D01*
X65943144Y-15816861D01*
X65943143Y-15816857D01*
X65864698Y-15639195D01*
X65853278Y-15613331D01*
X65844478Y-15600485D01*
X65727542Y-15429779D01*
X65727537Y-15429773D01*
X65570226Y-15272462D01*
X65570220Y-15272457D01*
X65388598Y-15148043D01*
X65386671Y-15146723D01*
X65311277Y-15113433D01*
X65257903Y-15068349D01*
X65237375Y-15001563D01*
X65256213Y-14934280D01*
X65308436Y-14887864D01*
X65311235Y-14886585D01*
X65386671Y-14853277D01*
X65570221Y-14727542D01*
X65727542Y-14570221D01*
X65853277Y-14386671D01*
X65943143Y-14183143D01*
X65961537Y-14104935D01*
X65994079Y-13966577D01*
X65994079Y-13966573D01*
X65994081Y-13966567D01*
X66000500Y-13874092D01*
X66000500Y-12625908D01*
X65994081Y-12533433D01*
X65994079Y-12533427D01*
X65994079Y-12533422D01*
X65943145Y-12316864D01*
X65943144Y-12316861D01*
X65943143Y-12316857D01*
X65853277Y-12113329D01*
X65727542Y-11929779D01*
X65727537Y-11929773D01*
X65570226Y-11772462D01*
X65570220Y-11772457D01*
X65412954Y-11664727D01*
X65386671Y-11646723D01*
X65386670Y-11646722D01*
X65386668Y-11646721D01*
X65183151Y-11556860D01*
X65183135Y-11556854D01*
X64966577Y-11505920D01*
X64966561Y-11505918D01*
X64874096Y-11499500D01*
X64874092Y-11499500D01*
X63625908Y-11499500D01*
X63625904Y-11499500D01*
X63533438Y-11505918D01*
X63533422Y-11505920D01*
X63316864Y-11556854D01*
X63316848Y-11556860D01*
X63113331Y-11646721D01*
X62929779Y-11772457D01*
X62929773Y-11772462D01*
X62772462Y-11929773D01*
X62772457Y-11929779D01*
X62646721Y-12113331D01*
X62575079Y-12275586D01*
X62529993Y-12328963D01*
X62463207Y-12349490D01*
X62461645Y-12349500D01*
X59538355Y-12349500D01*
X59471316Y-12329815D01*
X59425561Y-12277011D01*
X59424921Y-12275586D01*
X59353278Y-12113331D01*
X59304321Y-12041863D01*
X59227542Y-11929779D01*
X59227537Y-11929773D01*
X59070226Y-11772462D01*
X59070220Y-11772457D01*
X58912954Y-11664727D01*
X58886671Y-11646723D01*
X58886670Y-11646722D01*
X58886668Y-11646721D01*
X58683151Y-11556860D01*
X58683135Y-11556854D01*
X58466577Y-11505920D01*
X58466561Y-11505918D01*
X58374096Y-11499500D01*
X58374092Y-11499500D01*
X57125908Y-11499500D01*
X57125904Y-11499500D01*
X57033438Y-11505918D01*
X57033422Y-11505920D01*
X56816864Y-11556854D01*
X56816848Y-11556860D01*
X56613331Y-11646721D01*
X56429779Y-11772457D01*
X56429773Y-11772462D01*
X56272462Y-11929773D01*
X56272457Y-11929779D01*
X56146721Y-12113331D01*
X56056860Y-12316848D01*
X56056854Y-12316864D01*
X56005920Y-12533422D01*
X56005918Y-12533438D01*
X55999500Y-12625904D01*
X55000500Y-12625904D01*
X54994081Y-12533433D01*
X54994079Y-12533427D01*
X54994079Y-12533422D01*
X54943145Y-12316864D01*
X54943144Y-12316861D01*
X54943143Y-12316857D01*
X54853277Y-12113329D01*
X54727542Y-11929779D01*
X54727537Y-11929773D01*
X54570226Y-11772462D01*
X54570220Y-11772457D01*
X54412954Y-11664727D01*
X54386671Y-11646723D01*
X54386670Y-11646722D01*
X54386668Y-11646721D01*
X54183151Y-11556860D01*
X54183135Y-11556854D01*
X53966577Y-11505920D01*
X53966561Y-11505918D01*
X53874096Y-11499500D01*
X53874092Y-11499500D01*
X52625908Y-11499500D01*
X52625904Y-11499500D01*
X52533438Y-11505918D01*
X52533422Y-11505920D01*
X52316864Y-11556854D01*
X52316848Y-11556860D01*
X52113331Y-11646721D01*
X51929779Y-11772457D01*
X51929773Y-11772462D01*
X51772462Y-11929773D01*
X51772457Y-11929779D01*
X51646721Y-12113331D01*
X51575079Y-12275586D01*
X51529993Y-12328963D01*
X51463207Y-12349490D01*
X51461645Y-12349500D01*
X48538355Y-12349500D01*
X48471316Y-12329815D01*
X48425561Y-12277011D01*
X48424921Y-12275586D01*
X48353278Y-12113331D01*
X48304321Y-12041863D01*
X48227542Y-11929779D01*
X48227537Y-11929773D01*
X48070226Y-11772462D01*
X48070220Y-11772457D01*
X47912954Y-11664727D01*
X47886671Y-11646723D01*
X47886670Y-11646722D01*
X47886668Y-11646721D01*
X47683151Y-11556860D01*
X47683135Y-11556854D01*
X47466577Y-11505920D01*
X47466561Y-11505918D01*
X47374096Y-11499500D01*
X47374092Y-11499500D01*
X46125908Y-11499500D01*
X46125904Y-11499500D01*
X46033438Y-11505918D01*
X46033422Y-11505920D01*
X45816864Y-11556854D01*
X45816848Y-11556860D01*
X45613331Y-11646721D01*
X45429779Y-11772457D01*
X45429773Y-11772462D01*
X45272462Y-11929773D01*
X45272457Y-11929779D01*
X45146721Y-12113331D01*
X45056860Y-12316848D01*
X45056854Y-12316864D01*
X45005920Y-12533422D01*
X45005918Y-12533438D01*
X44999500Y-12625904D01*
X42630886Y-12625904D01*
X42708611Y-12524612D01*
X42823344Y-12325888D01*
X42911158Y-12113887D01*
X42970548Y-11892238D01*
X43000500Y-11664734D01*
X43000500Y-9435266D01*
X42970548Y-9207762D01*
X42911158Y-8986113D01*
X42839520Y-8813164D01*
X42823349Y-8774123D01*
X42823346Y-8774117D01*
X42823344Y-8774112D01*
X42812736Y-8755739D01*
X42796262Y-8687841D01*
X42819113Y-8621814D01*
X42832435Y-8606063D01*
X43312568Y-8125931D01*
X45000000Y-8125931D01*
X45000000Y-8500000D01*
X46201518Y-8500000D01*
X46190889Y-8518409D01*
X46150000Y-8671009D01*
X46150000Y-8828991D01*
X46190889Y-8981591D01*
X46201518Y-9000000D01*
X45000001Y-9000000D01*
X45000001Y-9374067D01*
X45006415Y-9466491D01*
X45006417Y-9466507D01*
X45057330Y-9682975D01*
X45057336Y-9682991D01*
X45147160Y-9886424D01*
X45272843Y-10069899D01*
X45430100Y-10227156D01*
X45613575Y-10352839D01*
X45817008Y-10442663D01*
X45817024Y-10442669D01*
X46033491Y-10493582D01*
X46033507Y-10493584D01*
X46125931Y-10499999D01*
X46499999Y-10499999D01*
X46500000Y-10499998D01*
X46500000Y-9298482D01*
X46518409Y-9309111D01*
X46671009Y-9350000D01*
X46828991Y-9350000D01*
X46981591Y-9309111D01*
X47000000Y-9298482D01*
X47000000Y-10499999D01*
X47374068Y-10499999D01*
X47466491Y-10493584D01*
X47466507Y-10493582D01*
X47682975Y-10442669D01*
X47682991Y-10442663D01*
X47886424Y-10352839D01*
X48069899Y-10227156D01*
X48227156Y-10069899D01*
X48352839Y-9886424D01*
X48442663Y-9682991D01*
X48442669Y-9682975D01*
X48493582Y-9466508D01*
X48493584Y-9466492D01*
X48500000Y-9374068D01*
X48500000Y-9000000D01*
X47298482Y-9000000D01*
X47309111Y-8981591D01*
X47350000Y-8828991D01*
X47350000Y-8671009D01*
X47309111Y-8518409D01*
X47298482Y-8500000D01*
X48499999Y-8500000D01*
X48499999Y-8125932D01*
X48499999Y-8125931D01*
X51500000Y-8125931D01*
X51500000Y-8500000D01*
X52701518Y-8500000D01*
X52690889Y-8518409D01*
X52650000Y-8671009D01*
X52650000Y-8828991D01*
X52690889Y-8981591D01*
X52701518Y-9000000D01*
X51500001Y-9000000D01*
X51500001Y-9374067D01*
X51506415Y-9466491D01*
X51506417Y-9466507D01*
X51557330Y-9682975D01*
X51557336Y-9682991D01*
X51647160Y-9886424D01*
X51772843Y-10069899D01*
X51930100Y-10227156D01*
X52113575Y-10352839D01*
X52317008Y-10442663D01*
X52317024Y-10442669D01*
X52533491Y-10493582D01*
X52533507Y-10493584D01*
X52625931Y-10499999D01*
X52999999Y-10499999D01*
X53000000Y-10499998D01*
X53000000Y-9298482D01*
X53018409Y-9309111D01*
X53171009Y-9350000D01*
X53328991Y-9350000D01*
X53481591Y-9309111D01*
X53500000Y-9298482D01*
X53500000Y-10499999D01*
X53874068Y-10499999D01*
X53966491Y-10493584D01*
X53966507Y-10493582D01*
X54182975Y-10442669D01*
X54182991Y-10442663D01*
X54386424Y-10352839D01*
X54569899Y-10227156D01*
X54727156Y-10069899D01*
X54852839Y-9886424D01*
X54942663Y-9682991D01*
X54942669Y-9682975D01*
X54993582Y-9466508D01*
X54993584Y-9466492D01*
X55000000Y-9374068D01*
X55000000Y-9000000D01*
X53798482Y-9000000D01*
X53809111Y-8981591D01*
X53850000Y-8828991D01*
X53850000Y-8671009D01*
X53809111Y-8518409D01*
X53798482Y-8500000D01*
X54999999Y-8500000D01*
X54999999Y-8125932D01*
X54999999Y-8125931D01*
X56000000Y-8125931D01*
X56000000Y-8500000D01*
X57201518Y-8500000D01*
X57190889Y-8518409D01*
X57150000Y-8671009D01*
X57150000Y-8828991D01*
X57190889Y-8981591D01*
X57201518Y-9000000D01*
X56000001Y-9000000D01*
X56000001Y-9374067D01*
X56006415Y-9466491D01*
X56006417Y-9466507D01*
X56057330Y-9682975D01*
X56057336Y-9682991D01*
X56147160Y-9886424D01*
X56272843Y-10069899D01*
X56430100Y-10227156D01*
X56613575Y-10352839D01*
X56817008Y-10442663D01*
X56817024Y-10442669D01*
X57033491Y-10493582D01*
X57033507Y-10493584D01*
X57125931Y-10499999D01*
X57499999Y-10499999D01*
X57500000Y-10499998D01*
X57500000Y-9298482D01*
X57518409Y-9309111D01*
X57671009Y-9350000D01*
X57828991Y-9350000D01*
X57981591Y-9309111D01*
X58000000Y-9298482D01*
X58000000Y-10499999D01*
X58374068Y-10499999D01*
X58466491Y-10493584D01*
X58466507Y-10493582D01*
X58682975Y-10442669D01*
X58682991Y-10442663D01*
X58886424Y-10352839D01*
X59069899Y-10227156D01*
X59227156Y-10069899D01*
X59352839Y-9886424D01*
X59442663Y-9682991D01*
X59442669Y-9682975D01*
X59493582Y-9466508D01*
X59493584Y-9466492D01*
X59500000Y-9374068D01*
X59500000Y-9000000D01*
X58298482Y-9000000D01*
X58309111Y-8981591D01*
X58350000Y-8828991D01*
X58350000Y-8671009D01*
X58309111Y-8518409D01*
X58298482Y-8500000D01*
X59499999Y-8500000D01*
X59499999Y-8125932D01*
X59499999Y-8125931D01*
X62500000Y-8125931D01*
X62500000Y-8500000D01*
X63701518Y-8500000D01*
X63690889Y-8518409D01*
X63650000Y-8671009D01*
X63650000Y-8828991D01*
X63690889Y-8981591D01*
X63701518Y-9000000D01*
X62500001Y-9000000D01*
X62500001Y-9374067D01*
X62506415Y-9466491D01*
X62506417Y-9466507D01*
X62557330Y-9682975D01*
X62557336Y-9682991D01*
X62647160Y-9886424D01*
X62772843Y-10069899D01*
X62930100Y-10227156D01*
X63113575Y-10352839D01*
X63317008Y-10442663D01*
X63317024Y-10442669D01*
X63533491Y-10493582D01*
X63533507Y-10493584D01*
X63625931Y-10499999D01*
X63999999Y-10499999D01*
X64000000Y-10499998D01*
X64000000Y-9298482D01*
X64018409Y-9309111D01*
X64171009Y-9350000D01*
X64328991Y-9350000D01*
X64481591Y-9309111D01*
X64500000Y-9298482D01*
X64500000Y-10499999D01*
X64874068Y-10499999D01*
X64966491Y-10493584D01*
X64966507Y-10493582D01*
X65182975Y-10442669D01*
X65182991Y-10442663D01*
X65386424Y-10352839D01*
X65569899Y-10227156D01*
X65727156Y-10069899D01*
X65852839Y-9886424D01*
X65942663Y-9682991D01*
X65942669Y-9682975D01*
X65993582Y-9466508D01*
X65993584Y-9466492D01*
X66000000Y-9374068D01*
X66000000Y-9000000D01*
X64798482Y-9000000D01*
X64809111Y-8981591D01*
X64850000Y-8828991D01*
X64850000Y-8671009D01*
X64809111Y-8518409D01*
X64798482Y-8500000D01*
X65999999Y-8500000D01*
X65999999Y-8125932D01*
X65993584Y-8033508D01*
X65993582Y-8033492D01*
X65942669Y-7817024D01*
X65942663Y-7817008D01*
X65852839Y-7613575D01*
X65727156Y-7430100D01*
X65569899Y-7272843D01*
X65386424Y-7147160D01*
X65182991Y-7057336D01*
X65182975Y-7057330D01*
X64966508Y-7006417D01*
X64966492Y-7006415D01*
X64874069Y-7000000D01*
X64500000Y-7000000D01*
X64500000Y-8201517D01*
X64481591Y-8190889D01*
X64328991Y-8150000D01*
X64171009Y-8150000D01*
X64018409Y-8190889D01*
X64000000Y-8201517D01*
X64000000Y-7000000D01*
X63625932Y-7000000D01*
X63533508Y-7006415D01*
X63533492Y-7006417D01*
X63317024Y-7057330D01*
X63317008Y-7057336D01*
X63113575Y-7147160D01*
X62930100Y-7272843D01*
X62772843Y-7430100D01*
X62647160Y-7613575D01*
X62557336Y-7817008D01*
X62557330Y-7817024D01*
X62506417Y-8033491D01*
X62506415Y-8033507D01*
X62500000Y-8125931D01*
X59499999Y-8125931D01*
X59493584Y-8033508D01*
X59493582Y-8033492D01*
X59442669Y-7817024D01*
X59442663Y-7817008D01*
X59352839Y-7613575D01*
X59227156Y-7430100D01*
X59069899Y-7272843D01*
X58886424Y-7147160D01*
X58682991Y-7057336D01*
X58682975Y-7057330D01*
X58466508Y-7006417D01*
X58466492Y-7006415D01*
X58374069Y-7000000D01*
X58000000Y-7000000D01*
X58000000Y-8201517D01*
X57981591Y-8190889D01*
X57828991Y-8150000D01*
X57671009Y-8150000D01*
X57518409Y-8190889D01*
X57500000Y-8201517D01*
X57500000Y-7000000D01*
X57125932Y-7000000D01*
X57033508Y-7006415D01*
X57033492Y-7006417D01*
X56817024Y-7057330D01*
X56817008Y-7057336D01*
X56613575Y-7147160D01*
X56430100Y-7272843D01*
X56272843Y-7430100D01*
X56147160Y-7613575D01*
X56057336Y-7817008D01*
X56057330Y-7817024D01*
X56006417Y-8033491D01*
X56006415Y-8033507D01*
X56000000Y-8125931D01*
X54999999Y-8125931D01*
X54993584Y-8033508D01*
X54993582Y-8033492D01*
X54942669Y-7817024D01*
X54942663Y-7817008D01*
X54852839Y-7613575D01*
X54727156Y-7430100D01*
X54569899Y-7272843D01*
X54386424Y-7147160D01*
X54182991Y-7057336D01*
X54182975Y-7057330D01*
X53966508Y-7006417D01*
X53966492Y-7006415D01*
X53874069Y-7000000D01*
X53500000Y-7000000D01*
X53500000Y-8201517D01*
X53481591Y-8190889D01*
X53328991Y-8150000D01*
X53171009Y-8150000D01*
X53018409Y-8190889D01*
X53000000Y-8201517D01*
X53000000Y-7000000D01*
X52625932Y-7000000D01*
X52533508Y-7006415D01*
X52533492Y-7006417D01*
X52317024Y-7057330D01*
X52317008Y-7057336D01*
X52113575Y-7147160D01*
X51930100Y-7272843D01*
X51772843Y-7430100D01*
X51647160Y-7613575D01*
X51557336Y-7817008D01*
X51557330Y-7817024D01*
X51506417Y-8033491D01*
X51506415Y-8033507D01*
X51500000Y-8125931D01*
X48499999Y-8125931D01*
X48493584Y-8033508D01*
X48493582Y-8033492D01*
X48442669Y-7817024D01*
X48442663Y-7817008D01*
X48352839Y-7613575D01*
X48227156Y-7430100D01*
X48069899Y-7272843D01*
X47886424Y-7147160D01*
X47682991Y-7057336D01*
X47682975Y-7057330D01*
X47466508Y-7006417D01*
X47466492Y-7006415D01*
X47374069Y-7000000D01*
X47000000Y-7000000D01*
X47000000Y-8201517D01*
X46981591Y-8190889D01*
X46828991Y-8150000D01*
X46671009Y-8150000D01*
X46518409Y-8190889D01*
X46500000Y-8201517D01*
X46500000Y-7000000D01*
X46125932Y-7000000D01*
X46033508Y-7006415D01*
X46033492Y-7006417D01*
X45817024Y-7057330D01*
X45817008Y-7057336D01*
X45613575Y-7147160D01*
X45430100Y-7272843D01*
X45272843Y-7430100D01*
X45147160Y-7613575D01*
X45057336Y-7817008D01*
X45057330Y-7817024D01*
X45006417Y-8033491D01*
X45006415Y-8033507D01*
X45000000Y-8125931D01*
X43312568Y-8125931D01*
X44133464Y-7305036D01*
X44158016Y-7268289D01*
X44182738Y-7231292D01*
X44232014Y-7157545D01*
X44266573Y-7074112D01*
X44275386Y-7052836D01*
X44299895Y-6993666D01*
X44334500Y-6819692D01*
X44334500Y-6642308D01*
X44334500Y-5562047D01*
X44354185Y-5495008D01*
X44370819Y-5474366D01*
X44425966Y-5419219D01*
X44425968Y-5419215D01*
X44425971Y-5419213D01*
X44478732Y-5346590D01*
X44546287Y-5253610D01*
X44639220Y-5071219D01*
X44702477Y-4876534D01*
X44734500Y-4674352D01*
X44734500Y-4469648D01*
X44702477Y-4267466D01*
X44686935Y-4219634D01*
X44652385Y-4113299D01*
X44639220Y-4072781D01*
X44639218Y-4072778D01*
X44639218Y-4072776D01*
X44563555Y-3924280D01*
X44563554Y-3924278D01*
X44546286Y-3890388D01*
X44533549Y-3872857D01*
X61384500Y-3872857D01*
X61384500Y-4127143D01*
X61388318Y-4151250D01*
X61422117Y-4364651D01*
X61424279Y-4378297D01*
X61502858Y-4620137D01*
X61618301Y-4846706D01*
X61767766Y-5052427D01*
X61947573Y-5232234D01*
X62153294Y-5381699D01*
X62379863Y-5497142D01*
X62621703Y-5575721D01*
X62872857Y-5615500D01*
X62872858Y-5615500D01*
X63127142Y-5615500D01*
X63127143Y-5615500D01*
X63378297Y-5575721D01*
X63620137Y-5497142D01*
X63846706Y-5381699D01*
X64052427Y-5232234D01*
X64232234Y-5052427D01*
X64381699Y-4846706D01*
X64497142Y-4620137D01*
X64575721Y-4378297D01*
X64615500Y-4127143D01*
X64615500Y-3872857D01*
X64575721Y-3621703D01*
X64497142Y-3379863D01*
X64381699Y-3153294D01*
X64232234Y-2947573D01*
X64052427Y-2767766D01*
X63846706Y-2618301D01*
X63620137Y-2502858D01*
X63378297Y-2424279D01*
X63378295Y-2424278D01*
X63378294Y-2424278D01*
X63185363Y-2393721D01*
X63127143Y-2384500D01*
X62872857Y-2384500D01*
X62814636Y-2393721D01*
X62621706Y-2424278D01*
X62379860Y-2502859D01*
X62153293Y-2618301D01*
X61947570Y-2767768D01*
X61767768Y-2947570D01*
X61618301Y-3153293D01*
X61502859Y-3379860D01*
X61424278Y-3621706D01*
X61394214Y-3811523D01*
X61384500Y-3872857D01*
X44533549Y-3872857D01*
X44425971Y-3724786D01*
X44281213Y-3580028D01*
X44115613Y-3459715D01*
X44115612Y-3459714D01*
X44115610Y-3459713D01*
X44058653Y-3430691D01*
X43933223Y-3366781D01*
X43738534Y-3303522D01*
X43563995Y-3275878D01*
X43536352Y-3271500D01*
X43331648Y-3271500D01*
X43307329Y-3275351D01*
X43129465Y-3303522D01*
X42934776Y-3366781D01*
X42752386Y-3459715D01*
X42586786Y-3580028D01*
X42442028Y-3724786D01*
X42321715Y-3890386D01*
X42228781Y-4072776D01*
X42165522Y-4267465D01*
X42133500Y-4469648D01*
X42133500Y-4674351D01*
X42165522Y-4876534D01*
X42228781Y-5071223D01*
X42285405Y-5182351D01*
X42310821Y-5232234D01*
X42321715Y-5253613D01*
X42442028Y-5419213D01*
X42497181Y-5474366D01*
X42530666Y-5535689D01*
X42533500Y-5562047D01*
X42533500Y-6306637D01*
X42513815Y-6373676D01*
X42497181Y-6394318D01*
X41115203Y-7776295D01*
X41053880Y-7809780D01*
X41043709Y-7811553D01*
X40907769Y-7829451D01*
X40907767Y-7829451D01*
X40907762Y-7829452D01*
X40814076Y-7854554D01*
X40686112Y-7888842D01*
X40474123Y-7976650D01*
X40474108Y-7976657D01*
X40275388Y-8091388D01*
X40199986Y-8149246D01*
X40134816Y-8174440D01*
X40066372Y-8160401D01*
X40016382Y-8111587D01*
X40000500Y-8050870D01*
X40000500Y-7735272D01*
X40000499Y-7735258D01*
X39993924Y-7685319D01*
X39970548Y-7507762D01*
X39911158Y-7286113D01*
X39857903Y-7157545D01*
X39823349Y-7074123D01*
X39823346Y-7074117D01*
X39823344Y-7074112D01*
X39708611Y-6875388D01*
X39708608Y-6875385D01*
X39708607Y-6875382D01*
X39568918Y-6693338D01*
X39568911Y-6693330D01*
X39406670Y-6531089D01*
X39406661Y-6531081D01*
X39224617Y-6391392D01*
X39205751Y-6380500D01*
X39049870Y-6290502D01*
X39025890Y-6276657D01*
X39025876Y-6276650D01*
X38813887Y-6188842D01*
X38592238Y-6129452D01*
X38554215Y-6124446D01*
X38364741Y-6099500D01*
X38364734Y-6099500D01*
X38135266Y-6099500D01*
X38135258Y-6099500D01*
X37918715Y-6128009D01*
X37907762Y-6129452D01*
X37814076Y-6154554D01*
X37686112Y-6188842D01*
X37474123Y-6276650D01*
X37474109Y-6276657D01*
X37275382Y-6391392D01*
X37093338Y-6531081D01*
X36931081Y-6693338D01*
X36791392Y-6875382D01*
X36676657Y-7074109D01*
X36676650Y-7074123D01*
X36588842Y-7286112D01*
X36583771Y-7305038D01*
X36532975Y-7494616D01*
X36529453Y-7507759D01*
X36529451Y-7507770D01*
X36499500Y-7735258D01*
X33073728Y-7735258D01*
X33166924Y-7613803D01*
X33298043Y-7386697D01*
X33398398Y-7144419D01*
X33466270Y-6891116D01*
X33500500Y-6631120D01*
X33500500Y-4868880D01*
X33466270Y-4608884D01*
X33398398Y-4355581D01*
X33354665Y-4250000D01*
X33298046Y-4113309D01*
X33298041Y-4113299D01*
X33166924Y-3886196D01*
X33030894Y-3708920D01*
X33007282Y-3678149D01*
X33007281Y-3678148D01*
X33007274Y-3678140D01*
X32821860Y-3492726D01*
X32821851Y-3492718D01*
X32613803Y-3333075D01*
X32386700Y-3201958D01*
X32386690Y-3201953D01*
X32144428Y-3101605D01*
X32144421Y-3101603D01*
X32144419Y-3101602D01*
X31891116Y-3033730D01*
X31833339Y-3026123D01*
X31631127Y-2999500D01*
X31631120Y-2999500D01*
X31368880Y-2999500D01*
X31368872Y-2999500D01*
X31137772Y-3029926D01*
X31108884Y-3033730D01*
X30855581Y-3101602D01*
X30855571Y-3101605D01*
X30613309Y-3201953D01*
X30613299Y-3201958D01*
X30386196Y-3333075D01*
X30178148Y-3492718D01*
X29992718Y-3678148D01*
X29833075Y-3886196D01*
X29701958Y-4113299D01*
X29701953Y-4113309D01*
X29601605Y-4355571D01*
X29601602Y-4355581D01*
X29533730Y-4608884D01*
X29532485Y-4618342D01*
X29504217Y-4682238D01*
X29445892Y-4720709D01*
X29376028Y-4721539D01*
X29316805Y-4684466D01*
X29291615Y-4640473D01*
X29285008Y-4620139D01*
X29272220Y-4580781D01*
X29179287Y-4398390D01*
X29154778Y-4364656D01*
X29058971Y-4232786D01*
X28914213Y-4088028D01*
X28748613Y-3967715D01*
X28748612Y-3967714D01*
X28748610Y-3967713D01*
X28691653Y-3938691D01*
X28566223Y-3874781D01*
X28371534Y-3811522D01*
X28196995Y-3783878D01*
X28169352Y-3779500D01*
X27964648Y-3779500D01*
X27940329Y-3783351D01*
X27762465Y-3811522D01*
X27567776Y-3874781D01*
X27385386Y-3967715D01*
X27219786Y-4088028D01*
X27075028Y-4232786D01*
X26954715Y-4398386D01*
X26861781Y-4580776D01*
X26798522Y-4775465D01*
X26766500Y-4977648D01*
X26766500Y-5182351D01*
X26798522Y-5384534D01*
X26861781Y-5579223D01*
X26954715Y-5761613D01*
X27075028Y-5927213D01*
X27219786Y-6071971D01*
X27356038Y-6170962D01*
X27385390Y-6192287D01*
X27470630Y-6235719D01*
X27567776Y-6285218D01*
X27567778Y-6285218D01*
X27567781Y-6285220D01*
X27633696Y-6306637D01*
X27762465Y-6348477D01*
X27831853Y-6359467D01*
X27964648Y-6380500D01*
X27964649Y-6380500D01*
X28169350Y-6380500D01*
X28169352Y-6380500D01*
X28178322Y-6379079D01*
X28247614Y-6388033D01*
X28266611Y-6398450D01*
X28357814Y-6459390D01*
X28357827Y-6459397D01*
X28503498Y-6519735D01*
X28503503Y-6519737D01*
X28658153Y-6550499D01*
X28658156Y-6550500D01*
X28658158Y-6550500D01*
X28815842Y-6550500D01*
X29380141Y-6550500D01*
X29447180Y-6570185D01*
X29492935Y-6622989D01*
X29503080Y-6658314D01*
X29533730Y-6891116D01*
X29601602Y-7144418D01*
X29601605Y-7144428D01*
X29701953Y-7386690D01*
X29701958Y-7386700D01*
X29833075Y-7613803D01*
X29992718Y-7821851D01*
X29992726Y-7821860D01*
X30178140Y-8007274D01*
X30178148Y-8007281D01*
X30386196Y-8166924D01*
X30613299Y-8298041D01*
X30613314Y-8298048D01*
X30722952Y-8343461D01*
X30777356Y-8387301D01*
X30799421Y-8453595D01*
X30799500Y-8458022D01*
X30799500Y-11256472D01*
X30779815Y-11323511D01*
X30727011Y-11369266D01*
X30691688Y-11379411D01*
X30658883Y-11383730D01*
X30405581Y-11451602D01*
X30405571Y-11451605D01*
X30163309Y-11551953D01*
X30163299Y-11551958D01*
X29936196Y-11683075D01*
X29728148Y-11842718D01*
X29542718Y-12028148D01*
X29383075Y-12236196D01*
X29251958Y-12463299D01*
X29251953Y-12463309D01*
X29151605Y-12705571D01*
X29151602Y-12705581D01*
X29128141Y-12793141D01*
X29083730Y-12958885D01*
X29049500Y-13218872D01*
X29049500Y-13481127D01*
X29072513Y-13655916D01*
X29083730Y-13741116D01*
X29122002Y-13883949D01*
X29151602Y-13994418D01*
X29151605Y-13994428D01*
X29251953Y-14236690D01*
X29251958Y-14236700D01*
X29383075Y-14463803D01*
X29542718Y-14671851D01*
X29542726Y-14671860D01*
X29728140Y-14857274D01*
X29728148Y-14857281D01*
X29728149Y-14857282D01*
X29764515Y-14885187D01*
X29936196Y-15016924D01*
X30075089Y-15097113D01*
X30123304Y-15147679D01*
X30136528Y-15216286D01*
X30110560Y-15281151D01*
X30053646Y-15321680D01*
X30013089Y-15328500D01*
X28213519Y-15328500D01*
X28146480Y-15308815D01*
X28100725Y-15256011D01*
X28091046Y-15223898D01*
X28065477Y-15062465D01*
X28029289Y-14951090D01*
X28002220Y-14867781D01*
X28002218Y-14867778D01*
X28002218Y-14867776D01*
X27966820Y-14798304D01*
X27909287Y-14685390D01*
X27899450Y-14671851D01*
X27788971Y-14519786D01*
X27644213Y-14375028D01*
X27478613Y-14254715D01*
X27478612Y-14254714D01*
X27478610Y-14254713D01*
X27414311Y-14221951D01*
X27296223Y-14161781D01*
X27101534Y-14098522D01*
X26926995Y-14070878D01*
X26899352Y-14066500D01*
X26788013Y-14066500D01*
X26720974Y-14046815D01*
X26675219Y-13994011D01*
X26665275Y-13924853D01*
X26678707Y-13883949D01*
X26756245Y-13739197D01*
X26756245Y-13739196D01*
X26823446Y-13527205D01*
X26850549Y-13306459D01*
X26836631Y-13084506D01*
X26782165Y-12868890D01*
X26689007Y-12666949D01*
X26637148Y-12590149D01*
X26637143Y-12590142D01*
X26406858Y-12295392D01*
X26406857Y-12295392D01*
X25457854Y-13036833D01*
X25433035Y-12944206D01*
X25354043Y-12807389D01*
X25242332Y-12695678D01*
X25150350Y-12642572D01*
X26099026Y-11901387D01*
X26099026Y-11901386D01*
X25868742Y-11606636D01*
X25868733Y-11606624D01*
X25806765Y-11537728D01*
X25633361Y-11398487D01*
X25437321Y-11293474D01*
X25225332Y-11226274D01*
X25004586Y-11199171D01*
X24782633Y-11213089D01*
X24567017Y-11267555D01*
X24365076Y-11360713D01*
X24288276Y-11412572D01*
X24288269Y-11412577D01*
X23993519Y-11642861D01*
X23993519Y-11642862D01*
X24734962Y-12591866D01*
X24642333Y-12616686D01*
X24505516Y-12695678D01*
X24393805Y-12807389D01*
X24340699Y-12899368D01*
X23599513Y-11950693D01*
X23304749Y-12180989D01*
X23235856Y-12242955D01*
X23096614Y-12416359D01*
X22991601Y-12612399D01*
X22924401Y-12824388D01*
X22905198Y-12980794D01*
X22877490Y-13044935D01*
X22819503Y-13083913D01*
X22749649Y-13085354D01*
X22694441Y-13053363D01*
X21029819Y-11388741D01*
X20996334Y-11327418D01*
X20993500Y-11301060D01*
X20993500Y-10335157D01*
X20993499Y-10335156D01*
X20976703Y-10250712D01*
X20962738Y-10180503D01*
X20952720Y-10156318D01*
X20950509Y-10147554D01*
X20951518Y-10121311D01*
X20948711Y-10095201D01*
X20952839Y-10086953D01*
X20953194Y-10077736D01*
X20968231Y-10056204D01*
X20979986Y-10032722D01*
X20987918Y-10028015D01*
X20993200Y-10020453D01*
X21017490Y-10010469D01*
X21040075Y-9997070D01*
X21040372Y-9996994D01*
X21179030Y-9961968D01*
X21380974Y-9868808D01*
X21457762Y-9816959D01*
X21752527Y-9586661D01*
X21752527Y-9586660D01*
X21011086Y-8637657D01*
X21103715Y-8612838D01*
X21240532Y-8533846D01*
X21352243Y-8422135D01*
X21405347Y-8330155D01*
X22146532Y-9278829D01*
X22146533Y-9278829D01*
X22441284Y-9048545D01*
X22441296Y-9048536D01*
X22510192Y-8986568D01*
X22649433Y-8813164D01*
X22754446Y-8617124D01*
X22821646Y-8405135D01*
X22848749Y-8184389D01*
X22834831Y-7962436D01*
X22780365Y-7746820D01*
X22687207Y-7544879D01*
X22635348Y-7468079D01*
X22635343Y-7468072D01*
X22405058Y-7173322D01*
X22405057Y-7173322D01*
X21456054Y-7914763D01*
X21431235Y-7822136D01*
X21352243Y-7685319D01*
X21240532Y-7573608D01*
X21148551Y-7520502D01*
X22097226Y-6779317D01*
X22097226Y-6779316D01*
X21866942Y-6484566D01*
X21866933Y-6484554D01*
X21804965Y-6415658D01*
X21631561Y-6276417D01*
X21435521Y-6171404D01*
X21223532Y-6104204D01*
X21014476Y-6078536D01*
X20950335Y-6050828D01*
X20911357Y-5992841D01*
X20906512Y-5940353D01*
X20923401Y-5802807D01*
X20909477Y-5580757D01*
X20854988Y-5365048D01*
X20776557Y-5195034D01*
X20761791Y-5163025D01*
X20761787Y-5163019D01*
X20741563Y-5133068D01*
X20709915Y-5086200D01*
X20625105Y-4977648D01*
X19941463Y-4102625D01*
X19941452Y-4102612D01*
X19879469Y-4033702D01*
X19879467Y-4033700D01*
X19879465Y-4033698D01*
X19705988Y-3894394D01*
X19705984Y-3894392D01*
X19705982Y-3894390D01*
X19509869Y-3789339D01*
X19297788Y-3722110D01*
X19187369Y-3708553D01*
X19076956Y-3694996D01*
X19076952Y-3694996D01*
X19076951Y-3694996D01*
X18854904Y-3708920D01*
X18639195Y-3763409D01*
X18437174Y-3856605D01*
X18437168Y-3856609D01*
X18360345Y-3908484D01*
X17376774Y-4676933D01*
X17376761Y-4676944D01*
X17307851Y-4738927D01*
X17168539Y-4912414D01*
X17063488Y-5108528D01*
X17048208Y-5156729D01*
X17017686Y-5206939D01*
X14475788Y-7748837D01*
X14414465Y-7782322D01*
X14350637Y-7779359D01*
X14175718Y-7723910D01*
X14065299Y-7710353D01*
X13954886Y-7696796D01*
X13954882Y-7696796D01*
X13954881Y-7696796D01*
X13732834Y-7710720D01*
X13517125Y-7765209D01*
X13315104Y-7858405D01*
X13315098Y-7858409D01*
X13238275Y-7910284D01*
X12254704Y-8678733D01*
X12254691Y-8678744D01*
X12185781Y-8740727D01*
X12046469Y-8914214D01*
X11941418Y-9110327D01*
X11941418Y-9110328D01*
X11874189Y-9322408D01*
X11847075Y-9543245D01*
X11860999Y-9765292D01*
X11915488Y-9981001D01*
X12008684Y-10183022D01*
X12008688Y-10183028D01*
X12060563Y-10259851D01*
X12651449Y-11016151D01*
X12677211Y-11081098D01*
X12663771Y-11149663D01*
X12615395Y-11200076D01*
X12584106Y-11212716D01*
X12367021Y-11267553D01*
X12165076Y-11360713D01*
X12088276Y-11412572D01*
X12088269Y-11412577D01*
X11793519Y-11642861D01*
X11793519Y-11642862D01*
X12534962Y-12591866D01*
X12442333Y-12616686D01*
X12305516Y-12695678D01*
X12193805Y-12807389D01*
X12140699Y-12899369D01*
X11399513Y-11950693D01*
X11104749Y-12180989D01*
X11035856Y-12242955D01*
X10896614Y-12416359D01*
X10791601Y-12612399D01*
X10724401Y-12824388D01*
X10697298Y-13045134D01*
X10711216Y-13267087D01*
X10765682Y-13482703D01*
X10858840Y-13684644D01*
X10910699Y-13761444D01*
X10910704Y-13761451D01*
X11140988Y-14056200D01*
X11140989Y-14056200D01*
X12089992Y-13314757D01*
X12114813Y-13407388D01*
X12193805Y-13544205D01*
X12305516Y-13655916D01*
X12397494Y-13709020D01*
X11448820Y-14450205D01*
X11448820Y-14450206D01*
X11679105Y-14744957D01*
X11679114Y-14744969D01*
X11741082Y-14813865D01*
X11914486Y-14953106D01*
X12110526Y-15058119D01*
X12322515Y-15125319D01*
X12543261Y-15152422D01*
X12765214Y-15138504D01*
X12980830Y-15084038D01*
X13182774Y-14990878D01*
X13259562Y-14939029D01*
X13554327Y-14708731D01*
X13554327Y-14708730D01*
X12812885Y-13759727D01*
X12905515Y-13734908D01*
X13042332Y-13655916D01*
X13154043Y-13544205D01*
X13207148Y-13452225D01*
X13948333Y-14400898D01*
X14016017Y-14348018D01*
X14080963Y-14322256D01*
X14149528Y-14335696D01*
X14199942Y-14384072D01*
X14212583Y-14415362D01*
X14267555Y-14632982D01*
X14360713Y-14834923D01*
X14412572Y-14911723D01*
X14412577Y-14911730D01*
X14642861Y-15206479D01*
X14642862Y-15206479D01*
X15591865Y-14465036D01*
X15616686Y-14557667D01*
X15695678Y-14694484D01*
X15807389Y-14806195D01*
X15899367Y-14859299D01*
X14950693Y-15600484D01*
X14950693Y-15600485D01*
X15180978Y-15895236D01*
X15180987Y-15895248D01*
X15242955Y-15964144D01*
X15416359Y-16103385D01*
X15612399Y-16208398D01*
X15824388Y-16275598D01*
X16045134Y-16302701D01*
X16267087Y-16288783D01*
X16482703Y-16234317D01*
X16684647Y-16141157D01*
X16761435Y-16089308D01*
X17056200Y-15859010D01*
X17056200Y-15859009D01*
X16314758Y-14910006D01*
X16407388Y-14885187D01*
X16544205Y-14806195D01*
X16655916Y-14694484D01*
X16709020Y-14602504D01*
X17450205Y-15551178D01*
X17450206Y-15551178D01*
X17744957Y-15320894D01*
X17744969Y-15320885D01*
X17813865Y-15258917D01*
X17953106Y-15085513D01*
X18058119Y-14889473D01*
X18125319Y-14677484D01*
X18152422Y-14456738D01*
X18138504Y-14234785D01*
X18084038Y-14019169D01*
X17990880Y-13817228D01*
X17939021Y-13740428D01*
X17939016Y-13740421D01*
X17708731Y-13445671D01*
X17708730Y-13445671D01*
X16759727Y-14187112D01*
X16734908Y-14094485D01*
X16655916Y-13957668D01*
X16544205Y-13845957D01*
X16452223Y-13792851D01*
X17400899Y-13051666D01*
X17400899Y-13051665D01*
X17348356Y-12984413D01*
X17322594Y-12919466D01*
X17336034Y-12850902D01*
X17384410Y-12800488D01*
X17415700Y-12787847D01*
X17417441Y-12787407D01*
X17417443Y-12787407D01*
X17633152Y-12732918D01*
X17779205Y-12665541D01*
X17848325Y-12655332D01*
X17911991Y-12684114D01*
X17918829Y-12690456D01*
X19895662Y-14667289D01*
X19929147Y-14728612D01*
X19924163Y-14798304D01*
X19884325Y-14852681D01*
X19779885Y-14934280D01*
X19758355Y-14951101D01*
X19689454Y-15013076D01*
X19550142Y-15186563D01*
X19445091Y-15382676D01*
X19445091Y-15382677D01*
X19377862Y-15594758D01*
X19352188Y-15803859D01*
X19324480Y-15868000D01*
X19266493Y-15906978D01*
X19214001Y-15911822D01*
X19076956Y-15894996D01*
X19076953Y-15894996D01*
X19076952Y-15894996D01*
X18854904Y-15908920D01*
X18639195Y-15963409D01*
X18437174Y-16056605D01*
X18437168Y-16056609D01*
X18360345Y-16108484D01*
X17376774Y-16876933D01*
X17376761Y-16876944D01*
X17307851Y-16938927D01*
X17168539Y-17112414D01*
X17063488Y-17308528D01*
X17048208Y-17356729D01*
X17017686Y-17406939D01*
X14475788Y-19948837D01*
X14414465Y-19982322D01*
X14350637Y-19979359D01*
X14175718Y-19923910D01*
X14065299Y-19910353D01*
X13954886Y-19896796D01*
X13954882Y-19896796D01*
X13954881Y-19896796D01*
X13732834Y-19910720D01*
X13517125Y-19965209D01*
X13315104Y-20058405D01*
X13315098Y-20058409D01*
X13238275Y-20110284D01*
X12254704Y-20878733D01*
X12254691Y-20878744D01*
X12185781Y-20940727D01*
X12046469Y-21114214D01*
X11941418Y-21310327D01*
X11941418Y-21310328D01*
X11874189Y-21522408D01*
X11862402Y-21618408D01*
X11848687Y-21730119D01*
X11847075Y-21743245D01*
X11860999Y-21965292D01*
X11915488Y-22181001D01*
X12008684Y-22383022D01*
X12008688Y-22383028D01*
X12060563Y-22459851D01*
X12583483Y-23129158D01*
X12609245Y-23194105D01*
X12595805Y-23262670D01*
X12547429Y-23313083D01*
X12485770Y-23329500D01*
X12307648Y-23329500D01*
X12290216Y-23332261D01*
X12105465Y-23361522D01*
X11910776Y-23424781D01*
X11728386Y-23517715D01*
X11562786Y-23638028D01*
X11418028Y-23782786D01*
X11297713Y-23948388D01*
X11250203Y-24041630D01*
X11202228Y-24092426D01*
X11134407Y-24109220D01*
X11068272Y-24086682D01*
X11029234Y-24041628D01*
X10981861Y-23948652D01*
X10861582Y-23783105D01*
X10861582Y-23783104D01*
X10716895Y-23638417D01*
X10551349Y-23518140D01*
X10369029Y-23425244D01*
X10174413Y-23362009D01*
X10120000Y-23353390D01*
X10120000Y-25181517D01*
X10101591Y-25170889D01*
X9948991Y-25130000D01*
X9791009Y-25130000D01*
X9638409Y-25170889D01*
X9501592Y-25249881D01*
X9389881Y-25361592D01*
X9310889Y-25498409D01*
X9289027Y-25580000D01*
X8570000Y-25580000D01*
X8570000Y-26132317D01*
X8602009Y-26334417D01*
X8665244Y-26529031D01*
X8758140Y-26711349D01*
X8878417Y-26876894D01*
X8878417Y-26876895D01*
X8913486Y-26911964D01*
X8946971Y-26973287D01*
X8941987Y-27042979D01*
X8913488Y-27087324D01*
X8878039Y-27122774D01*
X8878033Y-27122781D01*
X8757715Y-27288386D01*
X8664781Y-27470776D01*
X8601522Y-27665465D01*
X8569500Y-27867648D01*
X6366484Y-27867648D01*
X6381699Y-27846706D01*
X6382194Y-27845733D01*
X6402196Y-27806480D01*
X6450901Y-27710889D01*
X6497142Y-27620137D01*
X6575721Y-27378297D01*
X6615500Y-27127143D01*
X6615500Y-26872857D01*
X6575721Y-26621703D01*
X6497142Y-26379863D01*
X6381699Y-26153294D01*
X6232234Y-25947573D01*
X6052427Y-25767766D01*
X5846706Y-25618301D01*
X5620137Y-25502858D01*
X5378297Y-25424279D01*
X5378295Y-25424278D01*
X5378294Y-25424278D01*
X5185363Y-25393721D01*
X5127143Y-25384500D01*
X4872857Y-25384500D01*
X4814636Y-25393721D01*
X4621706Y-25424278D01*
X4379860Y-25502859D01*
X4153293Y-25618301D01*
X3947570Y-25767768D01*
X3767768Y-25947570D01*
X3618301Y-26153293D01*
X3502859Y-26379860D01*
X3424278Y-26621706D01*
X3384500Y-26872857D01*
X400500Y-26872857D01*
X400500Y-24527682D01*
X8570000Y-24527682D01*
X8570000Y-25080000D01*
X9620000Y-25080000D01*
X9620000Y-23353390D01*
X9565586Y-23362009D01*
X9370970Y-23425244D01*
X9188650Y-23518140D01*
X9023105Y-23638417D01*
X9023104Y-23638417D01*
X8878417Y-23783104D01*
X8878417Y-23783105D01*
X8758140Y-23948650D01*
X8665244Y-24130968D01*
X8602009Y-24325582D01*
X8570000Y-24527682D01*
X400500Y-24527682D01*
X400500Y-23969043D01*
X2495549Y-23969043D01*
X4546028Y-23969043D01*
X4546028Y-17122959D01*
X2495549Y-17122959D01*
X2495549Y-23969043D01*
X400500Y-23969043D01*
X400500Y-10693524D01*
X3148948Y-10693524D01*
X3162872Y-10915571D01*
X3217361Y-11131280D01*
X3310557Y-11333301D01*
X3310561Y-11333307D01*
X3362436Y-11410130D01*
X4130885Y-12393701D01*
X4130896Y-12393714D01*
X4192879Y-12462624D01*
X4192880Y-12462625D01*
X4192884Y-12462629D01*
X4366361Y-12601933D01*
X4366364Y-12601935D01*
X4366366Y-12601936D01*
X4562479Y-12706987D01*
X4562483Y-12706989D01*
X4610680Y-12722267D01*
X4660892Y-12752789D01*
X7202789Y-15294686D01*
X7236274Y-15356009D01*
X7233311Y-15419836D01*
X7177863Y-15594756D01*
X7177862Y-15594762D01*
X7177862Y-15594763D01*
X7152189Y-15803859D01*
X7150748Y-15815594D01*
X7164672Y-16037641D01*
X7219161Y-16253350D01*
X7312357Y-16455371D01*
X7312361Y-16455377D01*
X7364236Y-16532200D01*
X8132685Y-17515771D01*
X8132696Y-17515784D01*
X8194679Y-17584694D01*
X8194680Y-17584695D01*
X8194684Y-17584699D01*
X8368161Y-17724003D01*
X8368164Y-17724005D01*
X8368166Y-17724006D01*
X8438703Y-17761790D01*
X8564281Y-17829058D01*
X8623270Y-17847757D01*
X8776360Y-17896286D01*
X8776364Y-17896286D01*
X8776366Y-17896287D01*
X8985961Y-17922021D01*
X9050099Y-17949729D01*
X9089078Y-18007715D01*
X9093923Y-18060209D01*
X9077101Y-18197213D01*
X9091019Y-18419166D01*
X9145485Y-18634782D01*
X9238643Y-18836723D01*
X9290502Y-18913523D01*
X9290507Y-18913530D01*
X9520791Y-19208279D01*
X9520792Y-19208279D01*
X10469796Y-18466837D01*
X10494616Y-18559467D01*
X10573608Y-18696284D01*
X10685319Y-18807995D01*
X10777297Y-18861099D01*
X9828623Y-19602284D01*
X9828623Y-19602285D01*
X10058908Y-19897036D01*
X10058917Y-19897048D01*
X10120885Y-19965944D01*
X10294289Y-20105185D01*
X10490329Y-20210198D01*
X10702318Y-20277398D01*
X10923064Y-20304501D01*
X11145017Y-20290583D01*
X11360633Y-20236117D01*
X11562577Y-20142957D01*
X11639365Y-20091108D01*
X11934130Y-19860810D01*
X11934130Y-19860809D01*
X11192688Y-18911806D01*
X11285318Y-18886987D01*
X11422135Y-18807995D01*
X11533846Y-18696284D01*
X11586950Y-18604304D01*
X12328135Y-19552978D01*
X12328136Y-19552978D01*
X12622887Y-19322694D01*
X12622899Y-19322685D01*
X12691795Y-19260717D01*
X12831036Y-19087313D01*
X12936049Y-18891273D01*
X13003249Y-18679284D01*
X13030352Y-18458538D01*
X13016434Y-18236585D01*
X12961968Y-18020969D01*
X12868810Y-17819028D01*
X12816951Y-17742228D01*
X12816946Y-17742221D01*
X12586661Y-17447471D01*
X12586660Y-17447471D01*
X11637657Y-18188912D01*
X11612838Y-18096285D01*
X11533846Y-17959468D01*
X11422135Y-17847757D01*
X11330155Y-17794651D01*
X12278829Y-17053466D01*
X12278829Y-17053465D01*
X12048545Y-16758715D01*
X12048536Y-16758703D01*
X11986568Y-16689807D01*
X11813164Y-16550566D01*
X11617124Y-16445553D01*
X11405135Y-16378353D01*
X11196079Y-16352685D01*
X11131938Y-16324977D01*
X11092960Y-16266990D01*
X11088115Y-16214502D01*
X11105004Y-16076956D01*
X11091080Y-15854906D01*
X11045354Y-15673889D01*
X11043544Y-15666722D01*
X11036590Y-15639195D01*
X11024658Y-15613331D01*
X10943393Y-15437172D01*
X10891518Y-15360349D01*
X10866635Y-15328500D01*
X10268105Y-14562416D01*
X10123066Y-14376774D01*
X10123055Y-14376761D01*
X10061072Y-14307851D01*
X10061070Y-14307849D01*
X10061068Y-14307847D01*
X9887591Y-14168543D01*
X9887587Y-14168541D01*
X9887585Y-14168539D01*
X9691472Y-14063488D01*
X9479391Y-13996259D01*
X9368972Y-13982702D01*
X9258559Y-13969145D01*
X9258555Y-13969145D01*
X9258554Y-13969145D01*
X9036507Y-13983069D01*
X8820800Y-14037557D01*
X8674745Y-14104935D01*
X8605625Y-14115142D01*
X8541959Y-14086361D01*
X8535122Y-14080019D01*
X6558289Y-12103186D01*
X6524804Y-12041863D01*
X6529788Y-11972171D01*
X6569627Y-11917793D01*
X6695583Y-11819386D01*
X6764502Y-11757395D01*
X6903806Y-11583918D01*
X7008861Y-11387798D01*
X7064242Y-11213089D01*
X7076089Y-11175718D01*
X7076925Y-11168911D01*
X7103204Y-10954886D01*
X7089280Y-10732836D01*
X7034791Y-10517127D01*
X6941593Y-10315102D01*
X6889718Y-10238279D01*
X6881028Y-10227156D01*
X6266305Y-9440346D01*
X6121266Y-9254704D01*
X6121255Y-9254691D01*
X6059272Y-9185781D01*
X6059270Y-9185779D01*
X6059268Y-9185777D01*
X5885791Y-9046473D01*
X5885787Y-9046471D01*
X5885785Y-9046469D01*
X5689672Y-8941418D01*
X5477591Y-8874189D01*
X5367172Y-8860632D01*
X5256759Y-8847075D01*
X5256755Y-8847075D01*
X5256754Y-8847075D01*
X5034707Y-8860999D01*
X4818998Y-8915488D01*
X4616977Y-9008684D01*
X4616971Y-9008688D01*
X4540148Y-9060563D01*
X3556577Y-9829012D01*
X3556564Y-9829023D01*
X3487654Y-9891006D01*
X3348342Y-10064493D01*
X3243291Y-10260606D01*
X3243291Y-10260607D01*
X3176062Y-10472687D01*
X3148948Y-10693524D01*
X400500Y-10693524D01*
X400500Y-7923064D01*
X6695498Y-7923064D01*
X6709416Y-8145017D01*
X6763882Y-8360633D01*
X6857040Y-8562574D01*
X6908899Y-8639374D01*
X6908904Y-8639381D01*
X7139188Y-8934130D01*
X7139189Y-8934130D01*
X8088192Y-8192687D01*
X8113013Y-8285318D01*
X8192005Y-8422135D01*
X8303716Y-8533846D01*
X8395694Y-8586950D01*
X7447020Y-9328135D01*
X7447020Y-9328136D01*
X7677305Y-9622887D01*
X7677314Y-9622899D01*
X7739282Y-9691795D01*
X7912686Y-9831036D01*
X8108726Y-9936049D01*
X8320715Y-10003249D01*
X8541461Y-10030352D01*
X8763414Y-10016434D01*
X8979030Y-9961968D01*
X9180974Y-9868808D01*
X9257762Y-9816959D01*
X9552527Y-9586661D01*
X9552527Y-9586660D01*
X8811085Y-8637657D01*
X8903715Y-8612838D01*
X9040532Y-8533846D01*
X9152243Y-8422135D01*
X9205347Y-8330155D01*
X9946532Y-9278829D01*
X9946533Y-9278829D01*
X10241284Y-9048545D01*
X10241296Y-9048536D01*
X10310192Y-8986568D01*
X10449433Y-8813164D01*
X10554446Y-8617124D01*
X10621646Y-8405134D01*
X10647375Y-8195584D01*
X10675083Y-8131443D01*
X10733069Y-8092464D01*
X10785563Y-8087619D01*
X10923064Y-8104501D01*
X11145017Y-8090583D01*
X11360633Y-8036117D01*
X11562577Y-7942957D01*
X11639365Y-7891108D01*
X11934130Y-7660810D01*
X11934130Y-7660809D01*
X11192688Y-6711806D01*
X11285318Y-6686987D01*
X11422135Y-6607995D01*
X11533846Y-6496284D01*
X11586950Y-6404304D01*
X12328135Y-7352978D01*
X12328136Y-7352978D01*
X12622887Y-7122694D01*
X12622899Y-7122685D01*
X12691795Y-7060717D01*
X12831036Y-6887313D01*
X12936049Y-6691273D01*
X13003249Y-6479284D01*
X13030352Y-6258538D01*
X13016434Y-6036585D01*
X12961968Y-5820969D01*
X12868810Y-5619028D01*
X12816951Y-5542228D01*
X12816946Y-5542221D01*
X12586661Y-5247471D01*
X12586660Y-5247471D01*
X11637657Y-5988912D01*
X11612838Y-5896285D01*
X11533846Y-5759468D01*
X11422135Y-5647757D01*
X11330153Y-5594651D01*
X12278829Y-4853466D01*
X12278829Y-4853465D01*
X12048545Y-4558715D01*
X12048536Y-4558703D01*
X11986568Y-4489807D01*
X11813164Y-4350566D01*
X11617124Y-4245553D01*
X11405135Y-4178353D01*
X11184389Y-4151250D01*
X10962436Y-4165168D01*
X10746820Y-4219634D01*
X10544879Y-4312792D01*
X10468079Y-4364651D01*
X10468072Y-4364656D01*
X10173322Y-4594940D01*
X10173322Y-4594941D01*
X10914765Y-5543945D01*
X10822136Y-5568765D01*
X10685319Y-5647757D01*
X10573608Y-5759468D01*
X10520502Y-5851448D01*
X9779316Y-4902772D01*
X9484552Y-5133068D01*
X9415659Y-5195034D01*
X9276417Y-5368438D01*
X9171404Y-5564478D01*
X9104204Y-5776467D01*
X9078475Y-5986019D01*
X9050767Y-6050160D01*
X8992780Y-6089138D01*
X8940288Y-6093983D01*
X8802787Y-6077101D01*
X8580833Y-6091019D01*
X8365217Y-6145485D01*
X8163276Y-6238643D01*
X8086476Y-6290502D01*
X8086469Y-6290507D01*
X7791719Y-6520791D01*
X7791719Y-6520792D01*
X8533162Y-7469796D01*
X8440533Y-7494616D01*
X8303716Y-7573608D01*
X8192005Y-7685319D01*
X8138899Y-7777299D01*
X7397713Y-6828623D01*
X7102949Y-7058919D01*
X7034056Y-7120885D01*
X6894814Y-7294289D01*
X6789801Y-7490329D01*
X6722601Y-7702318D01*
X6695498Y-7923064D01*
X400500Y-7923064D01*
X400500Y-3872857D01*
X3384500Y-3872857D01*
X3384500Y-4127143D01*
X3388318Y-4151250D01*
X3422117Y-4364651D01*
X3424279Y-4378297D01*
X3502858Y-4620137D01*
X3618301Y-4846706D01*
X3767766Y-5052427D01*
X3947573Y-5232234D01*
X4153294Y-5381699D01*
X4379863Y-5497142D01*
X4621703Y-5575721D01*
X4872857Y-5615500D01*
X4872858Y-5615500D01*
X5127142Y-5615500D01*
X5127143Y-5615500D01*
X5378297Y-5575721D01*
X5620137Y-5497142D01*
X5846706Y-5381699D01*
X6052427Y-5232234D01*
X6232234Y-5052427D01*
X6381699Y-4846706D01*
X6497142Y-4620137D01*
X6575721Y-4378297D01*
X6615500Y-4127143D01*
X6615500Y-3872857D01*
X6575721Y-3621703D01*
X6497142Y-3379863D01*
X6381699Y-3153294D01*
X6232234Y-2947573D01*
X6052427Y-2767766D01*
X5846706Y-2618301D01*
X5620137Y-2502858D01*
X5378297Y-2424279D01*
X5378295Y-2424278D01*
X5378294Y-2424278D01*
X5185363Y-2393721D01*
X5127143Y-2384500D01*
X4872857Y-2384500D01*
X4814636Y-2393721D01*
X4621706Y-2424278D01*
X4379860Y-2502859D01*
X4153293Y-2618301D01*
X3947570Y-2767768D01*
X3767768Y-2947570D01*
X3618301Y-3153293D01*
X3502859Y-3379860D01*
X3424278Y-3621706D01*
X3394214Y-3811523D01*
X3384500Y-3872857D01*
X400500Y-3872857D01*
X400500Y-524500D01*
X420185Y-457461D01*
X472989Y-411706D01*
X524500Y-400500D01*
X15181839Y-400500D01*
X15248878Y-420185D01*
G37*
%TD.AperFunction*%
%TD*%
%TA.AperFunction,NonConductor*%
G36*
X62528684Y-14170185D02*
G01*
X62574439Y-14222989D01*
X62575079Y-14224414D01*
X62646721Y-14386668D01*
X62772457Y-14570220D01*
X62772462Y-14570226D01*
X62929773Y-14727537D01*
X62929779Y-14727542D01*
X63113329Y-14853277D01*
X63113330Y-14853277D01*
X63113331Y-14853278D01*
X63188720Y-14886566D01*
X63242097Y-14931652D01*
X63262624Y-14998438D01*
X63243786Y-15065720D01*
X63191562Y-15112136D01*
X63188720Y-15113434D01*
X63113331Y-15146721D01*
X62929779Y-15272457D01*
X62929773Y-15272462D01*
X62772462Y-15429773D01*
X62772457Y-15429779D01*
X62646721Y-15613331D01*
X62575079Y-15775586D01*
X62529993Y-15828963D01*
X62463207Y-15849490D01*
X62461645Y-15849500D01*
X59538355Y-15849500D01*
X59471316Y-15829815D01*
X59425561Y-15777011D01*
X59424921Y-15775586D01*
X59353278Y-15613331D01*
X59344478Y-15600485D01*
X59227542Y-15429779D01*
X59227537Y-15429773D01*
X59070226Y-15272462D01*
X59070220Y-15272457D01*
X58888598Y-15148043D01*
X58886671Y-15146723D01*
X58811277Y-15113433D01*
X58757903Y-15068349D01*
X58737375Y-15001563D01*
X58756213Y-14934280D01*
X58808436Y-14887864D01*
X58811235Y-14886585D01*
X58886671Y-14853277D01*
X59070221Y-14727542D01*
X59227542Y-14570221D01*
X59353277Y-14386671D01*
X59381719Y-14322256D01*
X59424921Y-14224414D01*
X59470007Y-14171037D01*
X59536793Y-14150510D01*
X59538355Y-14150500D01*
X62461645Y-14150500D01*
X62528684Y-14170185D01*
G37*
%TD.AperFunction*%
%TA.AperFunction,NonConductor*%
G36*
X51479482Y-14155737D02*
G01*
X51498076Y-14155972D01*
X51512315Y-14165378D01*
X51528684Y-14170185D01*
X51540857Y-14184233D01*
X51556374Y-14194484D01*
X51573540Y-14221951D01*
X51574439Y-14222989D01*
X51575079Y-14224414D01*
X51646721Y-14386668D01*
X51772457Y-14570220D01*
X51772462Y-14570226D01*
X51929773Y-14727537D01*
X51929779Y-14727542D01*
X52113329Y-14853277D01*
X52113330Y-14853277D01*
X52113331Y-14853278D01*
X52188720Y-14886566D01*
X52242097Y-14931652D01*
X52262624Y-14998438D01*
X52243786Y-15065720D01*
X52191562Y-15112136D01*
X52188720Y-15113434D01*
X52113331Y-15146721D01*
X51929779Y-15272457D01*
X51929773Y-15272462D01*
X51772462Y-15429773D01*
X51772457Y-15429779D01*
X51646721Y-15613331D01*
X51575079Y-15775586D01*
X51529993Y-15828963D01*
X51463207Y-15849490D01*
X51461645Y-15849500D01*
X48538355Y-15849500D01*
X48471316Y-15829815D01*
X48425561Y-15777011D01*
X48424921Y-15775586D01*
X48353278Y-15613331D01*
X48344478Y-15600485D01*
X48227542Y-15429779D01*
X48227537Y-15429773D01*
X48070226Y-15272462D01*
X48070220Y-15272457D01*
X47888598Y-15148043D01*
X47886671Y-15146723D01*
X47811277Y-15113433D01*
X47757903Y-15068349D01*
X47737375Y-15001563D01*
X47756213Y-14934280D01*
X47808436Y-14887864D01*
X47811235Y-14886585D01*
X47886671Y-14853277D01*
X48070221Y-14727542D01*
X48227542Y-14570221D01*
X48353277Y-14386671D01*
X48381719Y-14322256D01*
X48424921Y-14224414D01*
X48470007Y-14171037D01*
X48536793Y-14150510D01*
X48538355Y-14150500D01*
X51461645Y-14150500D01*
X51479482Y-14155737D01*
G37*
%TD.AperFunction*%
%TA.AperFunction,NonConductor*%
G36*
X16752608Y-8121532D02*
G01*
X16796955Y-8150033D01*
X17298472Y-8651550D01*
X17331957Y-8712873D01*
X17326973Y-8782565D01*
X17285101Y-8838498D01*
X17239766Y-8857615D01*
X17240267Y-8859595D01*
X17018998Y-8915488D01*
X16816977Y-9008684D01*
X16816971Y-9008688D01*
X16740148Y-9060563D01*
X15984278Y-9651112D01*
X15919331Y-9676874D01*
X15850766Y-9663434D01*
X15800353Y-9615058D01*
X15787712Y-9583768D01*
X15787407Y-9582561D01*
X15787407Y-9582557D01*
X15732918Y-9366848D01*
X15665539Y-9220792D01*
X15655331Y-9151675D01*
X15684113Y-9088008D01*
X15690442Y-9081183D01*
X16621593Y-8150033D01*
X16682916Y-8116548D01*
X16752608Y-8121532D01*
G37*
%TD.AperFunction*%
%TA.AperFunction,NonConductor*%
G36*
X25474311Y-15028481D02*
G01*
X25512311Y-15087114D01*
X25515941Y-15141902D01*
X25496500Y-15264648D01*
X25496500Y-15469352D01*
X25496499Y-15469352D01*
X25509454Y-15551144D01*
X25500499Y-15620437D01*
X25455503Y-15673889D01*
X25388751Y-15694528D01*
X25321437Y-15675803D01*
X25299300Y-15658222D01*
X24971438Y-15330360D01*
X24937953Y-15269037D01*
X24942937Y-15199345D01*
X24984809Y-15143412D01*
X25028750Y-15122455D01*
X25180834Y-15084037D01*
X25341525Y-15009908D01*
X25410645Y-14999699D01*
X25474311Y-15028481D01*
G37*
%TD.AperFunction*%
%TA.AperFunction,NonConductor*%
G36*
X31178935Y-23448140D02*
G01*
X31258633Y-23474036D01*
X31318465Y-23493477D01*
X31419557Y-23509488D01*
X31520648Y-23525500D01*
X31520649Y-23525500D01*
X31695953Y-23525500D01*
X31762992Y-23545185D01*
X31808747Y-23597989D01*
X31818691Y-23667147D01*
X31789666Y-23730703D01*
X31783634Y-23737181D01*
X31738032Y-23782782D01*
X31738028Y-23782786D01*
X31617715Y-23948386D01*
X31570485Y-24041080D01*
X31522510Y-24091876D01*
X31454689Y-24108671D01*
X31388554Y-24086134D01*
X31349515Y-24041080D01*
X31302419Y-23948650D01*
X31302287Y-23948390D01*
X31277665Y-23914500D01*
X31181971Y-23782786D01*
X31052938Y-23653753D01*
X31019453Y-23592430D01*
X31024437Y-23522738D01*
X31066309Y-23466805D01*
X31131773Y-23442388D01*
X31178935Y-23448140D01*
G37*
%TD.AperFunction*%
%TA.AperFunction,NonConductor*%
G36*
X21240814Y-22550118D02*
G01*
X21254147Y-22548202D01*
X21274290Y-22557401D01*
X21295927Y-22562108D01*
X21313652Y-22575376D01*
X21317703Y-22577227D01*
X21324181Y-22583259D01*
X21396898Y-22655976D01*
X21430383Y-22717299D01*
X21432835Y-22753377D01*
X21432500Y-22757637D01*
X21432500Y-22757648D01*
X21432500Y-22962352D01*
X21436878Y-22989995D01*
X21464522Y-23164534D01*
X21527781Y-23359223D01*
X21620712Y-23541608D01*
X21620713Y-23541610D01*
X21641990Y-23570896D01*
X21665469Y-23636703D01*
X21649643Y-23704757D01*
X21629353Y-23731460D01*
X21578036Y-23782777D01*
X21578030Y-23782784D01*
X21457715Y-23948386D01*
X21410485Y-24041080D01*
X21362510Y-24091876D01*
X21294689Y-24108671D01*
X21228554Y-24086134D01*
X21189515Y-24041080D01*
X21142419Y-23948650D01*
X21142287Y-23948390D01*
X21117665Y-23914500D01*
X21021971Y-23782786D01*
X20877213Y-23638028D01*
X20841708Y-23612233D01*
X20799042Y-23556904D01*
X20793063Y-23487290D01*
X20814275Y-23439030D01*
X20870233Y-23362009D01*
X20924287Y-23287610D01*
X21017220Y-23105219D01*
X21080477Y-22910534D01*
X21112500Y-22708352D01*
X21112500Y-22670940D01*
X21118738Y-22649694D01*
X21120318Y-22627606D01*
X21128390Y-22616822D01*
X21132185Y-22603901D01*
X21148918Y-22589401D01*
X21162190Y-22571673D01*
X21174810Y-22566965D01*
X21184989Y-22558146D01*
X21206906Y-22554994D01*
X21227654Y-22547256D01*
X21240814Y-22550118D01*
G37*
%TD.AperFunction*%
%TA.AperFunction,NonConductor*%
G36*
X17798303Y-19275836D02*
G01*
X17852681Y-19315674D01*
X17951090Y-19441631D01*
X17951096Y-19441638D01*
X17951101Y-19441644D01*
X18013076Y-19510545D01*
X18013077Y-19510546D01*
X18013081Y-19510550D01*
X18186558Y-19649854D01*
X18186561Y-19649856D01*
X18186563Y-19649857D01*
X18382676Y-19754908D01*
X18382678Y-19754909D01*
X18439254Y-19772843D01*
X18594757Y-19822137D01*
X18594761Y-19822137D01*
X18594763Y-19822138D01*
X18815590Y-19849252D01*
X18879740Y-19845229D01*
X18947879Y-19860679D01*
X18996849Y-19910515D01*
X19011500Y-19968986D01*
X19011500Y-21516966D01*
X18991815Y-21584005D01*
X18968046Y-21611244D01*
X18964784Y-21614030D01*
X18820028Y-21758786D01*
X18699715Y-21924386D01*
X18606781Y-22106776D01*
X18543522Y-22301465D01*
X18511500Y-22503648D01*
X18511500Y-22708351D01*
X18543522Y-22910534D01*
X18606781Y-23105223D01*
X18655708Y-23201246D01*
X18687005Y-23262670D01*
X18699715Y-23287613D01*
X18820028Y-23453213D01*
X18820034Y-23453219D01*
X18964781Y-23597966D01*
X18964782Y-23597967D01*
X18964781Y-23597967D01*
X18983686Y-23611701D01*
X19000290Y-23623765D01*
X19042957Y-23679093D01*
X19048938Y-23748707D01*
X19027725Y-23796969D01*
X18917715Y-23948386D01*
X18870485Y-24041080D01*
X18822510Y-24091876D01*
X18754689Y-24108671D01*
X18688554Y-24086134D01*
X18649515Y-24041080D01*
X18602419Y-23948650D01*
X18602287Y-23948390D01*
X18577665Y-23914500D01*
X18481971Y-23782786D01*
X18337213Y-23638028D01*
X18171613Y-23517715D01*
X18171612Y-23517714D01*
X18171610Y-23517713D01*
X18111902Y-23487290D01*
X17989223Y-23424781D01*
X17794534Y-23361522D01*
X17609784Y-23332261D01*
X17592352Y-23329500D01*
X17387648Y-23329500D01*
X17370216Y-23332261D01*
X17185465Y-23361522D01*
X16990776Y-23424781D01*
X16808386Y-23517715D01*
X16642786Y-23638028D01*
X16498028Y-23782786D01*
X16377715Y-23948386D01*
X16330485Y-24041080D01*
X16282510Y-24091876D01*
X16214689Y-24108671D01*
X16148554Y-24086134D01*
X16109515Y-24041080D01*
X16062419Y-23948650D01*
X16062287Y-23948390D01*
X16037665Y-23914500D01*
X15941971Y-23782786D01*
X15797213Y-23638028D01*
X15631613Y-23517715D01*
X15631612Y-23517714D01*
X15631610Y-23517713D01*
X15571902Y-23487290D01*
X15449223Y-23424781D01*
X15254534Y-23361522D01*
X15127889Y-23341464D01*
X15064754Y-23311535D01*
X15027823Y-23252223D01*
X15028821Y-23182361D01*
X15067431Y-23124128D01*
X15070915Y-23121301D01*
X15393710Y-22869107D01*
X15462629Y-22807116D01*
X15601933Y-22633639D01*
X15706988Y-22437519D01*
X15767763Y-22245794D01*
X15774216Y-22225439D01*
X15779430Y-22182975D01*
X15801331Y-22004607D01*
X15787407Y-21782557D01*
X15732918Y-21566848D01*
X15665539Y-21420792D01*
X15655331Y-21351675D01*
X15684113Y-21288008D01*
X15690442Y-21281183D01*
X17667290Y-19304335D01*
X17728611Y-19270852D01*
X17798303Y-19275836D01*
G37*
%TD.AperFunction*%
%TA.AperFunction,NonConductor*%
G36*
X56931445Y-26573865D02*
G01*
X56970483Y-26618917D01*
X56971905Y-26621706D01*
X57017715Y-26711614D01*
X57138028Y-26877213D01*
X57173134Y-26912319D01*
X57206619Y-26973642D01*
X57201635Y-27043334D01*
X57173134Y-27087681D01*
X57138032Y-27122782D01*
X57138028Y-27122786D01*
X57017715Y-27288386D01*
X56970485Y-27381080D01*
X56922510Y-27431876D01*
X56854689Y-27448671D01*
X56788554Y-27426134D01*
X56749515Y-27381080D01*
X56723743Y-27330500D01*
X56702287Y-27288390D01*
X56663657Y-27235220D01*
X56581971Y-27122786D01*
X56546866Y-27087681D01*
X56513381Y-27026358D01*
X56518365Y-26956666D01*
X56546866Y-26912319D01*
X56547223Y-26911962D01*
X56581966Y-26877219D01*
X56581968Y-26877215D01*
X56581971Y-26877213D01*
X56702284Y-26711614D01*
X56702286Y-26711611D01*
X56702287Y-26711610D01*
X56749516Y-26618917D01*
X56797489Y-26568123D01*
X56865310Y-26551328D01*
X56931445Y-26573865D01*
G37*
%TD.AperFunction*%
%TA.AperFunction,NonConductor*%
G36*
X49311164Y-26573316D02*
G01*
X49350203Y-26618369D01*
X49397713Y-26711611D01*
X49518028Y-26877213D01*
X49553134Y-26912319D01*
X49586619Y-26973642D01*
X49581635Y-27043334D01*
X49553134Y-27087681D01*
X49518032Y-27122782D01*
X49518028Y-27122786D01*
X49397715Y-27288386D01*
X49350485Y-27381080D01*
X49302510Y-27431876D01*
X49234689Y-27448671D01*
X49168554Y-27426134D01*
X49129515Y-27381080D01*
X49103743Y-27330500D01*
X49082287Y-27288390D01*
X49043657Y-27235220D01*
X48961971Y-27122786D01*
X48926512Y-27087327D01*
X48893027Y-27026004D01*
X48898011Y-26956312D01*
X48926514Y-26911962D01*
X48961583Y-26876894D01*
X49081861Y-26711347D01*
X49129234Y-26618371D01*
X49177208Y-26567575D01*
X49245028Y-26550779D01*
X49311164Y-26573316D01*
G37*
%TD.AperFunction*%
%TA.AperFunction,NonConductor*%
G36*
X46771725Y-26573316D02*
G01*
X46810765Y-26618370D01*
X46858140Y-26711349D01*
X46978417Y-26876894D01*
X46978417Y-26876895D01*
X47013486Y-26911964D01*
X47046971Y-26973287D01*
X47041987Y-27042979D01*
X47013488Y-27087324D01*
X46978039Y-27122774D01*
X46978033Y-27122781D01*
X46857715Y-27288386D01*
X46810485Y-27381080D01*
X46762510Y-27431876D01*
X46694689Y-27448671D01*
X46628554Y-27426134D01*
X46589515Y-27381080D01*
X46563743Y-27330500D01*
X46542287Y-27288390D01*
X46503657Y-27235220D01*
X46421971Y-27122786D01*
X46386866Y-27087681D01*
X46353381Y-27026358D01*
X46358365Y-26956666D01*
X46386866Y-26912319D01*
X46387223Y-26911962D01*
X46421966Y-26877219D01*
X46421968Y-26877215D01*
X46421971Y-26877213D01*
X46542284Y-26711614D01*
X46542286Y-26711611D01*
X46542287Y-26711610D01*
X46589795Y-26618369D01*
X46637770Y-26567574D01*
X46705591Y-26550779D01*
X46771725Y-26573316D01*
G37*
%TD.AperFunction*%
%TA.AperFunction,NonConductor*%
G36*
X39151445Y-26573865D02*
G01*
X39190483Y-26618917D01*
X39191905Y-26621706D01*
X39237715Y-26711614D01*
X39358028Y-26877213D01*
X39393134Y-26912319D01*
X39426619Y-26973642D01*
X39421635Y-27043334D01*
X39393134Y-27087681D01*
X39358032Y-27122782D01*
X39358028Y-27122786D01*
X39237715Y-27288386D01*
X39190485Y-27381080D01*
X39142510Y-27431876D01*
X39074689Y-27448671D01*
X39008554Y-27426134D01*
X38969515Y-27381080D01*
X38943743Y-27330500D01*
X38922287Y-27288390D01*
X38883657Y-27235220D01*
X38801971Y-27122786D01*
X38766866Y-27087681D01*
X38733381Y-27026358D01*
X38738365Y-26956666D01*
X38766866Y-26912319D01*
X38767223Y-26911962D01*
X38801966Y-26877219D01*
X38801968Y-26877215D01*
X38801971Y-26877213D01*
X38922284Y-26711614D01*
X38922286Y-26711611D01*
X38922287Y-26711610D01*
X38969516Y-26618917D01*
X39017489Y-26568123D01*
X39085310Y-26551328D01*
X39151445Y-26573865D01*
G37*
%TD.AperFunction*%
%TA.AperFunction,NonConductor*%
G36*
X31531445Y-26573865D02*
G01*
X31570483Y-26618917D01*
X31571905Y-26621706D01*
X31617715Y-26711614D01*
X31738028Y-26877213D01*
X31773134Y-26912319D01*
X31806619Y-26973642D01*
X31801635Y-27043334D01*
X31773134Y-27087681D01*
X31738032Y-27122782D01*
X31738028Y-27122786D01*
X31617715Y-27288386D01*
X31570485Y-27381080D01*
X31522510Y-27431876D01*
X31454689Y-27448671D01*
X31388554Y-27426134D01*
X31349515Y-27381080D01*
X31323743Y-27330500D01*
X31302287Y-27288390D01*
X31263657Y-27235220D01*
X31181971Y-27122786D01*
X31146866Y-27087681D01*
X31113381Y-27026358D01*
X31118365Y-26956666D01*
X31146866Y-26912319D01*
X31147223Y-26911962D01*
X31181966Y-26877219D01*
X31181968Y-26877215D01*
X31181971Y-26877213D01*
X31302284Y-26711614D01*
X31302286Y-26711611D01*
X31302287Y-26711610D01*
X31349516Y-26618917D01*
X31397489Y-26568123D01*
X31465310Y-26551328D01*
X31531445Y-26573865D01*
G37*
%TD.AperFunction*%
%TA.AperFunction,NonConductor*%
G36*
X28991164Y-26573316D02*
G01*
X29030203Y-26618369D01*
X29077713Y-26711611D01*
X29198028Y-26877213D01*
X29233134Y-26912319D01*
X29266619Y-26973642D01*
X29261635Y-27043334D01*
X29233134Y-27087681D01*
X29198032Y-27122782D01*
X29198028Y-27122786D01*
X29077715Y-27288386D01*
X29030485Y-27381080D01*
X28982510Y-27431876D01*
X28914689Y-27448671D01*
X28848554Y-27426134D01*
X28809515Y-27381080D01*
X28783743Y-27330500D01*
X28762287Y-27288390D01*
X28723657Y-27235220D01*
X28641971Y-27122786D01*
X28606512Y-27087327D01*
X28573027Y-27026004D01*
X28578011Y-26956312D01*
X28606514Y-26911962D01*
X28641583Y-26876894D01*
X28761861Y-26711347D01*
X28809234Y-26618371D01*
X28857208Y-26567575D01*
X28925028Y-26550779D01*
X28991164Y-26573316D01*
G37*
%TD.AperFunction*%
%TA.AperFunction,NonConductor*%
G36*
X26451725Y-26573316D02*
G01*
X26490765Y-26618370D01*
X26538140Y-26711349D01*
X26658417Y-26876894D01*
X26658417Y-26876895D01*
X26693486Y-26911964D01*
X26726971Y-26973287D01*
X26721987Y-27042979D01*
X26693488Y-27087324D01*
X26658039Y-27122774D01*
X26658033Y-27122781D01*
X26537715Y-27288386D01*
X26490485Y-27381080D01*
X26442510Y-27431876D01*
X26374689Y-27448671D01*
X26308554Y-27426134D01*
X26269515Y-27381080D01*
X26243743Y-27330500D01*
X26222287Y-27288390D01*
X26183657Y-27235220D01*
X26101971Y-27122786D01*
X26066866Y-27087681D01*
X26033381Y-27026358D01*
X26038365Y-26956666D01*
X26066866Y-26912319D01*
X26067223Y-26911962D01*
X26101966Y-26877219D01*
X26101968Y-26877215D01*
X26101971Y-26877213D01*
X26222284Y-26711614D01*
X26222286Y-26711611D01*
X26222287Y-26711610D01*
X26269795Y-26618369D01*
X26317770Y-26567574D01*
X26385591Y-26550779D01*
X26451725Y-26573316D01*
G37*
%TD.AperFunction*%
%TA.AperFunction,NonConductor*%
G36*
X13751445Y-26573865D02*
G01*
X13790483Y-26618917D01*
X13791905Y-26621706D01*
X13837715Y-26711614D01*
X13958028Y-26877213D01*
X13993134Y-26912319D01*
X14026619Y-26973642D01*
X14021635Y-27043334D01*
X13993134Y-27087681D01*
X13958032Y-27122782D01*
X13958028Y-27122786D01*
X13837715Y-27288386D01*
X13790485Y-27381080D01*
X13742510Y-27431876D01*
X13674689Y-27448671D01*
X13608554Y-27426134D01*
X13569515Y-27381080D01*
X13543743Y-27330500D01*
X13522287Y-27288390D01*
X13483657Y-27235220D01*
X13401971Y-27122786D01*
X13366866Y-27087681D01*
X13333381Y-27026358D01*
X13338365Y-26956666D01*
X13366866Y-26912319D01*
X13367223Y-26911962D01*
X13401966Y-26877219D01*
X13401968Y-26877215D01*
X13401971Y-26877213D01*
X13522284Y-26711614D01*
X13522286Y-26711611D01*
X13522287Y-26711610D01*
X13569516Y-26618917D01*
X13617489Y-26568123D01*
X13685310Y-26551328D01*
X13751445Y-26573865D01*
G37*
%TD.AperFunction*%
%TA.AperFunction,NonConductor*%
G36*
X11211164Y-26573316D02*
G01*
X11250203Y-26618369D01*
X11297713Y-26711611D01*
X11418028Y-26877213D01*
X11453134Y-26912319D01*
X11486619Y-26973642D01*
X11481635Y-27043334D01*
X11453134Y-27087681D01*
X11418032Y-27122782D01*
X11418028Y-27122786D01*
X11297715Y-27288386D01*
X11250485Y-27381080D01*
X11202510Y-27431876D01*
X11134689Y-27448671D01*
X11068554Y-27426134D01*
X11029515Y-27381080D01*
X11003743Y-27330500D01*
X10982287Y-27288390D01*
X10943657Y-27235220D01*
X10861971Y-27122786D01*
X10826512Y-27087327D01*
X10793027Y-27026004D01*
X10798011Y-26956312D01*
X10826514Y-26911962D01*
X10861583Y-26876894D01*
X10981861Y-26711347D01*
X11029234Y-26618371D01*
X11077208Y-26567575D01*
X11145028Y-26550779D01*
X11211164Y-26573316D01*
G37*
%TD.AperFunction*%
%TA.AperFunction,NonConductor*%
G36*
X54391445Y-26573865D02*
G01*
X54430483Y-26618917D01*
X54431905Y-26621706D01*
X54477715Y-26711614D01*
X54598028Y-26877213D01*
X54633134Y-26912319D01*
X54666619Y-26973642D01*
X54661635Y-27043334D01*
X54633134Y-27087681D01*
X54598032Y-27122782D01*
X54598028Y-27122786D01*
X54477713Y-27288388D01*
X54430203Y-27381630D01*
X54382228Y-27432426D01*
X54314407Y-27449220D01*
X54248272Y-27426682D01*
X54209234Y-27381628D01*
X54161861Y-27288652D01*
X54041582Y-27123105D01*
X54041582Y-27123104D01*
X54006512Y-27088034D01*
X53973027Y-27026711D01*
X53978011Y-26957019D01*
X54006511Y-26912673D01*
X54041966Y-26877219D01*
X54041968Y-26877215D01*
X54041971Y-26877213D01*
X54162284Y-26711614D01*
X54162286Y-26711611D01*
X54162287Y-26711610D01*
X54209516Y-26618917D01*
X54257489Y-26568123D01*
X54325310Y-26551328D01*
X54391445Y-26573865D01*
G37*
%TD.AperFunction*%
%TA.AperFunction,NonConductor*%
G36*
X51851445Y-26573865D02*
G01*
X51890483Y-26618917D01*
X51891905Y-26621706D01*
X51937715Y-26711614D01*
X52058028Y-26877213D01*
X52093487Y-26912672D01*
X52126972Y-26973995D01*
X52121988Y-27043687D01*
X52093488Y-27088033D01*
X52058418Y-27123103D01*
X52058417Y-27123105D01*
X51938140Y-27288650D01*
X51890765Y-27381629D01*
X51842790Y-27432425D01*
X51774969Y-27449220D01*
X51708834Y-27426682D01*
X51669795Y-27381629D01*
X51643743Y-27330500D01*
X51622287Y-27288390D01*
X51583657Y-27235220D01*
X51501971Y-27122786D01*
X51466866Y-27087681D01*
X51433381Y-27026358D01*
X51438365Y-26956666D01*
X51466866Y-26912319D01*
X51467223Y-26911962D01*
X51501966Y-26877219D01*
X51501968Y-26877215D01*
X51501971Y-26877213D01*
X51622284Y-26711614D01*
X51622286Y-26711611D01*
X51622287Y-26711610D01*
X51669516Y-26618917D01*
X51717489Y-26568123D01*
X51785310Y-26551328D01*
X51851445Y-26573865D01*
G37*
%TD.AperFunction*%
%TA.AperFunction,NonConductor*%
G36*
X44231445Y-26573865D02*
G01*
X44270483Y-26618917D01*
X44271905Y-26621706D01*
X44317715Y-26711614D01*
X44438028Y-26877213D01*
X44473134Y-26912319D01*
X44506619Y-26973642D01*
X44501635Y-27043334D01*
X44473134Y-27087681D01*
X44438032Y-27122782D01*
X44438028Y-27122786D01*
X44317713Y-27288388D01*
X44270203Y-27381630D01*
X44222228Y-27432426D01*
X44154407Y-27449220D01*
X44088272Y-27426682D01*
X44049234Y-27381628D01*
X44001861Y-27288652D01*
X43881582Y-27123105D01*
X43881582Y-27123104D01*
X43846512Y-27088034D01*
X43813027Y-27026711D01*
X43818011Y-26957019D01*
X43846511Y-26912673D01*
X43881966Y-26877219D01*
X43881968Y-26877215D01*
X43881971Y-26877213D01*
X44002284Y-26711614D01*
X44002286Y-26711611D01*
X44002287Y-26711610D01*
X44049516Y-26618917D01*
X44097489Y-26568123D01*
X44165310Y-26551328D01*
X44231445Y-26573865D01*
G37*
%TD.AperFunction*%
%TA.AperFunction,NonConductor*%
G36*
X41691445Y-26573865D02*
G01*
X41730483Y-26618917D01*
X41731905Y-26621706D01*
X41777715Y-26711614D01*
X41898028Y-26877213D01*
X41933487Y-26912672D01*
X41966972Y-26973995D01*
X41961988Y-27043687D01*
X41933488Y-27088033D01*
X41898418Y-27123103D01*
X41898417Y-27123105D01*
X41778140Y-27288650D01*
X41730765Y-27381629D01*
X41682790Y-27432425D01*
X41614969Y-27449220D01*
X41548834Y-27426682D01*
X41509795Y-27381629D01*
X41483743Y-27330500D01*
X41462287Y-27288390D01*
X41423657Y-27235220D01*
X41341971Y-27122786D01*
X41306866Y-27087681D01*
X41273381Y-27026358D01*
X41278365Y-26956666D01*
X41306866Y-26912319D01*
X41307223Y-26911962D01*
X41341966Y-26877219D01*
X41341968Y-26877215D01*
X41341971Y-26877213D01*
X41462284Y-26711614D01*
X41462286Y-26711611D01*
X41462287Y-26711610D01*
X41509516Y-26618917D01*
X41557489Y-26568123D01*
X41625310Y-26551328D01*
X41691445Y-26573865D01*
G37*
%TD.AperFunction*%
%TA.AperFunction,NonConductor*%
G36*
X36611445Y-26573865D02*
G01*
X36650483Y-26618917D01*
X36651905Y-26621706D01*
X36697715Y-26711614D01*
X36818028Y-26877213D01*
X36853134Y-26912319D01*
X36886619Y-26973642D01*
X36881635Y-27043334D01*
X36853134Y-27087681D01*
X36818032Y-27122782D01*
X36818028Y-27122786D01*
X36697713Y-27288388D01*
X36650203Y-27381630D01*
X36602228Y-27432426D01*
X36534407Y-27449220D01*
X36468272Y-27426682D01*
X36429234Y-27381628D01*
X36381861Y-27288652D01*
X36261582Y-27123105D01*
X36261582Y-27123104D01*
X36226512Y-27088034D01*
X36193027Y-27026711D01*
X36198011Y-26957019D01*
X36226511Y-26912673D01*
X36261966Y-26877219D01*
X36261968Y-26877215D01*
X36261971Y-26877213D01*
X36382284Y-26711614D01*
X36382286Y-26711611D01*
X36382287Y-26711610D01*
X36429516Y-26618917D01*
X36477489Y-26568123D01*
X36545310Y-26551328D01*
X36611445Y-26573865D01*
G37*
%TD.AperFunction*%
%TA.AperFunction,NonConductor*%
G36*
X34071445Y-26573865D02*
G01*
X34110483Y-26618917D01*
X34111905Y-26621706D01*
X34157715Y-26711614D01*
X34278028Y-26877213D01*
X34313487Y-26912672D01*
X34346972Y-26973995D01*
X34341988Y-27043687D01*
X34313488Y-27088033D01*
X34278418Y-27123103D01*
X34278417Y-27123105D01*
X34158140Y-27288650D01*
X34110765Y-27381629D01*
X34062790Y-27432425D01*
X33994969Y-27449220D01*
X33928834Y-27426682D01*
X33889795Y-27381629D01*
X33863743Y-27330500D01*
X33842287Y-27288390D01*
X33803657Y-27235220D01*
X33721971Y-27122786D01*
X33686866Y-27087681D01*
X33653381Y-27026358D01*
X33658365Y-26956666D01*
X33686866Y-26912319D01*
X33687223Y-26911962D01*
X33721966Y-26877219D01*
X33721968Y-26877215D01*
X33721971Y-26877213D01*
X33842284Y-26711614D01*
X33842286Y-26711611D01*
X33842287Y-26711610D01*
X33889516Y-26618917D01*
X33937489Y-26568123D01*
X34005310Y-26551328D01*
X34071445Y-26573865D01*
G37*
%TD.AperFunction*%
%TA.AperFunction,NonConductor*%
G36*
X23911445Y-26573865D02*
G01*
X23950483Y-26618917D01*
X23951905Y-26621706D01*
X23997715Y-26711614D01*
X24118028Y-26877213D01*
X24153134Y-26912319D01*
X24186619Y-26973642D01*
X24181635Y-27043334D01*
X24153134Y-27087681D01*
X24118032Y-27122782D01*
X24118028Y-27122786D01*
X23997713Y-27288388D01*
X23950203Y-27381630D01*
X23902228Y-27432426D01*
X23834407Y-27449220D01*
X23768272Y-27426682D01*
X23729234Y-27381628D01*
X23681861Y-27288652D01*
X23561582Y-27123105D01*
X23561582Y-27123104D01*
X23526512Y-27088034D01*
X23493027Y-27026711D01*
X23498011Y-26957019D01*
X23526511Y-26912673D01*
X23561966Y-26877219D01*
X23561968Y-26877215D01*
X23561971Y-26877213D01*
X23682284Y-26711614D01*
X23682286Y-26711611D01*
X23682287Y-26711610D01*
X23729516Y-26618917D01*
X23777489Y-26568123D01*
X23845310Y-26551328D01*
X23911445Y-26573865D01*
G37*
%TD.AperFunction*%
%TA.AperFunction,NonConductor*%
G36*
X21371445Y-26573865D02*
G01*
X21410483Y-26618917D01*
X21411905Y-26621706D01*
X21457715Y-26711614D01*
X21578028Y-26877213D01*
X21613487Y-26912672D01*
X21646972Y-26973995D01*
X21641988Y-27043687D01*
X21613488Y-27088033D01*
X21578418Y-27123103D01*
X21578417Y-27123105D01*
X21458140Y-27288650D01*
X21410765Y-27381629D01*
X21362790Y-27432425D01*
X21294969Y-27449220D01*
X21228834Y-27426682D01*
X21189795Y-27381629D01*
X21163743Y-27330500D01*
X21142287Y-27288390D01*
X21103657Y-27235220D01*
X21021971Y-27122786D01*
X20986866Y-27087681D01*
X20953381Y-27026358D01*
X20958365Y-26956666D01*
X20986866Y-26912319D01*
X20987223Y-26911962D01*
X21021966Y-26877219D01*
X21021968Y-26877215D01*
X21021971Y-26877213D01*
X21142284Y-26711614D01*
X21142286Y-26711611D01*
X21142287Y-26711610D01*
X21189516Y-26618917D01*
X21237489Y-26568123D01*
X21305310Y-26551328D01*
X21371445Y-26573865D01*
G37*
%TD.AperFunction*%
%TA.AperFunction,NonConductor*%
G36*
X18831445Y-26573865D02*
G01*
X18870483Y-26618917D01*
X18871905Y-26621706D01*
X18917715Y-26711614D01*
X19038028Y-26877213D01*
X19073134Y-26912319D01*
X19106619Y-26973642D01*
X19101635Y-27043334D01*
X19073134Y-27087681D01*
X19038032Y-27122782D01*
X19038028Y-27122786D01*
X18917713Y-27288388D01*
X18870203Y-27381630D01*
X18822228Y-27432426D01*
X18754407Y-27449220D01*
X18688272Y-27426682D01*
X18649234Y-27381628D01*
X18601861Y-27288652D01*
X18481582Y-27123105D01*
X18481582Y-27123104D01*
X18446512Y-27088034D01*
X18413027Y-27026711D01*
X18418011Y-26957019D01*
X18446511Y-26912673D01*
X18481966Y-26877219D01*
X18481968Y-26877215D01*
X18481971Y-26877213D01*
X18602284Y-26711614D01*
X18602286Y-26711611D01*
X18602287Y-26711610D01*
X18649516Y-26618917D01*
X18697489Y-26568123D01*
X18765310Y-26551328D01*
X18831445Y-26573865D01*
G37*
%TD.AperFunction*%
%TA.AperFunction,NonConductor*%
G36*
X16291445Y-26573865D02*
G01*
X16330483Y-26618917D01*
X16331905Y-26621706D01*
X16377715Y-26711614D01*
X16498028Y-26877213D01*
X16533487Y-26912672D01*
X16566972Y-26973995D01*
X16561988Y-27043687D01*
X16533488Y-27088033D01*
X16498418Y-27123103D01*
X16498417Y-27123105D01*
X16378140Y-27288650D01*
X16330765Y-27381629D01*
X16282790Y-27432425D01*
X16214969Y-27449220D01*
X16148834Y-27426682D01*
X16109795Y-27381629D01*
X16083743Y-27330500D01*
X16062287Y-27288390D01*
X16023657Y-27235220D01*
X15941971Y-27122786D01*
X15906866Y-27087681D01*
X15873381Y-27026358D01*
X15878365Y-26956666D01*
X15906866Y-26912319D01*
X15907223Y-26911962D01*
X15941966Y-26877219D01*
X15941968Y-26877215D01*
X15941971Y-26877213D01*
X16062284Y-26711614D01*
X16062286Y-26711611D01*
X16062287Y-26711610D01*
X16109516Y-26618917D01*
X16157489Y-26568123D01*
X16225310Y-26551328D01*
X16291445Y-26573865D01*
G37*
%TD.AperFunction*%
M02*
