%TF.GenerationSoftware,KiCad,Pcbnew,9.0.7*%
%TF.CreationDate,2026-04-09T16:03:06+02:00*%
%TF.ProjectId,ZeroTiny,5a65726f-5469-46e7-992e-6b696361645f,rev?*%
%TF.SameCoordinates,Original*%
%TF.FileFunction,Other,User*%
%FSLAX46Y46*%
G04 Gerber Fmt 4.6, Leading zero omitted, Abs format (unit mm)*
G04 Created by KiCad (PCBNEW 9.0.7) date 2026-04-09 16:03:06*
%MOMM*%
%LPD*%
G01*
G04 APERTURE LIST*
%ADD10C,0.050000*%
G04 APERTURE END LIST*
D10*
%TO.C,SW8*%
X8948218Y-18069352D02*
X9145221Y-17915436D01*
X9102134Y-18266354D02*
X8948218Y-18069352D01*
X9145221Y-17915436D02*
X16237318Y-12374483D01*
X13411764Y-23782430D02*
X9102134Y-18266354D01*
X13411764Y-23782430D02*
X13565679Y-23979432D01*
X13565679Y-23979432D02*
X13762682Y-23825517D01*
X16237318Y-12374483D02*
X16434321Y-12220568D01*
X16434321Y-12220568D02*
X16588236Y-12417570D01*
X16588236Y-12417570D02*
X20897866Y-17933646D01*
X20854779Y-18284564D02*
X13762682Y-23825517D01*
X20854779Y-18284564D02*
X21051782Y-18130648D01*
X21051782Y-18130648D02*
X20897866Y-17933646D01*
%TO.C,J1*%
X42250000Y3550000D02*
X29750000Y3550000D01*
X29750000Y-14950000D01*
X42250000Y-14950000D01*
X42250000Y3550000D01*
%TO.C,C3*%
X58487000Y-4394000D02*
X53527000Y-4394000D01*
X53527000Y-1194000D01*
X58487000Y-1194000D01*
X58487000Y-4394000D01*
%TO.C,C4*%
X44945000Y-2252000D02*
X45995000Y-2252000D01*
X44945000Y-4352000D02*
X44945000Y-2252000D01*
X45995000Y-2252000D02*
X45995000Y-402000D01*
X45995000Y-4352000D02*
X44945000Y-4352000D01*
X45995000Y-6202000D02*
X45995000Y-4352000D01*
X50645000Y-402000D02*
X45995000Y-402000D01*
X50645000Y-6202000D02*
X45995000Y-6202000D01*
X51795000Y-1552000D02*
X50645000Y-402000D01*
X51795000Y-2252000D02*
X51795000Y-1552000D01*
X51795000Y-4352000D02*
X52845000Y-4352000D01*
X51795000Y-5052000D02*
X50645000Y-6202000D01*
X51795000Y-5052000D02*
X51795000Y-4352000D01*
X52845000Y-2252000D02*
X51795000Y-2252000D01*
X52845000Y-4352000D02*
X52845000Y-2252000D01*
%TO.C,SW2*%
X56250000Y-15250000D02*
X56250000Y-15500000D01*
X56250000Y-22500000D02*
X56250000Y-15500000D01*
X56250000Y-22750000D02*
X56250000Y-22500000D01*
X56500000Y-15250000D02*
X56250000Y-15250000D01*
X56500000Y-15250000D02*
X65500000Y-15250000D01*
X56500000Y-22750000D02*
X56250000Y-22750000D01*
X65500000Y-22750000D02*
X56500000Y-22750000D01*
X65750000Y-15250000D02*
X65500000Y-15250000D01*
X65750000Y-15500000D02*
X65750000Y-15250000D01*
X65750000Y-15500000D02*
X65750000Y-22500000D01*
X65750000Y-22500000D02*
X65750000Y-22750000D01*
X65750000Y-22750000D02*
X65500000Y-22750000D01*
%TO.C,C1*%
X29404000Y-9982000D02*
X24444000Y-9982000D01*
X24444000Y-6782000D01*
X29404000Y-6782000D01*
X29404000Y-9982000D01*
%TO.C,R2*%
X30112000Y-20611000D02*
X32372000Y-20611000D01*
X32372000Y-15711000D01*
X30112000Y-15711000D01*
X30112000Y-20611000D01*
%TO.C,R1*%
X22569000Y-19317000D02*
X27469000Y-19317000D01*
X27469000Y-21577000D01*
X22569000Y-21577000D01*
X22569000Y-19317000D01*
%TO.C,SW6*%
X8948218Y-5869352D02*
X9145221Y-5715436D01*
X9102134Y-6066354D02*
X8948218Y-5869352D01*
X9145221Y-5715436D02*
X16237318Y-174483D01*
X13411764Y-11582430D02*
X9102134Y-6066354D01*
X13411764Y-11582430D02*
X13565679Y-11779432D01*
X13565679Y-11779432D02*
X13762682Y-11625517D01*
X16237318Y-174483D02*
X16434321Y-20568D01*
X16434321Y-20568D02*
X16588236Y-217570D01*
X16588236Y-217570D02*
X20897866Y-5733646D01*
X20854779Y-6084564D02*
X13762682Y-11625517D01*
X20854779Y-6084564D02*
X21051782Y-5930648D01*
X21051782Y-5930648D02*
X20897866Y-5733646D01*
%TO.C,C5*%
X32626000Y-17873000D02*
X33676000Y-17873000D01*
X32626000Y-19973000D02*
X32626000Y-17873000D01*
X33676000Y-17873000D02*
X33676000Y-16023000D01*
X33676000Y-19973000D02*
X32626000Y-19973000D01*
X33676000Y-21823000D02*
X33676000Y-19973000D01*
X38326000Y-16023000D02*
X33676000Y-16023000D01*
X38326000Y-21823000D02*
X33676000Y-21823000D01*
X39476000Y-17173000D02*
X38326000Y-16023000D01*
X39476000Y-17873000D02*
X39476000Y-17173000D01*
X39476000Y-19973000D02*
X40526000Y-19973000D01*
X39476000Y-20673000D02*
X38326000Y-21823000D01*
X39476000Y-20673000D02*
X39476000Y-19973000D01*
X40526000Y-17873000D02*
X39476000Y-17873000D01*
X40526000Y-19973000D02*
X40526000Y-17873000D01*
%TO.C,C2*%
X20688000Y-1871000D02*
X20688000Y-3971000D01*
X20688000Y-3971000D02*
X21738000Y-3971000D01*
X21738000Y-1171000D02*
X21738000Y-1871000D01*
X21738000Y-1171000D02*
X22888000Y-21000D01*
X21738000Y-1871000D02*
X20688000Y-1871000D01*
X21738000Y-3971000D02*
X21738000Y-4671000D01*
X21738000Y-4671000D02*
X22888000Y-5821000D01*
X22888000Y-21000D02*
X27538000Y-21000D01*
X22888000Y-5821000D02*
X27538000Y-5821000D01*
X27538000Y-21000D02*
X27538000Y-1871000D01*
X27538000Y-1871000D02*
X28588000Y-1871000D01*
X27538000Y-3971000D02*
X27538000Y-5821000D01*
X28588000Y-1871000D02*
X28588000Y-3971000D01*
X28588000Y-3971000D02*
X27538000Y-3971000D01*
%TO.C,SW4*%
X56250000Y-7250000D02*
X56500000Y-7250000D01*
X56250000Y-7500000D02*
X56250000Y-7250000D01*
X56250000Y-14500000D02*
X56250000Y-7500000D01*
X56250000Y-14500000D02*
X56250000Y-14750000D01*
X56250000Y-14750000D02*
X56500000Y-14750000D01*
X56500000Y-7250000D02*
X65500000Y-7250000D01*
X65500000Y-7250000D02*
X65750000Y-7250000D01*
X65500000Y-14750000D02*
X56500000Y-14750000D01*
X65500000Y-14750000D02*
X65750000Y-14750000D01*
X65750000Y-7250000D02*
X65750000Y-7500000D01*
X65750000Y-7500000D02*
X65750000Y-14500000D01*
X65750000Y-14750000D02*
X65750000Y-14500000D01*
%TO.C,R4*%
X58330000Y-6845000D02*
X53430000Y-6845000D01*
X53430000Y-4585000D01*
X58330000Y-4585000D01*
X58330000Y-6845000D01*
%TO.C,SW3*%
X45250000Y-7250000D02*
X45500000Y-7250000D01*
X45250000Y-7500000D02*
X45250000Y-7250000D01*
X45250000Y-14500000D02*
X45250000Y-7500000D01*
X45250000Y-14500000D02*
X45250000Y-14750000D01*
X45250000Y-14750000D02*
X45500000Y-14750000D01*
X45500000Y-7250000D02*
X54500000Y-7250000D01*
X54500000Y-7250000D02*
X54750000Y-7250000D01*
X54500000Y-14750000D02*
X45500000Y-14750000D01*
X54500000Y-14750000D02*
X54750000Y-14750000D01*
X54750000Y-7250000D02*
X54750000Y-7500000D01*
X54750000Y-7500000D02*
X54750000Y-14500000D01*
X54750000Y-14750000D02*
X54750000Y-14500000D01*
%TO.C,SW1*%
X45250000Y-15250000D02*
X45250000Y-15500000D01*
X45250000Y-22500000D02*
X45250000Y-15500000D01*
X45250000Y-22750000D02*
X45250000Y-22500000D01*
X45500000Y-15250000D02*
X45250000Y-15250000D01*
X45500000Y-15250000D02*
X54500000Y-15250000D01*
X45500000Y-22750000D02*
X45250000Y-22750000D01*
X54500000Y-22750000D02*
X45500000Y-22750000D01*
X54750000Y-15250000D02*
X54500000Y-15250000D01*
X54750000Y-15500000D02*
X54750000Y-15250000D01*
X54750000Y-15500000D02*
X54750000Y-22500000D01*
X54750000Y-22500000D02*
X54750000Y-22750000D01*
X54750000Y-22750000D02*
X54500000Y-22750000D01*
%TO.C,R3*%
X23077000Y-16650000D02*
X27977000Y-16650000D01*
X27977000Y-18910000D01*
X23077000Y-18910000D01*
X23077000Y-16650000D01*
%TO.C,SW5*%
X15220568Y-10565679D02*
X15374483Y-10762682D01*
X15417570Y-10411764D02*
X15220568Y-10565679D01*
X15417570Y-10411764D02*
X20933646Y-6102134D01*
X20915436Y-17854779D02*
X15374483Y-10762682D01*
X20915436Y-17854779D02*
X21069352Y-18051782D01*
X20933646Y-6102134D02*
X21130648Y-5948218D01*
X21069352Y-18051782D02*
X21266354Y-17897866D01*
X21130648Y-5948218D02*
X21284564Y-6145221D01*
X21284564Y-6145221D02*
X26825517Y-13237318D01*
X26782430Y-13588236D02*
X21266354Y-17897866D01*
X26825517Y-13237318D02*
X26979432Y-13434321D01*
X26979432Y-13434321D02*
X26782430Y-13588236D01*
%TO.C,SW7*%
X3020568Y-10565679D02*
X3174483Y-10762682D01*
X3217570Y-10411764D02*
X3020568Y-10565679D01*
X3217570Y-10411764D02*
X8733646Y-6102134D01*
X8715436Y-17854779D02*
X3174483Y-10762682D01*
X8715436Y-17854779D02*
X8869352Y-18051782D01*
X8733646Y-6102134D02*
X8930648Y-5948218D01*
X8869352Y-18051782D02*
X9066354Y-17897866D01*
X8930648Y-5948218D02*
X9084564Y-6145221D01*
X9084564Y-6145221D02*
X14625517Y-13237318D01*
X14582430Y-13588236D02*
X9066354Y-17897866D01*
X14625517Y-13237318D02*
X14779432Y-13434321D01*
X14779432Y-13434321D02*
X14582430Y-13588236D01*
%TD*%
M02*
