%TF.GenerationSoftware,KiCad,Pcbnew,9.0.7*%
%TF.CreationDate,2026-04-09T16:03:06+02:00*%
%TF.ProjectId,ZeroTiny,5a65726f-5469-46e7-992e-6b696361645f,rev?*%
%TF.SameCoordinates,Original*%
%TF.FileFunction,Other,User*%
%FSLAX46Y46*%
G04 Gerber Fmt 4.6, Leading zero omitted, Abs format (unit mm)*
G04 Created by KiCad (PCBNEW 9.0.7) date 2026-04-09 16:03:06*
%MOMM*%
%LPD*%
G01*
G04 APERTURE LIST*
%ADD10C,0.050000*%
G04 APERTURE END LIST*
D10*
%TO.C,IC1*%
X-200000Y-6500000D02*
X-200000Y-24500000D01*
X-200000Y-6500000D02*
X1250000Y-6500000D01*
X-200000Y-24500000D02*
X1250000Y-24500000D01*
X1250000Y-6500000D02*
X1250000Y-250000D01*
X1250000Y-30750000D02*
X1250000Y-24500000D01*
X1250000Y-30750000D02*
X66750000Y-30750000D01*
X8000000Y1800000D02*
X8000000Y-250000D01*
X8000000Y1800000D02*
X17000000Y1800000D01*
X8000000Y-250000D02*
X1250000Y-250000D01*
X8130000Y-23970000D02*
X8130000Y-30070000D01*
X8130000Y-30070000D02*
X59930000Y-30070000D01*
X17000000Y1800000D02*
X17000000Y-250000D01*
X20600000Y1800000D02*
X20600000Y-250000D01*
X20600000Y1800000D02*
X29600000Y1800000D01*
X20600000Y-250000D02*
X17000000Y-250000D01*
X29600000Y1800000D02*
X29600000Y-250000D01*
X29600000Y-250000D02*
X47950000Y-250000D01*
X47950000Y700000D02*
X47950000Y-250000D01*
X59930000Y-23970000D02*
X8130000Y-23970000D01*
X59930000Y-30070000D02*
X59930000Y-23970000D01*
X60250000Y700000D02*
X47950000Y700000D01*
X60250000Y700000D02*
X60250000Y-250000D01*
X60250000Y-250000D02*
X66750000Y-250000D01*
X66750000Y-30750000D02*
X66750000Y-250000D01*
%TD*%
M02*
