%TF.GenerationSoftware,KiCad,Pcbnew,9.0.7*%
%TF.CreationDate,2026-04-09T16:03:06+02:00*%
%TF.ProjectId,ZeroTiny,5a65726f-5469-46e7-992e-6b696361645f,rev?*%
%TF.SameCoordinates,Original*%
%TF.FileFunction,AssemblyDrawing,Top*%
%FSLAX46Y46*%
G04 Gerber Fmt 4.6, Leading zero omitted, Abs format (unit mm)*
G04 Created by KiCad (PCBNEW 9.0.7) date 2026-04-09 16:03:06*
%MOMM*%
%LPD*%
G01*
G04 APERTURE LIST*
%ADD10C,0.150000*%
%ADD11C,0.120000*%
%ADD12C,0.100000*%
G04 APERTURE END LIST*
D10*
X8607725Y-22510835D02*
X8145979Y-21919827D01*
X8145979Y-21919827D02*
X8286695Y-21809887D01*
X8286695Y-21809887D02*
X8393113Y-21772067D01*
X8393113Y-21772067D02*
X8493375Y-21784378D01*
X8493375Y-21784378D02*
X8565494Y-21818676D01*
X8565494Y-21818676D02*
X8681589Y-21909261D01*
X8681589Y-21909261D02*
X8747553Y-21993691D01*
X8747553Y-21993691D02*
X8807361Y-22128252D01*
X8807361Y-22128252D02*
X8823194Y-22206526D01*
X8823194Y-22206526D02*
X8810883Y-22306789D01*
X8810883Y-22306789D02*
X8748441Y-22400896D01*
X8748441Y-22400896D02*
X8607725Y-22510835D01*
X9283163Y-21983125D02*
X9204889Y-21998958D01*
X9204889Y-21998958D02*
X9154758Y-21992802D01*
X9154758Y-21992802D02*
X9082638Y-21958504D01*
X9082638Y-21958504D02*
X8950711Y-21789644D01*
X8950711Y-21789644D02*
X8934878Y-21711370D01*
X8934878Y-21711370D02*
X8941034Y-21661239D01*
X8941034Y-21661239D02*
X8975332Y-21589120D01*
X8975332Y-21589120D02*
X9059762Y-21523156D01*
X9059762Y-21523156D02*
X9138036Y-21507324D01*
X9138036Y-21507324D02*
X9188168Y-21513479D01*
X9188168Y-21513479D02*
X9260287Y-21547777D01*
X9260287Y-21547777D02*
X9392214Y-21716637D01*
X9392214Y-21716637D02*
X9408047Y-21794911D01*
X9408047Y-21794911D02*
X9401891Y-21845042D01*
X9401891Y-21845042D02*
X9367593Y-21917161D01*
X9367593Y-21917161D02*
X9283163Y-21983125D01*
X9369337Y-21281289D02*
X9789741Y-21587343D01*
X9789741Y-21587343D02*
X9682435Y-21217959D01*
X9682435Y-21217959D02*
X10014887Y-21411440D01*
X10014887Y-21411440D02*
X9819629Y-20929483D01*
X10044775Y-20753580D02*
X10352606Y-21147585D01*
X10088751Y-20809866D02*
X10094906Y-20759735D01*
X10094906Y-20759735D02*
X10129205Y-20687616D01*
X10129205Y-20687616D02*
X10213634Y-20621652D01*
X10213634Y-20621652D02*
X10291909Y-20605820D01*
X10291909Y-20605820D02*
X10364028Y-20640118D01*
X10364028Y-20640118D02*
X10605895Y-20949694D01*
X8415811Y-21301783D02*
X8522229Y-21263962D01*
X8522229Y-21263962D02*
X8662945Y-21154023D01*
X8662945Y-21154023D02*
X8697244Y-21081904D01*
X8697244Y-21081904D02*
X8703399Y-21031773D01*
X8703399Y-21031773D02*
X8687566Y-20953498D01*
X8687566Y-20953498D02*
X8643591Y-20897212D01*
X8643591Y-20897212D02*
X8571472Y-20862913D01*
X8571472Y-20862913D02*
X8521340Y-20856758D01*
X8521340Y-20856758D02*
X8443066Y-20872590D01*
X8443066Y-20872590D02*
X8308505Y-20932399D01*
X8308505Y-20932399D02*
X8230231Y-20948231D01*
X8230231Y-20948231D02*
X8180100Y-20942076D01*
X8180100Y-20942076D02*
X8107981Y-20907777D01*
X8107981Y-20907777D02*
X8064005Y-20851491D01*
X8064005Y-20851491D02*
X8048172Y-20773216D01*
X8048172Y-20773216D02*
X8054328Y-20723085D01*
X8054328Y-20723085D02*
X8088626Y-20650966D01*
X8088626Y-20650966D02*
X8229342Y-20541027D01*
X8229342Y-20541027D02*
X8335760Y-20503206D01*
X8510775Y-20321147D02*
X9113237Y-20802216D01*
X9113237Y-20802216D02*
X8895992Y-20292116D01*
X8895992Y-20292116D02*
X9338383Y-20626313D01*
X9338383Y-20626313D02*
X9017353Y-19925365D01*
X9524820Y-19936787D02*
X9446546Y-19952620D01*
X9446546Y-19952620D02*
X9396415Y-19946464D01*
X9396415Y-19946464D02*
X9324296Y-19912166D01*
X9324296Y-19912166D02*
X9302308Y-19884023D01*
X9302308Y-19884023D02*
X9286475Y-19805748D01*
X9286475Y-19805748D02*
X9292630Y-19755617D01*
X9292630Y-19755617D02*
X9326929Y-19683498D01*
X9326929Y-19683498D02*
X9439502Y-19595546D01*
X9439502Y-19595546D02*
X9517776Y-19579714D01*
X9517776Y-19579714D02*
X9567908Y-19585869D01*
X9567908Y-19585869D02*
X9640027Y-19620168D01*
X9640027Y-19620168D02*
X9662015Y-19648311D01*
X9662015Y-19648311D02*
X9677847Y-19726585D01*
X9677847Y-19726585D02*
X9671692Y-19776716D01*
X9671692Y-19776716D02*
X9637393Y-19848836D01*
X9637393Y-19848836D02*
X9524820Y-19936787D01*
X9524820Y-19936787D02*
X9490522Y-20008906D01*
X9490522Y-20008906D02*
X9484366Y-20059037D01*
X9484366Y-20059037D02*
X9500199Y-20137312D01*
X9500199Y-20137312D02*
X9588151Y-20249885D01*
X9588151Y-20249885D02*
X9660270Y-20284183D01*
X9660270Y-20284183D02*
X9710401Y-20290339D01*
X9710401Y-20290339D02*
X9788675Y-20274506D01*
X9788675Y-20274506D02*
X9901248Y-20186554D01*
X9901248Y-20186554D02*
X9935547Y-20114435D01*
X9935547Y-20114435D02*
X9941702Y-20064304D01*
X9941702Y-20064304D02*
X9925869Y-19986030D01*
X9925869Y-19986030D02*
X9837918Y-19873457D01*
X9837918Y-19873457D02*
X9765799Y-19839158D01*
X9765799Y-19839158D02*
X9715668Y-19833003D01*
X9715668Y-19833003D02*
X9637393Y-19848836D01*
X34586001Y-4950878D02*
X34943144Y-4950878D01*
X34514572Y-5165164D02*
X34764572Y-4415164D01*
X34764572Y-4415164D02*
X35014572Y-5165164D01*
X35586001Y-4665164D02*
X35586001Y-5165164D01*
X35264572Y-4665164D02*
X35264572Y-5058021D01*
X35264572Y-5058021D02*
X35300286Y-5129450D01*
X35300286Y-5129450D02*
X35371715Y-5165164D01*
X35371715Y-5165164D02*
X35478858Y-5165164D01*
X35478858Y-5165164D02*
X35550286Y-5129450D01*
X35550286Y-5129450D02*
X35586001Y-5093735D01*
X36264572Y-5165164D02*
X36264572Y-4415164D01*
X36264572Y-5129450D02*
X36193143Y-5165164D01*
X36193143Y-5165164D02*
X36050286Y-5165164D01*
X36050286Y-5165164D02*
X35978857Y-5129450D01*
X35978857Y-5129450D02*
X35943143Y-5093735D01*
X35943143Y-5093735D02*
X35907429Y-5022307D01*
X35907429Y-5022307D02*
X35907429Y-4808021D01*
X35907429Y-4808021D02*
X35943143Y-4736592D01*
X35943143Y-4736592D02*
X35978857Y-4700878D01*
X35978857Y-4700878D02*
X36050286Y-4665164D01*
X36050286Y-4665164D02*
X36193143Y-4665164D01*
X36193143Y-4665164D02*
X36264572Y-4700878D01*
X36621714Y-5165164D02*
X36621714Y-4665164D01*
X36621714Y-4415164D02*
X36586000Y-4450878D01*
X36586000Y-4450878D02*
X36621714Y-4486592D01*
X36621714Y-4486592D02*
X36657428Y-4450878D01*
X36657428Y-4450878D02*
X36621714Y-4415164D01*
X36621714Y-4415164D02*
X36621714Y-4486592D01*
X37086000Y-5165164D02*
X37014571Y-5129450D01*
X37014571Y-5129450D02*
X36978857Y-5093735D01*
X36978857Y-5093735D02*
X36943143Y-5022307D01*
X36943143Y-5022307D02*
X36943143Y-4808021D01*
X36943143Y-4808021D02*
X36978857Y-4736592D01*
X36978857Y-4736592D02*
X37014571Y-4700878D01*
X37014571Y-4700878D02*
X37086000Y-4665164D01*
X37086000Y-4665164D02*
X37193143Y-4665164D01*
X37193143Y-4665164D02*
X37264571Y-4700878D01*
X37264571Y-4700878D02*
X37300286Y-4736592D01*
X37300286Y-4736592D02*
X37336000Y-4808021D01*
X37336000Y-4808021D02*
X37336000Y-5022307D01*
X37336000Y-5022307D02*
X37300286Y-5093735D01*
X37300286Y-5093735D02*
X37264571Y-5129450D01*
X37264571Y-5129450D02*
X37193143Y-5165164D01*
X37193143Y-5165164D02*
X37086000Y-5165164D01*
X37871714Y-4415164D02*
X37871714Y-4950878D01*
X37871714Y-4950878D02*
X37835999Y-5058021D01*
X37835999Y-5058021D02*
X37764571Y-5129450D01*
X37764571Y-5129450D02*
X37657428Y-5165164D01*
X37657428Y-5165164D02*
X37585999Y-5165164D01*
X38550286Y-5165164D02*
X38550286Y-4772307D01*
X38550286Y-4772307D02*
X38514571Y-4700878D01*
X38514571Y-4700878D02*
X38443143Y-4665164D01*
X38443143Y-4665164D02*
X38300286Y-4665164D01*
X38300286Y-4665164D02*
X38228857Y-4700878D01*
X38550286Y-5129450D02*
X38478857Y-5165164D01*
X38478857Y-5165164D02*
X38300286Y-5165164D01*
X38300286Y-5165164D02*
X38228857Y-5129450D01*
X38228857Y-5129450D02*
X38193143Y-5058021D01*
X38193143Y-5058021D02*
X38193143Y-4986592D01*
X38193143Y-4986592D02*
X38228857Y-4915164D01*
X38228857Y-4915164D02*
X38300286Y-4879450D01*
X38300286Y-4879450D02*
X38478857Y-4879450D01*
X38478857Y-4879450D02*
X38550286Y-4843735D01*
X39228857Y-5129450D02*
X39157428Y-5165164D01*
X39157428Y-5165164D02*
X39014571Y-5165164D01*
X39014571Y-5165164D02*
X38943142Y-5129450D01*
X38943142Y-5129450D02*
X38907428Y-5093735D01*
X38907428Y-5093735D02*
X38871714Y-5022307D01*
X38871714Y-5022307D02*
X38871714Y-4808021D01*
X38871714Y-4808021D02*
X38907428Y-4736592D01*
X38907428Y-4736592D02*
X38943142Y-4700878D01*
X38943142Y-4700878D02*
X39014571Y-4665164D01*
X39014571Y-4665164D02*
X39157428Y-4665164D01*
X39157428Y-4665164D02*
X39228857Y-4700878D01*
X39550285Y-5165164D02*
X39550285Y-4415164D01*
X39621714Y-4879450D02*
X39835999Y-5165164D01*
X39835999Y-4665164D02*
X39550285Y-4950878D01*
X42930000Y-1621164D02*
X42930000Y-2156878D01*
X42930000Y-2156878D02*
X42894285Y-2264021D01*
X42894285Y-2264021D02*
X42822857Y-2335450D01*
X42822857Y-2335450D02*
X42715714Y-2371164D01*
X42715714Y-2371164D02*
X42644285Y-2371164D01*
X43680000Y-2371164D02*
X43251429Y-2371164D01*
X43465714Y-2371164D02*
X43465714Y-1621164D01*
X43465714Y-1621164D02*
X43394286Y-1728307D01*
X43394286Y-1728307D02*
X43322857Y-1799735D01*
X43322857Y-1799735D02*
X43251429Y-1835450D01*
X58953857Y-2498164D02*
X58525286Y-2498164D01*
X58739571Y-2498164D02*
X58739571Y-1748164D01*
X58739571Y-1748164D02*
X58668143Y-1855307D01*
X58668143Y-1855307D02*
X58596714Y-1926735D01*
X58596714Y-1926735D02*
X58525286Y-1962450D01*
X59418143Y-1748164D02*
X59489572Y-1748164D01*
X59489572Y-1748164D02*
X59561000Y-1783878D01*
X59561000Y-1783878D02*
X59596715Y-1819592D01*
X59596715Y-1819592D02*
X59632429Y-1891021D01*
X59632429Y-1891021D02*
X59668143Y-2033878D01*
X59668143Y-2033878D02*
X59668143Y-2212450D01*
X59668143Y-2212450D02*
X59632429Y-2355307D01*
X59632429Y-2355307D02*
X59596715Y-2426735D01*
X59596715Y-2426735D02*
X59561000Y-2462450D01*
X59561000Y-2462450D02*
X59489572Y-2498164D01*
X59489572Y-2498164D02*
X59418143Y-2498164D01*
X59418143Y-2498164D02*
X59346715Y-2462450D01*
X59346715Y-2462450D02*
X59311000Y-2426735D01*
X59311000Y-2426735D02*
X59275286Y-2355307D01*
X59275286Y-2355307D02*
X59239572Y-2212450D01*
X59239572Y-2212450D02*
X59239572Y-2033878D01*
X59239572Y-2033878D02*
X59275286Y-1891021D01*
X59275286Y-1891021D02*
X59311000Y-1819592D01*
X59311000Y-1819592D02*
X59346715Y-1783878D01*
X59346715Y-1783878D02*
X59418143Y-1748164D01*
X59989572Y-1998164D02*
X59989572Y-2498164D01*
X59989572Y-2069592D02*
X60025286Y-2033878D01*
X60025286Y-2033878D02*
X60096715Y-1998164D01*
X60096715Y-1998164D02*
X60203858Y-1998164D01*
X60203858Y-1998164D02*
X60275286Y-2033878D01*
X60275286Y-2033878D02*
X60311001Y-2105307D01*
X60311001Y-2105307D02*
X60311001Y-2498164D01*
D11*
X59437999Y-1666295D02*
X59402285Y-1702010D01*
X59402285Y-1702010D02*
X59295142Y-1737724D01*
X59295142Y-1737724D02*
X59223714Y-1737724D01*
X59223714Y-1737724D02*
X59116571Y-1702010D01*
X59116571Y-1702010D02*
X59045142Y-1630581D01*
X59045142Y-1630581D02*
X59009428Y-1559152D01*
X59009428Y-1559152D02*
X58973714Y-1416295D01*
X58973714Y-1416295D02*
X58973714Y-1309152D01*
X58973714Y-1309152D02*
X59009428Y-1166295D01*
X59009428Y-1166295D02*
X59045142Y-1094867D01*
X59045142Y-1094867D02*
X59116571Y-1023438D01*
X59116571Y-1023438D02*
X59223714Y-987724D01*
X59223714Y-987724D02*
X59295142Y-987724D01*
X59295142Y-987724D02*
X59402285Y-1023438D01*
X59402285Y-1023438D02*
X59437999Y-1059152D01*
X59687999Y-987724D02*
X60152285Y-987724D01*
X60152285Y-987724D02*
X59902285Y-1273438D01*
X59902285Y-1273438D02*
X60009428Y-1273438D01*
X60009428Y-1273438D02*
X60080857Y-1309152D01*
X60080857Y-1309152D02*
X60116571Y-1344867D01*
X60116571Y-1344867D02*
X60152285Y-1416295D01*
X60152285Y-1416295D02*
X60152285Y-1594867D01*
X60152285Y-1594867D02*
X60116571Y-1666295D01*
X60116571Y-1666295D02*
X60080857Y-1702010D01*
X60080857Y-1702010D02*
X60009428Y-1737724D01*
X60009428Y-1737724D02*
X59795142Y-1737724D01*
X59795142Y-1737724D02*
X59723714Y-1702010D01*
X59723714Y-1702010D02*
X59687999Y-1666295D01*
D10*
X44475857Y-6308164D02*
X44047286Y-6308164D01*
X44261571Y-6308164D02*
X44261571Y-5558164D01*
X44261571Y-5558164D02*
X44190143Y-5665307D01*
X44190143Y-5665307D02*
X44118714Y-5736735D01*
X44118714Y-5736735D02*
X44047286Y-5772450D01*
X44940143Y-5558164D02*
X45011572Y-5558164D01*
X45011572Y-5558164D02*
X45083000Y-5593878D01*
X45083000Y-5593878D02*
X45118715Y-5629592D01*
X45118715Y-5629592D02*
X45154429Y-5701021D01*
X45154429Y-5701021D02*
X45190143Y-5843878D01*
X45190143Y-5843878D02*
X45190143Y-6022450D01*
X45190143Y-6022450D02*
X45154429Y-6165307D01*
X45154429Y-6165307D02*
X45118715Y-6236735D01*
X45118715Y-6236735D02*
X45083000Y-6272450D01*
X45083000Y-6272450D02*
X45011572Y-6308164D01*
X45011572Y-6308164D02*
X44940143Y-6308164D01*
X44940143Y-6308164D02*
X44868715Y-6272450D01*
X44868715Y-6272450D02*
X44833000Y-6236735D01*
X44833000Y-6236735D02*
X44797286Y-6165307D01*
X44797286Y-6165307D02*
X44761572Y-6022450D01*
X44761572Y-6022450D02*
X44761572Y-5843878D01*
X44761572Y-5843878D02*
X44797286Y-5701021D01*
X44797286Y-5701021D02*
X44833000Y-5629592D01*
X44833000Y-5629592D02*
X44868715Y-5593878D01*
X44868715Y-5593878D02*
X44940143Y-5558164D01*
X45833001Y-5808164D02*
X45833001Y-6308164D01*
X45511572Y-5808164D02*
X45511572Y-6201021D01*
X45511572Y-6201021D02*
X45547286Y-6272450D01*
X45547286Y-6272450D02*
X45618715Y-6308164D01*
X45618715Y-6308164D02*
X45725858Y-6308164D01*
X45725858Y-6308164D02*
X45797286Y-6272450D01*
X45797286Y-6272450D02*
X45833001Y-6236735D01*
X44959999Y-5347735D02*
X44924285Y-5383450D01*
X44924285Y-5383450D02*
X44817142Y-5419164D01*
X44817142Y-5419164D02*
X44745714Y-5419164D01*
X44745714Y-5419164D02*
X44638571Y-5383450D01*
X44638571Y-5383450D02*
X44567142Y-5312021D01*
X44567142Y-5312021D02*
X44531428Y-5240592D01*
X44531428Y-5240592D02*
X44495714Y-5097735D01*
X44495714Y-5097735D02*
X44495714Y-4990592D01*
X44495714Y-4990592D02*
X44531428Y-4847735D01*
X44531428Y-4847735D02*
X44567142Y-4776307D01*
X44567142Y-4776307D02*
X44638571Y-4704878D01*
X44638571Y-4704878D02*
X44745714Y-4669164D01*
X44745714Y-4669164D02*
X44817142Y-4669164D01*
X44817142Y-4669164D02*
X44924285Y-4704878D01*
X44924285Y-4704878D02*
X44959999Y-4740592D01*
X45602857Y-4919164D02*
X45602857Y-5419164D01*
X45424285Y-4633450D02*
X45245714Y-5169164D01*
X45245714Y-5169164D02*
X45709999Y-5169164D01*
X62664571Y-23314307D02*
X62771714Y-23350021D01*
X62771714Y-23350021D02*
X62807428Y-23385735D01*
X62807428Y-23385735D02*
X62843142Y-23457164D01*
X62843142Y-23457164D02*
X62843142Y-23564307D01*
X62843142Y-23564307D02*
X62807428Y-23635735D01*
X62807428Y-23635735D02*
X62771714Y-23671450D01*
X62771714Y-23671450D02*
X62700285Y-23707164D01*
X62700285Y-23707164D02*
X62414571Y-23707164D01*
X62414571Y-23707164D02*
X62414571Y-22957164D01*
X62414571Y-22957164D02*
X62664571Y-22957164D01*
X62664571Y-22957164D02*
X62736000Y-22992878D01*
X62736000Y-22992878D02*
X62771714Y-23028592D01*
X62771714Y-23028592D02*
X62807428Y-23100021D01*
X62807428Y-23100021D02*
X62807428Y-23171450D01*
X62807428Y-23171450D02*
X62771714Y-23242878D01*
X62771714Y-23242878D02*
X62736000Y-23278592D01*
X62736000Y-23278592D02*
X62664571Y-23314307D01*
X62664571Y-23314307D02*
X62414571Y-23314307D01*
X59071000Y-23671450D02*
X59178143Y-23707164D01*
X59178143Y-23707164D02*
X59356714Y-23707164D01*
X59356714Y-23707164D02*
X59428143Y-23671450D01*
X59428143Y-23671450D02*
X59463857Y-23635735D01*
X59463857Y-23635735D02*
X59499571Y-23564307D01*
X59499571Y-23564307D02*
X59499571Y-23492878D01*
X59499571Y-23492878D02*
X59463857Y-23421450D01*
X59463857Y-23421450D02*
X59428143Y-23385735D01*
X59428143Y-23385735D02*
X59356714Y-23350021D01*
X59356714Y-23350021D02*
X59213857Y-23314307D01*
X59213857Y-23314307D02*
X59142428Y-23278592D01*
X59142428Y-23278592D02*
X59106714Y-23242878D01*
X59106714Y-23242878D02*
X59071000Y-23171450D01*
X59071000Y-23171450D02*
X59071000Y-23100021D01*
X59071000Y-23100021D02*
X59106714Y-23028592D01*
X59106714Y-23028592D02*
X59142428Y-22992878D01*
X59142428Y-22992878D02*
X59213857Y-22957164D01*
X59213857Y-22957164D02*
X59392428Y-22957164D01*
X59392428Y-22957164D02*
X59499571Y-22992878D01*
X59749571Y-22957164D02*
X59928143Y-23707164D01*
X59928143Y-23707164D02*
X60071000Y-23171450D01*
X60071000Y-23171450D02*
X60213857Y-23707164D01*
X60213857Y-23707164D02*
X60392429Y-22957164D01*
X60642429Y-23028592D02*
X60678143Y-22992878D01*
X60678143Y-22992878D02*
X60749572Y-22957164D01*
X60749572Y-22957164D02*
X60928143Y-22957164D01*
X60928143Y-22957164D02*
X60999572Y-22992878D01*
X60999572Y-22992878D02*
X61035286Y-23028592D01*
X61035286Y-23028592D02*
X61071000Y-23100021D01*
X61071000Y-23100021D02*
X61071000Y-23171450D01*
X61071000Y-23171450D02*
X61035286Y-23278592D01*
X61035286Y-23278592D02*
X60606714Y-23707164D01*
X60606714Y-23707164D02*
X61071000Y-23707164D01*
X27584857Y-11007164D02*
X27156286Y-11007164D01*
X27370571Y-11007164D02*
X27370571Y-10257164D01*
X27370571Y-10257164D02*
X27299143Y-10364307D01*
X27299143Y-10364307D02*
X27227714Y-10435735D01*
X27227714Y-10435735D02*
X27156286Y-10471450D01*
X28049143Y-10257164D02*
X28120572Y-10257164D01*
X28120572Y-10257164D02*
X28192000Y-10292878D01*
X28192000Y-10292878D02*
X28227715Y-10328592D01*
X28227715Y-10328592D02*
X28263429Y-10400021D01*
X28263429Y-10400021D02*
X28299143Y-10542878D01*
X28299143Y-10542878D02*
X28299143Y-10721450D01*
X28299143Y-10721450D02*
X28263429Y-10864307D01*
X28263429Y-10864307D02*
X28227715Y-10935735D01*
X28227715Y-10935735D02*
X28192000Y-10971450D01*
X28192000Y-10971450D02*
X28120572Y-11007164D01*
X28120572Y-11007164D02*
X28049143Y-11007164D01*
X28049143Y-11007164D02*
X27977715Y-10971450D01*
X27977715Y-10971450D02*
X27942000Y-10935735D01*
X27942000Y-10935735D02*
X27906286Y-10864307D01*
X27906286Y-10864307D02*
X27870572Y-10721450D01*
X27870572Y-10721450D02*
X27870572Y-10542878D01*
X27870572Y-10542878D02*
X27906286Y-10400021D01*
X27906286Y-10400021D02*
X27942000Y-10328592D01*
X27942000Y-10328592D02*
X27977715Y-10292878D01*
X27977715Y-10292878D02*
X28049143Y-10257164D01*
X28620572Y-10507164D02*
X28620572Y-11007164D01*
X28620572Y-10578592D02*
X28656286Y-10542878D01*
X28656286Y-10542878D02*
X28727715Y-10507164D01*
X28727715Y-10507164D02*
X28834858Y-10507164D01*
X28834858Y-10507164D02*
X28906286Y-10542878D01*
X28906286Y-10542878D02*
X28942001Y-10614307D01*
X28942001Y-10614307D02*
X28942001Y-11007164D01*
D11*
X26798999Y-8651295D02*
X26763285Y-8687010D01*
X26763285Y-8687010D02*
X26656142Y-8722724D01*
X26656142Y-8722724D02*
X26584714Y-8722724D01*
X26584714Y-8722724D02*
X26477571Y-8687010D01*
X26477571Y-8687010D02*
X26406142Y-8615581D01*
X26406142Y-8615581D02*
X26370428Y-8544152D01*
X26370428Y-8544152D02*
X26334714Y-8401295D01*
X26334714Y-8401295D02*
X26334714Y-8294152D01*
X26334714Y-8294152D02*
X26370428Y-8151295D01*
X26370428Y-8151295D02*
X26406142Y-8079867D01*
X26406142Y-8079867D02*
X26477571Y-8008438D01*
X26477571Y-8008438D02*
X26584714Y-7972724D01*
X26584714Y-7972724D02*
X26656142Y-7972724D01*
X26656142Y-7972724D02*
X26763285Y-8008438D01*
X26763285Y-8008438D02*
X26798999Y-8044152D01*
X27513285Y-8722724D02*
X27084714Y-8722724D01*
X27298999Y-8722724D02*
X27298999Y-7972724D01*
X27298999Y-7972724D02*
X27227571Y-8079867D01*
X27227571Y-8079867D02*
X27156142Y-8151295D01*
X27156142Y-8151295D02*
X27084714Y-8187010D01*
D10*
X29273571Y-21048164D02*
X29273571Y-21548164D01*
X29094999Y-20762450D02*
X28916428Y-21298164D01*
X28916428Y-21298164D02*
X29380713Y-21298164D01*
X29594999Y-20798164D02*
X30094999Y-20798164D01*
X30094999Y-20798164D02*
X29773571Y-21548164D01*
X30523571Y-20798164D02*
X30595000Y-20798164D01*
X30595000Y-20798164D02*
X30666428Y-20833878D01*
X30666428Y-20833878D02*
X30702143Y-20869592D01*
X30702143Y-20869592D02*
X30737857Y-20941021D01*
X30737857Y-20941021D02*
X30773571Y-21083878D01*
X30773571Y-21083878D02*
X30773571Y-21262450D01*
X30773571Y-21262450D02*
X30737857Y-21405307D01*
X30737857Y-21405307D02*
X30702143Y-21476735D01*
X30702143Y-21476735D02*
X30666428Y-21512450D01*
X30666428Y-21512450D02*
X30595000Y-21548164D01*
X30595000Y-21548164D02*
X30523571Y-21548164D01*
X30523571Y-21548164D02*
X30452143Y-21512450D01*
X30452143Y-21512450D02*
X30416428Y-21476735D01*
X30416428Y-21476735D02*
X30380714Y-21405307D01*
X30380714Y-21405307D02*
X30345000Y-21262450D01*
X30345000Y-21262450D02*
X30345000Y-21083878D01*
X30345000Y-21083878D02*
X30380714Y-20941021D01*
X30380714Y-20941021D02*
X30416428Y-20869592D01*
X30416428Y-20869592D02*
X30452143Y-20833878D01*
X30452143Y-20833878D02*
X30523571Y-20798164D01*
D11*
X32767999Y-21549724D02*
X32517999Y-21192581D01*
X32339428Y-21549724D02*
X32339428Y-20799724D01*
X32339428Y-20799724D02*
X32625142Y-20799724D01*
X32625142Y-20799724D02*
X32696571Y-20835438D01*
X32696571Y-20835438D02*
X32732285Y-20871152D01*
X32732285Y-20871152D02*
X32767999Y-20942581D01*
X32767999Y-20942581D02*
X32767999Y-21049724D01*
X32767999Y-21049724D02*
X32732285Y-21121152D01*
X32732285Y-21121152D02*
X32696571Y-21156867D01*
X32696571Y-21156867D02*
X32625142Y-21192581D01*
X32625142Y-21192581D02*
X32339428Y-21192581D01*
X33053714Y-20871152D02*
X33089428Y-20835438D01*
X33089428Y-20835438D02*
X33160857Y-20799724D01*
X33160857Y-20799724D02*
X33339428Y-20799724D01*
X33339428Y-20799724D02*
X33410857Y-20835438D01*
X33410857Y-20835438D02*
X33446571Y-20871152D01*
X33446571Y-20871152D02*
X33482285Y-20942581D01*
X33482285Y-20942581D02*
X33482285Y-21014010D01*
X33482285Y-21014010D02*
X33446571Y-21121152D01*
X33446571Y-21121152D02*
X33017999Y-21549724D01*
X33017999Y-21549724D02*
X33482285Y-21549724D01*
D10*
X26352571Y-22191164D02*
X26352571Y-22691164D01*
X26173999Y-21905450D02*
X25995428Y-22441164D01*
X25995428Y-22441164D02*
X26459713Y-22441164D01*
X26673999Y-21941164D02*
X27173999Y-21941164D01*
X27173999Y-21941164D02*
X26852571Y-22691164D01*
X27602571Y-21941164D02*
X27674000Y-21941164D01*
X27674000Y-21941164D02*
X27745428Y-21976878D01*
X27745428Y-21976878D02*
X27781143Y-22012592D01*
X27781143Y-22012592D02*
X27816857Y-22084021D01*
X27816857Y-22084021D02*
X27852571Y-22226878D01*
X27852571Y-22226878D02*
X27852571Y-22405450D01*
X27852571Y-22405450D02*
X27816857Y-22548307D01*
X27816857Y-22548307D02*
X27781143Y-22619735D01*
X27781143Y-22619735D02*
X27745428Y-22655450D01*
X27745428Y-22655450D02*
X27674000Y-22691164D01*
X27674000Y-22691164D02*
X27602571Y-22691164D01*
X27602571Y-22691164D02*
X27531143Y-22655450D01*
X27531143Y-22655450D02*
X27495428Y-22619735D01*
X27495428Y-22619735D02*
X27459714Y-22548307D01*
X27459714Y-22548307D02*
X27424000Y-22405450D01*
X27424000Y-22405450D02*
X27424000Y-22226878D01*
X27424000Y-22226878D02*
X27459714Y-22084021D01*
X27459714Y-22084021D02*
X27495428Y-22012592D01*
X27495428Y-22012592D02*
X27531143Y-21976878D01*
X27531143Y-21976878D02*
X27602571Y-21941164D01*
D11*
X24385999Y-22692724D02*
X24135999Y-22335581D01*
X23957428Y-22692724D02*
X23957428Y-21942724D01*
X23957428Y-21942724D02*
X24243142Y-21942724D01*
X24243142Y-21942724D02*
X24314571Y-21978438D01*
X24314571Y-21978438D02*
X24350285Y-22014152D01*
X24350285Y-22014152D02*
X24385999Y-22085581D01*
X24385999Y-22085581D02*
X24385999Y-22192724D01*
X24385999Y-22192724D02*
X24350285Y-22264152D01*
X24350285Y-22264152D02*
X24314571Y-22299867D01*
X24314571Y-22299867D02*
X24243142Y-22335581D01*
X24243142Y-22335581D02*
X23957428Y-22335581D01*
X25100285Y-22692724D02*
X24671714Y-22692724D01*
X24885999Y-22692724D02*
X24885999Y-21942724D01*
X24885999Y-21942724D02*
X24814571Y-22049867D01*
X24814571Y-22049867D02*
X24743142Y-22121295D01*
X24743142Y-22121295D02*
X24671714Y-22157010D01*
D10*
X10994844Y-2938069D02*
X11368639Y-3416504D01*
X11368639Y-3416504D02*
X11440758Y-3450802D01*
X11440758Y-3450802D02*
X11490889Y-3456958D01*
X11490889Y-3456958D02*
X11569163Y-3441125D01*
X11569163Y-3441125D02*
X11681736Y-3353173D01*
X11681736Y-3353173D02*
X11716035Y-3281054D01*
X11716035Y-3281054D02*
X11722190Y-3230923D01*
X11722190Y-3230923D02*
X11706358Y-3152649D01*
X11706358Y-3152649D02*
X11332563Y-2674214D01*
X11767911Y-2651337D02*
X12229657Y-3242346D01*
X11789899Y-2679481D02*
X11824197Y-2607362D01*
X11824197Y-2607362D02*
X11936770Y-2519410D01*
X11936770Y-2519410D02*
X12015045Y-2503577D01*
X12015045Y-2503577D02*
X12065176Y-2509733D01*
X12065176Y-2509733D02*
X12137295Y-2544031D01*
X12137295Y-2544031D02*
X12269222Y-2712891D01*
X12269222Y-2712891D02*
X12285055Y-2791165D01*
X12285055Y-2791165D02*
X12278899Y-2841296D01*
X12278899Y-2841296D02*
X12244601Y-2913415D01*
X12244601Y-2913415D02*
X12132028Y-3001367D01*
X12132028Y-3001367D02*
X12053753Y-3017200D01*
X9050811Y-5172783D02*
X9157229Y-5134962D01*
X9157229Y-5134962D02*
X9297945Y-5025023D01*
X9297945Y-5025023D02*
X9332244Y-4952904D01*
X9332244Y-4952904D02*
X9338399Y-4902773D01*
X9338399Y-4902773D02*
X9322566Y-4824498D01*
X9322566Y-4824498D02*
X9278591Y-4768212D01*
X9278591Y-4768212D02*
X9206472Y-4733913D01*
X9206472Y-4733913D02*
X9156340Y-4727758D01*
X9156340Y-4727758D02*
X9078066Y-4743590D01*
X9078066Y-4743590D02*
X8943505Y-4803399D01*
X8943505Y-4803399D02*
X8865231Y-4819231D01*
X8865231Y-4819231D02*
X8815100Y-4813076D01*
X8815100Y-4813076D02*
X8742981Y-4778777D01*
X8742981Y-4778777D02*
X8699005Y-4722491D01*
X8699005Y-4722491D02*
X8683172Y-4644216D01*
X8683172Y-4644216D02*
X8689328Y-4594085D01*
X8689328Y-4594085D02*
X8723626Y-4521966D01*
X8723626Y-4521966D02*
X8864342Y-4412027D01*
X8864342Y-4412027D02*
X8970760Y-4374206D01*
X9145775Y-4192147D02*
X9748237Y-4673216D01*
X9748237Y-4673216D02*
X9530992Y-4163116D01*
X9530992Y-4163116D02*
X9973383Y-4497313D01*
X9973383Y-4497313D02*
X9652353Y-3796365D01*
X10130788Y-3422571D02*
X10018216Y-3510522D01*
X10018216Y-3510522D02*
X9983917Y-3582641D01*
X9983917Y-3582641D02*
X9977762Y-3632772D01*
X9977762Y-3632772D02*
X9987439Y-3761178D01*
X9987439Y-3761178D02*
X10047247Y-3895739D01*
X10047247Y-3895739D02*
X10223151Y-4120885D01*
X10223151Y-4120885D02*
X10295270Y-4155183D01*
X10295270Y-4155183D02*
X10345401Y-4161339D01*
X10345401Y-4161339D02*
X10423675Y-4145506D01*
X10423675Y-4145506D02*
X10536248Y-4057554D01*
X10536248Y-4057554D02*
X10570547Y-3985435D01*
X10570547Y-3985435D02*
X10576702Y-3935304D01*
X10576702Y-3935304D02*
X10560869Y-3857030D01*
X10560869Y-3857030D02*
X10450930Y-3716314D01*
X10450930Y-3716314D02*
X10378811Y-3682015D01*
X10378811Y-3682015D02*
X10328680Y-3675860D01*
X10328680Y-3675860D02*
X10250405Y-3691692D01*
X10250405Y-3691692D02*
X10137832Y-3779644D01*
X10137832Y-3779644D02*
X10103534Y-3851763D01*
X10103534Y-3851763D02*
X10097378Y-3901894D01*
X10097378Y-3901894D02*
X10113211Y-3980169D01*
X41173857Y-18881164D02*
X40745286Y-18881164D01*
X40959571Y-18881164D02*
X40959571Y-18131164D01*
X40959571Y-18131164D02*
X40888143Y-18238307D01*
X40888143Y-18238307D02*
X40816714Y-18309735D01*
X40816714Y-18309735D02*
X40745286Y-18345450D01*
X41638143Y-18131164D02*
X41709572Y-18131164D01*
X41709572Y-18131164D02*
X41781000Y-18166878D01*
X41781000Y-18166878D02*
X41816715Y-18202592D01*
X41816715Y-18202592D02*
X41852429Y-18274021D01*
X41852429Y-18274021D02*
X41888143Y-18416878D01*
X41888143Y-18416878D02*
X41888143Y-18595450D01*
X41888143Y-18595450D02*
X41852429Y-18738307D01*
X41852429Y-18738307D02*
X41816715Y-18809735D01*
X41816715Y-18809735D02*
X41781000Y-18845450D01*
X41781000Y-18845450D02*
X41709572Y-18881164D01*
X41709572Y-18881164D02*
X41638143Y-18881164D01*
X41638143Y-18881164D02*
X41566715Y-18845450D01*
X41566715Y-18845450D02*
X41531000Y-18809735D01*
X41531000Y-18809735D02*
X41495286Y-18738307D01*
X41495286Y-18738307D02*
X41459572Y-18595450D01*
X41459572Y-18595450D02*
X41459572Y-18416878D01*
X41459572Y-18416878D02*
X41495286Y-18274021D01*
X41495286Y-18274021D02*
X41531000Y-18202592D01*
X41531000Y-18202592D02*
X41566715Y-18166878D01*
X41566715Y-18166878D02*
X41638143Y-18131164D01*
X42531001Y-18381164D02*
X42531001Y-18881164D01*
X42209572Y-18381164D02*
X42209572Y-18774021D01*
X42209572Y-18774021D02*
X42245286Y-18845450D01*
X42245286Y-18845450D02*
X42316715Y-18881164D01*
X42316715Y-18881164D02*
X42423858Y-18881164D01*
X42423858Y-18881164D02*
X42495286Y-18845450D01*
X42495286Y-18845450D02*
X42531001Y-18809735D01*
X40514999Y-17539735D02*
X40479285Y-17575450D01*
X40479285Y-17575450D02*
X40372142Y-17611164D01*
X40372142Y-17611164D02*
X40300714Y-17611164D01*
X40300714Y-17611164D02*
X40193571Y-17575450D01*
X40193571Y-17575450D02*
X40122142Y-17504021D01*
X40122142Y-17504021D02*
X40086428Y-17432592D01*
X40086428Y-17432592D02*
X40050714Y-17289735D01*
X40050714Y-17289735D02*
X40050714Y-17182592D01*
X40050714Y-17182592D02*
X40086428Y-17039735D01*
X40086428Y-17039735D02*
X40122142Y-16968307D01*
X40122142Y-16968307D02*
X40193571Y-16896878D01*
X40193571Y-16896878D02*
X40300714Y-16861164D01*
X40300714Y-16861164D02*
X40372142Y-16861164D01*
X40372142Y-16861164D02*
X40479285Y-16896878D01*
X40479285Y-16896878D02*
X40514999Y-16932592D01*
X41193571Y-16861164D02*
X40836428Y-16861164D01*
X40836428Y-16861164D02*
X40800714Y-17218307D01*
X40800714Y-17218307D02*
X40836428Y-17182592D01*
X40836428Y-17182592D02*
X40907857Y-17146878D01*
X40907857Y-17146878D02*
X41086428Y-17146878D01*
X41086428Y-17146878D02*
X41157857Y-17182592D01*
X41157857Y-17182592D02*
X41193571Y-17218307D01*
X41193571Y-17218307D02*
X41229285Y-17289735D01*
X41229285Y-17289735D02*
X41229285Y-17468307D01*
X41229285Y-17468307D02*
X41193571Y-17539735D01*
X41193571Y-17539735D02*
X41157857Y-17575450D01*
X41157857Y-17575450D02*
X41086428Y-17611164D01*
X41086428Y-17611164D02*
X40907857Y-17611164D01*
X40907857Y-17611164D02*
X40836428Y-17575450D01*
X40836428Y-17575450D02*
X40800714Y-17539735D01*
X22758857Y-6943164D02*
X22330286Y-6943164D01*
X22544571Y-6943164D02*
X22544571Y-6193164D01*
X22544571Y-6193164D02*
X22473143Y-6300307D01*
X22473143Y-6300307D02*
X22401714Y-6371735D01*
X22401714Y-6371735D02*
X22330286Y-6407450D01*
X23223143Y-6193164D02*
X23294572Y-6193164D01*
X23294572Y-6193164D02*
X23366000Y-6228878D01*
X23366000Y-6228878D02*
X23401715Y-6264592D01*
X23401715Y-6264592D02*
X23437429Y-6336021D01*
X23437429Y-6336021D02*
X23473143Y-6478878D01*
X23473143Y-6478878D02*
X23473143Y-6657450D01*
X23473143Y-6657450D02*
X23437429Y-6800307D01*
X23437429Y-6800307D02*
X23401715Y-6871735D01*
X23401715Y-6871735D02*
X23366000Y-6907450D01*
X23366000Y-6907450D02*
X23294572Y-6943164D01*
X23294572Y-6943164D02*
X23223143Y-6943164D01*
X23223143Y-6943164D02*
X23151715Y-6907450D01*
X23151715Y-6907450D02*
X23116000Y-6871735D01*
X23116000Y-6871735D02*
X23080286Y-6800307D01*
X23080286Y-6800307D02*
X23044572Y-6657450D01*
X23044572Y-6657450D02*
X23044572Y-6478878D01*
X23044572Y-6478878D02*
X23080286Y-6336021D01*
X23080286Y-6336021D02*
X23116000Y-6264592D01*
X23116000Y-6264592D02*
X23151715Y-6228878D01*
X23151715Y-6228878D02*
X23223143Y-6193164D01*
X24116001Y-6443164D02*
X24116001Y-6943164D01*
X23794572Y-6443164D02*
X23794572Y-6836021D01*
X23794572Y-6836021D02*
X23830286Y-6907450D01*
X23830286Y-6907450D02*
X23901715Y-6943164D01*
X23901715Y-6943164D02*
X24008858Y-6943164D01*
X24008858Y-6943164D02*
X24080286Y-6907450D01*
X24080286Y-6907450D02*
X24116001Y-6871735D01*
X19686999Y-2426735D02*
X19651285Y-2462450D01*
X19651285Y-2462450D02*
X19544142Y-2498164D01*
X19544142Y-2498164D02*
X19472714Y-2498164D01*
X19472714Y-2498164D02*
X19365571Y-2462450D01*
X19365571Y-2462450D02*
X19294142Y-2391021D01*
X19294142Y-2391021D02*
X19258428Y-2319592D01*
X19258428Y-2319592D02*
X19222714Y-2176735D01*
X19222714Y-2176735D02*
X19222714Y-2069592D01*
X19222714Y-2069592D02*
X19258428Y-1926735D01*
X19258428Y-1926735D02*
X19294142Y-1855307D01*
X19294142Y-1855307D02*
X19365571Y-1783878D01*
X19365571Y-1783878D02*
X19472714Y-1748164D01*
X19472714Y-1748164D02*
X19544142Y-1748164D01*
X19544142Y-1748164D02*
X19651285Y-1783878D01*
X19651285Y-1783878D02*
X19686999Y-1819592D01*
X19972714Y-1819592D02*
X20008428Y-1783878D01*
X20008428Y-1783878D02*
X20079857Y-1748164D01*
X20079857Y-1748164D02*
X20258428Y-1748164D01*
X20258428Y-1748164D02*
X20329857Y-1783878D01*
X20329857Y-1783878D02*
X20365571Y-1819592D01*
X20365571Y-1819592D02*
X20401285Y-1891021D01*
X20401285Y-1891021D02*
X20401285Y-1962450D01*
X20401285Y-1962450D02*
X20365571Y-2069592D01*
X20365571Y-2069592D02*
X19936999Y-2498164D01*
X19936999Y-2498164D02*
X20401285Y-2498164D01*
X65532000Y-6586021D02*
X65532000Y-6943164D01*
X65282000Y-6193164D02*
X65532000Y-6586021D01*
X65532000Y-6586021D02*
X65782000Y-6193164D01*
X58690000Y-6780450D02*
X58797143Y-6816164D01*
X58797143Y-6816164D02*
X58975714Y-6816164D01*
X58975714Y-6816164D02*
X59047143Y-6780450D01*
X59047143Y-6780450D02*
X59082857Y-6744735D01*
X59082857Y-6744735D02*
X59118571Y-6673307D01*
X59118571Y-6673307D02*
X59118571Y-6601878D01*
X59118571Y-6601878D02*
X59082857Y-6530450D01*
X59082857Y-6530450D02*
X59047143Y-6494735D01*
X59047143Y-6494735D02*
X58975714Y-6459021D01*
X58975714Y-6459021D02*
X58832857Y-6423307D01*
X58832857Y-6423307D02*
X58761428Y-6387592D01*
X58761428Y-6387592D02*
X58725714Y-6351878D01*
X58725714Y-6351878D02*
X58690000Y-6280450D01*
X58690000Y-6280450D02*
X58690000Y-6209021D01*
X58690000Y-6209021D02*
X58725714Y-6137592D01*
X58725714Y-6137592D02*
X58761428Y-6101878D01*
X58761428Y-6101878D02*
X58832857Y-6066164D01*
X58832857Y-6066164D02*
X59011428Y-6066164D01*
X59011428Y-6066164D02*
X59118571Y-6101878D01*
X59368571Y-6066164D02*
X59547143Y-6816164D01*
X59547143Y-6816164D02*
X59690000Y-6280450D01*
X59690000Y-6280450D02*
X59832857Y-6816164D01*
X59832857Y-6816164D02*
X60011429Y-6066164D01*
X60618572Y-6316164D02*
X60618572Y-6816164D01*
X60440000Y-6030450D02*
X60261429Y-6566164D01*
X60261429Y-6566164D02*
X60725714Y-6566164D01*
X58737571Y-5427164D02*
X58737571Y-5927164D01*
X58558999Y-5141450D02*
X58380428Y-5677164D01*
X58380428Y-5677164D02*
X58844713Y-5677164D01*
X59058999Y-5177164D02*
X59558999Y-5177164D01*
X59558999Y-5177164D02*
X59237571Y-5927164D01*
X59987571Y-5177164D02*
X60059000Y-5177164D01*
X60059000Y-5177164D02*
X60130428Y-5212878D01*
X60130428Y-5212878D02*
X60166143Y-5248592D01*
X60166143Y-5248592D02*
X60201857Y-5320021D01*
X60201857Y-5320021D02*
X60237571Y-5462878D01*
X60237571Y-5462878D02*
X60237571Y-5641450D01*
X60237571Y-5641450D02*
X60201857Y-5784307D01*
X60201857Y-5784307D02*
X60166143Y-5855735D01*
X60166143Y-5855735D02*
X60130428Y-5891450D01*
X60130428Y-5891450D02*
X60059000Y-5927164D01*
X60059000Y-5927164D02*
X59987571Y-5927164D01*
X59987571Y-5927164D02*
X59916143Y-5891450D01*
X59916143Y-5891450D02*
X59880428Y-5855735D01*
X59880428Y-5855735D02*
X59844714Y-5784307D01*
X59844714Y-5784307D02*
X59809000Y-5641450D01*
X59809000Y-5641450D02*
X59809000Y-5462878D01*
X59809000Y-5462878D02*
X59844714Y-5320021D01*
X59844714Y-5320021D02*
X59880428Y-5248592D01*
X59880428Y-5248592D02*
X59916143Y-5212878D01*
X59916143Y-5212878D02*
X59987571Y-5177164D01*
D11*
X59183999Y-4912724D02*
X58933999Y-4555581D01*
X58755428Y-4912724D02*
X58755428Y-4162724D01*
X58755428Y-4162724D02*
X59041142Y-4162724D01*
X59041142Y-4162724D02*
X59112571Y-4198438D01*
X59112571Y-4198438D02*
X59148285Y-4234152D01*
X59148285Y-4234152D02*
X59183999Y-4305581D01*
X59183999Y-4305581D02*
X59183999Y-4412724D01*
X59183999Y-4412724D02*
X59148285Y-4484152D01*
X59148285Y-4484152D02*
X59112571Y-4519867D01*
X59112571Y-4519867D02*
X59041142Y-4555581D01*
X59041142Y-4555581D02*
X58755428Y-4555581D01*
X59826857Y-4412724D02*
X59826857Y-4912724D01*
X59648285Y-4127010D02*
X59469714Y-4662724D01*
X59469714Y-4662724D02*
X59933999Y-4662724D01*
D10*
X50930999Y-6320164D02*
X51430999Y-7070164D01*
X51430999Y-6320164D02*
X50930999Y-7070164D01*
X47768000Y-7034450D02*
X47875143Y-7070164D01*
X47875143Y-7070164D02*
X48053714Y-7070164D01*
X48053714Y-7070164D02*
X48125143Y-7034450D01*
X48125143Y-7034450D02*
X48160857Y-6998735D01*
X48160857Y-6998735D02*
X48196571Y-6927307D01*
X48196571Y-6927307D02*
X48196571Y-6855878D01*
X48196571Y-6855878D02*
X48160857Y-6784450D01*
X48160857Y-6784450D02*
X48125143Y-6748735D01*
X48125143Y-6748735D02*
X48053714Y-6713021D01*
X48053714Y-6713021D02*
X47910857Y-6677307D01*
X47910857Y-6677307D02*
X47839428Y-6641592D01*
X47839428Y-6641592D02*
X47803714Y-6605878D01*
X47803714Y-6605878D02*
X47768000Y-6534450D01*
X47768000Y-6534450D02*
X47768000Y-6463021D01*
X47768000Y-6463021D02*
X47803714Y-6391592D01*
X47803714Y-6391592D02*
X47839428Y-6355878D01*
X47839428Y-6355878D02*
X47910857Y-6320164D01*
X47910857Y-6320164D02*
X48089428Y-6320164D01*
X48089428Y-6320164D02*
X48196571Y-6355878D01*
X48446571Y-6320164D02*
X48625143Y-7070164D01*
X48625143Y-7070164D02*
X48768000Y-6534450D01*
X48768000Y-6534450D02*
X48910857Y-7070164D01*
X48910857Y-7070164D02*
X49089429Y-6320164D01*
X49303714Y-6320164D02*
X49768000Y-6320164D01*
X49768000Y-6320164D02*
X49518000Y-6605878D01*
X49518000Y-6605878D02*
X49625143Y-6605878D01*
X49625143Y-6605878D02*
X49696572Y-6641592D01*
X49696572Y-6641592D02*
X49732286Y-6677307D01*
X49732286Y-6677307D02*
X49768000Y-6748735D01*
X49768000Y-6748735D02*
X49768000Y-6927307D01*
X49768000Y-6927307D02*
X49732286Y-6998735D01*
X49732286Y-6998735D02*
X49696572Y-7034450D01*
X49696572Y-7034450D02*
X49625143Y-7070164D01*
X49625143Y-7070164D02*
X49410857Y-7070164D01*
X49410857Y-7070164D02*
X49339429Y-7034450D01*
X49339429Y-7034450D02*
X49303714Y-6998735D01*
X44271429Y-17904878D02*
X44628572Y-17904878D01*
X44200000Y-18119164D02*
X44450000Y-17369164D01*
X44450000Y-17369164D02*
X44700000Y-18119164D01*
X28384571Y-18381164D02*
X28384571Y-18881164D01*
X28205999Y-18095450D02*
X28027428Y-18631164D01*
X28027428Y-18631164D02*
X28491713Y-18631164D01*
X28705999Y-18131164D02*
X29205999Y-18131164D01*
X29205999Y-18131164D02*
X28884571Y-18881164D01*
X29634571Y-18131164D02*
X29706000Y-18131164D01*
X29706000Y-18131164D02*
X29777428Y-18166878D01*
X29777428Y-18166878D02*
X29813143Y-18202592D01*
X29813143Y-18202592D02*
X29848857Y-18274021D01*
X29848857Y-18274021D02*
X29884571Y-18416878D01*
X29884571Y-18416878D02*
X29884571Y-18595450D01*
X29884571Y-18595450D02*
X29848857Y-18738307D01*
X29848857Y-18738307D02*
X29813143Y-18809735D01*
X29813143Y-18809735D02*
X29777428Y-18845450D01*
X29777428Y-18845450D02*
X29706000Y-18881164D01*
X29706000Y-18881164D02*
X29634571Y-18881164D01*
X29634571Y-18881164D02*
X29563143Y-18845450D01*
X29563143Y-18845450D02*
X29527428Y-18809735D01*
X29527428Y-18809735D02*
X29491714Y-18738307D01*
X29491714Y-18738307D02*
X29456000Y-18595450D01*
X29456000Y-18595450D02*
X29456000Y-18416878D01*
X29456000Y-18416878D02*
X29491714Y-18274021D01*
X29491714Y-18274021D02*
X29527428Y-18202592D01*
X29527428Y-18202592D02*
X29563143Y-18166878D01*
X29563143Y-18166878D02*
X29634571Y-18131164D01*
D11*
X28830999Y-17739724D02*
X28580999Y-17382581D01*
X28402428Y-17739724D02*
X28402428Y-16989724D01*
X28402428Y-16989724D02*
X28688142Y-16989724D01*
X28688142Y-16989724D02*
X28759571Y-17025438D01*
X28759571Y-17025438D02*
X28795285Y-17061152D01*
X28795285Y-17061152D02*
X28830999Y-17132581D01*
X28830999Y-17132581D02*
X28830999Y-17239724D01*
X28830999Y-17239724D02*
X28795285Y-17311152D01*
X28795285Y-17311152D02*
X28759571Y-17346867D01*
X28759571Y-17346867D02*
X28688142Y-17382581D01*
X28688142Y-17382581D02*
X28402428Y-17382581D01*
X29080999Y-16989724D02*
X29545285Y-16989724D01*
X29545285Y-16989724D02*
X29295285Y-17275438D01*
X29295285Y-17275438D02*
X29402428Y-17275438D01*
X29402428Y-17275438D02*
X29473857Y-17311152D01*
X29473857Y-17311152D02*
X29509571Y-17346867D01*
X29509571Y-17346867D02*
X29545285Y-17418295D01*
X29545285Y-17418295D02*
X29545285Y-17596867D01*
X29545285Y-17596867D02*
X29509571Y-17668295D01*
X29509571Y-17668295D02*
X29473857Y-17704010D01*
X29473857Y-17704010D02*
X29402428Y-17739724D01*
X29402428Y-17739724D02*
X29188142Y-17739724D01*
X29188142Y-17739724D02*
X29116714Y-17704010D01*
X29116714Y-17704010D02*
X29080999Y-17668295D01*
D10*
X24439444Y-16531980D02*
X24022562Y-16404463D01*
X24101725Y-16795835D02*
X23639979Y-16204827D01*
X23639979Y-16204827D02*
X23865125Y-16028924D01*
X23865125Y-16028924D02*
X23943399Y-16013091D01*
X23943399Y-16013091D02*
X23993531Y-16019246D01*
X23993531Y-16019246D02*
X24065650Y-16053545D01*
X24065650Y-16053545D02*
X24131613Y-16137975D01*
X24131613Y-16137975D02*
X24147446Y-16216249D01*
X24147446Y-16216249D02*
X24141291Y-16266380D01*
X24141291Y-16266380D02*
X24106992Y-16338499D01*
X24106992Y-16338499D02*
X23881846Y-16514403D01*
X24692733Y-16334089D02*
X24384903Y-15940084D01*
X24230987Y-15743081D02*
X24224832Y-15793212D01*
X24224832Y-15793212D02*
X24274963Y-15799367D01*
X24274963Y-15799367D02*
X24281118Y-15749236D01*
X24281118Y-15749236D02*
X24230987Y-15743081D01*
X24230987Y-15743081D02*
X24274963Y-15799367D01*
X24919624Y-15522313D02*
X25293419Y-16000748D01*
X25293419Y-16000748D02*
X25309251Y-16079023D01*
X25309251Y-16079023D02*
X25303096Y-16129154D01*
X25303096Y-16129154D02*
X25268797Y-16201273D01*
X25268797Y-16201273D02*
X25184368Y-16267237D01*
X25184368Y-16267237D02*
X25106093Y-16283069D01*
X25205467Y-15888175D02*
X25171169Y-15960294D01*
X25171169Y-15960294D02*
X25058596Y-16048246D01*
X25058596Y-16048246D02*
X24980321Y-16064079D01*
X24980321Y-16064079D02*
X24930190Y-16057923D01*
X24930190Y-16057923D02*
X24858071Y-16023625D01*
X24858071Y-16023625D02*
X24726144Y-15854765D01*
X24726144Y-15854765D02*
X24710311Y-15776491D01*
X24710311Y-15776491D02*
X24716466Y-15726360D01*
X24716466Y-15726360D02*
X24750765Y-15654241D01*
X24750765Y-15654241D02*
X24863338Y-15566289D01*
X24863338Y-15566289D02*
X24941612Y-15550456D01*
X25508887Y-15696440D02*
X25047141Y-15105432D01*
X25762176Y-15498549D02*
X25520309Y-15188973D01*
X25520309Y-15188973D02*
X25448190Y-15154674D01*
X25448190Y-15154674D02*
X25369916Y-15170507D01*
X25369916Y-15170507D02*
X25285486Y-15236471D01*
X25285486Y-15236471D02*
X25251188Y-15308590D01*
X25251188Y-15308590D02*
X25245032Y-15358721D01*
X25651348Y-14950628D02*
X25876494Y-14774725D01*
X25581862Y-14687662D02*
X25977645Y-15194240D01*
X25977645Y-15194240D02*
X26049764Y-15228539D01*
X26049764Y-15228539D02*
X26128038Y-15212706D01*
X26128038Y-15212706D02*
X26184325Y-15168730D01*
X21115811Y-19396783D02*
X21222229Y-19358962D01*
X21222229Y-19358962D02*
X21362945Y-19249023D01*
X21362945Y-19249023D02*
X21397244Y-19176904D01*
X21397244Y-19176904D02*
X21403399Y-19126773D01*
X21403399Y-19126773D02*
X21387566Y-19048498D01*
X21387566Y-19048498D02*
X21343591Y-18992212D01*
X21343591Y-18992212D02*
X21271472Y-18957913D01*
X21271472Y-18957913D02*
X21221340Y-18951758D01*
X21221340Y-18951758D02*
X21143066Y-18967590D01*
X21143066Y-18967590D02*
X21008505Y-19027399D01*
X21008505Y-19027399D02*
X20930231Y-19043231D01*
X20930231Y-19043231D02*
X20880100Y-19037076D01*
X20880100Y-19037076D02*
X20807981Y-19002777D01*
X20807981Y-19002777D02*
X20764005Y-18946491D01*
X20764005Y-18946491D02*
X20748172Y-18868216D01*
X20748172Y-18868216D02*
X20754328Y-18818085D01*
X20754328Y-18818085D02*
X20788626Y-18745966D01*
X20788626Y-18745966D02*
X20929342Y-18636027D01*
X20929342Y-18636027D02*
X21035760Y-18598206D01*
X21210775Y-18416147D02*
X21813237Y-18897216D01*
X21813237Y-18897216D02*
X21595992Y-18387116D01*
X21595992Y-18387116D02*
X22038383Y-18721313D01*
X22038383Y-18721313D02*
X21717353Y-18020365D01*
X22223932Y-17624583D02*
X21942499Y-17844462D01*
X21942499Y-17844462D02*
X22134235Y-18147882D01*
X22134235Y-18147882D02*
X22140391Y-18097751D01*
X22140391Y-18097751D02*
X22174689Y-18025632D01*
X22174689Y-18025632D02*
X22315405Y-17915692D01*
X22315405Y-17915692D02*
X22393680Y-17899860D01*
X22393680Y-17899860D02*
X22443811Y-17906015D01*
X22443811Y-17906015D02*
X22515930Y-17940314D01*
X22515930Y-17940314D02*
X22625869Y-18081030D01*
X22625869Y-18081030D02*
X22641702Y-18159304D01*
X22641702Y-18159304D02*
X22635547Y-18209435D01*
X22635547Y-18209435D02*
X22601248Y-18281554D01*
X22601248Y-18281554D02*
X22460532Y-18391494D01*
X22460532Y-18391494D02*
X22382258Y-18407327D01*
X22382258Y-18407327D02*
X22332126Y-18401171D01*
X5248769Y-16246571D02*
X4948574Y-16481109D01*
X4948574Y-16481109D02*
X4456045Y-15850700D01*
X5675607Y-15864745D02*
X5639022Y-15941672D01*
X5639022Y-15941672D02*
X5518944Y-16035487D01*
X5518944Y-16035487D02*
X5435451Y-16052376D01*
X5435451Y-16052376D02*
X5358524Y-16015790D01*
X5358524Y-16015790D02*
X5170894Y-15775635D01*
X5170894Y-15775635D02*
X5154006Y-15692142D01*
X5154006Y-15692142D02*
X5190591Y-15615215D01*
X5190591Y-15615215D02*
X5310669Y-15521400D01*
X5310669Y-15521400D02*
X5394162Y-15504512D01*
X5394162Y-15504512D02*
X5471089Y-15541097D01*
X5471089Y-15541097D02*
X5517996Y-15601136D01*
X5517996Y-15601136D02*
X5264709Y-15895713D01*
X5580844Y-15310316D02*
X5821000Y-15122686D01*
X5999255Y-15660227D02*
X5577087Y-15119877D01*
X5577087Y-15119877D02*
X5560199Y-15036384D01*
X5560199Y-15036384D02*
X5596784Y-14959457D01*
X5596784Y-14959457D02*
X5656823Y-14912550D01*
X5941078Y-15028871D02*
X6181233Y-14841241D01*
X5866960Y-14748373D02*
X6289127Y-15288724D01*
X6289127Y-15288724D02*
X6366054Y-15325309D01*
X6366054Y-15325309D02*
X6449547Y-15308421D01*
X6449547Y-15308421D02*
X6509586Y-15261513D01*
X3931052Y-15771178D02*
X4044564Y-15730837D01*
X4044564Y-15730837D02*
X4194661Y-15613568D01*
X4194661Y-15613568D02*
X4231246Y-15536641D01*
X4231246Y-15536641D02*
X4237812Y-15483167D01*
X4237812Y-15483167D02*
X4220924Y-15399675D01*
X4220924Y-15399675D02*
X4174016Y-15339636D01*
X4174016Y-15339636D02*
X4097089Y-15303051D01*
X4097089Y-15303051D02*
X4043616Y-15296485D01*
X4043616Y-15296485D02*
X3960124Y-15313373D01*
X3960124Y-15313373D02*
X3816592Y-15377169D01*
X3816592Y-15377169D02*
X3733099Y-15394057D01*
X3733099Y-15394057D02*
X3679626Y-15387491D01*
X3679626Y-15387491D02*
X3602699Y-15350906D01*
X3602699Y-15350906D02*
X3555792Y-15290867D01*
X3555792Y-15290867D02*
X3538903Y-15207374D01*
X3538903Y-15207374D02*
X3545469Y-15153901D01*
X3545469Y-15153901D02*
X3582054Y-15076974D01*
X3582054Y-15076974D02*
X3732152Y-14959705D01*
X3732152Y-14959705D02*
X3845664Y-14919363D01*
X4032346Y-14725167D02*
X4674973Y-15238307D01*
X4674973Y-15238307D02*
X4443244Y-14694200D01*
X4443244Y-14694200D02*
X4915128Y-15050677D01*
X4915128Y-15050677D02*
X4572697Y-14303000D01*
X4752814Y-14162277D02*
X5173086Y-13833924D01*
X5173086Y-13833924D02*
X5395440Y-14675417D01*
X2371164Y-20925142D02*
X1621164Y-20925142D01*
X2299735Y-20139428D02*
X2335450Y-20175142D01*
X2335450Y-20175142D02*
X2371164Y-20282285D01*
X2371164Y-20282285D02*
X2371164Y-20353713D01*
X2371164Y-20353713D02*
X2335450Y-20460856D01*
X2335450Y-20460856D02*
X2264021Y-20532285D01*
X2264021Y-20532285D02*
X2192592Y-20567999D01*
X2192592Y-20567999D02*
X2049735Y-20603713D01*
X2049735Y-20603713D02*
X1942592Y-20603713D01*
X1942592Y-20603713D02*
X1799735Y-20567999D01*
X1799735Y-20567999D02*
X1728307Y-20532285D01*
X1728307Y-20532285D02*
X1656878Y-20460856D01*
X1656878Y-20460856D02*
X1621164Y-20353713D01*
X1621164Y-20353713D02*
X1621164Y-20282285D01*
X1621164Y-20282285D02*
X1656878Y-20175142D01*
X1656878Y-20175142D02*
X1692592Y-20139428D01*
X2371164Y-19425142D02*
X2371164Y-19853713D01*
X2371164Y-19639428D02*
X1621164Y-19639428D01*
X1621164Y-19639428D02*
X1728307Y-19710856D01*
X1728307Y-19710856D02*
X1799735Y-19782285D01*
X1799735Y-19782285D02*
X1835450Y-19853713D01*
X2752164Y-16959857D02*
X2395021Y-17209857D01*
X2752164Y-17388428D02*
X2002164Y-17388428D01*
X2002164Y-17388428D02*
X2002164Y-17102714D01*
X2002164Y-17102714D02*
X2037878Y-17031285D01*
X2037878Y-17031285D02*
X2073592Y-16995571D01*
X2073592Y-16995571D02*
X2145021Y-16959857D01*
X2145021Y-16959857D02*
X2252164Y-16959857D01*
X2252164Y-16959857D02*
X2323592Y-16995571D01*
X2323592Y-16995571D02*
X2359307Y-17031285D01*
X2359307Y-17031285D02*
X2395021Y-17102714D01*
X2395021Y-17102714D02*
X2395021Y-17388428D01*
X2752164Y-16317000D02*
X2359307Y-16317000D01*
X2359307Y-16317000D02*
X2287878Y-16352714D01*
X2287878Y-16352714D02*
X2252164Y-16424142D01*
X2252164Y-16424142D02*
X2252164Y-16567000D01*
X2252164Y-16567000D02*
X2287878Y-16638428D01*
X2716450Y-16317000D02*
X2752164Y-16388428D01*
X2752164Y-16388428D02*
X2752164Y-16567000D01*
X2752164Y-16567000D02*
X2716450Y-16638428D01*
X2716450Y-16638428D02*
X2645021Y-16674142D01*
X2645021Y-16674142D02*
X2573592Y-16674142D01*
X2573592Y-16674142D02*
X2502164Y-16638428D01*
X2502164Y-16638428D02*
X2466450Y-16567000D01*
X2466450Y-16567000D02*
X2466450Y-16388428D01*
X2466450Y-16388428D02*
X2430735Y-16317000D01*
X2716450Y-15995571D02*
X2752164Y-15924143D01*
X2752164Y-15924143D02*
X2752164Y-15781286D01*
X2752164Y-15781286D02*
X2716450Y-15709857D01*
X2716450Y-15709857D02*
X2645021Y-15674143D01*
X2645021Y-15674143D02*
X2609307Y-15674143D01*
X2609307Y-15674143D02*
X2537878Y-15709857D01*
X2537878Y-15709857D02*
X2502164Y-15781286D01*
X2502164Y-15781286D02*
X2502164Y-15888429D01*
X2502164Y-15888429D02*
X2466450Y-15959857D01*
X2466450Y-15959857D02*
X2395021Y-15995571D01*
X2395021Y-15995571D02*
X2359307Y-15995571D01*
X2359307Y-15995571D02*
X2287878Y-15959857D01*
X2287878Y-15959857D02*
X2252164Y-15888429D01*
X2252164Y-15888429D02*
X2252164Y-15781286D01*
X2252164Y-15781286D02*
X2287878Y-15709857D01*
X2252164Y-15352714D02*
X3002164Y-15352714D01*
X2287878Y-15352714D02*
X2252164Y-15281286D01*
X2252164Y-15281286D02*
X2252164Y-15138428D01*
X2252164Y-15138428D02*
X2287878Y-15067000D01*
X2287878Y-15067000D02*
X2323592Y-15031286D01*
X2323592Y-15031286D02*
X2395021Y-14995571D01*
X2395021Y-14995571D02*
X2609307Y-14995571D01*
X2609307Y-14995571D02*
X2680735Y-15031286D01*
X2680735Y-15031286D02*
X2716450Y-15067000D01*
X2716450Y-15067000D02*
X2752164Y-15138428D01*
X2752164Y-15138428D02*
X2752164Y-15281286D01*
X2752164Y-15281286D02*
X2716450Y-15352714D01*
X2752164Y-14674143D02*
X2002164Y-14674143D01*
X2287878Y-14674143D02*
X2252164Y-14602715D01*
X2252164Y-14602715D02*
X2252164Y-14459857D01*
X2252164Y-14459857D02*
X2287878Y-14388429D01*
X2287878Y-14388429D02*
X2323592Y-14352715D01*
X2323592Y-14352715D02*
X2395021Y-14317000D01*
X2395021Y-14317000D02*
X2609307Y-14317000D01*
X2609307Y-14317000D02*
X2680735Y-14352715D01*
X2680735Y-14352715D02*
X2716450Y-14388429D01*
X2716450Y-14388429D02*
X2752164Y-14459857D01*
X2752164Y-14459857D02*
X2752164Y-14602715D01*
X2752164Y-14602715D02*
X2716450Y-14674143D01*
X2716450Y-13709858D02*
X2752164Y-13781286D01*
X2752164Y-13781286D02*
X2752164Y-13924144D01*
X2752164Y-13924144D02*
X2716450Y-13995572D01*
X2716450Y-13995572D02*
X2645021Y-14031286D01*
X2645021Y-14031286D02*
X2359307Y-14031286D01*
X2359307Y-14031286D02*
X2287878Y-13995572D01*
X2287878Y-13995572D02*
X2252164Y-13924144D01*
X2252164Y-13924144D02*
X2252164Y-13781286D01*
X2252164Y-13781286D02*
X2287878Y-13709858D01*
X2287878Y-13709858D02*
X2359307Y-13674144D01*
X2359307Y-13674144D02*
X2430735Y-13674144D01*
X2430735Y-13674144D02*
X2502164Y-14031286D01*
X2752164Y-13352715D02*
X2252164Y-13352715D01*
X2395021Y-13352715D02*
X2323592Y-13317001D01*
X2323592Y-13317001D02*
X2287878Y-13281287D01*
X2287878Y-13281287D02*
X2252164Y-13209858D01*
X2252164Y-13209858D02*
X2252164Y-13138429D01*
X2752164Y-12888429D02*
X2252164Y-12888429D01*
X2395021Y-12888429D02*
X2323592Y-12852715D01*
X2323592Y-12852715D02*
X2287878Y-12817001D01*
X2287878Y-12817001D02*
X2252164Y-12745572D01*
X2252164Y-12745572D02*
X2252164Y-12674143D01*
X2252164Y-12495572D02*
X2752164Y-12317000D01*
X2252164Y-12138429D02*
X2752164Y-12317000D01*
X2752164Y-12317000D02*
X2930735Y-12388429D01*
X2930735Y-12388429D02*
X2966450Y-12424143D01*
X2966450Y-12424143D02*
X3002164Y-12495572D01*
X2823592Y-12031286D02*
X2823592Y-11459857D01*
X2002164Y-11352714D02*
X2002164Y-10852714D01*
X2002164Y-10852714D02*
X2752164Y-11352714D01*
X2752164Y-11352714D02*
X2752164Y-10852714D01*
X2716450Y-10281285D02*
X2752164Y-10352713D01*
X2752164Y-10352713D02*
X2752164Y-10495571D01*
X2752164Y-10495571D02*
X2716450Y-10566999D01*
X2716450Y-10566999D02*
X2645021Y-10602713D01*
X2645021Y-10602713D02*
X2359307Y-10602713D01*
X2359307Y-10602713D02*
X2287878Y-10566999D01*
X2287878Y-10566999D02*
X2252164Y-10495571D01*
X2252164Y-10495571D02*
X2252164Y-10352713D01*
X2252164Y-10352713D02*
X2287878Y-10281285D01*
X2287878Y-10281285D02*
X2359307Y-10245571D01*
X2359307Y-10245571D02*
X2430735Y-10245571D01*
X2430735Y-10245571D02*
X2502164Y-10602713D01*
X2752164Y-9924142D02*
X2252164Y-9924142D01*
X2395021Y-9924142D02*
X2323592Y-9888428D01*
X2323592Y-9888428D02*
X2287878Y-9852714D01*
X2287878Y-9852714D02*
X2252164Y-9781285D01*
X2252164Y-9781285D02*
X2252164Y-9709856D01*
X2752164Y-9352713D02*
X2716450Y-9424142D01*
X2716450Y-9424142D02*
X2680735Y-9459856D01*
X2680735Y-9459856D02*
X2609307Y-9495570D01*
X2609307Y-9495570D02*
X2395021Y-9495570D01*
X2395021Y-9495570D02*
X2323592Y-9459856D01*
X2323592Y-9459856D02*
X2287878Y-9424142D01*
X2287878Y-9424142D02*
X2252164Y-9352713D01*
X2252164Y-9352713D02*
X2252164Y-9245570D01*
X2252164Y-9245570D02*
X2287878Y-9174142D01*
X2287878Y-9174142D02*
X2323592Y-9138428D01*
X2323592Y-9138428D02*
X2395021Y-9102713D01*
X2395021Y-9102713D02*
X2609307Y-9102713D01*
X2609307Y-9102713D02*
X2680735Y-9138428D01*
X2680735Y-9138428D02*
X2716450Y-9174142D01*
X2716450Y-9174142D02*
X2752164Y-9245570D01*
X2752164Y-9245570D02*
X2752164Y-9352713D01*
X2823592Y-8959857D02*
X2823592Y-8388428D01*
X2073592Y-8245570D02*
X2037878Y-8209856D01*
X2037878Y-8209856D02*
X2002164Y-8138428D01*
X2002164Y-8138428D02*
X2002164Y-7959856D01*
X2002164Y-7959856D02*
X2037878Y-7888428D01*
X2037878Y-7888428D02*
X2073592Y-7852713D01*
X2073592Y-7852713D02*
X2145021Y-7816999D01*
X2145021Y-7816999D02*
X2216450Y-7816999D01*
X2216450Y-7816999D02*
X2323592Y-7852713D01*
X2323592Y-7852713D02*
X2752164Y-8281285D01*
X2752164Y-8281285D02*
X2752164Y-7816999D01*
X2002164Y-7566999D02*
X2752164Y-7388427D01*
X2752164Y-7388427D02*
X2216450Y-7245570D01*
X2216450Y-7245570D02*
X2752164Y-7102713D01*
X2752164Y-7102713D02*
X2002164Y-6924142D01*
X51839255Y-1297414D02*
X51839255Y-547414D01*
X51839255Y-904557D02*
X52267826Y-904557D01*
X52267826Y-1297414D02*
X52267826Y-547414D01*
X52624969Y-1297414D02*
X52624969Y-547414D01*
X52624969Y-547414D02*
X52803540Y-547414D01*
X52803540Y-547414D02*
X52910683Y-583128D01*
X52910683Y-583128D02*
X52982112Y-654557D01*
X52982112Y-654557D02*
X53017826Y-725985D01*
X53017826Y-725985D02*
X53053540Y-868842D01*
X53053540Y-868842D02*
X53053540Y-975985D01*
X53053540Y-975985D02*
X53017826Y-1118842D01*
X53017826Y-1118842D02*
X52982112Y-1190271D01*
X52982112Y-1190271D02*
X52910683Y-1261700D01*
X52910683Y-1261700D02*
X52803540Y-1297414D01*
X52803540Y-1297414D02*
X52624969Y-1297414D01*
X53374969Y-1297414D02*
X53374969Y-547414D01*
X53374969Y-547414D02*
X53624969Y-1083128D01*
X53624969Y-1083128D02*
X53874969Y-547414D01*
X53874969Y-547414D02*
X53874969Y-1297414D01*
X54232112Y-1297414D02*
X54232112Y-547414D01*
X27836255Y-801414D02*
X27836255Y-1408557D01*
X27836255Y-1408557D02*
X27871969Y-1479985D01*
X27871969Y-1479985D02*
X27907684Y-1515700D01*
X27907684Y-1515700D02*
X27979112Y-1551414D01*
X27979112Y-1551414D02*
X28121969Y-1551414D01*
X28121969Y-1551414D02*
X28193398Y-1515700D01*
X28193398Y-1515700D02*
X28229112Y-1479985D01*
X28229112Y-1479985D02*
X28264826Y-1408557D01*
X28264826Y-1408557D02*
X28264826Y-801414D01*
X28586255Y-1515700D02*
X28693398Y-1551414D01*
X28693398Y-1551414D02*
X28871969Y-1551414D01*
X28871969Y-1551414D02*
X28943398Y-1515700D01*
X28943398Y-1515700D02*
X28979112Y-1479985D01*
X28979112Y-1479985D02*
X29014826Y-1408557D01*
X29014826Y-1408557D02*
X29014826Y-1337128D01*
X29014826Y-1337128D02*
X28979112Y-1265700D01*
X28979112Y-1265700D02*
X28943398Y-1229985D01*
X28943398Y-1229985D02*
X28871969Y-1194271D01*
X28871969Y-1194271D02*
X28729112Y-1158557D01*
X28729112Y-1158557D02*
X28657683Y-1122842D01*
X28657683Y-1122842D02*
X28621969Y-1087128D01*
X28621969Y-1087128D02*
X28586255Y-1015700D01*
X28586255Y-1015700D02*
X28586255Y-944271D01*
X28586255Y-944271D02*
X28621969Y-872842D01*
X28621969Y-872842D02*
X28657683Y-837128D01*
X28657683Y-837128D02*
X28729112Y-801414D01*
X28729112Y-801414D02*
X28907683Y-801414D01*
X28907683Y-801414D02*
X29014826Y-837128D01*
X29586255Y-1158557D02*
X29693398Y-1194271D01*
X29693398Y-1194271D02*
X29729112Y-1229985D01*
X29729112Y-1229985D02*
X29764826Y-1301414D01*
X29764826Y-1301414D02*
X29764826Y-1408557D01*
X29764826Y-1408557D02*
X29729112Y-1479985D01*
X29729112Y-1479985D02*
X29693398Y-1515700D01*
X29693398Y-1515700D02*
X29621969Y-1551414D01*
X29621969Y-1551414D02*
X29336255Y-1551414D01*
X29336255Y-1551414D02*
X29336255Y-801414D01*
X29336255Y-801414D02*
X29586255Y-801414D01*
X29586255Y-801414D02*
X29657684Y-837128D01*
X29657684Y-837128D02*
X29693398Y-872842D01*
X29693398Y-872842D02*
X29729112Y-944271D01*
X29729112Y-944271D02*
X29729112Y-1015700D01*
X29729112Y-1015700D02*
X29693398Y-1087128D01*
X29693398Y-1087128D02*
X29657684Y-1122842D01*
X29657684Y-1122842D02*
X29586255Y-1158557D01*
X29586255Y-1158557D02*
X29336255Y-1158557D01*
X1469104Y-16779696D02*
X1507200Y-16817792D01*
X1507200Y-16817792D02*
X1545295Y-16932077D01*
X1545295Y-16932077D02*
X1545295Y-17008268D01*
X1545295Y-17008268D02*
X1507200Y-17122554D01*
X1507200Y-17122554D02*
X1431009Y-17198744D01*
X1431009Y-17198744D02*
X1354819Y-17236839D01*
X1354819Y-17236839D02*
X1202438Y-17274935D01*
X1202438Y-17274935D02*
X1088152Y-17274935D01*
X1088152Y-17274935D02*
X935771Y-17236839D01*
X935771Y-17236839D02*
X859580Y-17198744D01*
X859580Y-17198744D02*
X783390Y-17122554D01*
X783390Y-17122554D02*
X745295Y-17008268D01*
X745295Y-17008268D02*
X745295Y-16932077D01*
X745295Y-16932077D02*
X783390Y-16817792D01*
X783390Y-16817792D02*
X821485Y-16779696D01*
X1316723Y-16474935D02*
X1316723Y-16093982D01*
X1545295Y-16551125D02*
X745295Y-16284458D01*
X745295Y-16284458D02*
X1545295Y-16017792D01*
X1545295Y-15751125D02*
X745295Y-15751125D01*
X745295Y-15751125D02*
X1316723Y-15484459D01*
X1316723Y-15484459D02*
X745295Y-15217792D01*
X745295Y-15217792D02*
X1545295Y-15217792D01*
X1126247Y-14836839D02*
X1126247Y-14570173D01*
X1545295Y-14455887D02*
X1545295Y-14836839D01*
X1545295Y-14836839D02*
X745295Y-14836839D01*
X745295Y-14836839D02*
X745295Y-14455887D01*
X1545295Y-13655886D02*
X1164342Y-13922553D01*
X1545295Y-14113029D02*
X745295Y-14113029D01*
X745295Y-14113029D02*
X745295Y-13808267D01*
X745295Y-13808267D02*
X783390Y-13732077D01*
X783390Y-13732077D02*
X821485Y-13693982D01*
X821485Y-13693982D02*
X897676Y-13655886D01*
X897676Y-13655886D02*
X1011961Y-13655886D01*
X1011961Y-13655886D02*
X1088152Y-13693982D01*
X1088152Y-13693982D02*
X1126247Y-13732077D01*
X1126247Y-13732077D02*
X1164342Y-13808267D01*
X1164342Y-13808267D02*
X1164342Y-14113029D01*
X1316723Y-13351125D02*
X1316723Y-12970172D01*
X1545295Y-13427315D02*
X745295Y-13160648D01*
X745295Y-13160648D02*
X1545295Y-12893982D01*
X10945255Y-1170414D02*
X10945255Y-420414D01*
X10945255Y-420414D02*
X11230969Y-420414D01*
X11230969Y-420414D02*
X11302398Y-456128D01*
X11302398Y-456128D02*
X11338112Y-491842D01*
X11338112Y-491842D02*
X11373826Y-563271D01*
X11373826Y-563271D02*
X11373826Y-670414D01*
X11373826Y-670414D02*
X11338112Y-741842D01*
X11338112Y-741842D02*
X11302398Y-777557D01*
X11302398Y-777557D02*
X11230969Y-813271D01*
X11230969Y-813271D02*
X10945255Y-813271D01*
X11623826Y-420414D02*
X11802398Y-1170414D01*
X11802398Y-1170414D02*
X11945255Y-634700D01*
X11945255Y-634700D02*
X12088112Y-1170414D01*
X12088112Y-1170414D02*
X12266684Y-420414D01*
X12980969Y-1170414D02*
X12730969Y-813271D01*
X12552398Y-1170414D02*
X12552398Y-420414D01*
X12552398Y-420414D02*
X12838112Y-420414D01*
X12838112Y-420414D02*
X12909541Y-456128D01*
X12909541Y-456128D02*
X12945255Y-491842D01*
X12945255Y-491842D02*
X12980969Y-563271D01*
X12980969Y-563271D02*
X12980969Y-670414D01*
X12980969Y-670414D02*
X12945255Y-741842D01*
X12945255Y-741842D02*
X12909541Y-777557D01*
X12909541Y-777557D02*
X12838112Y-813271D01*
X12838112Y-813271D02*
X12552398Y-813271D01*
X57757585Y-23530112D02*
X57757585Y-23101541D01*
X57757585Y-23315826D02*
X58507585Y-23315826D01*
X58507585Y-23315826D02*
X58400442Y-23244398D01*
X58400442Y-23244398D02*
X58329014Y-23172969D01*
X58329014Y-23172969D02*
X58293300Y-23101541D01*
X65921300Y-10655541D02*
X65885585Y-10762684D01*
X65885585Y-10762684D02*
X65885585Y-10941255D01*
X65885585Y-10941255D02*
X65921300Y-11012684D01*
X65921300Y-11012684D02*
X65957014Y-11048398D01*
X65957014Y-11048398D02*
X66028442Y-11084112D01*
X66028442Y-11084112D02*
X66099871Y-11084112D01*
X66099871Y-11084112D02*
X66171300Y-11048398D01*
X66171300Y-11048398D02*
X66207014Y-11012684D01*
X66207014Y-11012684D02*
X66242728Y-10941255D01*
X66242728Y-10941255D02*
X66278442Y-10798398D01*
X66278442Y-10798398D02*
X66314157Y-10726969D01*
X66314157Y-10726969D02*
X66349871Y-10691255D01*
X66349871Y-10691255D02*
X66421300Y-10655541D01*
X66421300Y-10655541D02*
X66492728Y-10655541D01*
X66492728Y-10655541D02*
X66564157Y-10691255D01*
X66564157Y-10691255D02*
X66599871Y-10726969D01*
X66599871Y-10726969D02*
X66635585Y-10798398D01*
X66635585Y-10798398D02*
X66635585Y-10976969D01*
X66635585Y-10976969D02*
X66599871Y-11084112D01*
X65885585Y-11405541D02*
X66635585Y-11405541D01*
X66635585Y-11405541D02*
X66635585Y-11584112D01*
X66635585Y-11584112D02*
X66599871Y-11691255D01*
X66599871Y-11691255D02*
X66528442Y-11762684D01*
X66528442Y-11762684D02*
X66457014Y-11798398D01*
X66457014Y-11798398D02*
X66314157Y-11834112D01*
X66314157Y-11834112D02*
X66207014Y-11834112D01*
X66207014Y-11834112D02*
X66064157Y-11798398D01*
X66064157Y-11798398D02*
X65992728Y-11762684D01*
X65992728Y-11762684D02*
X65921300Y-11691255D01*
X65921300Y-11691255D02*
X65885585Y-11584112D01*
X65885585Y-11584112D02*
X65885585Y-11405541D01*
X65814157Y-11976970D02*
X65814157Y-12548398D01*
X65957014Y-13155541D02*
X65921300Y-13119827D01*
X65921300Y-13119827D02*
X65885585Y-13012684D01*
X65885585Y-13012684D02*
X65885585Y-12941256D01*
X65885585Y-12941256D02*
X65921300Y-12834113D01*
X65921300Y-12834113D02*
X65992728Y-12762684D01*
X65992728Y-12762684D02*
X66064157Y-12726970D01*
X66064157Y-12726970D02*
X66207014Y-12691256D01*
X66207014Y-12691256D02*
X66314157Y-12691256D01*
X66314157Y-12691256D02*
X66457014Y-12726970D01*
X66457014Y-12726970D02*
X66528442Y-12762684D01*
X66528442Y-12762684D02*
X66599871Y-12834113D01*
X66599871Y-12834113D02*
X66635585Y-12941256D01*
X66635585Y-12941256D02*
X66635585Y-13012684D01*
X66635585Y-13012684D02*
X66599871Y-13119827D01*
X66599871Y-13119827D02*
X66564157Y-13155541D01*
X66099871Y-13441256D02*
X66099871Y-13798399D01*
X65885585Y-13369827D02*
X66635585Y-13619827D01*
X66635585Y-13619827D02*
X65885585Y-13869827D01*
X65885585Y-14548398D02*
X66242728Y-14298398D01*
X65885585Y-14119827D02*
X66635585Y-14119827D01*
X66635585Y-14119827D02*
X66635585Y-14405541D01*
X66635585Y-14405541D02*
X66599871Y-14476970D01*
X66599871Y-14476970D02*
X66564157Y-14512684D01*
X66564157Y-14512684D02*
X66492728Y-14548398D01*
X66492728Y-14548398D02*
X66385585Y-14548398D01*
X66385585Y-14548398D02*
X66314157Y-14512684D01*
X66314157Y-14512684D02*
X66278442Y-14476970D01*
X66278442Y-14476970D02*
X66242728Y-14405541D01*
X66242728Y-14405541D02*
X66242728Y-14119827D01*
X65885585Y-14869827D02*
X66635585Y-14869827D01*
X66635585Y-14869827D02*
X66635585Y-15048398D01*
X66635585Y-15048398D02*
X66599871Y-15155541D01*
X66599871Y-15155541D02*
X66528442Y-15226970D01*
X66528442Y-15226970D02*
X66457014Y-15262684D01*
X66457014Y-15262684D02*
X66314157Y-15298398D01*
X66314157Y-15298398D02*
X66207014Y-15298398D01*
X66207014Y-15298398D02*
X66064157Y-15262684D01*
X66064157Y-15262684D02*
X65992728Y-15226970D01*
X65992728Y-15226970D02*
X65921300Y-15155541D01*
X65921300Y-15155541D02*
X65885585Y-15048398D01*
X65885585Y-15048398D02*
X65885585Y-14869827D01*
D12*
%TO.C,SW8*%
X10788983Y-17582952D02*
X13153016Y-15735968D01*
X13153016Y-15735968D02*
X15517048Y-13888983D01*
X14482952Y-22311017D02*
X10788983Y-17582952D01*
X15517048Y-13888983D02*
X19211017Y-18617048D01*
X19211017Y-18617048D02*
X14482952Y-22311017D01*
X17015565Y-18100000D02*
G75*
G02*
X12984435Y-18100000I-2015565J0D01*
G01*
X12984435Y-18100000D02*
G75*
G02*
X17015565Y-18100000I2015565J0D01*
G01*
%TO.C,J1*%
X30250000Y-450000D02*
X33000000Y-450000D01*
X30250000Y-14450000D02*
X30250000Y-450000D01*
X33000000Y-450000D02*
X33000000Y3050000D01*
X39000000Y3050000D02*
X33000000Y3050000D01*
X39000000Y-450000D02*
X39000000Y3050000D01*
X41750000Y-450000D02*
X39000000Y-450000D01*
X41750000Y-14450000D02*
X30250000Y-14450000D01*
X41750000Y-14450000D02*
X41750000Y-450000D01*
%TO.C,C3*%
X57607000Y-4044000D02*
X54407000Y-4044000D01*
X54407000Y-1544000D01*
X57607000Y-1544000D01*
X57607000Y-4044000D01*
%TO.C,C4*%
X46245000Y-5952000D02*
X46245000Y-652000D01*
X50545000Y-652000D02*
X46245000Y-652000D01*
X50545000Y-5952000D02*
X46245000Y-5952000D01*
X50678956Y-4752000D02*
X50678956Y-4252000D01*
X50928956Y-4502000D02*
X50428956Y-4502000D01*
X51545000Y-1652000D02*
X50545000Y-652000D01*
X51545000Y-4952000D02*
X50545000Y-5952000D01*
X51545000Y-4952000D02*
X51545000Y-1652000D01*
X51395000Y-3302000D02*
G75*
G02*
X46395000Y-3302000I-2500000J0D01*
G01*
X46395000Y-3302000D02*
G75*
G02*
X51395000Y-3302000I2500000J0D01*
G01*
%TO.C,SW2*%
X58000000Y-16000000D02*
X64000000Y-16000000D01*
X58000000Y-22000000D02*
X58000000Y-16000000D01*
X61000000Y-22000000D02*
X58000000Y-22000000D01*
X64000000Y-16000000D02*
X64000000Y-22000000D01*
X64000000Y-22000000D02*
X61000000Y-22000000D01*
X63015564Y-19000000D02*
G75*
G02*
X58984436Y-19000000I-2015564J0D01*
G01*
X58984436Y-19000000D02*
G75*
G02*
X63015564Y-19000000I2015564J0D01*
G01*
%TO.C,C1*%
X28524000Y-9632000D02*
X25324000Y-9632000D01*
X25324000Y-7132000D01*
X28524000Y-7132000D01*
X28524000Y-9632000D01*
%TO.C,R2*%
X30442000Y-19761000D02*
X32042000Y-19761000D01*
X32042000Y-16561000D01*
X30442000Y-16561000D01*
X30442000Y-19761000D01*
%TO.C,R1*%
X23419000Y-19647000D02*
X26619000Y-19647000D01*
X26619000Y-21247000D01*
X23419000Y-21247000D01*
X23419000Y-19647000D01*
%TO.C,SW6*%
X10788983Y-5382952D02*
X13153016Y-3535968D01*
X13153016Y-3535968D02*
X15517048Y-1688983D01*
X14482952Y-10111017D02*
X10788983Y-5382952D01*
X15517048Y-1688983D02*
X19211017Y-6417048D01*
X19211017Y-6417048D02*
X14482952Y-10111017D01*
X17015565Y-5900000D02*
G75*
G02*
X12984435Y-5900000I-2015565J0D01*
G01*
X12984435Y-5900000D02*
G75*
G02*
X17015565Y-5900000I2015565J0D01*
G01*
%TO.C,C5*%
X33926000Y-21573000D02*
X33926000Y-16273000D01*
X38226000Y-16273000D02*
X33926000Y-16273000D01*
X38226000Y-21573000D02*
X33926000Y-21573000D01*
X38359956Y-20373000D02*
X38359956Y-19873000D01*
X38609956Y-20123000D02*
X38109956Y-20123000D01*
X39226000Y-17273000D02*
X38226000Y-16273000D01*
X39226000Y-20573000D02*
X38226000Y-21573000D01*
X39226000Y-20573000D02*
X39226000Y-17273000D01*
X39076000Y-18923000D02*
G75*
G02*
X34076000Y-18923000I-2500000J0D01*
G01*
X34076000Y-18923000D02*
G75*
G02*
X39076000Y-18923000I2500000J0D01*
G01*
%TO.C,C2*%
X21988000Y-1271000D02*
X21988000Y-4571000D01*
X21988000Y-1271000D02*
X22988000Y-271000D01*
X21988000Y-4571000D02*
X22988000Y-5571000D01*
X22604044Y-1721000D02*
X23104044Y-1721000D01*
X22854044Y-1471000D02*
X22854044Y-1971000D01*
X22988000Y-271000D02*
X27288000Y-271000D01*
X22988000Y-5571000D02*
X27288000Y-5571000D01*
X27288000Y-271000D02*
X27288000Y-5571000D01*
X27138000Y-2921000D02*
G75*
G02*
X22138000Y-2921000I-2500000J0D01*
G01*
X22138000Y-2921000D02*
G75*
G02*
X27138000Y-2921000I2500000J0D01*
G01*
%TO.C,SW4*%
X58000000Y-8000000D02*
X61000000Y-8000000D01*
X58000000Y-14000000D02*
X58000000Y-8000000D01*
X61000000Y-8000000D02*
X64000000Y-8000000D01*
X64000000Y-8000000D02*
X64000000Y-14000000D01*
X64000000Y-14000000D02*
X58000000Y-14000000D01*
X63015564Y-11000000D02*
G75*
G02*
X58984436Y-11000000I-2015564J0D01*
G01*
X58984436Y-11000000D02*
G75*
G02*
X63015564Y-11000000I2015564J0D01*
G01*
%TO.C,R4*%
X57480000Y-6515000D02*
X54280000Y-6515000D01*
X54280000Y-4915000D01*
X57480000Y-4915000D01*
X57480000Y-6515000D01*
%TO.C,SW3*%
X47000000Y-8000000D02*
X50000000Y-8000000D01*
X47000000Y-14000000D02*
X47000000Y-8000000D01*
X50000000Y-8000000D02*
X53000000Y-8000000D01*
X53000000Y-8000000D02*
X53000000Y-14000000D01*
X53000000Y-14000000D02*
X47000000Y-14000000D01*
X52015564Y-11000000D02*
G75*
G02*
X47984436Y-11000000I-2015564J0D01*
G01*
X47984436Y-11000000D02*
G75*
G02*
X52015564Y-11000000I2015564J0D01*
G01*
%TO.C,SW1*%
X47000000Y-16000000D02*
X53000000Y-16000000D01*
X47000000Y-22000000D02*
X47000000Y-16000000D01*
X50000000Y-22000000D02*
X47000000Y-22000000D01*
X53000000Y-16000000D02*
X53000000Y-22000000D01*
X53000000Y-22000000D02*
X50000000Y-22000000D01*
X52015564Y-19000000D02*
G75*
G02*
X47984436Y-19000000I-2015564J0D01*
G01*
X47984436Y-19000000D02*
G75*
G02*
X52015564Y-19000000I2015564J0D01*
G01*
%TO.C,R3*%
X23927000Y-16980000D02*
X27127000Y-16980000D01*
X27127000Y-18580000D01*
X23927000Y-18580000D01*
X23927000Y-16980000D01*
%TO.C,SW5*%
X16888983Y-11482952D02*
X21617048Y-7788983D01*
X20582952Y-16211017D02*
X16888983Y-11482952D01*
X21617048Y-7788983D02*
X23464032Y-10153016D01*
X23464032Y-10153016D02*
X25311017Y-12517048D01*
X25311017Y-12517048D02*
X20582952Y-16211017D01*
X23115565Y-12000000D02*
G75*
G02*
X19084435Y-12000000I-2015565J0D01*
G01*
X19084435Y-12000000D02*
G75*
G02*
X23115565Y-12000000I2015565J0D01*
G01*
%TO.C,SW7*%
X4688983Y-11482952D02*
X9417048Y-7788983D01*
X8382952Y-16211017D02*
X4688983Y-11482952D01*
X9417048Y-7788983D02*
X11264032Y-10153016D01*
X11264032Y-10153016D02*
X13111017Y-12517048D01*
X13111017Y-12517048D02*
X8382952Y-16211017D01*
X10915565Y-12000000D02*
G75*
G02*
X6884435Y-12000000I-2015565J0D01*
G01*
X6884435Y-12000000D02*
G75*
G02*
X10915565Y-12000000I2015565J0D01*
G01*
%TD*%
M02*
