%TF.GenerationSoftware,KiCad,Pcbnew,9.0.7*%
%TF.CreationDate,2026-05-20T09:51:19+02:00*%
%TF.ProjectId,ZeroTiny,5a65726f-5469-46e7-992e-6b696361645f,rev?*%
%TF.SameCoordinates,Original*%
%TF.FileFunction,Copper,L1,Top*%
%TF.FilePolarity,Positive*%
%FSLAX46Y46*%
G04 Gerber Fmt 4.6, Leading zero omitted, Abs format (unit mm)*
G04 Created by KiCad (PCBNEW 9.0.7) date 2026-05-20 09:51:19*
%MOMM*%
%LPD*%
G01*
G04 APERTURE LIST*
G04 Aperture macros list*
%AMRoundRect*
0 Rectangle with rounded corners*
0 $1 Rounding radius*
0 $2 $3 $4 $5 $6 $7 $8 $9 X,Y pos of 4 corners*
0 Add a 4 corners polygon primitive as box body*
4,1,4,$2,$3,$4,$5,$6,$7,$8,$9,$2,$3,0*
0 Add four circle primitives for the rounded corners*
1,1,$1+$1,$2,$3*
1,1,$1+$1,$4,$5*
1,1,$1+$1,$6,$7*
1,1,$1+$1,$8,$9*
0 Add four rect primitives between the rounded corners*
20,1,$1+$1,$2,$3,$4,$5,0*
20,1,$1+$1,$4,$5,$6,$7,0*
20,1,$1+$1,$6,$7,$8,$9,0*
20,1,$1+$1,$8,$9,$2,$3,0*%
G04 Aperture macros list end*
%ADD10C,0.375000*%
%TA.AperFunction,ComponentPad*%
%ADD11RoundRect,0.700000X0.772020X-0.094792X0.094792X0.772020X-0.772020X0.094792X-0.094792X-0.772020X0*%
%TD*%
%TA.AperFunction,ComponentPad*%
%ADD12O,2.500000X4.500000*%
%TD*%
%TA.AperFunction,ComponentPad*%
%ADD13O,4.500000X3.000000*%
%TD*%
%TA.AperFunction,ComponentPad*%
%ADD14O,3.000000X4.500000*%
%TD*%
%TA.AperFunction,ComponentPad*%
%ADD15RoundRect,0.700000X0.550000X-0.550000X0.550000X0.550000X-0.550000X0.550000X-0.550000X-0.550000X0*%
%TD*%
%TA.AperFunction,SMDPad,CuDef*%
%ADD16RoundRect,0.250000X0.412500X0.650000X-0.412500X0.650000X-0.412500X-0.650000X0.412500X-0.650000X0*%
%TD*%
%TA.AperFunction,SMDPad,CuDef*%
%ADD17RoundRect,0.250001X0.507499X0.944999X-0.507499X0.944999X-0.507499X-0.944999X0.507499X-0.944999X0*%
%TD*%
%TA.AperFunction,ComponentPad*%
%ADD18RoundRect,0.700000X-0.550000X0.550000X-0.550000X-0.550000X0.550000X-0.550000X0.550000X0.550000X0*%
%TD*%
%TA.AperFunction,SMDPad,CuDef*%
%ADD19RoundRect,0.250000X-0.412500X-0.650000X0.412500X-0.650000X0.412500X0.650000X-0.412500X0.650000X0*%
%TD*%
%TA.AperFunction,SMDPad,CuDef*%
%ADD20RoundRect,0.250000X0.625000X-0.400000X0.625000X0.400000X-0.625000X0.400000X-0.625000X-0.400000X0*%
%TD*%
%TA.AperFunction,SMDPad,CuDef*%
%ADD21RoundRect,0.250000X-0.400000X-0.625000X0.400000X-0.625000X0.400000X0.625000X-0.400000X0.625000X0*%
%TD*%
%TA.AperFunction,SMDPad,CuDef*%
%ADD22RoundRect,0.250001X-0.507499X-0.944999X0.507499X-0.944999X0.507499X0.944999X-0.507499X0.944999X0*%
%TD*%
%TA.AperFunction,SMDPad,CuDef*%
%ADD23RoundRect,0.250000X0.400000X0.625000X-0.400000X0.625000X-0.400000X-0.625000X0.400000X-0.625000X0*%
%TD*%
%TA.AperFunction,ComponentPad*%
%ADD24RoundRect,0.700000X-0.094792X-0.772020X0.772020X-0.094792X0.094792X0.772020X-0.772020X0.094792X0*%
%TD*%
%TA.AperFunction,ComponentPad*%
%ADD25O,1.600000X3.000000*%
%TD*%
%TA.AperFunction,ViaPad*%
%ADD26C,1.600000*%
%TD*%
%TA.AperFunction,Conductor*%
%ADD27C,0.400000*%
%TD*%
%TA.AperFunction,Conductor*%
%ADD28C,0.500000*%
%TD*%
%TA.AperFunction,Conductor*%
%ADD29C,0.330000*%
%TD*%
%TA.AperFunction,Conductor*%
%ADD30C,0.800000*%
%TD*%
G04 APERTURE END LIST*
D10*
G36*
X2695000Y-22109163D02*
G01*
X1440568Y-22109163D01*
X1440568Y-22554937D01*
X1188510Y-22554937D01*
X1188510Y-21361139D01*
X1440568Y-21361139D01*
X1440568Y-21805905D01*
X2695000Y-21805905D01*
X2695000Y-22109163D01*
G37*
G36*
X2094752Y-19816504D02*
G01*
X2223355Y-19841883D01*
X2335302Y-19882155D01*
X2432954Y-19936590D01*
X2518137Y-20005316D01*
X2591222Y-20088203D01*
X2648126Y-20180889D01*
X2689562Y-20284755D01*
X2715328Y-20401705D01*
X2724309Y-20534071D01*
X2715320Y-20668311D01*
X2689578Y-20786528D01*
X2648267Y-20891131D01*
X2591667Y-20984093D01*
X2519145Y-21066857D01*
X2434265Y-21135745D01*
X2337311Y-21190202D01*
X2226529Y-21230413D01*
X2099639Y-21255710D01*
X1953936Y-21264602D01*
X1801294Y-21256132D01*
X1673686Y-21232528D01*
X1567239Y-21195908D01*
X1458072Y-21135450D01*
X1360518Y-21056140D01*
X1303755Y-20993950D01*
X1258799Y-20929324D01*
X1224688Y-20861876D01*
X1192349Y-20766570D01*
X1172125Y-20659274D01*
X1165062Y-20538101D01*
X1165267Y-20535079D01*
X1422983Y-20535079D01*
X1431529Y-20626544D01*
X1456083Y-20705954D01*
X1496135Y-20775675D01*
X1552676Y-20837329D01*
X1619847Y-20884371D01*
X1704645Y-20920182D01*
X1810987Y-20943569D01*
X1943678Y-20952093D01*
X2073665Y-20943482D01*
X2179232Y-20919696D01*
X2264726Y-20882971D01*
X2333673Y-20834307D01*
X2392089Y-20770925D01*
X2433023Y-20700980D01*
X2457835Y-20623064D01*
X2466388Y-20535079D01*
X2457866Y-20447025D01*
X2433189Y-20369372D01*
X2392560Y-20299979D01*
X2334680Y-20237408D01*
X2266417Y-20189662D01*
X2180543Y-20153369D01*
X2073175Y-20129702D01*
X1939556Y-20121087D01*
X1807249Y-20129524D01*
X1701503Y-20152640D01*
X1617451Y-20187971D01*
X1551119Y-20234294D01*
X1495380Y-20295106D01*
X1455799Y-20364271D01*
X1431470Y-20443454D01*
X1422983Y-20535079D01*
X1165267Y-20535079D01*
X1174057Y-20405398D01*
X1199873Y-20288016D01*
X1241412Y-20183642D01*
X1298476Y-20090385D01*
X1371783Y-20006873D01*
X1457178Y-19937647D01*
X1555240Y-19882794D01*
X1667834Y-19842191D01*
X1797370Y-19816588D01*
X1946700Y-19807571D01*
X2094752Y-19816504D01*
G37*
G36*
X1743144Y-18425982D02*
G01*
X1820084Y-18443124D01*
X1884968Y-18470067D01*
X1944708Y-18507456D01*
X1993806Y-18549935D01*
X2033437Y-18597653D01*
X2078875Y-18677078D01*
X2104787Y-18755006D01*
X2120119Y-18875802D01*
X2126402Y-19069622D01*
X2126402Y-19267367D01*
X2695000Y-19267367D01*
X2695000Y-19570625D01*
X1188510Y-19570625D01*
X1188510Y-19120821D01*
X1440568Y-19120821D01*
X1440568Y-19267367D01*
X1874344Y-19267367D01*
X1874344Y-19101404D01*
X1866703Y-18936871D01*
X1850347Y-18861618D01*
X1819333Y-18807364D01*
X1775334Y-18766822D01*
X1720771Y-18741269D01*
X1656448Y-18732475D01*
X1602655Y-18738141D01*
X1557374Y-18754295D01*
X1518787Y-18780652D01*
X1487198Y-18815552D01*
X1464738Y-18855830D01*
X1451010Y-18902560D01*
X1443908Y-18970445D01*
X1440568Y-19120821D01*
X1188510Y-19120821D01*
X1188510Y-19083910D01*
X1195872Y-18830935D01*
X1211133Y-18723224D01*
X1242271Y-18642388D01*
X1290826Y-18570775D01*
X1358594Y-18506978D01*
X1438465Y-18459949D01*
X1534830Y-18430403D01*
X1651777Y-18419875D01*
X1743144Y-18425982D01*
G37*
D11*
%TO.P,SW3,1,1*%
%TO.N,/GND*%
X10053727Y-18327876D03*
X15175797Y-14326076D03*
%TO.P,SW3,2,2*%
%TO.N,/KEY_DOWN*%
X12824203Y-21873924D03*
X17946273Y-17872124D03*
%TD*%
D12*
%TO.P,J1,R*%
%TO.N,Net-(C4-Pad2)*%
X40450000Y-10550000D03*
%TO.P,J1,RN*%
X37350000Y-9350000D03*
D13*
%TO.P,J1,S*%
%TO.N,/GND*%
X35000000Y-2250000D03*
D14*
%TO.P,J1,T*%
%TO.N,Net-(C2-Pad2)*%
X30400000Y-6550000D03*
D13*
%TO.P,J1,TN*%
X30900000Y-13750000D03*
%TD*%
D15*
%TO.P,SW9,1,1*%
%TO.N,/GND*%
X30950000Y-17150000D03*
X37450000Y-17150000D03*
%TO.P,SW9,2,2*%
%TO.N,/KEY_ALT*%
X30950000Y-21650000D03*
X37450000Y-21650000D03*
%TD*%
D16*
%TO.P,C3,1*%
%TO.N,/GND*%
X56569500Y-2794000D03*
%TO.P,C3,2*%
%TO.N,Net-(C3-Pad2)*%
X53444500Y-2794000D03*
%TD*%
D17*
%TO.P,C4,1*%
%TO.N,Net-(C3-Pad2)*%
X48760500Y-2921000D03*
%TO.P,C4,2*%
%TO.N,Net-(C4-Pad2)*%
X45505500Y-2921000D03*
%TD*%
D18*
%TO.P,SW6,1,1*%
%TO.N,/GND*%
X63250000Y-21250000D03*
X56750000Y-21250000D03*
%TO.P,SW6,2,2*%
%TO.N,/KEY_B*%
X63250000Y-16750000D03*
X56750000Y-16750000D03*
%TD*%
D19*
%TO.P,C1,1*%
%TO.N,Net-(C1-Pad1)*%
X21887500Y-5480000D03*
%TO.P,C1,2*%
%TO.N,/GND*%
X25012500Y-5480000D03*
%TD*%
D20*
%TO.P,R2,1*%
%TO.N,/GND*%
X27300000Y-7580000D03*
%TO.P,R2,2*%
%TO.N,Net-(C2-Pad2)*%
X27300000Y-4480000D03*
%TD*%
D21*
%TO.P,R1,1*%
%TO.N,/PWM_L*%
X22470000Y-20210000D03*
%TO.P,R1,2*%
%TO.N,Net-(C1-Pad1)*%
X25570000Y-20210000D03*
%TD*%
D11*
%TO.P,SW2,1,1*%
%TO.N,/GND*%
X10053727Y-6127876D03*
X15175797Y-2126076D03*
%TO.P,SW2,2,2*%
%TO.N,/KEY_UP*%
X12824203Y-9673924D03*
X17946273Y-5672124D03*
%TD*%
D22*
%TO.P,C2,1*%
%TO.N,Net-(C1-Pad1)*%
X21375500Y-2413000D03*
%TO.P,C2,2*%
%TO.N,Net-(C2-Pad2)*%
X24630500Y-2413000D03*
%TD*%
D15*
%TO.P,SW8,1,1*%
%TO.N,/GND*%
X56750000Y-8750000D03*
X63250000Y-8750000D03*
%TO.P,SW8,2,2*%
%TO.N,/KEY_Y*%
X56750000Y-13250000D03*
X63250000Y-13250000D03*
%TD*%
D23*
%TO.P,R4,1*%
%TO.N,/GND*%
X56430000Y-5715000D03*
%TO.P,R4,2*%
%TO.N,Net-(C4-Pad2)*%
X53330000Y-5715000D03*
%TD*%
D15*
%TO.P,SW7,1,1*%
%TO.N,/GND*%
X45750000Y-8750000D03*
X52250000Y-8750000D03*
%TO.P,SW7,2,2*%
%TO.N,/KEY_X*%
X45750000Y-13250000D03*
X52250000Y-13250000D03*
%TD*%
D18*
%TO.P,SW5,1,1*%
%TO.N,/GND*%
X52250000Y-21250000D03*
X45750000Y-21250000D03*
%TO.P,SW5,2,2*%
%TO.N,/KEY_A*%
X52250000Y-16750000D03*
X45750000Y-16750000D03*
%TD*%
D21*
%TO.P,R3,1*%
%TO.N,/PWM_R*%
X23440000Y-17580000D03*
%TO.P,R3,2*%
%TO.N,Net-(C3-Pad2)*%
X26540000Y-17580000D03*
%TD*%
D24*
%TO.P,SW4,1,1*%
%TO.N,/GND*%
X19872124Y-8053727D03*
X23873924Y-13175797D03*
%TO.P,SW4,2,2*%
%TO.N,/KEY_RIGHT*%
X16326076Y-10824203D03*
X20327876Y-15946273D03*
%TD*%
%TO.P,SW1,1,1*%
%TO.N,/GND*%
X7672124Y-8053727D03*
X11673924Y-13175797D03*
%TO.P,SW1,2,2*%
%TO.N,/KEY_LEFT*%
X4126076Y-10824203D03*
X8127876Y-15946273D03*
%TD*%
D25*
%TO.P,IC1,1,3V3*%
%TO.N,unconnected-(IC1-3V3-Pad1)*%
X57130000Y-25330000D03*
%TO.P,IC1,2,5V*%
%TO.N,unconnected-(IC1-5V-Pad2)*%
X57130000Y-28670000D03*
%TO.P,IC1,3,GPIO2/I2C1_SDA*%
%TO.N,unconnected-(IC1-GPIO2{slash}I2C1_SDA-Pad3)*%
X54590000Y-25330000D03*
%TO.P,IC1,4,5V*%
%TO.N,unconnected-(IC1-5V-Pad4)*%
X54590000Y-28670000D03*
%TO.P,IC1,5,GPIO3/I2C1_SCL*%
%TO.N,unconnected-(IC1-GPIO3{slash}I2C1_SCL-Pad5)*%
X52050000Y-25330000D03*
%TO.P,IC1,6,GND*%
%TO.N,/GND*%
X52050000Y-28670000D03*
%TO.P,IC1,7,GPIO4/GCLK0*%
%TO.N,/KEY_ALT*%
X49510000Y-25330000D03*
%TO.P,IC1,8,GPIO14/UART_TX*%
%TO.N,unconnected-(IC1-GPIO14{slash}UART_TX-Pad8)*%
X49510000Y-28670000D03*
%TO.P,IC1,9,GND*%
%TO.N,/GND*%
X46970000Y-25330000D03*
%TO.P,IC1,10,GPIO15/UART_RX*%
%TO.N,unconnected-(IC1-GPIO15{slash}UART_RX-Pad10)*%
X46970000Y-28670000D03*
%TO.P,IC1,11,GPIO17//~{SPI1_CE1}*%
%TO.N,unconnected-(IC1-GPIO17{slash}{slash}~{SPI1_CE1}-Pad11)*%
X44430000Y-25330000D03*
%TO.P,IC1,12,GPIO18//~{SPI1_CE0}*%
%TO.N,unconnected-(IC1-GPIO18{slash}{slash}~{SPI1_CE0}-Pad12)*%
X44430000Y-28670000D03*
%TO.P,IC1,13,GPIO27*%
%TO.N,/KEY_Y*%
X41890000Y-25330000D03*
%TO.P,IC1,14,GND*%
%TO.N,/GND*%
X41890000Y-28670000D03*
%TO.P,IC1,15,GPIO22*%
%TO.N,/KEY_A*%
X39350000Y-25330000D03*
%TO.P,IC1,16,GPIO23*%
%TO.N,/KEY_B*%
X39350000Y-28670000D03*
%TO.P,IC1,17,3V3*%
%TO.N,unconnected-(IC1-3V3-Pad17)*%
X36810000Y-25330000D03*
%TO.P,IC1,18,GPIO24*%
%TO.N,/KEY_X*%
X36810000Y-28670000D03*
%TO.P,IC1,19,GPIO10/SPI0_MOSI*%
%TO.N,unconnected-(IC1-GPIO10{slash}SPI0_MOSI-Pad19)*%
X34270000Y-25330000D03*
%TO.P,IC1,20,GND*%
%TO.N,/GND*%
X34270000Y-28670000D03*
%TO.P,IC1,21,GPIO9/SPI0_MISO*%
%TO.N,unconnected-(IC1-GPIO9{slash}SPI0_MISO-Pad21)*%
X31730000Y-25330000D03*
%TO.P,IC1,22,GPIO25*%
%TO.N,/KEY_RIGHT*%
X31730000Y-28670000D03*
%TO.P,IC1,23,GPIO11/SPI0_SCLK*%
%TO.N,unconnected-(IC1-GPIO11{slash}SPI0_SCLK-Pad23)*%
X29190000Y-25330000D03*
%TO.P,IC1,24,GPIO8/~{SPI0_CE0}*%
%TO.N,unconnected-(IC1-GPIO8{slash}~{SPI0_CE0}-Pad24)*%
X29190000Y-28670000D03*
%TO.P,IC1,25,GND*%
%TO.N,/GND*%
X26650000Y-25330000D03*
%TO.P,IC1,26,GPIO7/~{SPI0_CE1}*%
%TO.N,unconnected-(IC1-GPIO7{slash}~{SPI0_CE1}-Pad26)*%
X26650000Y-28670000D03*
%TO.P,IC1,27,GPIO0/I2C0_SDA*%
%TO.N,unconnected-(IC1-GPIO0{slash}I2C0_SDA-Pad27)*%
X24110000Y-25330000D03*
%TO.P,IC1,28,GPIO1/I2C0_SCL*%
%TO.N,unconnected-(IC1-GPIO1{slash}I2C0_SCL-Pad28)*%
X24110000Y-28670000D03*
%TO.P,IC1,29,GPIO5/GCLK1*%
%TO.N,/KEY_DOWN*%
X21570000Y-25330000D03*
%TO.P,IC1,30,GND*%
%TO.N,/GND*%
X21570000Y-28670000D03*
%TO.P,IC1,31,GPIO6/GCLK2*%
%TO.N,/KEY_UP*%
X19030000Y-25330000D03*
%TO.P,IC1,32,GPIO12/PWM0*%
%TO.N,/PWM_L*%
X19030000Y-28670000D03*
%TO.P,IC1,33,GPIO13/PWM1*%
%TO.N,/PWM_R*%
X16490000Y-25330000D03*
%TO.P,IC1,34,GND*%
%TO.N,/GND*%
X16490000Y-28670000D03*
%TO.P,IC1,35,GPIO19/SPI1_MISO*%
%TO.N,unconnected-(IC1-GPIO19{slash}SPI1_MISO-Pad35)*%
X13950000Y-25330000D03*
%TO.P,IC1,36,GPIO16/~{SPI1_CE2}*%
%TO.N,unconnected-(IC1-GPIO16{slash}~{SPI1_CE2}-Pad36)*%
X13950000Y-28670000D03*
%TO.P,IC1,37,GPIO26*%
%TO.N,/KEY_LEFT*%
X11410000Y-25330000D03*
%TO.P,IC1,38,GPIO20/SPI1_MOSI*%
%TO.N,unconnected-(IC1-GPIO20{slash}SPI1_MOSI-Pad38)*%
X11410000Y-28670000D03*
%TO.P,IC1,39,GND*%
%TO.N,/GND*%
X8870000Y-25330000D03*
%TO.P,IC1,40,GPIO21/SPI1_SCLK*%
%TO.N,unconnected-(IC1-GPIO21{slash}SPI1_SCLK-Pad40)*%
X8870000Y-28670000D03*
%TD*%
D26*
%TO.N,/GND*%
X58563000Y-6477000D03*
X28080000Y-20220000D03*
X25830000Y-9460000D03*
X15280000Y-22910000D03*
%TO.N,/KEY_RIGHT*%
X28288115Y-22437707D03*
%TO.N,/KEY_DOWN*%
X21530000Y-22596646D03*
%TO.N,Net-(C2-Pad2)*%
X27110000Y-2980000D03*
%TO.N,Net-(C3-Pad2)*%
X25670000Y-15120000D03*
X51070000Y-5060000D03*
%TO.N,Net-(C4-Pad2)*%
X42910000Y-5400000D03*
%TO.N,/KEY_UP*%
X18660000Y-22810000D03*
%TO.N,/KEY_ALT*%
X54540000Y-19781000D03*
%TD*%
D27*
%TO.N,/GND*%
X7672124Y-8053727D02*
X7672124Y-8799124D01*
D28*
X21570000Y-27940603D02*
X22840000Y-26670603D01*
X41890000Y-28270000D02*
X41889999Y-28270001D01*
X46970000Y-22470000D02*
X45750000Y-21250000D01*
D29*
X33000000Y-23630000D02*
X33030000Y-23600000D01*
D30*
X4776720Y-21636720D02*
X4776720Y-14903280D01*
D28*
X33030000Y-23600000D02*
X33030000Y-19230000D01*
X26650000Y-21650000D02*
X28080000Y-20220000D01*
D30*
X11673924Y-13175797D02*
X11673924Y-12800924D01*
D28*
X27300000Y-7580000D02*
X27300000Y-7990000D01*
X16490000Y-28270000D02*
X15224000Y-27004000D01*
D30*
X11673924Y-12800924D02*
X7672124Y-8799124D01*
D28*
X56569500Y-5575500D02*
X56430000Y-5715000D01*
D30*
X7580000Y-12100000D02*
X7580000Y-8145851D01*
D29*
X43140000Y-24010000D02*
X43160000Y-24030000D01*
D30*
X15175797Y-14326076D02*
X14772924Y-14326076D01*
D28*
X52050000Y-28270000D02*
X52050001Y-28270001D01*
X56125000Y-21875000D02*
X56750000Y-21250000D01*
X46970000Y-25730000D02*
X46970000Y-22470000D01*
D29*
X43160000Y-24030000D02*
X43160000Y-27000000D01*
D30*
X7580000Y-8145851D02*
X7672124Y-8053727D01*
X14772924Y-14326076D02*
X10771124Y-18327876D01*
D28*
X34270000Y-27940603D02*
X33000000Y-26670603D01*
D29*
X50776000Y-23566000D02*
X50776000Y-26996000D01*
X15224000Y-22966000D02*
X15280000Y-22910000D01*
X33000000Y-26670603D02*
X33000000Y-23630000D01*
X45750000Y-21350000D02*
X45750000Y-21250000D01*
D28*
X37450000Y-17150000D02*
X38310000Y-17150000D01*
X43140000Y-24010000D02*
X45750000Y-21400000D01*
D29*
X22840000Y-26670603D02*
X22840000Y-23750000D01*
D28*
X45750000Y-21400000D02*
X45750000Y-21250000D01*
X56569500Y-2794000D02*
X56569500Y-5575500D01*
X33030000Y-19230000D02*
X30950000Y-17150000D01*
X26650000Y-25730000D02*
X26650000Y-23370000D01*
X52250000Y-21250000D02*
X52875000Y-21875000D01*
D30*
X4776720Y-14903280D02*
X7580000Y-12100000D01*
X8870000Y-25730000D02*
X4776720Y-21636720D01*
D28*
X57192000Y-6477000D02*
X56430000Y-5715000D01*
X26560000Y-22790000D02*
X23800000Y-22790000D01*
D29*
X50770000Y-23560000D02*
X50776000Y-23566000D01*
D28*
X26650000Y-22880000D02*
X26560000Y-22790000D01*
X25012500Y-8642500D02*
X25830000Y-9460000D01*
D29*
X15224000Y-27004000D02*
X15224000Y-22966000D01*
D28*
X50770000Y-23560000D02*
X50770000Y-22730000D01*
X50776000Y-26996000D02*
X52050001Y-28270001D01*
X25012500Y-5480000D02*
X25012500Y-8642500D01*
D27*
X52050000Y-28270000D02*
X52010000Y-28270000D01*
D28*
X43160000Y-27000000D02*
X41889999Y-28270001D01*
X27300000Y-7990000D02*
X25830000Y-9460000D01*
X58563000Y-6477000D02*
X57192000Y-6477000D01*
X34270000Y-28270000D02*
X34270000Y-27940603D01*
D27*
X46900000Y-25660000D02*
X46970000Y-25730000D01*
D28*
X21570000Y-28270000D02*
X21570000Y-27940603D01*
X50770000Y-22730000D02*
X52250000Y-21250000D01*
X23800000Y-22790000D02*
X22840000Y-23750000D01*
D27*
X10771124Y-18327876D02*
X10053727Y-18327876D01*
D28*
X26650000Y-23370000D02*
X26650000Y-21650000D01*
D29*
%TO.N,/KEY_RIGHT*%
X30464000Y-24113606D02*
X28750393Y-22399999D01*
D28*
X28288115Y-22401883D02*
X28288115Y-22437707D01*
D29*
X30480000Y-26740000D02*
X30464000Y-26724000D01*
D28*
X31730000Y-27990000D02*
X30480000Y-26740000D01*
D29*
X28750393Y-22399999D02*
X28289999Y-22399999D01*
D28*
X28289999Y-22399999D02*
X28288115Y-22401883D01*
D29*
X30464000Y-26724000D02*
X30464000Y-24113606D01*
D28*
X31730000Y-28270000D02*
X31730000Y-27990000D01*
%TO.N,Net-(C1-Pad1)*%
X27681000Y-13261000D02*
X21887500Y-7467500D01*
X21517500Y-4037500D02*
X21517500Y-2413000D01*
X21887500Y-4407500D02*
X21887500Y-5480000D01*
X26180000Y-20210000D02*
X27681000Y-18709000D01*
X21887500Y-7467500D02*
X21887500Y-5480000D01*
X25569998Y-20210000D02*
X26180000Y-20210000D01*
X21517500Y-4037500D02*
X21887500Y-4407500D01*
X27681000Y-18709000D02*
X27681000Y-13261000D01*
D30*
%TO.N,/KEY_DOWN*%
X17576876Y-17872124D02*
X13575076Y-21873924D01*
D28*
X21570000Y-22636646D02*
X21530000Y-22596646D01*
D30*
X17946273Y-17872124D02*
X17576876Y-17872124D01*
D28*
X21570000Y-25730000D02*
X21570000Y-22636646D01*
D27*
X13575076Y-21873924D02*
X12824203Y-21873924D01*
D28*
%TO.N,Net-(C2-Pad2)*%
X24630500Y-2413000D02*
X25197500Y-2980000D01*
X25197500Y-2980000D02*
X27110000Y-2980000D01*
X27110000Y-2980000D02*
X27110000Y-4290000D01*
X27110000Y-4290000D02*
X27300000Y-4480000D01*
%TO.N,/PWM_L*%
X22470000Y-20210000D02*
X21280000Y-20210000D01*
X19030000Y-28270000D02*
X20186526Y-27113474D01*
X20186526Y-27113474D02*
X20186526Y-26726403D01*
D29*
X20304000Y-26608929D02*
X20186526Y-26726403D01*
D28*
X20240000Y-21250000D02*
X20240000Y-23926000D01*
X21280000Y-20210000D02*
X20240000Y-21250000D01*
D29*
X20304000Y-23990000D02*
X20304000Y-26608929D01*
D28*
X20240000Y-23926000D02*
X20304000Y-23990000D01*
D29*
%TO.N,/KEY_B*%
X40616000Y-24080000D02*
X40616000Y-27004000D01*
D28*
X39350000Y-28270000D02*
X40616000Y-27004000D01*
X40616000Y-23964000D02*
X41150000Y-23430000D01*
X53599000Y-15009000D02*
X55340000Y-16750000D01*
X51206672Y-15009000D02*
X53599000Y-15009000D01*
X47695672Y-18520000D02*
X51206672Y-15009000D01*
X42630000Y-20413482D02*
X44523482Y-18520000D01*
X41150000Y-23430000D02*
X41150000Y-23403482D01*
X44523482Y-18520000D02*
X47695672Y-18520000D01*
X42630000Y-21923482D02*
X42630000Y-20413482D01*
X40616000Y-24080000D02*
X40616000Y-23964000D01*
X41150000Y-23403482D02*
X42630000Y-21923482D01*
X55340000Y-16750000D02*
X56750000Y-16750000D01*
D27*
%TO.N,unconnected-(IC1-3V3-Pad17)*%
X36810000Y-25730000D02*
X36810000Y-25414961D01*
D28*
%TO.N,Net-(C3-Pad2)*%
X26540000Y-15990000D02*
X25670000Y-15120000D01*
X51070000Y-2974000D02*
X51070000Y-5060000D01*
X53444500Y-2794000D02*
X48887500Y-2794000D01*
X48887500Y-2794000D02*
X48760500Y-2921000D01*
X48887500Y-2794000D02*
X50890000Y-2794000D01*
X26540000Y-17580000D02*
X26540000Y-15990000D01*
D27*
X53317500Y-2921000D02*
X53444500Y-2794000D01*
D28*
X50890000Y-2794000D02*
X51070000Y-2974000D01*
%TO.N,Net-(C4-Pad2)*%
X53090000Y-6350000D02*
X52880000Y-6560000D01*
X45505500Y-5115500D02*
X45505500Y-2921000D01*
D27*
X53330000Y-6110000D02*
X53090000Y-6350000D01*
D28*
X45221000Y-5400000D02*
X42910002Y-5400000D01*
D27*
X42910000Y-5400000D02*
X42910002Y-5400000D01*
D28*
X52880000Y-6560000D02*
X46950000Y-6560000D01*
X46950000Y-6560000D02*
X45505500Y-5115500D01*
X45505500Y-5115500D02*
X45221000Y-5400000D01*
D27*
X53330000Y-5715000D02*
X53330000Y-6110000D01*
D28*
%TO.N,/PWM_R*%
X16490000Y-25730000D02*
X16570000Y-25650000D01*
X16570000Y-22562000D02*
X21392000Y-17740000D01*
X21392000Y-17740000D02*
X23280000Y-17740000D01*
X23280000Y-17740000D02*
X23440000Y-17580000D01*
X16570000Y-25650000D02*
X16570000Y-22562000D01*
D27*
%TO.N,unconnected-(IC1-3V3-Pad1)*%
X57130000Y-25414961D02*
X57130000Y-25730000D01*
D30*
%TO.N,/KEY_UP*%
X13944473Y-9673924D02*
X17946273Y-5672124D01*
D28*
X19030000Y-25730000D02*
X19030000Y-23180000D01*
X19030000Y-23180000D02*
X18660000Y-22810000D01*
D30*
X12824203Y-9673924D02*
X13944473Y-9673924D01*
D28*
%TO.N,/KEY_X*%
X40480000Y-21536000D02*
X38076000Y-23940000D01*
X40480000Y-18520000D02*
X40480000Y-21536000D01*
D29*
X38076000Y-26674603D02*
X38076000Y-23940000D01*
X38040603Y-26710000D02*
X38076000Y-26674603D01*
D28*
X36810000Y-28270000D02*
X36810000Y-27940603D01*
X45750000Y-13250000D02*
X40480000Y-18520000D01*
X36810000Y-27940603D02*
X38040603Y-26710000D01*
%TO.N,/KEY_LEFT*%
X6940000Y-20400000D02*
X6940000Y-17134149D01*
X11410000Y-24870000D02*
X6940000Y-20400000D01*
X6940000Y-17134149D02*
X8127876Y-15946273D01*
X11410000Y-25730000D02*
X11410000Y-24870000D01*
%TO.N,/KEY_ALT*%
X54239000Y-19480000D02*
X54540000Y-19781000D01*
X49510000Y-20770000D02*
X50800000Y-19480000D01*
X50800000Y-19480000D02*
X54239000Y-19480000D01*
X49510000Y-25730000D02*
X49510000Y-20770000D01*
%TO.N,/KEY_A*%
X41250000Y-20000001D02*
X44500001Y-16750000D01*
X39350000Y-25730000D02*
X39350000Y-24180000D01*
X41250000Y-22256964D02*
X41250000Y-20000001D01*
X40410000Y-23120000D02*
X40410000Y-23096964D01*
X39350000Y-24180000D02*
X40410000Y-23120000D01*
X40410000Y-23096964D02*
X41250000Y-22256964D01*
X44500001Y-16750000D02*
X45750000Y-16750000D01*
%TO.N,/KEY_Y*%
X41890000Y-23710000D02*
X43470000Y-22130000D01*
X43470000Y-20745672D02*
X44955672Y-19260000D01*
X41890000Y-25730000D02*
X41890000Y-23710000D01*
X58491000Y-14991000D02*
X56750000Y-13250000D01*
X49399000Y-18491000D02*
X57793328Y-18491000D01*
X48630000Y-19260000D02*
X49399000Y-18491000D01*
X44955672Y-19260000D02*
X48630000Y-19260000D01*
X43470000Y-22130000D02*
X43470000Y-20745672D01*
X58491000Y-17793328D02*
X58491000Y-14991000D01*
X57793328Y-18491000D02*
X58491000Y-17793328D01*
%TD*%
%TA.AperFunction,Conductor*%
%TO.N,/GND*%
G36*
X14299510Y-10834691D02*
G01*
X14349924Y-10883067D01*
X14362565Y-10914357D01*
X14417361Y-11131280D01*
X14510557Y-11333301D01*
X14510561Y-11333307D01*
X14562436Y-11410130D01*
X15153322Y-12166430D01*
X15179084Y-12231377D01*
X15165644Y-12299942D01*
X15117268Y-12350355D01*
X15085979Y-12362995D01*
X14868894Y-12417832D01*
X14666949Y-12510992D01*
X14590149Y-12562851D01*
X14590142Y-12562856D01*
X14295392Y-12793140D01*
X14295392Y-12793141D01*
X15036835Y-13742145D01*
X14944206Y-13766965D01*
X14807389Y-13845957D01*
X14695678Y-13957668D01*
X14642572Y-14049648D01*
X13901387Y-13100972D01*
X13901385Y-13100972D01*
X13833703Y-13153852D01*
X13768756Y-13179614D01*
X13700191Y-13166174D01*
X13649778Y-13117798D01*
X13637137Y-13086508D01*
X13582165Y-12868890D01*
X13489007Y-12666949D01*
X13437148Y-12590149D01*
X13437143Y-12590142D01*
X13206858Y-12295392D01*
X13206857Y-12295392D01*
X12257854Y-13036833D01*
X12233035Y-12944206D01*
X12154043Y-12807389D01*
X12042332Y-12695678D01*
X11950350Y-12642572D01*
X12899026Y-11901387D01*
X12899026Y-11901386D01*
X12846483Y-11834134D01*
X12820721Y-11769187D01*
X12834161Y-11700623D01*
X12882537Y-11650209D01*
X12913827Y-11637568D01*
X12915568Y-11637128D01*
X12915570Y-11637128D01*
X13131279Y-11582639D01*
X13333304Y-11489441D01*
X13410127Y-11437566D01*
X14166000Y-10847012D01*
X14230946Y-10821251D01*
X14299510Y-10834691D01*
G37*
%TD.AperFunction*%
%TA.AperFunction,Conductor*%
G36*
X9494616Y-6359467D02*
G01*
X9573608Y-6496284D01*
X9685319Y-6607995D01*
X9777297Y-6661099D01*
X9275896Y-7052836D01*
X9273309Y-7073909D01*
X9245601Y-7138050D01*
X9226575Y-7156510D01*
X8256054Y-7914763D01*
X8231235Y-7822136D01*
X8152243Y-7685319D01*
X8040532Y-7573608D01*
X7948550Y-7520502D01*
X8449952Y-7128765D01*
X8452539Y-7107695D01*
X8480246Y-7043554D01*
X8499273Y-7025093D01*
X9469795Y-6266837D01*
X9494616Y-6359467D01*
G37*
%TD.AperFunction*%
%TA.AperFunction,Conductor*%
G36*
X14248878Y-420185D02*
G01*
X14294633Y-472989D01*
X14304577Y-542147D01*
X14300578Y-550901D01*
X14295392Y-593141D01*
X15036835Y-1542145D01*
X14944206Y-1566965D01*
X14807389Y-1645957D01*
X14695678Y-1757668D01*
X14642572Y-1849648D01*
X13901386Y-900972D01*
X13606622Y-1131268D01*
X13537729Y-1193234D01*
X13398487Y-1366638D01*
X13293474Y-1562678D01*
X13226274Y-1774667D01*
X13199171Y-1995413D01*
X13213089Y-2217366D01*
X13267555Y-2432982D01*
X13360713Y-2634923D01*
X13412572Y-2711723D01*
X13412577Y-2711730D01*
X13642861Y-3006479D01*
X13642862Y-3006479D01*
X14591865Y-2265036D01*
X14616686Y-2357667D01*
X14695678Y-2494484D01*
X14807389Y-2606195D01*
X14899367Y-2659299D01*
X13950693Y-3400484D01*
X13950693Y-3400485D01*
X14180978Y-3695236D01*
X14180987Y-3695248D01*
X14242955Y-3764144D01*
X14416359Y-3903385D01*
X14612399Y-4008398D01*
X14824388Y-4075598D01*
X15045134Y-4102701D01*
X15267087Y-4088783D01*
X15482703Y-4034317D01*
X15684647Y-3941157D01*
X15761435Y-3889308D01*
X16056200Y-3659010D01*
X16056200Y-3659009D01*
X15314758Y-2710006D01*
X15407388Y-2685187D01*
X15544205Y-2606195D01*
X15655916Y-2494484D01*
X15709020Y-2402504D01*
X16450205Y-3351178D01*
X16450206Y-3351178D01*
X16744957Y-3120894D01*
X16744969Y-3120885D01*
X16813865Y-3058917D01*
X16953106Y-2885513D01*
X17058119Y-2689473D01*
X17125319Y-2477484D01*
X17152422Y-2256738D01*
X17138504Y-2034785D01*
X17084038Y-1819169D01*
X16990880Y-1617228D01*
X16939021Y-1540428D01*
X16939016Y-1540421D01*
X16708731Y-1245671D01*
X16708730Y-1245671D01*
X15759727Y-1987112D01*
X15734908Y-1894485D01*
X15655916Y-1757668D01*
X15544205Y-1645957D01*
X15452223Y-1592851D01*
X16400899Y-851666D01*
X16400899Y-851665D01*
X16204935Y-600842D01*
X16179173Y-535895D01*
X16192613Y-467330D01*
X16240989Y-416917D01*
X16302648Y-400500D01*
X33009664Y-400500D01*
X33076703Y-420185D01*
X33122458Y-472989D01*
X33132402Y-542147D01*
X33103377Y-605703D01*
X33085150Y-622876D01*
X32928480Y-743092D01*
X32928473Y-743098D01*
X32743098Y-928473D01*
X32743092Y-928480D01*
X32583496Y-1136471D01*
X32452409Y-1363517D01*
X32452404Y-1363528D01*
X32352075Y-1605744D01*
X32284221Y-1858983D01*
X32265654Y-1999999D01*
X32265655Y-2000000D01*
X33966988Y-2000000D01*
X33934075Y-2057007D01*
X33900000Y-2184174D01*
X33900000Y-2315826D01*
X33934075Y-2442993D01*
X33966988Y-2500000D01*
X32265655Y-2500000D01*
X32284221Y-2641016D01*
X32352075Y-2894255D01*
X32452404Y-3136471D01*
X32452409Y-3136482D01*
X32583496Y-3363528D01*
X32743092Y-3571519D01*
X32743098Y-3571526D01*
X32928473Y-3756901D01*
X32928480Y-3756907D01*
X33136471Y-3916503D01*
X33363517Y-4047590D01*
X33363528Y-4047595D01*
X33605744Y-4147924D01*
X33858979Y-4215777D01*
X33858990Y-4215779D01*
X34118905Y-4249999D01*
X34118920Y-4250000D01*
X34750000Y-4250000D01*
X34750000Y-2750000D01*
X35250000Y-2750000D01*
X35250000Y-4250000D01*
X35881080Y-4250000D01*
X35881094Y-4249999D01*
X36141009Y-4215779D01*
X36141020Y-4215777D01*
X36394255Y-4147924D01*
X36636471Y-4047595D01*
X36636482Y-4047590D01*
X36863528Y-3916503D01*
X37071519Y-3756907D01*
X37071526Y-3756901D01*
X37256901Y-3571526D01*
X37256907Y-3571519D01*
X37416503Y-3363528D01*
X37547590Y-3136482D01*
X37547595Y-3136471D01*
X37647924Y-2894255D01*
X37715778Y-2641016D01*
X37734345Y-2500000D01*
X36033012Y-2500000D01*
X36065925Y-2442993D01*
X36100000Y-2315826D01*
X36100000Y-2184174D01*
X36065925Y-2057007D01*
X36033012Y-2000000D01*
X37734345Y-2000000D01*
X37734345Y-1999999D01*
X37715778Y-1858983D01*
X37647924Y-1605744D01*
X37547595Y-1363528D01*
X37547590Y-1363517D01*
X37416503Y-1136471D01*
X37256907Y-928480D01*
X37256901Y-928473D01*
X37071526Y-743098D01*
X37071519Y-743092D01*
X36914850Y-622876D01*
X36873647Y-566448D01*
X36869492Y-496702D01*
X36903704Y-435782D01*
X36965421Y-403029D01*
X36990336Y-400500D01*
X65475500Y-400500D01*
X65542539Y-420185D01*
X65588294Y-472989D01*
X65599500Y-524500D01*
X65599500Y-30475500D01*
X65579815Y-30542539D01*
X65527011Y-30588294D01*
X65475500Y-30599500D01*
X57657527Y-30599500D01*
X57590488Y-30579815D01*
X57544733Y-30527011D01*
X57534789Y-30457853D01*
X57563814Y-30394297D01*
X57601232Y-30365015D01*
X57607964Y-30361585D01*
X57706788Y-30311232D01*
X57846928Y-30209414D01*
X57969414Y-30086928D01*
X58071232Y-29946788D01*
X58149873Y-29792445D01*
X58203402Y-29627701D01*
X58230500Y-29456611D01*
X58230500Y-27883389D01*
X58203402Y-27712299D01*
X58149873Y-27547555D01*
X58071232Y-27393212D01*
X57969414Y-27253072D01*
X57846928Y-27130586D01*
X57805265Y-27100316D01*
X57791782Y-27082830D01*
X57774876Y-27068628D01*
X57770865Y-27055704D01*
X57762602Y-27044988D01*
X57760712Y-27022985D01*
X57754168Y-27001897D01*
X57757781Y-26988857D01*
X57756623Y-26975374D01*
X57766928Y-26955843D01*
X57772824Y-26934565D01*
X57785147Y-26921315D01*
X57789229Y-26913579D01*
X57795526Y-26907541D01*
X57800200Y-26903363D01*
X57818334Y-26890188D01*
X60324500Y-26890188D01*
X60324500Y-27109811D01*
X60324501Y-27109828D01*
X60353167Y-27327573D01*
X60410014Y-27539729D01*
X60483230Y-27716487D01*
X60494065Y-27742645D01*
X60603884Y-27932855D01*
X60603889Y-27932861D01*
X60603890Y-27932863D01*
X60737588Y-28107102D01*
X60737594Y-28107109D01*
X60892890Y-28262405D01*
X60892897Y-28262411D01*
X61016977Y-28357621D01*
X61067145Y-28396116D01*
X61257355Y-28505935D01*
X61358814Y-28547960D01*
X61460270Y-28589985D01*
X61460271Y-28589985D01*
X61460273Y-28589986D01*
X61672425Y-28646832D01*
X61890182Y-28675500D01*
X61890189Y-28675500D01*
X62109811Y-28675500D01*
X62109818Y-28675500D01*
X62327575Y-28646832D01*
X62539727Y-28589986D01*
X62742645Y-28505935D01*
X62932855Y-28396116D01*
X63107104Y-28262410D01*
X63262410Y-28107104D01*
X63396116Y-27932855D01*
X63505935Y-27742645D01*
X63589986Y-27539727D01*
X63646832Y-27327575D01*
X63675500Y-27109818D01*
X63675500Y-26890182D01*
X63646832Y-26672425D01*
X63589986Y-26460273D01*
X63586744Y-26452447D01*
X63528035Y-26310710D01*
X63505935Y-26257355D01*
X63396116Y-26067145D01*
X63262410Y-25892896D01*
X63262405Y-25892890D01*
X63107109Y-25737594D01*
X63107102Y-25737588D01*
X62932863Y-25603890D01*
X62932861Y-25603889D01*
X62932855Y-25603884D01*
X62742645Y-25494065D01*
X62742641Y-25494063D01*
X62539729Y-25410014D01*
X62327573Y-25353167D01*
X62109828Y-25324501D01*
X62109823Y-25324500D01*
X62109818Y-25324500D01*
X61890182Y-25324500D01*
X61890176Y-25324500D01*
X61890171Y-25324501D01*
X61672426Y-25353167D01*
X61460270Y-25410014D01*
X61257358Y-25494063D01*
X61257354Y-25494065D01*
X61067145Y-25603884D01*
X61067136Y-25603890D01*
X60892897Y-25737588D01*
X60892890Y-25737594D01*
X60737594Y-25892890D01*
X60737588Y-25892897D01*
X60603890Y-26067136D01*
X60603884Y-26067145D01*
X60494065Y-26257354D01*
X60494063Y-26257358D01*
X60410014Y-26460270D01*
X60353167Y-26672426D01*
X60324501Y-26890171D01*
X60324500Y-26890188D01*
X57818334Y-26890188D01*
X57846928Y-26869414D01*
X57969414Y-26746928D01*
X58071232Y-26606788D01*
X58149873Y-26452445D01*
X58203402Y-26287701D01*
X58230500Y-26116611D01*
X58230500Y-24543389D01*
X58203402Y-24372299D01*
X58149873Y-24207555D01*
X58071232Y-24053212D01*
X57969414Y-23913072D01*
X57846928Y-23790586D01*
X57706788Y-23688768D01*
X57552445Y-23610127D01*
X57387701Y-23556598D01*
X57387699Y-23556597D01*
X57387698Y-23556597D01*
X57256271Y-23535781D01*
X57216611Y-23529500D01*
X57043389Y-23529500D01*
X57003728Y-23535781D01*
X56872302Y-23556597D01*
X56707552Y-23610128D01*
X56553211Y-23688768D01*
X56528291Y-23706874D01*
X56413072Y-23790586D01*
X56413070Y-23790588D01*
X56413069Y-23790588D01*
X56290588Y-23913069D01*
X56290588Y-23913070D01*
X56290586Y-23913072D01*
X56283891Y-23922287D01*
X56188768Y-24053211D01*
X56110128Y-24207552D01*
X56056597Y-24372302D01*
X56029500Y-24543389D01*
X56029500Y-26116610D01*
X56055934Y-26283512D01*
X56056598Y-26287701D01*
X56110127Y-26452445D01*
X56188768Y-26606788D01*
X56290586Y-26746928D01*
X56290588Y-26746930D01*
X56413072Y-26869414D01*
X56454733Y-26899683D01*
X56497398Y-26955013D01*
X56503376Y-27024627D01*
X56470769Y-27086421D01*
X56454733Y-27100317D01*
X56413072Y-27130585D01*
X56290588Y-27253069D01*
X56290588Y-27253070D01*
X56290586Y-27253072D01*
X56264737Y-27288650D01*
X56188768Y-27393211D01*
X56110128Y-27547552D01*
X56056597Y-27712302D01*
X56029500Y-27883389D01*
X56029500Y-29456610D01*
X56055934Y-29623512D01*
X56056598Y-29627701D01*
X56110127Y-29792445D01*
X56188768Y-29946788D01*
X56290586Y-30086928D01*
X56413072Y-30209414D01*
X56553212Y-30311232D01*
X56652036Y-30361585D01*
X56658768Y-30365015D01*
X56709564Y-30412989D01*
X56726359Y-30480810D01*
X56703822Y-30546945D01*
X56649107Y-30590397D01*
X56602473Y-30599500D01*
X55117527Y-30599500D01*
X55050488Y-30579815D01*
X55004733Y-30527011D01*
X54994789Y-30457853D01*
X55023814Y-30394297D01*
X55061232Y-30365015D01*
X55067964Y-30361585D01*
X55166788Y-30311232D01*
X55306928Y-30209414D01*
X55429414Y-30086928D01*
X55531232Y-29946788D01*
X55609873Y-29792445D01*
X55663402Y-29627701D01*
X55690500Y-29456611D01*
X55690500Y-27883389D01*
X55663402Y-27712299D01*
X55609873Y-27547555D01*
X55531232Y-27393212D01*
X55429414Y-27253072D01*
X55306928Y-27130586D01*
X55265265Y-27100316D01*
X55222602Y-27044988D01*
X55216623Y-26975374D01*
X55249229Y-26913579D01*
X55265266Y-26899683D01*
X55306928Y-26869414D01*
X55429414Y-26746928D01*
X55531232Y-26606788D01*
X55609873Y-26452445D01*
X55663402Y-26287701D01*
X55690500Y-26116611D01*
X55690500Y-24543389D01*
X55663402Y-24372299D01*
X55609873Y-24207555D01*
X55531232Y-24053212D01*
X55429414Y-23913072D01*
X55306928Y-23790586D01*
X55166788Y-23688768D01*
X55012445Y-23610127D01*
X54847701Y-23556598D01*
X54847699Y-23556597D01*
X54847698Y-23556597D01*
X54716271Y-23535781D01*
X54676611Y-23529500D01*
X54503389Y-23529500D01*
X54463728Y-23535781D01*
X54332302Y-23556597D01*
X54167552Y-23610128D01*
X54013211Y-23688768D01*
X53988291Y-23706874D01*
X53873072Y-23790586D01*
X53873070Y-23790588D01*
X53873069Y-23790588D01*
X53750588Y-23913069D01*
X53750588Y-23913070D01*
X53750586Y-23913072D01*
X53743891Y-23922287D01*
X53648768Y-24053211D01*
X53570128Y-24207552D01*
X53516597Y-24372302D01*
X53489500Y-24543389D01*
X53489500Y-26116610D01*
X53515934Y-26283512D01*
X53516598Y-26287701D01*
X53570127Y-26452445D01*
X53648768Y-26606788D01*
X53750586Y-26746928D01*
X53750588Y-26746930D01*
X53873072Y-26869414D01*
X53914733Y-26899683D01*
X53957398Y-26955013D01*
X53963376Y-27024627D01*
X53930769Y-27086421D01*
X53914733Y-27100317D01*
X53873072Y-27130585D01*
X53750588Y-27253069D01*
X53750588Y-27253070D01*
X53750586Y-27253072D01*
X53724737Y-27288650D01*
X53648768Y-27393211D01*
X53570129Y-27547549D01*
X53542814Y-27631615D01*
X53503375Y-27689290D01*
X53439016Y-27716487D01*
X53370170Y-27704572D01*
X53318695Y-27657327D01*
X53306952Y-27631613D01*
X53254755Y-27470970D01*
X53161859Y-27288650D01*
X53041582Y-27123105D01*
X53041582Y-27123104D01*
X52896895Y-26978417D01*
X52896889Y-26978412D01*
X52875940Y-26963191D01*
X52833276Y-26907860D01*
X52827298Y-26838247D01*
X52859906Y-26776453D01*
X52861017Y-26775324D01*
X52889414Y-26746928D01*
X52991232Y-26606788D01*
X53069873Y-26452445D01*
X53123402Y-26287701D01*
X53150500Y-26116611D01*
X53150500Y-24543389D01*
X53123402Y-24372299D01*
X53069873Y-24207555D01*
X52991232Y-24053212D01*
X52889414Y-23913072D01*
X52766928Y-23790586D01*
X52626788Y-23688768D01*
X52472445Y-23610127D01*
X52307701Y-23556598D01*
X52307699Y-23556597D01*
X52307698Y-23556597D01*
X52176271Y-23535781D01*
X52136611Y-23529500D01*
X51963389Y-23529500D01*
X51923728Y-23535781D01*
X51792302Y-23556597D01*
X51627552Y-23610128D01*
X51473211Y-23688768D01*
X51448291Y-23706874D01*
X51333072Y-23790586D01*
X51333070Y-23790588D01*
X51333069Y-23790588D01*
X51210588Y-23913069D01*
X51210588Y-23913070D01*
X51210586Y-23913072D01*
X51203891Y-23922287D01*
X51108768Y-24053211D01*
X51030128Y-24207552D01*
X50976597Y-24372302D01*
X50949500Y-24543389D01*
X50949500Y-26116610D01*
X50975934Y-26283512D01*
X50976598Y-26287701D01*
X51030127Y-26452445D01*
X51108768Y-26606788D01*
X51210586Y-26746928D01*
X51210588Y-26746930D01*
X51238852Y-26775194D01*
X51272337Y-26836517D01*
X51267353Y-26906209D01*
X51225481Y-26962142D01*
X51224061Y-26963190D01*
X51203107Y-26978414D01*
X51058417Y-27123104D01*
X51058417Y-27123105D01*
X50938140Y-27288650D01*
X50845244Y-27470968D01*
X50793047Y-27631614D01*
X50753609Y-27689289D01*
X50689250Y-27716487D01*
X50620404Y-27704572D01*
X50568928Y-27657328D01*
X50557186Y-27631615D01*
X50529873Y-27547555D01*
X50451232Y-27393212D01*
X50349414Y-27253072D01*
X50226928Y-27130586D01*
X50185265Y-27100316D01*
X50142602Y-27044988D01*
X50136623Y-26975374D01*
X50169229Y-26913579D01*
X50185266Y-26899683D01*
X50226928Y-26869414D01*
X50349414Y-26746928D01*
X50451232Y-26606788D01*
X50529873Y-26452445D01*
X50583402Y-26287701D01*
X50610500Y-26116611D01*
X50610500Y-24543389D01*
X50583402Y-24372299D01*
X50529873Y-24207555D01*
X50451232Y-24053212D01*
X50349414Y-23913072D01*
X50296819Y-23860477D01*
X50263334Y-23799154D01*
X50260500Y-23772796D01*
X50260500Y-21989601D01*
X50280185Y-21922562D01*
X50332989Y-21876807D01*
X50402147Y-21866863D01*
X50465703Y-21895888D01*
X50503477Y-21954666D01*
X50505026Y-21961671D01*
X50505267Y-21961615D01*
X50557330Y-22182975D01*
X50557336Y-22182991D01*
X50647160Y-22386424D01*
X50772843Y-22569899D01*
X50930100Y-22727156D01*
X51113575Y-22852839D01*
X51317008Y-22942663D01*
X51317024Y-22942669D01*
X51533491Y-22993582D01*
X51533507Y-22993584D01*
X51625931Y-22999999D01*
X51999999Y-22999999D01*
X52000000Y-22999998D01*
X52000000Y-21798482D01*
X52018409Y-21809111D01*
X52171009Y-21850000D01*
X52328991Y-21850000D01*
X52481591Y-21809111D01*
X52500000Y-21798482D01*
X52500000Y-22999999D01*
X52874068Y-22999999D01*
X52966491Y-22993584D01*
X52966507Y-22993582D01*
X53182975Y-22942669D01*
X53182991Y-22942663D01*
X53386424Y-22852839D01*
X53569899Y-22727156D01*
X53727156Y-22569899D01*
X53852839Y-22386424D01*
X53942663Y-22182991D01*
X53942669Y-22182975D01*
X53993582Y-21966508D01*
X53993584Y-21966492D01*
X54000000Y-21874068D01*
X54000000Y-21500000D01*
X52798482Y-21500000D01*
X52809111Y-21481591D01*
X52850000Y-21328991D01*
X52850000Y-21171009D01*
X52809111Y-21018409D01*
X52798482Y-21000000D01*
X54027694Y-21000000D01*
X54027972Y-20999848D01*
X54031016Y-21000000D01*
X54051361Y-21000000D01*
X54051361Y-21001016D01*
X54092667Y-21003078D01*
X54139849Y-21018409D01*
X54235465Y-21049477D01*
X54282717Y-21056961D01*
X54437648Y-21081500D01*
X54437649Y-21081500D01*
X54642351Y-21081500D01*
X54642352Y-21081500D01*
X54844534Y-21049477D01*
X54978132Y-21006068D01*
X55016446Y-21000000D01*
X56201518Y-21000000D01*
X56190889Y-21018409D01*
X56150000Y-21171009D01*
X56150000Y-21328991D01*
X56190889Y-21481591D01*
X56201518Y-21500000D01*
X55000001Y-21500000D01*
X55000001Y-21874067D01*
X55006415Y-21966491D01*
X55006417Y-21966507D01*
X55057330Y-22182975D01*
X55057336Y-22182991D01*
X55147160Y-22386424D01*
X55272843Y-22569899D01*
X55430100Y-22727156D01*
X55613575Y-22852839D01*
X55817008Y-22942663D01*
X55817024Y-22942669D01*
X56033491Y-22993582D01*
X56033507Y-22993584D01*
X56125931Y-22999999D01*
X56499999Y-22999999D01*
X56500000Y-22999998D01*
X56500000Y-21798482D01*
X56518409Y-21809111D01*
X56671009Y-21850000D01*
X56828991Y-21850000D01*
X56981591Y-21809111D01*
X57000000Y-21798482D01*
X57000000Y-22999999D01*
X57374068Y-22999999D01*
X57466491Y-22993584D01*
X57466507Y-22993582D01*
X57682975Y-22942669D01*
X57682991Y-22942663D01*
X57886424Y-22852839D01*
X58069899Y-22727156D01*
X58227156Y-22569899D01*
X58352839Y-22386424D01*
X58442663Y-22182991D01*
X58442669Y-22182975D01*
X58493582Y-21966508D01*
X58493584Y-21966492D01*
X58500000Y-21874068D01*
X58500000Y-21500000D01*
X57298482Y-21500000D01*
X57309111Y-21481591D01*
X57350000Y-21328991D01*
X57350000Y-21171009D01*
X57309111Y-21018409D01*
X57298482Y-21000000D01*
X58499999Y-21000000D01*
X58499999Y-20625932D01*
X58499999Y-20625931D01*
X61500000Y-20625931D01*
X61500000Y-21000000D01*
X62701518Y-21000000D01*
X62690889Y-21018409D01*
X62650000Y-21171009D01*
X62650000Y-21328991D01*
X62690889Y-21481591D01*
X62701518Y-21500000D01*
X61500001Y-21500000D01*
X61500001Y-21874067D01*
X61506415Y-21966491D01*
X61506417Y-21966507D01*
X61557330Y-22182975D01*
X61557336Y-22182991D01*
X61647160Y-22386424D01*
X61772843Y-22569899D01*
X61930100Y-22727156D01*
X62113575Y-22852839D01*
X62317008Y-22942663D01*
X62317024Y-22942669D01*
X62533491Y-22993582D01*
X62533507Y-22993584D01*
X62625931Y-22999999D01*
X62999999Y-22999999D01*
X63000000Y-22999998D01*
X63000000Y-21798482D01*
X63018409Y-21809111D01*
X63171009Y-21850000D01*
X63328991Y-21850000D01*
X63481591Y-21809111D01*
X63500000Y-21798482D01*
X63500000Y-22999999D01*
X63874068Y-22999999D01*
X63966491Y-22993584D01*
X63966507Y-22993582D01*
X64182975Y-22942669D01*
X64182991Y-22942663D01*
X64386424Y-22852839D01*
X64569899Y-22727156D01*
X64727156Y-22569899D01*
X64852839Y-22386424D01*
X64942663Y-22182991D01*
X64942669Y-22182975D01*
X64993582Y-21966508D01*
X64993584Y-21966492D01*
X65000000Y-21874068D01*
X65000000Y-21500000D01*
X63798482Y-21500000D01*
X63809111Y-21481591D01*
X63850000Y-21328991D01*
X63850000Y-21171009D01*
X63809111Y-21018409D01*
X63798482Y-21000000D01*
X64999999Y-21000000D01*
X64999999Y-20625932D01*
X64993584Y-20533508D01*
X64993582Y-20533492D01*
X64942669Y-20317024D01*
X64942663Y-20317008D01*
X64852839Y-20113575D01*
X64727156Y-19930100D01*
X64569899Y-19772843D01*
X64386424Y-19647160D01*
X64182991Y-19557336D01*
X64182975Y-19557330D01*
X63966508Y-19506417D01*
X63966492Y-19506415D01*
X63874069Y-19500000D01*
X63500000Y-19500000D01*
X63500000Y-20701517D01*
X63481591Y-20690889D01*
X63328991Y-20650000D01*
X63171009Y-20650000D01*
X63018409Y-20690889D01*
X63000000Y-20701517D01*
X63000000Y-19500000D01*
X62625932Y-19500000D01*
X62533508Y-19506415D01*
X62533492Y-19506417D01*
X62317024Y-19557330D01*
X62317008Y-19557336D01*
X62113575Y-19647160D01*
X61930100Y-19772843D01*
X61772843Y-19930100D01*
X61647160Y-20113575D01*
X61557336Y-20317008D01*
X61557330Y-20317024D01*
X61506417Y-20533491D01*
X61506415Y-20533507D01*
X61500000Y-20625931D01*
X58499999Y-20625931D01*
X58493584Y-20533508D01*
X58493582Y-20533492D01*
X58442669Y-20317024D01*
X58442663Y-20317008D01*
X58352839Y-20113575D01*
X58227156Y-19930100D01*
X58069899Y-19772843D01*
X57886424Y-19647160D01*
X57682991Y-19557336D01*
X57682975Y-19557330D01*
X57466508Y-19506417D01*
X57466492Y-19506415D01*
X57374069Y-19500000D01*
X57000000Y-19500000D01*
X57000000Y-20701517D01*
X56981591Y-20690889D01*
X56828991Y-20650000D01*
X56671009Y-20650000D01*
X56518409Y-20690889D01*
X56500000Y-20701517D01*
X56500000Y-19500000D01*
X56125932Y-19500000D01*
X56033508Y-19506415D01*
X56033492Y-19506417D01*
X55944557Y-19527335D01*
X55874791Y-19523522D01*
X55818162Y-19482596D01*
X55798235Y-19444945D01*
X55784872Y-19403816D01*
X55782878Y-19333975D01*
X55818960Y-19274143D01*
X55881661Y-19243316D01*
X55902804Y-19241500D01*
X57867248Y-19241500D01*
X57964790Y-19222096D01*
X58012241Y-19212658D01*
X58148823Y-19156084D01*
X58228341Y-19102952D01*
X58263154Y-19079690D01*
X58271740Y-19073955D01*
X58271740Y-19073954D01*
X58271744Y-19073952D01*
X59073951Y-18271744D01*
X59156084Y-18148823D01*
X59212658Y-18012241D01*
X59234423Y-17902824D01*
X59241500Y-17867248D01*
X59241500Y-14917079D01*
X59212659Y-14772092D01*
X59212658Y-14772091D01*
X59212658Y-14772087D01*
X59156084Y-14635505D01*
X59112463Y-14570221D01*
X59112463Y-14570220D01*
X59073950Y-14512581D01*
X58536210Y-13974841D01*
X58502725Y-13913518D01*
X58500189Y-13878570D01*
X58500500Y-13874091D01*
X58500500Y-12625904D01*
X61499500Y-12625904D01*
X61499500Y-13874095D01*
X61505918Y-13966561D01*
X61505920Y-13966577D01*
X61556854Y-14183135D01*
X61556860Y-14183151D01*
X61646721Y-14386668D01*
X61772457Y-14570220D01*
X61772462Y-14570226D01*
X61929773Y-14727537D01*
X61929779Y-14727542D01*
X62113329Y-14853277D01*
X62113330Y-14853277D01*
X62113331Y-14853278D01*
X62188720Y-14886566D01*
X62242097Y-14931652D01*
X62262624Y-14998438D01*
X62243786Y-15065720D01*
X62191562Y-15112136D01*
X62188720Y-15113434D01*
X62113331Y-15146721D01*
X61929779Y-15272457D01*
X61929773Y-15272462D01*
X61772462Y-15429773D01*
X61772457Y-15429779D01*
X61646721Y-15613331D01*
X61556860Y-15816848D01*
X61556854Y-15816864D01*
X61505920Y-16033422D01*
X61505918Y-16033438D01*
X61499500Y-16125904D01*
X61499500Y-17374089D01*
X61505918Y-17466561D01*
X61505920Y-17466577D01*
X61556854Y-17683135D01*
X61556860Y-17683151D01*
X61646721Y-17886668D01*
X61772457Y-18070220D01*
X61772462Y-18070226D01*
X61929773Y-18227537D01*
X61929779Y-18227542D01*
X62113329Y-18353277D01*
X62113330Y-18353277D01*
X62113331Y-18353278D01*
X62123566Y-18357797D01*
X62316857Y-18443143D01*
X62316861Y-18443144D01*
X62316864Y-18443145D01*
X62533422Y-18494079D01*
X62533427Y-18494079D01*
X62533433Y-18494081D01*
X62584808Y-18497647D01*
X62625904Y-18500500D01*
X62625908Y-18500500D01*
X63874096Y-18500500D01*
X63911082Y-18497932D01*
X63966567Y-18494081D01*
X63966573Y-18494079D01*
X63966577Y-18494079D01*
X64183135Y-18443145D01*
X64183135Y-18443144D01*
X64183143Y-18443143D01*
X64386671Y-18353277D01*
X64570221Y-18227542D01*
X64727542Y-18070221D01*
X64853277Y-17886671D01*
X64943143Y-17683143D01*
X64963408Y-17596980D01*
X64994079Y-17466577D01*
X64994079Y-17466573D01*
X64994081Y-17466567D01*
X65000500Y-17374092D01*
X65000500Y-16125908D01*
X64999290Y-16108482D01*
X64995690Y-16056609D01*
X64994081Y-16033433D01*
X64994079Y-16033427D01*
X64994079Y-16033422D01*
X64943145Y-15816864D01*
X64943144Y-15816861D01*
X64943143Y-15816857D01*
X64875186Y-15662948D01*
X64853278Y-15613331D01*
X64848951Y-15607015D01*
X64727542Y-15429779D01*
X64727537Y-15429773D01*
X64570226Y-15272462D01*
X64570220Y-15272457D01*
X64386672Y-15146724D01*
X64386673Y-15146724D01*
X64386671Y-15146723D01*
X64311277Y-15113433D01*
X64257903Y-15068349D01*
X64237375Y-15001563D01*
X64256213Y-14934280D01*
X64308436Y-14887864D01*
X64311235Y-14886585D01*
X64386671Y-14853277D01*
X64570221Y-14727542D01*
X64727542Y-14570221D01*
X64853277Y-14386671D01*
X64943143Y-14183143D01*
X64943263Y-14182633D01*
X64994079Y-13966577D01*
X64994079Y-13966573D01*
X64994081Y-13966567D01*
X65000500Y-13874092D01*
X65000500Y-12625908D01*
X64994081Y-12533433D01*
X64994079Y-12533427D01*
X64994079Y-12533422D01*
X64943145Y-12316864D01*
X64943144Y-12316861D01*
X64943143Y-12316857D01*
X64853277Y-12113329D01*
X64727542Y-11929779D01*
X64727537Y-11929773D01*
X64570226Y-11772462D01*
X64570220Y-11772457D01*
X64412954Y-11664727D01*
X64386671Y-11646723D01*
X64386670Y-11646722D01*
X64386668Y-11646721D01*
X64183151Y-11556860D01*
X64183135Y-11556854D01*
X63966577Y-11505920D01*
X63966561Y-11505918D01*
X63874096Y-11499500D01*
X63874092Y-11499500D01*
X62625908Y-11499500D01*
X62625904Y-11499500D01*
X62533438Y-11505918D01*
X62533422Y-11505920D01*
X62316864Y-11556854D01*
X62316848Y-11556860D01*
X62113331Y-11646721D01*
X61929779Y-11772457D01*
X61929773Y-11772462D01*
X61772462Y-11929773D01*
X61772457Y-11929779D01*
X61646721Y-12113331D01*
X61556860Y-12316848D01*
X61556854Y-12316864D01*
X61505920Y-12533422D01*
X61505918Y-12533438D01*
X61499500Y-12625904D01*
X58500500Y-12625904D01*
X58494560Y-12540338D01*
X58494081Y-12533433D01*
X58494079Y-12533427D01*
X58494079Y-12533422D01*
X58443145Y-12316864D01*
X58443144Y-12316861D01*
X58443143Y-12316857D01*
X58353277Y-12113329D01*
X58227542Y-11929779D01*
X58227537Y-11929773D01*
X58070226Y-11772462D01*
X58070220Y-11772457D01*
X57912954Y-11664727D01*
X57886671Y-11646723D01*
X57886670Y-11646722D01*
X57886668Y-11646721D01*
X57683151Y-11556860D01*
X57683135Y-11556854D01*
X57466577Y-11505920D01*
X57466561Y-11505918D01*
X57374096Y-11499500D01*
X57374092Y-11499500D01*
X56125908Y-11499500D01*
X56125904Y-11499500D01*
X56033438Y-11505918D01*
X56033422Y-11505920D01*
X55816864Y-11556854D01*
X55816848Y-11556860D01*
X55613331Y-11646721D01*
X55429779Y-11772457D01*
X55429773Y-11772462D01*
X55272462Y-11929773D01*
X55272457Y-11929779D01*
X55146721Y-12113331D01*
X55056860Y-12316848D01*
X55056854Y-12316864D01*
X55005920Y-12533422D01*
X55005918Y-12533438D01*
X54999500Y-12625904D01*
X54999500Y-13874095D01*
X55005918Y-13966561D01*
X55005920Y-13966577D01*
X55056854Y-14183135D01*
X55056860Y-14183151D01*
X55146721Y-14386668D01*
X55272457Y-14570220D01*
X55272462Y-14570226D01*
X55429773Y-14727537D01*
X55429779Y-14727542D01*
X55613329Y-14853277D01*
X55613330Y-14853277D01*
X55613331Y-14853278D01*
X55688720Y-14886566D01*
X55742097Y-14931652D01*
X55762624Y-14998438D01*
X55743786Y-15065720D01*
X55691562Y-15112136D01*
X55688720Y-15113434D01*
X55613331Y-15146721D01*
X55429779Y-15272457D01*
X55429773Y-15272462D01*
X55268404Y-15433832D01*
X55267579Y-15433007D01*
X55214580Y-15468655D01*
X55144726Y-15470117D01*
X55089484Y-15438116D01*
X54077421Y-14426052D01*
X54077420Y-14426051D01*
X54039775Y-14400898D01*
X53992784Y-14369500D01*
X53992784Y-14369499D01*
X53977540Y-14359314D01*
X53932734Y-14305703D01*
X53924025Y-14236378D01*
X53932993Y-14206129D01*
X53943143Y-14183143D01*
X53943263Y-14182633D01*
X53994079Y-13966577D01*
X53994079Y-13966573D01*
X53994081Y-13966567D01*
X54000500Y-13874092D01*
X54000500Y-12625908D01*
X53994081Y-12533433D01*
X53994079Y-12533427D01*
X53994079Y-12533422D01*
X53943145Y-12316864D01*
X53943144Y-12316861D01*
X53943143Y-12316857D01*
X53853277Y-12113329D01*
X53727542Y-11929779D01*
X53727537Y-11929773D01*
X53570226Y-11772462D01*
X53570220Y-11772457D01*
X53412954Y-11664727D01*
X53386671Y-11646723D01*
X53386670Y-11646722D01*
X53386668Y-11646721D01*
X53183151Y-11556860D01*
X53183135Y-11556854D01*
X52966577Y-11505920D01*
X52966561Y-11505918D01*
X52874096Y-11499500D01*
X52874092Y-11499500D01*
X51625908Y-11499500D01*
X51625904Y-11499500D01*
X51533438Y-11505918D01*
X51533422Y-11505920D01*
X51316864Y-11556854D01*
X51316848Y-11556860D01*
X51113331Y-11646721D01*
X50929779Y-11772457D01*
X50929773Y-11772462D01*
X50772462Y-11929773D01*
X50772457Y-11929779D01*
X50646721Y-12113331D01*
X50556860Y-12316848D01*
X50556854Y-12316864D01*
X50505920Y-12533422D01*
X50505918Y-12533438D01*
X50499500Y-12625904D01*
X50499500Y-13874095D01*
X50505918Y-13966561D01*
X50505920Y-13966577D01*
X50556854Y-14183135D01*
X50556856Y-14183140D01*
X50556857Y-14183143D01*
X50646722Y-14386668D01*
X50649039Y-14391916D01*
X50646771Y-14392917D01*
X50659833Y-14450704D01*
X50635946Y-14516364D01*
X50623762Y-14530540D01*
X47712181Y-17442122D01*
X47650858Y-17475607D01*
X47581166Y-17470623D01*
X47525233Y-17428751D01*
X47500816Y-17363287D01*
X47500500Y-17354441D01*
X47500500Y-16125904D01*
X47495690Y-16056609D01*
X47494081Y-16033433D01*
X47494079Y-16033427D01*
X47494079Y-16033422D01*
X47443145Y-15816864D01*
X47443144Y-15816861D01*
X47443143Y-15816857D01*
X47375186Y-15662948D01*
X47353278Y-15613331D01*
X47348951Y-15607015D01*
X47227542Y-15429779D01*
X47227537Y-15429773D01*
X47070226Y-15272462D01*
X47070220Y-15272457D01*
X46886672Y-15146724D01*
X46886673Y-15146724D01*
X46886671Y-15146723D01*
X46811277Y-15113433D01*
X46757903Y-15068349D01*
X46737375Y-15001563D01*
X46756213Y-14934280D01*
X46808436Y-14887864D01*
X46811235Y-14886585D01*
X46886671Y-14853277D01*
X47070221Y-14727542D01*
X47227542Y-14570221D01*
X47353277Y-14386671D01*
X47443143Y-14183143D01*
X47443263Y-14182633D01*
X47494079Y-13966577D01*
X47494079Y-13966573D01*
X47494081Y-13966567D01*
X47500500Y-13874092D01*
X47500500Y-12625908D01*
X47494081Y-12533433D01*
X47494079Y-12533427D01*
X47494079Y-12533422D01*
X47443145Y-12316864D01*
X47443144Y-12316861D01*
X47443143Y-12316857D01*
X47353277Y-12113329D01*
X47227542Y-11929779D01*
X47227537Y-11929773D01*
X47070226Y-11772462D01*
X47070220Y-11772457D01*
X46912954Y-11664727D01*
X46886671Y-11646723D01*
X46886670Y-11646722D01*
X46886668Y-11646721D01*
X46683151Y-11556860D01*
X46683135Y-11556854D01*
X46466577Y-11505920D01*
X46466561Y-11505918D01*
X46374096Y-11499500D01*
X46374092Y-11499500D01*
X45125908Y-11499500D01*
X45125904Y-11499500D01*
X45033438Y-11505918D01*
X45033422Y-11505920D01*
X44816864Y-11556854D01*
X44816848Y-11556860D01*
X44613331Y-11646721D01*
X44429779Y-11772457D01*
X44429773Y-11772462D01*
X44272462Y-11929773D01*
X44272457Y-11929779D01*
X44146721Y-12113331D01*
X44056860Y-12316848D01*
X44056854Y-12316864D01*
X44005920Y-12533422D01*
X44005918Y-12533438D01*
X43999500Y-12625904D01*
X43999500Y-13874088D01*
X43999812Y-13878593D01*
X43984806Y-13946832D01*
X43963789Y-13974842D01*
X39897045Y-18041586D01*
X39861029Y-18095492D01*
X39861027Y-18095495D01*
X39814919Y-18164499D01*
X39814912Y-18164511D01*
X39758343Y-18301082D01*
X39758340Y-18301092D01*
X39729500Y-18446079D01*
X39729500Y-21173770D01*
X39709815Y-21240809D01*
X39693181Y-21261451D01*
X39412181Y-21542451D01*
X39350858Y-21575936D01*
X39281166Y-21570952D01*
X39225233Y-21529080D01*
X39200816Y-21463616D01*
X39200500Y-21454770D01*
X39200500Y-21025904D01*
X39194737Y-20942890D01*
X39194081Y-20933433D01*
X39194079Y-20933427D01*
X39194079Y-20933422D01*
X39143145Y-20716864D01*
X39143144Y-20716861D01*
X39143143Y-20716857D01*
X39062187Y-20533508D01*
X39053278Y-20513331D01*
X39026279Y-20473918D01*
X38927542Y-20329779D01*
X38927537Y-20329773D01*
X38770226Y-20172462D01*
X38770220Y-20172457D01*
X38586668Y-20046721D01*
X38383151Y-19956860D01*
X38383135Y-19956854D01*
X38166577Y-19905920D01*
X38166561Y-19905918D01*
X38074096Y-19899500D01*
X38074092Y-19899500D01*
X36825908Y-19899500D01*
X36825904Y-19899500D01*
X36733438Y-19905918D01*
X36733422Y-19905920D01*
X36516864Y-19956854D01*
X36516848Y-19956860D01*
X36313331Y-20046721D01*
X36129779Y-20172457D01*
X36129773Y-20172462D01*
X35972462Y-20329773D01*
X35972457Y-20329779D01*
X35846721Y-20513331D01*
X35756860Y-20716848D01*
X35756854Y-20716864D01*
X35705920Y-20933422D01*
X35705918Y-20933438D01*
X35699500Y-21025904D01*
X35699500Y-22274095D01*
X35705918Y-22366561D01*
X35705920Y-22366577D01*
X35756854Y-22583135D01*
X35756860Y-22583151D01*
X35846721Y-22786668D01*
X35972457Y-22970220D01*
X35972462Y-22970226D01*
X36129773Y-23127537D01*
X36129779Y-23127542D01*
X36313329Y-23253277D01*
X36513505Y-23341663D01*
X36566879Y-23386747D01*
X36587407Y-23453533D01*
X36568569Y-23520815D01*
X36516346Y-23567232D01*
X36501736Y-23573027D01*
X36387550Y-23610128D01*
X36233211Y-23688768D01*
X36208291Y-23706874D01*
X36093072Y-23790586D01*
X36093070Y-23790588D01*
X36093069Y-23790588D01*
X35970588Y-23913069D01*
X35970588Y-23913070D01*
X35970586Y-23913072D01*
X35963891Y-23922287D01*
X35868768Y-24053211D01*
X35790128Y-24207552D01*
X35736597Y-24372302D01*
X35709500Y-24543389D01*
X35709500Y-26116610D01*
X35735934Y-26283512D01*
X35736598Y-26287701D01*
X35790127Y-26452445D01*
X35868768Y-26606788D01*
X35970586Y-26746928D01*
X35970588Y-26746930D01*
X36093072Y-26869414D01*
X36134733Y-26899683D01*
X36177398Y-26955013D01*
X36183376Y-27024627D01*
X36150769Y-27086421D01*
X36134733Y-27100317D01*
X36093072Y-27130585D01*
X35970588Y-27253069D01*
X35970588Y-27253070D01*
X35970586Y-27253072D01*
X35944737Y-27288650D01*
X35868768Y-27393211D01*
X35790129Y-27547549D01*
X35762814Y-27631615D01*
X35723375Y-27689290D01*
X35659016Y-27716487D01*
X35590170Y-27704572D01*
X35538695Y-27657327D01*
X35526952Y-27631613D01*
X35474755Y-27470970D01*
X35381859Y-27288650D01*
X35261582Y-27123105D01*
X35261582Y-27123104D01*
X35116895Y-26978417D01*
X35116889Y-26978412D01*
X35095940Y-26963191D01*
X35053276Y-26907860D01*
X35047298Y-26838247D01*
X35079906Y-26776453D01*
X35081017Y-26775324D01*
X35109414Y-26746928D01*
X35211232Y-26606788D01*
X35289873Y-26452445D01*
X35343402Y-26287701D01*
X35370500Y-26116611D01*
X35370500Y-24543389D01*
X35343402Y-24372299D01*
X35289873Y-24207555D01*
X35211232Y-24053212D01*
X35109414Y-23913072D01*
X34986928Y-23790586D01*
X34846788Y-23688768D01*
X34692445Y-23610127D01*
X34527701Y-23556598D01*
X34527699Y-23556597D01*
X34527698Y-23556597D01*
X34396271Y-23535781D01*
X34356611Y-23529500D01*
X34183389Y-23529500D01*
X34143728Y-23535781D01*
X34012302Y-23556597D01*
X33847552Y-23610128D01*
X33693211Y-23688768D01*
X33668291Y-23706874D01*
X33553072Y-23790586D01*
X33553070Y-23790588D01*
X33553069Y-23790588D01*
X33430588Y-23913069D01*
X33430588Y-23913070D01*
X33430586Y-23913072D01*
X33423891Y-23922287D01*
X33328768Y-24053211D01*
X33250128Y-24207552D01*
X33196597Y-24372302D01*
X33169500Y-24543389D01*
X33169500Y-26116610D01*
X33195934Y-26283512D01*
X33196598Y-26287701D01*
X33250127Y-26452445D01*
X33328768Y-26606788D01*
X33430586Y-26746928D01*
X33430588Y-26746930D01*
X33458852Y-26775194D01*
X33492337Y-26836517D01*
X33487353Y-26906209D01*
X33445481Y-26962142D01*
X33444061Y-26963190D01*
X33423107Y-26978414D01*
X33278417Y-27123104D01*
X33278417Y-27123105D01*
X33158140Y-27288650D01*
X33065244Y-27470968D01*
X33013047Y-27631614D01*
X32973609Y-27689289D01*
X32909250Y-27716487D01*
X32840404Y-27704572D01*
X32788928Y-27657328D01*
X32777186Y-27631615D01*
X32749873Y-27547555D01*
X32671232Y-27393212D01*
X32569414Y-27253072D01*
X32446928Y-27130586D01*
X32405265Y-27100316D01*
X32362602Y-27044988D01*
X32356623Y-26975374D01*
X32389229Y-26913579D01*
X32405266Y-26899683D01*
X32446928Y-26869414D01*
X32569414Y-26746928D01*
X32671232Y-26606788D01*
X32749873Y-26452445D01*
X32803402Y-26287701D01*
X32830500Y-26116611D01*
X32830500Y-24543389D01*
X32803402Y-24372299D01*
X32749873Y-24207555D01*
X32671232Y-24053212D01*
X32569414Y-23913072D01*
X32446928Y-23790586D01*
X32306788Y-23688768D01*
X32152445Y-23610127D01*
X32020429Y-23567232D01*
X31987699Y-23556597D01*
X31970756Y-23553914D01*
X31907622Y-23523984D01*
X31870692Y-23464671D01*
X31871690Y-23394809D01*
X31910301Y-23336577D01*
X31940062Y-23318010D01*
X32086671Y-23253277D01*
X32270221Y-23127542D01*
X32427542Y-22970221D01*
X32553277Y-22786671D01*
X32643143Y-22583143D01*
X32646258Y-22569899D01*
X32694079Y-22366577D01*
X32694079Y-22366573D01*
X32694081Y-22366567D01*
X32700500Y-22274092D01*
X32700500Y-21025908D01*
X32699979Y-21018409D01*
X32694737Y-20942890D01*
X32694081Y-20933433D01*
X32694079Y-20933427D01*
X32694079Y-20933422D01*
X32643145Y-20716864D01*
X32643144Y-20716861D01*
X32643143Y-20716857D01*
X32562187Y-20533508D01*
X32553278Y-20513331D01*
X32526279Y-20473918D01*
X32427542Y-20329779D01*
X32427537Y-20329773D01*
X32270226Y-20172462D01*
X32270220Y-20172457D01*
X32086668Y-20046721D01*
X31883151Y-19956860D01*
X31883135Y-19956854D01*
X31666577Y-19905920D01*
X31666561Y-19905918D01*
X31574096Y-19899500D01*
X31574092Y-19899500D01*
X30325908Y-19899500D01*
X30325904Y-19899500D01*
X30233438Y-19905918D01*
X30233422Y-19905920D01*
X30016864Y-19956854D01*
X30016848Y-19956860D01*
X29813331Y-20046721D01*
X29629779Y-20172457D01*
X29629773Y-20172462D01*
X29472462Y-20329773D01*
X29472457Y-20329779D01*
X29346721Y-20513331D01*
X29256860Y-20716848D01*
X29256854Y-20716864D01*
X29205920Y-20933422D01*
X29205918Y-20933438D01*
X29199500Y-21025904D01*
X29199500Y-21248997D01*
X29179815Y-21316036D01*
X29127011Y-21361791D01*
X29057853Y-21371735D01*
X29002615Y-21349315D01*
X28969728Y-21325422D01*
X28969727Y-21325421D01*
X28969725Y-21325420D01*
X28912272Y-21296146D01*
X28787338Y-21232488D01*
X28592649Y-21169229D01*
X28418110Y-21141585D01*
X28390467Y-21137207D01*
X28185763Y-21137207D01*
X28161444Y-21141058D01*
X27983580Y-21169229D01*
X27788891Y-21232488D01*
X27606501Y-21325422D01*
X27440901Y-21445735D01*
X27296143Y-21590493D01*
X27175830Y-21756093D01*
X27082896Y-21938483D01*
X27019637Y-22133172D01*
X26987615Y-22335355D01*
X26987615Y-22540058D01*
X27019637Y-22742241D01*
X27082896Y-22936930D01*
X27175827Y-23119316D01*
X27250744Y-23222431D01*
X27274223Y-23288238D01*
X27258397Y-23356292D01*
X27208291Y-23404986D01*
X27139813Y-23418861D01*
X27112107Y-23413247D01*
X26954413Y-23362009D01*
X26900000Y-23353390D01*
X26900000Y-25206000D01*
X26880315Y-25273039D01*
X26871599Y-25280590D01*
X26842993Y-25264075D01*
X26715826Y-25230000D01*
X26584174Y-25230000D01*
X26457007Y-25264075D01*
X26430269Y-25279511D01*
X26411206Y-25257511D01*
X26400000Y-25206000D01*
X26400000Y-23353390D01*
X26345586Y-23362009D01*
X26150970Y-23425244D01*
X25968650Y-23518140D01*
X25803105Y-23638417D01*
X25803104Y-23638417D01*
X25658417Y-23783104D01*
X25658417Y-23783105D01*
X25538140Y-23948650D01*
X25445244Y-24130968D01*
X25393047Y-24291614D01*
X25353609Y-24349289D01*
X25289250Y-24376487D01*
X25220404Y-24364572D01*
X25168928Y-24317328D01*
X25157186Y-24291615D01*
X25129873Y-24207555D01*
X25051232Y-24053212D01*
X24949414Y-23913072D01*
X24826928Y-23790586D01*
X24686788Y-23688768D01*
X24532445Y-23610127D01*
X24367701Y-23556598D01*
X24367699Y-23556597D01*
X24367698Y-23556597D01*
X24236271Y-23535781D01*
X24196611Y-23529500D01*
X24023389Y-23529500D01*
X23983728Y-23535781D01*
X23852302Y-23556597D01*
X23687552Y-23610128D01*
X23533211Y-23688768D01*
X23508291Y-23706874D01*
X23393072Y-23790586D01*
X23393070Y-23790588D01*
X23393069Y-23790588D01*
X23270588Y-23913069D01*
X23270588Y-23913070D01*
X23270586Y-23913072D01*
X23263891Y-23922287D01*
X23168768Y-24053211D01*
X23090128Y-24207552D01*
X23036597Y-24372302D01*
X23009500Y-24543389D01*
X23009500Y-26116610D01*
X23035934Y-26283512D01*
X23036598Y-26287701D01*
X23090127Y-26452445D01*
X23168768Y-26606788D01*
X23270586Y-26746928D01*
X23270588Y-26746930D01*
X23393072Y-26869414D01*
X23434733Y-26899683D01*
X23477398Y-26955013D01*
X23483376Y-27024627D01*
X23450769Y-27086421D01*
X23434733Y-27100317D01*
X23393072Y-27130585D01*
X23270588Y-27253069D01*
X23270588Y-27253070D01*
X23270586Y-27253072D01*
X23244737Y-27288650D01*
X23168768Y-27393211D01*
X23090129Y-27547549D01*
X23062814Y-27631615D01*
X23023375Y-27689290D01*
X22959016Y-27716487D01*
X22890170Y-27704572D01*
X22838695Y-27657327D01*
X22826952Y-27631613D01*
X22774755Y-27470970D01*
X22681859Y-27288650D01*
X22561582Y-27123105D01*
X22561582Y-27123104D01*
X22416895Y-26978417D01*
X22416889Y-26978412D01*
X22395940Y-26963191D01*
X22353276Y-26907860D01*
X22347298Y-26838247D01*
X22379906Y-26776453D01*
X22381017Y-26775324D01*
X22409414Y-26746928D01*
X22511232Y-26606788D01*
X22589873Y-26452445D01*
X22643402Y-26287701D01*
X22670500Y-26116611D01*
X22670500Y-24543389D01*
X22643402Y-24372299D01*
X22589873Y-24207555D01*
X22511232Y-24053212D01*
X22409414Y-23913072D01*
X22356819Y-23860477D01*
X22342115Y-23833549D01*
X22325523Y-23807731D01*
X22324631Y-23801530D01*
X22323334Y-23799154D01*
X22320500Y-23772796D01*
X22320500Y-23693001D01*
X22340185Y-23625962D01*
X22371617Y-23592681D01*
X22377219Y-23588612D01*
X22521966Y-23443865D01*
X22521968Y-23443861D01*
X22521971Y-23443859D01*
X22596221Y-23341661D01*
X22642287Y-23278256D01*
X22735220Y-23095865D01*
X22798477Y-22901180D01*
X22830500Y-22698998D01*
X22830500Y-22494294D01*
X22812877Y-22383028D01*
X22798477Y-22292111D01*
X22762375Y-22181001D01*
X22735220Y-22097427D01*
X22735218Y-22097424D01*
X22735218Y-22097422D01*
X22687924Y-22004603D01*
X22642287Y-21915036D01*
X22562458Y-21805160D01*
X22545911Y-21782384D01*
X22522431Y-21716578D01*
X22538257Y-21648524D01*
X22588363Y-21599829D01*
X22646229Y-21585499D01*
X22920002Y-21585499D01*
X22920008Y-21585499D01*
X23022797Y-21574999D01*
X23189334Y-21519814D01*
X23338656Y-21427712D01*
X23462712Y-21303656D01*
X23554814Y-21154334D01*
X23609999Y-20987797D01*
X23620500Y-20885009D01*
X23620499Y-19534992D01*
X23615733Y-19488340D01*
X23609999Y-19432203D01*
X23609998Y-19432200D01*
X23565963Y-19299312D01*
X23554814Y-19265666D01*
X23480136Y-19144593D01*
X23461697Y-19077203D01*
X23482620Y-19010540D01*
X23536262Y-18965770D01*
X23585676Y-18955499D01*
X23890002Y-18955499D01*
X23890008Y-18955499D01*
X23992797Y-18944999D01*
X24159334Y-18889814D01*
X24308656Y-18797712D01*
X24432712Y-18673656D01*
X24524814Y-18524334D01*
X24579999Y-18357797D01*
X24590500Y-18255009D01*
X24590499Y-16904992D01*
X24579999Y-16802203D01*
X24524814Y-16635666D01*
X24432712Y-16486344D01*
X24308656Y-16362288D01*
X24189485Y-16288783D01*
X24159336Y-16270187D01*
X24159331Y-16270185D01*
X24108523Y-16253349D01*
X23992797Y-16215001D01*
X23992795Y-16215000D01*
X23890010Y-16204500D01*
X22989998Y-16204500D01*
X22989980Y-16204501D01*
X22887203Y-16215000D01*
X22887200Y-16215001D01*
X22720668Y-16270185D01*
X22720663Y-16270187D01*
X22571345Y-16362287D01*
X22471279Y-16462353D01*
X22409956Y-16495837D01*
X22340264Y-16490853D01*
X22284331Y-16448981D01*
X22259914Y-16383516D01*
X22265395Y-16337200D01*
X22277889Y-16297786D01*
X22277888Y-16297786D01*
X22277890Y-16297783D01*
X22305004Y-16076956D01*
X22291080Y-15854906D01*
X22236591Y-15639197D01*
X22152692Y-15457330D01*
X22143394Y-15437174D01*
X22143390Y-15437168D01*
X22141138Y-15433832D01*
X22091518Y-15360349D01*
X22091515Y-15360345D01*
X21323066Y-14376774D01*
X21323055Y-14376761D01*
X21261072Y-14307851D01*
X21261070Y-14307849D01*
X21261068Y-14307847D01*
X21087591Y-14168543D01*
X21087587Y-14168541D01*
X21087585Y-14168539D01*
X20891472Y-14063488D01*
X20679391Y-13996259D01*
X20568972Y-13982702D01*
X20458559Y-13969145D01*
X20458555Y-13969145D01*
X20458554Y-13969145D01*
X20236507Y-13983069D01*
X20020798Y-14037558D01*
X19818777Y-14130754D01*
X19818771Y-14130758D01*
X19741948Y-14182633D01*
X18758377Y-14951082D01*
X18758364Y-14951093D01*
X18689454Y-15013076D01*
X18550142Y-15186563D01*
X18445091Y-15382676D01*
X18445091Y-15382677D01*
X18377862Y-15594758D01*
X18352188Y-15803859D01*
X18324480Y-15868000D01*
X18266493Y-15906978D01*
X18214001Y-15911822D01*
X18076956Y-15894996D01*
X18076953Y-15894996D01*
X18076952Y-15894996D01*
X17854904Y-15908920D01*
X17639195Y-15963409D01*
X17437174Y-16056605D01*
X17437168Y-16056609D01*
X17360345Y-16108484D01*
X16376774Y-16876933D01*
X16376761Y-16876944D01*
X16307851Y-16938927D01*
X16168539Y-17112414D01*
X16063488Y-17308527D01*
X16063488Y-17308528D01*
X15996259Y-17520608D01*
X15979990Y-17653110D01*
X15969263Y-17740486D01*
X15969145Y-17741445D01*
X15983069Y-17963492D01*
X16011993Y-18077999D01*
X16009326Y-18147818D01*
X15979450Y-18196048D01*
X13936310Y-20239188D01*
X13874987Y-20272673D01*
X13805295Y-20267689D01*
X13761830Y-20238108D01*
X13761040Y-20238945D01*
X13757399Y-20235503D01*
X13757395Y-20235498D01*
X13583918Y-20096194D01*
X13583914Y-20096192D01*
X13583912Y-20096190D01*
X13387799Y-19991139D01*
X13175718Y-19923910D01*
X13065299Y-19910353D01*
X12954886Y-19896796D01*
X12954882Y-19896796D01*
X12954881Y-19896796D01*
X12732834Y-19910720D01*
X12517125Y-19965209D01*
X12315104Y-20058405D01*
X12315098Y-20058409D01*
X12238275Y-20110284D01*
X11254704Y-20878733D01*
X11254691Y-20878744D01*
X11185781Y-20940727D01*
X11046469Y-21114214D01*
X10941418Y-21310327D01*
X10941418Y-21310328D01*
X10874189Y-21522408D01*
X10862402Y-21618408D01*
X10848687Y-21730119D01*
X10847075Y-21743245D01*
X10860999Y-21965292D01*
X10915488Y-22181001D01*
X11008684Y-22383022D01*
X11008688Y-22383028D01*
X11060563Y-22459851D01*
X11758896Y-23353678D01*
X11784658Y-23418625D01*
X11771218Y-23487190D01*
X11722842Y-23537603D01*
X11654890Y-23553860D01*
X11641785Y-23552493D01*
X11543869Y-23536985D01*
X11496611Y-23529500D01*
X11323389Y-23529500D01*
X11323384Y-23529500D01*
X11219593Y-23545939D01*
X11150300Y-23536985D01*
X11112514Y-23511147D01*
X7726819Y-20125451D01*
X7693334Y-20064128D01*
X7690500Y-20037770D01*
X7690500Y-18025900D01*
X7710185Y-17958861D01*
X7762989Y-17913106D01*
X7829609Y-17902824D01*
X7985961Y-17922021D01*
X8050100Y-17949729D01*
X8089078Y-18007716D01*
X8093923Y-18060209D01*
X8077101Y-18197213D01*
X8091019Y-18419166D01*
X8145485Y-18634782D01*
X8238643Y-18836723D01*
X8290502Y-18913523D01*
X8290507Y-18913530D01*
X8520791Y-19208279D01*
X8520792Y-19208279D01*
X9469796Y-18466837D01*
X9494616Y-18559467D01*
X9573608Y-18696284D01*
X9685319Y-18807995D01*
X9777297Y-18861099D01*
X8828623Y-19602284D01*
X8828623Y-19602285D01*
X9058908Y-19897036D01*
X9058917Y-19897048D01*
X9120885Y-19965944D01*
X9294289Y-20105185D01*
X9490329Y-20210198D01*
X9702318Y-20277398D01*
X9923064Y-20304501D01*
X10145017Y-20290583D01*
X10360633Y-20236117D01*
X10562577Y-20142957D01*
X10639365Y-20091108D01*
X10934130Y-19860810D01*
X10934130Y-19860809D01*
X10192688Y-18911806D01*
X10285318Y-18886987D01*
X10422135Y-18807995D01*
X10533846Y-18696284D01*
X10586950Y-18604304D01*
X11328135Y-19552978D01*
X11328136Y-19552978D01*
X11622887Y-19322694D01*
X11622899Y-19322685D01*
X11691795Y-19260717D01*
X11831036Y-19087313D01*
X11936049Y-18891273D01*
X12003249Y-18679284D01*
X12030352Y-18458538D01*
X12016434Y-18236585D01*
X11961968Y-18020969D01*
X11868810Y-17819028D01*
X11816951Y-17742228D01*
X11816946Y-17742221D01*
X11586661Y-17447471D01*
X11586660Y-17447471D01*
X10637657Y-18188912D01*
X10612838Y-18096285D01*
X10533846Y-17959468D01*
X10422135Y-17847757D01*
X10330155Y-17794651D01*
X11278829Y-17053466D01*
X11278829Y-17053465D01*
X11048545Y-16758715D01*
X11048536Y-16758703D01*
X10986568Y-16689807D01*
X10813164Y-16550566D01*
X10617124Y-16445553D01*
X10405135Y-16378353D01*
X10196079Y-16352685D01*
X10131938Y-16324977D01*
X10092960Y-16266990D01*
X10088115Y-16214502D01*
X10105004Y-16076956D01*
X10091080Y-15854906D01*
X10036591Y-15639197D01*
X9952692Y-15457330D01*
X9943394Y-15437174D01*
X9943390Y-15437168D01*
X9941138Y-15433832D01*
X9891518Y-15360349D01*
X9891515Y-15360345D01*
X9268105Y-14562416D01*
X9123066Y-14376774D01*
X9123055Y-14376761D01*
X9061072Y-14307851D01*
X9061070Y-14307849D01*
X9061068Y-14307847D01*
X8887591Y-14168543D01*
X8887587Y-14168541D01*
X8887585Y-14168539D01*
X8691472Y-14063488D01*
X8479391Y-13996259D01*
X8368972Y-13982702D01*
X8258559Y-13969145D01*
X8258555Y-13969145D01*
X8258554Y-13969145D01*
X8036507Y-13983069D01*
X7820798Y-14037558D01*
X7618777Y-14130754D01*
X7618771Y-14130758D01*
X7541948Y-14182633D01*
X6558377Y-14951082D01*
X6558364Y-14951093D01*
X6489454Y-15013076D01*
X6350142Y-15186563D01*
X6245091Y-15382676D01*
X6245091Y-15382677D01*
X6177862Y-15594757D01*
X6168275Y-15672843D01*
X6152189Y-15803859D01*
X6150748Y-15815594D01*
X6164672Y-16037641D01*
X6219161Y-16253350D01*
X6312357Y-16455371D01*
X6312359Y-16455374D01*
X6355500Y-16519263D01*
X6361655Y-16538592D01*
X6372315Y-16555848D01*
X6372041Y-16571202D01*
X6376702Y-16585838D01*
X6371430Y-16605425D01*
X6371069Y-16625706D01*
X6359420Y-16650053D01*
X6358545Y-16653307D01*
X6355837Y-16657544D01*
X6319681Y-16711657D01*
X6319681Y-16711658D01*
X6274913Y-16778657D01*
X6218343Y-16915231D01*
X6218340Y-16915241D01*
X6189500Y-17060228D01*
X6189500Y-17060231D01*
X6189500Y-20473918D01*
X6189500Y-20473920D01*
X6189499Y-20473920D01*
X6218340Y-20618907D01*
X6218343Y-20618917D01*
X6274913Y-20755490D01*
X6274915Y-20755493D01*
X6286592Y-20772970D01*
X6286591Y-20772970D01*
X6357046Y-20878414D01*
X6357052Y-20878421D01*
X6926228Y-21447596D01*
X8331471Y-22852839D01*
X8630950Y-23152317D01*
X8664435Y-23213640D01*
X8659451Y-23283332D01*
X8617579Y-23339265D01*
X8569957Y-23359400D01*
X8570311Y-23360875D01*
X8565582Y-23362009D01*
X8370968Y-23425244D01*
X8188650Y-23518140D01*
X8023105Y-23638417D01*
X8023104Y-23638417D01*
X7878417Y-23783104D01*
X7878417Y-23783105D01*
X7758140Y-23948650D01*
X7665244Y-24130968D01*
X7602009Y-24325582D01*
X7570000Y-24527682D01*
X7570000Y-25080000D01*
X8746000Y-25080000D01*
X8813039Y-25099685D01*
X8858794Y-25152489D01*
X8870000Y-25204000D01*
X8870000Y-25230000D01*
X8804174Y-25230000D01*
X8677007Y-25264075D01*
X8562993Y-25329901D01*
X8469901Y-25422993D01*
X8404075Y-25537007D01*
X8392555Y-25580000D01*
X7570000Y-25580000D01*
X7570000Y-26132317D01*
X7602009Y-26334417D01*
X7665244Y-26529031D01*
X7758140Y-26711349D01*
X7878417Y-26876894D01*
X7878417Y-26876895D01*
X8023107Y-27021585D01*
X8044058Y-27036807D01*
X8086723Y-27092138D01*
X8092701Y-27161751D01*
X8060094Y-27223546D01*
X8058854Y-27224804D01*
X8030586Y-27253072D01*
X7928768Y-27393211D01*
X7850128Y-27547552D01*
X7796597Y-27712302D01*
X7769500Y-27883389D01*
X7769500Y-29456610D01*
X7795934Y-29623512D01*
X7796598Y-29627701D01*
X7850127Y-29792445D01*
X7928768Y-29946788D01*
X8030586Y-30086928D01*
X8153072Y-30209414D01*
X8293212Y-30311232D01*
X8392036Y-30361585D01*
X8398768Y-30365015D01*
X8449564Y-30412989D01*
X8466359Y-30480810D01*
X8443822Y-30546945D01*
X8389107Y-30590397D01*
X8342473Y-30599500D01*
X524500Y-30599500D01*
X457461Y-30579815D01*
X411706Y-30527011D01*
X400500Y-30475500D01*
X400500Y-26890188D01*
X2324500Y-26890188D01*
X2324500Y-27109811D01*
X2324501Y-27109828D01*
X2353167Y-27327573D01*
X2410014Y-27539729D01*
X2483230Y-27716487D01*
X2494065Y-27742645D01*
X2603884Y-27932855D01*
X2603889Y-27932861D01*
X2603890Y-27932863D01*
X2737588Y-28107102D01*
X2737594Y-28107109D01*
X2892890Y-28262405D01*
X2892897Y-28262411D01*
X3016977Y-28357621D01*
X3067145Y-28396116D01*
X3257355Y-28505935D01*
X3358814Y-28547960D01*
X3460270Y-28589985D01*
X3460271Y-28589985D01*
X3460273Y-28589986D01*
X3672425Y-28646832D01*
X3890182Y-28675500D01*
X3890189Y-28675500D01*
X4109811Y-28675500D01*
X4109818Y-28675500D01*
X4327575Y-28646832D01*
X4539727Y-28589986D01*
X4742645Y-28505935D01*
X4932855Y-28396116D01*
X5107104Y-28262410D01*
X5262410Y-28107104D01*
X5396116Y-27932855D01*
X5505935Y-27742645D01*
X5589986Y-27539727D01*
X5646832Y-27327575D01*
X5675500Y-27109818D01*
X5675500Y-26890182D01*
X5646832Y-26672425D01*
X5589986Y-26460273D01*
X5586744Y-26452447D01*
X5528035Y-26310710D01*
X5505935Y-26257355D01*
X5396116Y-26067145D01*
X5262410Y-25892896D01*
X5262405Y-25892890D01*
X5107109Y-25737594D01*
X5107102Y-25737588D01*
X4932863Y-25603890D01*
X4932861Y-25603889D01*
X4932855Y-25603884D01*
X4742645Y-25494065D01*
X4742641Y-25494063D01*
X4539729Y-25410014D01*
X4327573Y-25353167D01*
X4109828Y-25324501D01*
X4109823Y-25324500D01*
X4109818Y-25324500D01*
X3890182Y-25324500D01*
X3890176Y-25324500D01*
X3890171Y-25324501D01*
X3672426Y-25353167D01*
X3460270Y-25410014D01*
X3257358Y-25494063D01*
X3257354Y-25494065D01*
X3067145Y-25603884D01*
X3067136Y-25603890D01*
X2892897Y-25737588D01*
X2892890Y-25737594D01*
X2737594Y-25892890D01*
X2737588Y-25892897D01*
X2603890Y-26067136D01*
X2603884Y-26067145D01*
X2494065Y-26257354D01*
X2494063Y-26257358D01*
X2410014Y-26460270D01*
X2353167Y-26672426D01*
X2324501Y-26890171D01*
X2324500Y-26890188D01*
X400500Y-26890188D01*
X400500Y-23060437D01*
X659570Y-23060437D01*
X3229798Y-23060437D01*
X3229798Y-17914386D01*
X659570Y-17914386D01*
X659570Y-23060437D01*
X400500Y-23060437D01*
X400500Y-13045134D01*
X9697298Y-13045134D01*
X9711216Y-13267087D01*
X9765682Y-13482703D01*
X9858840Y-13684644D01*
X9910699Y-13761444D01*
X9910704Y-13761451D01*
X10140988Y-14056200D01*
X10140989Y-14056200D01*
X11089992Y-13314757D01*
X11114813Y-13407388D01*
X11193805Y-13544205D01*
X11305516Y-13655916D01*
X11397494Y-13709020D01*
X10448820Y-14450205D01*
X10448820Y-14450206D01*
X10679105Y-14744957D01*
X10679114Y-14744969D01*
X10741082Y-14813865D01*
X10914486Y-14953106D01*
X11110526Y-15058119D01*
X11322515Y-15125319D01*
X11543261Y-15152422D01*
X11765214Y-15138504D01*
X11980830Y-15084038D01*
X12182774Y-14990878D01*
X12259562Y-14939029D01*
X12554327Y-14708731D01*
X12554327Y-14708730D01*
X11812885Y-13759727D01*
X11905515Y-13734908D01*
X12042332Y-13655916D01*
X12154043Y-13544205D01*
X12207148Y-13452225D01*
X12948333Y-14400898D01*
X13016017Y-14348018D01*
X13080963Y-14322256D01*
X13149528Y-14335696D01*
X13199942Y-14384072D01*
X13212583Y-14415362D01*
X13267555Y-14632982D01*
X13360713Y-14834923D01*
X13412572Y-14911723D01*
X13412577Y-14911730D01*
X13642861Y-15206479D01*
X13642862Y-15206479D01*
X14591865Y-14465036D01*
X14616686Y-14557667D01*
X14695678Y-14694484D01*
X14807389Y-14806195D01*
X14899367Y-14859299D01*
X13950693Y-15600484D01*
X13950693Y-15600485D01*
X14180978Y-15895236D01*
X14180987Y-15895248D01*
X14242955Y-15964144D01*
X14416359Y-16103385D01*
X14612399Y-16208398D01*
X14824388Y-16275598D01*
X15045134Y-16302701D01*
X15267087Y-16288783D01*
X15482703Y-16234317D01*
X15684647Y-16141157D01*
X15761435Y-16089308D01*
X16056200Y-15859010D01*
X16056200Y-15859009D01*
X15314758Y-14910006D01*
X15407388Y-14885187D01*
X15544205Y-14806195D01*
X15655916Y-14694484D01*
X15709020Y-14602504D01*
X16450205Y-15551178D01*
X16450206Y-15551178D01*
X16744957Y-15320894D01*
X16744969Y-15320885D01*
X16813865Y-15258917D01*
X16953106Y-15085513D01*
X17058119Y-14889473D01*
X17125319Y-14677484D01*
X17152422Y-14456738D01*
X17138504Y-14234785D01*
X17084038Y-14019169D01*
X16990880Y-13817228D01*
X16939021Y-13740428D01*
X16939016Y-13740421D01*
X16708731Y-13445671D01*
X16708730Y-13445671D01*
X15759727Y-14187112D01*
X15734908Y-14094485D01*
X15655916Y-13957668D01*
X15544205Y-13845957D01*
X15452223Y-13792851D01*
X16390490Y-13059798D01*
X16338684Y-12970074D01*
X16332407Y-12944205D01*
X16322594Y-12919466D01*
X16324296Y-12910779D01*
X16322209Y-12902175D01*
X16330914Y-12877019D01*
X16336034Y-12850902D01*
X16342163Y-12844514D01*
X16345059Y-12836147D01*
X16365983Y-12819691D01*
X16384410Y-12800488D01*
X16396728Y-12795511D01*
X16399979Y-12792955D01*
X16404009Y-12792570D01*
X16415700Y-12787847D01*
X16417441Y-12787407D01*
X16417443Y-12787407D01*
X16633152Y-12732918D01*
X16835177Y-12639720D01*
X16912000Y-12587845D01*
X17895583Y-11819386D01*
X17964502Y-11757395D01*
X18103806Y-11583918D01*
X18208861Y-11387798D01*
X18254624Y-11243431D01*
X18276089Y-11175718D01*
X18277448Y-11164652D01*
X18303204Y-10954886D01*
X18289280Y-10732836D01*
X18234791Y-10517127D01*
X18141593Y-10315102D01*
X18089718Y-10238279D01*
X17906093Y-10003249D01*
X17466305Y-9440346D01*
X17321266Y-9254704D01*
X17321255Y-9254691D01*
X17259272Y-9185781D01*
X17259270Y-9185779D01*
X17259268Y-9185777D01*
X17085791Y-9046473D01*
X17085787Y-9046471D01*
X17085785Y-9046469D01*
X16889672Y-8941418D01*
X16677591Y-8874189D01*
X16567172Y-8860632D01*
X16456759Y-8847075D01*
X16456755Y-8847075D01*
X16456754Y-8847075D01*
X16456753Y-8847075D01*
X16344671Y-8854103D01*
X16276531Y-8838652D01*
X16227561Y-8788815D01*
X16213309Y-8720415D01*
X16238300Y-8655167D01*
X16249223Y-8642672D01*
X17294687Y-7597208D01*
X17356008Y-7563725D01*
X17419836Y-7566688D01*
X17594757Y-7622137D01*
X17594761Y-7622137D01*
X17594763Y-7622138D01*
X17804358Y-7647872D01*
X17868496Y-7675580D01*
X17907475Y-7733566D01*
X17912320Y-7786060D01*
X17895498Y-7923064D01*
X17909416Y-8145017D01*
X17963882Y-8360633D01*
X18057040Y-8562574D01*
X18108899Y-8639374D01*
X18108904Y-8639381D01*
X18339188Y-8934130D01*
X18339189Y-8934130D01*
X19288192Y-8192688D01*
X19313013Y-8285318D01*
X19392005Y-8422135D01*
X19503716Y-8533846D01*
X19595694Y-8586950D01*
X18647020Y-9328135D01*
X18647020Y-9328136D01*
X18877305Y-9622887D01*
X18877314Y-9622899D01*
X18939282Y-9691795D01*
X19112686Y-9831036D01*
X19308726Y-9936049D01*
X19520715Y-10003249D01*
X19741461Y-10030352D01*
X19963414Y-10016434D01*
X20179030Y-9961968D01*
X20380974Y-9868808D01*
X20457762Y-9816959D01*
X20752527Y-9586661D01*
X20752527Y-9586660D01*
X20011085Y-8637657D01*
X20103715Y-8612838D01*
X20240532Y-8533846D01*
X20352243Y-8422135D01*
X20405347Y-8330155D01*
X21146532Y-9278829D01*
X21146533Y-9278829D01*
X21441284Y-9048545D01*
X21441296Y-9048536D01*
X21510192Y-8986568D01*
X21649433Y-8813164D01*
X21752770Y-8620254D01*
X21801778Y-8570454D01*
X21869929Y-8555055D01*
X21935587Y-8578946D01*
X21949757Y-8591125D01*
X24392269Y-11033637D01*
X24425754Y-11094960D01*
X24420770Y-11164652D01*
X24378898Y-11220585D01*
X24313434Y-11245002D01*
X24267118Y-11239521D01*
X24225332Y-11226274D01*
X24004586Y-11199171D01*
X23782633Y-11213089D01*
X23567017Y-11267555D01*
X23365076Y-11360713D01*
X23288276Y-11412572D01*
X23288269Y-11412577D01*
X22993519Y-11642861D01*
X22993519Y-11642862D01*
X23734961Y-12591866D01*
X23642333Y-12616686D01*
X23505516Y-12695678D01*
X23393805Y-12807389D01*
X23340699Y-12899369D01*
X22599513Y-11950693D01*
X22304749Y-12180989D01*
X22235856Y-12242955D01*
X22096614Y-12416359D01*
X21991601Y-12612399D01*
X21924401Y-12824388D01*
X21897298Y-13045134D01*
X21911216Y-13267087D01*
X21965682Y-13482703D01*
X22058840Y-13684644D01*
X22110699Y-13761444D01*
X22110704Y-13761451D01*
X22340988Y-14056200D01*
X22340989Y-14056200D01*
X23289992Y-13314757D01*
X23314813Y-13407388D01*
X23393805Y-13544205D01*
X23505516Y-13655916D01*
X23597494Y-13709020D01*
X22648820Y-14450205D01*
X22648820Y-14450206D01*
X22879105Y-14744957D01*
X22879114Y-14744969D01*
X22941082Y-14813865D01*
X23114486Y-14953106D01*
X23310526Y-15058119D01*
X23522515Y-15125319D01*
X23743261Y-15152422D01*
X23965214Y-15138504D01*
X24180832Y-15084038D01*
X24193554Y-15078169D01*
X24262674Y-15067959D01*
X24326341Y-15096739D01*
X24364342Y-15155371D01*
X24369500Y-15190764D01*
X24369500Y-15222351D01*
X24401522Y-15424534D01*
X24464781Y-15619223D01*
X24557715Y-15801613D01*
X24678028Y-15967213D01*
X24822786Y-16111971D01*
X24955509Y-16208398D01*
X24988390Y-16232287D01*
X25104607Y-16291503D01*
X25170776Y-16325218D01*
X25170778Y-16325218D01*
X25170781Y-16325220D01*
X25365466Y-16388477D01*
X25402228Y-16394299D01*
X25465361Y-16424227D01*
X25502292Y-16483538D01*
X25501296Y-16553401D01*
X25488368Y-16581868D01*
X25455190Y-16635659D01*
X25455185Y-16635668D01*
X25430005Y-16711657D01*
X25400001Y-16802203D01*
X25400001Y-16802204D01*
X25400000Y-16802204D01*
X25389500Y-16904983D01*
X25389500Y-18255001D01*
X25389501Y-18255018D01*
X25400000Y-18357796D01*
X25400001Y-18357799D01*
X25455185Y-18524331D01*
X25455189Y-18524340D01*
X25529862Y-18645404D01*
X25548302Y-18712796D01*
X25527379Y-18779459D01*
X25473737Y-18824229D01*
X25424323Y-18834500D01*
X25119999Y-18834500D01*
X25119980Y-18834501D01*
X25017203Y-18845000D01*
X25017200Y-18845001D01*
X24850668Y-18900185D01*
X24850663Y-18900187D01*
X24701342Y-18992289D01*
X24577289Y-19116342D01*
X24485187Y-19265663D01*
X24485186Y-19265666D01*
X24430001Y-19432203D01*
X24430001Y-19432204D01*
X24430000Y-19432204D01*
X24419500Y-19534983D01*
X24419500Y-20885001D01*
X24419501Y-20885018D01*
X24430000Y-20987796D01*
X24430001Y-20987799D01*
X24475134Y-21124000D01*
X24485186Y-21154334D01*
X24577288Y-21303656D01*
X24701344Y-21427712D01*
X24850666Y-21519814D01*
X25017203Y-21574999D01*
X25119991Y-21585500D01*
X26020008Y-21585499D01*
X26020016Y-21585498D01*
X26020019Y-21585498D01*
X26113624Y-21575936D01*
X26122797Y-21574999D01*
X26289334Y-21519814D01*
X26438656Y-21427712D01*
X26562712Y-21303656D01*
X26654814Y-21154334D01*
X26709999Y-20987797D01*
X26720500Y-20885009D01*
X26720499Y-20782228D01*
X26740183Y-20715191D01*
X26756813Y-20694553D01*
X28263952Y-19187415D01*
X28305987Y-19124505D01*
X28346084Y-19064495D01*
X28391232Y-18955499D01*
X28402659Y-18927912D01*
X28431500Y-18782917D01*
X28431500Y-18635082D01*
X28431500Y-15159996D01*
X28451185Y-15092957D01*
X28503989Y-15047202D01*
X28573147Y-15037258D01*
X28636703Y-15066283D01*
X28643181Y-15072315D01*
X28828140Y-15257274D01*
X28828148Y-15257281D01*
X29036196Y-15416924D01*
X29263299Y-15548041D01*
X29263309Y-15548046D01*
X29439462Y-15621011D01*
X29493865Y-15664852D01*
X29515930Y-15731146D01*
X29498651Y-15798846D01*
X29479694Y-15823249D01*
X29472850Y-15830093D01*
X29472843Y-15830101D01*
X29347160Y-16013575D01*
X29257336Y-16217008D01*
X29257330Y-16217024D01*
X29206417Y-16433491D01*
X29206415Y-16433507D01*
X29200000Y-16525931D01*
X29200000Y-16900000D01*
X30401518Y-16900000D01*
X30390889Y-16918409D01*
X30350000Y-17071009D01*
X30350000Y-17228991D01*
X30390889Y-17381591D01*
X30401518Y-17400000D01*
X29200001Y-17400000D01*
X29200001Y-17774067D01*
X29206415Y-17866491D01*
X29206417Y-17866507D01*
X29257330Y-18082975D01*
X29257336Y-18082991D01*
X29347160Y-18286424D01*
X29472843Y-18469899D01*
X29630100Y-18627156D01*
X29813575Y-18752839D01*
X30017008Y-18842663D01*
X30017024Y-18842669D01*
X30233491Y-18893582D01*
X30233507Y-18893584D01*
X30325931Y-18899999D01*
X30699999Y-18899999D01*
X30700000Y-18899998D01*
X30700000Y-17698482D01*
X30718409Y-17709111D01*
X30871009Y-17750000D01*
X31028991Y-17750000D01*
X31181591Y-17709111D01*
X31200000Y-17698482D01*
X31200000Y-18899999D01*
X31574068Y-18899999D01*
X31666491Y-18893584D01*
X31666507Y-18893582D01*
X31882975Y-18842669D01*
X31882991Y-18842663D01*
X32086424Y-18752839D01*
X32269899Y-18627156D01*
X32427156Y-18469899D01*
X32552839Y-18286424D01*
X32642663Y-18082991D01*
X32642669Y-18082975D01*
X32693582Y-17866508D01*
X32693584Y-17866492D01*
X32700000Y-17774068D01*
X32700000Y-17400000D01*
X31498482Y-17400000D01*
X31509111Y-17381591D01*
X31550000Y-17228991D01*
X31550000Y-17071009D01*
X31509111Y-16918409D01*
X31498482Y-16900000D01*
X32699999Y-16900000D01*
X32699999Y-16525932D01*
X32699999Y-16525931D01*
X35700000Y-16525931D01*
X35700000Y-16900000D01*
X36901518Y-16900000D01*
X36890889Y-16918409D01*
X36850000Y-17071009D01*
X36850000Y-17228991D01*
X36890889Y-17381591D01*
X36901518Y-17400000D01*
X35700001Y-17400000D01*
X35700001Y-17774067D01*
X35706415Y-17866491D01*
X35706417Y-17866507D01*
X35757330Y-18082975D01*
X35757336Y-18082991D01*
X35847160Y-18286424D01*
X35972843Y-18469899D01*
X36130100Y-18627156D01*
X36313575Y-18752839D01*
X36517008Y-18842663D01*
X36517024Y-18842669D01*
X36733491Y-18893582D01*
X36733507Y-18893584D01*
X36825931Y-18899999D01*
X37199999Y-18899999D01*
X37200000Y-18899998D01*
X37200000Y-17698482D01*
X37218409Y-17709111D01*
X37371009Y-17750000D01*
X37528991Y-17750000D01*
X37681591Y-17709111D01*
X37700000Y-17698482D01*
X37700000Y-18899999D01*
X38074068Y-18899999D01*
X38166491Y-18893584D01*
X38166507Y-18893582D01*
X38382975Y-18842669D01*
X38382991Y-18842663D01*
X38586424Y-18752839D01*
X38769899Y-18627156D01*
X38927156Y-18469899D01*
X39052839Y-18286424D01*
X39142663Y-18082991D01*
X39142669Y-18082975D01*
X39193582Y-17866508D01*
X39193584Y-17866492D01*
X39200000Y-17774068D01*
X39200000Y-17400000D01*
X37998482Y-17400000D01*
X38009111Y-17381591D01*
X38050000Y-17228991D01*
X38050000Y-17071009D01*
X38009111Y-16918409D01*
X37998482Y-16900000D01*
X39199999Y-16900000D01*
X39199999Y-16525932D01*
X39193584Y-16433508D01*
X39193582Y-16433492D01*
X39142669Y-16217024D01*
X39142663Y-16217008D01*
X39052839Y-16013575D01*
X38927156Y-15830100D01*
X38769899Y-15672843D01*
X38586424Y-15547160D01*
X38382991Y-15457336D01*
X38382975Y-15457330D01*
X38166508Y-15406417D01*
X38166492Y-15406415D01*
X38074069Y-15400000D01*
X37700000Y-15400000D01*
X37700000Y-16601517D01*
X37681591Y-16590889D01*
X37528991Y-16550000D01*
X37371009Y-16550000D01*
X37218409Y-16590889D01*
X37200000Y-16601517D01*
X37200000Y-15400000D01*
X36825932Y-15400000D01*
X36733508Y-15406415D01*
X36733492Y-15406417D01*
X36517024Y-15457330D01*
X36517008Y-15457336D01*
X36313575Y-15547160D01*
X36130100Y-15672843D01*
X35972843Y-15830100D01*
X35847160Y-16013575D01*
X35757336Y-16217008D01*
X35757330Y-16217024D01*
X35706417Y-16433491D01*
X35706415Y-16433507D01*
X35700000Y-16525931D01*
X32699999Y-16525931D01*
X32693584Y-16433508D01*
X32693582Y-16433492D01*
X32642669Y-16217024D01*
X32642663Y-16217008D01*
X32552839Y-16013575D01*
X32427156Y-15830100D01*
X32391019Y-15793963D01*
X32357534Y-15732640D01*
X32362518Y-15662948D01*
X32404390Y-15607015D01*
X32431244Y-15591722D01*
X32536697Y-15548043D01*
X32763803Y-15416924D01*
X32971851Y-15257282D01*
X32971855Y-15257277D01*
X32971860Y-15257274D01*
X33157274Y-15071860D01*
X33157277Y-15071855D01*
X33157282Y-15071851D01*
X33316924Y-14863803D01*
X33448043Y-14636697D01*
X33548398Y-14394419D01*
X33616270Y-14141116D01*
X33650500Y-13881120D01*
X33650500Y-13618880D01*
X33616270Y-13358884D01*
X33548398Y-13105581D01*
X33540498Y-13086508D01*
X33448046Y-12863309D01*
X33448041Y-12863299D01*
X33316924Y-12636196D01*
X33157281Y-12428148D01*
X33157274Y-12428140D01*
X32971860Y-12242726D01*
X32971851Y-12242718D01*
X32763803Y-12083075D01*
X32536700Y-11951958D01*
X32536690Y-11951953D01*
X32294428Y-11851605D01*
X32294421Y-11851603D01*
X32294419Y-11851602D01*
X32041116Y-11783730D01*
X31983339Y-11776123D01*
X31781127Y-11749500D01*
X31781120Y-11749500D01*
X30018880Y-11749500D01*
X30018872Y-11749500D01*
X29787772Y-11779926D01*
X29758884Y-11783730D01*
X29570773Y-11834134D01*
X29505581Y-11851602D01*
X29505571Y-11851605D01*
X29263309Y-11951953D01*
X29263299Y-11951958D01*
X29036196Y-12083075D01*
X28828148Y-12242718D01*
X28642718Y-12428148D01*
X28483075Y-12636196D01*
X28430089Y-12727972D01*
X28411995Y-12745223D01*
X28397013Y-12765239D01*
X28387144Y-12768919D01*
X28379522Y-12776188D01*
X28354973Y-12780918D01*
X28331549Y-12789656D01*
X28321256Y-12787417D01*
X28310915Y-12789410D01*
X28287709Y-12780119D01*
X28263276Y-12774805D01*
X28250449Y-12765203D01*
X28246050Y-12763442D01*
X28235021Y-12753654D01*
X28209339Y-12727972D01*
X28159416Y-12678049D01*
X25796465Y-10315098D01*
X23511354Y-8029986D01*
X25925001Y-8029986D01*
X25935494Y-8132697D01*
X25990641Y-8299119D01*
X25990643Y-8299124D01*
X26082684Y-8448345D01*
X26206654Y-8572315D01*
X26355875Y-8664356D01*
X26355880Y-8664358D01*
X26522302Y-8719505D01*
X26522309Y-8719506D01*
X26625019Y-8729999D01*
X27049999Y-8729999D01*
X27050000Y-8729998D01*
X27050000Y-7830000D01*
X25925001Y-7830000D01*
X25925001Y-8029986D01*
X23511354Y-8029986D01*
X23347687Y-7866319D01*
X22674319Y-7192951D01*
X22659615Y-7166023D01*
X22643023Y-7140205D01*
X22642131Y-7134004D01*
X22640834Y-7131628D01*
X22638000Y-7105270D01*
X22638000Y-6872507D01*
X22657685Y-6805468D01*
X22696903Y-6766968D01*
X22768656Y-6722712D01*
X22892712Y-6598656D01*
X22984814Y-6449334D01*
X23039999Y-6282797D01*
X23050500Y-6180009D01*
X23050500Y-6179986D01*
X23850001Y-6179986D01*
X23860494Y-6282697D01*
X23915641Y-6449119D01*
X23915643Y-6449124D01*
X24007684Y-6598345D01*
X24131654Y-6722315D01*
X24280875Y-6814356D01*
X24280880Y-6814358D01*
X24447302Y-6869505D01*
X24447309Y-6869506D01*
X24550019Y-6879999D01*
X24762499Y-6879999D01*
X24762500Y-6879998D01*
X24762500Y-5730000D01*
X23850001Y-5730000D01*
X23850001Y-6179986D01*
X23050500Y-6179986D01*
X23050499Y-5480000D01*
X23050499Y-4779998D01*
X23050498Y-4779981D01*
X23039999Y-4677203D01*
X23039998Y-4677200D01*
X23019884Y-4616500D01*
X22984814Y-4510666D01*
X22892712Y-4361344D01*
X22768656Y-4237288D01*
X22619334Y-4145186D01*
X22619332Y-4145185D01*
X22615640Y-4142908D01*
X22605616Y-4132645D01*
X22595667Y-4127586D01*
X22583639Y-4110144D01*
X22573696Y-4099964D01*
X22569420Y-4092652D01*
X22552584Y-4052005D01*
X22499104Y-3971966D01*
X22484571Y-3950216D01*
X22463697Y-3883538D01*
X22482138Y-3816235D01*
X22567814Y-3677334D01*
X22622999Y-3510797D01*
X22633500Y-3408008D01*
X22633500Y-1417992D01*
X22633499Y-1417984D01*
X23372500Y-1417984D01*
X23372500Y-3408015D01*
X23383000Y-3510795D01*
X23383001Y-3510797D01*
X23399648Y-3561033D01*
X23438186Y-3677335D01*
X23438187Y-3677337D01*
X23530286Y-3826651D01*
X23530289Y-3826655D01*
X23654344Y-3950710D01*
X23654348Y-3950713D01*
X23803662Y-4042812D01*
X23803664Y-4042813D01*
X23803666Y-4042814D01*
X23970203Y-4097999D01*
X23983829Y-4099391D01*
X24048521Y-4125787D01*
X24088672Y-4182967D01*
X24091536Y-4252778D01*
X24058909Y-4310429D01*
X24007684Y-4361654D01*
X23915643Y-4510875D01*
X23915641Y-4510880D01*
X23860494Y-4677302D01*
X23860493Y-4677309D01*
X23850000Y-4780013D01*
X23850000Y-5230000D01*
X24888500Y-5230000D01*
X24955539Y-5249685D01*
X25001294Y-5302489D01*
X25012500Y-5354000D01*
X25012500Y-5480000D01*
X25138500Y-5480000D01*
X25205539Y-5499685D01*
X25251294Y-5552489D01*
X25262500Y-5604000D01*
X25262500Y-6879999D01*
X25474972Y-6879999D01*
X25474986Y-6879998D01*
X25577697Y-6869505D01*
X25744119Y-6814358D01*
X25744126Y-6814355D01*
X25783381Y-6790142D01*
X25850773Y-6771701D01*
X25917437Y-6792623D01*
X25962207Y-6846264D01*
X25970869Y-6915595D01*
X25966185Y-6934683D01*
X25935495Y-7027299D01*
X25935493Y-7027309D01*
X25925000Y-7130013D01*
X25925000Y-7330000D01*
X27050000Y-7330000D01*
X27050000Y-6430000D01*
X26625028Y-6430000D01*
X26625012Y-6430001D01*
X26522302Y-6440494D01*
X26355880Y-6495641D01*
X26355873Y-6495644D01*
X26316615Y-6519859D01*
X26249223Y-6538298D01*
X26182559Y-6517374D01*
X26137791Y-6463732D01*
X26129130Y-6394401D01*
X26133814Y-6375314D01*
X26164505Y-6282694D01*
X26164506Y-6282690D01*
X26174999Y-6179986D01*
X26174999Y-5675208D01*
X26194683Y-5608169D01*
X26247487Y-5562414D01*
X26316646Y-5552470D01*
X26351405Y-5562826D01*
X26355656Y-5564808D01*
X26355666Y-5564814D01*
X26522203Y-5619999D01*
X26624991Y-5630500D01*
X27975008Y-5630499D01*
X28077797Y-5619999D01*
X28236500Y-5567409D01*
X28306323Y-5565008D01*
X28366366Y-5600739D01*
X28397559Y-5663259D01*
X28399500Y-5685116D01*
X28399500Y-6375409D01*
X28379815Y-6442448D01*
X28327011Y-6488203D01*
X28257853Y-6498147D01*
X28236496Y-6493115D01*
X28077697Y-6440494D01*
X28077690Y-6440493D01*
X27974986Y-6430000D01*
X27550000Y-6430000D01*
X27550000Y-8729999D01*
X27974972Y-8729999D01*
X27974986Y-8729998D01*
X28077697Y-8719505D01*
X28244119Y-8664358D01*
X28244124Y-8664356D01*
X28393345Y-8572315D01*
X28517316Y-8448344D01*
X28530852Y-8426399D01*
X28582800Y-8379673D01*
X28651762Y-8368450D01*
X28715845Y-8396293D01*
X28734767Y-8416007D01*
X28892718Y-8621851D01*
X28892726Y-8621860D01*
X29078140Y-8807274D01*
X29078148Y-8807281D01*
X29286196Y-8966924D01*
X29513299Y-9098041D01*
X29513309Y-9098046D01*
X29755571Y-9198394D01*
X29755581Y-9198398D01*
X30008884Y-9266270D01*
X30268880Y-9300500D01*
X30268887Y-9300500D01*
X30531113Y-9300500D01*
X30531120Y-9300500D01*
X30791116Y-9266270D01*
X31044419Y-9198398D01*
X31257036Y-9110329D01*
X31286690Y-9098046D01*
X31286691Y-9098045D01*
X31286697Y-9098043D01*
X31513803Y-8966924D01*
X31721851Y-8807282D01*
X31721855Y-8807277D01*
X31721860Y-8807274D01*
X31907274Y-8621860D01*
X31907277Y-8621855D01*
X31907282Y-8621851D01*
X32066924Y-8413803D01*
X32170006Y-8235258D01*
X35599500Y-8235258D01*
X35599500Y-10464741D01*
X35624446Y-10654215D01*
X35629452Y-10692238D01*
X35680584Y-10883067D01*
X35688842Y-10913887D01*
X35776650Y-11125876D01*
X35776657Y-11125890D01*
X35891392Y-11324617D01*
X36031081Y-11506661D01*
X36031089Y-11506670D01*
X36193330Y-11668911D01*
X36193338Y-11668918D01*
X36375382Y-11808607D01*
X36375385Y-11808608D01*
X36375388Y-11808611D01*
X36574112Y-11923344D01*
X36574117Y-11923346D01*
X36574123Y-11923349D01*
X36643192Y-11951958D01*
X36786113Y-12011158D01*
X37007762Y-12070548D01*
X37235266Y-12100500D01*
X37235273Y-12100500D01*
X37464727Y-12100500D01*
X37464734Y-12100500D01*
X37692238Y-12070548D01*
X37913887Y-12011158D01*
X38125888Y-11923344D01*
X38324612Y-11808611D01*
X38506661Y-11668919D01*
X38506661Y-11668918D01*
X38509881Y-11666448D01*
X38510682Y-11667492D01*
X38568967Y-11640436D01*
X38638186Y-11649950D01*
X38691272Y-11695376D01*
X38710314Y-11746876D01*
X38718442Y-11808611D01*
X38729452Y-11892238D01*
X38780586Y-12083075D01*
X38788842Y-12113887D01*
X38876650Y-12325876D01*
X38876657Y-12325890D01*
X38991392Y-12524617D01*
X39131081Y-12706661D01*
X39131089Y-12706670D01*
X39293330Y-12868911D01*
X39293338Y-12868918D01*
X39293339Y-12868919D01*
X39336679Y-12902175D01*
X39475382Y-13008607D01*
X39475385Y-13008608D01*
X39475388Y-13008611D01*
X39674112Y-13123344D01*
X39674117Y-13123346D01*
X39674123Y-13123349D01*
X39755459Y-13157039D01*
X39886113Y-13211158D01*
X40107762Y-13270548D01*
X40335266Y-13300500D01*
X40335273Y-13300500D01*
X40564727Y-13300500D01*
X40564734Y-13300500D01*
X40792238Y-13270548D01*
X41013887Y-13211158D01*
X41225888Y-13123344D01*
X41424612Y-13008611D01*
X41606661Y-12868919D01*
X41606665Y-12868914D01*
X41606670Y-12868911D01*
X41768911Y-12706670D01*
X41768914Y-12706665D01*
X41768919Y-12706661D01*
X41908611Y-12524612D01*
X42023344Y-12325888D01*
X42111158Y-12113887D01*
X42170548Y-11892238D01*
X42200500Y-11664734D01*
X42200500Y-9435266D01*
X42170548Y-9207762D01*
X42111158Y-8986113D01*
X42059334Y-8860999D01*
X42023349Y-8774123D01*
X42023346Y-8774117D01*
X42023344Y-8774112D01*
X41908611Y-8575388D01*
X41908608Y-8575385D01*
X41908607Y-8575382D01*
X41777594Y-8404645D01*
X41768919Y-8393339D01*
X41768918Y-8393338D01*
X41768911Y-8393330D01*
X41606670Y-8231089D01*
X41606665Y-8231085D01*
X41606661Y-8231081D01*
X41560401Y-8195584D01*
X41424617Y-8091392D01*
X41225890Y-7976657D01*
X41225876Y-7976650D01*
X41013887Y-7888842D01*
X40792238Y-7829452D01*
X40743193Y-7822995D01*
X40564741Y-7799500D01*
X40564734Y-7799500D01*
X40335266Y-7799500D01*
X40335258Y-7799500D01*
X40118715Y-7828009D01*
X40107762Y-7829452D01*
X40014076Y-7854554D01*
X39886112Y-7888842D01*
X39674123Y-7976650D01*
X39674109Y-7976657D01*
X39475382Y-8091392D01*
X39290119Y-8233552D01*
X39289326Y-8232519D01*
X39230968Y-8259573D01*
X39161754Y-8250022D01*
X39108691Y-8204568D01*
X39089685Y-8153122D01*
X39086105Y-8125932D01*
X39070548Y-8007762D01*
X39011158Y-7786113D01*
X38932912Y-7597210D01*
X38923349Y-7574123D01*
X38923346Y-7574117D01*
X38923344Y-7574112D01*
X38808611Y-7375388D01*
X38808608Y-7375385D01*
X38808607Y-7375382D01*
X38668918Y-7193338D01*
X38668911Y-7193330D01*
X38506670Y-7031089D01*
X38506661Y-7031081D01*
X38324617Y-6891392D01*
X38125890Y-6776657D01*
X38125876Y-6776650D01*
X37913887Y-6688842D01*
X37906964Y-6686987D01*
X37692238Y-6629452D01*
X37654215Y-6624446D01*
X37464741Y-6599500D01*
X37464734Y-6599500D01*
X37235266Y-6599500D01*
X37235258Y-6599500D01*
X37018715Y-6628009D01*
X37007762Y-6629452D01*
X36914076Y-6654554D01*
X36786112Y-6688842D01*
X36574123Y-6776650D01*
X36574109Y-6776657D01*
X36375382Y-6891392D01*
X36193338Y-7031081D01*
X36031081Y-7193338D01*
X35891392Y-7375382D01*
X35776657Y-7574109D01*
X35776650Y-7574123D01*
X35688842Y-7786112D01*
X35668142Y-7863368D01*
X35637787Y-7976657D01*
X35629453Y-8007759D01*
X35629451Y-8007770D01*
X35599500Y-8235258D01*
X32170006Y-8235258D01*
X32198043Y-8186697D01*
X32298398Y-7944419D01*
X32366270Y-7691116D01*
X32400500Y-7431120D01*
X32400500Y-5668880D01*
X32366270Y-5408884D01*
X32336465Y-5297648D01*
X41609500Y-5297648D01*
X41609500Y-5502351D01*
X41641522Y-5704534D01*
X41704781Y-5899223D01*
X41725736Y-5940348D01*
X41781688Y-6050160D01*
X41797715Y-6081613D01*
X41918028Y-6247213D01*
X42062786Y-6391971D01*
X42208928Y-6498147D01*
X42228390Y-6512287D01*
X42344607Y-6571503D01*
X42410776Y-6605218D01*
X42410778Y-6605218D01*
X42410781Y-6605220D01*
X42515137Y-6639127D01*
X42605465Y-6668477D01*
X42706557Y-6684488D01*
X42807648Y-6700500D01*
X42807649Y-6700500D01*
X43012351Y-6700500D01*
X43012352Y-6700500D01*
X43214534Y-6668477D01*
X43409219Y-6605220D01*
X43591610Y-6512287D01*
X43704868Y-6430001D01*
X43757213Y-6391971D01*
X43757215Y-6391968D01*
X43757219Y-6391966D01*
X43901966Y-6247219D01*
X43910321Y-6235719D01*
X43935100Y-6201615D01*
X43990429Y-6158949D01*
X44035418Y-6150500D01*
X45294919Y-6150500D01*
X45352258Y-6139094D01*
X45383562Y-6132867D01*
X45453153Y-6139094D01*
X45495435Y-6166803D01*
X46116951Y-6788319D01*
X46150436Y-6849642D01*
X46145452Y-6919334D01*
X46103580Y-6975267D01*
X46038116Y-6999684D01*
X46029270Y-7000000D01*
X46000000Y-7000000D01*
X46000000Y-8201517D01*
X45981591Y-8190889D01*
X45828991Y-8150000D01*
X45671009Y-8150000D01*
X45518409Y-8190889D01*
X45500000Y-8201517D01*
X45500000Y-7000000D01*
X45125932Y-7000000D01*
X45033508Y-7006415D01*
X45033492Y-7006417D01*
X44817024Y-7057330D01*
X44817008Y-7057336D01*
X44613575Y-7147160D01*
X44430100Y-7272843D01*
X44272843Y-7430100D01*
X44147160Y-7613575D01*
X44057336Y-7817008D01*
X44057330Y-7817024D01*
X44006417Y-8033491D01*
X44006415Y-8033507D01*
X44000000Y-8125931D01*
X44000000Y-8500000D01*
X45201518Y-8500000D01*
X45190889Y-8518409D01*
X45150000Y-8671009D01*
X45150000Y-8828991D01*
X45190889Y-8981591D01*
X45201518Y-9000000D01*
X44000001Y-9000000D01*
X44000001Y-9374067D01*
X44006415Y-9466491D01*
X44006417Y-9466507D01*
X44057330Y-9682975D01*
X44057336Y-9682991D01*
X44147160Y-9886424D01*
X44272843Y-10069899D01*
X44430100Y-10227156D01*
X44613575Y-10352839D01*
X44817008Y-10442663D01*
X44817024Y-10442669D01*
X45033491Y-10493582D01*
X45033507Y-10493584D01*
X45125931Y-10499999D01*
X45499999Y-10499999D01*
X45500000Y-10499998D01*
X45500000Y-9298482D01*
X45518409Y-9309111D01*
X45671009Y-9350000D01*
X45828991Y-9350000D01*
X45981591Y-9309111D01*
X46000000Y-9298482D01*
X46000000Y-10499999D01*
X46374068Y-10499999D01*
X46466491Y-10493584D01*
X46466507Y-10493582D01*
X46682975Y-10442669D01*
X46682991Y-10442663D01*
X46886424Y-10352839D01*
X47069899Y-10227156D01*
X47227156Y-10069899D01*
X47352839Y-9886424D01*
X47442663Y-9682991D01*
X47442669Y-9682975D01*
X47493582Y-9466508D01*
X47493584Y-9466492D01*
X47500000Y-9374068D01*
X47500000Y-9000000D01*
X46298482Y-9000000D01*
X46309111Y-8981591D01*
X46350000Y-8828991D01*
X46350000Y-8671009D01*
X46309111Y-8518409D01*
X46298482Y-8500000D01*
X47499999Y-8500000D01*
X47499999Y-8125932D01*
X47493584Y-8033508D01*
X47493582Y-8033492D01*
X47442669Y-7817024D01*
X47442663Y-7817008D01*
X47352839Y-7613575D01*
X47278174Y-7504577D01*
X47256528Y-7438145D01*
X47274233Y-7370556D01*
X47325669Y-7323269D01*
X47380474Y-7310500D01*
X50619526Y-7310500D01*
X50686565Y-7330185D01*
X50732320Y-7382989D01*
X50742264Y-7452147D01*
X50721826Y-7504577D01*
X50647160Y-7613575D01*
X50557336Y-7817008D01*
X50557330Y-7817024D01*
X50506417Y-8033491D01*
X50506415Y-8033507D01*
X50500000Y-8125931D01*
X50500000Y-8500000D01*
X51701518Y-8500000D01*
X51690889Y-8518409D01*
X51650000Y-8671009D01*
X51650000Y-8828991D01*
X51690889Y-8981591D01*
X51701518Y-9000000D01*
X50500001Y-9000000D01*
X50500001Y-9374067D01*
X50506415Y-9466491D01*
X50506417Y-9466507D01*
X50557330Y-9682975D01*
X50557336Y-9682991D01*
X50647160Y-9886424D01*
X50772843Y-10069899D01*
X50930100Y-10227156D01*
X51113575Y-10352839D01*
X51317008Y-10442663D01*
X51317024Y-10442669D01*
X51533491Y-10493582D01*
X51533507Y-10493584D01*
X51625931Y-10499999D01*
X51999999Y-10499999D01*
X52000000Y-10499998D01*
X52000000Y-9298482D01*
X52018409Y-9309111D01*
X52171009Y-9350000D01*
X52328991Y-9350000D01*
X52481591Y-9309111D01*
X52500000Y-9298482D01*
X52500000Y-10499999D01*
X52874068Y-10499999D01*
X52966491Y-10493584D01*
X52966507Y-10493582D01*
X53182975Y-10442669D01*
X53182991Y-10442663D01*
X53386424Y-10352839D01*
X53569899Y-10227156D01*
X53727156Y-10069899D01*
X53852839Y-9886424D01*
X53942663Y-9682991D01*
X53942669Y-9682975D01*
X53993582Y-9466508D01*
X53993584Y-9466492D01*
X54000000Y-9374068D01*
X54000000Y-9000000D01*
X52798482Y-9000000D01*
X52809111Y-8981591D01*
X52850000Y-8828991D01*
X52850000Y-8671009D01*
X52809111Y-8518409D01*
X52798482Y-8500000D01*
X53999999Y-8500000D01*
X53999999Y-8125932D01*
X53999999Y-8125931D01*
X55000000Y-8125931D01*
X55000000Y-8500000D01*
X56201518Y-8500000D01*
X56190889Y-8518409D01*
X56150000Y-8671009D01*
X56150000Y-8828991D01*
X56190889Y-8981591D01*
X56201518Y-9000000D01*
X55000001Y-9000000D01*
X55000001Y-9374067D01*
X55006415Y-9466491D01*
X55006417Y-9466507D01*
X55057330Y-9682975D01*
X55057336Y-9682991D01*
X55147160Y-9886424D01*
X55272843Y-10069899D01*
X55430100Y-10227156D01*
X55613575Y-10352839D01*
X55817008Y-10442663D01*
X55817024Y-10442669D01*
X56033491Y-10493582D01*
X56033507Y-10493584D01*
X56125931Y-10499999D01*
X56499999Y-10499999D01*
X56500000Y-10499998D01*
X56500000Y-9298482D01*
X56518409Y-9309111D01*
X56671009Y-9350000D01*
X56828991Y-9350000D01*
X56981591Y-9309111D01*
X57000000Y-9298482D01*
X57000000Y-10499999D01*
X57374068Y-10499999D01*
X57466491Y-10493584D01*
X57466507Y-10493582D01*
X57682975Y-10442669D01*
X57682991Y-10442663D01*
X57886424Y-10352839D01*
X58069899Y-10227156D01*
X58227156Y-10069899D01*
X58352839Y-9886424D01*
X58442663Y-9682991D01*
X58442669Y-9682975D01*
X58493582Y-9466508D01*
X58493584Y-9466492D01*
X58500000Y-9374068D01*
X58500000Y-9000000D01*
X57298482Y-9000000D01*
X57309111Y-8981591D01*
X57350000Y-8828991D01*
X57350000Y-8671009D01*
X57309111Y-8518409D01*
X57298482Y-8500000D01*
X58499999Y-8500000D01*
X58499999Y-8125932D01*
X58499999Y-8125931D01*
X61500000Y-8125931D01*
X61500000Y-8500000D01*
X62701518Y-8500000D01*
X62690889Y-8518409D01*
X62650000Y-8671009D01*
X62650000Y-8828991D01*
X62690889Y-8981591D01*
X62701518Y-9000000D01*
X61500001Y-9000000D01*
X61500001Y-9374067D01*
X61506415Y-9466491D01*
X61506417Y-9466507D01*
X61557330Y-9682975D01*
X61557336Y-9682991D01*
X61647160Y-9886424D01*
X61772843Y-10069899D01*
X61930100Y-10227156D01*
X62113575Y-10352839D01*
X62317008Y-10442663D01*
X62317024Y-10442669D01*
X62533491Y-10493582D01*
X62533507Y-10493584D01*
X62625931Y-10499999D01*
X62999999Y-10499999D01*
X63000000Y-10499998D01*
X63000000Y-9298482D01*
X63018409Y-9309111D01*
X63171009Y-9350000D01*
X63328991Y-9350000D01*
X63481591Y-9309111D01*
X63500000Y-9298482D01*
X63500000Y-10499999D01*
X63874068Y-10499999D01*
X63966491Y-10493584D01*
X63966507Y-10493582D01*
X64182975Y-10442669D01*
X64182991Y-10442663D01*
X64386424Y-10352839D01*
X64569899Y-10227156D01*
X64727156Y-10069899D01*
X64852839Y-9886424D01*
X64942663Y-9682991D01*
X64942669Y-9682975D01*
X64993582Y-9466508D01*
X64993584Y-9466492D01*
X65000000Y-9374068D01*
X65000000Y-9000000D01*
X63798482Y-9000000D01*
X63809111Y-8981591D01*
X63850000Y-8828991D01*
X63850000Y-8671009D01*
X63809111Y-8518409D01*
X63798482Y-8500000D01*
X64999999Y-8500000D01*
X64999999Y-8125932D01*
X64993584Y-8033508D01*
X64993582Y-8033492D01*
X64942669Y-7817024D01*
X64942663Y-7817008D01*
X64852839Y-7613575D01*
X64727156Y-7430100D01*
X64569899Y-7272843D01*
X64386424Y-7147160D01*
X64182991Y-7057336D01*
X64182975Y-7057330D01*
X63966508Y-7006417D01*
X63966492Y-7006415D01*
X63874069Y-7000000D01*
X63500000Y-7000000D01*
X63500000Y-8201517D01*
X63481591Y-8190889D01*
X63328991Y-8150000D01*
X63171009Y-8150000D01*
X63018409Y-8190889D01*
X63000000Y-8201517D01*
X63000000Y-7000000D01*
X62625932Y-7000000D01*
X62533508Y-7006415D01*
X62533492Y-7006417D01*
X62317024Y-7057330D01*
X62317008Y-7057336D01*
X62113575Y-7147160D01*
X61930100Y-7272843D01*
X61772843Y-7430100D01*
X61647160Y-7613575D01*
X61557336Y-7817008D01*
X61557330Y-7817024D01*
X61506417Y-8033491D01*
X61506415Y-8033507D01*
X61500000Y-8125931D01*
X58499999Y-8125931D01*
X58493584Y-8033508D01*
X58493582Y-8033492D01*
X58442669Y-7817024D01*
X58442663Y-7817008D01*
X58352839Y-7613575D01*
X58227156Y-7430100D01*
X58069899Y-7272843D01*
X57886424Y-7147160D01*
X57682991Y-7057336D01*
X57682975Y-7057330D01*
X57487017Y-7011241D01*
X57426265Y-6976731D01*
X57393815Y-6914853D01*
X57399970Y-6845255D01*
X57418145Y-6813619D01*
X57422316Y-6808344D01*
X57514356Y-6659124D01*
X57514358Y-6659119D01*
X57569505Y-6492697D01*
X57569506Y-6492690D01*
X57579999Y-6389986D01*
X57580000Y-6389973D01*
X57580000Y-5965000D01*
X55280001Y-5965000D01*
X55280001Y-6389986D01*
X55290494Y-6492697D01*
X55345641Y-6659119D01*
X55345643Y-6659124D01*
X55437684Y-6808345D01*
X55561654Y-6932315D01*
X55591736Y-6950870D01*
X55638460Y-7002818D01*
X55649683Y-7071781D01*
X55621839Y-7135863D01*
X55596716Y-7158709D01*
X55430100Y-7272843D01*
X55272843Y-7430100D01*
X55147160Y-7613575D01*
X55057336Y-7817008D01*
X55057330Y-7817024D01*
X55006417Y-8033491D01*
X55006415Y-8033507D01*
X55000000Y-8125931D01*
X53999999Y-8125931D01*
X53993584Y-8033508D01*
X53993582Y-8033492D01*
X53942669Y-7817024D01*
X53942663Y-7817008D01*
X53852839Y-7613575D01*
X53727156Y-7430100D01*
X53599236Y-7302180D01*
X53565751Y-7240857D01*
X53570735Y-7171165D01*
X53612607Y-7115232D01*
X53678071Y-7090815D01*
X53686917Y-7090499D01*
X53780002Y-7090499D01*
X53780008Y-7090499D01*
X53882797Y-7079999D01*
X54049334Y-7024814D01*
X54198656Y-6932712D01*
X54322712Y-6808656D01*
X54414814Y-6659334D01*
X54469999Y-6492797D01*
X54480500Y-6390009D01*
X54480499Y-5040013D01*
X55280000Y-5040013D01*
X55280000Y-5465000D01*
X56180000Y-5465000D01*
X56180000Y-4340000D01*
X56680000Y-4340000D01*
X56680000Y-5465000D01*
X57579999Y-5465000D01*
X57579999Y-5040028D01*
X57579998Y-5040013D01*
X57569505Y-4937302D01*
X57514358Y-4770880D01*
X57514356Y-4770875D01*
X57422315Y-4621654D01*
X57298345Y-4497684D01*
X57149121Y-4405642D01*
X57147530Y-4404900D01*
X57146621Y-4404100D01*
X57142975Y-4401851D01*
X57143359Y-4401227D01*
X57095091Y-4358727D01*
X57075940Y-4291533D01*
X57096157Y-4224652D01*
X57149322Y-4179318D01*
X57160932Y-4174812D01*
X57301119Y-4128358D01*
X57301124Y-4128356D01*
X57450345Y-4036315D01*
X57574315Y-3912345D01*
X57587982Y-3890188D01*
X60324500Y-3890188D01*
X60324500Y-4109811D01*
X60324501Y-4109828D01*
X60353167Y-4327573D01*
X60410014Y-4539729D01*
X60484018Y-4718390D01*
X60494065Y-4742645D01*
X60603884Y-4932855D01*
X60603889Y-4932861D01*
X60603890Y-4932863D01*
X60737588Y-5107102D01*
X60737594Y-5107109D01*
X60892890Y-5262405D01*
X60892896Y-5262410D01*
X61067145Y-5396116D01*
X61257355Y-5505935D01*
X61358814Y-5547960D01*
X61460270Y-5589985D01*
X61460271Y-5589985D01*
X61460273Y-5589986D01*
X61672425Y-5646832D01*
X61890182Y-5675500D01*
X61890189Y-5675500D01*
X62109811Y-5675500D01*
X62109818Y-5675500D01*
X62327575Y-5646832D01*
X62539727Y-5589986D01*
X62742645Y-5505935D01*
X62932855Y-5396116D01*
X63107104Y-5262410D01*
X63262410Y-5107104D01*
X63396116Y-4932855D01*
X63505935Y-4742645D01*
X63589986Y-4539727D01*
X63646832Y-4327575D01*
X63675500Y-4109818D01*
X63675500Y-3890182D01*
X63646832Y-3672425D01*
X63589986Y-3460273D01*
X63505935Y-3257355D01*
X63396116Y-3067145D01*
X63262410Y-2892896D01*
X63262405Y-2892890D01*
X63107109Y-2737594D01*
X63107102Y-2737588D01*
X62932863Y-2603890D01*
X62932861Y-2603889D01*
X62932855Y-2603884D01*
X62742645Y-2494065D01*
X62742641Y-2494063D01*
X62539729Y-2410014D01*
X62327573Y-2353167D01*
X62109828Y-2324501D01*
X62109823Y-2324500D01*
X62109818Y-2324500D01*
X61890182Y-2324500D01*
X61890176Y-2324500D01*
X61890171Y-2324501D01*
X61672426Y-2353167D01*
X61460270Y-2410014D01*
X61257358Y-2494063D01*
X61257354Y-2494065D01*
X61067145Y-2603884D01*
X61067136Y-2603890D01*
X60892897Y-2737588D01*
X60892890Y-2737594D01*
X60737594Y-2892890D01*
X60737588Y-2892897D01*
X60603890Y-3067136D01*
X60603884Y-3067145D01*
X60494065Y-3257354D01*
X60494063Y-3257358D01*
X60410014Y-3460270D01*
X60353167Y-3672426D01*
X60324501Y-3890171D01*
X60324500Y-3890188D01*
X57587982Y-3890188D01*
X57630642Y-3821026D01*
X57666356Y-3763124D01*
X57666358Y-3763119D01*
X57721505Y-3596697D01*
X57721506Y-3596690D01*
X57731999Y-3493986D01*
X57732000Y-3493973D01*
X57732000Y-3044000D01*
X56819500Y-3044000D01*
X56819500Y-4216000D01*
X56799815Y-4283039D01*
X56747011Y-4328794D01*
X56695500Y-4340000D01*
X56680000Y-4340000D01*
X56180000Y-4340000D01*
X56180000Y-4317999D01*
X56199685Y-4250960D01*
X56252489Y-4205205D01*
X56267811Y-4199397D01*
X56319500Y-4183625D01*
X56319500Y-3044000D01*
X55407001Y-3044000D01*
X55407001Y-3493986D01*
X55417494Y-3596697D01*
X55472641Y-3763119D01*
X55472643Y-3763124D01*
X55564684Y-3912345D01*
X55688654Y-4036315D01*
X55837875Y-4128356D01*
X55844421Y-4131408D01*
X55843857Y-4132615D01*
X55894995Y-4168013D01*
X55921825Y-4232525D01*
X55909518Y-4301303D01*
X55861981Y-4352508D01*
X55837560Y-4363663D01*
X55710878Y-4405642D01*
X55710875Y-4405643D01*
X55561654Y-4497684D01*
X55437684Y-4621654D01*
X55345643Y-4770875D01*
X55345641Y-4770880D01*
X55290494Y-4937302D01*
X55290493Y-4937309D01*
X55280000Y-5040013D01*
X54480499Y-5040013D01*
X54480499Y-5039992D01*
X54472087Y-4957648D01*
X54469999Y-4937203D01*
X54469998Y-4937200D01*
X54426069Y-4804632D01*
X54414814Y-4770666D01*
X54322712Y-4621344D01*
X54198656Y-4497288D01*
X54062478Y-4413293D01*
X54049336Y-4405187D01*
X54042791Y-4402136D01*
X54043528Y-4400554D01*
X53993586Y-4365979D01*
X53966761Y-4301464D01*
X53979073Y-4232687D01*
X54026614Y-4181486D01*
X54051025Y-4170337D01*
X54176334Y-4128814D01*
X54325656Y-4036712D01*
X54449712Y-3912656D01*
X54541814Y-3763334D01*
X54596999Y-3596797D01*
X54607500Y-3494009D01*
X54607499Y-2094013D01*
X55407000Y-2094013D01*
X55407000Y-2544000D01*
X56319500Y-2544000D01*
X56819500Y-2544000D01*
X57731999Y-2544000D01*
X57731999Y-2094028D01*
X57731998Y-2094013D01*
X57721505Y-1991302D01*
X57666358Y-1824880D01*
X57666356Y-1824875D01*
X57574315Y-1675654D01*
X57450345Y-1551684D01*
X57301124Y-1459643D01*
X57301119Y-1459641D01*
X57134697Y-1404494D01*
X57134690Y-1404493D01*
X57031986Y-1394000D01*
X56819500Y-1394000D01*
X56819500Y-2544000D01*
X56319500Y-2544000D01*
X56319500Y-1394000D01*
X56107029Y-1394000D01*
X56107012Y-1394001D01*
X56004302Y-1404494D01*
X55837880Y-1459641D01*
X55837875Y-1459643D01*
X55688654Y-1551684D01*
X55564684Y-1675654D01*
X55472643Y-1824875D01*
X55472641Y-1824880D01*
X55417494Y-1991302D01*
X55417493Y-1991309D01*
X55407000Y-2094013D01*
X54607499Y-2094013D01*
X54607499Y-2093992D01*
X54596999Y-1991203D01*
X54541814Y-1824666D01*
X54449712Y-1675344D01*
X54325656Y-1551288D01*
X54176334Y-1459186D01*
X54009797Y-1404001D01*
X54009795Y-1404000D01*
X53907010Y-1393500D01*
X52981998Y-1393500D01*
X52981980Y-1393501D01*
X52879203Y-1404000D01*
X52879200Y-1404001D01*
X52712668Y-1459185D01*
X52712663Y-1459187D01*
X52563342Y-1551289D01*
X52439289Y-1675342D01*
X52347187Y-1824663D01*
X52347185Y-1824668D01*
X52347115Y-1824880D01*
X52302835Y-1958505D01*
X52263064Y-2015949D01*
X52198549Y-2042772D01*
X52185131Y-2043500D01*
X50142330Y-2043500D01*
X50075291Y-2023815D01*
X50029536Y-1971011D01*
X50019293Y-1929084D01*
X50018821Y-1929133D01*
X50007999Y-1823204D01*
X50007999Y-1823203D01*
X49952814Y-1656666D01*
X49928488Y-1617228D01*
X49860713Y-1507348D01*
X49860710Y-1507344D01*
X49736655Y-1383289D01*
X49736651Y-1383286D01*
X49587337Y-1291187D01*
X49587335Y-1291186D01*
X49504065Y-1263593D01*
X49420797Y-1236001D01*
X49420795Y-1236000D01*
X49318015Y-1225500D01*
X49318008Y-1225500D01*
X48202992Y-1225500D01*
X48202984Y-1225500D01*
X48100204Y-1236000D01*
X48100203Y-1236001D01*
X47933664Y-1291186D01*
X47933662Y-1291187D01*
X47784348Y-1383286D01*
X47784344Y-1383289D01*
X47660289Y-1507344D01*
X47660286Y-1507348D01*
X47568187Y-1656662D01*
X47568186Y-1656664D01*
X47513001Y-1823203D01*
X47513000Y-1823204D01*
X47502500Y-1925984D01*
X47502500Y-3916015D01*
X47513000Y-4018795D01*
X47513001Y-4018797D01*
X47529315Y-4068028D01*
X47568186Y-4185335D01*
X47568187Y-4185337D01*
X47660286Y-4334651D01*
X47660289Y-4334655D01*
X47784344Y-4458710D01*
X47784348Y-4458713D01*
X47933662Y-4550812D01*
X47933664Y-4550813D01*
X47933666Y-4550814D01*
X48100203Y-4605999D01*
X48202992Y-4616500D01*
X48202997Y-4616500D01*
X49318003Y-4616500D01*
X49318008Y-4616500D01*
X49420797Y-4605999D01*
X49587334Y-4550814D01*
X49651010Y-4511537D01*
X49718402Y-4493097D01*
X49785065Y-4514019D01*
X49829835Y-4567661D01*
X49838497Y-4636991D01*
X49834038Y-4655394D01*
X49801523Y-4755461D01*
X49801523Y-4755464D01*
X49769500Y-4957648D01*
X49769500Y-5162351D01*
X49801522Y-5364534D01*
X49864781Y-5559223D01*
X49887597Y-5604000D01*
X49895748Y-5619998D01*
X49900440Y-5629205D01*
X49913336Y-5697874D01*
X49887060Y-5762614D01*
X49829954Y-5802872D01*
X49789955Y-5809500D01*
X47312229Y-5809500D01*
X47245190Y-5789815D01*
X47224548Y-5773181D01*
X46292319Y-4840951D01*
X46277615Y-4814023D01*
X46261023Y-4788205D01*
X46260131Y-4782004D01*
X46258834Y-4779628D01*
X46256000Y-4753270D01*
X46256000Y-4665406D01*
X46275685Y-4598367D01*
X46327594Y-4553025D01*
X46332332Y-4550815D01*
X46332334Y-4550814D01*
X46481655Y-4458711D01*
X46605711Y-4334655D01*
X46697814Y-4185334D01*
X46752999Y-4018797D01*
X46763500Y-3916008D01*
X46763500Y-1925992D01*
X46752999Y-1823203D01*
X46697814Y-1656666D01*
X46673488Y-1617228D01*
X46605713Y-1507348D01*
X46605710Y-1507344D01*
X46481655Y-1383289D01*
X46481651Y-1383286D01*
X46332337Y-1291187D01*
X46332335Y-1291186D01*
X46249065Y-1263593D01*
X46165797Y-1236001D01*
X46165795Y-1236000D01*
X46063015Y-1225500D01*
X46063008Y-1225500D01*
X44947992Y-1225500D01*
X44947984Y-1225500D01*
X44845204Y-1236000D01*
X44845203Y-1236001D01*
X44678664Y-1291186D01*
X44678662Y-1291187D01*
X44529348Y-1383286D01*
X44529344Y-1383289D01*
X44405289Y-1507344D01*
X44405286Y-1507348D01*
X44313187Y-1656662D01*
X44313186Y-1656664D01*
X44258001Y-1823203D01*
X44258000Y-1823204D01*
X44247500Y-1925984D01*
X44247500Y-3916015D01*
X44258000Y-4018795D01*
X44258001Y-4018797D01*
X44274315Y-4068028D01*
X44313186Y-4185335D01*
X44313187Y-4185337D01*
X44405286Y-4334651D01*
X44405289Y-4334655D01*
X44508453Y-4437819D01*
X44541938Y-4499142D01*
X44536954Y-4568834D01*
X44495082Y-4624767D01*
X44429618Y-4649184D01*
X44420772Y-4649500D01*
X44035418Y-4649500D01*
X43968379Y-4629815D01*
X43935100Y-4598385D01*
X43901971Y-4552787D01*
X43901967Y-4552782D01*
X43757213Y-4408028D01*
X43591613Y-4287715D01*
X43591612Y-4287714D01*
X43591610Y-4287713D01*
X43523046Y-4252778D01*
X43409223Y-4194781D01*
X43214534Y-4131522D01*
X43032082Y-4102625D01*
X43012352Y-4099500D01*
X42807648Y-4099500D01*
X42787918Y-4102625D01*
X42605465Y-4131522D01*
X42410776Y-4194781D01*
X42228386Y-4287715D01*
X42062786Y-4408028D01*
X41918028Y-4552786D01*
X41797715Y-4718386D01*
X41704781Y-4900776D01*
X41641522Y-5095465D01*
X41609500Y-5297648D01*
X32336465Y-5297648D01*
X32298398Y-5155581D01*
X32289073Y-5133068D01*
X32198046Y-4913309D01*
X32198041Y-4913299D01*
X32066924Y-4686196D01*
X31932902Y-4511538D01*
X31907282Y-4478149D01*
X31907281Y-4478148D01*
X31907274Y-4478140D01*
X31721860Y-4292726D01*
X31721851Y-4292718D01*
X31513803Y-4133075D01*
X31286700Y-4001958D01*
X31286690Y-4001953D01*
X31044428Y-3901605D01*
X31044421Y-3901603D01*
X31044419Y-3901602D01*
X30791116Y-3833730D01*
X30733339Y-3826123D01*
X30531127Y-3799500D01*
X30531120Y-3799500D01*
X30268880Y-3799500D01*
X30268872Y-3799500D01*
X30037772Y-3829926D01*
X30008884Y-3833730D01*
X29834339Y-3880499D01*
X29755581Y-3901602D01*
X29755571Y-3901605D01*
X29513309Y-4001953D01*
X29513299Y-4001958D01*
X29286196Y-4133075D01*
X29078148Y-4292718D01*
X28889847Y-4481019D01*
X28889202Y-4480374D01*
X28833723Y-4515563D01*
X28763854Y-4515145D01*
X28705303Y-4477021D01*
X28676658Y-4413293D01*
X28675499Y-4396379D01*
X28675499Y-4029998D01*
X28675498Y-4029981D01*
X28664999Y-3927203D01*
X28664998Y-3927200D01*
X28660179Y-3912656D01*
X28609814Y-3760666D01*
X28517712Y-3611344D01*
X28393656Y-3487288D01*
X28388549Y-3482181D01*
X28390245Y-3480484D01*
X28356476Y-3432801D01*
X28353332Y-3363002D01*
X28355818Y-3354266D01*
X28378477Y-3284534D01*
X28410500Y-3082352D01*
X28410500Y-2877648D01*
X28378477Y-2675466D01*
X28355969Y-2606195D01*
X28335761Y-2544000D01*
X28315220Y-2480781D01*
X28222287Y-2298390D01*
X28214556Y-2287749D01*
X28101971Y-2132786D01*
X27957213Y-1988028D01*
X27791613Y-1867715D01*
X27791612Y-1867714D01*
X27791610Y-1867713D01*
X27707120Y-1824663D01*
X27609223Y-1774781D01*
X27414534Y-1711522D01*
X27239995Y-1683878D01*
X27212352Y-1679500D01*
X27007648Y-1679500D01*
X26983329Y-1683351D01*
X26805465Y-1711522D01*
X26610776Y-1774781D01*
X26428386Y-1867715D01*
X26262786Y-1988028D01*
X26118030Y-2132784D01*
X26112819Y-2139958D01*
X26057489Y-2182625D01*
X25987876Y-2188604D01*
X25926081Y-2155999D01*
X25891723Y-2095161D01*
X25888500Y-2067074D01*
X25888500Y-1417997D01*
X25888499Y-1417984D01*
X25887070Y-1404001D01*
X25877999Y-1315203D01*
X25822814Y-1148666D01*
X25730711Y-999345D01*
X25606655Y-875289D01*
X25606651Y-875286D01*
X25457337Y-783187D01*
X25457335Y-783186D01*
X25374065Y-755593D01*
X25290797Y-728001D01*
X25290795Y-728000D01*
X25188015Y-717500D01*
X25188008Y-717500D01*
X24072992Y-717500D01*
X24072984Y-717500D01*
X23970204Y-728000D01*
X23970203Y-728001D01*
X23803664Y-783186D01*
X23803662Y-783187D01*
X23654348Y-875286D01*
X23654344Y-875289D01*
X23530289Y-999344D01*
X23530286Y-999348D01*
X23438187Y-1148662D01*
X23438186Y-1148664D01*
X23383001Y-1315203D01*
X23383000Y-1315204D01*
X23372500Y-1417984D01*
X22633499Y-1417984D01*
X22622999Y-1315203D01*
X22567814Y-1148666D01*
X22475711Y-999345D01*
X22351655Y-875289D01*
X22351651Y-875286D01*
X22202337Y-783187D01*
X22202335Y-783186D01*
X22119065Y-755593D01*
X22035797Y-728001D01*
X22035795Y-728000D01*
X21933015Y-717500D01*
X21933008Y-717500D01*
X20817992Y-717500D01*
X20817984Y-717500D01*
X20715204Y-728000D01*
X20715203Y-728001D01*
X20548664Y-783186D01*
X20548662Y-783187D01*
X20399348Y-875286D01*
X20399344Y-875289D01*
X20275289Y-999344D01*
X20275286Y-999348D01*
X20183187Y-1148662D01*
X20183186Y-1148664D01*
X20128001Y-1315203D01*
X20128000Y-1315204D01*
X20117500Y-1417984D01*
X20117500Y-3408015D01*
X20128000Y-3510795D01*
X20128001Y-3510797D01*
X20144648Y-3561033D01*
X20183186Y-3677335D01*
X20183187Y-3677337D01*
X20275286Y-3826651D01*
X20275289Y-3826655D01*
X20399344Y-3950710D01*
X20399348Y-3950713D01*
X20548662Y-4042812D01*
X20548663Y-4042812D01*
X20548666Y-4042814D01*
X20634302Y-4071191D01*
X20699268Y-4092719D01*
X20703847Y-4095889D01*
X20709378Y-4096566D01*
X20732263Y-4115563D01*
X20756713Y-4132492D01*
X20759982Y-4138574D01*
X20763138Y-4141194D01*
X20769132Y-4155598D01*
X20778476Y-4172982D01*
X20780546Y-4179518D01*
X20795842Y-4256413D01*
X20834347Y-4349374D01*
X20835959Y-4354461D01*
X20836589Y-4384272D01*
X20839777Y-4413921D01*
X20837350Y-4420260D01*
X20837436Y-4424315D01*
X20833076Y-4431424D01*
X20823287Y-4456998D01*
X20790187Y-4510663D01*
X20790186Y-4510665D01*
X20766099Y-4583356D01*
X20735001Y-4677203D01*
X20735001Y-4677204D01*
X20735000Y-4677204D01*
X20724500Y-4779983D01*
X20724500Y-6119108D01*
X20704815Y-6186147D01*
X20652011Y-6231902D01*
X20582853Y-6241846D01*
X20541948Y-6228414D01*
X20435521Y-6171404D01*
X20223532Y-6104204D01*
X20014476Y-6078536D01*
X19950335Y-6050828D01*
X19911357Y-5992841D01*
X19906512Y-5940353D01*
X19923401Y-5802807D01*
X19909477Y-5580757D01*
X19854988Y-5365048D01*
X19761790Y-5163023D01*
X19709915Y-5086200D01*
X19709912Y-5086196D01*
X18941463Y-4102625D01*
X18941452Y-4102612D01*
X18879469Y-4033702D01*
X18879467Y-4033700D01*
X18879465Y-4033698D01*
X18705988Y-3894394D01*
X18705984Y-3894392D01*
X18705982Y-3894390D01*
X18509869Y-3789339D01*
X18297788Y-3722110D01*
X18187369Y-3708553D01*
X18076956Y-3694996D01*
X18076952Y-3694996D01*
X18076951Y-3694996D01*
X17854904Y-3708920D01*
X17639195Y-3763409D01*
X17437174Y-3856605D01*
X17437168Y-3856609D01*
X17360345Y-3908484D01*
X16376774Y-4676933D01*
X16376761Y-4676944D01*
X16307851Y-4738927D01*
X16168539Y-4912414D01*
X16063488Y-5108527D01*
X16063488Y-5108528D01*
X15996259Y-5320608D01*
X15982062Y-5436239D01*
X15973505Y-5505936D01*
X15969145Y-5541445D01*
X15983069Y-5763492D01*
X16037558Y-5979201D01*
X16104934Y-6125252D01*
X16115142Y-6194372D01*
X16086361Y-6258039D01*
X16080019Y-6264876D01*
X14103186Y-8241709D01*
X14041863Y-8275194D01*
X13972171Y-8270210D01*
X13917792Y-8230371D01*
X13819386Y-8104417D01*
X13819377Y-8104408D01*
X13819374Y-8104403D01*
X13757399Y-8035502D01*
X13757397Y-8035500D01*
X13757395Y-8035498D01*
X13583918Y-7896194D01*
X13583914Y-7896192D01*
X13583912Y-7896190D01*
X13387799Y-7791139D01*
X13175718Y-7723910D01*
X13065299Y-7710353D01*
X12954886Y-7696796D01*
X12954882Y-7696796D01*
X12954881Y-7696796D01*
X12732834Y-7710720D01*
X12517125Y-7765209D01*
X12315104Y-7858405D01*
X12315098Y-7858409D01*
X12238275Y-7910284D01*
X11254704Y-8678733D01*
X11254691Y-8678744D01*
X11185781Y-8740727D01*
X11046469Y-8914214D01*
X10941418Y-9110327D01*
X10941418Y-9110328D01*
X10874189Y-9322408D01*
X10847075Y-9543245D01*
X10860999Y-9765292D01*
X10915488Y-9981001D01*
X11008684Y-10183022D01*
X11008688Y-10183028D01*
X11060563Y-10259851D01*
X11651449Y-11016151D01*
X11677211Y-11081098D01*
X11663771Y-11149663D01*
X11615395Y-11200076D01*
X11584106Y-11212716D01*
X11367021Y-11267553D01*
X11165076Y-11360713D01*
X11088276Y-11412572D01*
X11088269Y-11412577D01*
X10793519Y-11642861D01*
X10793519Y-11642862D01*
X11534962Y-12591866D01*
X11442333Y-12616686D01*
X11305516Y-12695678D01*
X11193805Y-12807389D01*
X11140699Y-12899369D01*
X10399513Y-11950693D01*
X10104749Y-12180989D01*
X10035856Y-12242955D01*
X9896614Y-12416359D01*
X9791601Y-12612399D01*
X9724401Y-12824388D01*
X9697298Y-13045134D01*
X400500Y-13045134D01*
X400500Y-10693524D01*
X2148948Y-10693524D01*
X2162872Y-10915571D01*
X2217361Y-11131280D01*
X2310557Y-11333301D01*
X2310561Y-11333307D01*
X2362436Y-11410130D01*
X3130885Y-12393701D01*
X3130896Y-12393714D01*
X3192879Y-12462624D01*
X3192880Y-12462625D01*
X3192884Y-12462629D01*
X3366361Y-12601933D01*
X3366364Y-12601935D01*
X3366366Y-12601936D01*
X3561887Y-12706670D01*
X3562481Y-12706988D01*
X3623699Y-12726393D01*
X3774560Y-12774216D01*
X3774564Y-12774216D01*
X3774566Y-12774217D01*
X3995393Y-12801331D01*
X4217443Y-12787407D01*
X4433152Y-12732918D01*
X4635177Y-12639720D01*
X4712000Y-12587845D01*
X5695583Y-11819386D01*
X5764502Y-11757395D01*
X5903806Y-11583918D01*
X6008861Y-11387798D01*
X6054624Y-11243431D01*
X6076089Y-11175718D01*
X6077448Y-11164652D01*
X6103204Y-10954886D01*
X6089280Y-10732836D01*
X6034791Y-10517127D01*
X5941593Y-10315102D01*
X5889718Y-10238279D01*
X5706093Y-10003249D01*
X5266305Y-9440346D01*
X5121266Y-9254704D01*
X5121255Y-9254691D01*
X5059272Y-9185781D01*
X5059270Y-9185779D01*
X5059268Y-9185777D01*
X4885791Y-9046473D01*
X4885787Y-9046471D01*
X4885785Y-9046469D01*
X4689672Y-8941418D01*
X4477591Y-8874189D01*
X4367172Y-8860632D01*
X4256759Y-8847075D01*
X4256755Y-8847075D01*
X4256754Y-8847075D01*
X4034707Y-8860999D01*
X3818998Y-8915488D01*
X3616977Y-9008684D01*
X3616971Y-9008688D01*
X3540148Y-9060563D01*
X2556577Y-9829012D01*
X2556564Y-9829023D01*
X2487654Y-9891006D01*
X2348342Y-10064493D01*
X2243291Y-10260606D01*
X2243291Y-10260607D01*
X2176062Y-10472687D01*
X2172709Y-10499998D01*
X2149106Y-10692240D01*
X2148948Y-10693524D01*
X400500Y-10693524D01*
X400500Y-7923064D01*
X5695498Y-7923064D01*
X5709416Y-8145017D01*
X5763882Y-8360633D01*
X5857040Y-8562574D01*
X5908899Y-8639374D01*
X5908904Y-8639381D01*
X6139188Y-8934130D01*
X6139189Y-8934130D01*
X7088192Y-8192687D01*
X7113013Y-8285318D01*
X7192005Y-8422135D01*
X7303716Y-8533846D01*
X7395694Y-8586950D01*
X6447020Y-9328135D01*
X6447020Y-9328136D01*
X6677305Y-9622887D01*
X6677314Y-9622899D01*
X6739282Y-9691795D01*
X6912686Y-9831036D01*
X7108726Y-9936049D01*
X7320715Y-10003249D01*
X7541461Y-10030352D01*
X7763414Y-10016434D01*
X7979030Y-9961968D01*
X8180974Y-9868808D01*
X8257762Y-9816959D01*
X8552527Y-9586661D01*
X8552527Y-9586660D01*
X7811085Y-8637657D01*
X7903715Y-8612838D01*
X8040532Y-8533846D01*
X8152243Y-8422135D01*
X8205347Y-8330155D01*
X8946532Y-9278829D01*
X8946533Y-9278829D01*
X9241284Y-9048545D01*
X9241296Y-9048536D01*
X9310192Y-8986568D01*
X9449433Y-8813164D01*
X9554446Y-8617124D01*
X9621646Y-8405134D01*
X9647375Y-8195584D01*
X9675083Y-8131443D01*
X9733069Y-8092464D01*
X9785563Y-8087619D01*
X9923064Y-8104501D01*
X10145017Y-8090583D01*
X10360633Y-8036117D01*
X10562577Y-7942957D01*
X10639365Y-7891108D01*
X10934130Y-7660810D01*
X10934130Y-7660809D01*
X10192688Y-6711806D01*
X10285318Y-6686987D01*
X10422135Y-6607995D01*
X10533846Y-6496284D01*
X10586950Y-6404304D01*
X11328135Y-7352978D01*
X11328136Y-7352978D01*
X11622887Y-7122694D01*
X11622899Y-7122685D01*
X11691795Y-7060717D01*
X11831036Y-6887313D01*
X11936049Y-6691273D01*
X12003249Y-6479284D01*
X12030352Y-6258538D01*
X12016434Y-6036585D01*
X11961968Y-5820969D01*
X11868810Y-5619028D01*
X11816951Y-5542228D01*
X11816946Y-5542221D01*
X11586661Y-5247471D01*
X11586660Y-5247471D01*
X10637657Y-5988912D01*
X10612838Y-5896285D01*
X10533846Y-5759468D01*
X10422135Y-5647757D01*
X10330153Y-5594651D01*
X11278829Y-4853466D01*
X11278829Y-4853465D01*
X11048545Y-4558715D01*
X11048536Y-4558703D01*
X10986568Y-4489807D01*
X10813164Y-4350566D01*
X10617124Y-4245553D01*
X10405135Y-4178353D01*
X10184389Y-4151250D01*
X9962436Y-4165168D01*
X9746820Y-4219634D01*
X9544879Y-4312792D01*
X9468079Y-4364651D01*
X9468072Y-4364656D01*
X9173322Y-4594940D01*
X9173322Y-4594941D01*
X9914765Y-5543945D01*
X9822136Y-5568765D01*
X9685319Y-5647757D01*
X9573608Y-5759468D01*
X9520502Y-5851448D01*
X8779316Y-4902772D01*
X8484552Y-5133068D01*
X8415659Y-5195034D01*
X8276417Y-5368438D01*
X8171404Y-5564478D01*
X8104204Y-5776467D01*
X8078475Y-5986019D01*
X8050767Y-6050160D01*
X7992780Y-6089138D01*
X7940288Y-6093983D01*
X7802787Y-6077101D01*
X7580833Y-6091019D01*
X7365217Y-6145485D01*
X7163276Y-6238643D01*
X7086476Y-6290502D01*
X7086469Y-6290507D01*
X6791719Y-6520791D01*
X6791719Y-6520792D01*
X7533162Y-7469796D01*
X7440533Y-7494616D01*
X7303716Y-7573608D01*
X7192005Y-7685319D01*
X7138899Y-7777299D01*
X6397713Y-6828623D01*
X6102949Y-7058919D01*
X6034056Y-7120885D01*
X5894814Y-7294289D01*
X5789801Y-7490329D01*
X5722601Y-7702318D01*
X5695498Y-7923064D01*
X400500Y-7923064D01*
X400500Y-3890188D01*
X2324500Y-3890188D01*
X2324500Y-4109811D01*
X2324501Y-4109828D01*
X2353167Y-4327573D01*
X2410014Y-4539729D01*
X2484018Y-4718390D01*
X2494065Y-4742645D01*
X2603884Y-4932855D01*
X2603889Y-4932861D01*
X2603890Y-4932863D01*
X2737588Y-5107102D01*
X2737594Y-5107109D01*
X2892890Y-5262405D01*
X2892896Y-5262410D01*
X3067145Y-5396116D01*
X3257355Y-5505935D01*
X3358814Y-5547960D01*
X3460270Y-5589985D01*
X3460271Y-5589985D01*
X3460273Y-5589986D01*
X3672425Y-5646832D01*
X3890182Y-5675500D01*
X3890189Y-5675500D01*
X4109811Y-5675500D01*
X4109818Y-5675500D01*
X4327575Y-5646832D01*
X4539727Y-5589986D01*
X4742645Y-5505935D01*
X4932855Y-5396116D01*
X5107104Y-5262410D01*
X5262410Y-5107104D01*
X5396116Y-4932855D01*
X5505935Y-4742645D01*
X5552671Y-4629815D01*
X5571915Y-4583356D01*
X5571915Y-4583354D01*
X5574917Y-4576108D01*
X5589986Y-4539727D01*
X5646832Y-4327575D01*
X5675500Y-4109818D01*
X5675500Y-3890182D01*
X5646832Y-3672425D01*
X5592176Y-3468446D01*
X5592176Y-3468444D01*
X5589986Y-3460273D01*
X5546061Y-3354228D01*
X5505935Y-3257355D01*
X5396116Y-3067145D01*
X5262410Y-2892896D01*
X5262405Y-2892890D01*
X5107109Y-2737594D01*
X5107102Y-2737588D01*
X4932863Y-2603890D01*
X4932861Y-2603889D01*
X4932855Y-2603884D01*
X4742645Y-2494065D01*
X4742641Y-2494063D01*
X4539729Y-2410014D01*
X4327573Y-2353167D01*
X4109828Y-2324501D01*
X4109823Y-2324500D01*
X4109818Y-2324500D01*
X3890182Y-2324500D01*
X3890176Y-2324500D01*
X3890171Y-2324501D01*
X3672426Y-2353167D01*
X3460270Y-2410014D01*
X3257358Y-2494063D01*
X3257354Y-2494065D01*
X3067145Y-2603884D01*
X3067136Y-2603890D01*
X2892897Y-2737588D01*
X2892890Y-2737594D01*
X2737594Y-2892890D01*
X2737588Y-2892897D01*
X2603890Y-3067136D01*
X2603884Y-3067145D01*
X2494065Y-3257354D01*
X2494063Y-3257358D01*
X2410014Y-3460270D01*
X2353167Y-3672426D01*
X2324501Y-3890171D01*
X2324500Y-3890188D01*
X400500Y-3890188D01*
X400500Y-524500D01*
X420185Y-457461D01*
X472989Y-411706D01*
X524500Y-400500D01*
X14181839Y-400500D01*
X14248878Y-420185D01*
G37*
%TD.AperFunction*%
%TA.AperFunction,Conductor*%
G36*
X17178304Y-19646708D02*
G01*
X17193521Y-19653584D01*
X17372819Y-19749628D01*
X17382678Y-19754909D01*
X17439254Y-19772843D01*
X17594757Y-19822137D01*
X17594761Y-19822137D01*
X17594763Y-19822138D01*
X17815590Y-19849252D01*
X17921118Y-19842634D01*
X17989256Y-19858084D01*
X18038226Y-19907920D01*
X18052479Y-19976321D01*
X18027489Y-20041569D01*
X18016558Y-20054072D01*
X15987048Y-22083583D01*
X15967335Y-22113086D01*
X15947753Y-22142395D01*
X15904919Y-22206499D01*
X15904912Y-22206511D01*
X15848343Y-22343082D01*
X15848340Y-22343092D01*
X15819500Y-22488079D01*
X15819500Y-23693767D01*
X15799815Y-23760806D01*
X15776036Y-23788053D01*
X15773080Y-23790577D01*
X15650585Y-23913073D01*
X15548768Y-24053211D01*
X15470128Y-24207552D01*
X15416597Y-24372302D01*
X15389500Y-24543389D01*
X15389500Y-26116610D01*
X15415934Y-26283512D01*
X15416598Y-26287701D01*
X15470127Y-26452445D01*
X15548768Y-26606788D01*
X15650586Y-26746928D01*
X15650588Y-26746930D01*
X15678852Y-26775194D01*
X15712337Y-26836517D01*
X15707353Y-26906209D01*
X15665481Y-26962142D01*
X15664061Y-26963190D01*
X15643107Y-26978414D01*
X15498417Y-27123104D01*
X15498417Y-27123105D01*
X15378140Y-27288650D01*
X15285244Y-27470968D01*
X15233047Y-27631614D01*
X15193609Y-27689289D01*
X15129250Y-27716487D01*
X15060404Y-27704572D01*
X15008928Y-27657328D01*
X14997186Y-27631615D01*
X14969873Y-27547555D01*
X14891232Y-27393212D01*
X14789414Y-27253072D01*
X14666928Y-27130586D01*
X14625265Y-27100316D01*
X14582602Y-27044988D01*
X14576623Y-26975374D01*
X14609229Y-26913579D01*
X14625266Y-26899683D01*
X14666928Y-26869414D01*
X14789414Y-26746928D01*
X14891232Y-26606788D01*
X14969873Y-26452445D01*
X15023402Y-26287701D01*
X15050500Y-26116611D01*
X15050500Y-24543389D01*
X15023402Y-24372299D01*
X14969873Y-24207555D01*
X14891232Y-24053212D01*
X14789414Y-23913072D01*
X14666928Y-23790586D01*
X14526788Y-23688768D01*
X14372445Y-23610127D01*
X14207701Y-23556598D01*
X14207699Y-23556597D01*
X14207698Y-23556597D01*
X14076271Y-23535781D01*
X14036611Y-23529500D01*
X13908568Y-23529500D01*
X13841529Y-23509815D01*
X13795774Y-23457011D01*
X13785830Y-23387853D01*
X13814855Y-23324297D01*
X13832226Y-23307787D01*
X14393701Y-22869114D01*
X14393700Y-22869114D01*
X14393710Y-22869107D01*
X14462629Y-22807116D01*
X14601933Y-22633639D01*
X14706988Y-22437519D01*
X14774217Y-22225434D01*
X14801331Y-22004607D01*
X14799910Y-21981955D01*
X14815359Y-21913816D01*
X14835982Y-21886516D01*
X17047291Y-19675207D01*
X17108612Y-19641724D01*
X17178304Y-19646708D01*
G37*
%TD.AperFunction*%
%TA.AperFunction,Conductor*%
G36*
X49067385Y-19969624D02*
G01*
X49103038Y-20029713D01*
X49100545Y-20099538D01*
X49070572Y-20148060D01*
X48927044Y-20291588D01*
X48894992Y-20339561D01*
X48894990Y-20339564D01*
X48844919Y-20414499D01*
X48844912Y-20414511D01*
X48788343Y-20551082D01*
X48788340Y-20551092D01*
X48759500Y-20696079D01*
X48759500Y-23772796D01*
X48739815Y-23839835D01*
X48723181Y-23860477D01*
X48670588Y-23913069D01*
X48670588Y-23913070D01*
X48670586Y-23913072D01*
X48663891Y-23922287D01*
X48568768Y-24053211D01*
X48490129Y-24207549D01*
X48462814Y-24291615D01*
X48423375Y-24349290D01*
X48359016Y-24376487D01*
X48290170Y-24364572D01*
X48238695Y-24317327D01*
X48226952Y-24291613D01*
X48174755Y-24130970D01*
X48081859Y-23948650D01*
X47961582Y-23783105D01*
X47961582Y-23783104D01*
X47816895Y-23638417D01*
X47651349Y-23518140D01*
X47469029Y-23425244D01*
X47274413Y-23362009D01*
X47220000Y-23353390D01*
X47220000Y-25206000D01*
X47200315Y-25273039D01*
X47191599Y-25280590D01*
X47162993Y-25264075D01*
X47035826Y-25230000D01*
X46904174Y-25230000D01*
X46777007Y-25264075D01*
X46750269Y-25279511D01*
X46731206Y-25257511D01*
X46720000Y-25206000D01*
X46720000Y-23353390D01*
X46665586Y-23362009D01*
X46470970Y-23425244D01*
X46288650Y-23518140D01*
X46123105Y-23638417D01*
X46123104Y-23638417D01*
X45978417Y-23783104D01*
X45978417Y-23783105D01*
X45858140Y-23948650D01*
X45765244Y-24130968D01*
X45713047Y-24291614D01*
X45673609Y-24349289D01*
X45609250Y-24376487D01*
X45540404Y-24364572D01*
X45488928Y-24317328D01*
X45477186Y-24291615D01*
X45449873Y-24207555D01*
X45371232Y-24053212D01*
X45269414Y-23913072D01*
X45146928Y-23790586D01*
X45006788Y-23688768D01*
X44852445Y-23610127D01*
X44687701Y-23556598D01*
X44687699Y-23556597D01*
X44687698Y-23556597D01*
X44556271Y-23535781D01*
X44516611Y-23529500D01*
X44343389Y-23529500D01*
X44303728Y-23535781D01*
X44172302Y-23556597D01*
X44007552Y-23610128D01*
X43853211Y-23688768D01*
X43828291Y-23706874D01*
X43713072Y-23790586D01*
X43713070Y-23790588D01*
X43713069Y-23790588D01*
X43590588Y-23913069D01*
X43590588Y-23913070D01*
X43590586Y-23913072D01*
X43583891Y-23922287D01*
X43488768Y-24053211D01*
X43410128Y-24207552D01*
X43356597Y-24372302D01*
X43329500Y-24543389D01*
X43329500Y-26116610D01*
X43355934Y-26283512D01*
X43356598Y-26287701D01*
X43410127Y-26452445D01*
X43488768Y-26606788D01*
X43590586Y-26746928D01*
X43590588Y-26746930D01*
X43713072Y-26869414D01*
X43754733Y-26899683D01*
X43797398Y-26955013D01*
X43803376Y-27024627D01*
X43770769Y-27086421D01*
X43754733Y-27100317D01*
X43713072Y-27130585D01*
X43590588Y-27253069D01*
X43590588Y-27253070D01*
X43590586Y-27253072D01*
X43564737Y-27288650D01*
X43488768Y-27393211D01*
X43410129Y-27547549D01*
X43382814Y-27631615D01*
X43343375Y-27689290D01*
X43279016Y-27716487D01*
X43210170Y-27704572D01*
X43158695Y-27657327D01*
X43146952Y-27631613D01*
X43094755Y-27470970D01*
X43001859Y-27288650D01*
X42881582Y-27123105D01*
X42881582Y-27123104D01*
X42736895Y-26978417D01*
X42736889Y-26978412D01*
X42715940Y-26963191D01*
X42673276Y-26907860D01*
X42667298Y-26838247D01*
X42699906Y-26776453D01*
X42701017Y-26775324D01*
X42729414Y-26746928D01*
X42831232Y-26606788D01*
X42909873Y-26452445D01*
X42963402Y-26287701D01*
X42990500Y-26116611D01*
X42990500Y-24543389D01*
X42963402Y-24372299D01*
X42909873Y-24207555D01*
X42831232Y-24053212D01*
X42799609Y-24009687D01*
X42776129Y-23943880D01*
X42791954Y-23875826D01*
X42812242Y-23849124D01*
X44052951Y-22608416D01*
X44072926Y-22578520D01*
X44126537Y-22533715D01*
X44195862Y-22525006D01*
X44258890Y-22555160D01*
X44271429Y-22568196D01*
X44272843Y-22569899D01*
X44430103Y-22727158D01*
X44613575Y-22852839D01*
X44817008Y-22942663D01*
X44817024Y-22942669D01*
X45033491Y-22993582D01*
X45033507Y-22993584D01*
X45125931Y-22999999D01*
X45499999Y-22999999D01*
X45500000Y-22999998D01*
X45500000Y-21798482D01*
X45518409Y-21809111D01*
X45671009Y-21850000D01*
X45828991Y-21850000D01*
X45981591Y-21809111D01*
X46000000Y-21798482D01*
X46000000Y-22999999D01*
X46374068Y-22999999D01*
X46466491Y-22993584D01*
X46466507Y-22993582D01*
X46682975Y-22942669D01*
X46682991Y-22942663D01*
X46886424Y-22852839D01*
X47069899Y-22727156D01*
X47227156Y-22569899D01*
X47352839Y-22386424D01*
X47442663Y-22182991D01*
X47442669Y-22182975D01*
X47493582Y-21966508D01*
X47493584Y-21966492D01*
X47500000Y-21874068D01*
X47500000Y-21500000D01*
X46298482Y-21500000D01*
X46309111Y-21481591D01*
X46350000Y-21328991D01*
X46350000Y-21171009D01*
X46309111Y-21018409D01*
X46298482Y-21000000D01*
X47499999Y-21000000D01*
X47499999Y-20625932D01*
X47493584Y-20533508D01*
X47493582Y-20533492D01*
X47442669Y-20317024D01*
X47442666Y-20317017D01*
X47384193Y-20184586D01*
X47375122Y-20115308D01*
X47404946Y-20052123D01*
X47464195Y-20015092D01*
X47497628Y-20010500D01*
X48703920Y-20010500D01*
X48801462Y-19991096D01*
X48848913Y-19981658D01*
X48935439Y-19945817D01*
X49004906Y-19938349D01*
X49067385Y-19969624D01*
G37*
%TD.AperFunction*%
%TD*%
%TA.AperFunction,NonConductor*%
G36*
X54205703Y-16677517D02*
G01*
X54212181Y-16683549D01*
X54861586Y-17332954D01*
X54886212Y-17349408D01*
X54923156Y-17374092D01*
X54954916Y-17395313D01*
X54954917Y-17395314D01*
X54972078Y-17415849D01*
X54999720Y-17448924D01*
X54999720Y-17448925D01*
X54999722Y-17448927D01*
X54999722Y-17448931D01*
X55006731Y-17470024D01*
X55034505Y-17588109D01*
X55030693Y-17657875D01*
X54989767Y-17714504D01*
X54924722Y-17740018D01*
X54913799Y-17740500D01*
X54086201Y-17740500D01*
X54019162Y-17720815D01*
X53973407Y-17668011D01*
X53963463Y-17598853D01*
X53965495Y-17588110D01*
X53994079Y-17466577D01*
X53994079Y-17466573D01*
X53994081Y-17466567D01*
X54000500Y-17374092D01*
X54000500Y-16771230D01*
X54020185Y-16704191D01*
X54072989Y-16658436D01*
X54142147Y-16648492D01*
X54205703Y-16677517D01*
G37*
%TD.AperFunction*%
%TA.AperFunction,NonConductor*%
G36*
X50418834Y-16960720D02*
G01*
X50474767Y-17002592D01*
X50499184Y-17068056D01*
X50499500Y-17076902D01*
X50499500Y-17374092D01*
X50505919Y-17466567D01*
X50535540Y-17592510D01*
X50536253Y-17596980D01*
X50532361Y-17627330D01*
X50530692Y-17657876D01*
X50527960Y-17661656D01*
X50527367Y-17666282D01*
X50507691Y-17689701D01*
X50489767Y-17714505D01*
X50485423Y-17716208D01*
X50482424Y-17719779D01*
X50453206Y-17728845D01*
X50424722Y-17740018D01*
X50415954Y-17740404D01*
X50415693Y-17740486D01*
X50415476Y-17740425D01*
X50413799Y-17740500D01*
X49835902Y-17740500D01*
X49768863Y-17720815D01*
X49723108Y-17668011D01*
X49713164Y-17598853D01*
X49742189Y-17535297D01*
X49748221Y-17528819D01*
X50287819Y-16989221D01*
X50349142Y-16955736D01*
X50418834Y-16960720D01*
G37*
%TD.AperFunction*%
%TA.AperFunction,NonConductor*%
G36*
X22332150Y-18510185D02*
G01*
X22370647Y-18549401D01*
X22418607Y-18627156D01*
X22429862Y-18645404D01*
X22448302Y-18712797D01*
X22427379Y-18779460D01*
X22373736Y-18824229D01*
X22324323Y-18834500D01*
X22019999Y-18834500D01*
X22019980Y-18834501D01*
X21917203Y-18845000D01*
X21917200Y-18845001D01*
X21750668Y-18900185D01*
X21750663Y-18900187D01*
X21601342Y-18992289D01*
X21477289Y-19116342D01*
X21385187Y-19265663D01*
X21385185Y-19265668D01*
X21349121Y-19374504D01*
X21309348Y-19431949D01*
X21244833Y-19458772D01*
X21231415Y-19459500D01*
X21206080Y-19459500D01*
X21061092Y-19488340D01*
X21061086Y-19488342D01*
X21029187Y-19501555D01*
X20959717Y-19509022D01*
X20897239Y-19477746D01*
X20861587Y-19417657D01*
X20864082Y-19347832D01*
X20894053Y-19299314D01*
X21666549Y-18526819D01*
X21727872Y-18493334D01*
X21754230Y-18490500D01*
X22265111Y-18490500D01*
X22332150Y-18510185D01*
G37*
%TD.AperFunction*%
%TA.AperFunction,NonConductor*%
G36*
X19460327Y-20835554D02*
G01*
X19516260Y-20877426D01*
X19540677Y-20942890D01*
X19531555Y-20999187D01*
X19518342Y-21031086D01*
X19518340Y-21031092D01*
X19489500Y-21176079D01*
X19489500Y-21570716D01*
X19469815Y-21637755D01*
X19417011Y-21683510D01*
X19347853Y-21693454D01*
X19309205Y-21681201D01*
X19159223Y-21604782D01*
X19159222Y-21604781D01*
X19159219Y-21604780D01*
X19054381Y-21570716D01*
X18964536Y-21541523D01*
X18934963Y-21536839D01*
X18871829Y-21506908D01*
X18834899Y-21447596D01*
X18835897Y-21377734D01*
X18866680Y-21326687D01*
X19329314Y-20864053D01*
X19390635Y-20830570D01*
X19460327Y-20835554D01*
G37*
%TD.AperFunction*%
%TA.AperFunction,NonConductor*%
G36*
X27825690Y-23654882D02*
G01*
X27943008Y-23693001D01*
X27983580Y-23706184D01*
X28084672Y-23722195D01*
X28185763Y-23738207D01*
X28185764Y-23738207D01*
X28234269Y-23738207D01*
X28301308Y-23757892D01*
X28347063Y-23810696D01*
X28357007Y-23879854D01*
X28334587Y-23935093D01*
X28248768Y-24053211D01*
X28170129Y-24207549D01*
X28142814Y-24291615D01*
X28103375Y-24349290D01*
X28039016Y-24376487D01*
X27970170Y-24364572D01*
X27918695Y-24317327D01*
X27906952Y-24291613D01*
X27854755Y-24130970D01*
X27761859Y-23948650D01*
X27687062Y-23845701D01*
X27663582Y-23779894D01*
X27679407Y-23711840D01*
X27729513Y-23663145D01*
X27797991Y-23649270D01*
X27825690Y-23654882D01*
G37*
%TD.AperFunction*%
%TA.AperFunction,NonConductor*%
G36*
X17525703Y-23466790D02*
G01*
X17543915Y-23488347D01*
X17544849Y-23487669D01*
X17668028Y-23657213D01*
X17812786Y-23801971D01*
X17978385Y-23922284D01*
X17978387Y-23922285D01*
X17978390Y-23922287D01*
X18008493Y-23937625D01*
X18059289Y-23985598D01*
X18076085Y-24053419D01*
X18062684Y-24104404D01*
X18010129Y-24207549D01*
X17956597Y-24372302D01*
X17929500Y-24543389D01*
X17929500Y-26116610D01*
X17955934Y-26283512D01*
X17956598Y-26287701D01*
X18010127Y-26452445D01*
X18088768Y-26606788D01*
X18190586Y-26746928D01*
X18190588Y-26746930D01*
X18313072Y-26869414D01*
X18354733Y-26899683D01*
X18397398Y-26955013D01*
X18403376Y-27024627D01*
X18370769Y-27086421D01*
X18354733Y-27100317D01*
X18313072Y-27130585D01*
X18190588Y-27253069D01*
X18190588Y-27253070D01*
X18190586Y-27253072D01*
X18164737Y-27288650D01*
X18088768Y-27393211D01*
X18010129Y-27547549D01*
X17982814Y-27631615D01*
X17943375Y-27689290D01*
X17879016Y-27716487D01*
X17810170Y-27704572D01*
X17758695Y-27657327D01*
X17746952Y-27631613D01*
X17694755Y-27470970D01*
X17601859Y-27288650D01*
X17481582Y-27123105D01*
X17481582Y-27123104D01*
X17336895Y-26978417D01*
X17336889Y-26978412D01*
X17315940Y-26963191D01*
X17273276Y-26907860D01*
X17267298Y-26838247D01*
X17299906Y-26776453D01*
X17301017Y-26775324D01*
X17329414Y-26746928D01*
X17431232Y-26606788D01*
X17509873Y-26452445D01*
X17563402Y-26287701D01*
X17590500Y-26116611D01*
X17590500Y-24543389D01*
X17563402Y-24372299D01*
X17509873Y-24207555D01*
X17431232Y-24053212D01*
X17344181Y-23933397D01*
X17320702Y-23867592D01*
X17320500Y-23860513D01*
X17320500Y-23560503D01*
X17340185Y-23493464D01*
X17392989Y-23447709D01*
X17462147Y-23437765D01*
X17525703Y-23466790D01*
G37*
%TD.AperFunction*%
%TA.AperFunction,NonConductor*%
G36*
X53441816Y-29628888D02*
G01*
X53473151Y-29632484D01*
X53475986Y-29634802D01*
X53479594Y-29635427D01*
X53502820Y-29656744D01*
X53527241Y-29676712D01*
X53529431Y-29681167D01*
X53531070Y-29682671D01*
X53542814Y-29708385D01*
X53570128Y-29792449D01*
X53609148Y-29869029D01*
X53648768Y-29946788D01*
X53750586Y-30086928D01*
X53873072Y-30209414D01*
X54013212Y-30311232D01*
X54112036Y-30361585D01*
X54118768Y-30365015D01*
X54169564Y-30412989D01*
X54186359Y-30480810D01*
X54163822Y-30546945D01*
X54109107Y-30590397D01*
X54062473Y-30599500D01*
X52951064Y-30599500D01*
X52884025Y-30579815D01*
X52838270Y-30527011D01*
X52828326Y-30457853D01*
X52857351Y-30394297D01*
X52878177Y-30375183D01*
X52896892Y-30361585D01*
X53041582Y-30216895D01*
X53041582Y-30216894D01*
X53161859Y-30051349D01*
X53254755Y-29869029D01*
X53306952Y-29708386D01*
X53324754Y-29682350D01*
X53341036Y-29655349D01*
X53344321Y-29653733D01*
X53346389Y-29650710D01*
X53375440Y-29638432D01*
X53403737Y-29624520D01*
X53407375Y-29624937D01*
X53410748Y-29623512D01*
X53441816Y-29628888D01*
G37*
%TD.AperFunction*%
%TA.AperFunction,NonConductor*%
G36*
X50729827Y-29635427D02*
G01*
X50781303Y-29682671D01*
X50793047Y-29708385D01*
X50845244Y-29869031D01*
X50938140Y-30051349D01*
X51058417Y-30216894D01*
X51058417Y-30216895D01*
X51203107Y-30361585D01*
X51221823Y-30375183D01*
X51264488Y-30430513D01*
X51270466Y-30500127D01*
X51237859Y-30561921D01*
X51177020Y-30596278D01*
X51148936Y-30599500D01*
X50037527Y-30599500D01*
X49970488Y-30579815D01*
X49924733Y-30527011D01*
X49914789Y-30457853D01*
X49943814Y-30394297D01*
X49981232Y-30365015D01*
X49987964Y-30361585D01*
X50086788Y-30311232D01*
X50226928Y-30209414D01*
X50349414Y-30086928D01*
X50451232Y-29946788D01*
X50529873Y-29792445D01*
X50557186Y-29708384D01*
X50596622Y-29650711D01*
X50660981Y-29623512D01*
X50729827Y-29635427D01*
G37*
%TD.AperFunction*%
%TA.AperFunction,NonConductor*%
G36*
X48361816Y-26288888D02*
G01*
X48393151Y-26292484D01*
X48395986Y-26294802D01*
X48399594Y-26295427D01*
X48422820Y-26316744D01*
X48447241Y-26336712D01*
X48449431Y-26341167D01*
X48451070Y-26342671D01*
X48462814Y-26368385D01*
X48490128Y-26452449D01*
X48529148Y-26529029D01*
X48568768Y-26606788D01*
X48670586Y-26746928D01*
X48670588Y-26746930D01*
X48793072Y-26869414D01*
X48834733Y-26899683D01*
X48877398Y-26955013D01*
X48883376Y-27024627D01*
X48850769Y-27086421D01*
X48834733Y-27100317D01*
X48793072Y-27130585D01*
X48670588Y-27253069D01*
X48670588Y-27253070D01*
X48670586Y-27253072D01*
X48644737Y-27288650D01*
X48568768Y-27393211D01*
X48490128Y-27547552D01*
X48436597Y-27712302D01*
X48409500Y-27883389D01*
X48409500Y-29456610D01*
X48435934Y-29623512D01*
X48436598Y-29627701D01*
X48490127Y-29792445D01*
X48568768Y-29946788D01*
X48670586Y-30086928D01*
X48793072Y-30209414D01*
X48933212Y-30311232D01*
X49032036Y-30361585D01*
X49038768Y-30365015D01*
X49089564Y-30412989D01*
X49106359Y-30480810D01*
X49083822Y-30546945D01*
X49029107Y-30590397D01*
X48982473Y-30599500D01*
X47497527Y-30599500D01*
X47430488Y-30579815D01*
X47384733Y-30527011D01*
X47374789Y-30457853D01*
X47403814Y-30394297D01*
X47441232Y-30365015D01*
X47447964Y-30361585D01*
X47546788Y-30311232D01*
X47686928Y-30209414D01*
X47809414Y-30086928D01*
X47911232Y-29946788D01*
X47989873Y-29792445D01*
X48043402Y-29627701D01*
X48070500Y-29456611D01*
X48070500Y-27883389D01*
X48043402Y-27712299D01*
X47989873Y-27547555D01*
X47911232Y-27393212D01*
X47809414Y-27253072D01*
X47781146Y-27224804D01*
X47747662Y-27163482D01*
X47752646Y-27093790D01*
X47794518Y-27037857D01*
X47795943Y-27036806D01*
X47816889Y-27021587D01*
X47816895Y-27021582D01*
X47961582Y-26876895D01*
X47961582Y-26876894D01*
X48081859Y-26711349D01*
X48174755Y-26529029D01*
X48226952Y-26368386D01*
X48244754Y-26342350D01*
X48261036Y-26315349D01*
X48264321Y-26313733D01*
X48266389Y-26310710D01*
X48295440Y-26298432D01*
X48323737Y-26284520D01*
X48327375Y-26284937D01*
X48330748Y-26283512D01*
X48361816Y-26288888D01*
G37*
%TD.AperFunction*%
%TA.AperFunction,NonConductor*%
G36*
X45649827Y-26295427D02*
G01*
X45701303Y-26342671D01*
X45713047Y-26368385D01*
X45765244Y-26529031D01*
X45858140Y-26711349D01*
X45978417Y-26876894D01*
X45978417Y-26876895D01*
X46123107Y-27021585D01*
X46144058Y-27036807D01*
X46186723Y-27092138D01*
X46192701Y-27161751D01*
X46160094Y-27223546D01*
X46158854Y-27224804D01*
X46130586Y-27253072D01*
X46028768Y-27393211D01*
X45950128Y-27547552D01*
X45896597Y-27712302D01*
X45869500Y-27883389D01*
X45869500Y-29456610D01*
X45895934Y-29623512D01*
X45896598Y-29627701D01*
X45950127Y-29792445D01*
X46028768Y-29946788D01*
X46130586Y-30086928D01*
X46253072Y-30209414D01*
X46393212Y-30311232D01*
X46492036Y-30361585D01*
X46498768Y-30365015D01*
X46549564Y-30412989D01*
X46566359Y-30480810D01*
X46543822Y-30546945D01*
X46489107Y-30590397D01*
X46442473Y-30599500D01*
X44957527Y-30599500D01*
X44890488Y-30579815D01*
X44844733Y-30527011D01*
X44834789Y-30457853D01*
X44863814Y-30394297D01*
X44901232Y-30365015D01*
X44907964Y-30361585D01*
X45006788Y-30311232D01*
X45146928Y-30209414D01*
X45269414Y-30086928D01*
X45371232Y-29946788D01*
X45449873Y-29792445D01*
X45503402Y-29627701D01*
X45530500Y-29456611D01*
X45530500Y-27883389D01*
X45503402Y-27712299D01*
X45449873Y-27547555D01*
X45371232Y-27393212D01*
X45269414Y-27253072D01*
X45146928Y-27130586D01*
X45105265Y-27100316D01*
X45062602Y-27044988D01*
X45056623Y-26975374D01*
X45089229Y-26913579D01*
X45105266Y-26899683D01*
X45146928Y-26869414D01*
X45269414Y-26746928D01*
X45371232Y-26606788D01*
X45449873Y-26452445D01*
X45477186Y-26368384D01*
X45516622Y-26310711D01*
X45580981Y-26283512D01*
X45649827Y-26295427D01*
G37*
%TD.AperFunction*%
%TA.AperFunction,NonConductor*%
G36*
X43281816Y-29628888D02*
G01*
X43313151Y-29632484D01*
X43315986Y-29634802D01*
X43319594Y-29635427D01*
X43342820Y-29656744D01*
X43367241Y-29676712D01*
X43369431Y-29681167D01*
X43371070Y-29682671D01*
X43382814Y-29708385D01*
X43410128Y-29792449D01*
X43449148Y-29869029D01*
X43488768Y-29946788D01*
X43590586Y-30086928D01*
X43713072Y-30209414D01*
X43853212Y-30311232D01*
X43952036Y-30361585D01*
X43958768Y-30365015D01*
X44009564Y-30412989D01*
X44026359Y-30480810D01*
X44003822Y-30546945D01*
X43949107Y-30590397D01*
X43902473Y-30599500D01*
X42791064Y-30599500D01*
X42724025Y-30579815D01*
X42678270Y-30527011D01*
X42668326Y-30457853D01*
X42697351Y-30394297D01*
X42718177Y-30375183D01*
X42736892Y-30361585D01*
X42881582Y-30216895D01*
X42881582Y-30216894D01*
X43001859Y-30051349D01*
X43094755Y-29869029D01*
X43146952Y-29708386D01*
X43164754Y-29682350D01*
X43181036Y-29655349D01*
X43184321Y-29653733D01*
X43186389Y-29650710D01*
X43215440Y-29638432D01*
X43243737Y-29624520D01*
X43247375Y-29624937D01*
X43250748Y-29623512D01*
X43281816Y-29628888D01*
G37*
%TD.AperFunction*%
%TA.AperFunction,NonConductor*%
G36*
X40569827Y-29635427D02*
G01*
X40621303Y-29682671D01*
X40633047Y-29708385D01*
X40685244Y-29869031D01*
X40778140Y-30051349D01*
X40898417Y-30216894D01*
X40898417Y-30216895D01*
X41043107Y-30361585D01*
X41061823Y-30375183D01*
X41104488Y-30430513D01*
X41110466Y-30500127D01*
X41077859Y-30561921D01*
X41017020Y-30596278D01*
X40988936Y-30599500D01*
X39877527Y-30599500D01*
X39810488Y-30579815D01*
X39764733Y-30527011D01*
X39754789Y-30457853D01*
X39783814Y-30394297D01*
X39821232Y-30365015D01*
X39827964Y-30361585D01*
X39926788Y-30311232D01*
X40066928Y-30209414D01*
X40189414Y-30086928D01*
X40291232Y-29946788D01*
X40369873Y-29792445D01*
X40397186Y-29708384D01*
X40436622Y-29650711D01*
X40500981Y-29623512D01*
X40569827Y-29635427D01*
G37*
%TD.AperFunction*%
%TA.AperFunction,NonConductor*%
G36*
X38171053Y-27743428D02*
G01*
X38226987Y-27785299D01*
X38251404Y-27850763D01*
X38250195Y-27878995D01*
X38249500Y-27883383D01*
X38249500Y-29456610D01*
X38275934Y-29623512D01*
X38276598Y-29627701D01*
X38330127Y-29792445D01*
X38408768Y-29946788D01*
X38510586Y-30086928D01*
X38633072Y-30209414D01*
X38773212Y-30311232D01*
X38872036Y-30361585D01*
X38878768Y-30365015D01*
X38929564Y-30412989D01*
X38946359Y-30480810D01*
X38923822Y-30546945D01*
X38869107Y-30590397D01*
X38822473Y-30599500D01*
X37337527Y-30599500D01*
X37270488Y-30579815D01*
X37224733Y-30527011D01*
X37214789Y-30457853D01*
X37243814Y-30394297D01*
X37281232Y-30365015D01*
X37287964Y-30361585D01*
X37386788Y-30311232D01*
X37526928Y-30209414D01*
X37649414Y-30086928D01*
X37751232Y-29946788D01*
X37829873Y-29792445D01*
X37883402Y-29627701D01*
X37910500Y-29456611D01*
X37910500Y-27952831D01*
X37930185Y-27885792D01*
X37946810Y-27865159D01*
X38040044Y-27771925D01*
X38101361Y-27738444D01*
X38171053Y-27743428D01*
G37*
%TD.AperFunction*%
%TA.AperFunction,NonConductor*%
G36*
X35661816Y-29628888D02*
G01*
X35693151Y-29632484D01*
X35695986Y-29634802D01*
X35699594Y-29635427D01*
X35722820Y-29656744D01*
X35747241Y-29676712D01*
X35749431Y-29681167D01*
X35751070Y-29682671D01*
X35762814Y-29708385D01*
X35790128Y-29792449D01*
X35829148Y-29869029D01*
X35868768Y-29946788D01*
X35970586Y-30086928D01*
X36093072Y-30209414D01*
X36233212Y-30311232D01*
X36332036Y-30361585D01*
X36338768Y-30365015D01*
X36389564Y-30412989D01*
X36406359Y-30480810D01*
X36383822Y-30546945D01*
X36329107Y-30590397D01*
X36282473Y-30599500D01*
X35171064Y-30599500D01*
X35104025Y-30579815D01*
X35058270Y-30527011D01*
X35048326Y-30457853D01*
X35077351Y-30394297D01*
X35098177Y-30375183D01*
X35116892Y-30361585D01*
X35261582Y-30216895D01*
X35261582Y-30216894D01*
X35381859Y-30051349D01*
X35474755Y-29869029D01*
X35526952Y-29708386D01*
X35544754Y-29682350D01*
X35561036Y-29655349D01*
X35564321Y-29653733D01*
X35566389Y-29650710D01*
X35595440Y-29638432D01*
X35623737Y-29624520D01*
X35627375Y-29624937D01*
X35630748Y-29623512D01*
X35661816Y-29628888D01*
G37*
%TD.AperFunction*%
%TA.AperFunction,NonConductor*%
G36*
X32949827Y-29635427D02*
G01*
X33001303Y-29682671D01*
X33013047Y-29708385D01*
X33065244Y-29869031D01*
X33158140Y-30051349D01*
X33278417Y-30216894D01*
X33278417Y-30216895D01*
X33423107Y-30361585D01*
X33441823Y-30375183D01*
X33484488Y-30430513D01*
X33490466Y-30500127D01*
X33457859Y-30561921D01*
X33397020Y-30596278D01*
X33368936Y-30599500D01*
X32257527Y-30599500D01*
X32190488Y-30579815D01*
X32144733Y-30527011D01*
X32134789Y-30457853D01*
X32163814Y-30394297D01*
X32201232Y-30365015D01*
X32207964Y-30361585D01*
X32306788Y-30311232D01*
X32446928Y-30209414D01*
X32569414Y-30086928D01*
X32671232Y-29946788D01*
X32749873Y-29792445D01*
X32777186Y-29708384D01*
X32816622Y-29650711D01*
X32880981Y-29623512D01*
X32949827Y-29635427D01*
G37*
%TD.AperFunction*%
%TA.AperFunction,NonConductor*%
G36*
X30495703Y-27817517D02*
G01*
X30502181Y-27823549D01*
X30593181Y-27914549D01*
X30626666Y-27975872D01*
X30629500Y-28002230D01*
X30629500Y-29456610D01*
X30655934Y-29623512D01*
X30656598Y-29627701D01*
X30710127Y-29792445D01*
X30788768Y-29946788D01*
X30890586Y-30086928D01*
X31013072Y-30209414D01*
X31153212Y-30311232D01*
X31252036Y-30361585D01*
X31258768Y-30365015D01*
X31309564Y-30412989D01*
X31326359Y-30480810D01*
X31303822Y-30546945D01*
X31249107Y-30590397D01*
X31202473Y-30599500D01*
X29717527Y-30599500D01*
X29650488Y-30579815D01*
X29604733Y-30527011D01*
X29594789Y-30457853D01*
X29623814Y-30394297D01*
X29661232Y-30365015D01*
X29667964Y-30361585D01*
X29766788Y-30311232D01*
X29906928Y-30209414D01*
X30029414Y-30086928D01*
X30131232Y-29946788D01*
X30209873Y-29792445D01*
X30263402Y-29627701D01*
X30290500Y-29456611D01*
X30290500Y-27911230D01*
X30310185Y-27844191D01*
X30362989Y-27798436D01*
X30432147Y-27788492D01*
X30495703Y-27817517D01*
G37*
%TD.AperFunction*%
%TA.AperFunction,NonConductor*%
G36*
X28041816Y-26288888D02*
G01*
X28073151Y-26292484D01*
X28075986Y-26294802D01*
X28079594Y-26295427D01*
X28102820Y-26316744D01*
X28127241Y-26336712D01*
X28129431Y-26341167D01*
X28131070Y-26342671D01*
X28142814Y-26368385D01*
X28170128Y-26452449D01*
X28209148Y-26529029D01*
X28248768Y-26606788D01*
X28350586Y-26746928D01*
X28350588Y-26746930D01*
X28473072Y-26869414D01*
X28514733Y-26899683D01*
X28557398Y-26955013D01*
X28563376Y-27024627D01*
X28530769Y-27086421D01*
X28514733Y-27100317D01*
X28473072Y-27130585D01*
X28350588Y-27253069D01*
X28350588Y-27253070D01*
X28350586Y-27253072D01*
X28324737Y-27288650D01*
X28248768Y-27393211D01*
X28170128Y-27547552D01*
X28116597Y-27712302D01*
X28089500Y-27883389D01*
X28089500Y-29456610D01*
X28115934Y-29623512D01*
X28116598Y-29627701D01*
X28170127Y-29792445D01*
X28248768Y-29946788D01*
X28350586Y-30086928D01*
X28473072Y-30209414D01*
X28613212Y-30311232D01*
X28712036Y-30361585D01*
X28718768Y-30365015D01*
X28769564Y-30412989D01*
X28786359Y-30480810D01*
X28763822Y-30546945D01*
X28709107Y-30590397D01*
X28662473Y-30599500D01*
X27177527Y-30599500D01*
X27110488Y-30579815D01*
X27064733Y-30527011D01*
X27054789Y-30457853D01*
X27083814Y-30394297D01*
X27121232Y-30365015D01*
X27127964Y-30361585D01*
X27226788Y-30311232D01*
X27366928Y-30209414D01*
X27489414Y-30086928D01*
X27591232Y-29946788D01*
X27669873Y-29792445D01*
X27723402Y-29627701D01*
X27750500Y-29456611D01*
X27750500Y-27883389D01*
X27723402Y-27712299D01*
X27669873Y-27547555D01*
X27591232Y-27393212D01*
X27489414Y-27253072D01*
X27461146Y-27224804D01*
X27427662Y-27163482D01*
X27432646Y-27093790D01*
X27474518Y-27037857D01*
X27475943Y-27036806D01*
X27496889Y-27021587D01*
X27496895Y-27021582D01*
X27641582Y-26876895D01*
X27641582Y-26876894D01*
X27761859Y-26711349D01*
X27854755Y-26529029D01*
X27906952Y-26368386D01*
X27924754Y-26342350D01*
X27941036Y-26315349D01*
X27944321Y-26313733D01*
X27946389Y-26310710D01*
X27975440Y-26298432D01*
X28003737Y-26284520D01*
X28007375Y-26284937D01*
X28010748Y-26283512D01*
X28041816Y-26288888D01*
G37*
%TD.AperFunction*%
%TA.AperFunction,NonConductor*%
G36*
X25329827Y-26295427D02*
G01*
X25381303Y-26342671D01*
X25393047Y-26368385D01*
X25445244Y-26529031D01*
X25538140Y-26711349D01*
X25658417Y-26876894D01*
X25658417Y-26876895D01*
X25803107Y-27021585D01*
X25824058Y-27036807D01*
X25866723Y-27092138D01*
X25872701Y-27161751D01*
X25840094Y-27223546D01*
X25838854Y-27224804D01*
X25810586Y-27253072D01*
X25708768Y-27393211D01*
X25630128Y-27547552D01*
X25576597Y-27712302D01*
X25549500Y-27883389D01*
X25549500Y-29456610D01*
X25575934Y-29623512D01*
X25576598Y-29627701D01*
X25630127Y-29792445D01*
X25708768Y-29946788D01*
X25810586Y-30086928D01*
X25933072Y-30209414D01*
X26073212Y-30311232D01*
X26172036Y-30361585D01*
X26178768Y-30365015D01*
X26229564Y-30412989D01*
X26246359Y-30480810D01*
X26223822Y-30546945D01*
X26169107Y-30590397D01*
X26122473Y-30599500D01*
X24637527Y-30599500D01*
X24570488Y-30579815D01*
X24524733Y-30527011D01*
X24514789Y-30457853D01*
X24543814Y-30394297D01*
X24581232Y-30365015D01*
X24587964Y-30361585D01*
X24686788Y-30311232D01*
X24826928Y-30209414D01*
X24949414Y-30086928D01*
X25051232Y-29946788D01*
X25129873Y-29792445D01*
X25183402Y-29627701D01*
X25210500Y-29456611D01*
X25210500Y-27883389D01*
X25183402Y-27712299D01*
X25129873Y-27547555D01*
X25051232Y-27393212D01*
X24949414Y-27253072D01*
X24826928Y-27130586D01*
X24785265Y-27100316D01*
X24742602Y-27044988D01*
X24736623Y-26975374D01*
X24769229Y-26913579D01*
X24785266Y-26899683D01*
X24826928Y-26869414D01*
X24949414Y-26746928D01*
X25051232Y-26606788D01*
X25129873Y-26452445D01*
X25157186Y-26368384D01*
X25196622Y-26310711D01*
X25260981Y-26283512D01*
X25329827Y-26295427D01*
G37*
%TD.AperFunction*%
%TA.AperFunction,NonConductor*%
G36*
X22961816Y-29628888D02*
G01*
X22993151Y-29632484D01*
X22995986Y-29634802D01*
X22999594Y-29635427D01*
X23022820Y-29656744D01*
X23047241Y-29676712D01*
X23049431Y-29681167D01*
X23051070Y-29682671D01*
X23062814Y-29708385D01*
X23090128Y-29792449D01*
X23129148Y-29869029D01*
X23168768Y-29946788D01*
X23270586Y-30086928D01*
X23393072Y-30209414D01*
X23533212Y-30311232D01*
X23632036Y-30361585D01*
X23638768Y-30365015D01*
X23689564Y-30412989D01*
X23706359Y-30480810D01*
X23683822Y-30546945D01*
X23629107Y-30590397D01*
X23582473Y-30599500D01*
X22471064Y-30599500D01*
X22404025Y-30579815D01*
X22358270Y-30527011D01*
X22348326Y-30457853D01*
X22377351Y-30394297D01*
X22398177Y-30375183D01*
X22416892Y-30361585D01*
X22561582Y-30216895D01*
X22561582Y-30216894D01*
X22681859Y-30051349D01*
X22774755Y-29869029D01*
X22826952Y-29708386D01*
X22844754Y-29682350D01*
X22861036Y-29655349D01*
X22864321Y-29653733D01*
X22866389Y-29650710D01*
X22895440Y-29638432D01*
X22923737Y-29624520D01*
X22927375Y-29624937D01*
X22930748Y-29623512D01*
X22961816Y-29628888D01*
G37*
%TD.AperFunction*%
%TA.AperFunction,NonConductor*%
G36*
X20249827Y-29635427D02*
G01*
X20301303Y-29682671D01*
X20313047Y-29708385D01*
X20365244Y-29869031D01*
X20458140Y-30051349D01*
X20578417Y-30216894D01*
X20578417Y-30216895D01*
X20723107Y-30361585D01*
X20741823Y-30375183D01*
X20784488Y-30430513D01*
X20790466Y-30500127D01*
X20757859Y-30561921D01*
X20697020Y-30596278D01*
X20668936Y-30599500D01*
X19557527Y-30599500D01*
X19490488Y-30579815D01*
X19444733Y-30527011D01*
X19434789Y-30457853D01*
X19463814Y-30394297D01*
X19501232Y-30365015D01*
X19507964Y-30361585D01*
X19606788Y-30311232D01*
X19746928Y-30209414D01*
X19869414Y-30086928D01*
X19971232Y-29946788D01*
X20049873Y-29792445D01*
X20077186Y-29708384D01*
X20116622Y-29650711D01*
X20180981Y-29623512D01*
X20249827Y-29635427D01*
G37*
%TD.AperFunction*%
%TA.AperFunction,NonConductor*%
G36*
X17881816Y-29628888D02*
G01*
X17913151Y-29632484D01*
X17915986Y-29634802D01*
X17919594Y-29635427D01*
X17942820Y-29656744D01*
X17967241Y-29676712D01*
X17969431Y-29681167D01*
X17971070Y-29682671D01*
X17982814Y-29708385D01*
X18010128Y-29792449D01*
X18049148Y-29869029D01*
X18088768Y-29946788D01*
X18190586Y-30086928D01*
X18313072Y-30209414D01*
X18453212Y-30311232D01*
X18552036Y-30361585D01*
X18558768Y-30365015D01*
X18609564Y-30412989D01*
X18626359Y-30480810D01*
X18603822Y-30546945D01*
X18549107Y-30590397D01*
X18502473Y-30599500D01*
X17391064Y-30599500D01*
X17324025Y-30579815D01*
X17278270Y-30527011D01*
X17268326Y-30457853D01*
X17297351Y-30394297D01*
X17318177Y-30375183D01*
X17336892Y-30361585D01*
X17481582Y-30216895D01*
X17481582Y-30216894D01*
X17601859Y-30051349D01*
X17694755Y-29869029D01*
X17746952Y-29708386D01*
X17764754Y-29682350D01*
X17781036Y-29655349D01*
X17784321Y-29653733D01*
X17786389Y-29650710D01*
X17815440Y-29638432D01*
X17843737Y-29624520D01*
X17847375Y-29624937D01*
X17850748Y-29623512D01*
X17881816Y-29628888D01*
G37*
%TD.AperFunction*%
%TA.AperFunction,NonConductor*%
G36*
X15169827Y-29635427D02*
G01*
X15221303Y-29682671D01*
X15233047Y-29708385D01*
X15285244Y-29869031D01*
X15378140Y-30051349D01*
X15498417Y-30216894D01*
X15498417Y-30216895D01*
X15643107Y-30361585D01*
X15661823Y-30375183D01*
X15704488Y-30430513D01*
X15710466Y-30500127D01*
X15677859Y-30561921D01*
X15617020Y-30596278D01*
X15588936Y-30599500D01*
X14477527Y-30599500D01*
X14410488Y-30579815D01*
X14364733Y-30527011D01*
X14354789Y-30457853D01*
X14383814Y-30394297D01*
X14421232Y-30365015D01*
X14427964Y-30361585D01*
X14526788Y-30311232D01*
X14666928Y-30209414D01*
X14789414Y-30086928D01*
X14891232Y-29946788D01*
X14969873Y-29792445D01*
X14997186Y-29708384D01*
X15036622Y-29650711D01*
X15100981Y-29623512D01*
X15169827Y-29635427D01*
G37*
%TD.AperFunction*%
%TA.AperFunction,NonConductor*%
G36*
X12428579Y-23814385D02*
G01*
X12431001Y-23813895D01*
X12457861Y-23819237D01*
X12472687Y-23823937D01*
X12472691Y-23823937D01*
X12472693Y-23823938D01*
X12693520Y-23851052D01*
X12914779Y-23837177D01*
X12982917Y-23852627D01*
X13031887Y-23902464D01*
X13046140Y-23970865D01*
X13022858Y-24033816D01*
X13008771Y-24053206D01*
X12930128Y-24207552D01*
X12876597Y-24372302D01*
X12849500Y-24543389D01*
X12849500Y-26116610D01*
X12875934Y-26283512D01*
X12876598Y-26287701D01*
X12930127Y-26452445D01*
X13008768Y-26606788D01*
X13110586Y-26746928D01*
X13110588Y-26746930D01*
X13233072Y-26869414D01*
X13274733Y-26899683D01*
X13317398Y-26955013D01*
X13323376Y-27024627D01*
X13290769Y-27086421D01*
X13274733Y-27100317D01*
X13233072Y-27130585D01*
X13110588Y-27253069D01*
X13110588Y-27253070D01*
X13110586Y-27253072D01*
X13084737Y-27288650D01*
X13008768Y-27393211D01*
X12930128Y-27547552D01*
X12876597Y-27712302D01*
X12849500Y-27883389D01*
X12849500Y-29456610D01*
X12875934Y-29623512D01*
X12876598Y-29627701D01*
X12930127Y-29792445D01*
X13008768Y-29946788D01*
X13110586Y-30086928D01*
X13233072Y-30209414D01*
X13373212Y-30311232D01*
X13472036Y-30361585D01*
X13478768Y-30365015D01*
X13529564Y-30412989D01*
X13546359Y-30480810D01*
X13523822Y-30546945D01*
X13469107Y-30590397D01*
X13422473Y-30599500D01*
X11937527Y-30599500D01*
X11870488Y-30579815D01*
X11824733Y-30527011D01*
X11814789Y-30457853D01*
X11843814Y-30394297D01*
X11881232Y-30365015D01*
X11887964Y-30361585D01*
X11986788Y-30311232D01*
X12126928Y-30209414D01*
X12249414Y-30086928D01*
X12351232Y-29946788D01*
X12429873Y-29792445D01*
X12483402Y-29627701D01*
X12510500Y-29456611D01*
X12510500Y-27883389D01*
X12483402Y-27712299D01*
X12429873Y-27547555D01*
X12351232Y-27393212D01*
X12249414Y-27253072D01*
X12126928Y-27130586D01*
X12085265Y-27100316D01*
X12042602Y-27044988D01*
X12036623Y-26975374D01*
X12069229Y-26913579D01*
X12085266Y-26899683D01*
X12126928Y-26869414D01*
X12249414Y-26746928D01*
X12351232Y-26606788D01*
X12429873Y-26452445D01*
X12483402Y-26287701D01*
X12510500Y-26116611D01*
X12510500Y-24543389D01*
X12483402Y-24372299D01*
X12429873Y-24207555D01*
X12351232Y-24053212D01*
X12320072Y-24010324D01*
X12309617Y-23981021D01*
X12297304Y-23952460D01*
X12297976Y-23948398D01*
X12296593Y-23944520D01*
X12303638Y-23914219D01*
X12308723Y-23883530D01*
X12311485Y-23880476D01*
X12312418Y-23876466D01*
X12334724Y-23854787D01*
X12355596Y-23831716D01*
X12359571Y-23830640D01*
X12362524Y-23827771D01*
X12393007Y-23821593D01*
X12423041Y-23813468D01*
X12428579Y-23814385D01*
G37*
%TD.AperFunction*%
%TA.AperFunction,NonConductor*%
G36*
X10299594Y-26295427D02*
G01*
X10351070Y-26342671D01*
X10362814Y-26368385D01*
X10390128Y-26452449D01*
X10429148Y-26529029D01*
X10468768Y-26606788D01*
X10570586Y-26746928D01*
X10570588Y-26746930D01*
X10693072Y-26869414D01*
X10734733Y-26899683D01*
X10777398Y-26955013D01*
X10783376Y-27024627D01*
X10750769Y-27086421D01*
X10734733Y-27100317D01*
X10693072Y-27130585D01*
X10570588Y-27253069D01*
X10570588Y-27253070D01*
X10570586Y-27253072D01*
X10544737Y-27288650D01*
X10468768Y-27393211D01*
X10390128Y-27547552D01*
X10336597Y-27712302D01*
X10309500Y-27883389D01*
X10309500Y-29456610D01*
X10335934Y-29623512D01*
X10336598Y-29627701D01*
X10390127Y-29792445D01*
X10468768Y-29946788D01*
X10570586Y-30086928D01*
X10693072Y-30209414D01*
X10833212Y-30311232D01*
X10932036Y-30361585D01*
X10938768Y-30365015D01*
X10989564Y-30412989D01*
X11006359Y-30480810D01*
X10983822Y-30546945D01*
X10929107Y-30590397D01*
X10882473Y-30599500D01*
X9397527Y-30599500D01*
X9330488Y-30579815D01*
X9284733Y-30527011D01*
X9274789Y-30457853D01*
X9303814Y-30394297D01*
X9341232Y-30365015D01*
X9347964Y-30361585D01*
X9446788Y-30311232D01*
X9586928Y-30209414D01*
X9709414Y-30086928D01*
X9811232Y-29946788D01*
X9889873Y-29792445D01*
X9943402Y-29627701D01*
X9970500Y-29456611D01*
X9970500Y-27883389D01*
X9943402Y-27712299D01*
X9889873Y-27547555D01*
X9811232Y-27393212D01*
X9709414Y-27253072D01*
X9681146Y-27224804D01*
X9647662Y-27163482D01*
X9652646Y-27093790D01*
X9694518Y-27037857D01*
X9695943Y-27036806D01*
X9716889Y-27021587D01*
X9716895Y-27021582D01*
X9861582Y-26876895D01*
X9861582Y-26876894D01*
X9981859Y-26711349D01*
X10074755Y-26529029D01*
X10126952Y-26368386D01*
X10166389Y-26310710D01*
X10230748Y-26283512D01*
X10299594Y-26295427D01*
G37*
%TD.AperFunction*%
%TA.AperFunction,NonConductor*%
G36*
X50262539Y-3564185D02*
G01*
X50308294Y-3616989D01*
X50319500Y-3668500D01*
X50319500Y-3934582D01*
X50299815Y-4001621D01*
X50268385Y-4034900D01*
X50222787Y-4068028D01*
X50219085Y-4071191D01*
X50217993Y-4069912D01*
X50163064Y-4099887D01*
X50093373Y-4094883D01*
X50037451Y-4052996D01*
X50013052Y-3987525D01*
X50013380Y-3966116D01*
X50018500Y-3916008D01*
X50018500Y-3668500D01*
X50021050Y-3659814D01*
X50019762Y-3650853D01*
X50030740Y-3626812D01*
X50038185Y-3601461D01*
X50045025Y-3595533D01*
X50048787Y-3587297D01*
X50071021Y-3573007D01*
X50090989Y-3555706D01*
X50101503Y-3553418D01*
X50107565Y-3549523D01*
X50142500Y-3544500D01*
X50195500Y-3544500D01*
X50262539Y-3564185D01*
G37*
%TD.AperFunction*%
%TA.AperFunction,NonConductor*%
G36*
X52208506Y-3551364D02*
G01*
X52232733Y-3554001D01*
X52241436Y-3561033D01*
X52252169Y-3564185D01*
X52268123Y-3582597D01*
X52287079Y-3597914D01*
X52294793Y-3613376D01*
X52297924Y-3616989D01*
X52302836Y-3629495D01*
X52347116Y-3763124D01*
X52347186Y-3763333D01*
X52347187Y-3763336D01*
X52363226Y-3789339D01*
X52439288Y-3912656D01*
X52563344Y-4036712D01*
X52712666Y-4128814D01*
X52723468Y-4132393D01*
X52780912Y-4172161D01*
X52807738Y-4236675D01*
X52795427Y-4305452D01*
X52747886Y-4356654D01*
X52723472Y-4367805D01*
X52610666Y-4405186D01*
X52610663Y-4405187D01*
X52461344Y-4497288D01*
X52437294Y-4521338D01*
X52375970Y-4554822D01*
X52306278Y-4549836D01*
X52250346Y-4507964D01*
X52239129Y-4489949D01*
X52234250Y-4480374D01*
X52182287Y-4378390D01*
X52172309Y-4364656D01*
X52061971Y-4212786D01*
X51917217Y-4068032D01*
X51917212Y-4068028D01*
X51871615Y-4034900D01*
X51828949Y-3979571D01*
X51820500Y-3934582D01*
X51820500Y-3668500D01*
X51840185Y-3601461D01*
X51892989Y-3555706D01*
X51944500Y-3544500D01*
X52185130Y-3544500D01*
X52208506Y-3551364D01*
G37*
%TD.AperFunction*%
%TA.AperFunction,NonConductor*%
G36*
X25892134Y-12533501D02*
G01*
X26894181Y-13535548D01*
X26927666Y-13596871D01*
X26930500Y-13623229D01*
X26930500Y-14260753D01*
X26910815Y-14327792D01*
X26858011Y-14373547D01*
X26788853Y-14383491D01*
X26725297Y-14354466D01*
X26706182Y-14333638D01*
X26661971Y-14272787D01*
X26661967Y-14272782D01*
X26517213Y-14128028D01*
X26351613Y-14007715D01*
X26351612Y-14007714D01*
X26351610Y-14007713D01*
X26294653Y-13978691D01*
X26169223Y-13914781D01*
X25974535Y-13851523D01*
X25875134Y-13835779D01*
X25812000Y-13805849D01*
X25775069Y-13746538D01*
X25776067Y-13676675D01*
X25776330Y-13675836D01*
X25823446Y-13527204D01*
X25850549Y-13306459D01*
X25836631Y-13084506D01*
X25782165Y-12868888D01*
X25691856Y-12673124D01*
X25681649Y-12604004D01*
X25710430Y-12540338D01*
X25769063Y-12502339D01*
X25838933Y-12502072D01*
X25892134Y-12533501D01*
G37*
%TD.AperFunction*%
M02*
