%TF.GenerationSoftware,KiCad,Pcbnew,9.0.7*%
%TF.CreationDate,2026-05-20T09:51:19+02:00*%
%TF.ProjectId,ZeroTiny,5a65726f-5469-46e7-992e-6b696361645f,rev?*%
%TF.SameCoordinates,Original*%
%TF.FileFunction,Other,User*%
%FSLAX46Y46*%
G04 Gerber Fmt 4.6, Leading zero omitted, Abs format (unit mm)*
G04 Created by KiCad (PCBNEW 9.0.7) date 2026-05-20 09:51:19*
%MOMM*%
%LPD*%
G01*
G04 APERTURE LIST*
%ADD10C,0.050000*%
G04 APERTURE END LIST*
D10*
%TO.C,IC1*%
X65750000Y-30750000D02*
X65750000Y-250000D01*
X250000Y-30750000D02*
X65750000Y-30750000D01*
X250000Y-30750000D02*
X250000Y-24500000D01*
X58930000Y-30070000D02*
X58930000Y-23970000D01*
X7130000Y-30070000D02*
X58930000Y-30070000D01*
X-1200000Y-24500000D02*
X250000Y-24500000D01*
X58930000Y-23970000D02*
X7130000Y-23970000D01*
X7130000Y-23970000D02*
X7130000Y-30070000D01*
X250000Y-6500000D02*
X250000Y-250000D01*
X-1200000Y-6500000D02*
X-1200000Y-24500000D01*
X-1200000Y-6500000D02*
X250000Y-6500000D01*
X59250000Y-250000D02*
X65750000Y-250000D01*
X28600000Y-250000D02*
X46950000Y-250000D01*
X19600000Y-250000D02*
X16000000Y-250000D01*
X7000000Y-250000D02*
X250000Y-250000D01*
X59250000Y700000D02*
X59250000Y-250000D01*
X59250000Y700000D02*
X46950000Y700000D01*
X46950000Y700000D02*
X46950000Y-250000D01*
X28600000Y1800000D02*
X28600000Y-250000D01*
X19600000Y1800000D02*
X19600000Y-250000D01*
X19600000Y1800000D02*
X28600000Y1800000D01*
X16000000Y1800000D02*
X16000000Y-250000D01*
X7000000Y1800000D02*
X7000000Y-250000D01*
X7000000Y1800000D02*
X16000000Y1800000D01*
%TD*%
M02*
