%TF.GenerationSoftware,KiCad,Pcbnew,9.0.7*%
%TF.CreationDate,2026-05-20T09:51:19+02:00*%
%TF.ProjectId,ZeroTiny,5a65726f-5469-46e7-992e-6b696361645f,rev?*%
%TF.SameCoordinates,Original*%
%TF.FileFunction,Copper,L2,Bot*%
%TF.FilePolarity,Positive*%
%FSLAX46Y46*%
G04 Gerber Fmt 4.6, Leading zero omitted, Abs format (unit mm)*
G04 Created by KiCad (PCBNEW 9.0.7) date 2026-05-20 09:51:19*
%MOMM*%
%LPD*%
G01*
G04 APERTURE LIST*
G04 Aperture macros list*
%AMRoundRect*
0 Rectangle with rounded corners*
0 $1 Rounding radius*
0 $2 $3 $4 $5 $6 $7 $8 $9 X,Y pos of 4 corners*
0 Add a 4 corners polygon primitive as box body*
4,1,4,$2,$3,$4,$5,$6,$7,$8,$9,$2,$3,0*
0 Add four circle primitives for the rounded corners*
1,1,$1+$1,$2,$3*
1,1,$1+$1,$4,$5*
1,1,$1+$1,$6,$7*
1,1,$1+$1,$8,$9*
0 Add four rect primitives between the rounded corners*
20,1,$1+$1,$2,$3,$4,$5,0*
20,1,$1+$1,$4,$5,$6,$7,0*
20,1,$1+$1,$6,$7,$8,$9,0*
20,1,$1+$1,$8,$9,$2,$3,0*%
G04 Aperture macros list end*
%ADD10C,0.375000*%
%TA.AperFunction,ComponentPad*%
%ADD11RoundRect,0.700000X0.772020X-0.094792X0.094792X0.772020X-0.772020X0.094792X-0.094792X-0.772020X0*%
%TD*%
%TA.AperFunction,ComponentPad*%
%ADD12O,2.500000X4.500000*%
%TD*%
%TA.AperFunction,ComponentPad*%
%ADD13O,4.500000X3.000000*%
%TD*%
%TA.AperFunction,ComponentPad*%
%ADD14O,3.000000X4.500000*%
%TD*%
%TA.AperFunction,ComponentPad*%
%ADD15RoundRect,0.700000X0.550000X-0.550000X0.550000X0.550000X-0.550000X0.550000X-0.550000X-0.550000X0*%
%TD*%
%TA.AperFunction,ComponentPad*%
%ADD16RoundRect,0.700000X-0.550000X0.550000X-0.550000X-0.550000X0.550000X-0.550000X0.550000X0.550000X0*%
%TD*%
%TA.AperFunction,ComponentPad*%
%ADD17RoundRect,0.700000X-0.094792X-0.772020X0.772020X-0.094792X0.094792X0.772020X-0.772020X0.094792X0*%
%TD*%
%TA.AperFunction,ComponentPad*%
%ADD18O,1.600000X3.000000*%
%TD*%
%TA.AperFunction,ViaPad*%
%ADD19C,1.600000*%
%TD*%
%TA.AperFunction,Conductor*%
%ADD20C,0.500000*%
%TD*%
%TA.AperFunction,Conductor*%
%ADD21C,0.800000*%
%TD*%
%TA.AperFunction,Conductor*%
%ADD22C,0.400000*%
%TD*%
%TA.AperFunction,Conductor*%
%ADD23C,0.330000*%
%TD*%
%TA.AperFunction,Conductor*%
%ADD24C,1.000000*%
%TD*%
G04 APERTURE END LIST*
D10*
G36*
X2645000Y-15664951D02*
G01*
X2640577Y-15928980D01*
X2634741Y-16030765D01*
X2620220Y-16109524D01*
X2596210Y-16176743D01*
X2563300Y-16234189D01*
X2520624Y-16284896D01*
X2469178Y-16328170D01*
X2407962Y-16364340D01*
X2341875Y-16391014D01*
X2275435Y-16406743D01*
X2207927Y-16411967D01*
X2123368Y-16403502D01*
X2048304Y-16378892D01*
X1980689Y-16338145D01*
X1923727Y-16283418D01*
X1878116Y-16213989D01*
X1843852Y-16127119D01*
X1809285Y-16187858D01*
X1765372Y-16238939D01*
X1711412Y-16281359D01*
X1650494Y-16313002D01*
X1586189Y-16331864D01*
X1517330Y-16338237D01*
X1453573Y-16332964D01*
X1395243Y-16317540D01*
X1341292Y-16292075D01*
X1269909Y-16239636D01*
X1215538Y-16176853D01*
X1176609Y-16103647D01*
X1153439Y-16020049D01*
X1142914Y-15921097D01*
X1138510Y-15754160D01*
X1138510Y-15631245D01*
X1390568Y-15631245D01*
X1395697Y-15890448D01*
X1406346Y-15939068D01*
X1424054Y-15976359D01*
X1448271Y-16004662D01*
X1496797Y-16033063D01*
X1560928Y-16043130D01*
X1607374Y-16037872D01*
X1645728Y-16022939D01*
X1677798Y-15998525D01*
X1712568Y-15947409D01*
X1731287Y-15876160D01*
X1735342Y-15701953D01*
X1988475Y-15701953D01*
X1995553Y-15891005D01*
X2010182Y-15970865D01*
X2038840Y-16026334D01*
X2079333Y-16065662D01*
X2130724Y-16089907D01*
X2194829Y-16098451D01*
X2246928Y-16093293D01*
X2289055Y-16078872D01*
X2323332Y-16055861D01*
X2362102Y-16007580D01*
X2383690Y-15945769D01*
X2389859Y-15887076D01*
X2392941Y-15737766D01*
X2392941Y-15457039D01*
X1988475Y-15457039D01*
X1988475Y-15701953D01*
X1735342Y-15701953D01*
X1736416Y-15655792D01*
X1736416Y-15457039D01*
X1390568Y-15457039D01*
X1390568Y-15631245D01*
X1138510Y-15631245D01*
X1138510Y-15153689D01*
X2645000Y-15153689D01*
X2645000Y-15664951D01*
G37*
G36*
X2049639Y-16615399D02*
G01*
X2176529Y-16640695D01*
X2287311Y-16680906D01*
X2384265Y-16735363D01*
X2469145Y-16804252D01*
X2541667Y-16887015D01*
X2598267Y-16979978D01*
X2639578Y-17084581D01*
X2665320Y-17202798D01*
X2674309Y-17337037D01*
X2665328Y-17469404D01*
X2639562Y-17586354D01*
X2598126Y-17690220D01*
X2541222Y-17782906D01*
X2468137Y-17865792D01*
X2382954Y-17934518D01*
X2285302Y-17988953D01*
X2173355Y-18029226D01*
X2044752Y-18054604D01*
X1896700Y-18063538D01*
X1747370Y-18054520D01*
X1617834Y-18028917D01*
X1505240Y-17988314D01*
X1407178Y-17933462D01*
X1321783Y-17864235D01*
X1248476Y-17780724D01*
X1191412Y-17687467D01*
X1149873Y-17583093D01*
X1124057Y-17465711D01*
X1115267Y-17336030D01*
X1372983Y-17336030D01*
X1381470Y-17427655D01*
X1405799Y-17506838D01*
X1445380Y-17576002D01*
X1501119Y-17636815D01*
X1567451Y-17683138D01*
X1651503Y-17718469D01*
X1757249Y-17741585D01*
X1889556Y-17750021D01*
X2023175Y-17741406D01*
X2130543Y-17717739D01*
X2216417Y-17681447D01*
X2284680Y-17633701D01*
X2342560Y-17571129D01*
X2383189Y-17501736D01*
X2407866Y-17424084D01*
X2416388Y-17336030D01*
X2407835Y-17248045D01*
X2383023Y-17170129D01*
X2342089Y-17100183D01*
X2283673Y-17036802D01*
X2214726Y-16988137D01*
X2129232Y-16951412D01*
X2023665Y-16927627D01*
X1893678Y-16919016D01*
X1760987Y-16927539D01*
X1654645Y-16950927D01*
X1569847Y-16986737D01*
X1502676Y-17033779D01*
X1446135Y-17095433D01*
X1406083Y-17165155D01*
X1381529Y-17244564D01*
X1372983Y-17336030D01*
X1115267Y-17336030D01*
X1115062Y-17333007D01*
X1122125Y-17211835D01*
X1142349Y-17104539D01*
X1174688Y-17009233D01*
X1208799Y-16941785D01*
X1253755Y-16877159D01*
X1310518Y-16814968D01*
X1408072Y-16735658D01*
X1517239Y-16675200D01*
X1623686Y-16638581D01*
X1751294Y-16614976D01*
X1903936Y-16606507D01*
X2049639Y-16615399D01*
G37*
G36*
X2645000Y-18638638D02*
G01*
X1390568Y-18638638D01*
X1390568Y-18192864D01*
X1138510Y-18192864D01*
X1138510Y-19386662D01*
X1390568Y-19386662D01*
X1390568Y-18941896D01*
X2645000Y-18941896D01*
X2645000Y-18638638D01*
G37*
G36*
X2645000Y-19920913D02*
G01*
X1390568Y-19920913D01*
X1390568Y-19475139D01*
X1138510Y-19475139D01*
X1138510Y-20668937D01*
X1390568Y-20668937D01*
X1390568Y-20224171D01*
X2645000Y-20224171D01*
X2645000Y-19920913D01*
G37*
G36*
X2049639Y-20774366D02*
G01*
X2176529Y-20799662D01*
X2287311Y-20839873D01*
X2384265Y-20894331D01*
X2469145Y-20963219D01*
X2541667Y-21045982D01*
X2598267Y-21138945D01*
X2639578Y-21243548D01*
X2665320Y-21361765D01*
X2674309Y-21496004D01*
X2665328Y-21628371D01*
X2639562Y-21745321D01*
X2598126Y-21849187D01*
X2541222Y-21941873D01*
X2468137Y-22024760D01*
X2382954Y-22093485D01*
X2285302Y-22147921D01*
X2173355Y-22188193D01*
X2044752Y-22213572D01*
X1896700Y-22222505D01*
X1747370Y-22213487D01*
X1617834Y-22187884D01*
X1505240Y-22147282D01*
X1407178Y-22092429D01*
X1321783Y-22023203D01*
X1248476Y-21939691D01*
X1191412Y-21846434D01*
X1149873Y-21742060D01*
X1124057Y-21624678D01*
X1115267Y-21494997D01*
X1372983Y-21494997D01*
X1381470Y-21586622D01*
X1405799Y-21665805D01*
X1445380Y-21734970D01*
X1501119Y-21795782D01*
X1567451Y-21842105D01*
X1651503Y-21877436D01*
X1757249Y-21900552D01*
X1889556Y-21908989D01*
X2023175Y-21900374D01*
X2130543Y-21876707D01*
X2216417Y-21840414D01*
X2284680Y-21792668D01*
X2342560Y-21730097D01*
X2383189Y-21660703D01*
X2407866Y-21583051D01*
X2416388Y-21494997D01*
X2407835Y-21407012D01*
X2383023Y-21329096D01*
X2342089Y-21259151D01*
X2283673Y-21195769D01*
X2214726Y-21147104D01*
X2129232Y-21110380D01*
X2023665Y-21086594D01*
X1893678Y-21077983D01*
X1760987Y-21086507D01*
X1654645Y-21109894D01*
X1569847Y-21145705D01*
X1502676Y-21192746D01*
X1446135Y-21254401D01*
X1406083Y-21324122D01*
X1381529Y-21403531D01*
X1372983Y-21494997D01*
X1115267Y-21494997D01*
X1115062Y-21491974D01*
X1122125Y-21370802D01*
X1142349Y-21263506D01*
X1174688Y-21168200D01*
X1208799Y-21100752D01*
X1253755Y-21036126D01*
X1310518Y-20973935D01*
X1408072Y-20894625D01*
X1517239Y-20834167D01*
X1623686Y-20797548D01*
X1751294Y-20773943D01*
X1903936Y-20765474D01*
X2049639Y-20774366D01*
G37*
G36*
X2645000Y-22455329D02*
G01*
X1138510Y-22455329D01*
X1138510Y-22909255D01*
X2166161Y-23181830D01*
X1138510Y-23451290D01*
X1138510Y-23906315D01*
X2645000Y-23906315D01*
X2645000Y-23624489D01*
X1459170Y-23624489D01*
X2645000Y-23326360D01*
X2645000Y-23034276D01*
X1459170Y-22737155D01*
X2645000Y-22737155D01*
X2645000Y-22455329D01*
G37*
D11*
%TO.P,SW3,1,1*%
%TO.N,/GND*%
X10053727Y-18327876D03*
X15175797Y-14326076D03*
%TO.P,SW3,2,2*%
%TO.N,/KEY_DOWN*%
X12824203Y-21873924D03*
X17946273Y-17872124D03*
%TD*%
D12*
%TO.P,J1,R*%
%TO.N,Net-(C4-Pad2)*%
X40450000Y-10550000D03*
%TO.P,J1,RN*%
X37350000Y-9350000D03*
D13*
%TO.P,J1,S*%
%TO.N,/GND*%
X35000000Y-2250000D03*
D14*
%TO.P,J1,T*%
%TO.N,Net-(C2-Pad2)*%
X30400000Y-6550000D03*
D13*
%TO.P,J1,TN*%
X30900000Y-13750000D03*
%TD*%
D15*
%TO.P,SW9,1,1*%
%TO.N,/GND*%
X30950000Y-17150000D03*
X37450000Y-17150000D03*
%TO.P,SW9,2,2*%
%TO.N,/KEY_ALT*%
X30950000Y-21650000D03*
X37450000Y-21650000D03*
%TD*%
D16*
%TO.P,SW6,1,1*%
%TO.N,/GND*%
X63250000Y-21250000D03*
X56750000Y-21250000D03*
%TO.P,SW6,2,2*%
%TO.N,/KEY_B*%
X63250000Y-16750000D03*
X56750000Y-16750000D03*
%TD*%
D11*
%TO.P,SW2,1,1*%
%TO.N,/GND*%
X10053727Y-6127876D03*
X15175797Y-2126076D03*
%TO.P,SW2,2,2*%
%TO.N,/KEY_UP*%
X12824203Y-9673924D03*
X17946273Y-5672124D03*
%TD*%
D15*
%TO.P,SW8,1,1*%
%TO.N,/GND*%
X56750000Y-8750000D03*
X63250000Y-8750000D03*
%TO.P,SW8,2,2*%
%TO.N,/KEY_Y*%
X56750000Y-13250000D03*
X63250000Y-13250000D03*
%TD*%
%TO.P,SW7,1,1*%
%TO.N,/GND*%
X45750000Y-8750000D03*
X52250000Y-8750000D03*
%TO.P,SW7,2,2*%
%TO.N,/KEY_X*%
X45750000Y-13250000D03*
X52250000Y-13250000D03*
%TD*%
D16*
%TO.P,SW5,1,1*%
%TO.N,/GND*%
X52250000Y-21250000D03*
X45750000Y-21250000D03*
%TO.P,SW5,2,2*%
%TO.N,/KEY_A*%
X52250000Y-16750000D03*
X45750000Y-16750000D03*
%TD*%
D17*
%TO.P,SW4,1,1*%
%TO.N,/GND*%
X19872124Y-8053727D03*
X23873924Y-13175797D03*
%TO.P,SW4,2,2*%
%TO.N,/KEY_RIGHT*%
X16326076Y-10824203D03*
X20327876Y-15946273D03*
%TD*%
%TO.P,SW1,1,1*%
%TO.N,/GND*%
X7672124Y-8053727D03*
X11673924Y-13175797D03*
%TO.P,SW1,2,2*%
%TO.N,/KEY_LEFT*%
X4126076Y-10824203D03*
X8127876Y-15946273D03*
%TD*%
D18*
%TO.P,IC1,1,3V3*%
%TO.N,unconnected-(IC1-3V3-Pad1)*%
X57130000Y-25330000D03*
%TO.P,IC1,2,5V*%
%TO.N,unconnected-(IC1-5V-Pad2)*%
X57130000Y-28670000D03*
%TO.P,IC1,3,GPIO2/I2C1_SDA*%
%TO.N,unconnected-(IC1-GPIO2{slash}I2C1_SDA-Pad3)*%
X54590000Y-25330000D03*
%TO.P,IC1,4,5V*%
%TO.N,unconnected-(IC1-5V-Pad4)*%
X54590000Y-28670000D03*
%TO.P,IC1,5,GPIO3/I2C1_SCL*%
%TO.N,unconnected-(IC1-GPIO3{slash}I2C1_SCL-Pad5)*%
X52050000Y-25330000D03*
%TO.P,IC1,6,GND*%
%TO.N,/GND*%
X52050000Y-28670000D03*
%TO.P,IC1,7,GPIO4/GCLK0*%
%TO.N,/KEY_ALT*%
X49510000Y-25330000D03*
%TO.P,IC1,8,GPIO14/UART_TX*%
%TO.N,unconnected-(IC1-GPIO14{slash}UART_TX-Pad8)*%
X49510000Y-28670000D03*
%TO.P,IC1,9,GND*%
%TO.N,/GND*%
X46970000Y-25330000D03*
%TO.P,IC1,10,GPIO15/UART_RX*%
%TO.N,unconnected-(IC1-GPIO15{slash}UART_RX-Pad10)*%
X46970000Y-28670000D03*
%TO.P,IC1,11,GPIO17//~{SPI1_CE1}*%
%TO.N,unconnected-(IC1-GPIO17{slash}{slash}~{SPI1_CE1}-Pad11)*%
X44430000Y-25330000D03*
%TO.P,IC1,12,GPIO18//~{SPI1_CE0}*%
%TO.N,unconnected-(IC1-GPIO18{slash}{slash}~{SPI1_CE0}-Pad12)*%
X44430000Y-28670000D03*
%TO.P,IC1,13,GPIO27*%
%TO.N,/KEY_Y*%
X41890000Y-25330000D03*
%TO.P,IC1,14,GND*%
%TO.N,/GND*%
X41890000Y-28670000D03*
%TO.P,IC1,15,GPIO22*%
%TO.N,/KEY_A*%
X39350000Y-25330000D03*
%TO.P,IC1,16,GPIO23*%
%TO.N,/KEY_B*%
X39350000Y-28670000D03*
%TO.P,IC1,17,3V3*%
%TO.N,unconnected-(IC1-3V3-Pad17)*%
X36810000Y-25330000D03*
%TO.P,IC1,18,GPIO24*%
%TO.N,/KEY_X*%
X36810000Y-28670000D03*
%TO.P,IC1,19,GPIO10/SPI0_MOSI*%
%TO.N,unconnected-(IC1-GPIO10{slash}SPI0_MOSI-Pad19)*%
X34270000Y-25330000D03*
%TO.P,IC1,20,GND*%
%TO.N,/GND*%
X34270000Y-28670000D03*
%TO.P,IC1,21,GPIO9/SPI0_MISO*%
%TO.N,unconnected-(IC1-GPIO9{slash}SPI0_MISO-Pad21)*%
X31730000Y-25330000D03*
%TO.P,IC1,22,GPIO25*%
%TO.N,/KEY_RIGHT*%
X31730000Y-28670000D03*
%TO.P,IC1,23,GPIO11/SPI0_SCLK*%
%TO.N,unconnected-(IC1-GPIO11{slash}SPI0_SCLK-Pad23)*%
X29190000Y-25330000D03*
%TO.P,IC1,24,GPIO8/~{SPI0_CE0}*%
%TO.N,unconnected-(IC1-GPIO8{slash}~{SPI0_CE0}-Pad24)*%
X29190000Y-28670000D03*
%TO.P,IC1,25,GND*%
%TO.N,/GND*%
X26650000Y-25330000D03*
%TO.P,IC1,26,GPIO7/~{SPI0_CE1}*%
%TO.N,unconnected-(IC1-GPIO7{slash}~{SPI0_CE1}-Pad26)*%
X26650000Y-28670000D03*
%TO.P,IC1,27,GPIO0/I2C0_SDA*%
%TO.N,unconnected-(IC1-GPIO0{slash}I2C0_SDA-Pad27)*%
X24110000Y-25330000D03*
%TO.P,IC1,28,GPIO1/I2C0_SCL*%
%TO.N,unconnected-(IC1-GPIO1{slash}I2C0_SCL-Pad28)*%
X24110000Y-28670000D03*
%TO.P,IC1,29,GPIO5/GCLK1*%
%TO.N,/KEY_DOWN*%
X21570000Y-25330000D03*
%TO.P,IC1,30,GND*%
%TO.N,/GND*%
X21570000Y-28670000D03*
%TO.P,IC1,31,GPIO6/GCLK2*%
%TO.N,/KEY_UP*%
X19030000Y-25330000D03*
%TO.P,IC1,32,GPIO12/PWM0*%
%TO.N,/PWM_L*%
X19030000Y-28670000D03*
%TO.P,IC1,33,GPIO13/PWM1*%
%TO.N,/PWM_R*%
X16490000Y-25330000D03*
%TO.P,IC1,34,GND*%
%TO.N,/GND*%
X16490000Y-28670000D03*
%TO.P,IC1,35,GPIO19/SPI1_MISO*%
%TO.N,unconnected-(IC1-GPIO19{slash}SPI1_MISO-Pad35)*%
X13950000Y-25330000D03*
%TO.P,IC1,36,GPIO16/~{SPI1_CE2}*%
%TO.N,unconnected-(IC1-GPIO16{slash}~{SPI1_CE2}-Pad36)*%
X13950000Y-28670000D03*
%TO.P,IC1,37,GPIO26*%
%TO.N,/KEY_LEFT*%
X11410000Y-25330000D03*
%TO.P,IC1,38,GPIO20/SPI1_MOSI*%
%TO.N,unconnected-(IC1-GPIO20{slash}SPI1_MOSI-Pad38)*%
X11410000Y-28670000D03*
%TO.P,IC1,39,GND*%
%TO.N,/GND*%
X8870000Y-25330000D03*
%TO.P,IC1,40,GPIO21/SPI1_SCLK*%
%TO.N,unconnected-(IC1-GPIO21{slash}SPI1_SCLK-Pad40)*%
X8870000Y-28670000D03*
%TD*%
D19*
%TO.N,/GND*%
X58563000Y-6477000D03*
X28080000Y-20220000D03*
X25830000Y-9460000D03*
X15280000Y-22910000D03*
%TO.N,/KEY_RIGHT*%
X28288115Y-22437707D03*
%TO.N,/KEY_DOWN*%
X21530000Y-22596646D03*
%TO.N,Net-(C2-Pad2)*%
X27110000Y-2980000D03*
%TO.N,Net-(C3-Pad2)*%
X25670000Y-15120000D03*
X51070000Y-5060000D03*
%TO.N,Net-(C4-Pad2)*%
X42910000Y-5400000D03*
%TO.N,/KEY_UP*%
X18660000Y-22810000D03*
%TO.N,/KEY_ALT*%
X54540000Y-19781000D03*
%TD*%
D20*
%TO.N,/GND*%
X25830000Y-9460000D02*
X25780000Y-9460000D01*
X25797000Y-11252721D02*
X23873924Y-13175797D01*
D21*
X10779123Y-5402480D02*
X10779124Y-6127876D01*
D20*
X24320000Y-9775720D02*
X24892140Y-10347860D01*
D22*
X25797000Y-11252721D02*
X25797002Y-11252722D01*
D20*
X25830000Y-1690000D02*
X24320000Y-3200000D01*
D21*
X45763000Y-8763000D02*
X52237000Y-8763000D01*
D20*
X63250000Y-8750000D02*
X64991000Y-10491000D01*
X56750000Y-6320000D02*
X56750000Y-8750000D01*
X35000000Y-2250000D02*
X52680000Y-2250000D01*
D21*
X12824203Y-14326076D02*
X11673924Y-13175797D01*
D20*
X56907000Y-6477000D02*
X56750000Y-6320000D01*
X27170000Y-14800000D02*
X27170000Y-12625720D01*
X15250000Y-21813759D02*
X15250000Y-21711879D01*
X24320000Y-3200000D02*
X24320000Y-9775720D01*
D21*
X30950002Y-17150000D02*
X37450000Y-17150000D01*
D20*
X25780000Y-9460000D02*
X24892140Y-10347860D01*
D21*
X56750000Y-8750000D02*
X63250000Y-8750000D01*
X63250000Y-21250000D02*
X56750000Y-21250000D01*
D20*
X15280000Y-22910000D02*
X15280000Y-21843759D01*
X64991000Y-19509000D02*
X63250000Y-21250000D01*
X23873924Y-16013924D02*
X28080000Y-20220000D01*
X64991000Y-10491000D02*
X64991000Y-19509000D01*
X27170000Y-12625720D02*
X25797002Y-11252722D01*
D23*
X15280000Y-21843759D02*
X15250000Y-21813759D01*
D22*
X46970000Y-24255000D02*
X46970000Y-25730000D01*
D20*
X52680000Y-2250000D02*
X56750000Y-6320000D01*
D22*
X19872124Y-8053727D02*
X19872124Y-8680124D01*
D21*
X19872124Y-8053727D02*
X19872124Y-9173997D01*
X45750000Y-21250000D02*
X52250000Y-21250000D01*
D20*
X58563000Y-6477000D02*
X56907000Y-6477000D01*
D21*
X19872124Y-8053727D02*
X16143727Y-8053727D01*
D20*
X15250000Y-21711879D02*
X11865997Y-18327876D01*
D21*
X12510801Y-4420801D02*
X11760801Y-4420801D01*
D20*
X38190000Y-16410000D02*
X37450000Y-17150000D01*
X27674336Y-1660000D02*
X27644336Y-1690000D01*
D21*
X15175797Y-14326076D02*
X12824203Y-14326076D01*
D20*
X27644336Y-1690000D02*
X25830000Y-1690000D01*
D21*
X14055527Y-2126076D02*
X10779123Y-5402480D01*
D20*
X30950002Y-17150000D02*
X29520000Y-17150000D01*
D21*
X16143727Y-8053727D02*
X12510801Y-4420801D01*
D20*
X31080000Y-2250000D02*
X30490000Y-1660000D01*
D22*
X23873924Y-12681924D02*
X23873924Y-13175797D01*
D21*
X9597975Y-6127876D02*
X7672124Y-8053727D01*
X11760801Y-4420801D02*
X10053727Y-6127876D01*
D20*
X30490000Y-1660000D02*
X27674336Y-1660000D01*
D21*
X56750000Y-8750000D02*
X52250000Y-8750000D01*
D20*
X11865997Y-18327876D02*
X10053727Y-18327876D01*
D22*
X52237000Y-8763000D02*
X52250000Y-8750000D01*
D20*
X23873924Y-13175797D02*
X23873924Y-16013924D01*
X29520000Y-17150000D02*
X27170000Y-14800000D01*
D21*
X52250000Y-21250000D02*
X56750000Y-21250000D01*
D22*
X56214961Y-21250000D02*
X56750000Y-21250000D01*
X45750000Y-8750000D02*
X45763000Y-8763000D01*
D21*
X19872124Y-9173997D02*
X23873924Y-13175797D01*
D22*
X56750000Y-8750000D02*
X56750000Y-8290000D01*
D21*
X15175797Y-2126076D02*
X14055527Y-2126076D01*
D20*
X35000000Y-2250000D02*
X31080000Y-2250000D01*
X24892140Y-10347860D02*
X25797002Y-11252722D01*
D22*
X56750000Y-7596000D02*
X56750000Y-8750000D01*
%TO.N,/KEY_RIGHT*%
X20327876Y-15612876D02*
X20327876Y-15946273D01*
D20*
X26067707Y-22437707D02*
X28288115Y-22437707D01*
X20327876Y-16697876D02*
X26067707Y-22437707D01*
X20327876Y-15946273D02*
X20327876Y-16697876D01*
D21*
X16326076Y-11944473D02*
X20327876Y-15946273D01*
D22*
X16326076Y-10824203D02*
X16326076Y-11611076D01*
D21*
X16326076Y-10824203D02*
X16326076Y-11944473D01*
X20327876Y-15612876D02*
X20327876Y-14826003D01*
D20*
%TO.N,/KEY_DOWN*%
X21530000Y-21455851D02*
X21530000Y-22596646D01*
X17946273Y-17872124D02*
X21530000Y-21455851D01*
D22*
%TO.N,Net-(C2-Pad2)*%
X30400000Y-13250000D02*
X30900000Y-13750000D01*
D24*
X30400000Y-6550000D02*
X30400000Y-13250000D01*
D20*
X27110000Y-3260000D02*
X30400000Y-6550000D01*
X27110000Y-2980000D02*
X27110000Y-3260000D01*
D21*
%TO.N,/KEY_B*%
X56750000Y-16750000D02*
X63250000Y-16750000D01*
D20*
%TO.N,Net-(C3-Pad2)*%
X45940000Y-5110000D02*
X51020000Y-5110000D01*
X25856962Y-15504750D02*
X29782212Y-19430000D01*
X29782212Y-19430000D02*
X40510000Y-19430000D01*
X51020000Y-5110000D02*
X51070000Y-5060000D01*
D22*
X25856962Y-15504750D02*
X25856962Y-15306962D01*
D20*
X43320000Y-16620000D02*
X43320000Y-7730000D01*
X40510000Y-19430000D02*
X43320000Y-16620000D01*
D22*
X25856962Y-15306962D02*
X25670000Y-15120000D01*
D20*
X43320000Y-7730000D02*
X45940000Y-5110000D01*
%TO.N,Net-(C4-Pad2)*%
X40200000Y-10550000D02*
X40200000Y-8110000D01*
X40200000Y-8110000D02*
X42910000Y-5400000D01*
D24*
X40200000Y-10550000D02*
X38800000Y-10550000D01*
X38800000Y-10550000D02*
X37600000Y-9350000D01*
D20*
%TO.N,/KEY_UP*%
X9200000Y-13350000D02*
X18660000Y-22810000D01*
D22*
X19030000Y-25730000D02*
X18812000Y-25512000D01*
X17946273Y-5672124D02*
X17457876Y-5672124D01*
X13456076Y-9673924D02*
X12824203Y-9673924D01*
D20*
X9200000Y-11832461D02*
X9200000Y-13350000D01*
X12824203Y-9673924D02*
X11358537Y-9673924D01*
X11358537Y-9673924D02*
X9200000Y-11832461D01*
D21*
%TO.N,/KEY_X*%
X45750000Y-13250000D02*
X52250000Y-13250000D01*
D22*
%TO.N,/KEY_LEFT*%
X8127876Y-15350876D02*
X8127876Y-15946273D01*
D21*
X4126076Y-11349076D02*
X8127876Y-15350876D01*
D22*
X11410000Y-25730000D02*
X11319000Y-25639000D01*
D21*
X4126076Y-10824203D02*
X4126076Y-11349076D01*
D20*
%TO.N,/KEY_ALT*%
X37450000Y-21650000D02*
X41640000Y-21650000D01*
X53919000Y-19160000D02*
X54540000Y-19781000D01*
X41640000Y-21650000D02*
X44130000Y-19160000D01*
D22*
X37250000Y-21750000D02*
X37551428Y-21448572D01*
X49510000Y-25730000D02*
X49510000Y-24420000D01*
D20*
X44130000Y-19160000D02*
X53919000Y-19160000D01*
D21*
X30950000Y-21650000D02*
X37450000Y-21650000D01*
D22*
%TO.N,/KEY_A*%
X39350000Y-25730000D02*
X39350000Y-24509865D01*
D21*
X52250000Y-16750000D02*
X45750000Y-16750000D01*
D22*
%TO.N,/KEY_Y*%
X41890000Y-25730000D02*
X41890000Y-23960000D01*
D21*
X56750000Y-13250000D02*
X63250000Y-13250000D01*
D22*
X62000001Y-13250000D02*
X63250000Y-13250000D01*
%TD*%
%TA.AperFunction,Conductor*%
%TO.N,/GND*%
G36*
X9494616Y-6359467D02*
G01*
X9573608Y-6496284D01*
X9685319Y-6607995D01*
X9777297Y-6661099D01*
X9275896Y-7052836D01*
X9273309Y-7073909D01*
X9245601Y-7138050D01*
X9226575Y-7156510D01*
X8256054Y-7914763D01*
X8231235Y-7822136D01*
X8152243Y-7685319D01*
X8040532Y-7573608D01*
X7948550Y-7520502D01*
X8449952Y-7128765D01*
X8452539Y-7107695D01*
X8480246Y-7043554D01*
X8499273Y-7025093D01*
X9469795Y-6266837D01*
X9494616Y-6359467D01*
G37*
%TD.AperFunction*%
%TA.AperFunction,Conductor*%
G36*
X14248878Y-420185D02*
G01*
X14294633Y-472989D01*
X14304577Y-542147D01*
X14300578Y-550901D01*
X14295392Y-593141D01*
X15036835Y-1542145D01*
X14944206Y-1566965D01*
X14807389Y-1645957D01*
X14695678Y-1757668D01*
X14642572Y-1849648D01*
X13901386Y-900972D01*
X13606622Y-1131268D01*
X13537729Y-1193234D01*
X13398487Y-1366638D01*
X13293474Y-1562678D01*
X13226274Y-1774667D01*
X13199171Y-1995413D01*
X13213089Y-2217366D01*
X13267555Y-2432982D01*
X13360713Y-2634923D01*
X13412572Y-2711723D01*
X13412577Y-2711730D01*
X13642861Y-3006479D01*
X13642862Y-3006479D01*
X14591865Y-2265036D01*
X14616686Y-2357667D01*
X14695678Y-2494484D01*
X14807389Y-2606195D01*
X14899367Y-2659299D01*
X13950693Y-3400484D01*
X13950693Y-3400485D01*
X14180978Y-3695236D01*
X14180987Y-3695248D01*
X14242955Y-3764144D01*
X14416359Y-3903385D01*
X14612399Y-4008398D01*
X14824388Y-4075598D01*
X15045134Y-4102701D01*
X15267087Y-4088783D01*
X15482703Y-4034317D01*
X15684647Y-3941157D01*
X15761435Y-3889308D01*
X16056200Y-3659010D01*
X16056200Y-3659009D01*
X15314758Y-2710006D01*
X15407388Y-2685187D01*
X15544205Y-2606195D01*
X15655916Y-2494484D01*
X15709020Y-2402504D01*
X16450205Y-3351178D01*
X16450206Y-3351178D01*
X16744957Y-3120894D01*
X16744969Y-3120885D01*
X16813865Y-3058917D01*
X16953108Y-2885511D01*
X16953110Y-2885508D01*
X16991296Y-2814224D01*
X17058118Y-2689476D01*
X17058118Y-2689475D01*
X17125319Y-2477484D01*
X17152422Y-2256738D01*
X17138504Y-2034785D01*
X17084038Y-1819169D01*
X16990880Y-1617228D01*
X16939021Y-1540428D01*
X16939016Y-1540421D01*
X16708731Y-1245671D01*
X16708730Y-1245671D01*
X15759727Y-1987112D01*
X15734908Y-1894485D01*
X15655916Y-1757668D01*
X15544205Y-1645957D01*
X15452223Y-1592851D01*
X16400899Y-851666D01*
X16400899Y-851665D01*
X16204935Y-600842D01*
X16179173Y-535895D01*
X16192613Y-467330D01*
X16240989Y-416917D01*
X16302648Y-400500D01*
X33009664Y-400500D01*
X33076703Y-420185D01*
X33122458Y-472989D01*
X33132402Y-542147D01*
X33103377Y-605703D01*
X33085150Y-622876D01*
X32928480Y-743092D01*
X32928473Y-743098D01*
X32743098Y-928473D01*
X32743092Y-928480D01*
X32583496Y-1136471D01*
X32452409Y-1363517D01*
X32452404Y-1363528D01*
X32352075Y-1605744D01*
X32284221Y-1858983D01*
X32265654Y-1999999D01*
X32265655Y-2000000D01*
X33966988Y-2000000D01*
X33934075Y-2057007D01*
X33900000Y-2184174D01*
X33900000Y-2315826D01*
X33934075Y-2442993D01*
X33966988Y-2500000D01*
X32265655Y-2500000D01*
X32284221Y-2641016D01*
X32352075Y-2894255D01*
X32452404Y-3136471D01*
X32452409Y-3136482D01*
X32583496Y-3363528D01*
X32743092Y-3571519D01*
X32743098Y-3571526D01*
X32928473Y-3756901D01*
X32928480Y-3756907D01*
X33136471Y-3916503D01*
X33363517Y-4047590D01*
X33363528Y-4047595D01*
X33605744Y-4147924D01*
X33858979Y-4215777D01*
X33858990Y-4215779D01*
X34118905Y-4249999D01*
X34118920Y-4250000D01*
X34750000Y-4250000D01*
X34750000Y-2750000D01*
X35250000Y-2750000D01*
X35250000Y-4250000D01*
X35881080Y-4250000D01*
X35881094Y-4249999D01*
X36141009Y-4215779D01*
X36141020Y-4215777D01*
X36394255Y-4147924D01*
X36636471Y-4047595D01*
X36636482Y-4047590D01*
X36863528Y-3916503D01*
X37071519Y-3756907D01*
X37071526Y-3756901D01*
X37256901Y-3571526D01*
X37256907Y-3571519D01*
X37416503Y-3363528D01*
X37547590Y-3136482D01*
X37547595Y-3136471D01*
X37647924Y-2894255D01*
X37715778Y-2641016D01*
X37734345Y-2500000D01*
X36033012Y-2500000D01*
X36065925Y-2442993D01*
X36100000Y-2315826D01*
X36100000Y-2184174D01*
X36065925Y-2057007D01*
X36033012Y-2000000D01*
X37734345Y-2000000D01*
X37734345Y-1999999D01*
X37715778Y-1858983D01*
X37647924Y-1605744D01*
X37547595Y-1363528D01*
X37547590Y-1363517D01*
X37416503Y-1136471D01*
X37256907Y-928480D01*
X37256901Y-928473D01*
X37071526Y-743098D01*
X37071519Y-743092D01*
X36914850Y-622876D01*
X36873647Y-566448D01*
X36869492Y-496702D01*
X36903704Y-435782D01*
X36965421Y-403029D01*
X36990336Y-400500D01*
X65475500Y-400500D01*
X65542539Y-420185D01*
X65588294Y-472989D01*
X65599500Y-524500D01*
X65599500Y-30475500D01*
X65579815Y-30542539D01*
X65527011Y-30588294D01*
X65475500Y-30599500D01*
X57657527Y-30599500D01*
X57590488Y-30579815D01*
X57544733Y-30527011D01*
X57534789Y-30457853D01*
X57563814Y-30394297D01*
X57601232Y-30365015D01*
X57607964Y-30361585D01*
X57706788Y-30311232D01*
X57846928Y-30209414D01*
X57969414Y-30086928D01*
X58071232Y-29946788D01*
X58149873Y-29792445D01*
X58203402Y-29627701D01*
X58230500Y-29456611D01*
X58230500Y-27883389D01*
X58203402Y-27712299D01*
X58149873Y-27547555D01*
X58071232Y-27393212D01*
X57969414Y-27253072D01*
X57846928Y-27130586D01*
X57805265Y-27100316D01*
X57791782Y-27082830D01*
X57774876Y-27068628D01*
X57770865Y-27055704D01*
X57762602Y-27044988D01*
X57760712Y-27022985D01*
X57754168Y-27001897D01*
X57757781Y-26988857D01*
X57756623Y-26975374D01*
X57766928Y-26955843D01*
X57772824Y-26934565D01*
X57785147Y-26921315D01*
X57789229Y-26913579D01*
X57795526Y-26907541D01*
X57800200Y-26903363D01*
X57818334Y-26890188D01*
X60324500Y-26890188D01*
X60324500Y-27109811D01*
X60324501Y-27109828D01*
X60353167Y-27327573D01*
X60410014Y-27539729D01*
X60483230Y-27716487D01*
X60494065Y-27742645D01*
X60603884Y-27932855D01*
X60603889Y-27932861D01*
X60603890Y-27932863D01*
X60737588Y-28107102D01*
X60737594Y-28107109D01*
X60892890Y-28262405D01*
X60892897Y-28262411D01*
X61016977Y-28357621D01*
X61067145Y-28396116D01*
X61257355Y-28505935D01*
X61358814Y-28547960D01*
X61460270Y-28589985D01*
X61460271Y-28589985D01*
X61460273Y-28589986D01*
X61672425Y-28646832D01*
X61890182Y-28675500D01*
X61890189Y-28675500D01*
X62109811Y-28675500D01*
X62109818Y-28675500D01*
X62327575Y-28646832D01*
X62539727Y-28589986D01*
X62742645Y-28505935D01*
X62932855Y-28396116D01*
X63107104Y-28262410D01*
X63262410Y-28107104D01*
X63396116Y-27932855D01*
X63505935Y-27742645D01*
X63589986Y-27539727D01*
X63646832Y-27327575D01*
X63675500Y-27109818D01*
X63675500Y-26890182D01*
X63646832Y-26672425D01*
X63589986Y-26460273D01*
X63586744Y-26452447D01*
X63528035Y-26310710D01*
X63505935Y-26257355D01*
X63396116Y-26067145D01*
X63262410Y-25892896D01*
X63262405Y-25892890D01*
X63107109Y-25737594D01*
X63107102Y-25737588D01*
X62932863Y-25603890D01*
X62932861Y-25603889D01*
X62932855Y-25603884D01*
X62742645Y-25494065D01*
X62742641Y-25494063D01*
X62539729Y-25410014D01*
X62327573Y-25353167D01*
X62109828Y-25324501D01*
X62109823Y-25324500D01*
X62109818Y-25324500D01*
X61890182Y-25324500D01*
X61890176Y-25324500D01*
X61890171Y-25324501D01*
X61672426Y-25353167D01*
X61460270Y-25410014D01*
X61257358Y-25494063D01*
X61257354Y-25494065D01*
X61067145Y-25603884D01*
X61067136Y-25603890D01*
X60892897Y-25737588D01*
X60892890Y-25737594D01*
X60737594Y-25892890D01*
X60737588Y-25892897D01*
X60603890Y-26067136D01*
X60603884Y-26067145D01*
X60494065Y-26257354D01*
X60494063Y-26257358D01*
X60410014Y-26460270D01*
X60353167Y-26672426D01*
X60324501Y-26890171D01*
X60324500Y-26890188D01*
X57818334Y-26890188D01*
X57846928Y-26869414D01*
X57969414Y-26746928D01*
X58071232Y-26606788D01*
X58149873Y-26452445D01*
X58203402Y-26287701D01*
X58230500Y-26116611D01*
X58230500Y-24543389D01*
X58203402Y-24372299D01*
X58149873Y-24207555D01*
X58071232Y-24053212D01*
X57969414Y-23913072D01*
X57846928Y-23790586D01*
X57706788Y-23688768D01*
X57552445Y-23610127D01*
X57387701Y-23556598D01*
X57387699Y-23556597D01*
X57387698Y-23556597D01*
X57248836Y-23534604D01*
X57216611Y-23529500D01*
X57043389Y-23529500D01*
X57011164Y-23534604D01*
X56872302Y-23556597D01*
X56707552Y-23610128D01*
X56553211Y-23688768D01*
X56528291Y-23706874D01*
X56413072Y-23790586D01*
X56413070Y-23790588D01*
X56413069Y-23790588D01*
X56290588Y-23913069D01*
X56290588Y-23913070D01*
X56290586Y-23913072D01*
X56283891Y-23922287D01*
X56188768Y-24053211D01*
X56110128Y-24207552D01*
X56056597Y-24372302D01*
X56029500Y-24543389D01*
X56029500Y-26116610D01*
X56055934Y-26283512D01*
X56056598Y-26287701D01*
X56110127Y-26452445D01*
X56188768Y-26606788D01*
X56290586Y-26746928D01*
X56290588Y-26746930D01*
X56413072Y-26869414D01*
X56454733Y-26899683D01*
X56497398Y-26955013D01*
X56503376Y-27024627D01*
X56470769Y-27086421D01*
X56454733Y-27100317D01*
X56413072Y-27130585D01*
X56290588Y-27253069D01*
X56290588Y-27253070D01*
X56290586Y-27253072D01*
X56264737Y-27288650D01*
X56188768Y-27393211D01*
X56110128Y-27547552D01*
X56056597Y-27712302D01*
X56029500Y-27883389D01*
X56029500Y-29456610D01*
X56055934Y-29623512D01*
X56056598Y-29627701D01*
X56110127Y-29792445D01*
X56188768Y-29946788D01*
X56290586Y-30086928D01*
X56413072Y-30209414D01*
X56553212Y-30311232D01*
X56652036Y-30361585D01*
X56658768Y-30365015D01*
X56709564Y-30412989D01*
X56726359Y-30480810D01*
X56703822Y-30546945D01*
X56649107Y-30590397D01*
X56602473Y-30599500D01*
X55117527Y-30599500D01*
X55050488Y-30579815D01*
X55004733Y-30527011D01*
X54994789Y-30457853D01*
X55023814Y-30394297D01*
X55061232Y-30365015D01*
X55067964Y-30361585D01*
X55166788Y-30311232D01*
X55306928Y-30209414D01*
X55429414Y-30086928D01*
X55531232Y-29946788D01*
X55609873Y-29792445D01*
X55663402Y-29627701D01*
X55690500Y-29456611D01*
X55690500Y-27883389D01*
X55663402Y-27712299D01*
X55609873Y-27547555D01*
X55531232Y-27393212D01*
X55429414Y-27253072D01*
X55306928Y-27130586D01*
X55265265Y-27100316D01*
X55222602Y-27044988D01*
X55216623Y-26975374D01*
X55249229Y-26913579D01*
X55265266Y-26899683D01*
X55306928Y-26869414D01*
X55429414Y-26746928D01*
X55531232Y-26606788D01*
X55609873Y-26452445D01*
X55663402Y-26287701D01*
X55690500Y-26116611D01*
X55690500Y-24543389D01*
X55663402Y-24372299D01*
X55609873Y-24207555D01*
X55531232Y-24053212D01*
X55429414Y-23913072D01*
X55306928Y-23790586D01*
X55166788Y-23688768D01*
X55012445Y-23610127D01*
X54847701Y-23556598D01*
X54847699Y-23556597D01*
X54847698Y-23556597D01*
X54708836Y-23534604D01*
X54676611Y-23529500D01*
X54503389Y-23529500D01*
X54471164Y-23534604D01*
X54332302Y-23556597D01*
X54167552Y-23610128D01*
X54013211Y-23688768D01*
X53988291Y-23706874D01*
X53873072Y-23790586D01*
X53873070Y-23790588D01*
X53873069Y-23790588D01*
X53750588Y-23913069D01*
X53750588Y-23913070D01*
X53750586Y-23913072D01*
X53743891Y-23922287D01*
X53648768Y-24053211D01*
X53570128Y-24207552D01*
X53516597Y-24372302D01*
X53489500Y-24543389D01*
X53489500Y-26116610D01*
X53515934Y-26283512D01*
X53516598Y-26287701D01*
X53570127Y-26452445D01*
X53648768Y-26606788D01*
X53750586Y-26746928D01*
X53750588Y-26746930D01*
X53873072Y-26869414D01*
X53914733Y-26899683D01*
X53957398Y-26955013D01*
X53963376Y-27024627D01*
X53930769Y-27086421D01*
X53914733Y-27100317D01*
X53873072Y-27130585D01*
X53750588Y-27253069D01*
X53750588Y-27253070D01*
X53750586Y-27253072D01*
X53724737Y-27288650D01*
X53648768Y-27393211D01*
X53570129Y-27547549D01*
X53542814Y-27631615D01*
X53503375Y-27689290D01*
X53439016Y-27716487D01*
X53370170Y-27704572D01*
X53318695Y-27657327D01*
X53306952Y-27631613D01*
X53254755Y-27470970D01*
X53161859Y-27288650D01*
X53041582Y-27123105D01*
X53041582Y-27123104D01*
X52896895Y-26978417D01*
X52896889Y-26978412D01*
X52875940Y-26963191D01*
X52833276Y-26907860D01*
X52827298Y-26838247D01*
X52859906Y-26776453D01*
X52861017Y-26775324D01*
X52889414Y-26746928D01*
X52991232Y-26606788D01*
X53069873Y-26452445D01*
X53123402Y-26287701D01*
X53150500Y-26116611D01*
X53150500Y-24543389D01*
X53123402Y-24372299D01*
X53069873Y-24207555D01*
X52991232Y-24053212D01*
X52889414Y-23913072D01*
X52766928Y-23790586D01*
X52626788Y-23688768D01*
X52472445Y-23610127D01*
X52307701Y-23556598D01*
X52307699Y-23556597D01*
X52307698Y-23556597D01*
X52168836Y-23534604D01*
X52136611Y-23529500D01*
X51963389Y-23529500D01*
X51931164Y-23534604D01*
X51792302Y-23556597D01*
X51627552Y-23610128D01*
X51473211Y-23688768D01*
X51448291Y-23706874D01*
X51333072Y-23790586D01*
X51333070Y-23790588D01*
X51333069Y-23790588D01*
X51210588Y-23913069D01*
X51210588Y-23913070D01*
X51210586Y-23913072D01*
X51203891Y-23922287D01*
X51108768Y-24053211D01*
X51030128Y-24207552D01*
X50976597Y-24372302D01*
X50949500Y-24543389D01*
X50949500Y-26116610D01*
X50975934Y-26283512D01*
X50976598Y-26287701D01*
X51030127Y-26452445D01*
X51108768Y-26606788D01*
X51210586Y-26746928D01*
X51210588Y-26746930D01*
X51238852Y-26775194D01*
X51272337Y-26836517D01*
X51267353Y-26906209D01*
X51225481Y-26962142D01*
X51224061Y-26963190D01*
X51203107Y-26978414D01*
X51058417Y-27123104D01*
X51058417Y-27123105D01*
X50938140Y-27288650D01*
X50845244Y-27470968D01*
X50793047Y-27631614D01*
X50753609Y-27689289D01*
X50689250Y-27716487D01*
X50620404Y-27704572D01*
X50568928Y-27657328D01*
X50557186Y-27631615D01*
X50529873Y-27547555D01*
X50451232Y-27393212D01*
X50349414Y-27253072D01*
X50226928Y-27130586D01*
X50185265Y-27100316D01*
X50142602Y-27044988D01*
X50136623Y-26975374D01*
X50169229Y-26913579D01*
X50185266Y-26899683D01*
X50226928Y-26869414D01*
X50349414Y-26746928D01*
X50451232Y-26606788D01*
X50529873Y-26452445D01*
X50583402Y-26287701D01*
X50610500Y-26116611D01*
X50610500Y-24543389D01*
X50583402Y-24372299D01*
X50529873Y-24207555D01*
X50451232Y-24053212D01*
X50349414Y-23913072D01*
X50226928Y-23790586D01*
X50086788Y-23688768D01*
X49932445Y-23610127D01*
X49767701Y-23556598D01*
X49767699Y-23556597D01*
X49767698Y-23556597D01*
X49628836Y-23534604D01*
X49596611Y-23529500D01*
X49423389Y-23529500D01*
X49391164Y-23534604D01*
X49252302Y-23556597D01*
X49087552Y-23610128D01*
X48933211Y-23688768D01*
X48908291Y-23706874D01*
X48793072Y-23790586D01*
X48793070Y-23790588D01*
X48793069Y-23790588D01*
X48670588Y-23913069D01*
X48670588Y-23913070D01*
X48670586Y-23913072D01*
X48663891Y-23922287D01*
X48568768Y-24053211D01*
X48490129Y-24207549D01*
X48462814Y-24291615D01*
X48423375Y-24349290D01*
X48359016Y-24376487D01*
X48290170Y-24364572D01*
X48238695Y-24317327D01*
X48226952Y-24291613D01*
X48174755Y-24130970D01*
X48081859Y-23948650D01*
X47961582Y-23783105D01*
X47961582Y-23783104D01*
X47816895Y-23638417D01*
X47651349Y-23518140D01*
X47469029Y-23425244D01*
X47274413Y-23362009D01*
X47220000Y-23353390D01*
X47220000Y-25206000D01*
X47200315Y-25273039D01*
X47191599Y-25280590D01*
X47162993Y-25264075D01*
X47035826Y-25230000D01*
X46904174Y-25230000D01*
X46777007Y-25264075D01*
X46750269Y-25279511D01*
X46731206Y-25257511D01*
X46720000Y-25206000D01*
X46720000Y-23353390D01*
X46665586Y-23362009D01*
X46470970Y-23425244D01*
X46288650Y-23518140D01*
X46123105Y-23638417D01*
X46123104Y-23638417D01*
X45978417Y-23783104D01*
X45978417Y-23783105D01*
X45858140Y-23948650D01*
X45765244Y-24130968D01*
X45713047Y-24291614D01*
X45673609Y-24349289D01*
X45609250Y-24376487D01*
X45540404Y-24364572D01*
X45488928Y-24317328D01*
X45477186Y-24291615D01*
X45449873Y-24207555D01*
X45371232Y-24053212D01*
X45269414Y-23913072D01*
X45146928Y-23790586D01*
X45006788Y-23688768D01*
X44852445Y-23610127D01*
X44687701Y-23556598D01*
X44687699Y-23556597D01*
X44687698Y-23556597D01*
X44548836Y-23534604D01*
X44516611Y-23529500D01*
X44343389Y-23529500D01*
X44311164Y-23534604D01*
X44172302Y-23556597D01*
X44007552Y-23610128D01*
X43853211Y-23688768D01*
X43828291Y-23706874D01*
X43713072Y-23790586D01*
X43713070Y-23790588D01*
X43713069Y-23790588D01*
X43590588Y-23913069D01*
X43590588Y-23913070D01*
X43590586Y-23913072D01*
X43583891Y-23922287D01*
X43488768Y-24053211D01*
X43410128Y-24207552D01*
X43356597Y-24372302D01*
X43329500Y-24543389D01*
X43329500Y-26116610D01*
X43355934Y-26283512D01*
X43356598Y-26287701D01*
X43410127Y-26452445D01*
X43488768Y-26606788D01*
X43590586Y-26746928D01*
X43590588Y-26746930D01*
X43713072Y-26869414D01*
X43754733Y-26899683D01*
X43797398Y-26955013D01*
X43803376Y-27024627D01*
X43770769Y-27086421D01*
X43754733Y-27100317D01*
X43713072Y-27130585D01*
X43590588Y-27253069D01*
X43590588Y-27253070D01*
X43590586Y-27253072D01*
X43564737Y-27288650D01*
X43488768Y-27393211D01*
X43410129Y-27547549D01*
X43382814Y-27631615D01*
X43343375Y-27689290D01*
X43279016Y-27716487D01*
X43210170Y-27704572D01*
X43158695Y-27657327D01*
X43146952Y-27631613D01*
X43094755Y-27470970D01*
X43001859Y-27288650D01*
X42881582Y-27123105D01*
X42881582Y-27123104D01*
X42736895Y-26978417D01*
X42736889Y-26978412D01*
X42715940Y-26963191D01*
X42673276Y-26907860D01*
X42667298Y-26838247D01*
X42699906Y-26776453D01*
X42701017Y-26775324D01*
X42729414Y-26746928D01*
X42831232Y-26606788D01*
X42909873Y-26452445D01*
X42963402Y-26287701D01*
X42990500Y-26116611D01*
X42990500Y-24543389D01*
X42963402Y-24372299D01*
X42909873Y-24207555D01*
X42831232Y-24053212D01*
X42729414Y-23913072D01*
X42606928Y-23790586D01*
X42593895Y-23781117D01*
X42552223Y-23728255D01*
X42510775Y-23628189D01*
X42510771Y-23628182D01*
X42434114Y-23513458D01*
X42434111Y-23513454D01*
X42336545Y-23415888D01*
X42336541Y-23415885D01*
X42221817Y-23339228D01*
X42221804Y-23339221D01*
X42094332Y-23286421D01*
X42094322Y-23286418D01*
X41958995Y-23259500D01*
X41958993Y-23259500D01*
X41821007Y-23259500D01*
X41821005Y-23259500D01*
X41685677Y-23286418D01*
X41685667Y-23286421D01*
X41558195Y-23339221D01*
X41558182Y-23339228D01*
X41443458Y-23415885D01*
X41443454Y-23415888D01*
X41345888Y-23513454D01*
X41345885Y-23513458D01*
X41269228Y-23628182D01*
X41269223Y-23628192D01*
X41227776Y-23728255D01*
X41186105Y-23781116D01*
X41173072Y-23790586D01*
X41173068Y-23790589D01*
X41050585Y-23913073D01*
X40948768Y-24053211D01*
X40870128Y-24207552D01*
X40816597Y-24372302D01*
X40789500Y-24543389D01*
X40789500Y-26116610D01*
X40815934Y-26283512D01*
X40816598Y-26287701D01*
X40870127Y-26452445D01*
X40948768Y-26606788D01*
X41050586Y-26746928D01*
X41050588Y-26746930D01*
X41078852Y-26775194D01*
X41112337Y-26836517D01*
X41107353Y-26906209D01*
X41065481Y-26962142D01*
X41064061Y-26963190D01*
X41043107Y-26978414D01*
X40898417Y-27123104D01*
X40898417Y-27123105D01*
X40778140Y-27288650D01*
X40685244Y-27470968D01*
X40633047Y-27631614D01*
X40593609Y-27689289D01*
X40529250Y-27716487D01*
X40460404Y-27704572D01*
X40408928Y-27657328D01*
X40397186Y-27631615D01*
X40369873Y-27547555D01*
X40291232Y-27393212D01*
X40189414Y-27253072D01*
X40066928Y-27130586D01*
X40025265Y-27100316D01*
X39982602Y-27044988D01*
X39976623Y-26975374D01*
X40009229Y-26913579D01*
X40025266Y-26899683D01*
X40066928Y-26869414D01*
X40189414Y-26746928D01*
X40291232Y-26606788D01*
X40369873Y-26452445D01*
X40423402Y-26287701D01*
X40450500Y-26116611D01*
X40450500Y-24543389D01*
X40423402Y-24372299D01*
X40369873Y-24207555D01*
X40291232Y-24053212D01*
X40189414Y-23913072D01*
X40066928Y-23790586D01*
X39926788Y-23688768D01*
X39772445Y-23610127D01*
X39607701Y-23556598D01*
X39607699Y-23556597D01*
X39607698Y-23556597D01*
X39468836Y-23534604D01*
X39436611Y-23529500D01*
X39263389Y-23529500D01*
X39231164Y-23534604D01*
X39092302Y-23556597D01*
X38927552Y-23610128D01*
X38773211Y-23688768D01*
X38748291Y-23706874D01*
X38633072Y-23790586D01*
X38633070Y-23790588D01*
X38633069Y-23790588D01*
X38510588Y-23913069D01*
X38510588Y-23913070D01*
X38510586Y-23913072D01*
X38503891Y-23922287D01*
X38408768Y-24053211D01*
X38330128Y-24207552D01*
X38276597Y-24372302D01*
X38249500Y-24543389D01*
X38249500Y-26116610D01*
X38275934Y-26283512D01*
X38276598Y-26287701D01*
X38330127Y-26452445D01*
X38408768Y-26606788D01*
X38510586Y-26746928D01*
X38510588Y-26746930D01*
X38633072Y-26869414D01*
X38674733Y-26899683D01*
X38717398Y-26955013D01*
X38723376Y-27024627D01*
X38690769Y-27086421D01*
X38674733Y-27100317D01*
X38633072Y-27130585D01*
X38510588Y-27253069D01*
X38510588Y-27253070D01*
X38510586Y-27253072D01*
X38484737Y-27288650D01*
X38408768Y-27393211D01*
X38330128Y-27547552D01*
X38276597Y-27712302D01*
X38249500Y-27883389D01*
X38249500Y-29456610D01*
X38275934Y-29623512D01*
X38276598Y-29627701D01*
X38330127Y-29792445D01*
X38408768Y-29946788D01*
X38510586Y-30086928D01*
X38633072Y-30209414D01*
X38773212Y-30311232D01*
X38872036Y-30361585D01*
X38878768Y-30365015D01*
X38929564Y-30412989D01*
X38946359Y-30480810D01*
X38923822Y-30546945D01*
X38869107Y-30590397D01*
X38822473Y-30599500D01*
X37337527Y-30599500D01*
X37270488Y-30579815D01*
X37224733Y-30527011D01*
X37214789Y-30457853D01*
X37243814Y-30394297D01*
X37281232Y-30365015D01*
X37287964Y-30361585D01*
X37386788Y-30311232D01*
X37526928Y-30209414D01*
X37649414Y-30086928D01*
X37751232Y-29946788D01*
X37829873Y-29792445D01*
X37883402Y-29627701D01*
X37910500Y-29456611D01*
X37910500Y-27883389D01*
X37883402Y-27712299D01*
X37829873Y-27547555D01*
X37751232Y-27393212D01*
X37649414Y-27253072D01*
X37526928Y-27130586D01*
X37485265Y-27100316D01*
X37442602Y-27044988D01*
X37436623Y-26975374D01*
X37469229Y-26913579D01*
X37485266Y-26899683D01*
X37526928Y-26869414D01*
X37649414Y-26746928D01*
X37751232Y-26606788D01*
X37829873Y-26452445D01*
X37883402Y-26287701D01*
X37910500Y-26116611D01*
X37910500Y-24543389D01*
X37883402Y-24372299D01*
X37829873Y-24207555D01*
X37751232Y-24053212D01*
X37649414Y-23913072D01*
X37526928Y-23790586D01*
X37386788Y-23688768D01*
X37281232Y-23634985D01*
X37230436Y-23587011D01*
X37213641Y-23519190D01*
X37236178Y-23453055D01*
X37290893Y-23409603D01*
X37337527Y-23400500D01*
X38074096Y-23400500D01*
X38111082Y-23397932D01*
X38166567Y-23394081D01*
X38166573Y-23394079D01*
X38166577Y-23394079D01*
X38383135Y-23343145D01*
X38383135Y-23343144D01*
X38383143Y-23343143D01*
X38586671Y-23253277D01*
X38770221Y-23127542D01*
X38927542Y-22970221D01*
X39053277Y-22786671D01*
X39143143Y-22583143D01*
X39153047Y-22541030D01*
X39163613Y-22496111D01*
X39198123Y-22435358D01*
X39260000Y-22402908D01*
X39284319Y-22400500D01*
X41713920Y-22400500D01*
X41811462Y-22381096D01*
X41858913Y-22371658D01*
X41995495Y-22315084D01*
X42056844Y-22274092D01*
X42118416Y-22232952D01*
X43788321Y-20563046D01*
X43849642Y-20529563D01*
X43919334Y-20534547D01*
X43975267Y-20576419D01*
X43999684Y-20641883D01*
X44000000Y-20650729D01*
X44000000Y-21000000D01*
X45201518Y-21000000D01*
X45190889Y-21018409D01*
X45150000Y-21171009D01*
X45150000Y-21328991D01*
X45190889Y-21481591D01*
X45201518Y-21500000D01*
X44000001Y-21500000D01*
X44000001Y-21874067D01*
X44006415Y-21966491D01*
X44006417Y-21966507D01*
X44057330Y-22182975D01*
X44057336Y-22182991D01*
X44147160Y-22386424D01*
X44272843Y-22569899D01*
X44430100Y-22727156D01*
X44613575Y-22852839D01*
X44817008Y-22942663D01*
X44817024Y-22942669D01*
X45033491Y-22993582D01*
X45033507Y-22993584D01*
X45125931Y-22999999D01*
X45499999Y-22999999D01*
X45500000Y-22999998D01*
X45500000Y-21798482D01*
X45518409Y-21809111D01*
X45671009Y-21850000D01*
X45828991Y-21850000D01*
X45981591Y-21809111D01*
X46000000Y-21798482D01*
X46000000Y-22999999D01*
X46374068Y-22999999D01*
X46466491Y-22993584D01*
X46466507Y-22993582D01*
X46682975Y-22942669D01*
X46682991Y-22942663D01*
X46886424Y-22852839D01*
X47069899Y-22727156D01*
X47227156Y-22569899D01*
X47352839Y-22386424D01*
X47442663Y-22182991D01*
X47442669Y-22182975D01*
X47493582Y-21966508D01*
X47493584Y-21966492D01*
X47500000Y-21874068D01*
X47500000Y-21500000D01*
X46298482Y-21500000D01*
X46309111Y-21481591D01*
X46350000Y-21328991D01*
X46350000Y-21171009D01*
X46309111Y-21018409D01*
X46298482Y-21000000D01*
X47499999Y-21000000D01*
X47499999Y-20625932D01*
X47493584Y-20533508D01*
X47493582Y-20533492D01*
X47442669Y-20317024D01*
X47442663Y-20317008D01*
X47352838Y-20113573D01*
X47346677Y-20104579D01*
X47325029Y-20038148D01*
X47342732Y-19970558D01*
X47394168Y-19923270D01*
X47448975Y-19910500D01*
X50551025Y-19910500D01*
X50618064Y-19930185D01*
X50663819Y-19982989D01*
X50673763Y-20052147D01*
X50653323Y-20104579D01*
X50647161Y-20113573D01*
X50557336Y-20317008D01*
X50557330Y-20317024D01*
X50506417Y-20533491D01*
X50506415Y-20533507D01*
X50500000Y-20625931D01*
X50500000Y-21000000D01*
X51701518Y-21000000D01*
X51690889Y-21018409D01*
X51650000Y-21171009D01*
X51650000Y-21328991D01*
X51690889Y-21481591D01*
X51701518Y-21500000D01*
X50500001Y-21500000D01*
X50500001Y-21874067D01*
X50506415Y-21966491D01*
X50506417Y-21966507D01*
X50557330Y-22182975D01*
X50557336Y-22182991D01*
X50647160Y-22386424D01*
X50772843Y-22569899D01*
X50930100Y-22727156D01*
X51113575Y-22852839D01*
X51317008Y-22942663D01*
X51317024Y-22942669D01*
X51533491Y-22993582D01*
X51533507Y-22993584D01*
X51625931Y-22999999D01*
X51999999Y-22999999D01*
X52000000Y-22999998D01*
X52000000Y-21798482D01*
X52018409Y-21809111D01*
X52171009Y-21850000D01*
X52328991Y-21850000D01*
X52481591Y-21809111D01*
X52500000Y-21798482D01*
X52500000Y-22999999D01*
X52874068Y-22999999D01*
X52966491Y-22993584D01*
X52966507Y-22993582D01*
X53182975Y-22942669D01*
X53182991Y-22942663D01*
X53386424Y-22852839D01*
X53569899Y-22727156D01*
X53727156Y-22569899D01*
X53852839Y-22386424D01*
X53942663Y-22182991D01*
X53942669Y-22182975D01*
X53993582Y-21966508D01*
X53993584Y-21966492D01*
X54000000Y-21874068D01*
X54000000Y-21500000D01*
X52798482Y-21500000D01*
X52809111Y-21481591D01*
X52850000Y-21328991D01*
X52850000Y-21171009D01*
X52809111Y-21018409D01*
X52798482Y-21000000D01*
X54027694Y-21000000D01*
X54027972Y-20999848D01*
X54031016Y-21000000D01*
X54051361Y-21000000D01*
X54051361Y-21001016D01*
X54092667Y-21003078D01*
X54139849Y-21018409D01*
X54235465Y-21049477D01*
X54336557Y-21065488D01*
X54437648Y-21081500D01*
X54437649Y-21081500D01*
X54642351Y-21081500D01*
X54642352Y-21081500D01*
X54844534Y-21049477D01*
X54978132Y-21006068D01*
X55016446Y-21000000D01*
X56201518Y-21000000D01*
X56190889Y-21018409D01*
X56150000Y-21171009D01*
X56150000Y-21328991D01*
X56190889Y-21481591D01*
X56201518Y-21500000D01*
X55000001Y-21500000D01*
X55000001Y-21874067D01*
X55006415Y-21966491D01*
X55006417Y-21966507D01*
X55057330Y-22182975D01*
X55057336Y-22182991D01*
X55147160Y-22386424D01*
X55272843Y-22569899D01*
X55430100Y-22727156D01*
X55613575Y-22852839D01*
X55817008Y-22942663D01*
X55817024Y-22942669D01*
X56033491Y-22993582D01*
X56033507Y-22993584D01*
X56125931Y-22999999D01*
X56499999Y-22999999D01*
X56500000Y-22999998D01*
X56500000Y-21798482D01*
X56518409Y-21809111D01*
X56671009Y-21850000D01*
X56828991Y-21850000D01*
X56981591Y-21809111D01*
X57000000Y-21798482D01*
X57000000Y-22999999D01*
X57374068Y-22999999D01*
X57466491Y-22993584D01*
X57466507Y-22993582D01*
X57682975Y-22942669D01*
X57682991Y-22942663D01*
X57886424Y-22852839D01*
X58069899Y-22727156D01*
X58227156Y-22569899D01*
X58352839Y-22386424D01*
X58442663Y-22182991D01*
X58442669Y-22182975D01*
X58493582Y-21966508D01*
X58493584Y-21966492D01*
X58500000Y-21874068D01*
X58500000Y-21500000D01*
X57298482Y-21500000D01*
X57309111Y-21481591D01*
X57350000Y-21328991D01*
X57350000Y-21171009D01*
X57309111Y-21018409D01*
X57298482Y-21000000D01*
X58499999Y-21000000D01*
X58499999Y-20625932D01*
X58499999Y-20625931D01*
X61500000Y-20625931D01*
X61500000Y-21000000D01*
X62701518Y-21000000D01*
X62690889Y-21018409D01*
X62650000Y-21171009D01*
X62650000Y-21328991D01*
X62690889Y-21481591D01*
X62701518Y-21500000D01*
X61500001Y-21500000D01*
X61500001Y-21874067D01*
X61506415Y-21966491D01*
X61506417Y-21966507D01*
X61557330Y-22182975D01*
X61557336Y-22182991D01*
X61647160Y-22386424D01*
X61772843Y-22569899D01*
X61930100Y-22727156D01*
X62113575Y-22852839D01*
X62317008Y-22942663D01*
X62317024Y-22942669D01*
X62533491Y-22993582D01*
X62533507Y-22993584D01*
X62625931Y-22999999D01*
X62999999Y-22999999D01*
X63000000Y-22999998D01*
X63000000Y-21798482D01*
X63018409Y-21809111D01*
X63171009Y-21850000D01*
X63328991Y-21850000D01*
X63481591Y-21809111D01*
X63500000Y-21798482D01*
X63500000Y-22999999D01*
X63874068Y-22999999D01*
X63966491Y-22993584D01*
X63966507Y-22993582D01*
X64182975Y-22942669D01*
X64182991Y-22942663D01*
X64386424Y-22852839D01*
X64569899Y-22727156D01*
X64727156Y-22569899D01*
X64852839Y-22386424D01*
X64942663Y-22182991D01*
X64942669Y-22182975D01*
X64993582Y-21966508D01*
X64993584Y-21966492D01*
X65000000Y-21874068D01*
X65000000Y-21500000D01*
X63798482Y-21500000D01*
X63809111Y-21481591D01*
X63850000Y-21328991D01*
X63850000Y-21171009D01*
X63809111Y-21018409D01*
X63798482Y-21000000D01*
X64999999Y-21000000D01*
X64999999Y-20625932D01*
X64993584Y-20533508D01*
X64993582Y-20533492D01*
X64942669Y-20317024D01*
X64942663Y-20317008D01*
X64852839Y-20113575D01*
X64727156Y-19930100D01*
X64569899Y-19772843D01*
X64386424Y-19647160D01*
X64182991Y-19557336D01*
X64182975Y-19557330D01*
X63966508Y-19506417D01*
X63966492Y-19506415D01*
X63874069Y-19500000D01*
X63500000Y-19500000D01*
X63500000Y-20701517D01*
X63481591Y-20690889D01*
X63328991Y-20650000D01*
X63171009Y-20650000D01*
X63018409Y-20690889D01*
X63000000Y-20701517D01*
X63000000Y-19500000D01*
X62625932Y-19500000D01*
X62533508Y-19506415D01*
X62533492Y-19506417D01*
X62317024Y-19557330D01*
X62317008Y-19557336D01*
X62113575Y-19647160D01*
X61930100Y-19772843D01*
X61772843Y-19930100D01*
X61647160Y-20113575D01*
X61557336Y-20317008D01*
X61557330Y-20317024D01*
X61506417Y-20533491D01*
X61506415Y-20533507D01*
X61500000Y-20625931D01*
X58499999Y-20625931D01*
X58493584Y-20533508D01*
X58493582Y-20533492D01*
X58442669Y-20317024D01*
X58442663Y-20317008D01*
X58352839Y-20113575D01*
X58227156Y-19930100D01*
X58069899Y-19772843D01*
X57886424Y-19647160D01*
X57682991Y-19557336D01*
X57682975Y-19557330D01*
X57466508Y-19506417D01*
X57466492Y-19506415D01*
X57374069Y-19500000D01*
X57000000Y-19500000D01*
X57000000Y-20701517D01*
X56981591Y-20690889D01*
X56828991Y-20650000D01*
X56671009Y-20650000D01*
X56518409Y-20690889D01*
X56500000Y-20701517D01*
X56500000Y-19500000D01*
X56125932Y-19500000D01*
X56033508Y-19506415D01*
X56033492Y-19506417D01*
X55944557Y-19527335D01*
X55874791Y-19523522D01*
X55818162Y-19482596D01*
X55798236Y-19444947D01*
X55758513Y-19322694D01*
X55745220Y-19281781D01*
X55652287Y-19099390D01*
X55643513Y-19087313D01*
X55531971Y-18933786D01*
X55387213Y-18789028D01*
X55221613Y-18668715D01*
X55221612Y-18668714D01*
X55221610Y-18668713D01*
X55155017Y-18634782D01*
X55039223Y-18575781D01*
X54844534Y-18512522D01*
X54669995Y-18484878D01*
X54642352Y-18480500D01*
X54437648Y-18480500D01*
X54437643Y-18480500D01*
X54328987Y-18497709D01*
X54262138Y-18489797D01*
X54137917Y-18438343D01*
X54137907Y-18438340D01*
X53992920Y-18409500D01*
X53992918Y-18409500D01*
X53687626Y-18409500D01*
X53620587Y-18389815D01*
X53574832Y-18337011D01*
X53564888Y-18267853D01*
X53593913Y-18204297D01*
X53599945Y-18197819D01*
X53727537Y-18070226D01*
X53727542Y-18070221D01*
X53853277Y-17886671D01*
X53943143Y-17683143D01*
X53966298Y-17584694D01*
X53994079Y-17466577D01*
X53994079Y-17466573D01*
X53994081Y-17466567D01*
X53998702Y-17400000D01*
X54000500Y-17374095D01*
X54000500Y-16125904D01*
X53995690Y-16056609D01*
X53994081Y-16033433D01*
X53994079Y-16033427D01*
X53994079Y-16033422D01*
X53943145Y-15816864D01*
X53943144Y-15816861D01*
X53943143Y-15816857D01*
X53875186Y-15662948D01*
X53853278Y-15613331D01*
X53848951Y-15607015D01*
X53727542Y-15429779D01*
X53727537Y-15429773D01*
X53570226Y-15272462D01*
X53570220Y-15272457D01*
X53386672Y-15146724D01*
X53386673Y-15146724D01*
X53386671Y-15146723D01*
X53311277Y-15113433D01*
X53257903Y-15068349D01*
X53237375Y-15001563D01*
X53256213Y-14934280D01*
X53308436Y-14887864D01*
X53311235Y-14886585D01*
X53386671Y-14853277D01*
X53570221Y-14727542D01*
X53727542Y-14570221D01*
X53853277Y-14386671D01*
X53943143Y-14183143D01*
X53953028Y-14141114D01*
X53994079Y-13966577D01*
X53994079Y-13966573D01*
X53994081Y-13966567D01*
X54000500Y-13874092D01*
X54000500Y-12625908D01*
X54000500Y-12625904D01*
X54999500Y-12625904D01*
X54999500Y-13874095D01*
X55005918Y-13966561D01*
X55005920Y-13966577D01*
X55056854Y-14183135D01*
X55056860Y-14183151D01*
X55146721Y-14386668D01*
X55272457Y-14570220D01*
X55272462Y-14570226D01*
X55429773Y-14727537D01*
X55429779Y-14727542D01*
X55613329Y-14853277D01*
X55613330Y-14853277D01*
X55613331Y-14853278D01*
X55688720Y-14886566D01*
X55742097Y-14931652D01*
X55762624Y-14998438D01*
X55743786Y-15065720D01*
X55691562Y-15112136D01*
X55688720Y-15113434D01*
X55613331Y-15146721D01*
X55429779Y-15272457D01*
X55429773Y-15272462D01*
X55272462Y-15429773D01*
X55272457Y-15429779D01*
X55146721Y-15613331D01*
X55056860Y-15816848D01*
X55056854Y-15816864D01*
X55005920Y-16033422D01*
X55005918Y-16033438D01*
X54999500Y-16125904D01*
X54999500Y-17374095D01*
X55005918Y-17466561D01*
X55005920Y-17466577D01*
X55056854Y-17683135D01*
X55056860Y-17683151D01*
X55146721Y-17886668D01*
X55272457Y-18070220D01*
X55272462Y-18070226D01*
X55429773Y-18227537D01*
X55429779Y-18227542D01*
X55613329Y-18353277D01*
X55613330Y-18353277D01*
X55613331Y-18353278D01*
X55762554Y-18419166D01*
X55816857Y-18443143D01*
X55816861Y-18443144D01*
X55816864Y-18443145D01*
X56033422Y-18494079D01*
X56033427Y-18494079D01*
X56033433Y-18494081D01*
X56084808Y-18497647D01*
X56125904Y-18500500D01*
X56125908Y-18500500D01*
X57374096Y-18500500D01*
X57414300Y-18497709D01*
X57466567Y-18494081D01*
X57466573Y-18494079D01*
X57466577Y-18494079D01*
X57683135Y-18443145D01*
X57683135Y-18443144D01*
X57683143Y-18443143D01*
X57886671Y-18353277D01*
X58070221Y-18227542D01*
X58227542Y-18070221D01*
X58353277Y-17886671D01*
X58402996Y-17774068D01*
X58424921Y-17724414D01*
X58470007Y-17671037D01*
X58536793Y-17650510D01*
X58538355Y-17650500D01*
X61461645Y-17650500D01*
X61528684Y-17670185D01*
X61574439Y-17722989D01*
X61575079Y-17724414D01*
X61646721Y-17886668D01*
X61772457Y-18070220D01*
X61772462Y-18070226D01*
X61929773Y-18227537D01*
X61929779Y-18227542D01*
X62113329Y-18353277D01*
X62113330Y-18353277D01*
X62113331Y-18353278D01*
X62262554Y-18419166D01*
X62316857Y-18443143D01*
X62316861Y-18443144D01*
X62316864Y-18443145D01*
X62533422Y-18494079D01*
X62533427Y-18494079D01*
X62533433Y-18494081D01*
X62584808Y-18497647D01*
X62625904Y-18500500D01*
X62625908Y-18500500D01*
X63874096Y-18500500D01*
X63914300Y-18497709D01*
X63966567Y-18494081D01*
X63966573Y-18494079D01*
X63966577Y-18494079D01*
X64183135Y-18443145D01*
X64183135Y-18443144D01*
X64183143Y-18443143D01*
X64386671Y-18353277D01*
X64570221Y-18227542D01*
X64727542Y-18070221D01*
X64853277Y-17886671D01*
X64943143Y-17683143D01*
X64966298Y-17584694D01*
X64994079Y-17466577D01*
X64994079Y-17466573D01*
X64994081Y-17466567D01*
X64998702Y-17400000D01*
X65000500Y-17374095D01*
X65000500Y-16125904D01*
X64995690Y-16056609D01*
X64994081Y-16033433D01*
X64994079Y-16033427D01*
X64994079Y-16033422D01*
X64943145Y-15816864D01*
X64943144Y-15816861D01*
X64943143Y-15816857D01*
X64875186Y-15662948D01*
X64853278Y-15613331D01*
X64848951Y-15607015D01*
X64727542Y-15429779D01*
X64727537Y-15429773D01*
X64570226Y-15272462D01*
X64570220Y-15272457D01*
X64386672Y-15146724D01*
X64386673Y-15146724D01*
X64386671Y-15146723D01*
X64311277Y-15113433D01*
X64257903Y-15068349D01*
X64237375Y-15001563D01*
X64256213Y-14934280D01*
X64308436Y-14887864D01*
X64311235Y-14886585D01*
X64386671Y-14853277D01*
X64570221Y-14727542D01*
X64727542Y-14570221D01*
X64853277Y-14386671D01*
X64943143Y-14183143D01*
X64953028Y-14141114D01*
X64994079Y-13966577D01*
X64994079Y-13966573D01*
X64994081Y-13966567D01*
X65000500Y-13874092D01*
X65000500Y-12625908D01*
X64994081Y-12533433D01*
X64994079Y-12533427D01*
X64994079Y-12533422D01*
X64943145Y-12316864D01*
X64943144Y-12316861D01*
X64943143Y-12316857D01*
X64853277Y-12113329D01*
X64727542Y-11929779D01*
X64727537Y-11929773D01*
X64570226Y-11772462D01*
X64570220Y-11772457D01*
X64412954Y-11664727D01*
X64386671Y-11646723D01*
X64386670Y-11646722D01*
X64386668Y-11646721D01*
X64183151Y-11556860D01*
X64183135Y-11556854D01*
X63966577Y-11505920D01*
X63966561Y-11505918D01*
X63874096Y-11499500D01*
X63874092Y-11499500D01*
X62625908Y-11499500D01*
X62625904Y-11499500D01*
X62533438Y-11505918D01*
X62533422Y-11505920D01*
X62316864Y-11556854D01*
X62316848Y-11556860D01*
X62113331Y-11646721D01*
X61929779Y-11772457D01*
X61929773Y-11772462D01*
X61772462Y-11929773D01*
X61772457Y-11929779D01*
X61646721Y-12113331D01*
X61575079Y-12275586D01*
X61529993Y-12328963D01*
X61463207Y-12349490D01*
X61461645Y-12349500D01*
X58538355Y-12349500D01*
X58471316Y-12329815D01*
X58425561Y-12277011D01*
X58424921Y-12275586D01*
X58353278Y-12113331D01*
X58304321Y-12041863D01*
X58227542Y-11929779D01*
X58227537Y-11929773D01*
X58070226Y-11772462D01*
X58070220Y-11772457D01*
X57912954Y-11664727D01*
X57886671Y-11646723D01*
X57886670Y-11646722D01*
X57886668Y-11646721D01*
X57683151Y-11556860D01*
X57683135Y-11556854D01*
X57466577Y-11505920D01*
X57466561Y-11505918D01*
X57374096Y-11499500D01*
X57374092Y-11499500D01*
X56125908Y-11499500D01*
X56125904Y-11499500D01*
X56033438Y-11505918D01*
X56033422Y-11505920D01*
X55816864Y-11556854D01*
X55816848Y-11556860D01*
X55613331Y-11646721D01*
X55429779Y-11772457D01*
X55429773Y-11772462D01*
X55272462Y-11929773D01*
X55272457Y-11929779D01*
X55146721Y-12113331D01*
X55056860Y-12316848D01*
X55056854Y-12316864D01*
X55005920Y-12533422D01*
X55005918Y-12533438D01*
X54999500Y-12625904D01*
X54000500Y-12625904D01*
X53994081Y-12533433D01*
X53994079Y-12533427D01*
X53994079Y-12533422D01*
X53943145Y-12316864D01*
X53943144Y-12316861D01*
X53943143Y-12316857D01*
X53853277Y-12113329D01*
X53727542Y-11929779D01*
X53727537Y-11929773D01*
X53570226Y-11772462D01*
X53570220Y-11772457D01*
X53412954Y-11664727D01*
X53386671Y-11646723D01*
X53386670Y-11646722D01*
X53386668Y-11646721D01*
X53183151Y-11556860D01*
X53183135Y-11556854D01*
X52966577Y-11505920D01*
X52966561Y-11505918D01*
X52874096Y-11499500D01*
X52874092Y-11499500D01*
X51625908Y-11499500D01*
X51625904Y-11499500D01*
X51533438Y-11505918D01*
X51533422Y-11505920D01*
X51316864Y-11556854D01*
X51316848Y-11556860D01*
X51113331Y-11646721D01*
X50929779Y-11772457D01*
X50929773Y-11772462D01*
X50772462Y-11929773D01*
X50772457Y-11929779D01*
X50646721Y-12113331D01*
X50575079Y-12275586D01*
X50529993Y-12328963D01*
X50463207Y-12349490D01*
X50461645Y-12349500D01*
X47538355Y-12349500D01*
X47471316Y-12329815D01*
X47425561Y-12277011D01*
X47424921Y-12275586D01*
X47353278Y-12113331D01*
X47304321Y-12041863D01*
X47227542Y-11929779D01*
X47227537Y-11929773D01*
X47070226Y-11772462D01*
X47070220Y-11772457D01*
X46912954Y-11664727D01*
X46886671Y-11646723D01*
X46886670Y-11646722D01*
X46886668Y-11646721D01*
X46683151Y-11556860D01*
X46683135Y-11556854D01*
X46466577Y-11505920D01*
X46466561Y-11505918D01*
X46374096Y-11499500D01*
X46374092Y-11499500D01*
X45125908Y-11499500D01*
X45125904Y-11499500D01*
X45033438Y-11505918D01*
X45033422Y-11505920D01*
X44816864Y-11556854D01*
X44816848Y-11556860D01*
X44613331Y-11646721D01*
X44429779Y-11772457D01*
X44429773Y-11772462D01*
X44282181Y-11920055D01*
X44220858Y-11953540D01*
X44151166Y-11948556D01*
X44095233Y-11906684D01*
X44070816Y-11841220D01*
X44070500Y-11832374D01*
X44070500Y-10166918D01*
X44090185Y-10099879D01*
X44142989Y-10054124D01*
X44212147Y-10044180D01*
X44275703Y-10073205D01*
X44282181Y-10079237D01*
X44430100Y-10227156D01*
X44613575Y-10352839D01*
X44817008Y-10442663D01*
X44817024Y-10442669D01*
X45033491Y-10493582D01*
X45033507Y-10493584D01*
X45125931Y-10499999D01*
X45499999Y-10499999D01*
X45500000Y-10499998D01*
X45500000Y-9298482D01*
X45518409Y-9309111D01*
X45671009Y-9350000D01*
X45828991Y-9350000D01*
X45981591Y-9309111D01*
X46000000Y-9298482D01*
X46000000Y-10499999D01*
X46374068Y-10499999D01*
X46466491Y-10493584D01*
X46466507Y-10493582D01*
X46682975Y-10442669D01*
X46682991Y-10442663D01*
X46886424Y-10352839D01*
X47069899Y-10227156D01*
X47227156Y-10069899D01*
X47352839Y-9886424D01*
X47442663Y-9682991D01*
X47442669Y-9682975D01*
X47493582Y-9466508D01*
X47493584Y-9466492D01*
X47500000Y-9374068D01*
X47500000Y-9000000D01*
X46298482Y-9000000D01*
X46309111Y-8981591D01*
X46350000Y-8828991D01*
X46350000Y-8671009D01*
X46309111Y-8518409D01*
X46298482Y-8500000D01*
X47499999Y-8500000D01*
X47499999Y-8125932D01*
X47499999Y-8125931D01*
X50500000Y-8125931D01*
X50500000Y-8500000D01*
X51701518Y-8500000D01*
X51690889Y-8518409D01*
X51650000Y-8671009D01*
X51650000Y-8828991D01*
X51690889Y-8981591D01*
X51701518Y-9000000D01*
X50500001Y-9000000D01*
X50500001Y-9374067D01*
X50506415Y-9466491D01*
X50506417Y-9466507D01*
X50557330Y-9682975D01*
X50557336Y-9682991D01*
X50647160Y-9886424D01*
X50772843Y-10069899D01*
X50930100Y-10227156D01*
X51113575Y-10352839D01*
X51317008Y-10442663D01*
X51317024Y-10442669D01*
X51533491Y-10493582D01*
X51533507Y-10493584D01*
X51625931Y-10499999D01*
X51999999Y-10499999D01*
X52000000Y-10499998D01*
X52000000Y-9298482D01*
X52018409Y-9309111D01*
X52171009Y-9350000D01*
X52328991Y-9350000D01*
X52481591Y-9309111D01*
X52500000Y-9298482D01*
X52500000Y-10499999D01*
X52874068Y-10499999D01*
X52966491Y-10493584D01*
X52966507Y-10493582D01*
X53182975Y-10442669D01*
X53182991Y-10442663D01*
X53386424Y-10352839D01*
X53569899Y-10227156D01*
X53727156Y-10069899D01*
X53852839Y-9886424D01*
X53942663Y-9682991D01*
X53942669Y-9682975D01*
X53993582Y-9466508D01*
X53993584Y-9466492D01*
X54000000Y-9374068D01*
X54000000Y-9000000D01*
X52798482Y-9000000D01*
X52809111Y-8981591D01*
X52850000Y-8828991D01*
X52850000Y-8671009D01*
X52809111Y-8518409D01*
X52798482Y-8500000D01*
X53999999Y-8500000D01*
X53999999Y-8125932D01*
X53999999Y-8125931D01*
X55000000Y-8125931D01*
X55000000Y-8500000D01*
X56201518Y-8500000D01*
X56190889Y-8518409D01*
X56150000Y-8671009D01*
X56150000Y-8828991D01*
X56190889Y-8981591D01*
X56201518Y-9000000D01*
X55000001Y-9000000D01*
X55000001Y-9374067D01*
X55006415Y-9466491D01*
X55006417Y-9466507D01*
X55057330Y-9682975D01*
X55057336Y-9682991D01*
X55147160Y-9886424D01*
X55272843Y-10069899D01*
X55430100Y-10227156D01*
X55613575Y-10352839D01*
X55817008Y-10442663D01*
X55817024Y-10442669D01*
X56033491Y-10493582D01*
X56033507Y-10493584D01*
X56125931Y-10499999D01*
X56499999Y-10499999D01*
X56500000Y-10499998D01*
X56500000Y-9298482D01*
X56518409Y-9309111D01*
X56671009Y-9350000D01*
X56828991Y-9350000D01*
X56981591Y-9309111D01*
X57000000Y-9298482D01*
X57000000Y-10499999D01*
X57374068Y-10499999D01*
X57466491Y-10493584D01*
X57466507Y-10493582D01*
X57682975Y-10442669D01*
X57682991Y-10442663D01*
X57886424Y-10352839D01*
X58069899Y-10227156D01*
X58227156Y-10069899D01*
X58352839Y-9886424D01*
X58442663Y-9682991D01*
X58442669Y-9682975D01*
X58493582Y-9466508D01*
X58493584Y-9466492D01*
X58500000Y-9374068D01*
X58500000Y-9000000D01*
X57298482Y-9000000D01*
X57309111Y-8981591D01*
X57350000Y-8828991D01*
X57350000Y-8671009D01*
X57309111Y-8518409D01*
X57298482Y-8500000D01*
X58499999Y-8500000D01*
X58499999Y-8125932D01*
X58499999Y-8125931D01*
X61500000Y-8125931D01*
X61500000Y-8500000D01*
X62701518Y-8500000D01*
X62690889Y-8518409D01*
X62650000Y-8671009D01*
X62650000Y-8828991D01*
X62690889Y-8981591D01*
X62701518Y-9000000D01*
X61500001Y-9000000D01*
X61500001Y-9374067D01*
X61506415Y-9466491D01*
X61506417Y-9466507D01*
X61557330Y-9682975D01*
X61557336Y-9682991D01*
X61647160Y-9886424D01*
X61772843Y-10069899D01*
X61930100Y-10227156D01*
X62113575Y-10352839D01*
X62317008Y-10442663D01*
X62317024Y-10442669D01*
X62533491Y-10493582D01*
X62533507Y-10493584D01*
X62625931Y-10499999D01*
X62999999Y-10499999D01*
X63000000Y-10499998D01*
X63000000Y-9298482D01*
X63018409Y-9309111D01*
X63171009Y-9350000D01*
X63328991Y-9350000D01*
X63481591Y-9309111D01*
X63500000Y-9298482D01*
X63500000Y-10499999D01*
X63874068Y-10499999D01*
X63966491Y-10493584D01*
X63966507Y-10493582D01*
X64182975Y-10442669D01*
X64182991Y-10442663D01*
X64386424Y-10352839D01*
X64569899Y-10227156D01*
X64727156Y-10069899D01*
X64852839Y-9886424D01*
X64942663Y-9682991D01*
X64942669Y-9682975D01*
X64993582Y-9466508D01*
X64993584Y-9466492D01*
X65000000Y-9374068D01*
X65000000Y-9000000D01*
X63798482Y-9000000D01*
X63809111Y-8981591D01*
X63850000Y-8828991D01*
X63850000Y-8671009D01*
X63809111Y-8518409D01*
X63798482Y-8500000D01*
X64999999Y-8500000D01*
X64999999Y-8125932D01*
X64993584Y-8033508D01*
X64993582Y-8033492D01*
X64942669Y-7817024D01*
X64942663Y-7817008D01*
X64852839Y-7613575D01*
X64727156Y-7430100D01*
X64569899Y-7272843D01*
X64386424Y-7147160D01*
X64182991Y-7057336D01*
X64182975Y-7057330D01*
X63966508Y-7006417D01*
X63966492Y-7006415D01*
X63874069Y-7000000D01*
X63500000Y-7000000D01*
X63500000Y-8201517D01*
X63481591Y-8190889D01*
X63328991Y-8150000D01*
X63171009Y-8150000D01*
X63018409Y-8190889D01*
X63000000Y-8201517D01*
X63000000Y-7000000D01*
X62625932Y-7000000D01*
X62533508Y-7006415D01*
X62533492Y-7006417D01*
X62317024Y-7057330D01*
X62317008Y-7057336D01*
X62113575Y-7147160D01*
X61930100Y-7272843D01*
X61772843Y-7430100D01*
X61647160Y-7613575D01*
X61557336Y-7817008D01*
X61557330Y-7817024D01*
X61506417Y-8033491D01*
X61506415Y-8033507D01*
X61500000Y-8125931D01*
X58499999Y-8125931D01*
X58493584Y-8033508D01*
X58493582Y-8033492D01*
X58442669Y-7817024D01*
X58442663Y-7817008D01*
X58352839Y-7613575D01*
X58227156Y-7430100D01*
X58069899Y-7272843D01*
X57886424Y-7147160D01*
X57682991Y-7057336D01*
X57682975Y-7057330D01*
X57466508Y-7006417D01*
X57466492Y-7006415D01*
X57374069Y-7000000D01*
X57000000Y-7000000D01*
X57000000Y-8201517D01*
X56981591Y-8190889D01*
X56828991Y-8150000D01*
X56671009Y-8150000D01*
X56518409Y-8190889D01*
X56500000Y-8201517D01*
X56500000Y-7000000D01*
X56125932Y-7000000D01*
X56033508Y-7006415D01*
X56033492Y-7006417D01*
X55817024Y-7057330D01*
X55817008Y-7057336D01*
X55613575Y-7147160D01*
X55430100Y-7272843D01*
X55272843Y-7430100D01*
X55147160Y-7613575D01*
X55057336Y-7817008D01*
X55057330Y-7817024D01*
X55006417Y-8033491D01*
X55006415Y-8033507D01*
X55000000Y-8125931D01*
X53999999Y-8125931D01*
X53993584Y-8033508D01*
X53993582Y-8033492D01*
X53942669Y-7817024D01*
X53942663Y-7817008D01*
X53852839Y-7613575D01*
X53727156Y-7430100D01*
X53569899Y-7272843D01*
X53386424Y-7147160D01*
X53182991Y-7057336D01*
X53182975Y-7057330D01*
X52966508Y-7006417D01*
X52966492Y-7006415D01*
X52874069Y-7000000D01*
X52500000Y-7000000D01*
X52500000Y-8201517D01*
X52481591Y-8190889D01*
X52328991Y-8150000D01*
X52171009Y-8150000D01*
X52018409Y-8190889D01*
X52000000Y-8201517D01*
X52000000Y-7000000D01*
X51625932Y-7000000D01*
X51533508Y-7006415D01*
X51533492Y-7006417D01*
X51317024Y-7057330D01*
X51317008Y-7057336D01*
X51113575Y-7147160D01*
X50930100Y-7272843D01*
X50772843Y-7430100D01*
X50647160Y-7613575D01*
X50557336Y-7817008D01*
X50557330Y-7817024D01*
X50506417Y-8033491D01*
X50506415Y-8033507D01*
X50500000Y-8125931D01*
X47499999Y-8125931D01*
X47493584Y-8033508D01*
X47493582Y-8033492D01*
X47442669Y-7817024D01*
X47442663Y-7817008D01*
X47352839Y-7613575D01*
X47227156Y-7430100D01*
X47069899Y-7272843D01*
X46886424Y-7147160D01*
X46682991Y-7057336D01*
X46682975Y-7057330D01*
X46466508Y-7006417D01*
X46466492Y-7006415D01*
X46374069Y-7000000D01*
X46000000Y-7000000D01*
X46000000Y-8201517D01*
X45981591Y-8190889D01*
X45828991Y-8150000D01*
X45671009Y-8150000D01*
X45518409Y-8190889D01*
X45500000Y-8201517D01*
X45500000Y-7037400D01*
X45370749Y-6993379D01*
X45358298Y-6984605D01*
X45343688Y-6980315D01*
X45330323Y-6964891D01*
X45313636Y-6953132D01*
X45307905Y-6939019D01*
X45297933Y-6927511D01*
X45295028Y-6907309D01*
X45287348Y-6888396D01*
X45290156Y-6873426D01*
X45287989Y-6858353D01*
X45296467Y-6839786D01*
X45300232Y-6819724D01*
X45310687Y-6808649D01*
X45317014Y-6794797D01*
X45323018Y-6788348D01*
X46214548Y-5896819D01*
X46275871Y-5863334D01*
X46302229Y-5860500D01*
X49980967Y-5860500D01*
X50048006Y-5880185D01*
X50075252Y-5903962D01*
X50078035Y-5907220D01*
X50222786Y-6051971D01*
X50351500Y-6145485D01*
X50388390Y-6172287D01*
X50504607Y-6231503D01*
X50570776Y-6265218D01*
X50570778Y-6265218D01*
X50570781Y-6265220D01*
X50675137Y-6299127D01*
X50765465Y-6328477D01*
X50866557Y-6344488D01*
X50967648Y-6360500D01*
X50967649Y-6360500D01*
X51172351Y-6360500D01*
X51172352Y-6360500D01*
X51374534Y-6328477D01*
X51569219Y-6265220D01*
X51751610Y-6172287D01*
X51872043Y-6084788D01*
X51917213Y-6051971D01*
X51917215Y-6051968D01*
X51917219Y-6051966D01*
X52061966Y-5907219D01*
X52061968Y-5907215D01*
X52061971Y-5907213D01*
X52137825Y-5802807D01*
X52182287Y-5741610D01*
X52275220Y-5559219D01*
X52338477Y-5364534D01*
X52370500Y-5162352D01*
X52370500Y-4957648D01*
X52338477Y-4755466D01*
X52275220Y-4560781D01*
X52275218Y-4560778D01*
X52275218Y-4560776D01*
X52233112Y-4478140D01*
X52182287Y-4378390D01*
X52145367Y-4327573D01*
X52061971Y-4212786D01*
X51917213Y-4068028D01*
X51804916Y-3986441D01*
X51751613Y-3947715D01*
X51751612Y-3947714D01*
X51751610Y-3947713D01*
X51664612Y-3903385D01*
X51638712Y-3890188D01*
X60324500Y-3890188D01*
X60324500Y-4109811D01*
X60324501Y-4109828D01*
X60353167Y-4327573D01*
X60410014Y-4539729D01*
X60484018Y-4718390D01*
X60494065Y-4742645D01*
X60603884Y-4932855D01*
X60603889Y-4932861D01*
X60603890Y-4932863D01*
X60737588Y-5107102D01*
X60737594Y-5107109D01*
X60892890Y-5262405D01*
X60892896Y-5262410D01*
X61067145Y-5396116D01*
X61257355Y-5505935D01*
X61358814Y-5547960D01*
X61460270Y-5589985D01*
X61460271Y-5589985D01*
X61460273Y-5589986D01*
X61672425Y-5646832D01*
X61890182Y-5675500D01*
X61890189Y-5675500D01*
X62109811Y-5675500D01*
X62109818Y-5675500D01*
X62327575Y-5646832D01*
X62539727Y-5589986D01*
X62742645Y-5505935D01*
X62932855Y-5396116D01*
X63107104Y-5262410D01*
X63262410Y-5107104D01*
X63396116Y-4932855D01*
X63505935Y-4742645D01*
X63589986Y-4539727D01*
X63646832Y-4327575D01*
X63675500Y-4109818D01*
X63675500Y-3890182D01*
X63646832Y-3672425D01*
X63589986Y-3460273D01*
X63505935Y-3257355D01*
X63396116Y-3067145D01*
X63262410Y-2892896D01*
X63262405Y-2892890D01*
X63107109Y-2737594D01*
X63107102Y-2737588D01*
X62932863Y-2603890D01*
X62932861Y-2603889D01*
X62932855Y-2603884D01*
X62742645Y-2494065D01*
X62742641Y-2494063D01*
X62539729Y-2410014D01*
X62327573Y-2353167D01*
X62109828Y-2324501D01*
X62109823Y-2324500D01*
X62109818Y-2324500D01*
X61890182Y-2324500D01*
X61890176Y-2324500D01*
X61890171Y-2324501D01*
X61672426Y-2353167D01*
X61460270Y-2410014D01*
X61257358Y-2494063D01*
X61257354Y-2494065D01*
X61067145Y-2603884D01*
X61067136Y-2603890D01*
X60892897Y-2737588D01*
X60892890Y-2737594D01*
X60737594Y-2892890D01*
X60737588Y-2892897D01*
X60603890Y-3067136D01*
X60603884Y-3067145D01*
X60494065Y-3257354D01*
X60494063Y-3257358D01*
X60410014Y-3460270D01*
X60353167Y-3672426D01*
X60324501Y-3890171D01*
X60324500Y-3890188D01*
X51638712Y-3890188D01*
X51569223Y-3854781D01*
X51374534Y-3791522D01*
X51197032Y-3763409D01*
X51172352Y-3759500D01*
X50967648Y-3759500D01*
X50943329Y-3763351D01*
X50765465Y-3791522D01*
X50570776Y-3854781D01*
X50388386Y-3947715D01*
X50222786Y-4068028D01*
X50078030Y-4212784D01*
X50008575Y-4308384D01*
X49953245Y-4351051D01*
X49908256Y-4359500D01*
X45866076Y-4359500D01*
X45837242Y-4365234D01*
X45837243Y-4365235D01*
X45721092Y-4388339D01*
X45721086Y-4388341D01*
X45673545Y-4408034D01*
X45584506Y-4444915D01*
X45502372Y-4499795D01*
X45461585Y-4527047D01*
X45461581Y-4527050D01*
X44422181Y-5566450D01*
X44360858Y-5599935D01*
X44291166Y-5594951D01*
X44235233Y-5553079D01*
X44210816Y-5487615D01*
X44210500Y-5478769D01*
X44210500Y-5297648D01*
X44178477Y-5095465D01*
X44125641Y-4932854D01*
X44115220Y-4900781D01*
X44115218Y-4900778D01*
X44115218Y-4900776D01*
X44041178Y-4755466D01*
X44022287Y-4718390D01*
X43992167Y-4676933D01*
X43901971Y-4552786D01*
X43757213Y-4408028D01*
X43591613Y-4287715D01*
X43591612Y-4287714D01*
X43591610Y-4287713D01*
X43514605Y-4248477D01*
X43409223Y-4194781D01*
X43214534Y-4131522D01*
X43032082Y-4102625D01*
X43012352Y-4099500D01*
X42807648Y-4099500D01*
X42787918Y-4102625D01*
X42605465Y-4131522D01*
X42410776Y-4194781D01*
X42228386Y-4287715D01*
X42062786Y-4408028D01*
X41918028Y-4552786D01*
X41797715Y-4718386D01*
X41704781Y-4900776D01*
X41641522Y-5095465D01*
X41609500Y-5297648D01*
X41609500Y-5502351D01*
X41618318Y-5558025D01*
X41609364Y-5627318D01*
X41583526Y-5665104D01*
X39617049Y-7631582D01*
X39617047Y-7631585D01*
X39600677Y-7656083D01*
X39600678Y-7656084D01*
X39534914Y-7754508D01*
X39478343Y-7891082D01*
X39478340Y-7891092D01*
X39449500Y-8036079D01*
X39449500Y-8050103D01*
X39448448Y-8053685D01*
X39449290Y-8057324D01*
X39438679Y-8086953D01*
X39429815Y-8117142D01*
X39426625Y-8120613D01*
X39425734Y-8123103D01*
X39401601Y-8147849D01*
X39401108Y-8148385D01*
X39293339Y-8231081D01*
X39292427Y-8231992D01*
X39288232Y-8235220D01*
X39259209Y-8246480D01*
X39230968Y-8259573D01*
X39226909Y-8259013D01*
X39223093Y-8260494D01*
X39192594Y-8254277D01*
X39161754Y-8250022D01*
X39158643Y-8247357D01*
X39154631Y-8246540D01*
X39132332Y-8224819D01*
X39108691Y-8204568D01*
X39107088Y-8200229D01*
X39104582Y-8197788D01*
X39101894Y-8186170D01*
X39089685Y-8153122D01*
X39089061Y-8148386D01*
X39070548Y-8007762D01*
X39011158Y-7786113D01*
X38939690Y-7613575D01*
X38923349Y-7574123D01*
X38923346Y-7574117D01*
X38923344Y-7574112D01*
X38808611Y-7375388D01*
X38808608Y-7375385D01*
X38808607Y-7375382D01*
X38668918Y-7193338D01*
X38668911Y-7193330D01*
X38506670Y-7031089D01*
X38506661Y-7031081D01*
X38324617Y-6891392D01*
X38125890Y-6776657D01*
X38125876Y-6776650D01*
X37913887Y-6688842D01*
X37887594Y-6681797D01*
X37692238Y-6629452D01*
X37654215Y-6624446D01*
X37464741Y-6599500D01*
X37464734Y-6599500D01*
X37235266Y-6599500D01*
X37235258Y-6599500D01*
X37018715Y-6628009D01*
X37007762Y-6629452D01*
X36914076Y-6654554D01*
X36786112Y-6688842D01*
X36574123Y-6776650D01*
X36574109Y-6776657D01*
X36375382Y-6891392D01*
X36193338Y-7031081D01*
X36031081Y-7193338D01*
X35891392Y-7375382D01*
X35776657Y-7574109D01*
X35776650Y-7574123D01*
X35688842Y-7786112D01*
X35629453Y-8007759D01*
X35629451Y-8007770D01*
X35599500Y-8235258D01*
X35599500Y-10464741D01*
X35624446Y-10654215D01*
X35629452Y-10692238D01*
X35680584Y-10883067D01*
X35688842Y-10913887D01*
X35776650Y-11125876D01*
X35776657Y-11125890D01*
X35891392Y-11324617D01*
X36031081Y-11506661D01*
X36031089Y-11506670D01*
X36193330Y-11668911D01*
X36193338Y-11668918D01*
X36375382Y-11808607D01*
X36375385Y-11808608D01*
X36375388Y-11808611D01*
X36574112Y-11923344D01*
X36574117Y-11923346D01*
X36574123Y-11923349D01*
X36643192Y-11951958D01*
X36786113Y-12011158D01*
X37007762Y-12070548D01*
X37235266Y-12100500D01*
X37235273Y-12100500D01*
X37464727Y-12100500D01*
X37464734Y-12100500D01*
X37692238Y-12070548D01*
X37913887Y-12011158D01*
X38125888Y-11923344D01*
X38324612Y-11808611D01*
X38506661Y-11668919D01*
X38506661Y-11668918D01*
X38509881Y-11666448D01*
X38510682Y-11667492D01*
X38568967Y-11640436D01*
X38638186Y-11649950D01*
X38691272Y-11695376D01*
X38710314Y-11746876D01*
X38718442Y-11808611D01*
X38729452Y-11892238D01*
X38780586Y-12083075D01*
X38788842Y-12113887D01*
X38876650Y-12325876D01*
X38876657Y-12325890D01*
X38991392Y-12524617D01*
X39131081Y-12706661D01*
X39131089Y-12706670D01*
X39293330Y-12868911D01*
X39293338Y-12868918D01*
X39475382Y-13008607D01*
X39475385Y-13008608D01*
X39475388Y-13008611D01*
X39674112Y-13123344D01*
X39674117Y-13123346D01*
X39674123Y-13123349D01*
X39765480Y-13161190D01*
X39886113Y-13211158D01*
X40107762Y-13270548D01*
X40335266Y-13300500D01*
X40335273Y-13300500D01*
X40564727Y-13300500D01*
X40564734Y-13300500D01*
X40792238Y-13270548D01*
X41013887Y-13211158D01*
X41225888Y-13123344D01*
X41424612Y-13008611D01*
X41606661Y-12868919D01*
X41606665Y-12868914D01*
X41606670Y-12868911D01*
X41768911Y-12706670D01*
X41768914Y-12706665D01*
X41768919Y-12706661D01*
X41908611Y-12524612D01*
X42023344Y-12325888D01*
X42111158Y-12113887D01*
X42170548Y-11892238D01*
X42200500Y-11664734D01*
X42200500Y-9435266D01*
X42170548Y-9207762D01*
X42111158Y-8986113D01*
X42023344Y-8774112D01*
X41908611Y-8575388D01*
X41908608Y-8575385D01*
X41908607Y-8575382D01*
X41768918Y-8393338D01*
X41768911Y-8393330D01*
X41606670Y-8231089D01*
X41606661Y-8231081D01*
X41454949Y-8114667D01*
X41413747Y-8058239D01*
X41409592Y-7988493D01*
X41442753Y-7928613D01*
X42644895Y-6726471D01*
X42706216Y-6692988D01*
X42751971Y-6691681D01*
X42807648Y-6700500D01*
X42807649Y-6700500D01*
X42988769Y-6700500D01*
X43055808Y-6720185D01*
X43101563Y-6772989D01*
X43111507Y-6842147D01*
X43082482Y-6905703D01*
X43076450Y-6912181D01*
X42737050Y-7251581D01*
X42737048Y-7251584D01*
X42723635Y-7271659D01*
X42723633Y-7271660D01*
X42723633Y-7271661D01*
X42654916Y-7374503D01*
X42654914Y-7374506D01*
X42598343Y-7511082D01*
X42598340Y-7511092D01*
X42569500Y-7656079D01*
X42569500Y-16257770D01*
X42549815Y-16324809D01*
X42533181Y-16345451D01*
X40235451Y-18643181D01*
X40174128Y-18676666D01*
X40147770Y-18679500D01*
X39016918Y-18679500D01*
X38949879Y-18659815D01*
X38904124Y-18607011D01*
X38894180Y-18537853D01*
X38923205Y-18474297D01*
X38925978Y-18471318D01*
X38927154Y-18469902D01*
X39052839Y-18286424D01*
X39142663Y-18082991D01*
X39142669Y-18082975D01*
X39193582Y-17866508D01*
X39193584Y-17866492D01*
X39200000Y-17774068D01*
X39200000Y-17400000D01*
X37998482Y-17400000D01*
X38009111Y-17381591D01*
X38050000Y-17228991D01*
X38050000Y-17071009D01*
X38009111Y-16918409D01*
X37998482Y-16900000D01*
X39199999Y-16900000D01*
X39199999Y-16525932D01*
X39193584Y-16433508D01*
X39193582Y-16433492D01*
X39142669Y-16217024D01*
X39142663Y-16217008D01*
X39052839Y-16013575D01*
X38927156Y-15830100D01*
X38769899Y-15672843D01*
X38586424Y-15547160D01*
X38382991Y-15457336D01*
X38382975Y-15457330D01*
X38166508Y-15406417D01*
X38166492Y-15406415D01*
X38074069Y-15400000D01*
X37700000Y-15400000D01*
X37700000Y-16601517D01*
X37681591Y-16590889D01*
X37528991Y-16550000D01*
X37371009Y-16550000D01*
X37218409Y-16590889D01*
X37200000Y-16601517D01*
X37200000Y-15400000D01*
X36825932Y-15400000D01*
X36733508Y-15406415D01*
X36733492Y-15406417D01*
X36517024Y-15457330D01*
X36517008Y-15457336D01*
X36313575Y-15547160D01*
X36130100Y-15672843D01*
X35972843Y-15830100D01*
X35847160Y-16013575D01*
X35757336Y-16217008D01*
X35757330Y-16217024D01*
X35706417Y-16433491D01*
X35706415Y-16433507D01*
X35700000Y-16525931D01*
X35700000Y-16900000D01*
X36901518Y-16900000D01*
X36890889Y-16918409D01*
X36850000Y-17071009D01*
X36850000Y-17228991D01*
X36890889Y-17381591D01*
X36901518Y-17400000D01*
X35700001Y-17400000D01*
X35700001Y-17774067D01*
X35706415Y-17866491D01*
X35706417Y-17866507D01*
X35757330Y-18082975D01*
X35757336Y-18082991D01*
X35847160Y-18286424D01*
X35972845Y-18469902D01*
X35976501Y-18474304D01*
X35974989Y-18475559D01*
X36004248Y-18529142D01*
X35999264Y-18598834D01*
X35957392Y-18654767D01*
X35891928Y-18679184D01*
X35883082Y-18679500D01*
X32516918Y-18679500D01*
X32449879Y-18659815D01*
X32404124Y-18607011D01*
X32394180Y-18537853D01*
X32423205Y-18474297D01*
X32425978Y-18471318D01*
X32427154Y-18469902D01*
X32552839Y-18286424D01*
X32642663Y-18082991D01*
X32642669Y-18082975D01*
X32693582Y-17866508D01*
X32693584Y-17866492D01*
X32700000Y-17774068D01*
X32700000Y-17400000D01*
X31498482Y-17400000D01*
X31509111Y-17381591D01*
X31550000Y-17228991D01*
X31550000Y-17071009D01*
X31509111Y-16918409D01*
X31498482Y-16900000D01*
X32699999Y-16900000D01*
X32699999Y-16525932D01*
X32693584Y-16433508D01*
X32693582Y-16433492D01*
X32642669Y-16217024D01*
X32642663Y-16217008D01*
X32552839Y-16013575D01*
X32427156Y-15830100D01*
X32391019Y-15793963D01*
X32357534Y-15732640D01*
X32362518Y-15662948D01*
X32404390Y-15607015D01*
X32431244Y-15591722D01*
X32536697Y-15548043D01*
X32763803Y-15416924D01*
X32971851Y-15257282D01*
X32971855Y-15257277D01*
X32971860Y-15257274D01*
X33157274Y-15071860D01*
X33157277Y-15071855D01*
X33157282Y-15071851D01*
X33316924Y-14863803D01*
X33448043Y-14636697D01*
X33471551Y-14579945D01*
X33486072Y-14544888D01*
X33548398Y-14394419D01*
X33616270Y-14141116D01*
X33650500Y-13881120D01*
X33650500Y-13618880D01*
X33616270Y-13358884D01*
X33548398Y-13105581D01*
X33540498Y-13086508D01*
X33448046Y-12863309D01*
X33448041Y-12863299D01*
X33316924Y-12636196D01*
X33157281Y-12428148D01*
X33157274Y-12428140D01*
X32971860Y-12242726D01*
X32971851Y-12242718D01*
X32763803Y-12083075D01*
X32536700Y-11951958D01*
X32536690Y-11951953D01*
X32294428Y-11851605D01*
X32294421Y-11851603D01*
X32294419Y-11851602D01*
X32041116Y-11783730D01*
X31983339Y-11776123D01*
X31781127Y-11749500D01*
X31781120Y-11749500D01*
X31524500Y-11749500D01*
X31457461Y-11729815D01*
X31411706Y-11677011D01*
X31400500Y-11625500D01*
X31400500Y-9103930D01*
X31420185Y-9036891D01*
X31462500Y-8996543D01*
X31513803Y-8966924D01*
X31721851Y-8807282D01*
X31721855Y-8807277D01*
X31721860Y-8807274D01*
X31907274Y-8621860D01*
X31907277Y-8621855D01*
X31907282Y-8621851D01*
X32066924Y-8413803D01*
X32198043Y-8186697D01*
X32298398Y-7944419D01*
X32366270Y-7691116D01*
X32400500Y-7431120D01*
X32400500Y-5668880D01*
X32366270Y-5408884D01*
X32298398Y-5155581D01*
X32289073Y-5133068D01*
X32198046Y-4913309D01*
X32198041Y-4913299D01*
X32066924Y-4686196D01*
X31923891Y-4499794D01*
X31907282Y-4478149D01*
X31907281Y-4478148D01*
X31907274Y-4478140D01*
X31721860Y-4292726D01*
X31721851Y-4292718D01*
X31513803Y-4133075D01*
X31286700Y-4001958D01*
X31286690Y-4001953D01*
X31044428Y-3901605D01*
X31044421Y-3901603D01*
X31044419Y-3901602D01*
X30791116Y-3833730D01*
X30733339Y-3826123D01*
X30531127Y-3799500D01*
X30531120Y-3799500D01*
X30268880Y-3799500D01*
X30268872Y-3799500D01*
X30037772Y-3829926D01*
X30008884Y-3833730D01*
X29801463Y-3889308D01*
X29755581Y-3901602D01*
X29755571Y-3901605D01*
X29513309Y-4001953D01*
X29513299Y-4001958D01*
X29286198Y-4133074D01*
X29235677Y-4171840D01*
X29170507Y-4197033D01*
X29102063Y-4182994D01*
X29072511Y-4161144D01*
X28738586Y-3827219D01*
X28387433Y-3476065D01*
X28353948Y-3414742D01*
X28357182Y-3350069D01*
X28378477Y-3284534D01*
X28410500Y-3082352D01*
X28410500Y-2877648D01*
X28378477Y-2675465D01*
X28339987Y-2557007D01*
X28315220Y-2480781D01*
X28222287Y-2298390D01*
X28214556Y-2287749D01*
X28101971Y-2132786D01*
X27957213Y-1988028D01*
X27791613Y-1867715D01*
X27791612Y-1867714D01*
X27791610Y-1867713D01*
X27734653Y-1838691D01*
X27609223Y-1774781D01*
X27414534Y-1711522D01*
X27239995Y-1683878D01*
X27212352Y-1679500D01*
X27007648Y-1679500D01*
X26983329Y-1683351D01*
X26805465Y-1711522D01*
X26610776Y-1774781D01*
X26428386Y-1867715D01*
X26262786Y-1988028D01*
X26118028Y-2132786D01*
X25997715Y-2298386D01*
X25904781Y-2480776D01*
X25841522Y-2675465D01*
X25809500Y-2877648D01*
X25809500Y-3082351D01*
X25841522Y-3284534D01*
X25904781Y-3479223D01*
X25951809Y-3571519D01*
X25996388Y-3659010D01*
X25997715Y-3661613D01*
X26118028Y-3827213D01*
X26262786Y-3971971D01*
X26348600Y-4034317D01*
X26428390Y-4092287D01*
X26508439Y-4133074D01*
X26610776Y-4185218D01*
X26610778Y-4185218D01*
X26610781Y-4185220D01*
X26704826Y-4215777D01*
X26805465Y-4248477D01*
X26906557Y-4264488D01*
X27007648Y-4280500D01*
X27017770Y-4280500D01*
X27084809Y-4300185D01*
X27105451Y-4316819D01*
X28363340Y-5574707D01*
X28396825Y-5636030D01*
X28398973Y-5664821D01*
X28399500Y-5664821D01*
X28399500Y-7431127D01*
X28424649Y-7622138D01*
X28433730Y-7691116D01*
X28501602Y-7944418D01*
X28501605Y-7944428D01*
X28601953Y-8186690D01*
X28601958Y-8186700D01*
X28733075Y-8413803D01*
X28892718Y-8621851D01*
X28892726Y-8621860D01*
X29078140Y-8807274D01*
X29078148Y-8807281D01*
X29078149Y-8807282D01*
X29286197Y-8966924D01*
X29337498Y-8996542D01*
X29385715Y-9047108D01*
X29399500Y-9103930D01*
X29399500Y-11812687D01*
X29379815Y-11879726D01*
X29327011Y-11925481D01*
X29322954Y-11927248D01*
X29263304Y-11951956D01*
X29263299Y-11951958D01*
X29036196Y-12083075D01*
X28828148Y-12242718D01*
X28642718Y-12428148D01*
X28483075Y-12636196D01*
X28351958Y-12863299D01*
X28351953Y-12863309D01*
X28251605Y-13105571D01*
X28251602Y-13105581D01*
X28185148Y-13353594D01*
X28183730Y-13358885D01*
X28149500Y-13618872D01*
X28149500Y-13881127D01*
X28173510Y-14063488D01*
X28183730Y-14141116D01*
X28238130Y-14344139D01*
X28251602Y-14394418D01*
X28251605Y-14394428D01*
X28351953Y-14636690D01*
X28351958Y-14636700D01*
X28483075Y-14863803D01*
X28642718Y-15071851D01*
X28642726Y-15071860D01*
X28828140Y-15257274D01*
X28828148Y-15257281D01*
X29036196Y-15416924D01*
X29263299Y-15548041D01*
X29263309Y-15548046D01*
X29439462Y-15621011D01*
X29493865Y-15664852D01*
X29515930Y-15731146D01*
X29498651Y-15798846D01*
X29479694Y-15823249D01*
X29472850Y-15830093D01*
X29472843Y-15830101D01*
X29347160Y-16013575D01*
X29257336Y-16217008D01*
X29257330Y-16217024D01*
X29206417Y-16433491D01*
X29206415Y-16433507D01*
X29200000Y-16525931D01*
X29200000Y-16900000D01*
X30401518Y-16900000D01*
X30390889Y-16918409D01*
X30350000Y-17071009D01*
X30350000Y-17228991D01*
X30390889Y-17381591D01*
X30401518Y-17400000D01*
X29200001Y-17400000D01*
X29200001Y-17487059D01*
X29180316Y-17554098D01*
X29127512Y-17599853D01*
X29058354Y-17609797D01*
X28994798Y-17580772D01*
X28988320Y-17574740D01*
X26967595Y-15554015D01*
X26934110Y-15492692D01*
X26937345Y-15428015D01*
X26938477Y-15424534D01*
X26941347Y-15406417D01*
X26962564Y-15272457D01*
X26970500Y-15222352D01*
X26970500Y-15017648D01*
X26944466Y-14853277D01*
X26938477Y-14815465D01*
X26903796Y-14708730D01*
X26875220Y-14620781D01*
X26875218Y-14620778D01*
X26875218Y-14620776D01*
X26841503Y-14554607D01*
X26782287Y-14438390D01*
X26750347Y-14394428D01*
X26661971Y-14272786D01*
X26517213Y-14128028D01*
X26351613Y-14007715D01*
X26351612Y-14007714D01*
X26351610Y-14007713D01*
X26275916Y-13969145D01*
X26169223Y-13914781D01*
X25974535Y-13851523D01*
X25875134Y-13835779D01*
X25812000Y-13805849D01*
X25775069Y-13746538D01*
X25776067Y-13676675D01*
X25776330Y-13675836D01*
X25823446Y-13527204D01*
X25850549Y-13306459D01*
X25836631Y-13084506D01*
X25782165Y-12868890D01*
X25689007Y-12666949D01*
X25637148Y-12590149D01*
X25637143Y-12590142D01*
X25406858Y-12295392D01*
X25406857Y-12295392D01*
X24457854Y-13036834D01*
X24433035Y-12944206D01*
X24354043Y-12807389D01*
X24242332Y-12695678D01*
X24150350Y-12642572D01*
X25099026Y-11901387D01*
X25099026Y-11901386D01*
X24868742Y-11606636D01*
X24868733Y-11606624D01*
X24806765Y-11537728D01*
X24633361Y-11398487D01*
X24437321Y-11293474D01*
X24225332Y-11226274D01*
X24004586Y-11199171D01*
X23782633Y-11213089D01*
X23567017Y-11267555D01*
X23365076Y-11360713D01*
X23288276Y-11412572D01*
X23288269Y-11412577D01*
X22993519Y-11642861D01*
X22993519Y-11642862D01*
X23734962Y-12591866D01*
X23642333Y-12616686D01*
X23505516Y-12695678D01*
X23393805Y-12807389D01*
X23340699Y-12899369D01*
X22599513Y-11950693D01*
X22304749Y-12180989D01*
X22235856Y-12242955D01*
X22096614Y-12416359D01*
X21991601Y-12612399D01*
X21924401Y-12824388D01*
X21897298Y-13045134D01*
X21911216Y-13267087D01*
X21965682Y-13482703D01*
X22058840Y-13684644D01*
X22110699Y-13761444D01*
X22110704Y-13761451D01*
X22340988Y-14056200D01*
X22340989Y-14056200D01*
X23289992Y-13314757D01*
X23314813Y-13407388D01*
X23393805Y-13544205D01*
X23505516Y-13655916D01*
X23597495Y-13709020D01*
X22648820Y-14450205D01*
X22648820Y-14450206D01*
X22879105Y-14744957D01*
X22879114Y-14744969D01*
X22941082Y-14813865D01*
X23114486Y-14953106D01*
X23310526Y-15058119D01*
X23522515Y-15125319D01*
X23743261Y-15152422D01*
X23965214Y-15138504D01*
X24180832Y-15084038D01*
X24193554Y-15078169D01*
X24262674Y-15067959D01*
X24326341Y-15096739D01*
X24364342Y-15155371D01*
X24369500Y-15190764D01*
X24369500Y-15222351D01*
X24401522Y-15424534D01*
X24464781Y-15619223D01*
X24557715Y-15801613D01*
X24678028Y-15967213D01*
X24822786Y-16111971D01*
X24955509Y-16208398D01*
X24988390Y-16232287D01*
X25104607Y-16291503D01*
X25170776Y-16325218D01*
X25170778Y-16325218D01*
X25170781Y-16325220D01*
X25233046Y-16345451D01*
X25365465Y-16388477D01*
X25466557Y-16404488D01*
X25567648Y-16420500D01*
X25659982Y-16420500D01*
X25727021Y-16440185D01*
X25747663Y-16456819D01*
X29303790Y-20012947D01*
X29303793Y-20012950D01*
X29303796Y-20012952D01*
X29354339Y-20046723D01*
X29426717Y-20095084D01*
X29426718Y-20095084D01*
X29426719Y-20095085D01*
X29436536Y-20099151D01*
X29453559Y-20106202D01*
X29507964Y-20150042D01*
X29530030Y-20216336D01*
X29512752Y-20284035D01*
X29493792Y-20308444D01*
X29472457Y-20329779D01*
X29346721Y-20513331D01*
X29256860Y-20716848D01*
X29256854Y-20716864D01*
X29205920Y-20933422D01*
X29205918Y-20933438D01*
X29199500Y-21025904D01*
X29199500Y-21248997D01*
X29179815Y-21316036D01*
X29127011Y-21361791D01*
X29057853Y-21371735D01*
X29002615Y-21349315D01*
X28969728Y-21325422D01*
X28969727Y-21325421D01*
X28969725Y-21325420D01*
X28896284Y-21288000D01*
X28787338Y-21232488D01*
X28592649Y-21169229D01*
X28418110Y-21141585D01*
X28390467Y-21137207D01*
X28185763Y-21137207D01*
X28161444Y-21141058D01*
X27983580Y-21169229D01*
X27788891Y-21232488D01*
X27606501Y-21325422D01*
X27440901Y-21445735D01*
X27296147Y-21590489D01*
X27296143Y-21590494D01*
X27263015Y-21636092D01*
X27207686Y-21678758D01*
X27162697Y-21687207D01*
X26429937Y-21687207D01*
X26362898Y-21667522D01*
X26342256Y-21650888D01*
X21847967Y-17156599D01*
X21814482Y-17095276D01*
X21819466Y-17025584D01*
X21859307Y-16971204D01*
X21862856Y-16968431D01*
X21897383Y-16941456D01*
X21966302Y-16879465D01*
X22105606Y-16705988D01*
X22210661Y-16509868D01*
X22269193Y-16325220D01*
X22277889Y-16297788D01*
X22278995Y-16288783D01*
X22305004Y-16076956D01*
X22291080Y-15854906D01*
X22236591Y-15639197D01*
X22143393Y-15437172D01*
X22091518Y-15360349D01*
X22069662Y-15332374D01*
X21323066Y-14376774D01*
X21323055Y-14376761D01*
X21261072Y-14307851D01*
X21261070Y-14307849D01*
X21261068Y-14307847D01*
X21087591Y-14168543D01*
X21087587Y-14168541D01*
X21087585Y-14168539D01*
X20891472Y-14063488D01*
X20891468Y-14063486D01*
X20677771Y-13995747D01*
X20667793Y-13992107D01*
X20590542Y-13960109D01*
X20590534Y-13960107D01*
X20416570Y-13925503D01*
X20416567Y-13925503D01*
X20239185Y-13925503D01*
X20239182Y-13925503D01*
X20065217Y-13960106D01*
X20065208Y-13960109D01*
X19901336Y-14027986D01*
X19901327Y-14027991D01*
X19855117Y-14058867D01*
X19788439Y-14079743D01*
X19721059Y-14061257D01*
X19698547Y-14043444D01*
X17758289Y-12103186D01*
X17724804Y-12041863D01*
X17729788Y-11972171D01*
X17769627Y-11917793D01*
X17895583Y-11819386D01*
X17964502Y-11757395D01*
X18103806Y-11583918D01*
X18208861Y-11387798D01*
X18264242Y-11213089D01*
X18276089Y-11175718D01*
X18276090Y-11175713D01*
X18303204Y-10954886D01*
X18289280Y-10732836D01*
X18234791Y-10517127D01*
X18141593Y-10315102D01*
X18089718Y-10238279D01*
X17953938Y-10064488D01*
X17466305Y-9440346D01*
X17321266Y-9254704D01*
X17321255Y-9254691D01*
X17259272Y-9185781D01*
X17259270Y-9185779D01*
X17259268Y-9185777D01*
X17085791Y-9046473D01*
X17085787Y-9046471D01*
X17085785Y-9046469D01*
X16889672Y-8941418D01*
X16677591Y-8874189D01*
X16567172Y-8860632D01*
X16456759Y-8847075D01*
X16456755Y-8847075D01*
X16456754Y-8847075D01*
X16234707Y-8860999D01*
X16018998Y-8915488D01*
X15816977Y-9008684D01*
X15816971Y-9008688D01*
X15740148Y-9060563D01*
X14984278Y-9651112D01*
X14919331Y-9676874D01*
X14850766Y-9663434D01*
X14800353Y-9615058D01*
X14787712Y-9583768D01*
X14787407Y-9582561D01*
X14787407Y-9582557D01*
X14732918Y-9366848D01*
X14649388Y-9185781D01*
X14639721Y-9164825D01*
X14639717Y-9164819D01*
X14598602Y-9103930D01*
X14587845Y-9088000D01*
X14566407Y-9060561D01*
X13819393Y-8104425D01*
X13819382Y-8104412D01*
X13757399Y-8035502D01*
X13757397Y-8035500D01*
X13757395Y-8035498D01*
X13583918Y-7896194D01*
X13583914Y-7896192D01*
X13583912Y-7896190D01*
X13387799Y-7791139D01*
X13175718Y-7723910D01*
X13065299Y-7710353D01*
X12954886Y-7696796D01*
X12954882Y-7696796D01*
X12954881Y-7696796D01*
X12732834Y-7710720D01*
X12517125Y-7765209D01*
X12315104Y-7858405D01*
X12315098Y-7858409D01*
X12238275Y-7910284D01*
X11254704Y-8678733D01*
X11254691Y-8678744D01*
X11185781Y-8740727D01*
X11185775Y-8740734D01*
X11046474Y-8914206D01*
X11006373Y-8989067D01*
X10965960Y-9033615D01*
X10880123Y-9090970D01*
X10880117Y-9090975D01*
X8617052Y-11354039D01*
X8617049Y-11354042D01*
X8579575Y-11410126D01*
X8579576Y-11410127D01*
X8534914Y-11476969D01*
X8478343Y-11613543D01*
X8478340Y-11613553D01*
X8449500Y-11758540D01*
X8449500Y-11758543D01*
X8449500Y-13423918D01*
X8449500Y-13423920D01*
X8449499Y-13423920D01*
X8478340Y-13568907D01*
X8478343Y-13568917D01*
X8534914Y-13705492D01*
X8534915Y-13705494D01*
X8534916Y-13705495D01*
X8567813Y-13754729D01*
X8601228Y-13804740D01*
X8622105Y-13871416D01*
X8603620Y-13938796D01*
X8578217Y-13961614D01*
X8551642Y-13985485D01*
X8483014Y-13996704D01*
X8358369Y-13981400D01*
X8258559Y-13969145D01*
X8258557Y-13969145D01*
X8258556Y-13969145D01*
X8258553Y-13969145D01*
X8089604Y-13979739D01*
X8021464Y-13964288D01*
X7994163Y-13943663D01*
X5862451Y-11811951D01*
X5828966Y-11750628D01*
X5833950Y-11680936D01*
X5853443Y-11646634D01*
X5903806Y-11583918D01*
X6008861Y-11387798D01*
X6064242Y-11213089D01*
X6076089Y-11175718D01*
X6076090Y-11175713D01*
X6103204Y-10954886D01*
X6089280Y-10732836D01*
X6034791Y-10517127D01*
X5941593Y-10315102D01*
X5889718Y-10238279D01*
X5753938Y-10064488D01*
X5266305Y-9440346D01*
X5121266Y-9254704D01*
X5121255Y-9254691D01*
X5059272Y-9185781D01*
X5059270Y-9185779D01*
X5059268Y-9185777D01*
X4885791Y-9046473D01*
X4885787Y-9046471D01*
X4885785Y-9046469D01*
X4689672Y-8941418D01*
X4477591Y-8874189D01*
X4367172Y-8860632D01*
X4256759Y-8847075D01*
X4256755Y-8847075D01*
X4256754Y-8847075D01*
X4034707Y-8860999D01*
X3818998Y-8915488D01*
X3616977Y-9008684D01*
X3616971Y-9008688D01*
X3540148Y-9060563D01*
X2556577Y-9829012D01*
X2556564Y-9829023D01*
X2487654Y-9891006D01*
X2348342Y-10064493D01*
X2243291Y-10260606D01*
X2243291Y-10260607D01*
X2176062Y-10472687D01*
X2172709Y-10499998D01*
X2149106Y-10692240D01*
X2148948Y-10693524D01*
X2162872Y-10915571D01*
X2217361Y-11131280D01*
X2310557Y-11333301D01*
X2310561Y-11333307D01*
X2362436Y-11410130D01*
X3130885Y-12393701D01*
X3130896Y-12393714D01*
X3192879Y-12462624D01*
X3192880Y-12462625D01*
X3192884Y-12462629D01*
X3366361Y-12601933D01*
X3366364Y-12601935D01*
X3366366Y-12601936D01*
X3561887Y-12706670D01*
X3562481Y-12706988D01*
X3623699Y-12726393D01*
X3774560Y-12774216D01*
X3774564Y-12774216D01*
X3774566Y-12774217D01*
X3995393Y-12801331D01*
X4217443Y-12787407D01*
X4217456Y-12787403D01*
X4218707Y-12787209D01*
X4219317Y-12787289D01*
X4223164Y-12787048D01*
X4223211Y-12787800D01*
X4287982Y-12796303D01*
X4325540Y-12822040D01*
X6422910Y-14919410D01*
X6456395Y-14980733D01*
X6451411Y-15050425D01*
X6431915Y-15084730D01*
X6350144Y-15186560D01*
X6245091Y-15382676D01*
X6245091Y-15382677D01*
X6177862Y-15594757D01*
X6174639Y-15621011D01*
X6152189Y-15803859D01*
X6150748Y-15815594D01*
X6164672Y-16037641D01*
X6219161Y-16253350D01*
X6312357Y-16455371D01*
X6312361Y-16455377D01*
X6364236Y-16532200D01*
X7132685Y-17515771D01*
X7132696Y-17515784D01*
X7194679Y-17584694D01*
X7194680Y-17584695D01*
X7194684Y-17584699D01*
X7368161Y-17724003D01*
X7368164Y-17724005D01*
X7368166Y-17724006D01*
X7416693Y-17750000D01*
X7564281Y-17829058D01*
X7623270Y-17847757D01*
X7776360Y-17896286D01*
X7776364Y-17896286D01*
X7776366Y-17896287D01*
X7985961Y-17922021D01*
X8050099Y-17949729D01*
X8089078Y-18007715D01*
X8093923Y-18060209D01*
X8077101Y-18197213D01*
X8091019Y-18419166D01*
X8145485Y-18634782D01*
X8238643Y-18836723D01*
X8290502Y-18913523D01*
X8290507Y-18913530D01*
X8520791Y-19208279D01*
X8520792Y-19208279D01*
X9469796Y-18466837D01*
X9494616Y-18559467D01*
X9573608Y-18696284D01*
X9685319Y-18807995D01*
X9777297Y-18861099D01*
X8828623Y-19602284D01*
X8828623Y-19602285D01*
X9058908Y-19897036D01*
X9058917Y-19897048D01*
X9120885Y-19965944D01*
X9294289Y-20105185D01*
X9490329Y-20210198D01*
X9702318Y-20277398D01*
X9923064Y-20304501D01*
X10145017Y-20290583D01*
X10360633Y-20236117D01*
X10562577Y-20142957D01*
X10639365Y-20091108D01*
X10934130Y-19860810D01*
X10934130Y-19860809D01*
X10192688Y-18911806D01*
X10285318Y-18886987D01*
X10422135Y-18807995D01*
X10533846Y-18696284D01*
X10586950Y-18604304D01*
X11328135Y-19552978D01*
X11328136Y-19552978D01*
X11622887Y-19322694D01*
X11622899Y-19322685D01*
X11691795Y-19260717D01*
X11831036Y-19087313D01*
X11936049Y-18891273D01*
X12003249Y-18679284D01*
X12030352Y-18458538D01*
X12016434Y-18236585D01*
X11961968Y-18020969D01*
X11868810Y-17819028D01*
X11816951Y-17742228D01*
X11816946Y-17742221D01*
X11586661Y-17447471D01*
X11586660Y-17447471D01*
X10637657Y-18188912D01*
X10612838Y-18096285D01*
X10533846Y-17959468D01*
X10422135Y-17847757D01*
X10330155Y-17794651D01*
X11278829Y-17053466D01*
X11278829Y-17053465D01*
X11048545Y-16758715D01*
X11048536Y-16758703D01*
X10986568Y-16689807D01*
X10813164Y-16550566D01*
X10617124Y-16445553D01*
X10405135Y-16378353D01*
X10196079Y-16352685D01*
X10131938Y-16324977D01*
X10092960Y-16266990D01*
X10088115Y-16214502D01*
X10105004Y-16076956D01*
X10091080Y-15854906D01*
X10036591Y-15639197D01*
X9992626Y-15543896D01*
X9982418Y-15474778D01*
X10011199Y-15411111D01*
X10069832Y-15373112D01*
X10139701Y-15372844D01*
X10192904Y-15404273D01*
X17333526Y-22544893D01*
X17367011Y-22606216D01*
X17368318Y-22651971D01*
X17359500Y-22707647D01*
X17359500Y-22912351D01*
X17391522Y-23114534D01*
X17454781Y-23309223D01*
X17547715Y-23491613D01*
X17668028Y-23657213D01*
X17812786Y-23801971D01*
X17978385Y-23922284D01*
X17978387Y-23922285D01*
X17978390Y-23922287D01*
X18008493Y-23937625D01*
X18059289Y-23985598D01*
X18076085Y-24053419D01*
X18062684Y-24104404D01*
X18010129Y-24207549D01*
X17956597Y-24372302D01*
X17929500Y-24543389D01*
X17929500Y-26116610D01*
X17955934Y-26283512D01*
X17956598Y-26287701D01*
X18010127Y-26452445D01*
X18088768Y-26606788D01*
X18190586Y-26746928D01*
X18190588Y-26746930D01*
X18313072Y-26869414D01*
X18354733Y-26899683D01*
X18397398Y-26955013D01*
X18403376Y-27024627D01*
X18370769Y-27086421D01*
X18354733Y-27100317D01*
X18313072Y-27130585D01*
X18190588Y-27253069D01*
X18190588Y-27253070D01*
X18190586Y-27253072D01*
X18164737Y-27288650D01*
X18088768Y-27393211D01*
X18010129Y-27547549D01*
X17982814Y-27631615D01*
X17943375Y-27689290D01*
X17879016Y-27716487D01*
X17810170Y-27704572D01*
X17758695Y-27657327D01*
X17746952Y-27631613D01*
X17694755Y-27470970D01*
X17601859Y-27288650D01*
X17481582Y-27123105D01*
X17481582Y-27123104D01*
X17336895Y-26978417D01*
X17336889Y-26978412D01*
X17315940Y-26963191D01*
X17273276Y-26907860D01*
X17267298Y-26838247D01*
X17299906Y-26776453D01*
X17301017Y-26775324D01*
X17329414Y-26746928D01*
X17431232Y-26606788D01*
X17509873Y-26452445D01*
X17563402Y-26287701D01*
X17590500Y-26116611D01*
X17590500Y-24543389D01*
X17563402Y-24372299D01*
X17509873Y-24207555D01*
X17431232Y-24053212D01*
X17329414Y-23913072D01*
X17206928Y-23790586D01*
X17066788Y-23688768D01*
X16912445Y-23610127D01*
X16747701Y-23556598D01*
X16747699Y-23556597D01*
X16747698Y-23556597D01*
X16608836Y-23534604D01*
X16576611Y-23529500D01*
X16403389Y-23529500D01*
X16371164Y-23534604D01*
X16232302Y-23556597D01*
X16067552Y-23610128D01*
X15913211Y-23688768D01*
X15888291Y-23706874D01*
X15773072Y-23790586D01*
X15773070Y-23790588D01*
X15773069Y-23790588D01*
X15650588Y-23913069D01*
X15650588Y-23913070D01*
X15650586Y-23913072D01*
X15643891Y-23922287D01*
X15548768Y-24053211D01*
X15470128Y-24207552D01*
X15416597Y-24372302D01*
X15389500Y-24543389D01*
X15389500Y-26116610D01*
X15415934Y-26283512D01*
X15416598Y-26287701D01*
X15470127Y-26452445D01*
X15548768Y-26606788D01*
X15650586Y-26746928D01*
X15650588Y-26746930D01*
X15678852Y-26775194D01*
X15712337Y-26836517D01*
X15707353Y-26906209D01*
X15665481Y-26962142D01*
X15664061Y-26963190D01*
X15643107Y-26978414D01*
X15498417Y-27123104D01*
X15498417Y-27123105D01*
X15378140Y-27288650D01*
X15285244Y-27470968D01*
X15233047Y-27631614D01*
X15193609Y-27689289D01*
X15129250Y-27716487D01*
X15060404Y-27704572D01*
X15008928Y-27657328D01*
X14997186Y-27631615D01*
X14969873Y-27547555D01*
X14891232Y-27393212D01*
X14789414Y-27253072D01*
X14666928Y-27130586D01*
X14625265Y-27100316D01*
X14582602Y-27044988D01*
X14576623Y-26975374D01*
X14609229Y-26913579D01*
X14625266Y-26899683D01*
X14666928Y-26869414D01*
X14789414Y-26746928D01*
X14891232Y-26606788D01*
X14969873Y-26452445D01*
X15023402Y-26287701D01*
X15050500Y-26116611D01*
X15050500Y-24543389D01*
X15023402Y-24372299D01*
X14969873Y-24207555D01*
X14891232Y-24053212D01*
X14789414Y-23913072D01*
X14666928Y-23790586D01*
X14526788Y-23688768D01*
X14372445Y-23610127D01*
X14207701Y-23556598D01*
X14207699Y-23556597D01*
X14207698Y-23556597D01*
X14068836Y-23534604D01*
X14036611Y-23529500D01*
X13908568Y-23529500D01*
X13841529Y-23509815D01*
X13795774Y-23457011D01*
X13785830Y-23387853D01*
X13814855Y-23324297D01*
X13832226Y-23307787D01*
X14393701Y-22869114D01*
X14393700Y-22869114D01*
X14393710Y-22869107D01*
X14462629Y-22807116D01*
X14601933Y-22633639D01*
X14706988Y-22437519D01*
X14771834Y-22232952D01*
X14774216Y-22225439D01*
X14779430Y-22182975D01*
X14801331Y-22004607D01*
X14787407Y-21782557D01*
X14732918Y-21566848D01*
X14639720Y-21364823D01*
X14587845Y-21288000D01*
X14441246Y-21100362D01*
X13819393Y-20304425D01*
X13819382Y-20304412D01*
X13757399Y-20235502D01*
X13757397Y-20235500D01*
X13757395Y-20235498D01*
X13583918Y-20096194D01*
X13583914Y-20096192D01*
X13583912Y-20096190D01*
X13387799Y-19991139D01*
X13175718Y-19923910D01*
X13065299Y-19910353D01*
X12954886Y-19896796D01*
X12954882Y-19896796D01*
X12954881Y-19896796D01*
X12732834Y-19910720D01*
X12517125Y-19965209D01*
X12315104Y-20058405D01*
X12315098Y-20058409D01*
X12238275Y-20110284D01*
X11254704Y-20878733D01*
X11254691Y-20878744D01*
X11185781Y-20940727D01*
X11046469Y-21114214D01*
X10941418Y-21310327D01*
X10941418Y-21310328D01*
X10874189Y-21522408D01*
X10862402Y-21618408D01*
X10848687Y-21730119D01*
X10847075Y-21743245D01*
X10860999Y-21965292D01*
X10915488Y-22181001D01*
X11008684Y-22383022D01*
X11008688Y-22383028D01*
X11060563Y-22459851D01*
X11758896Y-23353678D01*
X11784658Y-23418625D01*
X11771218Y-23487190D01*
X11722842Y-23537603D01*
X11654890Y-23553860D01*
X11641785Y-23552493D01*
X11528836Y-23534604D01*
X11496611Y-23529500D01*
X11323389Y-23529500D01*
X11291164Y-23534604D01*
X11152302Y-23556597D01*
X10987552Y-23610128D01*
X10833211Y-23688768D01*
X10808291Y-23706874D01*
X10693072Y-23790586D01*
X10693070Y-23790588D01*
X10693069Y-23790588D01*
X10570588Y-23913069D01*
X10570588Y-23913070D01*
X10570586Y-23913072D01*
X10563891Y-23922287D01*
X10468768Y-24053211D01*
X10390129Y-24207549D01*
X10362814Y-24291615D01*
X10323375Y-24349290D01*
X10259016Y-24376487D01*
X10190170Y-24364572D01*
X10138695Y-24317327D01*
X10126952Y-24291613D01*
X10074755Y-24130970D01*
X9981859Y-23948650D01*
X9861582Y-23783105D01*
X9861582Y-23783104D01*
X9716895Y-23638417D01*
X9551349Y-23518140D01*
X9369029Y-23425244D01*
X9174413Y-23362009D01*
X9120000Y-23353390D01*
X9120000Y-25206000D01*
X9100315Y-25273039D01*
X9091599Y-25280590D01*
X9062993Y-25264075D01*
X8935826Y-25230000D01*
X8804174Y-25230000D01*
X8677007Y-25264075D01*
X8562993Y-25329901D01*
X8469901Y-25422993D01*
X8404075Y-25537007D01*
X8392555Y-25580000D01*
X7570000Y-25580000D01*
X7570000Y-26132317D01*
X7602009Y-26334417D01*
X7665244Y-26529031D01*
X7758140Y-26711349D01*
X7878417Y-26876894D01*
X7878417Y-26876895D01*
X8023107Y-27021585D01*
X8044058Y-27036807D01*
X8086723Y-27092138D01*
X8092701Y-27161751D01*
X8060094Y-27223546D01*
X8058854Y-27224804D01*
X8030586Y-27253072D01*
X7928768Y-27393211D01*
X7850128Y-27547552D01*
X7796597Y-27712302D01*
X7769500Y-27883389D01*
X7769500Y-29456610D01*
X7795934Y-29623512D01*
X7796598Y-29627701D01*
X7850127Y-29792445D01*
X7928768Y-29946788D01*
X8030586Y-30086928D01*
X8153072Y-30209414D01*
X8293212Y-30311232D01*
X8392036Y-30361585D01*
X8398768Y-30365015D01*
X8449564Y-30412989D01*
X8466359Y-30480810D01*
X8443822Y-30546945D01*
X8389107Y-30590397D01*
X8342473Y-30599500D01*
X524500Y-30599500D01*
X457461Y-30579815D01*
X411706Y-30527011D01*
X400500Y-30475500D01*
X400500Y-26890188D01*
X2324500Y-26890188D01*
X2324500Y-27109811D01*
X2324501Y-27109828D01*
X2353167Y-27327573D01*
X2410014Y-27539729D01*
X2483230Y-27716487D01*
X2494065Y-27742645D01*
X2603884Y-27932855D01*
X2603889Y-27932861D01*
X2603890Y-27932863D01*
X2737588Y-28107102D01*
X2737594Y-28107109D01*
X2892890Y-28262405D01*
X2892897Y-28262411D01*
X3016977Y-28357621D01*
X3067145Y-28396116D01*
X3257355Y-28505935D01*
X3358814Y-28547960D01*
X3460270Y-28589985D01*
X3460271Y-28589985D01*
X3460273Y-28589986D01*
X3672425Y-28646832D01*
X3890182Y-28675500D01*
X3890189Y-28675500D01*
X4109811Y-28675500D01*
X4109818Y-28675500D01*
X4327575Y-28646832D01*
X4539727Y-28589986D01*
X4742645Y-28505935D01*
X4932855Y-28396116D01*
X5107104Y-28262410D01*
X5262410Y-28107104D01*
X5396116Y-27932855D01*
X5505935Y-27742645D01*
X5589986Y-27539727D01*
X5646832Y-27327575D01*
X5675500Y-27109818D01*
X5675500Y-26890182D01*
X5646832Y-26672425D01*
X5589986Y-26460273D01*
X5586744Y-26452447D01*
X5528035Y-26310710D01*
X5505935Y-26257355D01*
X5396116Y-26067145D01*
X5262410Y-25892896D01*
X5262405Y-25892890D01*
X5107109Y-25737594D01*
X5107102Y-25737588D01*
X4932863Y-25603890D01*
X4932861Y-25603889D01*
X4932855Y-25603884D01*
X4742645Y-25494065D01*
X4742641Y-25494063D01*
X4539729Y-25410014D01*
X4327573Y-25353167D01*
X4109828Y-25324501D01*
X4109823Y-25324500D01*
X4109818Y-25324500D01*
X3890182Y-25324500D01*
X3890176Y-25324500D01*
X3890171Y-25324501D01*
X3672426Y-25353167D01*
X3460270Y-25410014D01*
X3257358Y-25494063D01*
X3257354Y-25494065D01*
X3067145Y-25603884D01*
X3067136Y-25603890D01*
X2892897Y-25737588D01*
X2892890Y-25737594D01*
X2737594Y-25892890D01*
X2737588Y-25892897D01*
X2603890Y-26067136D01*
X2603884Y-26067145D01*
X2494065Y-26257354D01*
X2494063Y-26257358D01*
X2410014Y-26460270D01*
X2353167Y-26672426D01*
X2324501Y-26890171D01*
X2324500Y-26890188D01*
X400500Y-26890188D01*
X400500Y-24527682D01*
X7570000Y-24527682D01*
X7570000Y-25080000D01*
X8620000Y-25080000D01*
X8620000Y-23353390D01*
X8565586Y-23362009D01*
X8370970Y-23425244D01*
X8188650Y-23518140D01*
X8023105Y-23638417D01*
X8023104Y-23638417D01*
X7878417Y-23783104D01*
X7878417Y-23783105D01*
X7758140Y-23948650D01*
X7665244Y-24130968D01*
X7602009Y-24325582D01*
X7570000Y-24527682D01*
X400500Y-24527682D01*
X400500Y-24502107D01*
X420185Y-24435068D01*
X472989Y-24389313D01*
X542147Y-24379369D01*
X605703Y-24408394D01*
X609377Y-24411815D01*
X609570Y-24411815D01*
X3179798Y-24411815D01*
X3179798Y-14648189D01*
X609570Y-14648189D01*
X607399Y-14648189D01*
X550858Y-14679063D01*
X481166Y-14674079D01*
X425233Y-14632207D01*
X400816Y-14566743D01*
X400500Y-14557897D01*
X400500Y-7923064D01*
X5695498Y-7923064D01*
X5709416Y-8145017D01*
X5763882Y-8360633D01*
X5857040Y-8562574D01*
X5908899Y-8639374D01*
X5908904Y-8639381D01*
X6139188Y-8934130D01*
X6139189Y-8934130D01*
X7088192Y-8192687D01*
X7113013Y-8285318D01*
X7192005Y-8422135D01*
X7303716Y-8533846D01*
X7395694Y-8586950D01*
X6447020Y-9328135D01*
X6447020Y-9328136D01*
X6677305Y-9622887D01*
X6677314Y-9622899D01*
X6739282Y-9691795D01*
X6912686Y-9831036D01*
X7108726Y-9936049D01*
X7320715Y-10003249D01*
X7541461Y-10030352D01*
X7763414Y-10016434D01*
X7979030Y-9961968D01*
X8180974Y-9868808D01*
X8257762Y-9816959D01*
X8552527Y-9586661D01*
X8552527Y-9586660D01*
X7811085Y-8637657D01*
X7903715Y-8612838D01*
X8040532Y-8533846D01*
X8152243Y-8422135D01*
X8205347Y-8330155D01*
X8946532Y-9278829D01*
X8946533Y-9278829D01*
X9241284Y-9048545D01*
X9241296Y-9048536D01*
X9310192Y-8986568D01*
X9449433Y-8813164D01*
X9554446Y-8617124D01*
X9621646Y-8405134D01*
X9647375Y-8195584D01*
X9675083Y-8131443D01*
X9733069Y-8092464D01*
X9785563Y-8087619D01*
X9923064Y-8104501D01*
X10145017Y-8090583D01*
X10360633Y-8036117D01*
X10562577Y-7942957D01*
X10639365Y-7891108D01*
X10934130Y-7660810D01*
X10934130Y-7660809D01*
X10192688Y-6711806D01*
X10285318Y-6686987D01*
X10422135Y-6607995D01*
X10533846Y-6496284D01*
X10586950Y-6404304D01*
X11328135Y-7352978D01*
X11328136Y-7352978D01*
X11622887Y-7122694D01*
X11622899Y-7122685D01*
X11691795Y-7060717D01*
X11831036Y-6887313D01*
X11936049Y-6691273D01*
X12003249Y-6479284D01*
X12030352Y-6258538D01*
X12016434Y-6036585D01*
X11961968Y-5820969D01*
X11868808Y-5619025D01*
X11864654Y-5612873D01*
X11864653Y-5612872D01*
X11816951Y-5542228D01*
X11816946Y-5542221D01*
X11816340Y-5541445D01*
X15969145Y-5541445D01*
X15983069Y-5763492D01*
X16037558Y-5979201D01*
X16130754Y-6181222D01*
X16130758Y-6181228D01*
X16182633Y-6258051D01*
X16951082Y-7241622D01*
X16951093Y-7241635D01*
X17013076Y-7310545D01*
X17013077Y-7310546D01*
X17013081Y-7310550D01*
X17186558Y-7449854D01*
X17186561Y-7449856D01*
X17186563Y-7449857D01*
X17300879Y-7511092D01*
X17382678Y-7554909D01*
X17441667Y-7573608D01*
X17594757Y-7622137D01*
X17594761Y-7622137D01*
X17594763Y-7622138D01*
X17804358Y-7647872D01*
X17868496Y-7675580D01*
X17907475Y-7733566D01*
X17912320Y-7786060D01*
X17895498Y-7923064D01*
X17909416Y-8145017D01*
X17963882Y-8360633D01*
X18057040Y-8562574D01*
X18108899Y-8639374D01*
X18108904Y-8639381D01*
X18339188Y-8934130D01*
X18339189Y-8934130D01*
X19288193Y-8192688D01*
X19313013Y-8285318D01*
X19392005Y-8422135D01*
X19503716Y-8533846D01*
X19595694Y-8586950D01*
X18647020Y-9328135D01*
X18647020Y-9328136D01*
X18877305Y-9622887D01*
X18877314Y-9622899D01*
X18939282Y-9691795D01*
X19112686Y-9831036D01*
X19308726Y-9936049D01*
X19520715Y-10003249D01*
X19741461Y-10030352D01*
X19963414Y-10016434D01*
X20179030Y-9961968D01*
X20380974Y-9868808D01*
X20457762Y-9816959D01*
X20752527Y-9586661D01*
X20752527Y-9586660D01*
X20011085Y-8637657D01*
X20103715Y-8612838D01*
X20240532Y-8533846D01*
X20352243Y-8422135D01*
X20405347Y-8330155D01*
X21146532Y-9278829D01*
X21146533Y-9278829D01*
X21441284Y-9048545D01*
X21441296Y-9048536D01*
X21510192Y-8986568D01*
X21649433Y-8813164D01*
X21754446Y-8617124D01*
X21821646Y-8405135D01*
X21848749Y-8184389D01*
X21834831Y-7962436D01*
X21780365Y-7746820D01*
X21687207Y-7544879D01*
X21635348Y-7468079D01*
X21635343Y-7468072D01*
X21405058Y-7173322D01*
X21405057Y-7173322D01*
X20456054Y-7914763D01*
X20431235Y-7822136D01*
X20352243Y-7685319D01*
X20240532Y-7573608D01*
X20148552Y-7520502D01*
X21097226Y-6779317D01*
X21097226Y-6779316D01*
X20866942Y-6484566D01*
X20866933Y-6484554D01*
X20804965Y-6415658D01*
X20631561Y-6276417D01*
X20435521Y-6171404D01*
X20223532Y-6104204D01*
X20014476Y-6078536D01*
X19950335Y-6050828D01*
X19911357Y-5992841D01*
X19906512Y-5940353D01*
X19923401Y-5802807D01*
X19909477Y-5580757D01*
X19854988Y-5365048D01*
X19761790Y-5163023D01*
X19709915Y-5086200D01*
X19574135Y-4912409D01*
X18941463Y-4102625D01*
X18941452Y-4102612D01*
X18879469Y-4033702D01*
X18879467Y-4033700D01*
X18879465Y-4033698D01*
X18705988Y-3894394D01*
X18705984Y-3894392D01*
X18705982Y-3894390D01*
X18509869Y-3789339D01*
X18297788Y-3722110D01*
X18187369Y-3708553D01*
X18076956Y-3694996D01*
X18076952Y-3694996D01*
X18076951Y-3694996D01*
X17854904Y-3708920D01*
X17639195Y-3763409D01*
X17437174Y-3856605D01*
X17437168Y-3856609D01*
X17360345Y-3908484D01*
X16376774Y-4676933D01*
X16376761Y-4676944D01*
X16307851Y-4738927D01*
X16168539Y-4912414D01*
X16063488Y-5108527D01*
X16063488Y-5108528D01*
X15996259Y-5320608D01*
X15979990Y-5453110D01*
X15973505Y-5505936D01*
X15969145Y-5541445D01*
X11816340Y-5541445D01*
X11586661Y-5247471D01*
X11586660Y-5247471D01*
X10637657Y-5988912D01*
X10612838Y-5896285D01*
X10533846Y-5759468D01*
X10422135Y-5647757D01*
X10330153Y-5594651D01*
X11278829Y-4853466D01*
X11278829Y-4853465D01*
X11048545Y-4558715D01*
X11048536Y-4558703D01*
X10986568Y-4489807D01*
X10813164Y-4350566D01*
X10617124Y-4245553D01*
X10405135Y-4178353D01*
X10184389Y-4151250D01*
X9962436Y-4165168D01*
X9746820Y-4219634D01*
X9544879Y-4312792D01*
X9468079Y-4364651D01*
X9468072Y-4364656D01*
X9173322Y-4594940D01*
X9173322Y-4594941D01*
X9914765Y-5543945D01*
X9822136Y-5568765D01*
X9685319Y-5647757D01*
X9573608Y-5759468D01*
X9520502Y-5851448D01*
X8779316Y-4902772D01*
X8484552Y-5133068D01*
X8415659Y-5195034D01*
X8276417Y-5368438D01*
X8171404Y-5564478D01*
X8104204Y-5776467D01*
X8078475Y-5986019D01*
X8050767Y-6050160D01*
X7992780Y-6089138D01*
X7940288Y-6093983D01*
X7802787Y-6077101D01*
X7580833Y-6091019D01*
X7365217Y-6145485D01*
X7163276Y-6238643D01*
X7086476Y-6290502D01*
X7086469Y-6290507D01*
X6791719Y-6520791D01*
X6791719Y-6520792D01*
X7533162Y-7469796D01*
X7440533Y-7494616D01*
X7303716Y-7573608D01*
X7192005Y-7685319D01*
X7138899Y-7777299D01*
X6397713Y-6828623D01*
X6102949Y-7058919D01*
X6034056Y-7120885D01*
X5894814Y-7294289D01*
X5789801Y-7490329D01*
X5722601Y-7702318D01*
X5695498Y-7923064D01*
X400500Y-7923064D01*
X400500Y-3890188D01*
X2324500Y-3890188D01*
X2324500Y-4109811D01*
X2324501Y-4109828D01*
X2353167Y-4327573D01*
X2410014Y-4539729D01*
X2484018Y-4718390D01*
X2494065Y-4742645D01*
X2603884Y-4932855D01*
X2603889Y-4932861D01*
X2603890Y-4932863D01*
X2737588Y-5107102D01*
X2737594Y-5107109D01*
X2892890Y-5262405D01*
X2892896Y-5262410D01*
X3067145Y-5396116D01*
X3257355Y-5505935D01*
X3358814Y-5547960D01*
X3460270Y-5589985D01*
X3460271Y-5589985D01*
X3460273Y-5589986D01*
X3672425Y-5646832D01*
X3890182Y-5675500D01*
X3890189Y-5675500D01*
X4109811Y-5675500D01*
X4109818Y-5675500D01*
X4327575Y-5646832D01*
X4539727Y-5589986D01*
X4742645Y-5505935D01*
X4932855Y-5396116D01*
X5107104Y-5262410D01*
X5262410Y-5107104D01*
X5396116Y-4932855D01*
X5505935Y-4742645D01*
X5567116Y-4594941D01*
X5571915Y-4583356D01*
X5571915Y-4583354D01*
X5589984Y-4539732D01*
X5589985Y-4539729D01*
X5589986Y-4539727D01*
X5646832Y-4327575D01*
X5675500Y-4109818D01*
X5675500Y-3890182D01*
X5646832Y-3672425D01*
X5592176Y-3468446D01*
X5592176Y-3468444D01*
X5589986Y-3460273D01*
X5574271Y-3422334D01*
X5505935Y-3257355D01*
X5396116Y-3067145D01*
X5262410Y-2892896D01*
X5262405Y-2892890D01*
X5107109Y-2737594D01*
X5107102Y-2737588D01*
X4932863Y-2603890D01*
X4932861Y-2603889D01*
X4932855Y-2603884D01*
X4742645Y-2494065D01*
X4742641Y-2494063D01*
X4539729Y-2410014D01*
X4327573Y-2353167D01*
X4109828Y-2324501D01*
X4109823Y-2324500D01*
X4109818Y-2324500D01*
X3890182Y-2324500D01*
X3890176Y-2324500D01*
X3890171Y-2324501D01*
X3672426Y-2353167D01*
X3460270Y-2410014D01*
X3257358Y-2494063D01*
X3257354Y-2494065D01*
X3067145Y-2603884D01*
X3067136Y-2603890D01*
X2892897Y-2737588D01*
X2892890Y-2737594D01*
X2737594Y-2892890D01*
X2737588Y-2892897D01*
X2603890Y-3067136D01*
X2603884Y-3067145D01*
X2494065Y-3257354D01*
X2494063Y-3257358D01*
X2410014Y-3460270D01*
X2353167Y-3672426D01*
X2324501Y-3890171D01*
X2324500Y-3890188D01*
X400500Y-3890188D01*
X400500Y-524500D01*
X420185Y-457461D01*
X472989Y-411706D01*
X524500Y-400500D01*
X14181839Y-400500D01*
X14248878Y-420185D01*
G37*
%TD.AperFunction*%
%TA.AperFunction,Conductor*%
G36*
X12948333Y-14400898D02*
G01*
X13016017Y-14348018D01*
X13080963Y-14322256D01*
X13149528Y-14335696D01*
X13199942Y-14384072D01*
X13212583Y-14415362D01*
X13267555Y-14632982D01*
X13360713Y-14834923D01*
X13412572Y-14911723D01*
X13412577Y-14911730D01*
X13642861Y-15206479D01*
X13642862Y-15206479D01*
X14591865Y-14465036D01*
X14616686Y-14557667D01*
X14695678Y-14694484D01*
X14807389Y-14806195D01*
X14899367Y-14859299D01*
X13950693Y-15600484D01*
X13950693Y-15600485D01*
X14180978Y-15895236D01*
X14180987Y-15895248D01*
X14242955Y-15964144D01*
X14416359Y-16103385D01*
X14612399Y-16208398D01*
X14824388Y-16275598D01*
X15045134Y-16302701D01*
X15267087Y-16288783D01*
X15482703Y-16234317D01*
X15684647Y-16141157D01*
X15761435Y-16089308D01*
X16056200Y-15859010D01*
X16056200Y-15859009D01*
X15314758Y-14910006D01*
X15407388Y-14885187D01*
X15544205Y-14806195D01*
X15655916Y-14694484D01*
X15709020Y-14602504D01*
X16450205Y-15551178D01*
X16450206Y-15551178D01*
X16744957Y-15320894D01*
X16744969Y-15320885D01*
X16813865Y-15258917D01*
X16953106Y-15085513D01*
X17058119Y-14889473D01*
X17125319Y-14677484D01*
X17152422Y-14456738D01*
X17145362Y-14344139D01*
X17160812Y-14275999D01*
X17210649Y-14227029D01*
X17279050Y-14212776D01*
X17344298Y-14237767D01*
X17356800Y-14248697D01*
X18402789Y-15294686D01*
X18436274Y-15356009D01*
X18433311Y-15419836D01*
X18377863Y-15594756D01*
X18377862Y-15594762D01*
X18377862Y-15594763D01*
X18376358Y-15607015D01*
X18352188Y-15803859D01*
X18324480Y-15868000D01*
X18266493Y-15906978D01*
X18214001Y-15911822D01*
X18076956Y-15894996D01*
X18076953Y-15894996D01*
X18076952Y-15894996D01*
X17854904Y-15908920D01*
X17639195Y-15963409D01*
X17437174Y-16056605D01*
X17437168Y-16056609D01*
X17360345Y-16108484D01*
X16376774Y-16876933D01*
X16376761Y-16876944D01*
X16307851Y-16938927D01*
X16168539Y-17112414D01*
X16063488Y-17308527D01*
X16063488Y-17308528D01*
X15996259Y-17520608D01*
X15980311Y-17650500D01*
X15977790Y-17671037D01*
X15969145Y-17741445D01*
X15983069Y-17963492D01*
X16037558Y-18179201D01*
X16130754Y-18381222D01*
X16130758Y-18381228D01*
X16182633Y-18458051D01*
X16951082Y-19441622D01*
X16951093Y-19441635D01*
X17013076Y-19510545D01*
X17013077Y-19510546D01*
X17013081Y-19510550D01*
X17186558Y-19649854D01*
X17186561Y-19649856D01*
X17186563Y-19649857D01*
X17382676Y-19754908D01*
X17382678Y-19754909D01*
X17439254Y-19772843D01*
X17594757Y-19822137D01*
X17594761Y-19822137D01*
X17594763Y-19822138D01*
X17815590Y-19849252D01*
X18037640Y-19835328D01*
X18253349Y-19780839D01*
X18455374Y-19687641D01*
X18516894Y-19646099D01*
X18583466Y-19624897D01*
X18650936Y-19643053D01*
X18673966Y-19661184D01*
X20562439Y-21549657D01*
X20595924Y-21610980D01*
X20590940Y-21680672D01*
X20562442Y-21725016D01*
X20538039Y-21749420D01*
X20538033Y-21749427D01*
X20417715Y-21915032D01*
X20324781Y-22097422D01*
X20261522Y-22292111D01*
X20229500Y-22494294D01*
X20229500Y-22698997D01*
X20261522Y-22901180D01*
X20324781Y-23095869D01*
X20381861Y-23207892D01*
X20408156Y-23259500D01*
X20417715Y-23278259D01*
X20538028Y-23443859D01*
X20682784Y-23588615D01*
X20737259Y-23628192D01*
X20780935Y-23659925D01*
X20823602Y-23715254D01*
X20829582Y-23784867D01*
X20796976Y-23846662D01*
X20795734Y-23847923D01*
X20730586Y-23913072D01*
X20628768Y-24053211D01*
X20550128Y-24207552D01*
X20496597Y-24372302D01*
X20469500Y-24543389D01*
X20469500Y-26116610D01*
X20495934Y-26283512D01*
X20496598Y-26287701D01*
X20550127Y-26452445D01*
X20628768Y-26606788D01*
X20730586Y-26746928D01*
X20730588Y-26746930D01*
X20758852Y-26775194D01*
X20792337Y-26836517D01*
X20787353Y-26906209D01*
X20745481Y-26962142D01*
X20744061Y-26963190D01*
X20723107Y-26978414D01*
X20578417Y-27123104D01*
X20578417Y-27123105D01*
X20458140Y-27288650D01*
X20365244Y-27470968D01*
X20313047Y-27631614D01*
X20273609Y-27689289D01*
X20209250Y-27716487D01*
X20140404Y-27704572D01*
X20088928Y-27657328D01*
X20077186Y-27631615D01*
X20049873Y-27547555D01*
X19971232Y-27393212D01*
X19869414Y-27253072D01*
X19746928Y-27130586D01*
X19705265Y-27100316D01*
X19662602Y-27044988D01*
X19656623Y-26975374D01*
X19689229Y-26913579D01*
X19705266Y-26899683D01*
X19746928Y-26869414D01*
X19869414Y-26746928D01*
X19971232Y-26606788D01*
X20049873Y-26452445D01*
X20103402Y-26287701D01*
X20130500Y-26116611D01*
X20130500Y-24543389D01*
X20103402Y-24372299D01*
X20049873Y-24207555D01*
X19971232Y-24053212D01*
X19869414Y-23913072D01*
X19746928Y-23790586D01*
X19721671Y-23772236D01*
X19679006Y-23716909D01*
X19673026Y-23647295D01*
X19694237Y-23599037D01*
X19772287Y-23491610D01*
X19865220Y-23309219D01*
X19928477Y-23114534D01*
X19960500Y-22912352D01*
X19960500Y-22707648D01*
X19959130Y-22698997D01*
X19928477Y-22505465D01*
X19888694Y-22383028D01*
X19865220Y-22310781D01*
X19865218Y-22310778D01*
X19865218Y-22310776D01*
X19821733Y-22225434D01*
X19772287Y-22128390D01*
X19749788Y-22097422D01*
X19651971Y-21962786D01*
X19507213Y-21818028D01*
X19341613Y-21697715D01*
X19341612Y-21697714D01*
X19341610Y-21697713D01*
X19249711Y-21650888D01*
X19159223Y-21604781D01*
X18964534Y-21541522D01*
X18789995Y-21513878D01*
X18762352Y-21509500D01*
X18557648Y-21509500D01*
X18501971Y-21518318D01*
X18432678Y-21509363D01*
X18394893Y-21483526D01*
X12635402Y-15724034D01*
X12116576Y-15205208D01*
X12083091Y-15143885D01*
X12088075Y-15074193D01*
X12129947Y-15018260D01*
X12152316Y-15004930D01*
X12182770Y-14990881D01*
X12259562Y-14939029D01*
X12554327Y-14708731D01*
X12554327Y-14708730D01*
X11812886Y-13759727D01*
X11905515Y-13734908D01*
X12042332Y-13655916D01*
X12154043Y-13544205D01*
X12207148Y-13452225D01*
X12948333Y-14400898D01*
G37*
%TD.AperFunction*%
%TA.AperFunction,Conductor*%
G36*
X14299510Y-10834691D02*
G01*
X14349924Y-10883067D01*
X14362565Y-10914357D01*
X14417361Y-11131280D01*
X14510557Y-11333301D01*
X14510561Y-11333307D01*
X14562436Y-11410130D01*
X15153322Y-12166430D01*
X15179084Y-12231377D01*
X15165644Y-12299942D01*
X15117268Y-12350355D01*
X15085979Y-12362995D01*
X14868894Y-12417832D01*
X14666949Y-12510992D01*
X14590149Y-12562851D01*
X14590142Y-12562856D01*
X14295392Y-12793140D01*
X14295392Y-12793141D01*
X15036834Y-13742145D01*
X14944206Y-13766965D01*
X14807389Y-13845957D01*
X14695678Y-13957668D01*
X14642572Y-14049648D01*
X13901387Y-13100972D01*
X13901385Y-13100972D01*
X13833703Y-13153852D01*
X13768756Y-13179614D01*
X13700191Y-13166174D01*
X13649778Y-13117798D01*
X13637137Y-13086508D01*
X13582165Y-12868890D01*
X13489007Y-12666949D01*
X13437148Y-12590149D01*
X13437143Y-12590142D01*
X13206858Y-12295392D01*
X13206857Y-12295392D01*
X12257854Y-13036833D01*
X12233035Y-12944206D01*
X12154043Y-12807389D01*
X12042332Y-12695678D01*
X11950351Y-12642572D01*
X12899026Y-11901387D01*
X12899026Y-11901386D01*
X12846483Y-11834134D01*
X12820721Y-11769187D01*
X12834161Y-11700623D01*
X12882537Y-11650209D01*
X12913827Y-11637568D01*
X12915568Y-11637128D01*
X12915570Y-11637128D01*
X13131279Y-11582639D01*
X13333304Y-11489441D01*
X13410127Y-11437566D01*
X14166000Y-10847012D01*
X14230946Y-10821251D01*
X14299510Y-10834691D01*
G37*
%TD.AperFunction*%
%TD*%
%TA.AperFunction,NonConductor*%
G36*
X11431697Y-10764643D02*
G01*
X11486076Y-10804483D01*
X11651449Y-11016151D01*
X11677211Y-11081098D01*
X11663771Y-11149663D01*
X11615395Y-11200076D01*
X11584106Y-11212716D01*
X11367021Y-11267553D01*
X11165076Y-11360713D01*
X11088282Y-11412568D01*
X10824898Y-11618346D01*
X10759951Y-11644107D01*
X10691386Y-11630667D01*
X10640973Y-11582291D01*
X10624716Y-11514339D01*
X10647778Y-11448385D01*
X10660866Y-11432960D01*
X11300684Y-10793142D01*
X11362005Y-10759659D01*
X11431697Y-10764643D01*
G37*
%TD.AperFunction*%
%TA.AperFunction,NonConductor*%
G36*
X44275703Y-14573913D02*
G01*
X44282181Y-14579945D01*
X44429773Y-14727537D01*
X44429779Y-14727542D01*
X44613329Y-14853277D01*
X44613330Y-14853277D01*
X44613331Y-14853278D01*
X44688720Y-14886566D01*
X44742097Y-14931652D01*
X44762624Y-14998438D01*
X44743786Y-15065720D01*
X44691562Y-15112136D01*
X44688720Y-15113434D01*
X44613331Y-15146721D01*
X44429779Y-15272457D01*
X44429773Y-15272462D01*
X44282181Y-15420055D01*
X44220858Y-15453540D01*
X44151166Y-15448556D01*
X44095233Y-15406684D01*
X44070816Y-15341220D01*
X44070500Y-15332374D01*
X44070500Y-14667626D01*
X44090185Y-14600587D01*
X44142989Y-14554832D01*
X44212147Y-14544888D01*
X44275703Y-14573913D01*
G37*
%TD.AperFunction*%
%TA.AperFunction,NonConductor*%
G36*
X50528684Y-14170185D02*
G01*
X50574439Y-14222989D01*
X50575079Y-14224414D01*
X50646721Y-14386668D01*
X50772457Y-14570220D01*
X50772462Y-14570226D01*
X50929773Y-14727537D01*
X50929779Y-14727542D01*
X51113329Y-14853277D01*
X51113330Y-14853277D01*
X51113331Y-14853278D01*
X51188720Y-14886566D01*
X51242097Y-14931652D01*
X51262624Y-14998438D01*
X51243786Y-15065720D01*
X51191562Y-15112136D01*
X51188720Y-15113434D01*
X51113331Y-15146721D01*
X50929779Y-15272457D01*
X50929773Y-15272462D01*
X50772462Y-15429773D01*
X50772457Y-15429779D01*
X50646721Y-15613331D01*
X50575079Y-15775586D01*
X50529993Y-15828963D01*
X50463207Y-15849490D01*
X50461645Y-15849500D01*
X47538355Y-15849500D01*
X47471316Y-15829815D01*
X47425561Y-15777011D01*
X47424921Y-15775586D01*
X47353278Y-15613331D01*
X47348951Y-15607015D01*
X47227542Y-15429779D01*
X47227537Y-15429773D01*
X47070226Y-15272462D01*
X47070220Y-15272457D01*
X46886672Y-15146724D01*
X46886673Y-15146724D01*
X46886671Y-15146723D01*
X46811277Y-15113433D01*
X46757903Y-15068349D01*
X46737375Y-15001563D01*
X46756213Y-14934280D01*
X46808436Y-14887864D01*
X46811235Y-14886585D01*
X46886671Y-14853277D01*
X47070221Y-14727542D01*
X47227542Y-14570221D01*
X47353277Y-14386671D01*
X47381719Y-14322256D01*
X47424921Y-14224414D01*
X47470007Y-14171037D01*
X47536793Y-14150510D01*
X47538355Y-14150500D01*
X50461645Y-14150500D01*
X50528684Y-14170185D01*
G37*
%TD.AperFunction*%
%TA.AperFunction,NonConductor*%
G36*
X50479482Y-17655737D02*
G01*
X50498076Y-17655972D01*
X50512315Y-17665378D01*
X50528684Y-17670185D01*
X50540857Y-17684233D01*
X50556374Y-17694484D01*
X50573540Y-17721951D01*
X50574439Y-17722989D01*
X50575079Y-17724414D01*
X50646721Y-17886668D01*
X50772457Y-18070220D01*
X50772462Y-18070226D01*
X50900055Y-18197819D01*
X50933540Y-18259142D01*
X50928556Y-18328834D01*
X50886684Y-18384767D01*
X50821220Y-18409184D01*
X50812374Y-18409500D01*
X47187626Y-18409500D01*
X47120587Y-18389815D01*
X47074832Y-18337011D01*
X47064888Y-18267853D01*
X47093913Y-18204297D01*
X47099945Y-18197819D01*
X47227537Y-18070226D01*
X47227542Y-18070221D01*
X47353277Y-17886671D01*
X47402996Y-17774068D01*
X47424921Y-17724414D01*
X47470007Y-17671037D01*
X47536793Y-17650510D01*
X47538355Y-17650500D01*
X50461645Y-17650500D01*
X50479482Y-17655737D01*
G37*
%TD.AperFunction*%
%TA.AperFunction,NonConductor*%
G36*
X35906510Y-20200185D02*
G01*
X35952265Y-20252989D01*
X35962209Y-20322147D01*
X35941771Y-20374577D01*
X35846721Y-20513331D01*
X35775079Y-20675586D01*
X35729993Y-20728963D01*
X35663207Y-20749490D01*
X35661645Y-20749500D01*
X32738355Y-20749500D01*
X32671316Y-20729815D01*
X32625561Y-20677011D01*
X32624921Y-20675586D01*
X32553278Y-20513331D01*
X32553277Y-20513329D01*
X32458228Y-20374575D01*
X32436583Y-20308145D01*
X32454288Y-20240556D01*
X32505724Y-20193269D01*
X32560529Y-20180500D01*
X35839471Y-20180500D01*
X35906510Y-20200185D01*
G37*
%TD.AperFunction*%
%TA.AperFunction,NonConductor*%
G36*
X43905398Y-17184087D02*
G01*
X43918834Y-17185048D01*
X43936560Y-17198318D01*
X43956703Y-17207517D01*
X43963985Y-17218848D01*
X43974767Y-17226920D01*
X43982504Y-17247665D01*
X43994477Y-17266295D01*
X43997628Y-17288213D01*
X43999184Y-17292384D01*
X43999500Y-17301230D01*
X43999500Y-17374095D01*
X44005918Y-17466561D01*
X44005920Y-17466577D01*
X44056854Y-17683135D01*
X44056860Y-17683151D01*
X44146721Y-17886668D01*
X44272457Y-18070220D01*
X44272462Y-18070226D01*
X44400055Y-18197819D01*
X44433540Y-18259142D01*
X44428556Y-18328834D01*
X44386684Y-18384767D01*
X44321220Y-18409184D01*
X44312374Y-18409500D01*
X44056080Y-18409500D01*
X43911092Y-18438340D01*
X43911086Y-18438342D01*
X43774508Y-18494914D01*
X43774496Y-18494921D01*
X43725269Y-18527813D01*
X43651588Y-18577044D01*
X43651580Y-18577050D01*
X41365451Y-20863181D01*
X41304128Y-20896666D01*
X41277770Y-20899500D01*
X39284319Y-20899500D01*
X39217280Y-20879815D01*
X39171525Y-20827011D01*
X39163613Y-20803889D01*
X39143145Y-20716866D01*
X39143143Y-20716857D01*
X39062187Y-20533508D01*
X39053278Y-20513331D01*
X39053277Y-20513329D01*
X38958228Y-20374575D01*
X38936583Y-20308145D01*
X38954288Y-20240556D01*
X39005724Y-20193269D01*
X39060529Y-20180500D01*
X40583920Y-20180500D01*
X40681462Y-20161096D01*
X40728913Y-20151658D01*
X40865495Y-20095084D01*
X40937873Y-20046723D01*
X40988416Y-20012952D01*
X42441901Y-18559467D01*
X43787819Y-17213549D01*
X43807255Y-17202936D01*
X43823989Y-17188436D01*
X43837320Y-17186519D01*
X43849142Y-17180064D01*
X43871228Y-17181643D01*
X43893147Y-17178492D01*
X43905398Y-17184087D01*
G37*
%TD.AperFunction*%
%TA.AperFunction,NonConductor*%
G36*
X27825690Y-23654882D02*
G01*
X27945473Y-23693802D01*
X27983580Y-23706184D01*
X28051295Y-23716909D01*
X28185763Y-23738207D01*
X28185764Y-23738207D01*
X28234269Y-23738207D01*
X28301308Y-23757892D01*
X28347063Y-23810696D01*
X28357007Y-23879854D01*
X28334587Y-23935093D01*
X28248768Y-24053211D01*
X28170129Y-24207549D01*
X28142814Y-24291615D01*
X28103375Y-24349290D01*
X28039016Y-24376487D01*
X27970170Y-24364572D01*
X27918695Y-24317327D01*
X27906952Y-24291613D01*
X27854755Y-24130970D01*
X27761859Y-23948650D01*
X27687062Y-23845701D01*
X27663582Y-23779894D01*
X27679407Y-23711840D01*
X27729513Y-23663145D01*
X27797991Y-23649270D01*
X27825690Y-23654882D01*
G37*
%TD.AperFunction*%
%TA.AperFunction,NonConductor*%
G36*
X35679482Y-22555737D02*
G01*
X35698076Y-22555972D01*
X35712315Y-22565378D01*
X35728684Y-22570185D01*
X35740857Y-22584233D01*
X35756374Y-22594484D01*
X35773540Y-22621951D01*
X35774439Y-22622989D01*
X35775079Y-22624414D01*
X35846721Y-22786668D01*
X35972457Y-22970220D01*
X35972462Y-22970226D01*
X36129773Y-23127537D01*
X36129779Y-23127542D01*
X36313329Y-23253277D01*
X36513505Y-23341663D01*
X36566879Y-23386747D01*
X36587407Y-23453533D01*
X36568569Y-23520815D01*
X36516346Y-23567232D01*
X36501736Y-23573027D01*
X36387550Y-23610128D01*
X36233211Y-23688768D01*
X36208291Y-23706874D01*
X36093072Y-23790586D01*
X36093070Y-23790588D01*
X36093069Y-23790588D01*
X35970588Y-23913069D01*
X35970588Y-23913070D01*
X35970586Y-23913072D01*
X35963891Y-23922287D01*
X35868768Y-24053211D01*
X35790128Y-24207552D01*
X35736597Y-24372302D01*
X35709500Y-24543389D01*
X35709500Y-26116610D01*
X35735934Y-26283512D01*
X35736598Y-26287701D01*
X35790127Y-26452445D01*
X35868768Y-26606788D01*
X35970586Y-26746928D01*
X35970588Y-26746930D01*
X36093072Y-26869414D01*
X36134733Y-26899683D01*
X36177398Y-26955013D01*
X36183376Y-27024627D01*
X36150769Y-27086421D01*
X36134733Y-27100317D01*
X36093072Y-27130585D01*
X35970588Y-27253069D01*
X35970588Y-27253070D01*
X35970586Y-27253072D01*
X35944737Y-27288650D01*
X35868768Y-27393211D01*
X35790129Y-27547549D01*
X35762814Y-27631615D01*
X35723375Y-27689290D01*
X35659016Y-27716487D01*
X35590170Y-27704572D01*
X35538695Y-27657327D01*
X35526952Y-27631613D01*
X35474755Y-27470970D01*
X35381859Y-27288650D01*
X35261582Y-27123105D01*
X35261582Y-27123104D01*
X35116895Y-26978417D01*
X35116889Y-26978412D01*
X35095940Y-26963191D01*
X35053276Y-26907860D01*
X35047298Y-26838247D01*
X35079906Y-26776453D01*
X35081017Y-26775324D01*
X35109414Y-26746928D01*
X35211232Y-26606788D01*
X35289873Y-26452445D01*
X35343402Y-26287701D01*
X35370500Y-26116611D01*
X35370500Y-24543389D01*
X35343402Y-24372299D01*
X35289873Y-24207555D01*
X35211232Y-24053212D01*
X35109414Y-23913072D01*
X34986928Y-23790586D01*
X34846788Y-23688768D01*
X34692445Y-23610127D01*
X34527701Y-23556598D01*
X34527699Y-23556597D01*
X34527698Y-23556597D01*
X34388836Y-23534604D01*
X34356611Y-23529500D01*
X34183389Y-23529500D01*
X34151164Y-23534604D01*
X34012302Y-23556597D01*
X33847552Y-23610128D01*
X33693211Y-23688768D01*
X33668291Y-23706874D01*
X33553072Y-23790586D01*
X33553070Y-23790588D01*
X33553069Y-23790588D01*
X33430588Y-23913069D01*
X33430588Y-23913070D01*
X33430586Y-23913072D01*
X33423891Y-23922287D01*
X33328768Y-24053211D01*
X33250128Y-24207552D01*
X33196597Y-24372302D01*
X33169500Y-24543389D01*
X33169500Y-26116610D01*
X33195934Y-26283512D01*
X33196598Y-26287701D01*
X33250127Y-26452445D01*
X33328768Y-26606788D01*
X33430586Y-26746928D01*
X33430588Y-26746930D01*
X33458852Y-26775194D01*
X33492337Y-26836517D01*
X33487353Y-26906209D01*
X33445481Y-26962142D01*
X33444061Y-26963190D01*
X33423107Y-26978414D01*
X33278417Y-27123104D01*
X33278417Y-27123105D01*
X33158140Y-27288650D01*
X33065244Y-27470968D01*
X33013047Y-27631614D01*
X32973609Y-27689289D01*
X32909250Y-27716487D01*
X32840404Y-27704572D01*
X32788928Y-27657328D01*
X32777186Y-27631615D01*
X32749873Y-27547555D01*
X32671232Y-27393212D01*
X32569414Y-27253072D01*
X32446928Y-27130586D01*
X32405265Y-27100316D01*
X32362602Y-27044988D01*
X32356623Y-26975374D01*
X32389229Y-26913579D01*
X32405266Y-26899683D01*
X32446928Y-26869414D01*
X32569414Y-26746928D01*
X32671232Y-26606788D01*
X32749873Y-26452445D01*
X32803402Y-26287701D01*
X32830500Y-26116611D01*
X32830500Y-24543389D01*
X32803402Y-24372299D01*
X32749873Y-24207555D01*
X32671232Y-24053212D01*
X32569414Y-23913072D01*
X32446928Y-23790586D01*
X32306788Y-23688768D01*
X32152445Y-23610127D01*
X32020429Y-23567232D01*
X31987699Y-23556597D01*
X31970756Y-23553914D01*
X31907622Y-23523984D01*
X31870692Y-23464671D01*
X31871690Y-23394809D01*
X31910301Y-23336577D01*
X31940062Y-23318010D01*
X32086671Y-23253277D01*
X32270221Y-23127542D01*
X32427542Y-22970221D01*
X32553277Y-22786671D01*
X32588169Y-22707648D01*
X32624921Y-22624414D01*
X32670007Y-22571037D01*
X32736793Y-22550510D01*
X32738355Y-22550500D01*
X35661645Y-22550500D01*
X35679482Y-22555737D01*
G37*
%TD.AperFunction*%
%TA.AperFunction,NonConductor*%
G36*
X20197193Y-17923401D02*
G01*
X20418773Y-17909506D01*
X20486912Y-17924956D01*
X20514214Y-17945582D01*
X25589285Y-23020654D01*
X25589292Y-23020660D01*
X25647411Y-23059493D01*
X25647413Y-23059494D01*
X25647416Y-23059496D01*
X25712212Y-23102791D01*
X25712213Y-23102791D01*
X25712214Y-23102792D01*
X25742607Y-23115381D01*
X25848794Y-23159365D01*
X25848798Y-23159365D01*
X25848799Y-23159366D01*
X25993786Y-23188207D01*
X25993789Y-23188207D01*
X25993790Y-23188207D01*
X26099838Y-23188207D01*
X26166877Y-23207892D01*
X26212632Y-23260696D01*
X26222576Y-23329854D01*
X26193551Y-23393410D01*
X26154547Y-23421527D01*
X26155314Y-23423031D01*
X25968650Y-23518140D01*
X25803105Y-23638417D01*
X25803104Y-23638417D01*
X25658417Y-23783104D01*
X25658417Y-23783105D01*
X25538140Y-23948650D01*
X25445244Y-24130968D01*
X25393047Y-24291614D01*
X25353609Y-24349289D01*
X25289250Y-24376487D01*
X25220404Y-24364572D01*
X25168928Y-24317328D01*
X25157186Y-24291615D01*
X25129873Y-24207555D01*
X25051232Y-24053212D01*
X24949414Y-23913072D01*
X24826928Y-23790586D01*
X24686788Y-23688768D01*
X24532445Y-23610127D01*
X24367701Y-23556598D01*
X24367699Y-23556597D01*
X24367698Y-23556597D01*
X24228836Y-23534604D01*
X24196611Y-23529500D01*
X24023389Y-23529500D01*
X23991164Y-23534604D01*
X23852302Y-23556597D01*
X23687552Y-23610128D01*
X23533211Y-23688768D01*
X23508291Y-23706874D01*
X23393072Y-23790586D01*
X23393070Y-23790588D01*
X23393069Y-23790588D01*
X23270588Y-23913069D01*
X23270588Y-23913070D01*
X23270586Y-23913072D01*
X23263891Y-23922287D01*
X23168768Y-24053211D01*
X23090128Y-24207552D01*
X23036597Y-24372302D01*
X23009500Y-24543389D01*
X23009500Y-26116610D01*
X23035934Y-26283512D01*
X23036598Y-26287701D01*
X23090127Y-26452445D01*
X23168768Y-26606788D01*
X23270586Y-26746928D01*
X23270588Y-26746930D01*
X23393072Y-26869414D01*
X23434733Y-26899683D01*
X23477398Y-26955013D01*
X23483376Y-27024627D01*
X23450769Y-27086421D01*
X23434733Y-27100317D01*
X23393072Y-27130585D01*
X23270588Y-27253069D01*
X23270588Y-27253070D01*
X23270586Y-27253072D01*
X23244737Y-27288650D01*
X23168768Y-27393211D01*
X23090129Y-27547549D01*
X23062814Y-27631615D01*
X23023375Y-27689290D01*
X22959016Y-27716487D01*
X22890170Y-27704572D01*
X22838695Y-27657327D01*
X22826952Y-27631613D01*
X22774755Y-27470970D01*
X22681859Y-27288650D01*
X22561582Y-27123105D01*
X22561582Y-27123104D01*
X22416895Y-26978417D01*
X22416889Y-26978412D01*
X22395940Y-26963191D01*
X22353276Y-26907860D01*
X22347298Y-26838247D01*
X22379906Y-26776453D01*
X22381017Y-26775324D01*
X22409414Y-26746928D01*
X22511232Y-26606788D01*
X22589873Y-26452445D01*
X22643402Y-26287701D01*
X22670500Y-26116611D01*
X22670500Y-24543389D01*
X22643402Y-24372299D01*
X22589873Y-24207555D01*
X22511232Y-24053212D01*
X22409414Y-23913072D01*
X22310602Y-23814260D01*
X22277117Y-23752937D01*
X22282101Y-23683245D01*
X22323973Y-23627312D01*
X22325276Y-23626349D01*
X22377219Y-23588612D01*
X22521966Y-23443865D01*
X22521968Y-23443861D01*
X22521971Y-23443859D01*
X22596221Y-23341661D01*
X22642287Y-23278256D01*
X22735220Y-23095865D01*
X22798477Y-22901180D01*
X22830500Y-22698998D01*
X22830500Y-22494294D01*
X22812877Y-22383028D01*
X22798477Y-22292111D01*
X22762375Y-22181001D01*
X22735220Y-22097427D01*
X22735218Y-22097424D01*
X22735218Y-22097422D01*
X22668513Y-21966508D01*
X22642287Y-21915036D01*
X22634556Y-21904395D01*
X22521971Y-21749432D01*
X22377217Y-21604678D01*
X22377212Y-21604674D01*
X22331615Y-21571546D01*
X22288949Y-21516217D01*
X22280500Y-21471228D01*
X22280500Y-21381930D01*
X22251659Y-21236943D01*
X22251658Y-21236942D01*
X22251658Y-21236938D01*
X22249814Y-21232487D01*
X22195087Y-21100362D01*
X22195080Y-21100349D01*
X22112952Y-20977436D01*
X22068938Y-20933422D01*
X22008416Y-20872900D01*
X20908359Y-19772843D01*
X19804215Y-18668698D01*
X19770730Y-18607375D01*
X19775714Y-18537683D01*
X19782591Y-18522465D01*
X19810747Y-18469902D01*
X19829058Y-18435719D01*
X19896287Y-18223634D01*
X19921961Y-18014532D01*
X19949667Y-17950397D01*
X20007653Y-17911418D01*
X20060142Y-17906573D01*
X20197193Y-17923401D01*
G37*
%TD.AperFunction*%
%TA.AperFunction,NonConductor*%
G36*
X53441816Y-29628888D02*
G01*
X53473151Y-29632484D01*
X53475986Y-29634802D01*
X53479594Y-29635427D01*
X53502820Y-29656744D01*
X53527241Y-29676712D01*
X53529431Y-29681167D01*
X53531070Y-29682671D01*
X53542814Y-29708385D01*
X53570128Y-29792449D01*
X53609148Y-29869029D01*
X53648768Y-29946788D01*
X53750586Y-30086928D01*
X53873072Y-30209414D01*
X54013212Y-30311232D01*
X54112036Y-30361585D01*
X54118768Y-30365015D01*
X54169564Y-30412989D01*
X54186359Y-30480810D01*
X54163822Y-30546945D01*
X54109107Y-30590397D01*
X54062473Y-30599500D01*
X52951064Y-30599500D01*
X52884025Y-30579815D01*
X52838270Y-30527011D01*
X52828326Y-30457853D01*
X52857351Y-30394297D01*
X52878177Y-30375183D01*
X52896892Y-30361585D01*
X53041582Y-30216895D01*
X53041582Y-30216894D01*
X53161859Y-30051349D01*
X53254755Y-29869029D01*
X53306952Y-29708386D01*
X53324754Y-29682350D01*
X53341036Y-29655349D01*
X53344321Y-29653733D01*
X53346389Y-29650710D01*
X53375440Y-29638432D01*
X53403737Y-29624520D01*
X53407375Y-29624937D01*
X53410748Y-29623512D01*
X53441816Y-29628888D01*
G37*
%TD.AperFunction*%
%TA.AperFunction,NonConductor*%
G36*
X50729827Y-29635427D02*
G01*
X50781303Y-29682671D01*
X50793047Y-29708385D01*
X50845244Y-29869031D01*
X50938140Y-30051349D01*
X51058417Y-30216894D01*
X51058417Y-30216895D01*
X51203107Y-30361585D01*
X51221823Y-30375183D01*
X51264488Y-30430513D01*
X51270466Y-30500127D01*
X51237859Y-30561921D01*
X51177020Y-30596278D01*
X51148936Y-30599500D01*
X50037527Y-30599500D01*
X49970488Y-30579815D01*
X49924733Y-30527011D01*
X49914789Y-30457853D01*
X49943814Y-30394297D01*
X49981232Y-30365015D01*
X49987964Y-30361585D01*
X50086788Y-30311232D01*
X50226928Y-30209414D01*
X50349414Y-30086928D01*
X50451232Y-29946788D01*
X50529873Y-29792445D01*
X50557186Y-29708384D01*
X50596622Y-29650711D01*
X50660981Y-29623512D01*
X50729827Y-29635427D01*
G37*
%TD.AperFunction*%
%TA.AperFunction,NonConductor*%
G36*
X48361816Y-26288888D02*
G01*
X48393151Y-26292484D01*
X48395986Y-26294802D01*
X48399594Y-26295427D01*
X48422820Y-26316744D01*
X48447241Y-26336712D01*
X48449431Y-26341167D01*
X48451070Y-26342671D01*
X48462814Y-26368385D01*
X48490128Y-26452449D01*
X48529148Y-26529029D01*
X48568768Y-26606788D01*
X48670586Y-26746928D01*
X48670588Y-26746930D01*
X48793072Y-26869414D01*
X48834733Y-26899683D01*
X48877398Y-26955013D01*
X48883376Y-27024627D01*
X48850769Y-27086421D01*
X48834733Y-27100317D01*
X48793072Y-27130585D01*
X48670588Y-27253069D01*
X48670588Y-27253070D01*
X48670586Y-27253072D01*
X48644737Y-27288650D01*
X48568768Y-27393211D01*
X48490128Y-27547552D01*
X48436597Y-27712302D01*
X48409500Y-27883389D01*
X48409500Y-29456610D01*
X48435934Y-29623512D01*
X48436598Y-29627701D01*
X48490127Y-29792445D01*
X48568768Y-29946788D01*
X48670586Y-30086928D01*
X48793072Y-30209414D01*
X48933212Y-30311232D01*
X49032036Y-30361585D01*
X49038768Y-30365015D01*
X49089564Y-30412989D01*
X49106359Y-30480810D01*
X49083822Y-30546945D01*
X49029107Y-30590397D01*
X48982473Y-30599500D01*
X47497527Y-30599500D01*
X47430488Y-30579815D01*
X47384733Y-30527011D01*
X47374789Y-30457853D01*
X47403814Y-30394297D01*
X47441232Y-30365015D01*
X47447964Y-30361585D01*
X47546788Y-30311232D01*
X47686928Y-30209414D01*
X47809414Y-30086928D01*
X47911232Y-29946788D01*
X47989873Y-29792445D01*
X48043402Y-29627701D01*
X48070500Y-29456611D01*
X48070500Y-27883389D01*
X48043402Y-27712299D01*
X47989873Y-27547555D01*
X47911232Y-27393212D01*
X47809414Y-27253072D01*
X47781146Y-27224804D01*
X47747662Y-27163482D01*
X47752646Y-27093790D01*
X47794518Y-27037857D01*
X47795943Y-27036806D01*
X47816889Y-27021587D01*
X47816895Y-27021582D01*
X47961582Y-26876895D01*
X47961582Y-26876894D01*
X48081859Y-26711349D01*
X48174755Y-26529029D01*
X48226952Y-26368386D01*
X48244754Y-26342350D01*
X48261036Y-26315349D01*
X48264321Y-26313733D01*
X48266389Y-26310710D01*
X48295440Y-26298432D01*
X48323737Y-26284520D01*
X48327375Y-26284937D01*
X48330748Y-26283512D01*
X48361816Y-26288888D01*
G37*
%TD.AperFunction*%
%TA.AperFunction,NonConductor*%
G36*
X45649827Y-26295427D02*
G01*
X45701303Y-26342671D01*
X45713047Y-26368385D01*
X45765244Y-26529031D01*
X45858140Y-26711349D01*
X45978417Y-26876894D01*
X45978417Y-26876895D01*
X46123107Y-27021585D01*
X46144058Y-27036807D01*
X46186723Y-27092138D01*
X46192701Y-27161751D01*
X46160094Y-27223546D01*
X46158854Y-27224804D01*
X46130586Y-27253072D01*
X46028768Y-27393211D01*
X45950128Y-27547552D01*
X45896597Y-27712302D01*
X45869500Y-27883389D01*
X45869500Y-29456610D01*
X45895934Y-29623512D01*
X45896598Y-29627701D01*
X45950127Y-29792445D01*
X46028768Y-29946788D01*
X46130586Y-30086928D01*
X46253072Y-30209414D01*
X46393212Y-30311232D01*
X46492036Y-30361585D01*
X46498768Y-30365015D01*
X46549564Y-30412989D01*
X46566359Y-30480810D01*
X46543822Y-30546945D01*
X46489107Y-30590397D01*
X46442473Y-30599500D01*
X44957527Y-30599500D01*
X44890488Y-30579815D01*
X44844733Y-30527011D01*
X44834789Y-30457853D01*
X44863814Y-30394297D01*
X44901232Y-30365015D01*
X44907964Y-30361585D01*
X45006788Y-30311232D01*
X45146928Y-30209414D01*
X45269414Y-30086928D01*
X45371232Y-29946788D01*
X45449873Y-29792445D01*
X45503402Y-29627701D01*
X45530500Y-29456611D01*
X45530500Y-27883389D01*
X45503402Y-27712299D01*
X45449873Y-27547555D01*
X45371232Y-27393212D01*
X45269414Y-27253072D01*
X45146928Y-27130586D01*
X45105265Y-27100316D01*
X45062602Y-27044988D01*
X45056623Y-26975374D01*
X45089229Y-26913579D01*
X45105266Y-26899683D01*
X45146928Y-26869414D01*
X45269414Y-26746928D01*
X45371232Y-26606788D01*
X45449873Y-26452445D01*
X45477186Y-26368384D01*
X45516622Y-26310711D01*
X45580981Y-26283512D01*
X45649827Y-26295427D01*
G37*
%TD.AperFunction*%
%TA.AperFunction,NonConductor*%
G36*
X43281816Y-29628888D02*
G01*
X43313151Y-29632484D01*
X43315986Y-29634802D01*
X43319594Y-29635427D01*
X43342820Y-29656744D01*
X43367241Y-29676712D01*
X43369431Y-29681167D01*
X43371070Y-29682671D01*
X43382814Y-29708385D01*
X43410128Y-29792449D01*
X43449148Y-29869029D01*
X43488768Y-29946788D01*
X43590586Y-30086928D01*
X43713072Y-30209414D01*
X43853212Y-30311232D01*
X43952036Y-30361585D01*
X43958768Y-30365015D01*
X44009564Y-30412989D01*
X44026359Y-30480810D01*
X44003822Y-30546945D01*
X43949107Y-30590397D01*
X43902473Y-30599500D01*
X42791064Y-30599500D01*
X42724025Y-30579815D01*
X42678270Y-30527011D01*
X42668326Y-30457853D01*
X42697351Y-30394297D01*
X42718177Y-30375183D01*
X42736892Y-30361585D01*
X42881582Y-30216895D01*
X42881582Y-30216894D01*
X43001859Y-30051349D01*
X43094755Y-29869029D01*
X43146952Y-29708386D01*
X43164754Y-29682350D01*
X43181036Y-29655349D01*
X43184321Y-29653733D01*
X43186389Y-29650710D01*
X43215440Y-29638432D01*
X43243737Y-29624520D01*
X43247375Y-29624937D01*
X43250748Y-29623512D01*
X43281816Y-29628888D01*
G37*
%TD.AperFunction*%
%TA.AperFunction,NonConductor*%
G36*
X40569827Y-29635427D02*
G01*
X40621303Y-29682671D01*
X40633047Y-29708385D01*
X40685244Y-29869031D01*
X40778140Y-30051349D01*
X40898417Y-30216894D01*
X40898417Y-30216895D01*
X41043107Y-30361585D01*
X41061823Y-30375183D01*
X41104488Y-30430513D01*
X41110466Y-30500127D01*
X41077859Y-30561921D01*
X41017020Y-30596278D01*
X40988936Y-30599500D01*
X39877527Y-30599500D01*
X39810488Y-30579815D01*
X39764733Y-30527011D01*
X39754789Y-30457853D01*
X39783814Y-30394297D01*
X39821232Y-30365015D01*
X39827964Y-30361585D01*
X39926788Y-30311232D01*
X40066928Y-30209414D01*
X40189414Y-30086928D01*
X40291232Y-29946788D01*
X40369873Y-29792445D01*
X40397186Y-29708384D01*
X40436622Y-29650711D01*
X40500981Y-29623512D01*
X40569827Y-29635427D01*
G37*
%TD.AperFunction*%
%TA.AperFunction,NonConductor*%
G36*
X35699594Y-29635427D02*
G01*
X35751070Y-29682671D01*
X35762814Y-29708385D01*
X35790128Y-29792449D01*
X35829148Y-29869029D01*
X35868768Y-29946788D01*
X35970586Y-30086928D01*
X36093072Y-30209414D01*
X36233212Y-30311232D01*
X36332036Y-30361585D01*
X36338768Y-30365015D01*
X36389564Y-30412989D01*
X36406359Y-30480810D01*
X36383822Y-30546945D01*
X36329107Y-30590397D01*
X36282473Y-30599500D01*
X35171064Y-30599500D01*
X35104025Y-30579815D01*
X35058270Y-30527011D01*
X35048326Y-30457853D01*
X35077351Y-30394297D01*
X35098177Y-30375183D01*
X35116892Y-30361585D01*
X35261582Y-30216895D01*
X35261582Y-30216894D01*
X35381859Y-30051349D01*
X35474755Y-29869029D01*
X35526952Y-29708386D01*
X35566389Y-29650710D01*
X35630748Y-29623512D01*
X35699594Y-29635427D01*
G37*
%TD.AperFunction*%
%TA.AperFunction,NonConductor*%
G36*
X32912047Y-29628888D02*
G01*
X32943385Y-29632484D01*
X32946220Y-29634802D01*
X32949827Y-29635427D01*
X32973055Y-29656745D01*
X32997474Y-29676713D01*
X32999663Y-29681166D01*
X33001303Y-29682671D01*
X33013047Y-29708385D01*
X33065244Y-29869031D01*
X33158140Y-30051349D01*
X33278417Y-30216894D01*
X33278417Y-30216895D01*
X33423107Y-30361585D01*
X33441823Y-30375183D01*
X33484488Y-30430513D01*
X33490466Y-30500127D01*
X33457859Y-30561921D01*
X33397020Y-30596278D01*
X33368936Y-30599500D01*
X32257527Y-30599500D01*
X32190488Y-30579815D01*
X32144733Y-30527011D01*
X32134789Y-30457853D01*
X32163814Y-30394297D01*
X32201232Y-30365015D01*
X32207964Y-30361585D01*
X32306788Y-30311232D01*
X32446928Y-30209414D01*
X32569414Y-30086928D01*
X32671232Y-29946788D01*
X32749873Y-29792445D01*
X32777186Y-29708384D01*
X32794989Y-29682347D01*
X32811270Y-29655349D01*
X32814555Y-29653733D01*
X32816622Y-29650711D01*
X32845672Y-29638433D01*
X32873971Y-29624520D01*
X32877608Y-29624937D01*
X32880981Y-29623512D01*
X32912047Y-29628888D01*
G37*
%TD.AperFunction*%
%TA.AperFunction,NonConductor*%
G36*
X29587140Y-23085660D02*
G01*
X29595653Y-23093417D01*
X29629773Y-23127537D01*
X29629779Y-23127542D01*
X29813329Y-23253277D01*
X29813330Y-23253277D01*
X29813331Y-23253278D01*
X29888391Y-23286420D01*
X30016857Y-23343143D01*
X30016861Y-23343144D01*
X30016864Y-23343145D01*
X30233422Y-23394079D01*
X30233427Y-23394079D01*
X30233433Y-23394081D01*
X30284808Y-23397647D01*
X30325904Y-23400500D01*
X31202473Y-23400500D01*
X31269512Y-23420185D01*
X31315267Y-23472989D01*
X31325211Y-23542147D01*
X31296186Y-23605703D01*
X31258768Y-23634985D01*
X31153211Y-23688768D01*
X31128291Y-23706874D01*
X31013072Y-23790586D01*
X31013070Y-23790588D01*
X31013069Y-23790588D01*
X30890588Y-23913069D01*
X30890588Y-23913070D01*
X30890586Y-23913072D01*
X30883891Y-23922287D01*
X30788768Y-24053211D01*
X30710128Y-24207552D01*
X30656597Y-24372302D01*
X30629500Y-24543389D01*
X30629500Y-26116610D01*
X30655934Y-26283512D01*
X30656598Y-26287701D01*
X30710127Y-26452445D01*
X30788768Y-26606788D01*
X30890586Y-26746928D01*
X30890588Y-26746930D01*
X31013072Y-26869414D01*
X31054733Y-26899683D01*
X31097398Y-26955013D01*
X31103376Y-27024627D01*
X31070769Y-27086421D01*
X31054733Y-27100317D01*
X31013072Y-27130585D01*
X30890588Y-27253069D01*
X30890588Y-27253070D01*
X30890586Y-27253072D01*
X30864737Y-27288650D01*
X30788768Y-27393211D01*
X30710128Y-27547552D01*
X30656597Y-27712302D01*
X30629500Y-27883389D01*
X30629500Y-29456610D01*
X30655934Y-29623512D01*
X30656598Y-29627701D01*
X30710127Y-29792445D01*
X30788768Y-29946788D01*
X30890586Y-30086928D01*
X31013072Y-30209414D01*
X31153212Y-30311232D01*
X31252036Y-30361585D01*
X31258768Y-30365015D01*
X31309564Y-30412989D01*
X31326359Y-30480810D01*
X31303822Y-30546945D01*
X31249107Y-30590397D01*
X31202473Y-30599500D01*
X29717527Y-30599500D01*
X29650488Y-30579815D01*
X29604733Y-30527011D01*
X29594789Y-30457853D01*
X29623814Y-30394297D01*
X29661232Y-30365015D01*
X29667964Y-30361585D01*
X29766788Y-30311232D01*
X29906928Y-30209414D01*
X30029414Y-30086928D01*
X30131232Y-29946788D01*
X30209873Y-29792445D01*
X30263402Y-29627701D01*
X30290500Y-29456611D01*
X30290500Y-27883389D01*
X30263402Y-27712299D01*
X30209873Y-27547555D01*
X30131232Y-27393212D01*
X30029414Y-27253072D01*
X29906928Y-27130586D01*
X29865265Y-27100316D01*
X29822602Y-27044988D01*
X29816623Y-26975374D01*
X29849229Y-26913579D01*
X29865266Y-26899683D01*
X29906928Y-26869414D01*
X30029414Y-26746928D01*
X30131232Y-26606788D01*
X30209873Y-26452445D01*
X30263402Y-26287701D01*
X30290500Y-26116611D01*
X30290500Y-24543389D01*
X30263402Y-24372299D01*
X30209873Y-24207555D01*
X30131232Y-24053212D01*
X30029414Y-23913072D01*
X29906928Y-23790586D01*
X29766788Y-23688768D01*
X29612445Y-23610127D01*
X29447701Y-23556598D01*
X29447699Y-23556597D01*
X29447697Y-23556597D01*
X29308839Y-23534604D01*
X29245704Y-23504675D01*
X29208773Y-23445363D01*
X29209771Y-23375501D01*
X29240555Y-23324451D01*
X29280081Y-23284926D01*
X29400402Y-23119317D01*
X29400407Y-23119306D01*
X29402239Y-23116318D01*
X29403234Y-23115417D01*
X29403265Y-23115375D01*
X29403273Y-23115381D01*
X29454047Y-23069438D01*
X29522975Y-23058009D01*
X29587140Y-23085660D01*
G37*
%TD.AperFunction*%
%TA.AperFunction,NonConductor*%
G36*
X28041816Y-26288888D02*
G01*
X28073151Y-26292484D01*
X28075986Y-26294802D01*
X28079594Y-26295427D01*
X28102820Y-26316744D01*
X28127241Y-26336712D01*
X28129431Y-26341167D01*
X28131070Y-26342671D01*
X28142814Y-26368385D01*
X28170128Y-26452449D01*
X28209148Y-26529029D01*
X28248768Y-26606788D01*
X28350586Y-26746928D01*
X28350588Y-26746930D01*
X28473072Y-26869414D01*
X28514733Y-26899683D01*
X28557398Y-26955013D01*
X28563376Y-27024627D01*
X28530769Y-27086421D01*
X28514733Y-27100317D01*
X28473072Y-27130585D01*
X28350588Y-27253069D01*
X28350588Y-27253070D01*
X28350586Y-27253072D01*
X28324737Y-27288650D01*
X28248768Y-27393211D01*
X28170128Y-27547552D01*
X28116597Y-27712302D01*
X28089500Y-27883389D01*
X28089500Y-29456610D01*
X28115934Y-29623512D01*
X28116598Y-29627701D01*
X28170127Y-29792445D01*
X28248768Y-29946788D01*
X28350586Y-30086928D01*
X28473072Y-30209414D01*
X28613212Y-30311232D01*
X28712036Y-30361585D01*
X28718768Y-30365015D01*
X28769564Y-30412989D01*
X28786359Y-30480810D01*
X28763822Y-30546945D01*
X28709107Y-30590397D01*
X28662473Y-30599500D01*
X27177527Y-30599500D01*
X27110488Y-30579815D01*
X27064733Y-30527011D01*
X27054789Y-30457853D01*
X27083814Y-30394297D01*
X27121232Y-30365015D01*
X27127964Y-30361585D01*
X27226788Y-30311232D01*
X27366928Y-30209414D01*
X27489414Y-30086928D01*
X27591232Y-29946788D01*
X27669873Y-29792445D01*
X27723402Y-29627701D01*
X27750500Y-29456611D01*
X27750500Y-27883389D01*
X27723402Y-27712299D01*
X27669873Y-27547555D01*
X27591232Y-27393212D01*
X27489414Y-27253072D01*
X27461146Y-27224804D01*
X27427662Y-27163482D01*
X27432646Y-27093790D01*
X27474518Y-27037857D01*
X27475943Y-27036806D01*
X27496889Y-27021587D01*
X27496895Y-27021582D01*
X27641582Y-26876895D01*
X27641582Y-26876894D01*
X27761859Y-26711349D01*
X27854755Y-26529029D01*
X27906952Y-26368386D01*
X27924754Y-26342350D01*
X27941036Y-26315349D01*
X27944321Y-26313733D01*
X27946389Y-26310710D01*
X27975440Y-26298432D01*
X28003737Y-26284520D01*
X28007375Y-26284937D01*
X28010748Y-26283512D01*
X28041816Y-26288888D01*
G37*
%TD.AperFunction*%
%TA.AperFunction,NonConductor*%
G36*
X25329827Y-26295427D02*
G01*
X25381303Y-26342671D01*
X25393047Y-26368385D01*
X25445244Y-26529031D01*
X25538140Y-26711349D01*
X25658417Y-26876894D01*
X25658417Y-26876895D01*
X25803107Y-27021585D01*
X25824058Y-27036807D01*
X25866723Y-27092138D01*
X25872701Y-27161751D01*
X25840094Y-27223546D01*
X25838854Y-27224804D01*
X25810586Y-27253072D01*
X25708768Y-27393211D01*
X25630128Y-27547552D01*
X25576597Y-27712302D01*
X25549500Y-27883389D01*
X25549500Y-29456610D01*
X25575934Y-29623512D01*
X25576598Y-29627701D01*
X25630127Y-29792445D01*
X25708768Y-29946788D01*
X25810586Y-30086928D01*
X25933072Y-30209414D01*
X26073212Y-30311232D01*
X26172036Y-30361585D01*
X26178768Y-30365015D01*
X26229564Y-30412989D01*
X26246359Y-30480810D01*
X26223822Y-30546945D01*
X26169107Y-30590397D01*
X26122473Y-30599500D01*
X24637527Y-30599500D01*
X24570488Y-30579815D01*
X24524733Y-30527011D01*
X24514789Y-30457853D01*
X24543814Y-30394297D01*
X24581232Y-30365015D01*
X24587964Y-30361585D01*
X24686788Y-30311232D01*
X24826928Y-30209414D01*
X24949414Y-30086928D01*
X25051232Y-29946788D01*
X25129873Y-29792445D01*
X25183402Y-29627701D01*
X25210500Y-29456611D01*
X25210500Y-27883389D01*
X25183402Y-27712299D01*
X25129873Y-27547555D01*
X25051232Y-27393212D01*
X24949414Y-27253072D01*
X24826928Y-27130586D01*
X24785265Y-27100316D01*
X24742602Y-27044988D01*
X24736623Y-26975374D01*
X24769229Y-26913579D01*
X24785266Y-26899683D01*
X24826928Y-26869414D01*
X24949414Y-26746928D01*
X25051232Y-26606788D01*
X25129873Y-26452445D01*
X25157186Y-26368384D01*
X25196622Y-26310711D01*
X25260981Y-26283512D01*
X25329827Y-26295427D01*
G37*
%TD.AperFunction*%
%TA.AperFunction,NonConductor*%
G36*
X22961816Y-29628888D02*
G01*
X22993151Y-29632484D01*
X22995986Y-29634802D01*
X22999594Y-29635427D01*
X23022820Y-29656744D01*
X23047241Y-29676712D01*
X23049431Y-29681167D01*
X23051070Y-29682671D01*
X23062814Y-29708385D01*
X23090128Y-29792449D01*
X23129148Y-29869029D01*
X23168768Y-29946788D01*
X23270586Y-30086928D01*
X23393072Y-30209414D01*
X23533212Y-30311232D01*
X23632036Y-30361585D01*
X23638768Y-30365015D01*
X23689564Y-30412989D01*
X23706359Y-30480810D01*
X23683822Y-30546945D01*
X23629107Y-30590397D01*
X23582473Y-30599500D01*
X22471064Y-30599500D01*
X22404025Y-30579815D01*
X22358270Y-30527011D01*
X22348326Y-30457853D01*
X22377351Y-30394297D01*
X22398177Y-30375183D01*
X22416892Y-30361585D01*
X22561582Y-30216895D01*
X22561582Y-30216894D01*
X22681859Y-30051349D01*
X22774755Y-29869029D01*
X22826952Y-29708386D01*
X22844754Y-29682350D01*
X22861036Y-29655349D01*
X22864321Y-29653733D01*
X22866389Y-29650710D01*
X22895440Y-29638432D01*
X22923737Y-29624520D01*
X22927375Y-29624937D01*
X22930748Y-29623512D01*
X22961816Y-29628888D01*
G37*
%TD.AperFunction*%
%TA.AperFunction,NonConductor*%
G36*
X20249827Y-29635427D02*
G01*
X20301303Y-29682671D01*
X20313047Y-29708385D01*
X20365244Y-29869031D01*
X20458140Y-30051349D01*
X20578417Y-30216894D01*
X20578417Y-30216895D01*
X20723107Y-30361585D01*
X20741823Y-30375183D01*
X20784488Y-30430513D01*
X20790466Y-30500127D01*
X20757859Y-30561921D01*
X20697020Y-30596278D01*
X20668936Y-30599500D01*
X19557527Y-30599500D01*
X19490488Y-30579815D01*
X19444733Y-30527011D01*
X19434789Y-30457853D01*
X19463814Y-30394297D01*
X19501232Y-30365015D01*
X19507964Y-30361585D01*
X19606788Y-30311232D01*
X19746928Y-30209414D01*
X19869414Y-30086928D01*
X19971232Y-29946788D01*
X20049873Y-29792445D01*
X20077186Y-29708384D01*
X20116622Y-29650711D01*
X20180981Y-29623512D01*
X20249827Y-29635427D01*
G37*
%TD.AperFunction*%
%TA.AperFunction,NonConductor*%
G36*
X17881816Y-29628888D02*
G01*
X17913151Y-29632484D01*
X17915986Y-29634802D01*
X17919594Y-29635427D01*
X17942820Y-29656744D01*
X17967241Y-29676712D01*
X17969431Y-29681167D01*
X17971070Y-29682671D01*
X17982814Y-29708385D01*
X18010128Y-29792449D01*
X18049148Y-29869029D01*
X18088768Y-29946788D01*
X18190586Y-30086928D01*
X18313072Y-30209414D01*
X18453212Y-30311232D01*
X18552036Y-30361585D01*
X18558768Y-30365015D01*
X18609564Y-30412989D01*
X18626359Y-30480810D01*
X18603822Y-30546945D01*
X18549107Y-30590397D01*
X18502473Y-30599500D01*
X17391064Y-30599500D01*
X17324025Y-30579815D01*
X17278270Y-30527011D01*
X17268326Y-30457853D01*
X17297351Y-30394297D01*
X17318177Y-30375183D01*
X17336892Y-30361585D01*
X17481582Y-30216895D01*
X17481582Y-30216894D01*
X17601859Y-30051349D01*
X17694755Y-29869029D01*
X17746952Y-29708386D01*
X17764754Y-29682350D01*
X17781036Y-29655349D01*
X17784321Y-29653733D01*
X17786389Y-29650710D01*
X17815440Y-29638432D01*
X17843737Y-29624520D01*
X17847375Y-29624937D01*
X17850748Y-29623512D01*
X17881816Y-29628888D01*
G37*
%TD.AperFunction*%
%TA.AperFunction,NonConductor*%
G36*
X15169827Y-29635427D02*
G01*
X15221303Y-29682671D01*
X15233047Y-29708385D01*
X15285244Y-29869031D01*
X15378140Y-30051349D01*
X15498417Y-30216894D01*
X15498417Y-30216895D01*
X15643107Y-30361585D01*
X15661823Y-30375183D01*
X15704488Y-30430513D01*
X15710466Y-30500127D01*
X15677859Y-30561921D01*
X15617020Y-30596278D01*
X15588936Y-30599500D01*
X14477527Y-30599500D01*
X14410488Y-30579815D01*
X14364733Y-30527011D01*
X14354789Y-30457853D01*
X14383814Y-30394297D01*
X14421232Y-30365015D01*
X14427964Y-30361585D01*
X14526788Y-30311232D01*
X14666928Y-30209414D01*
X14789414Y-30086928D01*
X14891232Y-29946788D01*
X14969873Y-29792445D01*
X14997186Y-29708384D01*
X15036622Y-29650711D01*
X15100981Y-29623512D01*
X15169827Y-29635427D01*
G37*
%TD.AperFunction*%
%TA.AperFunction,NonConductor*%
G36*
X12428579Y-23814385D02*
G01*
X12431001Y-23813895D01*
X12457861Y-23819237D01*
X12472687Y-23823937D01*
X12472691Y-23823937D01*
X12472693Y-23823938D01*
X12693520Y-23851052D01*
X12914779Y-23837177D01*
X12982917Y-23852627D01*
X13031887Y-23902464D01*
X13046140Y-23970865D01*
X13022858Y-24033816D01*
X13008771Y-24053206D01*
X12930128Y-24207552D01*
X12876597Y-24372302D01*
X12849500Y-24543389D01*
X12849500Y-26116610D01*
X12875934Y-26283512D01*
X12876598Y-26287701D01*
X12930127Y-26452445D01*
X13008768Y-26606788D01*
X13110586Y-26746928D01*
X13110588Y-26746930D01*
X13233072Y-26869414D01*
X13274733Y-26899683D01*
X13317398Y-26955013D01*
X13323376Y-27024627D01*
X13290769Y-27086421D01*
X13274733Y-27100317D01*
X13233072Y-27130585D01*
X13110588Y-27253069D01*
X13110588Y-27253070D01*
X13110586Y-27253072D01*
X13084737Y-27288650D01*
X13008768Y-27393211D01*
X12930128Y-27547552D01*
X12876597Y-27712302D01*
X12849500Y-27883389D01*
X12849500Y-29456610D01*
X12875934Y-29623512D01*
X12876598Y-29627701D01*
X12930127Y-29792445D01*
X13008768Y-29946788D01*
X13110586Y-30086928D01*
X13233072Y-30209414D01*
X13373212Y-30311232D01*
X13472036Y-30361585D01*
X13478768Y-30365015D01*
X13529564Y-30412989D01*
X13546359Y-30480810D01*
X13523822Y-30546945D01*
X13469107Y-30590397D01*
X13422473Y-30599500D01*
X11937527Y-30599500D01*
X11870488Y-30579815D01*
X11824733Y-30527011D01*
X11814789Y-30457853D01*
X11843814Y-30394297D01*
X11881232Y-30365015D01*
X11887964Y-30361585D01*
X11986788Y-30311232D01*
X12126928Y-30209414D01*
X12249414Y-30086928D01*
X12351232Y-29946788D01*
X12429873Y-29792445D01*
X12483402Y-29627701D01*
X12510500Y-29456611D01*
X12510500Y-27883389D01*
X12483402Y-27712299D01*
X12429873Y-27547555D01*
X12351232Y-27393212D01*
X12249414Y-27253072D01*
X12126928Y-27130586D01*
X12085265Y-27100316D01*
X12042602Y-27044988D01*
X12036623Y-26975374D01*
X12069229Y-26913579D01*
X12085266Y-26899683D01*
X12126928Y-26869414D01*
X12249414Y-26746928D01*
X12351232Y-26606788D01*
X12429873Y-26452445D01*
X12483402Y-26287701D01*
X12510500Y-26116611D01*
X12510500Y-24543389D01*
X12483402Y-24372299D01*
X12429873Y-24207555D01*
X12351232Y-24053212D01*
X12320072Y-24010324D01*
X12309617Y-23981021D01*
X12297304Y-23952460D01*
X12297976Y-23948398D01*
X12296593Y-23944520D01*
X12303638Y-23914219D01*
X12308723Y-23883530D01*
X12311485Y-23880476D01*
X12312418Y-23876466D01*
X12334724Y-23854787D01*
X12355596Y-23831716D01*
X12359571Y-23830640D01*
X12362524Y-23827771D01*
X12393007Y-23821593D01*
X12423041Y-23813468D01*
X12428579Y-23814385D01*
G37*
%TD.AperFunction*%
%TA.AperFunction,NonConductor*%
G36*
X10299594Y-26295427D02*
G01*
X10351070Y-26342671D01*
X10362814Y-26368385D01*
X10390128Y-26452449D01*
X10429148Y-26529029D01*
X10468768Y-26606788D01*
X10570586Y-26746928D01*
X10570588Y-26746930D01*
X10693072Y-26869414D01*
X10734733Y-26899683D01*
X10777398Y-26955013D01*
X10783376Y-27024627D01*
X10750769Y-27086421D01*
X10734733Y-27100317D01*
X10693072Y-27130585D01*
X10570588Y-27253069D01*
X10570588Y-27253070D01*
X10570586Y-27253072D01*
X10544737Y-27288650D01*
X10468768Y-27393211D01*
X10390128Y-27547552D01*
X10336597Y-27712302D01*
X10309500Y-27883389D01*
X10309500Y-29456610D01*
X10335934Y-29623512D01*
X10336598Y-29627701D01*
X10390127Y-29792445D01*
X10468768Y-29946788D01*
X10570586Y-30086928D01*
X10693072Y-30209414D01*
X10833212Y-30311232D01*
X10932036Y-30361585D01*
X10938768Y-30365015D01*
X10989564Y-30412989D01*
X11006359Y-30480810D01*
X10983822Y-30546945D01*
X10929107Y-30590397D01*
X10882473Y-30599500D01*
X9397527Y-30599500D01*
X9330488Y-30579815D01*
X9284733Y-30527011D01*
X9274789Y-30457853D01*
X9303814Y-30394297D01*
X9341232Y-30365015D01*
X9347964Y-30361585D01*
X9446788Y-30311232D01*
X9586928Y-30209414D01*
X9709414Y-30086928D01*
X9811232Y-29946788D01*
X9889873Y-29792445D01*
X9943402Y-29627701D01*
X9970500Y-29456611D01*
X9970500Y-27883389D01*
X9943402Y-27712299D01*
X9889873Y-27547555D01*
X9811232Y-27393212D01*
X9709414Y-27253072D01*
X9681146Y-27224804D01*
X9647662Y-27163482D01*
X9652646Y-27093790D01*
X9694518Y-27037857D01*
X9695943Y-27036806D01*
X9716889Y-27021587D01*
X9716895Y-27021582D01*
X9861582Y-26876895D01*
X9861582Y-26876894D01*
X9981859Y-26711349D01*
X10074755Y-26529029D01*
X10126952Y-26368386D01*
X10166389Y-26310710D01*
X10230748Y-26283512D01*
X10299594Y-26295427D01*
G37*
%TD.AperFunction*%
%TA.AperFunction,NonConductor*%
G36*
X61528684Y-14170185D02*
G01*
X61574439Y-14222989D01*
X61575079Y-14224414D01*
X61646721Y-14386668D01*
X61772457Y-14570220D01*
X61772462Y-14570226D01*
X61929773Y-14727537D01*
X61929779Y-14727542D01*
X62113329Y-14853277D01*
X62113330Y-14853277D01*
X62113331Y-14853278D01*
X62188720Y-14886566D01*
X62242097Y-14931652D01*
X62262624Y-14998438D01*
X62243786Y-15065720D01*
X62191562Y-15112136D01*
X62188720Y-15113434D01*
X62113331Y-15146721D01*
X61929779Y-15272457D01*
X61929773Y-15272462D01*
X61772462Y-15429773D01*
X61772457Y-15429779D01*
X61646721Y-15613331D01*
X61575079Y-15775586D01*
X61529993Y-15828963D01*
X61463207Y-15849490D01*
X61461645Y-15849500D01*
X58538355Y-15849500D01*
X58471316Y-15829815D01*
X58425561Y-15777011D01*
X58424921Y-15775586D01*
X58353278Y-15613331D01*
X58348951Y-15607015D01*
X58227542Y-15429779D01*
X58227537Y-15429773D01*
X58070226Y-15272462D01*
X58070220Y-15272457D01*
X57886672Y-15146724D01*
X57886673Y-15146724D01*
X57886671Y-15146723D01*
X57811277Y-15113433D01*
X57757903Y-15068349D01*
X57737375Y-15001563D01*
X57756213Y-14934280D01*
X57808436Y-14887864D01*
X57811235Y-14886585D01*
X57886671Y-14853277D01*
X58070221Y-14727542D01*
X58227542Y-14570221D01*
X58353277Y-14386671D01*
X58381719Y-14322256D01*
X58424921Y-14224414D01*
X58470007Y-14171037D01*
X58536793Y-14150510D01*
X58538355Y-14150500D01*
X61461645Y-14150500D01*
X61528684Y-14170185D01*
G37*
%TD.AperFunction*%
M02*
