%TF.GenerationSoftware,KiCad,Pcbnew,9.0.7*%
%TF.CreationDate,2026-05-20T09:51:19+02:00*%
%TF.ProjectId,ZeroTiny,5a65726f-5469-46e7-992e-6b696361645f,rev?*%
%TF.SameCoordinates,Original*%
%TF.FileFunction,Other,User*%
%FSLAX46Y46*%
G04 Gerber Fmt 4.6, Leading zero omitted, Abs format (unit mm)*
G04 Created by KiCad (PCBNEW 9.0.7) date 2026-05-20 09:51:19*
%MOMM*%
%LPD*%
G01*
G04 APERTURE LIST*
%ADD10C,0.050000*%
G04 APERTURE END LIST*
D10*
%TO.C,SW3*%
X7948218Y-18069352D02*
X8145221Y-17915436D01*
X8102134Y-18266354D02*
X7948218Y-18069352D01*
X12411764Y-23782430D02*
X8102134Y-18266354D01*
X12411764Y-23782430D02*
X12565679Y-23979432D01*
X12565679Y-23979432D02*
X12762682Y-23825517D01*
X8145221Y-17915436D02*
X15237318Y-12374483D01*
X15237318Y-12374483D02*
X15434321Y-12220568D01*
X19854779Y-18284564D02*
X12762682Y-23825517D01*
X19854779Y-18284564D02*
X20051782Y-18130648D01*
X15434321Y-12220568D02*
X15588236Y-12417570D01*
X15588236Y-12417570D02*
X19897866Y-17933646D01*
X20051782Y-18130648D02*
X19897866Y-17933646D01*
%TO.C,J1*%
X41250000Y3550000D02*
X28750000Y3550000D01*
X28750000Y-14950000D01*
X41250000Y-14950000D01*
X41250000Y3550000D01*
%TO.C,SW9*%
X29450000Y-15650000D02*
X29700000Y-15650000D01*
X29450000Y-15900000D02*
X29450000Y-15650000D01*
X29450000Y-22900000D02*
X29450000Y-15900000D01*
X29450000Y-22900000D02*
X29450000Y-23150000D01*
X29450000Y-23150000D02*
X29700000Y-23150000D01*
X29700000Y-15650000D02*
X38700000Y-15650000D01*
X38700000Y-15650000D02*
X38950000Y-15650000D01*
X38700000Y-23150000D02*
X29700000Y-23150000D01*
X38700000Y-23150000D02*
X38950000Y-23150000D01*
X38950000Y-15650000D02*
X38950000Y-15900000D01*
X38950000Y-15900000D02*
X38950000Y-22900000D01*
X38950000Y-23150000D02*
X38950000Y-22900000D01*
%TO.C,C3*%
X57487000Y-3944000D02*
X52527000Y-3944000D01*
X52527000Y-1644000D01*
X57487000Y-1644000D01*
X57487000Y-3944000D01*
%TO.C,C4*%
X49773000Y-4571000D02*
X44493000Y-4571000D01*
X44493000Y-1271000D01*
X49773000Y-1271000D01*
X49773000Y-4571000D01*
%TO.C,SW6*%
X64750000Y-22750000D02*
X64500000Y-22750000D01*
X64750000Y-22500000D02*
X64750000Y-22750000D01*
X64750000Y-15500000D02*
X64750000Y-22500000D01*
X64750000Y-15500000D02*
X64750000Y-15250000D01*
X64750000Y-15250000D02*
X64500000Y-15250000D01*
X64500000Y-22750000D02*
X55500000Y-22750000D01*
X55500000Y-22750000D02*
X55250000Y-22750000D01*
X55500000Y-15250000D02*
X64500000Y-15250000D01*
X55500000Y-15250000D02*
X55250000Y-15250000D01*
X55250000Y-22750000D02*
X55250000Y-22500000D01*
X55250000Y-22500000D02*
X55250000Y-15500000D01*
X55250000Y-15250000D02*
X55250000Y-15500000D01*
%TO.C,C1*%
X20970000Y-4330000D02*
X25930000Y-4330000D01*
X25930000Y-6630000D01*
X20970000Y-6630000D01*
X20970000Y-4330000D01*
%TO.C,R2*%
X26170000Y-8480000D02*
X28430000Y-8480000D01*
X28430000Y-3580000D01*
X26170000Y-3580000D01*
X26170000Y-8480000D01*
%TO.C,R1*%
X21570000Y-19080000D02*
X26470000Y-19080000D01*
X26470000Y-21340000D01*
X21570000Y-21340000D01*
X21570000Y-19080000D01*
%TO.C,SW2*%
X7948218Y-5869352D02*
X8145221Y-5715436D01*
X8102134Y-6066354D02*
X7948218Y-5869352D01*
X12411764Y-11582430D02*
X8102134Y-6066354D01*
X12411764Y-11582430D02*
X12565679Y-11779432D01*
X12565679Y-11779432D02*
X12762682Y-11625517D01*
X8145221Y-5715436D02*
X15237318Y-174483D01*
X15237318Y-174483D02*
X15434321Y-20568D01*
X19854779Y-6084564D02*
X12762682Y-11625517D01*
X19854779Y-6084564D02*
X20051782Y-5930648D01*
X15434321Y-20568D02*
X15588236Y-217570D01*
X15588236Y-217570D02*
X19897866Y-5733646D01*
X20051782Y-5930648D02*
X19897866Y-5733646D01*
%TO.C,C2*%
X20363000Y-763000D02*
X25643000Y-763000D01*
X25643000Y-4063000D01*
X20363000Y-4063000D01*
X20363000Y-763000D01*
%TO.C,SW8*%
X55250000Y-7250000D02*
X55500000Y-7250000D01*
X55250000Y-7500000D02*
X55250000Y-7250000D01*
X55250000Y-14500000D02*
X55250000Y-7500000D01*
X55250000Y-14500000D02*
X55250000Y-14750000D01*
X55250000Y-14750000D02*
X55500000Y-14750000D01*
X55500000Y-7250000D02*
X64500000Y-7250000D01*
X64500000Y-7250000D02*
X64750000Y-7250000D01*
X64500000Y-14750000D02*
X55500000Y-14750000D01*
X64500000Y-14750000D02*
X64750000Y-14750000D01*
X64750000Y-7250000D02*
X64750000Y-7500000D01*
X64750000Y-7500000D02*
X64750000Y-14500000D01*
X64750000Y-14750000D02*
X64750000Y-14500000D01*
%TO.C,R4*%
X57330000Y-6845000D02*
X52430000Y-6845000D01*
X52430000Y-4585000D01*
X57330000Y-4585000D01*
X57330000Y-6845000D01*
%TO.C,SW7*%
X44250000Y-7250000D02*
X44500000Y-7250000D01*
X44250000Y-7500000D02*
X44250000Y-7250000D01*
X44250000Y-14500000D02*
X44250000Y-7500000D01*
X44250000Y-14500000D02*
X44250000Y-14750000D01*
X44250000Y-14750000D02*
X44500000Y-14750000D01*
X44500000Y-7250000D02*
X53500000Y-7250000D01*
X53500000Y-7250000D02*
X53750000Y-7250000D01*
X53500000Y-14750000D02*
X44500000Y-14750000D01*
X53500000Y-14750000D02*
X53750000Y-14750000D01*
X53750000Y-7250000D02*
X53750000Y-7500000D01*
X53750000Y-7500000D02*
X53750000Y-14500000D01*
X53750000Y-14750000D02*
X53750000Y-14500000D01*
%TO.C,SW5*%
X53750000Y-22750000D02*
X53500000Y-22750000D01*
X53750000Y-22500000D02*
X53750000Y-22750000D01*
X53750000Y-15500000D02*
X53750000Y-22500000D01*
X53750000Y-15500000D02*
X53750000Y-15250000D01*
X53750000Y-15250000D02*
X53500000Y-15250000D01*
X53500000Y-22750000D02*
X44500000Y-22750000D01*
X44500000Y-22750000D02*
X44250000Y-22750000D01*
X44500000Y-15250000D02*
X53500000Y-15250000D01*
X44500000Y-15250000D02*
X44250000Y-15250000D01*
X44250000Y-22750000D02*
X44250000Y-22500000D01*
X44250000Y-22500000D02*
X44250000Y-15500000D01*
X44250000Y-15250000D02*
X44250000Y-15500000D01*
%TO.C,R3*%
X22540000Y-16450000D02*
X27440000Y-16450000D01*
X27440000Y-18710000D01*
X22540000Y-18710000D01*
X22540000Y-16450000D01*
%TO.C,SW4*%
X20130648Y-5948218D02*
X20284564Y-6145221D01*
X19933646Y-6102134D02*
X20130648Y-5948218D01*
X14417570Y-10411764D02*
X19933646Y-6102134D01*
X14417570Y-10411764D02*
X14220568Y-10565679D01*
X14220568Y-10565679D02*
X14374483Y-10762682D01*
X20284564Y-6145221D02*
X25825517Y-13237318D01*
X25825517Y-13237318D02*
X25979432Y-13434321D01*
X19915436Y-17854779D02*
X14374483Y-10762682D01*
X19915436Y-17854779D02*
X20069352Y-18051782D01*
X25979432Y-13434321D02*
X25782430Y-13588236D01*
X25782430Y-13588236D02*
X20266354Y-17897866D01*
X20069352Y-18051782D02*
X20266354Y-17897866D01*
%TO.C,SW1*%
X7930648Y-5948218D02*
X8084564Y-6145221D01*
X7733646Y-6102134D02*
X7930648Y-5948218D01*
X2217570Y-10411764D02*
X7733646Y-6102134D01*
X2217570Y-10411764D02*
X2020568Y-10565679D01*
X2020568Y-10565679D02*
X2174483Y-10762682D01*
X8084564Y-6145221D02*
X13625517Y-13237318D01*
X13625517Y-13237318D02*
X13779432Y-13434321D01*
X7715436Y-17854779D02*
X2174483Y-10762682D01*
X7715436Y-17854779D02*
X7869352Y-18051782D01*
X13779432Y-13434321D02*
X13582430Y-13588236D01*
X13582430Y-13588236D02*
X8066354Y-17897866D01*
X7869352Y-18051782D02*
X8066354Y-17897866D01*
%TD*%
M02*
