M48
; DRILL file {KiCad 9.0.7} date 2026-05-20T09:51:22+0200
; FORMAT={-:-/ absolute / metric / decimal}
; #@! TF.CreationDate,2026-05-20T09:51:22+02:00
; #@! TF.GenerationSoftware,Kicad,Pcbnew,9.0.7
; #@! TF.FileFunction,Plated,1,2,PTH
FMAT,2
METRIC
; #@! TA.AperFunction,Plated,PTH,ViaDrill
T1C0.600
; #@! TA.AperFunction,Plated,PTH,ComponentDrill
T2C1.000
; #@! TA.AperFunction,Plated,PTH,ComponentDrill
T3C1.200
%
G90
G05
T1
X15.28Y-22.91
X18.66Y-22.81
X21.53Y-22.597
X25.67Y-15.12
X25.83Y-9.46
X27.11Y-2.98
X28.08Y-20.22
X28.288Y-22.438
X42.91Y-5.4
X51.07Y-5.06
X54.54Y-19.781
X58.563Y-6.477
T2
X8.87Y-25.73
X8.87Y-28.27
X11.41Y-25.73
X11.41Y-28.27
X13.95Y-25.73
X13.95Y-28.27
X16.49Y-25.73
X16.49Y-28.27
X19.03Y-25.73
X19.03Y-28.27
X21.57Y-25.73
X21.57Y-28.27
X24.11Y-25.73
X24.11Y-28.27
X26.65Y-25.73
X26.65Y-28.27
X29.19Y-25.73
X29.19Y-28.27
X31.73Y-25.73
X31.73Y-28.27
X34.27Y-25.73
X34.27Y-28.27
X36.81Y-25.73
X36.81Y-28.27
X39.35Y-25.73
X39.35Y-28.27
X41.89Y-25.73
X41.89Y-28.27
X44.43Y-25.73
X44.43Y-28.27
X46.97Y-25.73
X46.97Y-28.27
X49.51Y-25.73
X49.51Y-28.27
X52.05Y-25.73
X52.05Y-28.27
X54.59Y-25.73
X54.59Y-28.27
X57.13Y-25.73
X57.13Y-28.27
T3
X4.126Y-10.824
X7.672Y-8.054
X8.128Y-15.946
X10.054Y-6.128
X10.054Y-18.328
X11.674Y-13.176
X12.824Y-9.674
X12.824Y-21.874
X15.176Y-2.126
X15.176Y-14.326
X16.326Y-10.824
X17.946Y-5.672
X17.946Y-17.872
X19.872Y-8.054
X20.328Y-15.946
X23.874Y-13.176
X30.95Y-17.15
X30.95Y-21.65
X37.45Y-17.15
X37.45Y-21.65
X45.75Y-8.75
X45.75Y-13.25
X45.75Y-16.75
X45.75Y-21.25
X52.25Y-8.75
X52.25Y-13.25
X52.25Y-16.75
X52.25Y-21.25
X56.75Y-8.75
X56.75Y-13.25
X56.75Y-16.75
X56.75Y-21.25
X63.25Y-8.75
X63.25Y-13.25
X63.25Y-16.75
X63.25Y-21.25
T2
G00X30.4Y-5.95
M15
G01X30.4Y-7.15
M16
G05
G00X30.3Y-13.75
M15
G01X31.5Y-13.75
M16
G05
G00X35.6Y-2.25
M15
G01X34.4Y-2.25
M16
G05
G00X37.6Y-8.75
M15
G01X37.6Y-9.95
M16
G05
G00X40.2Y-9.95
M15
G01X40.2Y-11.15
M16
G05
M30
