%TF.GenerationSoftware,KiCad,Pcbnew,9.0.7*%
%TF.CreationDate,2026-05-20T09:51:19+02:00*%
%TF.ProjectId,ZeroTiny,5a65726f-5469-46e7-992e-6b696361645f,rev?*%
%TF.SameCoordinates,Original*%
%TF.FileFunction,AssemblyDrawing,Top*%
%FSLAX46Y46*%
G04 Gerber Fmt 4.6, Leading zero omitted, Abs format (unit mm)*
G04 Created by KiCad (PCBNEW 9.0.7) date 2026-05-20 09:51:19*
%MOMM*%
%LPD*%
G01*
G04 APERTURE LIST*
%ADD10C,0.150000*%
%ADD11C,0.120000*%
%ADD12C,0.100000*%
G04 APERTURE END LIST*
D10*
X7607725Y-22510835D02*
X7145979Y-21919827D01*
X7145979Y-21919827D02*
X7286695Y-21809887D01*
X7286695Y-21809887D02*
X7393113Y-21772067D01*
X7393113Y-21772067D02*
X7493375Y-21784378D01*
X7493375Y-21784378D02*
X7565494Y-21818676D01*
X7565494Y-21818676D02*
X7681589Y-21909261D01*
X7681589Y-21909261D02*
X7747553Y-21993691D01*
X7747553Y-21993691D02*
X7807361Y-22128252D01*
X7807361Y-22128252D02*
X7823194Y-22206526D01*
X7823194Y-22206526D02*
X7810883Y-22306789D01*
X7810883Y-22306789D02*
X7748441Y-22400896D01*
X7748441Y-22400896D02*
X7607725Y-22510835D01*
X8283163Y-21983125D02*
X8204889Y-21998958D01*
X8204889Y-21998958D02*
X8154758Y-21992802D01*
X8154758Y-21992802D02*
X8082638Y-21958504D01*
X8082638Y-21958504D02*
X7950711Y-21789644D01*
X7950711Y-21789644D02*
X7934878Y-21711370D01*
X7934878Y-21711370D02*
X7941034Y-21661239D01*
X7941034Y-21661239D02*
X7975332Y-21589120D01*
X7975332Y-21589120D02*
X8059762Y-21523156D01*
X8059762Y-21523156D02*
X8138036Y-21507324D01*
X8138036Y-21507324D02*
X8188168Y-21513479D01*
X8188168Y-21513479D02*
X8260287Y-21547777D01*
X8260287Y-21547777D02*
X8392214Y-21716637D01*
X8392214Y-21716637D02*
X8408047Y-21794911D01*
X8408047Y-21794911D02*
X8401891Y-21845042D01*
X8401891Y-21845042D02*
X8367593Y-21917161D01*
X8367593Y-21917161D02*
X8283163Y-21983125D01*
X8369337Y-21281289D02*
X8789741Y-21587343D01*
X8789741Y-21587343D02*
X8682435Y-21217959D01*
X8682435Y-21217959D02*
X9014887Y-21411440D01*
X9014887Y-21411440D02*
X8819629Y-20929483D01*
X9044775Y-20753580D02*
X9352606Y-21147585D01*
X9088751Y-20809866D02*
X9094906Y-20759735D01*
X9094906Y-20759735D02*
X9129205Y-20687616D01*
X9129205Y-20687616D02*
X9213634Y-20621652D01*
X9213634Y-20621652D02*
X9291909Y-20605820D01*
X9291909Y-20605820D02*
X9364028Y-20640118D01*
X9364028Y-20640118D02*
X9605895Y-20949694D01*
X6780811Y-21428783D02*
X6887229Y-21390962D01*
X6887229Y-21390962D02*
X7027945Y-21281023D01*
X7027945Y-21281023D02*
X7062244Y-21208904D01*
X7062244Y-21208904D02*
X7068399Y-21158773D01*
X7068399Y-21158773D02*
X7052566Y-21080498D01*
X7052566Y-21080498D02*
X7008591Y-21024212D01*
X7008591Y-21024212D02*
X6936472Y-20989913D01*
X6936472Y-20989913D02*
X6886340Y-20983758D01*
X6886340Y-20983758D02*
X6808066Y-20999590D01*
X6808066Y-20999590D02*
X6673505Y-21059399D01*
X6673505Y-21059399D02*
X6595231Y-21075231D01*
X6595231Y-21075231D02*
X6545100Y-21069076D01*
X6545100Y-21069076D02*
X6472981Y-21034777D01*
X6472981Y-21034777D02*
X6429005Y-20978491D01*
X6429005Y-20978491D02*
X6413172Y-20900216D01*
X6413172Y-20900216D02*
X6419328Y-20850085D01*
X6419328Y-20850085D02*
X6453626Y-20777966D01*
X6453626Y-20777966D02*
X6594342Y-20668027D01*
X6594342Y-20668027D02*
X6700760Y-20630206D01*
X6875775Y-20448147D02*
X7478237Y-20929216D01*
X7478237Y-20929216D02*
X7260992Y-20419116D01*
X7260992Y-20419116D02*
X7703383Y-20753313D01*
X7703383Y-20753313D02*
X7382353Y-20052365D01*
X7551213Y-19920438D02*
X7917075Y-19634595D01*
X7917075Y-19634595D02*
X7895976Y-20013656D01*
X7895976Y-20013656D02*
X7980405Y-19947692D01*
X7980405Y-19947692D02*
X8058680Y-19931860D01*
X8058680Y-19931860D02*
X8108811Y-19938015D01*
X8108811Y-19938015D02*
X8180930Y-19972314D01*
X8180930Y-19972314D02*
X8290869Y-20113030D01*
X8290869Y-20113030D02*
X8306702Y-20191304D01*
X8306702Y-20191304D02*
X8300547Y-20241435D01*
X8300547Y-20241435D02*
X8266248Y-20313554D01*
X8266248Y-20313554D02*
X8097389Y-20445482D01*
X8097389Y-20445482D02*
X8019114Y-20461314D01*
X8019114Y-20461314D02*
X7968983Y-20455159D01*
X33586001Y-4950878D02*
X33943144Y-4950878D01*
X33514572Y-5165164D02*
X33764572Y-4415164D01*
X33764572Y-4415164D02*
X34014572Y-5165164D01*
X34586001Y-4665164D02*
X34586001Y-5165164D01*
X34264572Y-4665164D02*
X34264572Y-5058021D01*
X34264572Y-5058021D02*
X34300286Y-5129450D01*
X34300286Y-5129450D02*
X34371715Y-5165164D01*
X34371715Y-5165164D02*
X34478858Y-5165164D01*
X34478858Y-5165164D02*
X34550286Y-5129450D01*
X34550286Y-5129450D02*
X34586001Y-5093735D01*
X35264572Y-5165164D02*
X35264572Y-4415164D01*
X35264572Y-5129450D02*
X35193143Y-5165164D01*
X35193143Y-5165164D02*
X35050286Y-5165164D01*
X35050286Y-5165164D02*
X34978857Y-5129450D01*
X34978857Y-5129450D02*
X34943143Y-5093735D01*
X34943143Y-5093735D02*
X34907429Y-5022307D01*
X34907429Y-5022307D02*
X34907429Y-4808021D01*
X34907429Y-4808021D02*
X34943143Y-4736592D01*
X34943143Y-4736592D02*
X34978857Y-4700878D01*
X34978857Y-4700878D02*
X35050286Y-4665164D01*
X35050286Y-4665164D02*
X35193143Y-4665164D01*
X35193143Y-4665164D02*
X35264572Y-4700878D01*
X35621714Y-5165164D02*
X35621714Y-4665164D01*
X35621714Y-4415164D02*
X35586000Y-4450878D01*
X35586000Y-4450878D02*
X35621714Y-4486592D01*
X35621714Y-4486592D02*
X35657428Y-4450878D01*
X35657428Y-4450878D02*
X35621714Y-4415164D01*
X35621714Y-4415164D02*
X35621714Y-4486592D01*
X36086000Y-5165164D02*
X36014571Y-5129450D01*
X36014571Y-5129450D02*
X35978857Y-5093735D01*
X35978857Y-5093735D02*
X35943143Y-5022307D01*
X35943143Y-5022307D02*
X35943143Y-4808021D01*
X35943143Y-4808021D02*
X35978857Y-4736592D01*
X35978857Y-4736592D02*
X36014571Y-4700878D01*
X36014571Y-4700878D02*
X36086000Y-4665164D01*
X36086000Y-4665164D02*
X36193143Y-4665164D01*
X36193143Y-4665164D02*
X36264571Y-4700878D01*
X36264571Y-4700878D02*
X36300286Y-4736592D01*
X36300286Y-4736592D02*
X36336000Y-4808021D01*
X36336000Y-4808021D02*
X36336000Y-5022307D01*
X36336000Y-5022307D02*
X36300286Y-5093735D01*
X36300286Y-5093735D02*
X36264571Y-5129450D01*
X36264571Y-5129450D02*
X36193143Y-5165164D01*
X36193143Y-5165164D02*
X36086000Y-5165164D01*
X36871714Y-4415164D02*
X36871714Y-4950878D01*
X36871714Y-4950878D02*
X36835999Y-5058021D01*
X36835999Y-5058021D02*
X36764571Y-5129450D01*
X36764571Y-5129450D02*
X36657428Y-5165164D01*
X36657428Y-5165164D02*
X36585999Y-5165164D01*
X37550286Y-5165164D02*
X37550286Y-4772307D01*
X37550286Y-4772307D02*
X37514571Y-4700878D01*
X37514571Y-4700878D02*
X37443143Y-4665164D01*
X37443143Y-4665164D02*
X37300286Y-4665164D01*
X37300286Y-4665164D02*
X37228857Y-4700878D01*
X37550286Y-5129450D02*
X37478857Y-5165164D01*
X37478857Y-5165164D02*
X37300286Y-5165164D01*
X37300286Y-5165164D02*
X37228857Y-5129450D01*
X37228857Y-5129450D02*
X37193143Y-5058021D01*
X37193143Y-5058021D02*
X37193143Y-4986592D01*
X37193143Y-4986592D02*
X37228857Y-4915164D01*
X37228857Y-4915164D02*
X37300286Y-4879450D01*
X37300286Y-4879450D02*
X37478857Y-4879450D01*
X37478857Y-4879450D02*
X37550286Y-4843735D01*
X38228857Y-5129450D02*
X38157428Y-5165164D01*
X38157428Y-5165164D02*
X38014571Y-5165164D01*
X38014571Y-5165164D02*
X37943142Y-5129450D01*
X37943142Y-5129450D02*
X37907428Y-5093735D01*
X37907428Y-5093735D02*
X37871714Y-5022307D01*
X37871714Y-5022307D02*
X37871714Y-4808021D01*
X37871714Y-4808021D02*
X37907428Y-4736592D01*
X37907428Y-4736592D02*
X37943142Y-4700878D01*
X37943142Y-4700878D02*
X38014571Y-4665164D01*
X38014571Y-4665164D02*
X38157428Y-4665164D01*
X38157428Y-4665164D02*
X38228857Y-4700878D01*
X38550285Y-5165164D02*
X38550285Y-4415164D01*
X38621714Y-4879450D02*
X38835999Y-5165164D01*
X38835999Y-4665164D02*
X38550285Y-4950878D01*
X40000000Y-15409164D02*
X40000000Y-15944878D01*
X40000000Y-15944878D02*
X39964285Y-16052021D01*
X39964285Y-16052021D02*
X39892857Y-16123450D01*
X39892857Y-16123450D02*
X39785714Y-16159164D01*
X39785714Y-16159164D02*
X39714285Y-16159164D01*
X40750000Y-16159164D02*
X40321429Y-16159164D01*
X40535714Y-16159164D02*
X40535714Y-15409164D01*
X40535714Y-15409164D02*
X40464286Y-15516307D01*
X40464286Y-15516307D02*
X40392857Y-15587735D01*
X40392857Y-15587735D02*
X40321429Y-15623450D01*
X27790715Y-21534878D02*
X28147858Y-21534878D01*
X27719286Y-21749164D02*
X27969286Y-20999164D01*
X27969286Y-20999164D02*
X28219286Y-21749164D01*
X28576429Y-21749164D02*
X28505000Y-21713450D01*
X28505000Y-21713450D02*
X28469286Y-21642021D01*
X28469286Y-21642021D02*
X28469286Y-20999164D01*
X28755000Y-21249164D02*
X29040714Y-21249164D01*
X28862143Y-20999164D02*
X28862143Y-21642021D01*
X28862143Y-21642021D02*
X28897857Y-21713450D01*
X28897857Y-21713450D02*
X28969286Y-21749164D01*
X28969286Y-21749164D02*
X29040714Y-21749164D01*
X39150000Y-21873450D02*
X39257143Y-21909164D01*
X39257143Y-21909164D02*
X39435714Y-21909164D01*
X39435714Y-21909164D02*
X39507143Y-21873450D01*
X39507143Y-21873450D02*
X39542857Y-21837735D01*
X39542857Y-21837735D02*
X39578571Y-21766307D01*
X39578571Y-21766307D02*
X39578571Y-21694878D01*
X39578571Y-21694878D02*
X39542857Y-21623450D01*
X39542857Y-21623450D02*
X39507143Y-21587735D01*
X39507143Y-21587735D02*
X39435714Y-21552021D01*
X39435714Y-21552021D02*
X39292857Y-21516307D01*
X39292857Y-21516307D02*
X39221428Y-21480592D01*
X39221428Y-21480592D02*
X39185714Y-21444878D01*
X39185714Y-21444878D02*
X39150000Y-21373450D01*
X39150000Y-21373450D02*
X39150000Y-21302021D01*
X39150000Y-21302021D02*
X39185714Y-21230592D01*
X39185714Y-21230592D02*
X39221428Y-21194878D01*
X39221428Y-21194878D02*
X39292857Y-21159164D01*
X39292857Y-21159164D02*
X39471428Y-21159164D01*
X39471428Y-21159164D02*
X39578571Y-21194878D01*
X39828571Y-21159164D02*
X40007143Y-21909164D01*
X40007143Y-21909164D02*
X40150000Y-21373450D01*
X40150000Y-21373450D02*
X40292857Y-21909164D01*
X40292857Y-21909164D02*
X40471429Y-21159164D01*
X40792857Y-21909164D02*
X40935714Y-21909164D01*
X40935714Y-21909164D02*
X41007143Y-21873450D01*
X41007143Y-21873450D02*
X41042857Y-21837735D01*
X41042857Y-21837735D02*
X41114286Y-21730592D01*
X41114286Y-21730592D02*
X41150000Y-21587735D01*
X41150000Y-21587735D02*
X41150000Y-21302021D01*
X41150000Y-21302021D02*
X41114286Y-21230592D01*
X41114286Y-21230592D02*
X41078572Y-21194878D01*
X41078572Y-21194878D02*
X41007143Y-21159164D01*
X41007143Y-21159164D02*
X40864286Y-21159164D01*
X40864286Y-21159164D02*
X40792857Y-21194878D01*
X40792857Y-21194878D02*
X40757143Y-21230592D01*
X40757143Y-21230592D02*
X40721429Y-21302021D01*
X40721429Y-21302021D02*
X40721429Y-21480592D01*
X40721429Y-21480592D02*
X40757143Y-21552021D01*
X40757143Y-21552021D02*
X40792857Y-21587735D01*
X40792857Y-21587735D02*
X40864286Y-21623450D01*
X40864286Y-21623450D02*
X41007143Y-21623450D01*
X41007143Y-21623450D02*
X41078572Y-21587735D01*
X41078572Y-21587735D02*
X41114286Y-21552021D01*
X41114286Y-21552021D02*
X41150000Y-21480592D01*
X54524857Y-1283164D02*
X54096286Y-1283164D01*
X54310571Y-1283164D02*
X54310571Y-533164D01*
X54310571Y-533164D02*
X54239143Y-640307D01*
X54239143Y-640307D02*
X54167714Y-711735D01*
X54167714Y-711735D02*
X54096286Y-747450D01*
X54989143Y-533164D02*
X55060572Y-533164D01*
X55060572Y-533164D02*
X55132000Y-568878D01*
X55132000Y-568878D02*
X55167715Y-604592D01*
X55167715Y-604592D02*
X55203429Y-676021D01*
X55203429Y-676021D02*
X55239143Y-818878D01*
X55239143Y-818878D02*
X55239143Y-997450D01*
X55239143Y-997450D02*
X55203429Y-1140307D01*
X55203429Y-1140307D02*
X55167715Y-1211735D01*
X55167715Y-1211735D02*
X55132000Y-1247450D01*
X55132000Y-1247450D02*
X55060572Y-1283164D01*
X55060572Y-1283164D02*
X54989143Y-1283164D01*
X54989143Y-1283164D02*
X54917715Y-1247450D01*
X54917715Y-1247450D02*
X54882000Y-1211735D01*
X54882000Y-1211735D02*
X54846286Y-1140307D01*
X54846286Y-1140307D02*
X54810572Y-997450D01*
X54810572Y-997450D02*
X54810572Y-818878D01*
X54810572Y-818878D02*
X54846286Y-676021D01*
X54846286Y-676021D02*
X54882000Y-604592D01*
X54882000Y-604592D02*
X54917715Y-568878D01*
X54917715Y-568878D02*
X54989143Y-533164D01*
X55560572Y-783164D02*
X55560572Y-1283164D01*
X55560572Y-854592D02*
X55596286Y-818878D01*
X55596286Y-818878D02*
X55667715Y-783164D01*
X55667715Y-783164D02*
X55774858Y-783164D01*
X55774858Y-783164D02*
X55846286Y-818878D01*
X55846286Y-818878D02*
X55882001Y-890307D01*
X55882001Y-890307D02*
X55882001Y-1283164D01*
X58424999Y-2277735D02*
X58389285Y-2313450D01*
X58389285Y-2313450D02*
X58282142Y-2349164D01*
X58282142Y-2349164D02*
X58210714Y-2349164D01*
X58210714Y-2349164D02*
X58103571Y-2313450D01*
X58103571Y-2313450D02*
X58032142Y-2242021D01*
X58032142Y-2242021D02*
X57996428Y-2170592D01*
X57996428Y-2170592D02*
X57960714Y-2027735D01*
X57960714Y-2027735D02*
X57960714Y-1920592D01*
X57960714Y-1920592D02*
X57996428Y-1777735D01*
X57996428Y-1777735D02*
X58032142Y-1706307D01*
X58032142Y-1706307D02*
X58103571Y-1634878D01*
X58103571Y-1634878D02*
X58210714Y-1599164D01*
X58210714Y-1599164D02*
X58282142Y-1599164D01*
X58282142Y-1599164D02*
X58389285Y-1634878D01*
X58389285Y-1634878D02*
X58424999Y-1670592D01*
X58674999Y-1599164D02*
X59139285Y-1599164D01*
X59139285Y-1599164D02*
X58889285Y-1884878D01*
X58889285Y-1884878D02*
X58996428Y-1884878D01*
X58996428Y-1884878D02*
X59067857Y-1920592D01*
X59067857Y-1920592D02*
X59103571Y-1956307D01*
X59103571Y-1956307D02*
X59139285Y-2027735D01*
X59139285Y-2027735D02*
X59139285Y-2206307D01*
X59139285Y-2206307D02*
X59103571Y-2277735D01*
X59103571Y-2277735D02*
X59067857Y-2313450D01*
X59067857Y-2313450D02*
X58996428Y-2349164D01*
X58996428Y-2349164D02*
X58782142Y-2349164D01*
X58782142Y-2349164D02*
X58710714Y-2313450D01*
X58710714Y-2313450D02*
X58674999Y-2277735D01*
X42567857Y-3309164D02*
X42139286Y-3309164D01*
X42353571Y-3309164D02*
X42353571Y-2559164D01*
X42353571Y-2559164D02*
X42282143Y-2666307D01*
X42282143Y-2666307D02*
X42210714Y-2737735D01*
X42210714Y-2737735D02*
X42139286Y-2773450D01*
X43032143Y-2559164D02*
X43103572Y-2559164D01*
X43103572Y-2559164D02*
X43175000Y-2594878D01*
X43175000Y-2594878D02*
X43210715Y-2630592D01*
X43210715Y-2630592D02*
X43246429Y-2702021D01*
X43246429Y-2702021D02*
X43282143Y-2844878D01*
X43282143Y-2844878D02*
X43282143Y-3023450D01*
X43282143Y-3023450D02*
X43246429Y-3166307D01*
X43246429Y-3166307D02*
X43210715Y-3237735D01*
X43210715Y-3237735D02*
X43175000Y-3273450D01*
X43175000Y-3273450D02*
X43103572Y-3309164D01*
X43103572Y-3309164D02*
X43032143Y-3309164D01*
X43032143Y-3309164D02*
X42960715Y-3273450D01*
X42960715Y-3273450D02*
X42925000Y-3237735D01*
X42925000Y-3237735D02*
X42889286Y-3166307D01*
X42889286Y-3166307D02*
X42853572Y-3023450D01*
X42853572Y-3023450D02*
X42853572Y-2844878D01*
X42853572Y-2844878D02*
X42889286Y-2702021D01*
X42889286Y-2702021D02*
X42925000Y-2630592D01*
X42925000Y-2630592D02*
X42960715Y-2594878D01*
X42960715Y-2594878D02*
X43032143Y-2559164D01*
X43925001Y-2809164D02*
X43925001Y-3309164D01*
X43603572Y-2809164D02*
X43603572Y-3202021D01*
X43603572Y-3202021D02*
X43639286Y-3273450D01*
X43639286Y-3273450D02*
X43710715Y-3309164D01*
X43710715Y-3309164D02*
X43817858Y-3309164D01*
X43817858Y-3309164D02*
X43889286Y-3273450D01*
X43889286Y-3273450D02*
X43925001Y-3237735D01*
X43154999Y-1907735D02*
X43119285Y-1943450D01*
X43119285Y-1943450D02*
X43012142Y-1979164D01*
X43012142Y-1979164D02*
X42940714Y-1979164D01*
X42940714Y-1979164D02*
X42833571Y-1943450D01*
X42833571Y-1943450D02*
X42762142Y-1872021D01*
X42762142Y-1872021D02*
X42726428Y-1800592D01*
X42726428Y-1800592D02*
X42690714Y-1657735D01*
X42690714Y-1657735D02*
X42690714Y-1550592D01*
X42690714Y-1550592D02*
X42726428Y-1407735D01*
X42726428Y-1407735D02*
X42762142Y-1336307D01*
X42762142Y-1336307D02*
X42833571Y-1264878D01*
X42833571Y-1264878D02*
X42940714Y-1229164D01*
X42940714Y-1229164D02*
X43012142Y-1229164D01*
X43012142Y-1229164D02*
X43119285Y-1264878D01*
X43119285Y-1264878D02*
X43154999Y-1300592D01*
X43797857Y-1479164D02*
X43797857Y-1979164D01*
X43619285Y-1193450D02*
X43440714Y-1729164D01*
X43440714Y-1729164D02*
X43904999Y-1729164D01*
X61128857Y-23957164D02*
X60950285Y-23957164D01*
X60950285Y-23957164D02*
X60950285Y-22885735D01*
X60950285Y-22885735D02*
X61128857Y-22885735D01*
X61664571Y-23314307D02*
X61771714Y-23350021D01*
X61771714Y-23350021D02*
X61807428Y-23385735D01*
X61807428Y-23385735D02*
X61843142Y-23457164D01*
X61843142Y-23457164D02*
X61843142Y-23564307D01*
X61843142Y-23564307D02*
X61807428Y-23635735D01*
X61807428Y-23635735D02*
X61771714Y-23671450D01*
X61771714Y-23671450D02*
X61700285Y-23707164D01*
X61700285Y-23707164D02*
X61414571Y-23707164D01*
X61414571Y-23707164D02*
X61414571Y-22957164D01*
X61414571Y-22957164D02*
X61664571Y-22957164D01*
X61664571Y-22957164D02*
X61736000Y-22992878D01*
X61736000Y-22992878D02*
X61771714Y-23028592D01*
X61771714Y-23028592D02*
X61807428Y-23100021D01*
X61807428Y-23100021D02*
X61807428Y-23171450D01*
X61807428Y-23171450D02*
X61771714Y-23242878D01*
X61771714Y-23242878D02*
X61736000Y-23278592D01*
X61736000Y-23278592D02*
X61664571Y-23314307D01*
X61664571Y-23314307D02*
X61414571Y-23314307D01*
X62093142Y-23957164D02*
X62271714Y-23957164D01*
X62271714Y-23957164D02*
X62271714Y-22885735D01*
X62271714Y-22885735D02*
X62093142Y-22885735D01*
X58071000Y-23671450D02*
X58178143Y-23707164D01*
X58178143Y-23707164D02*
X58356714Y-23707164D01*
X58356714Y-23707164D02*
X58428143Y-23671450D01*
X58428143Y-23671450D02*
X58463857Y-23635735D01*
X58463857Y-23635735D02*
X58499571Y-23564307D01*
X58499571Y-23564307D02*
X58499571Y-23492878D01*
X58499571Y-23492878D02*
X58463857Y-23421450D01*
X58463857Y-23421450D02*
X58428143Y-23385735D01*
X58428143Y-23385735D02*
X58356714Y-23350021D01*
X58356714Y-23350021D02*
X58213857Y-23314307D01*
X58213857Y-23314307D02*
X58142428Y-23278592D01*
X58142428Y-23278592D02*
X58106714Y-23242878D01*
X58106714Y-23242878D02*
X58071000Y-23171450D01*
X58071000Y-23171450D02*
X58071000Y-23100021D01*
X58071000Y-23100021D02*
X58106714Y-23028592D01*
X58106714Y-23028592D02*
X58142428Y-22992878D01*
X58142428Y-22992878D02*
X58213857Y-22957164D01*
X58213857Y-22957164D02*
X58392428Y-22957164D01*
X58392428Y-22957164D02*
X58499571Y-22992878D01*
X58749571Y-22957164D02*
X58928143Y-23707164D01*
X58928143Y-23707164D02*
X59071000Y-23171450D01*
X59071000Y-23171450D02*
X59213857Y-23707164D01*
X59213857Y-23707164D02*
X59392429Y-22957164D01*
X59999572Y-22957164D02*
X59856714Y-22957164D01*
X59856714Y-22957164D02*
X59785286Y-22992878D01*
X59785286Y-22992878D02*
X59749572Y-23028592D01*
X59749572Y-23028592D02*
X59678143Y-23135735D01*
X59678143Y-23135735D02*
X59642429Y-23278592D01*
X59642429Y-23278592D02*
X59642429Y-23564307D01*
X59642429Y-23564307D02*
X59678143Y-23635735D01*
X59678143Y-23635735D02*
X59713857Y-23671450D01*
X59713857Y-23671450D02*
X59785286Y-23707164D01*
X59785286Y-23707164D02*
X59928143Y-23707164D01*
X59928143Y-23707164D02*
X59999572Y-23671450D01*
X59999572Y-23671450D02*
X60035286Y-23635735D01*
X60035286Y-23635735D02*
X60071000Y-23564307D01*
X60071000Y-23564307D02*
X60071000Y-23385735D01*
X60071000Y-23385735D02*
X60035286Y-23314307D01*
X60035286Y-23314307D02*
X59999572Y-23278592D01*
X59999572Y-23278592D02*
X59928143Y-23242878D01*
X59928143Y-23242878D02*
X59785286Y-23242878D01*
X59785286Y-23242878D02*
X59713857Y-23278592D01*
X59713857Y-23278592D02*
X59678143Y-23314307D01*
X59678143Y-23314307D02*
X59642429Y-23385735D01*
X23257857Y-7879164D02*
X22829286Y-7879164D01*
X23043571Y-7879164D02*
X23043571Y-7129164D01*
X23043571Y-7129164D02*
X22972143Y-7236307D01*
X22972143Y-7236307D02*
X22900714Y-7307735D01*
X22900714Y-7307735D02*
X22829286Y-7343450D01*
X23722143Y-7129164D02*
X23793572Y-7129164D01*
X23793572Y-7129164D02*
X23865000Y-7164878D01*
X23865000Y-7164878D02*
X23900715Y-7200592D01*
X23900715Y-7200592D02*
X23936429Y-7272021D01*
X23936429Y-7272021D02*
X23972143Y-7414878D01*
X23972143Y-7414878D02*
X23972143Y-7593450D01*
X23972143Y-7593450D02*
X23936429Y-7736307D01*
X23936429Y-7736307D02*
X23900715Y-7807735D01*
X23900715Y-7807735D02*
X23865000Y-7843450D01*
X23865000Y-7843450D02*
X23793572Y-7879164D01*
X23793572Y-7879164D02*
X23722143Y-7879164D01*
X23722143Y-7879164D02*
X23650715Y-7843450D01*
X23650715Y-7843450D02*
X23615000Y-7807735D01*
X23615000Y-7807735D02*
X23579286Y-7736307D01*
X23579286Y-7736307D02*
X23543572Y-7593450D01*
X23543572Y-7593450D02*
X23543572Y-7414878D01*
X23543572Y-7414878D02*
X23579286Y-7272021D01*
X23579286Y-7272021D02*
X23615000Y-7200592D01*
X23615000Y-7200592D02*
X23650715Y-7164878D01*
X23650715Y-7164878D02*
X23722143Y-7129164D01*
X24293572Y-7379164D02*
X24293572Y-7879164D01*
X24293572Y-7450592D02*
X24329286Y-7414878D01*
X24329286Y-7414878D02*
X24400715Y-7379164D01*
X24400715Y-7379164D02*
X24507858Y-7379164D01*
X24507858Y-7379164D02*
X24579286Y-7414878D01*
X24579286Y-7414878D02*
X24615001Y-7486307D01*
X24615001Y-7486307D02*
X24615001Y-7879164D01*
X23554999Y-9097735D02*
X23519285Y-9133450D01*
X23519285Y-9133450D02*
X23412142Y-9169164D01*
X23412142Y-9169164D02*
X23340714Y-9169164D01*
X23340714Y-9169164D02*
X23233571Y-9133450D01*
X23233571Y-9133450D02*
X23162142Y-9062021D01*
X23162142Y-9062021D02*
X23126428Y-8990592D01*
X23126428Y-8990592D02*
X23090714Y-8847735D01*
X23090714Y-8847735D02*
X23090714Y-8740592D01*
X23090714Y-8740592D02*
X23126428Y-8597735D01*
X23126428Y-8597735D02*
X23162142Y-8526307D01*
X23162142Y-8526307D02*
X23233571Y-8454878D01*
X23233571Y-8454878D02*
X23340714Y-8419164D01*
X23340714Y-8419164D02*
X23412142Y-8419164D01*
X23412142Y-8419164D02*
X23519285Y-8454878D01*
X23519285Y-8454878D02*
X23554999Y-8490592D01*
X24269285Y-9169164D02*
X23840714Y-9169164D01*
X24054999Y-9169164D02*
X24054999Y-8419164D01*
X24054999Y-8419164D02*
X23983571Y-8526307D01*
X23983571Y-8526307D02*
X23912142Y-8597735D01*
X23912142Y-8597735D02*
X23840714Y-8633450D01*
X26988571Y-10519164D02*
X26988571Y-11019164D01*
X26809999Y-10233450D02*
X26631428Y-10769164D01*
X26631428Y-10769164D02*
X27095713Y-10769164D01*
X27309999Y-10269164D02*
X27809999Y-10269164D01*
X27809999Y-10269164D02*
X27488571Y-11019164D01*
X28238571Y-10269164D02*
X28310000Y-10269164D01*
X28310000Y-10269164D02*
X28381428Y-10304878D01*
X28381428Y-10304878D02*
X28417143Y-10340592D01*
X28417143Y-10340592D02*
X28452857Y-10412021D01*
X28452857Y-10412021D02*
X28488571Y-10554878D01*
X28488571Y-10554878D02*
X28488571Y-10733450D01*
X28488571Y-10733450D02*
X28452857Y-10876307D01*
X28452857Y-10876307D02*
X28417143Y-10947735D01*
X28417143Y-10947735D02*
X28381428Y-10983450D01*
X28381428Y-10983450D02*
X28310000Y-11019164D01*
X28310000Y-11019164D02*
X28238571Y-11019164D01*
X28238571Y-11019164D02*
X28167143Y-10983450D01*
X28167143Y-10983450D02*
X28131428Y-10947735D01*
X28131428Y-10947735D02*
X28095714Y-10876307D01*
X28095714Y-10876307D02*
X28060000Y-10733450D01*
X28060000Y-10733450D02*
X28060000Y-10554878D01*
X28060000Y-10554878D02*
X28095714Y-10412021D01*
X28095714Y-10412021D02*
X28131428Y-10340592D01*
X28131428Y-10340592D02*
X28167143Y-10304878D01*
X28167143Y-10304878D02*
X28238571Y-10269164D01*
D11*
X27534999Y-9760724D02*
X27284999Y-9403581D01*
X27106428Y-9760724D02*
X27106428Y-9010724D01*
X27106428Y-9010724D02*
X27392142Y-9010724D01*
X27392142Y-9010724D02*
X27463571Y-9046438D01*
X27463571Y-9046438D02*
X27499285Y-9082152D01*
X27499285Y-9082152D02*
X27534999Y-9153581D01*
X27534999Y-9153581D02*
X27534999Y-9260724D01*
X27534999Y-9260724D02*
X27499285Y-9332152D01*
X27499285Y-9332152D02*
X27463571Y-9367867D01*
X27463571Y-9367867D02*
X27392142Y-9403581D01*
X27392142Y-9403581D02*
X27106428Y-9403581D01*
X27820714Y-9082152D02*
X27856428Y-9046438D01*
X27856428Y-9046438D02*
X27927857Y-9010724D01*
X27927857Y-9010724D02*
X28106428Y-9010724D01*
X28106428Y-9010724D02*
X28177857Y-9046438D01*
X28177857Y-9046438D02*
X28213571Y-9082152D01*
X28213571Y-9082152D02*
X28249285Y-9153581D01*
X28249285Y-9153581D02*
X28249285Y-9225010D01*
X28249285Y-9225010D02*
X28213571Y-9332152D01*
X28213571Y-9332152D02*
X27784999Y-9760724D01*
X27784999Y-9760724D02*
X28249285Y-9760724D01*
D10*
X19728571Y-21589164D02*
X19728571Y-22089164D01*
X19549999Y-21303450D02*
X19371428Y-21839164D01*
X19371428Y-21839164D02*
X19835713Y-21839164D01*
X20049999Y-21339164D02*
X20549999Y-21339164D01*
X20549999Y-21339164D02*
X20228571Y-22089164D01*
X20978571Y-21339164D02*
X21050000Y-21339164D01*
X21050000Y-21339164D02*
X21121428Y-21374878D01*
X21121428Y-21374878D02*
X21157143Y-21410592D01*
X21157143Y-21410592D02*
X21192857Y-21482021D01*
X21192857Y-21482021D02*
X21228571Y-21624878D01*
X21228571Y-21624878D02*
X21228571Y-21803450D01*
X21228571Y-21803450D02*
X21192857Y-21946307D01*
X21192857Y-21946307D02*
X21157143Y-22017735D01*
X21157143Y-22017735D02*
X21121428Y-22053450D01*
X21121428Y-22053450D02*
X21050000Y-22089164D01*
X21050000Y-22089164D02*
X20978571Y-22089164D01*
X20978571Y-22089164D02*
X20907143Y-22053450D01*
X20907143Y-22053450D02*
X20871428Y-22017735D01*
X20871428Y-22017735D02*
X20835714Y-21946307D01*
X20835714Y-21946307D02*
X20800000Y-21803450D01*
X20800000Y-21803450D02*
X20800000Y-21624878D01*
X20800000Y-21624878D02*
X20835714Y-21482021D01*
X20835714Y-21482021D02*
X20871428Y-21410592D01*
X20871428Y-21410592D02*
X20907143Y-21374878D01*
X20907143Y-21374878D02*
X20978571Y-21339164D01*
D11*
X23386999Y-22455724D02*
X23136999Y-22098581D01*
X22958428Y-22455724D02*
X22958428Y-21705724D01*
X22958428Y-21705724D02*
X23244142Y-21705724D01*
X23244142Y-21705724D02*
X23315571Y-21741438D01*
X23315571Y-21741438D02*
X23351285Y-21777152D01*
X23351285Y-21777152D02*
X23386999Y-21848581D01*
X23386999Y-21848581D02*
X23386999Y-21955724D01*
X23386999Y-21955724D02*
X23351285Y-22027152D01*
X23351285Y-22027152D02*
X23315571Y-22062867D01*
X23315571Y-22062867D02*
X23244142Y-22098581D01*
X23244142Y-22098581D02*
X22958428Y-22098581D01*
X24101285Y-22455724D02*
X23672714Y-22455724D01*
X23886999Y-22455724D02*
X23886999Y-21705724D01*
X23886999Y-21705724D02*
X23815571Y-21812867D01*
X23815571Y-21812867D02*
X23744142Y-21884295D01*
X23744142Y-21884295D02*
X23672714Y-21920010D01*
D10*
X10248844Y-2557068D02*
X10622639Y-3035503D01*
X10622639Y-3035503D02*
X10694758Y-3069801D01*
X10694758Y-3069801D02*
X10744889Y-3075957D01*
X10744889Y-3075957D02*
X10823163Y-3060124D01*
X10823163Y-3060124D02*
X10935736Y-2972172D01*
X10935736Y-2972172D02*
X10970035Y-2900053D01*
X10970035Y-2900053D02*
X10976190Y-2849922D01*
X10976190Y-2849922D02*
X10960358Y-2771648D01*
X10960358Y-2771648D02*
X10586563Y-2293213D01*
X11021911Y-2270336D02*
X11483657Y-2861345D01*
X11043899Y-2298480D02*
X11078197Y-2226361D01*
X11078197Y-2226361D02*
X11190770Y-2138409D01*
X11190770Y-2138409D02*
X11269045Y-2122576D01*
X11269045Y-2122576D02*
X11319176Y-2128732D01*
X11319176Y-2128732D02*
X11391295Y-2163030D01*
X11391295Y-2163030D02*
X11523222Y-2331890D01*
X11523222Y-2331890D02*
X11539055Y-2410164D01*
X11539055Y-2410164D02*
X11532899Y-2460295D01*
X11532899Y-2460295D02*
X11498601Y-2532414D01*
X11498601Y-2532414D02*
X11386028Y-2620366D01*
X11386028Y-2620366D02*
X11307753Y-2636199D01*
X8431811Y-4918783D02*
X8538229Y-4880962D01*
X8538229Y-4880962D02*
X8678945Y-4771023D01*
X8678945Y-4771023D02*
X8713244Y-4698904D01*
X8713244Y-4698904D02*
X8719399Y-4648773D01*
X8719399Y-4648773D02*
X8703566Y-4570498D01*
X8703566Y-4570498D02*
X8659591Y-4514212D01*
X8659591Y-4514212D02*
X8587472Y-4479913D01*
X8587472Y-4479913D02*
X8537340Y-4473758D01*
X8537340Y-4473758D02*
X8459066Y-4489590D01*
X8459066Y-4489590D02*
X8324505Y-4549399D01*
X8324505Y-4549399D02*
X8246231Y-4565231D01*
X8246231Y-4565231D02*
X8196100Y-4559076D01*
X8196100Y-4559076D02*
X8123981Y-4524777D01*
X8123981Y-4524777D02*
X8080005Y-4468491D01*
X8080005Y-4468491D02*
X8064172Y-4390216D01*
X8064172Y-4390216D02*
X8070328Y-4340085D01*
X8070328Y-4340085D02*
X8104626Y-4267966D01*
X8104626Y-4267966D02*
X8245342Y-4158027D01*
X8245342Y-4158027D02*
X8351760Y-4120206D01*
X8526775Y-3938147D02*
X9129237Y-4419216D01*
X9129237Y-4419216D02*
X8911992Y-3909116D01*
X8911992Y-3909116D02*
X9354383Y-4243313D01*
X9354383Y-4243313D02*
X9033353Y-3542365D01*
X9274332Y-3444736D02*
X9280487Y-3394605D01*
X9280487Y-3394605D02*
X9314786Y-3322486D01*
X9314786Y-3322486D02*
X9455502Y-3212546D01*
X9455502Y-3212546D02*
X9533776Y-3196714D01*
X9533776Y-3196714D02*
X9583908Y-3202869D01*
X9583908Y-3202869D02*
X9656027Y-3237168D01*
X9656027Y-3237168D02*
X9700002Y-3293454D01*
X9700002Y-3293454D02*
X9737823Y-3399872D01*
X9737823Y-3399872D02*
X9663959Y-4001446D01*
X9663959Y-4001446D02*
X10029821Y-3715603D01*
X18327857Y-1829164D02*
X17899286Y-1829164D01*
X18113571Y-1829164D02*
X18113571Y-1079164D01*
X18113571Y-1079164D02*
X18042143Y-1186307D01*
X18042143Y-1186307D02*
X17970714Y-1257735D01*
X17970714Y-1257735D02*
X17899286Y-1293450D01*
X18792143Y-1079164D02*
X18863572Y-1079164D01*
X18863572Y-1079164D02*
X18935000Y-1114878D01*
X18935000Y-1114878D02*
X18970715Y-1150592D01*
X18970715Y-1150592D02*
X19006429Y-1222021D01*
X19006429Y-1222021D02*
X19042143Y-1364878D01*
X19042143Y-1364878D02*
X19042143Y-1543450D01*
X19042143Y-1543450D02*
X19006429Y-1686307D01*
X19006429Y-1686307D02*
X18970715Y-1757735D01*
X18970715Y-1757735D02*
X18935000Y-1793450D01*
X18935000Y-1793450D02*
X18863572Y-1829164D01*
X18863572Y-1829164D02*
X18792143Y-1829164D01*
X18792143Y-1829164D02*
X18720715Y-1793450D01*
X18720715Y-1793450D02*
X18685000Y-1757735D01*
X18685000Y-1757735D02*
X18649286Y-1686307D01*
X18649286Y-1686307D02*
X18613572Y-1543450D01*
X18613572Y-1543450D02*
X18613572Y-1364878D01*
X18613572Y-1364878D02*
X18649286Y-1222021D01*
X18649286Y-1222021D02*
X18685000Y-1150592D01*
X18685000Y-1150592D02*
X18720715Y-1114878D01*
X18720715Y-1114878D02*
X18792143Y-1079164D01*
X19685001Y-1329164D02*
X19685001Y-1829164D01*
X19363572Y-1329164D02*
X19363572Y-1722021D01*
X19363572Y-1722021D02*
X19399286Y-1793450D01*
X19399286Y-1793450D02*
X19470715Y-1829164D01*
X19470715Y-1829164D02*
X19577858Y-1829164D01*
X19577858Y-1829164D02*
X19649286Y-1793450D01*
X19649286Y-1793450D02*
X19685001Y-1757735D01*
X19144999Y-3267735D02*
X19109285Y-3303450D01*
X19109285Y-3303450D02*
X19002142Y-3339164D01*
X19002142Y-3339164D02*
X18930714Y-3339164D01*
X18930714Y-3339164D02*
X18823571Y-3303450D01*
X18823571Y-3303450D02*
X18752142Y-3232021D01*
X18752142Y-3232021D02*
X18716428Y-3160592D01*
X18716428Y-3160592D02*
X18680714Y-3017735D01*
X18680714Y-3017735D02*
X18680714Y-2910592D01*
X18680714Y-2910592D02*
X18716428Y-2767735D01*
X18716428Y-2767735D02*
X18752142Y-2696307D01*
X18752142Y-2696307D02*
X18823571Y-2624878D01*
X18823571Y-2624878D02*
X18930714Y-2589164D01*
X18930714Y-2589164D02*
X19002142Y-2589164D01*
X19002142Y-2589164D02*
X19109285Y-2624878D01*
X19109285Y-2624878D02*
X19144999Y-2660592D01*
X19430714Y-2660592D02*
X19466428Y-2624878D01*
X19466428Y-2624878D02*
X19537857Y-2589164D01*
X19537857Y-2589164D02*
X19716428Y-2589164D01*
X19716428Y-2589164D02*
X19787857Y-2624878D01*
X19787857Y-2624878D02*
X19823571Y-2660592D01*
X19823571Y-2660592D02*
X19859285Y-2732021D01*
X19859285Y-2732021D02*
X19859285Y-2803450D01*
X19859285Y-2803450D02*
X19823571Y-2910592D01*
X19823571Y-2910592D02*
X19394999Y-3339164D01*
X19394999Y-3339164D02*
X19859285Y-3339164D01*
X59596429Y-7614164D02*
X59417857Y-7614164D01*
X59417857Y-7614164D02*
X59417857Y-6542735D01*
X59417857Y-6542735D02*
X59596429Y-6542735D01*
X60025000Y-7007021D02*
X60025000Y-7364164D01*
X59775000Y-6614164D02*
X60025000Y-7007021D01*
X60025000Y-7007021D02*
X60275000Y-6614164D01*
X60453571Y-7614164D02*
X60632143Y-7614164D01*
X60632143Y-7614164D02*
X60632143Y-6542735D01*
X60632143Y-6542735D02*
X60453571Y-6542735D01*
X63525000Y-7353450D02*
X63632143Y-7389164D01*
X63632143Y-7389164D02*
X63810714Y-7389164D01*
X63810714Y-7389164D02*
X63882143Y-7353450D01*
X63882143Y-7353450D02*
X63917857Y-7317735D01*
X63917857Y-7317735D02*
X63953571Y-7246307D01*
X63953571Y-7246307D02*
X63953571Y-7174878D01*
X63953571Y-7174878D02*
X63917857Y-7103450D01*
X63917857Y-7103450D02*
X63882143Y-7067735D01*
X63882143Y-7067735D02*
X63810714Y-7032021D01*
X63810714Y-7032021D02*
X63667857Y-6996307D01*
X63667857Y-6996307D02*
X63596428Y-6960592D01*
X63596428Y-6960592D02*
X63560714Y-6924878D01*
X63560714Y-6924878D02*
X63525000Y-6853450D01*
X63525000Y-6853450D02*
X63525000Y-6782021D01*
X63525000Y-6782021D02*
X63560714Y-6710592D01*
X63560714Y-6710592D02*
X63596428Y-6674878D01*
X63596428Y-6674878D02*
X63667857Y-6639164D01*
X63667857Y-6639164D02*
X63846428Y-6639164D01*
X63846428Y-6639164D02*
X63953571Y-6674878D01*
X64203571Y-6639164D02*
X64382143Y-7389164D01*
X64382143Y-7389164D02*
X64525000Y-6853450D01*
X64525000Y-6853450D02*
X64667857Y-7389164D01*
X64667857Y-7389164D02*
X64846429Y-6639164D01*
X65239286Y-6960592D02*
X65167857Y-6924878D01*
X65167857Y-6924878D02*
X65132143Y-6889164D01*
X65132143Y-6889164D02*
X65096429Y-6817735D01*
X65096429Y-6817735D02*
X65096429Y-6782021D01*
X65096429Y-6782021D02*
X65132143Y-6710592D01*
X65132143Y-6710592D02*
X65167857Y-6674878D01*
X65167857Y-6674878D02*
X65239286Y-6639164D01*
X65239286Y-6639164D02*
X65382143Y-6639164D01*
X65382143Y-6639164D02*
X65453572Y-6674878D01*
X65453572Y-6674878D02*
X65489286Y-6710592D01*
X65489286Y-6710592D02*
X65525000Y-6782021D01*
X65525000Y-6782021D02*
X65525000Y-6817735D01*
X65525000Y-6817735D02*
X65489286Y-6889164D01*
X65489286Y-6889164D02*
X65453572Y-6924878D01*
X65453572Y-6924878D02*
X65382143Y-6960592D01*
X65382143Y-6960592D02*
X65239286Y-6960592D01*
X65239286Y-6960592D02*
X65167857Y-6996307D01*
X65167857Y-6996307D02*
X65132143Y-7032021D01*
X65132143Y-7032021D02*
X65096429Y-7103450D01*
X65096429Y-7103450D02*
X65096429Y-7246307D01*
X65096429Y-7246307D02*
X65132143Y-7317735D01*
X65132143Y-7317735D02*
X65167857Y-7353450D01*
X65167857Y-7353450D02*
X65239286Y-7389164D01*
X65239286Y-7389164D02*
X65382143Y-7389164D01*
X65382143Y-7389164D02*
X65453572Y-7353450D01*
X65453572Y-7353450D02*
X65489286Y-7317735D01*
X65489286Y-7317735D02*
X65525000Y-7246307D01*
X65525000Y-7246307D02*
X65525000Y-7103450D01*
X65525000Y-7103450D02*
X65489286Y-7032021D01*
X65489286Y-7032021D02*
X65453572Y-6996307D01*
X65453572Y-6996307D02*
X65382143Y-6960592D01*
X53927571Y-7078164D02*
X53927571Y-7578164D01*
X53748999Y-6792450D02*
X53570428Y-7328164D01*
X53570428Y-7328164D02*
X54034713Y-7328164D01*
X54248999Y-6828164D02*
X54748999Y-6828164D01*
X54748999Y-6828164D02*
X54427571Y-7578164D01*
X55177571Y-6828164D02*
X55249000Y-6828164D01*
X55249000Y-6828164D02*
X55320428Y-6863878D01*
X55320428Y-6863878D02*
X55356143Y-6899592D01*
X55356143Y-6899592D02*
X55391857Y-6971021D01*
X55391857Y-6971021D02*
X55427571Y-7113878D01*
X55427571Y-7113878D02*
X55427571Y-7292450D01*
X55427571Y-7292450D02*
X55391857Y-7435307D01*
X55391857Y-7435307D02*
X55356143Y-7506735D01*
X55356143Y-7506735D02*
X55320428Y-7542450D01*
X55320428Y-7542450D02*
X55249000Y-7578164D01*
X55249000Y-7578164D02*
X55177571Y-7578164D01*
X55177571Y-7578164D02*
X55106143Y-7542450D01*
X55106143Y-7542450D02*
X55070428Y-7506735D01*
X55070428Y-7506735D02*
X55034714Y-7435307D01*
X55034714Y-7435307D02*
X54999000Y-7292450D01*
X54999000Y-7292450D02*
X54999000Y-7113878D01*
X54999000Y-7113878D02*
X55034714Y-6971021D01*
X55034714Y-6971021D02*
X55070428Y-6899592D01*
X55070428Y-6899592D02*
X55106143Y-6863878D01*
X55106143Y-6863878D02*
X55177571Y-6828164D01*
D11*
X58183999Y-4912724D02*
X57933999Y-4555581D01*
X57755428Y-4912724D02*
X57755428Y-4162724D01*
X57755428Y-4162724D02*
X58041142Y-4162724D01*
X58041142Y-4162724D02*
X58112571Y-4198438D01*
X58112571Y-4198438D02*
X58148285Y-4234152D01*
X58148285Y-4234152D02*
X58183999Y-4305581D01*
X58183999Y-4305581D02*
X58183999Y-4412724D01*
X58183999Y-4412724D02*
X58148285Y-4484152D01*
X58148285Y-4484152D02*
X58112571Y-4519867D01*
X58112571Y-4519867D02*
X58041142Y-4555581D01*
X58041142Y-4555581D02*
X57755428Y-4555581D01*
X58826857Y-4412724D02*
X58826857Y-4912724D01*
X58648285Y-4127010D02*
X58469714Y-4662724D01*
X58469714Y-4662724D02*
X58933999Y-4662724D01*
D10*
X49716714Y-7320164D02*
X49538142Y-7320164D01*
X49538142Y-7320164D02*
X49538142Y-6248735D01*
X49538142Y-6248735D02*
X49716714Y-6248735D01*
X49930999Y-6320164D02*
X50430999Y-7070164D01*
X50430999Y-6320164D02*
X49930999Y-7070164D01*
X50645285Y-7320164D02*
X50823857Y-7320164D01*
X50823857Y-7320164D02*
X50823857Y-6248735D01*
X50823857Y-6248735D02*
X50645285Y-6248735D01*
X46768000Y-7034450D02*
X46875143Y-7070164D01*
X46875143Y-7070164D02*
X47053714Y-7070164D01*
X47053714Y-7070164D02*
X47125143Y-7034450D01*
X47125143Y-7034450D02*
X47160857Y-6998735D01*
X47160857Y-6998735D02*
X47196571Y-6927307D01*
X47196571Y-6927307D02*
X47196571Y-6855878D01*
X47196571Y-6855878D02*
X47160857Y-6784450D01*
X47160857Y-6784450D02*
X47125143Y-6748735D01*
X47125143Y-6748735D02*
X47053714Y-6713021D01*
X47053714Y-6713021D02*
X46910857Y-6677307D01*
X46910857Y-6677307D02*
X46839428Y-6641592D01*
X46839428Y-6641592D02*
X46803714Y-6605878D01*
X46803714Y-6605878D02*
X46768000Y-6534450D01*
X46768000Y-6534450D02*
X46768000Y-6463021D01*
X46768000Y-6463021D02*
X46803714Y-6391592D01*
X46803714Y-6391592D02*
X46839428Y-6355878D01*
X46839428Y-6355878D02*
X46910857Y-6320164D01*
X46910857Y-6320164D02*
X47089428Y-6320164D01*
X47089428Y-6320164D02*
X47196571Y-6355878D01*
X47446571Y-6320164D02*
X47625143Y-7070164D01*
X47625143Y-7070164D02*
X47768000Y-6534450D01*
X47768000Y-6534450D02*
X47910857Y-7070164D01*
X47910857Y-7070164D02*
X48089429Y-6320164D01*
X48303714Y-6320164D02*
X48803714Y-6320164D01*
X48803714Y-6320164D02*
X48482286Y-7070164D01*
X42767429Y-21290164D02*
X42588857Y-21290164D01*
X42588857Y-21290164D02*
X42588857Y-20218735D01*
X42588857Y-20218735D02*
X42767429Y-20218735D01*
X43017429Y-20825878D02*
X43374572Y-20825878D01*
X42946000Y-21040164D02*
X43196000Y-20290164D01*
X43196000Y-20290164D02*
X43446000Y-21040164D01*
X43624571Y-21290164D02*
X43803143Y-21290164D01*
X43803143Y-21290164D02*
X43803143Y-20218735D01*
X43803143Y-20218735D02*
X43624571Y-20218735D01*
X41942000Y-22655450D02*
X42049143Y-22691164D01*
X42049143Y-22691164D02*
X42227714Y-22691164D01*
X42227714Y-22691164D02*
X42299143Y-22655450D01*
X42299143Y-22655450D02*
X42334857Y-22619735D01*
X42334857Y-22619735D02*
X42370571Y-22548307D01*
X42370571Y-22548307D02*
X42370571Y-22476878D01*
X42370571Y-22476878D02*
X42334857Y-22405450D01*
X42334857Y-22405450D02*
X42299143Y-22369735D01*
X42299143Y-22369735D02*
X42227714Y-22334021D01*
X42227714Y-22334021D02*
X42084857Y-22298307D01*
X42084857Y-22298307D02*
X42013428Y-22262592D01*
X42013428Y-22262592D02*
X41977714Y-22226878D01*
X41977714Y-22226878D02*
X41942000Y-22155450D01*
X41942000Y-22155450D02*
X41942000Y-22084021D01*
X41942000Y-22084021D02*
X41977714Y-22012592D01*
X41977714Y-22012592D02*
X42013428Y-21976878D01*
X42013428Y-21976878D02*
X42084857Y-21941164D01*
X42084857Y-21941164D02*
X42263428Y-21941164D01*
X42263428Y-21941164D02*
X42370571Y-21976878D01*
X42620571Y-21941164D02*
X42799143Y-22691164D01*
X42799143Y-22691164D02*
X42942000Y-22155450D01*
X42942000Y-22155450D02*
X43084857Y-22691164D01*
X43084857Y-22691164D02*
X43263429Y-21941164D01*
X43906286Y-21941164D02*
X43549143Y-21941164D01*
X43549143Y-21941164D02*
X43513429Y-22298307D01*
X43513429Y-22298307D02*
X43549143Y-22262592D01*
X43549143Y-22262592D02*
X43620572Y-22226878D01*
X43620572Y-22226878D02*
X43799143Y-22226878D01*
X43799143Y-22226878D02*
X43870572Y-22262592D01*
X43870572Y-22262592D02*
X43906286Y-22298307D01*
X43906286Y-22298307D02*
X43942000Y-22369735D01*
X43942000Y-22369735D02*
X43942000Y-22548307D01*
X43942000Y-22548307D02*
X43906286Y-22619735D01*
X43906286Y-22619735D02*
X43870572Y-22655450D01*
X43870572Y-22655450D02*
X43799143Y-22691164D01*
X43799143Y-22691164D02*
X43620572Y-22691164D01*
X43620572Y-22691164D02*
X43549143Y-22655450D01*
X43549143Y-22655450D02*
X43513429Y-22619735D01*
X27847571Y-18181164D02*
X27847571Y-18681164D01*
X27668999Y-17895450D02*
X27490428Y-18431164D01*
X27490428Y-18431164D02*
X27954713Y-18431164D01*
X28168999Y-17931164D02*
X28668999Y-17931164D01*
X28668999Y-17931164D02*
X28347571Y-18681164D01*
X29097571Y-17931164D02*
X29169000Y-17931164D01*
X29169000Y-17931164D02*
X29240428Y-17966878D01*
X29240428Y-17966878D02*
X29276143Y-18002592D01*
X29276143Y-18002592D02*
X29311857Y-18074021D01*
X29311857Y-18074021D02*
X29347571Y-18216878D01*
X29347571Y-18216878D02*
X29347571Y-18395450D01*
X29347571Y-18395450D02*
X29311857Y-18538307D01*
X29311857Y-18538307D02*
X29276143Y-18609735D01*
X29276143Y-18609735D02*
X29240428Y-18645450D01*
X29240428Y-18645450D02*
X29169000Y-18681164D01*
X29169000Y-18681164D02*
X29097571Y-18681164D01*
X29097571Y-18681164D02*
X29026143Y-18645450D01*
X29026143Y-18645450D02*
X28990428Y-18609735D01*
X28990428Y-18609735D02*
X28954714Y-18538307D01*
X28954714Y-18538307D02*
X28919000Y-18395450D01*
X28919000Y-18395450D02*
X28919000Y-18216878D01*
X28919000Y-18216878D02*
X28954714Y-18074021D01*
X28954714Y-18074021D02*
X28990428Y-18002592D01*
X28990428Y-18002592D02*
X29026143Y-17966878D01*
X29026143Y-17966878D02*
X29097571Y-17931164D01*
D11*
X28293999Y-17539724D02*
X28043999Y-17182581D01*
X27865428Y-17539724D02*
X27865428Y-16789724D01*
X27865428Y-16789724D02*
X28151142Y-16789724D01*
X28151142Y-16789724D02*
X28222571Y-16825438D01*
X28222571Y-16825438D02*
X28258285Y-16861152D01*
X28258285Y-16861152D02*
X28293999Y-16932581D01*
X28293999Y-16932581D02*
X28293999Y-17039724D01*
X28293999Y-17039724D02*
X28258285Y-17111152D01*
X28258285Y-17111152D02*
X28222571Y-17146867D01*
X28222571Y-17146867D02*
X28151142Y-17182581D01*
X28151142Y-17182581D02*
X27865428Y-17182581D01*
X28543999Y-16789724D02*
X29008285Y-16789724D01*
X29008285Y-16789724D02*
X28758285Y-17075438D01*
X28758285Y-17075438D02*
X28865428Y-17075438D01*
X28865428Y-17075438D02*
X28936857Y-17111152D01*
X28936857Y-17111152D02*
X28972571Y-17146867D01*
X28972571Y-17146867D02*
X29008285Y-17218295D01*
X29008285Y-17218295D02*
X29008285Y-17396867D01*
X29008285Y-17396867D02*
X28972571Y-17468295D01*
X28972571Y-17468295D02*
X28936857Y-17504010D01*
X28936857Y-17504010D02*
X28865428Y-17539724D01*
X28865428Y-17539724D02*
X28651142Y-17539724D01*
X28651142Y-17539724D02*
X28579714Y-17504010D01*
X28579714Y-17504010D02*
X28543999Y-17468295D01*
D10*
X23777444Y-16223980D02*
X23360562Y-16096463D01*
X23439725Y-16487835D02*
X22977979Y-15896827D01*
X22977979Y-15896827D02*
X23203125Y-15720924D01*
X23203125Y-15720924D02*
X23281399Y-15705091D01*
X23281399Y-15705091D02*
X23331531Y-15711246D01*
X23331531Y-15711246D02*
X23403650Y-15745545D01*
X23403650Y-15745545D02*
X23469613Y-15829975D01*
X23469613Y-15829975D02*
X23485446Y-15908249D01*
X23485446Y-15908249D02*
X23479291Y-15958380D01*
X23479291Y-15958380D02*
X23444992Y-16030499D01*
X23444992Y-16030499D02*
X23219846Y-16206403D01*
X24030733Y-16026089D02*
X23722903Y-15632084D01*
X23568987Y-15435081D02*
X23562832Y-15485212D01*
X23562832Y-15485212D02*
X23612963Y-15491367D01*
X23612963Y-15491367D02*
X23619118Y-15441236D01*
X23619118Y-15441236D02*
X23568987Y-15435081D01*
X23568987Y-15435081D02*
X23612963Y-15491367D01*
X24257624Y-15214313D02*
X24631419Y-15692748D01*
X24631419Y-15692748D02*
X24647251Y-15771023D01*
X24647251Y-15771023D02*
X24641096Y-15821154D01*
X24641096Y-15821154D02*
X24606797Y-15893273D01*
X24606797Y-15893273D02*
X24522368Y-15959237D01*
X24522368Y-15959237D02*
X24444093Y-15975069D01*
X24543467Y-15580175D02*
X24509169Y-15652294D01*
X24509169Y-15652294D02*
X24396596Y-15740246D01*
X24396596Y-15740246D02*
X24318321Y-15756079D01*
X24318321Y-15756079D02*
X24268190Y-15749923D01*
X24268190Y-15749923D02*
X24196071Y-15715625D01*
X24196071Y-15715625D02*
X24064144Y-15546765D01*
X24064144Y-15546765D02*
X24048311Y-15468491D01*
X24048311Y-15468491D02*
X24054466Y-15418360D01*
X24054466Y-15418360D02*
X24088765Y-15346241D01*
X24088765Y-15346241D02*
X24201338Y-15258289D01*
X24201338Y-15258289D02*
X24279612Y-15242456D01*
X24846887Y-15388440D02*
X24385141Y-14797432D01*
X25100176Y-15190549D02*
X24858309Y-14880973D01*
X24858309Y-14880973D02*
X24786190Y-14846674D01*
X24786190Y-14846674D02*
X24707916Y-14862507D01*
X24707916Y-14862507D02*
X24623486Y-14928471D01*
X24623486Y-14928471D02*
X24589188Y-15000590D01*
X24589188Y-15000590D02*
X24583032Y-15050721D01*
X24989348Y-14642628D02*
X25214494Y-14466725D01*
X24919862Y-14379662D02*
X25315645Y-14886240D01*
X25315645Y-14886240D02*
X25387764Y-14920539D01*
X25387764Y-14920539D02*
X25466038Y-14904706D01*
X25466038Y-14904706D02*
X25522325Y-14860730D01*
X20623811Y-19015783D02*
X20730229Y-18977962D01*
X20730229Y-18977962D02*
X20870945Y-18868023D01*
X20870945Y-18868023D02*
X20905244Y-18795904D01*
X20905244Y-18795904D02*
X20911399Y-18745773D01*
X20911399Y-18745773D02*
X20895566Y-18667498D01*
X20895566Y-18667498D02*
X20851591Y-18611212D01*
X20851591Y-18611212D02*
X20779472Y-18576913D01*
X20779472Y-18576913D02*
X20729340Y-18570758D01*
X20729340Y-18570758D02*
X20651066Y-18586590D01*
X20651066Y-18586590D02*
X20516505Y-18646399D01*
X20516505Y-18646399D02*
X20438231Y-18662231D01*
X20438231Y-18662231D02*
X20388100Y-18656076D01*
X20388100Y-18656076D02*
X20315981Y-18621777D01*
X20315981Y-18621777D02*
X20272005Y-18565491D01*
X20272005Y-18565491D02*
X20256172Y-18487216D01*
X20256172Y-18487216D02*
X20262328Y-18437085D01*
X20262328Y-18437085D02*
X20296626Y-18364966D01*
X20296626Y-18364966D02*
X20437342Y-18255027D01*
X20437342Y-18255027D02*
X20543760Y-18217206D01*
X20718775Y-18035147D02*
X21321237Y-18516216D01*
X21321237Y-18516216D02*
X21103992Y-18006116D01*
X21103992Y-18006116D02*
X21546383Y-18340313D01*
X21546383Y-18340313D02*
X21225353Y-17639365D01*
X21857704Y-17462573D02*
X22165535Y-17856579D01*
X21541084Y-17347367D02*
X21730187Y-17879455D01*
X21730187Y-17879455D02*
X22096049Y-17593612D01*
X4502768Y-17389571D02*
X4202573Y-17624109D01*
X4202573Y-17624109D02*
X3710044Y-16993700D01*
X4929606Y-17007745D02*
X4893021Y-17084672D01*
X4893021Y-17084672D02*
X4772943Y-17178487D01*
X4772943Y-17178487D02*
X4689450Y-17195376D01*
X4689450Y-17195376D02*
X4612523Y-17158790D01*
X4612523Y-17158790D02*
X4424893Y-16918635D01*
X4424893Y-16918635D02*
X4408005Y-16835142D01*
X4408005Y-16835142D02*
X4444590Y-16758215D01*
X4444590Y-16758215D02*
X4564668Y-16664400D01*
X4564668Y-16664400D02*
X4648161Y-16647512D01*
X4648161Y-16647512D02*
X4725088Y-16684097D01*
X4725088Y-16684097D02*
X4771995Y-16744136D01*
X4771995Y-16744136D02*
X4518708Y-17038713D01*
X4834843Y-16453316D02*
X5074999Y-16265686D01*
X5253254Y-16803227D02*
X4831086Y-16262877D01*
X4831086Y-16262877D02*
X4814198Y-16179384D01*
X4814198Y-16179384D02*
X4850783Y-16102457D01*
X4850783Y-16102457D02*
X4910822Y-16055550D01*
X5195077Y-16171871D02*
X5435232Y-15984241D01*
X5120959Y-15891373D02*
X5543126Y-16431724D01*
X5543126Y-16431724D02*
X5620053Y-16468309D01*
X5620053Y-16468309D02*
X5703546Y-16451421D01*
X5703546Y-16451421D02*
X5763585Y-16404513D01*
X3312051Y-16279178D02*
X3425563Y-16238837D01*
X3425563Y-16238837D02*
X3575660Y-16121568D01*
X3575660Y-16121568D02*
X3612245Y-16044641D01*
X3612245Y-16044641D02*
X3618811Y-15991167D01*
X3618811Y-15991167D02*
X3601923Y-15907675D01*
X3601923Y-15907675D02*
X3555015Y-15847636D01*
X3555015Y-15847636D02*
X3478088Y-15811051D01*
X3478088Y-15811051D02*
X3424615Y-15804485D01*
X3424615Y-15804485D02*
X3341123Y-15821373D01*
X3341123Y-15821373D02*
X3197591Y-15885169D01*
X3197591Y-15885169D02*
X3114098Y-15902057D01*
X3114098Y-15902057D02*
X3060625Y-15895491D01*
X3060625Y-15895491D02*
X2983698Y-15858906D01*
X2983698Y-15858906D02*
X2936791Y-15798867D01*
X2936791Y-15798867D02*
X2919902Y-15715374D01*
X2919902Y-15715374D02*
X2926468Y-15661901D01*
X2926468Y-15661901D02*
X2963053Y-15584974D01*
X2963053Y-15584974D02*
X3113151Y-15467705D01*
X3113151Y-15467705D02*
X3226663Y-15427363D01*
X3413345Y-15233167D02*
X4055972Y-15746307D01*
X4055972Y-15746307D02*
X3824243Y-15202200D01*
X3824243Y-15202200D02*
X4296127Y-15558677D01*
X4296127Y-15558677D02*
X3953696Y-14811000D01*
X5016595Y-14995786D02*
X4656361Y-15277232D01*
X4836478Y-15136509D02*
X4343949Y-14506100D01*
X4343949Y-14506100D02*
X4354271Y-14643066D01*
X4354271Y-14643066D02*
X4341140Y-14750013D01*
X4341140Y-14750013D02*
X4304555Y-14826940D01*
X4539164Y-21432142D02*
X3789164Y-21432142D01*
X4467735Y-20646428D02*
X4503450Y-20682142D01*
X4503450Y-20682142D02*
X4539164Y-20789285D01*
X4539164Y-20789285D02*
X4539164Y-20860713D01*
X4539164Y-20860713D02*
X4503450Y-20967856D01*
X4503450Y-20967856D02*
X4432021Y-21039285D01*
X4432021Y-21039285D02*
X4360592Y-21074999D01*
X4360592Y-21074999D02*
X4217735Y-21110713D01*
X4217735Y-21110713D02*
X4110592Y-21110713D01*
X4110592Y-21110713D02*
X3967735Y-21074999D01*
X3967735Y-21074999D02*
X3896307Y-21039285D01*
X3896307Y-21039285D02*
X3824878Y-20967856D01*
X3824878Y-20967856D02*
X3789164Y-20860713D01*
X3789164Y-20860713D02*
X3789164Y-20789285D01*
X3789164Y-20789285D02*
X3824878Y-20682142D01*
X3824878Y-20682142D02*
X3860592Y-20646428D01*
X4539164Y-19932142D02*
X4539164Y-20360713D01*
X4539164Y-20146428D02*
X3789164Y-20146428D01*
X3789164Y-20146428D02*
X3896307Y-20217856D01*
X3896307Y-20217856D02*
X3967735Y-20289285D01*
X3967735Y-20289285D02*
X4003450Y-20360713D01*
X29357142Y-23739164D02*
X29107142Y-23382021D01*
X28928571Y-23739164D02*
X28928571Y-22989164D01*
X28928571Y-22989164D02*
X29214285Y-22989164D01*
X29214285Y-22989164D02*
X29285714Y-23024878D01*
X29285714Y-23024878D02*
X29321428Y-23060592D01*
X29321428Y-23060592D02*
X29357142Y-23132021D01*
X29357142Y-23132021D02*
X29357142Y-23239164D01*
X29357142Y-23239164D02*
X29321428Y-23310592D01*
X29321428Y-23310592D02*
X29285714Y-23346307D01*
X29285714Y-23346307D02*
X29214285Y-23382021D01*
X29214285Y-23382021D02*
X28928571Y-23382021D01*
X30000000Y-23739164D02*
X30000000Y-23346307D01*
X30000000Y-23346307D02*
X29964285Y-23274878D01*
X29964285Y-23274878D02*
X29892857Y-23239164D01*
X29892857Y-23239164D02*
X29750000Y-23239164D01*
X29750000Y-23239164D02*
X29678571Y-23274878D01*
X30000000Y-23703450D02*
X29928571Y-23739164D01*
X29928571Y-23739164D02*
X29750000Y-23739164D01*
X29750000Y-23739164D02*
X29678571Y-23703450D01*
X29678571Y-23703450D02*
X29642857Y-23632021D01*
X29642857Y-23632021D02*
X29642857Y-23560592D01*
X29642857Y-23560592D02*
X29678571Y-23489164D01*
X29678571Y-23489164D02*
X29750000Y-23453450D01*
X29750000Y-23453450D02*
X29928571Y-23453450D01*
X29928571Y-23453450D02*
X30000000Y-23417735D01*
X30321428Y-23703450D02*
X30392856Y-23739164D01*
X30392856Y-23739164D02*
X30535713Y-23739164D01*
X30535713Y-23739164D02*
X30607142Y-23703450D01*
X30607142Y-23703450D02*
X30642856Y-23632021D01*
X30642856Y-23632021D02*
X30642856Y-23596307D01*
X30642856Y-23596307D02*
X30607142Y-23524878D01*
X30607142Y-23524878D02*
X30535713Y-23489164D01*
X30535713Y-23489164D02*
X30428571Y-23489164D01*
X30428571Y-23489164D02*
X30357142Y-23453450D01*
X30357142Y-23453450D02*
X30321428Y-23382021D01*
X30321428Y-23382021D02*
X30321428Y-23346307D01*
X30321428Y-23346307D02*
X30357142Y-23274878D01*
X30357142Y-23274878D02*
X30428571Y-23239164D01*
X30428571Y-23239164D02*
X30535713Y-23239164D01*
X30535713Y-23239164D02*
X30607142Y-23274878D01*
X30964285Y-23239164D02*
X30964285Y-23989164D01*
X30964285Y-23274878D02*
X31035714Y-23239164D01*
X31035714Y-23239164D02*
X31178571Y-23239164D01*
X31178571Y-23239164D02*
X31249999Y-23274878D01*
X31249999Y-23274878D02*
X31285714Y-23310592D01*
X31285714Y-23310592D02*
X31321428Y-23382021D01*
X31321428Y-23382021D02*
X31321428Y-23596307D01*
X31321428Y-23596307D02*
X31285714Y-23667735D01*
X31285714Y-23667735D02*
X31249999Y-23703450D01*
X31249999Y-23703450D02*
X31178571Y-23739164D01*
X31178571Y-23739164D02*
X31035714Y-23739164D01*
X31035714Y-23739164D02*
X30964285Y-23703450D01*
X31642856Y-23739164D02*
X31642856Y-22989164D01*
X31642856Y-23274878D02*
X31714285Y-23239164D01*
X31714285Y-23239164D02*
X31857142Y-23239164D01*
X31857142Y-23239164D02*
X31928570Y-23274878D01*
X31928570Y-23274878D02*
X31964285Y-23310592D01*
X31964285Y-23310592D02*
X31999999Y-23382021D01*
X31999999Y-23382021D02*
X31999999Y-23596307D01*
X31999999Y-23596307D02*
X31964285Y-23667735D01*
X31964285Y-23667735D02*
X31928570Y-23703450D01*
X31928570Y-23703450D02*
X31857142Y-23739164D01*
X31857142Y-23739164D02*
X31714285Y-23739164D01*
X31714285Y-23739164D02*
X31642856Y-23703450D01*
X32607141Y-23703450D02*
X32535713Y-23739164D01*
X32535713Y-23739164D02*
X32392856Y-23739164D01*
X32392856Y-23739164D02*
X32321427Y-23703450D01*
X32321427Y-23703450D02*
X32285713Y-23632021D01*
X32285713Y-23632021D02*
X32285713Y-23346307D01*
X32285713Y-23346307D02*
X32321427Y-23274878D01*
X32321427Y-23274878D02*
X32392856Y-23239164D01*
X32392856Y-23239164D02*
X32535713Y-23239164D01*
X32535713Y-23239164D02*
X32607141Y-23274878D01*
X32607141Y-23274878D02*
X32642856Y-23346307D01*
X32642856Y-23346307D02*
X32642856Y-23417735D01*
X32642856Y-23417735D02*
X32285713Y-23489164D01*
X32964284Y-23739164D02*
X32964284Y-23239164D01*
X32964284Y-23382021D02*
X32999998Y-23310592D01*
X32999998Y-23310592D02*
X33035713Y-23274878D01*
X33035713Y-23274878D02*
X33107141Y-23239164D01*
X33107141Y-23239164D02*
X33178570Y-23239164D01*
X33428570Y-23739164D02*
X33428570Y-23239164D01*
X33428570Y-23382021D02*
X33464284Y-23310592D01*
X33464284Y-23310592D02*
X33499999Y-23274878D01*
X33499999Y-23274878D02*
X33571427Y-23239164D01*
X33571427Y-23239164D02*
X33642856Y-23239164D01*
X33821427Y-23239164D02*
X33999999Y-23739164D01*
X34178570Y-23239164D02*
X33999999Y-23739164D01*
X33999999Y-23739164D02*
X33928570Y-23917735D01*
X33928570Y-23917735D02*
X33892856Y-23953450D01*
X33892856Y-23953450D02*
X33821427Y-23989164D01*
X34285714Y-23810592D02*
X34857142Y-23810592D01*
X34964285Y-22989164D02*
X35464285Y-22989164D01*
X35464285Y-22989164D02*
X34964285Y-23739164D01*
X34964285Y-23739164D02*
X35464285Y-23739164D01*
X36035714Y-23703450D02*
X35964286Y-23739164D01*
X35964286Y-23739164D02*
X35821429Y-23739164D01*
X35821429Y-23739164D02*
X35750000Y-23703450D01*
X35750000Y-23703450D02*
X35714286Y-23632021D01*
X35714286Y-23632021D02*
X35714286Y-23346307D01*
X35714286Y-23346307D02*
X35750000Y-23274878D01*
X35750000Y-23274878D02*
X35821429Y-23239164D01*
X35821429Y-23239164D02*
X35964286Y-23239164D01*
X35964286Y-23239164D02*
X36035714Y-23274878D01*
X36035714Y-23274878D02*
X36071429Y-23346307D01*
X36071429Y-23346307D02*
X36071429Y-23417735D01*
X36071429Y-23417735D02*
X35714286Y-23489164D01*
X36392857Y-23739164D02*
X36392857Y-23239164D01*
X36392857Y-23382021D02*
X36428571Y-23310592D01*
X36428571Y-23310592D02*
X36464286Y-23274878D01*
X36464286Y-23274878D02*
X36535714Y-23239164D01*
X36535714Y-23239164D02*
X36607143Y-23239164D01*
X36964286Y-23739164D02*
X36892857Y-23703450D01*
X36892857Y-23703450D02*
X36857143Y-23667735D01*
X36857143Y-23667735D02*
X36821429Y-23596307D01*
X36821429Y-23596307D02*
X36821429Y-23382021D01*
X36821429Y-23382021D02*
X36857143Y-23310592D01*
X36857143Y-23310592D02*
X36892857Y-23274878D01*
X36892857Y-23274878D02*
X36964286Y-23239164D01*
X36964286Y-23239164D02*
X37071429Y-23239164D01*
X37071429Y-23239164D02*
X37142857Y-23274878D01*
X37142857Y-23274878D02*
X37178572Y-23310592D01*
X37178572Y-23310592D02*
X37214286Y-23382021D01*
X37214286Y-23382021D02*
X37214286Y-23596307D01*
X37214286Y-23596307D02*
X37178572Y-23667735D01*
X37178572Y-23667735D02*
X37142857Y-23703450D01*
X37142857Y-23703450D02*
X37071429Y-23739164D01*
X37071429Y-23739164D02*
X36964286Y-23739164D01*
X37357143Y-23810592D02*
X37928571Y-23810592D01*
X38071429Y-23060592D02*
X38107143Y-23024878D01*
X38107143Y-23024878D02*
X38178572Y-22989164D01*
X38178572Y-22989164D02*
X38357143Y-22989164D01*
X38357143Y-22989164D02*
X38428572Y-23024878D01*
X38428572Y-23024878D02*
X38464286Y-23060592D01*
X38464286Y-23060592D02*
X38500000Y-23132021D01*
X38500000Y-23132021D02*
X38500000Y-23203450D01*
X38500000Y-23203450D02*
X38464286Y-23310592D01*
X38464286Y-23310592D02*
X38035714Y-23739164D01*
X38035714Y-23739164D02*
X38500000Y-23739164D01*
X38750000Y-22989164D02*
X38928572Y-23739164D01*
X38928572Y-23739164D02*
X39071429Y-23203450D01*
X39071429Y-23203450D02*
X39214286Y-23739164D01*
X39214286Y-23739164D02*
X39392858Y-22989164D01*
X26836255Y-801414D02*
X26836255Y-1408557D01*
X26836255Y-1408557D02*
X26871969Y-1479985D01*
X26871969Y-1479985D02*
X26907684Y-1515700D01*
X26907684Y-1515700D02*
X26979112Y-1551414D01*
X26979112Y-1551414D02*
X27121969Y-1551414D01*
X27121969Y-1551414D02*
X27193398Y-1515700D01*
X27193398Y-1515700D02*
X27229112Y-1479985D01*
X27229112Y-1479985D02*
X27264826Y-1408557D01*
X27264826Y-1408557D02*
X27264826Y-801414D01*
X27586255Y-1515700D02*
X27693398Y-1551414D01*
X27693398Y-1551414D02*
X27871969Y-1551414D01*
X27871969Y-1551414D02*
X27943398Y-1515700D01*
X27943398Y-1515700D02*
X27979112Y-1479985D01*
X27979112Y-1479985D02*
X28014826Y-1408557D01*
X28014826Y-1408557D02*
X28014826Y-1337128D01*
X28014826Y-1337128D02*
X27979112Y-1265700D01*
X27979112Y-1265700D02*
X27943398Y-1229985D01*
X27943398Y-1229985D02*
X27871969Y-1194271D01*
X27871969Y-1194271D02*
X27729112Y-1158557D01*
X27729112Y-1158557D02*
X27657683Y-1122842D01*
X27657683Y-1122842D02*
X27621969Y-1087128D01*
X27621969Y-1087128D02*
X27586255Y-1015700D01*
X27586255Y-1015700D02*
X27586255Y-944271D01*
X27586255Y-944271D02*
X27621969Y-872842D01*
X27621969Y-872842D02*
X27657683Y-837128D01*
X27657683Y-837128D02*
X27729112Y-801414D01*
X27729112Y-801414D02*
X27907683Y-801414D01*
X27907683Y-801414D02*
X28014826Y-837128D01*
X28586255Y-1158557D02*
X28693398Y-1194271D01*
X28693398Y-1194271D02*
X28729112Y-1229985D01*
X28729112Y-1229985D02*
X28764826Y-1301414D01*
X28764826Y-1301414D02*
X28764826Y-1408557D01*
X28764826Y-1408557D02*
X28729112Y-1479985D01*
X28729112Y-1479985D02*
X28693398Y-1515700D01*
X28693398Y-1515700D02*
X28621969Y-1551414D01*
X28621969Y-1551414D02*
X28336255Y-1551414D01*
X28336255Y-1551414D02*
X28336255Y-801414D01*
X28336255Y-801414D02*
X28586255Y-801414D01*
X28586255Y-801414D02*
X28657684Y-837128D01*
X28657684Y-837128D02*
X28693398Y-872842D01*
X28693398Y-872842D02*
X28729112Y-944271D01*
X28729112Y-944271D02*
X28729112Y-1015700D01*
X28729112Y-1015700D02*
X28693398Y-1087128D01*
X28693398Y-1087128D02*
X28657684Y-1122842D01*
X28657684Y-1122842D02*
X28586255Y-1158557D01*
X28586255Y-1158557D02*
X28336255Y-1158557D01*
X64685300Y-10066541D02*
X64649585Y-10173684D01*
X64649585Y-10173684D02*
X64649585Y-10352255D01*
X64649585Y-10352255D02*
X64685300Y-10423684D01*
X64685300Y-10423684D02*
X64721014Y-10459398D01*
X64721014Y-10459398D02*
X64792442Y-10495112D01*
X64792442Y-10495112D02*
X64863871Y-10495112D01*
X64863871Y-10495112D02*
X64935300Y-10459398D01*
X64935300Y-10459398D02*
X64971014Y-10423684D01*
X64971014Y-10423684D02*
X65006728Y-10352255D01*
X65006728Y-10352255D02*
X65042442Y-10209398D01*
X65042442Y-10209398D02*
X65078157Y-10137969D01*
X65078157Y-10137969D02*
X65113871Y-10102255D01*
X65113871Y-10102255D02*
X65185300Y-10066541D01*
X65185300Y-10066541D02*
X65256728Y-10066541D01*
X65256728Y-10066541D02*
X65328157Y-10102255D01*
X65328157Y-10102255D02*
X65363871Y-10137969D01*
X65363871Y-10137969D02*
X65399585Y-10209398D01*
X65399585Y-10209398D02*
X65399585Y-10387969D01*
X65399585Y-10387969D02*
X65363871Y-10495112D01*
X64649585Y-10816541D02*
X65399585Y-10816541D01*
X65399585Y-10816541D02*
X65399585Y-10995112D01*
X65399585Y-10995112D02*
X65363871Y-11102255D01*
X65363871Y-11102255D02*
X65292442Y-11173684D01*
X65292442Y-11173684D02*
X65221014Y-11209398D01*
X65221014Y-11209398D02*
X65078157Y-11245112D01*
X65078157Y-11245112D02*
X64971014Y-11245112D01*
X64971014Y-11245112D02*
X64828157Y-11209398D01*
X64828157Y-11209398D02*
X64756728Y-11173684D01*
X64756728Y-11173684D02*
X64685300Y-11102255D01*
X64685300Y-11102255D02*
X64649585Y-10995112D01*
X64649585Y-10995112D02*
X64649585Y-10816541D01*
X64578157Y-11387970D02*
X64578157Y-11959398D01*
X64721014Y-12566541D02*
X64685300Y-12530827D01*
X64685300Y-12530827D02*
X64649585Y-12423684D01*
X64649585Y-12423684D02*
X64649585Y-12352256D01*
X64649585Y-12352256D02*
X64685300Y-12245113D01*
X64685300Y-12245113D02*
X64756728Y-12173684D01*
X64756728Y-12173684D02*
X64828157Y-12137970D01*
X64828157Y-12137970D02*
X64971014Y-12102256D01*
X64971014Y-12102256D02*
X65078157Y-12102256D01*
X65078157Y-12102256D02*
X65221014Y-12137970D01*
X65221014Y-12137970D02*
X65292442Y-12173684D01*
X65292442Y-12173684D02*
X65363871Y-12245113D01*
X65363871Y-12245113D02*
X65399585Y-12352256D01*
X65399585Y-12352256D02*
X65399585Y-12423684D01*
X65399585Y-12423684D02*
X65363871Y-12530827D01*
X65363871Y-12530827D02*
X65328157Y-12566541D01*
X64863871Y-12852256D02*
X64863871Y-13209399D01*
X64649585Y-12780827D02*
X65399585Y-13030827D01*
X65399585Y-13030827D02*
X64649585Y-13280827D01*
X64649585Y-13959398D02*
X65006728Y-13709398D01*
X64649585Y-13530827D02*
X65399585Y-13530827D01*
X65399585Y-13530827D02*
X65399585Y-13816541D01*
X65399585Y-13816541D02*
X65363871Y-13887970D01*
X65363871Y-13887970D02*
X65328157Y-13923684D01*
X65328157Y-13923684D02*
X65256728Y-13959398D01*
X65256728Y-13959398D02*
X65149585Y-13959398D01*
X65149585Y-13959398D02*
X65078157Y-13923684D01*
X65078157Y-13923684D02*
X65042442Y-13887970D01*
X65042442Y-13887970D02*
X65006728Y-13816541D01*
X65006728Y-13816541D02*
X65006728Y-13530827D01*
X64649585Y-14280827D02*
X65399585Y-14280827D01*
X65399585Y-14280827D02*
X65399585Y-14459398D01*
X65399585Y-14459398D02*
X65363871Y-14566541D01*
X65363871Y-14566541D02*
X65292442Y-14637970D01*
X65292442Y-14637970D02*
X65221014Y-14673684D01*
X65221014Y-14673684D02*
X65078157Y-14709398D01*
X65078157Y-14709398D02*
X64971014Y-14709398D01*
X64971014Y-14709398D02*
X64828157Y-14673684D01*
X64828157Y-14673684D02*
X64756728Y-14637970D01*
X64756728Y-14637970D02*
X64685300Y-14566541D01*
X64685300Y-14566541D02*
X64649585Y-14459398D01*
X64649585Y-14459398D02*
X64649585Y-14280827D01*
X50237255Y-1010414D02*
X50237255Y-260414D01*
X50237255Y-617557D02*
X50665826Y-617557D01*
X50665826Y-1010414D02*
X50665826Y-260414D01*
X51022969Y-1010414D02*
X51022969Y-260414D01*
X51022969Y-260414D02*
X51201540Y-260414D01*
X51201540Y-260414D02*
X51308683Y-296128D01*
X51308683Y-296128D02*
X51380112Y-367557D01*
X51380112Y-367557D02*
X51415826Y-438985D01*
X51415826Y-438985D02*
X51451540Y-581842D01*
X51451540Y-581842D02*
X51451540Y-688985D01*
X51451540Y-688985D02*
X51415826Y-831842D01*
X51415826Y-831842D02*
X51380112Y-903271D01*
X51380112Y-903271D02*
X51308683Y-974700D01*
X51308683Y-974700D02*
X51201540Y-1010414D01*
X51201540Y-1010414D02*
X51022969Y-1010414D01*
X51772969Y-1010414D02*
X51772969Y-260414D01*
X51772969Y-260414D02*
X52022969Y-796128D01*
X52022969Y-796128D02*
X52272969Y-260414D01*
X52272969Y-260414D02*
X52272969Y-1010414D01*
X52630112Y-1010414D02*
X52630112Y-260414D01*
X9945255Y-1170414D02*
X9945255Y-420414D01*
X9945255Y-420414D02*
X10230969Y-420414D01*
X10230969Y-420414D02*
X10302398Y-456128D01*
X10302398Y-456128D02*
X10338112Y-491842D01*
X10338112Y-491842D02*
X10373826Y-563271D01*
X10373826Y-563271D02*
X10373826Y-670414D01*
X10373826Y-670414D02*
X10338112Y-741842D01*
X10338112Y-741842D02*
X10302398Y-777557D01*
X10302398Y-777557D02*
X10230969Y-813271D01*
X10230969Y-813271D02*
X9945255Y-813271D01*
X10623826Y-420414D02*
X10802398Y-1170414D01*
X10802398Y-1170414D02*
X10945255Y-634700D01*
X10945255Y-634700D02*
X11088112Y-1170414D01*
X11088112Y-1170414D02*
X11266684Y-420414D01*
X11980969Y-1170414D02*
X11730969Y-813271D01*
X11552398Y-1170414D02*
X11552398Y-420414D01*
X11552398Y-420414D02*
X11838112Y-420414D01*
X11838112Y-420414D02*
X11909541Y-456128D01*
X11909541Y-456128D02*
X11945255Y-491842D01*
X11945255Y-491842D02*
X11980969Y-563271D01*
X11980969Y-563271D02*
X11980969Y-670414D01*
X11980969Y-670414D02*
X11945255Y-741842D01*
X11945255Y-741842D02*
X11909541Y-777557D01*
X11909541Y-777557D02*
X11838112Y-813271D01*
X11838112Y-813271D02*
X11552398Y-813271D01*
X1793104Y-13328696D02*
X1831200Y-13366792D01*
X1831200Y-13366792D02*
X1869295Y-13481077D01*
X1869295Y-13481077D02*
X1869295Y-13557268D01*
X1869295Y-13557268D02*
X1831200Y-13671554D01*
X1831200Y-13671554D02*
X1755009Y-13747744D01*
X1755009Y-13747744D02*
X1678819Y-13785839D01*
X1678819Y-13785839D02*
X1526438Y-13823935D01*
X1526438Y-13823935D02*
X1412152Y-13823935D01*
X1412152Y-13823935D02*
X1259771Y-13785839D01*
X1259771Y-13785839D02*
X1183580Y-13747744D01*
X1183580Y-13747744D02*
X1107390Y-13671554D01*
X1107390Y-13671554D02*
X1069295Y-13557268D01*
X1069295Y-13557268D02*
X1069295Y-13481077D01*
X1069295Y-13481077D02*
X1107390Y-13366792D01*
X1107390Y-13366792D02*
X1145485Y-13328696D01*
X1640723Y-13023935D02*
X1640723Y-12642982D01*
X1869295Y-13100125D02*
X1069295Y-12833458D01*
X1069295Y-12833458D02*
X1869295Y-12566792D01*
X1869295Y-12300125D02*
X1069295Y-12300125D01*
X1069295Y-12300125D02*
X1640723Y-12033459D01*
X1640723Y-12033459D02*
X1069295Y-11766792D01*
X1069295Y-11766792D02*
X1869295Y-11766792D01*
X1450247Y-11385839D02*
X1450247Y-11119173D01*
X1869295Y-11004887D02*
X1869295Y-11385839D01*
X1869295Y-11385839D02*
X1069295Y-11385839D01*
X1069295Y-11385839D02*
X1069295Y-11004887D01*
X1869295Y-10204886D02*
X1488342Y-10471553D01*
X1869295Y-10662029D02*
X1069295Y-10662029D01*
X1069295Y-10662029D02*
X1069295Y-10357267D01*
X1069295Y-10357267D02*
X1107390Y-10281077D01*
X1107390Y-10281077D02*
X1145485Y-10242982D01*
X1145485Y-10242982D02*
X1221676Y-10204886D01*
X1221676Y-10204886D02*
X1335961Y-10204886D01*
X1335961Y-10204886D02*
X1412152Y-10242982D01*
X1412152Y-10242982D02*
X1450247Y-10281077D01*
X1450247Y-10281077D02*
X1488342Y-10357267D01*
X1488342Y-10357267D02*
X1488342Y-10662029D01*
X1640723Y-9900125D02*
X1640723Y-9519172D01*
X1869295Y-9976315D02*
X1069295Y-9709648D01*
X1069295Y-9709648D02*
X1869295Y-9442982D01*
X4539164Y-21432142D02*
X3789164Y-21432142D01*
X4467735Y-20646428D02*
X4503450Y-20682142D01*
X4503450Y-20682142D02*
X4539164Y-20789285D01*
X4539164Y-20789285D02*
X4539164Y-20860713D01*
X4539164Y-20860713D02*
X4503450Y-20967856D01*
X4503450Y-20967856D02*
X4432021Y-21039285D01*
X4432021Y-21039285D02*
X4360592Y-21074999D01*
X4360592Y-21074999D02*
X4217735Y-21110713D01*
X4217735Y-21110713D02*
X4110592Y-21110713D01*
X4110592Y-21110713D02*
X3967735Y-21074999D01*
X3967735Y-21074999D02*
X3896307Y-21039285D01*
X3896307Y-21039285D02*
X3824878Y-20967856D01*
X3824878Y-20967856D02*
X3789164Y-20860713D01*
X3789164Y-20860713D02*
X3789164Y-20789285D01*
X3789164Y-20789285D02*
X3824878Y-20682142D01*
X3824878Y-20682142D02*
X3860592Y-20646428D01*
X4539164Y-19932142D02*
X4539164Y-20360713D01*
X4539164Y-20146428D02*
X3789164Y-20146428D01*
X3789164Y-20146428D02*
X3896307Y-20217856D01*
X3896307Y-20217856D02*
X3967735Y-20289285D01*
X3967735Y-20289285D02*
X4003450Y-20360713D01*
X56757585Y-23530112D02*
X56757585Y-23101541D01*
X56757585Y-23315826D02*
X57507585Y-23315826D01*
X57507585Y-23315826D02*
X57400442Y-23244398D01*
X57400442Y-23244398D02*
X57329014Y-23172969D01*
X57329014Y-23172969D02*
X57293300Y-23101541D01*
D12*
%TO.C,SW3*%
X9788983Y-17582952D02*
X12153016Y-15735968D01*
X13482952Y-22311017D02*
X9788983Y-17582952D01*
X12153016Y-15735968D02*
X14517048Y-13888983D01*
X14517048Y-13888983D02*
X18211017Y-18617048D01*
X18211017Y-18617048D02*
X13482952Y-22311017D01*
X16015565Y-18100000D02*
G75*
G02*
X11984435Y-18100000I-2015565J0D01*
G01*
X11984435Y-18100000D02*
G75*
G02*
X16015565Y-18100000I2015565J0D01*
G01*
%TO.C,J1*%
X38000000Y3050000D02*
X32000000Y3050000D01*
X40750000Y-450000D02*
X38000000Y-450000D01*
X38000000Y-450000D02*
X38000000Y3050000D01*
X32000000Y-450000D02*
X32000000Y3050000D01*
X29250000Y-450000D02*
X32000000Y-450000D01*
X40750000Y-14450000D02*
X40750000Y-450000D01*
X40750000Y-14450000D02*
X29250000Y-14450000D01*
X29250000Y-14450000D02*
X29250000Y-450000D01*
%TO.C,SW9*%
X31200000Y-16400000D02*
X34200000Y-16400000D01*
X31200000Y-22400000D02*
X31200000Y-16400000D01*
X34200000Y-16400000D02*
X37200000Y-16400000D01*
X37200000Y-16400000D02*
X37200000Y-22400000D01*
X37200000Y-22400000D02*
X31200000Y-22400000D01*
X36215564Y-19400000D02*
G75*
G02*
X32184436Y-19400000I-2015564J0D01*
G01*
X32184436Y-19400000D02*
G75*
G02*
X36215564Y-19400000I2015564J0D01*
G01*
%TO.C,C3*%
X56607000Y-3594000D02*
X53407000Y-3594000D01*
X53407000Y-1994000D01*
X56607000Y-1994000D01*
X56607000Y-3594000D01*
%TO.C,C4*%
X48883000Y-3621000D02*
X48883000Y-1521000D01*
X48883000Y-1521000D02*
X45383000Y-1521000D01*
X48183000Y-4321000D02*
X48883000Y-3621000D01*
X45383000Y-4321000D02*
X48183000Y-4321000D01*
X45383000Y-1521000D02*
X45383000Y-4321000D01*
%TO.C,SW6*%
X63000000Y-22000000D02*
X60000000Y-22000000D01*
X63000000Y-16000000D02*
X63000000Y-22000000D01*
X60000000Y-22000000D02*
X57000000Y-22000000D01*
X57000000Y-22000000D02*
X57000000Y-16000000D01*
X57000000Y-16000000D02*
X63000000Y-16000000D01*
X62015564Y-19000000D02*
G75*
G02*
X57984436Y-19000000I-2015564J0D01*
G01*
X57984436Y-19000000D02*
G75*
G02*
X62015564Y-19000000I2015564J0D01*
G01*
%TO.C,C1*%
X21850000Y-4680000D02*
X25050000Y-4680000D01*
X25050000Y-6280000D01*
X21850000Y-6280000D01*
X21850000Y-4680000D01*
%TO.C,R2*%
X26500000Y-7630000D02*
X28100000Y-7630000D01*
X28100000Y-4430000D01*
X26500000Y-4430000D01*
X26500000Y-7630000D01*
%TO.C,R1*%
X22420000Y-19410000D02*
X25620000Y-19410000D01*
X25620000Y-21010000D01*
X22420000Y-21010000D01*
X22420000Y-19410000D01*
%TO.C,SW2*%
X9788983Y-5382952D02*
X12153016Y-3535968D01*
X13482952Y-10111017D02*
X9788983Y-5382952D01*
X12153016Y-3535968D02*
X14517048Y-1688983D01*
X14517048Y-1688983D02*
X18211017Y-6417048D01*
X18211017Y-6417048D02*
X13482952Y-10111017D01*
X16015565Y-5900000D02*
G75*
G02*
X11984435Y-5900000I-2015565J0D01*
G01*
X11984435Y-5900000D02*
G75*
G02*
X16015565Y-5900000I2015565J0D01*
G01*
%TO.C,C2*%
X21253000Y-1713000D02*
X21253000Y-3813000D01*
X21253000Y-3813000D02*
X24753000Y-3813000D01*
X21953000Y-1013000D02*
X21253000Y-1713000D01*
X24753000Y-1013000D02*
X21953000Y-1013000D01*
X24753000Y-3813000D02*
X24753000Y-1013000D01*
%TO.C,SW8*%
X57000000Y-8000000D02*
X60000000Y-8000000D01*
X57000000Y-14000000D02*
X57000000Y-8000000D01*
X60000000Y-8000000D02*
X63000000Y-8000000D01*
X63000000Y-8000000D02*
X63000000Y-14000000D01*
X63000000Y-14000000D02*
X57000000Y-14000000D01*
X62015564Y-11000000D02*
G75*
G02*
X57984436Y-11000000I-2015564J0D01*
G01*
X57984436Y-11000000D02*
G75*
G02*
X62015564Y-11000000I2015564J0D01*
G01*
%TO.C,R4*%
X56480000Y-6515000D02*
X53280000Y-6515000D01*
X53280000Y-4915000D01*
X56480000Y-4915000D01*
X56480000Y-6515000D01*
%TO.C,SW7*%
X46000000Y-8000000D02*
X49000000Y-8000000D01*
X46000000Y-14000000D02*
X46000000Y-8000000D01*
X49000000Y-8000000D02*
X52000000Y-8000000D01*
X52000000Y-8000000D02*
X52000000Y-14000000D01*
X52000000Y-14000000D02*
X46000000Y-14000000D01*
X51015564Y-11000000D02*
G75*
G02*
X46984436Y-11000000I-2015564J0D01*
G01*
X46984436Y-11000000D02*
G75*
G02*
X51015564Y-11000000I2015564J0D01*
G01*
%TO.C,SW5*%
X52000000Y-22000000D02*
X49000000Y-22000000D01*
X52000000Y-16000000D02*
X52000000Y-22000000D01*
X49000000Y-22000000D02*
X46000000Y-22000000D01*
X46000000Y-22000000D02*
X46000000Y-16000000D01*
X46000000Y-16000000D02*
X52000000Y-16000000D01*
X51015564Y-19000000D02*
G75*
G02*
X46984436Y-19000000I-2015564J0D01*
G01*
X46984436Y-19000000D02*
G75*
G02*
X51015564Y-19000000I2015564J0D01*
G01*
%TO.C,R3*%
X23390000Y-16780000D02*
X26590000Y-16780000D01*
X26590000Y-18380000D01*
X23390000Y-18380000D01*
X23390000Y-16780000D01*
%TO.C,SW4*%
X20617048Y-7788983D02*
X22464032Y-10153016D01*
X15888983Y-11482952D02*
X20617048Y-7788983D01*
X22464032Y-10153016D02*
X24311017Y-12517048D01*
X24311017Y-12517048D02*
X19582952Y-16211017D01*
X19582952Y-16211017D02*
X15888983Y-11482952D01*
X22115565Y-12000000D02*
G75*
G02*
X18084435Y-12000000I-2015565J0D01*
G01*
X18084435Y-12000000D02*
G75*
G02*
X22115565Y-12000000I2015565J0D01*
G01*
%TO.C,SW1*%
X8417048Y-7788983D02*
X10264032Y-10153016D01*
X3688983Y-11482952D02*
X8417048Y-7788983D01*
X10264032Y-10153016D02*
X12111017Y-12517048D01*
X12111017Y-12517048D02*
X7382952Y-16211017D01*
X7382952Y-16211017D02*
X3688983Y-11482952D01*
X9915565Y-12000000D02*
G75*
G02*
X5884435Y-12000000I-2015565J0D01*
G01*
X5884435Y-12000000D02*
G75*
G02*
X9915565Y-12000000I2015565J0D01*
G01*
%TD*%
M02*
