%TF.GenerationSoftware,KiCad,Pcbnew,9.0.7*%
%TF.CreationDate,2026-05-20T09:51:19+02:00*%
%TF.ProjectId,ZeroTiny,5a65726f-5469-46e7-992e-6b696361645f,rev?*%
%TF.SameCoordinates,Original*%
%TF.FileFunction,Soldermask,Bot*%
%TF.FilePolarity,Negative*%
%FSLAX46Y46*%
G04 Gerber Fmt 4.6, Leading zero omitted, Abs format (unit mm)*
G04 Created by KiCad (PCBNEW 9.0.7) date 2026-05-20 09:51:19*
%MOMM*%
%LPD*%
G01*
G04 APERTURE LIST*
G04 Aperture macros list*
%AMRoundRect*
0 Rectangle with rounded corners*
0 $1 Rounding radius*
0 $2 $3 $4 $5 $6 $7 $8 $9 X,Y pos of 4 corners*
0 Add a 4 corners polygon primitive as box body*
4,1,4,$2,$3,$4,$5,$6,$7,$8,$9,$2,$3,0*
0 Add four circle primitives for the rounded corners*
1,1,$1+$1,$2,$3*
1,1,$1+$1,$4,$5*
1,1,$1+$1,$6,$7*
1,1,$1+$1,$8,$9*
0 Add four rect primitives between the rounded corners*
20,1,$1+$1,$2,$3,$4,$5,0*
20,1,$1+$1,$4,$5,$6,$7,0*
20,1,$1+$1,$6,$7,$8,$9,0*
20,1,$1+$1,$8,$9,$2,$3,0*%
G04 Aperture macros list end*
%ADD10RoundRect,0.700000X0.772020X-0.094792X0.094792X0.772020X-0.772020X0.094792X-0.094792X-0.772020X0*%
%ADD11O,2.500000X4.500000*%
%ADD12O,4.500000X3.000000*%
%ADD13O,3.000000X4.500000*%
%ADD14RoundRect,0.700000X0.550000X-0.550000X0.550000X0.550000X-0.550000X0.550000X-0.550000X-0.550000X0*%
%ADD15RoundRect,0.700000X-0.550000X0.550000X-0.550000X-0.550000X0.550000X-0.550000X0.550000X0.550000X0*%
%ADD16RoundRect,0.700000X-0.094792X-0.772020X0.772020X-0.094792X0.094792X0.772020X-0.772020X0.094792X0*%
%ADD17C,6.000000*%
%ADD18O,1.600000X3.000000*%
G04 APERTURE END LIST*
D10*
%TO.C,SW3*%
X10053727Y-18327876D03*
X15175797Y-14326076D03*
X12824203Y-21873924D03*
X17946273Y-17872124D03*
%TD*%
D11*
%TO.C,J1*%
X40450000Y-10550000D03*
X37350000Y-9350000D03*
D12*
X35000000Y-2250000D03*
D13*
X30400000Y-6550000D03*
D12*
X30900000Y-13750000D03*
%TD*%
D14*
%TO.C,SW9*%
X30950000Y-17150000D03*
X37450000Y-17150000D03*
X30950000Y-21650000D03*
X37450000Y-21650000D03*
%TD*%
D15*
%TO.C,SW6*%
X63250000Y-21250000D03*
X56750000Y-21250000D03*
X63250000Y-16750000D03*
X56750000Y-16750000D03*
%TD*%
D10*
%TO.C,SW2*%
X10053727Y-6127876D03*
X15175797Y-2126076D03*
X12824203Y-9673924D03*
X17946273Y-5672124D03*
%TD*%
D14*
%TO.C,SW8*%
X56750000Y-8750000D03*
X63250000Y-8750000D03*
X56750000Y-13250000D03*
X63250000Y-13250000D03*
%TD*%
%TO.C,SW7*%
X45750000Y-8750000D03*
X52250000Y-8750000D03*
X45750000Y-13250000D03*
X52250000Y-13250000D03*
%TD*%
D15*
%TO.C,SW5*%
X52250000Y-21250000D03*
X45750000Y-21250000D03*
X52250000Y-16750000D03*
X45750000Y-16750000D03*
%TD*%
D16*
%TO.C,SW4*%
X19872124Y-8053727D03*
X23873924Y-13175797D03*
X16326076Y-10824203D03*
X20327876Y-15946273D03*
%TD*%
%TO.C,SW1*%
X7672124Y-8053727D03*
X11673924Y-13175797D03*
X4126076Y-10824203D03*
X8127876Y-15946273D03*
%TD*%
D17*
%TO.C,IC1*%
X62000000Y-27000000D03*
X4000000Y-27000000D03*
X62000000Y-4000000D03*
X4000000Y-4000000D03*
D18*
X57130000Y-25330000D03*
X57130000Y-28670000D03*
X54590000Y-25330000D03*
X54590000Y-28670000D03*
X52050000Y-25330000D03*
X52050000Y-28670000D03*
X49510000Y-25330000D03*
X49510000Y-28670000D03*
X46970000Y-25330000D03*
X46970000Y-28670000D03*
X44430000Y-25330000D03*
X44430000Y-28670000D03*
X41890000Y-25330000D03*
X41890000Y-28670000D03*
X39350000Y-25330000D03*
X39350000Y-28670000D03*
X36810000Y-25330000D03*
X36810000Y-28670000D03*
X34270000Y-25330000D03*
X34270000Y-28670000D03*
X31730000Y-25330000D03*
X31730000Y-28670000D03*
X29190000Y-25330000D03*
X29190000Y-28670000D03*
X26650000Y-25330000D03*
X26650000Y-28670000D03*
X24110000Y-25330000D03*
X24110000Y-28670000D03*
X21570000Y-25330000D03*
X21570000Y-28670000D03*
X19030000Y-25330000D03*
X19030000Y-28670000D03*
X16490000Y-25330000D03*
X16490000Y-28670000D03*
X13950000Y-25330000D03*
X13950000Y-28670000D03*
X11410000Y-25330000D03*
X11410000Y-28670000D03*
X8870000Y-25330000D03*
X8870000Y-28670000D03*
%TD*%
M02*
